<?xml version='1.0' encoding='utf-8'?>
<svg xmlns="http://www.w3.org/2000/svg" width="155" height="108" viewBox="0 0 155 108">
  <g fill="rgb(0%, 0%, 0%)" fill-opacity="1">
    <path id="char-0" d="M 48.1602 86.1539 L 41.8135 85.7515 L 41.0596 60.5857 C 40.9988 58.5545 40.8403 56.64 40.5846 54.8509 C 40.3287 53.0575 39.9156 51.6402 39.3454 50.6036 C 38.7496 49.46 37.9146 48.5821 36.8407 47.9786 C 35.7667 47.3708 34.3857 47.0112 32.6977 46.9042 C 30.9647 46.7943 29.168 47.1807 27.3075 48.0632 C 25.447 48.9458 23.6735 50.1104 21.9872 51.5569 L 22.9757 84.5573 L 16.6289 84.155 L 14.7846 22.5858 L 21.1314 22.9881 L 21.7987 45.2654 C 23.7216 43.4653 25.7246 42.0915 27.8078 41.1441 C 29.891 40.1966 32.0467 39.7935 34.2748 39.9348 C 38.3484 40.193 41.4974 41.8276 43.7216 44.8385 C 45.9458 47.8493 47.1389 52.0587 47.3009 57.4664 Z M 48.1602 86.1539" />
    <path id="char-1" d="M 96.2196 61.1484 C 95.8488 67.9468 94.1273 73.6595 91.251 78.4024 C 88.0246 83.1816 84.0049 85.5337 78.9872 85.2874 C 73.8556 84.5844 69.8599 81.8982 67.0788 77.6859 C 64.3449 73.7971 63.1615 68.4535 63.5323 61.6551 C 63.903 54.8568 65.6684 49.4634 68.8359 45.4664 C 72.1896 41.4911 76.6541 39.4927 81.8534 39.4324 C 86.6305 39.3381 90.1059 41.2175 92.6601 45.0971 C 95.4039 48.9983 96.5903 54.3501 96.2196 61.1484 Z M 90.0689 61.2438 C 90.3636 55.84 89.6844 51.8363 88.0309 49.2411 C 86.3776 46.6418 83.9552 45.3648 80.7637 45.4142 C 77.5298 45.4644 74.9501 46.8148 73.0171 49.4739 C 71.1026 51.7747 69.9777 56.156 69.683 61.5598 C 69.3978 66.7893 70.0797 70.7431 71.7291 73.413 C 73.3784 76.0871 75.8092 77.4013 78.7692 77.2396 C 82.1924 77.3023 84.7525 75.9232 86.709 73.2223 C 88.6621 70.5173 89.781 66.5231 90.0689 61.2438 Z M 90.0689 61.2438" />
    <path id="char-2" d="M 142.1191 75.4802 C 142.999 81.9924 141.9858 86.9714 139.0795 90.417 C 136.1733 93.8626 131.2732 95.9965 124.3792 96.8189 C 122.0898 97.092 119.8371 97.217 117.6285 97.1853 C 115.4161 97.158 113.2177 97.0086 111.0371 96.7328 L 110.1448 90.1288 L 110.5307 90.0828 C 111.7697 90.3544 113.7162 90.6387 116.3712 90.9433 C 119.0257 91.2441 121.6388 91.2392 124.2112 90.9323 C 126.6806 90.6378 128.69 90.1301 130.2394 89.4094 C 131.7887 88.6887 132.95 87.8046 133.7233 86.757 C 134.5028 85.7553 135.0003 84.6009 135.2157 83.2937 C 135.4312 81.9865 135.4335 80.5532 135.2229 78.994 L 134.7488 75.4856 C 132.773 77.3057 130.8421 78.7165 128.9485 79.7269 C 127.0587 80.7328 124.5723 81.4178 121.4855 81.786 C 116.3408 82.3997 112.0314 81.2322 108.5649 78.275 C 105.0947 75.3221 102.9503 70.8324 102.1354 64.8017 C 102.0435 61.8378 101.8276 58.5901 102.5408 56.0663 C 103.2589 53.5458 104.445 51.3213 105.968 49.3509 C 107.5757 47.7087 109.2808 46.0121 111.5513 44.8248 C 113.8212 43.6337 116.1391 42.8951 118.5057 42.6128 C 121.0009 42.3151 123.123 42.2872 124.6656 42.5443 C 126.6099 42.7839 128.4853 43.2514 130.4871 43.9446 L 130.727 42.2384 L 137.5181 41.4283 Z M 134.0285 70.1542 L 131.1981 49.2072 C 129.1635 48.6577 127.2918 48.314 125.5925 48.1827 C 123.8884 48.0482 122.2108 48.0774 120.5645 48.2738 C 116.8138 48.6928 113.6001 50.3161 111.633 52.974 C 109.6563 55.644 108.9889 59.2309 109.6024 63.7712 C 110.1849 68.0821 111.4753 71.2485 113.4736 73.2702 C 115.4719 75.2919 118.5311 76.1429 122.3746 75.5986 C 124.4839 75.347 126.5485 74.7318 128.5779 73.7596 C 130.6025 72.7842 132.4177 71.5813 134.0285 70.1542 Z M 134.0285 70.1542" />
  </g>
</svg>
