<?xml version="1.0" encoding="UTF-8" standalone="no"?>
<svg
   xmlns:dc="http://purl.org/dc/elements/1.1/"
   xmlns:cc="http://creativecommons.org/ns#"
   xmlns:rdf="http://www.w3.org/1999/02/22-rdf-syntax-ns#"
   xmlns:svg="http://www.w3.org/2000/svg"
   xmlns="http://www.w3.org/2000/svg"
   xmlns:sodipodi="http://sodipodi.sourceforge.net/DTD/sodipodi-0.dtd"
   xmlns:inkscape="http://www.inkscape.org/namespaces/inkscape"
   width="10mm"
   height="5mm"
   viewBox="0 0 10 5"
   version="1.1"
   id="svg890"
   inkscape:version="1.0.1 (c497b03c, 2020-09-10)"
   sodipodi:docname="blank-clock-mode-scan.svg">
  <defs
     id="defs884" />
  <sodipodi:namedview
     id="base"
     pagecolor="#ffffff"
     bordercolor="#666666"
     borderopacity="1.0"
     inkscape:pageopacity="0.0"
     inkscape:pageshadow="2"
     inkscape:zoom="7.919596"
     inkscape:cx="23.925645"
     inkscape:cy="2.8363977"
     inkscape:document-units="mm"
     inkscape:current-layer="layer1"
     showgrid="false"
     units="mm"
     inkscape:window-width="1440"
     inkscape:window-height="855"
     inkscape:window-x="0"
     inkscape:window-y="23"
     inkscape:window-maximized="1"
     inkscape:snap-global="false"
     inkscape:document-rotation="0" />
  <metadata
     id="metadata887">
    <rdf:RDF>
      <cc:Work
         rdf:about="">
        <dc:format>image/svg+xml</dc:format>
        <dc:type
           rdf:resource="http://purl.org/dc/dcmitype/StillImage" />
        <dc:title />
      </cc:Work>
    </rdf:RDF>
  </metadata>
  <g
     inkscape:label="Layer 1"
     inkscape:groupmode="layer"
     id="layer1"
     transform="translate(0,-292)">
    <g
       aria-label="rst"
       style="font-style:normal;font-weight:normal;font-size:6.29599571px;line-height:1.25;font-family:sans-serif;letter-spacing:0px;word-spacing:0px;fill:#000000;fill-opacity:1;stroke:none;stroke-width:0.15739989"
       id="text1460">
      <rect
         style="fill:#dedede;fill-opacity:1;stroke:#000000;stroke-width:0.0405524;stroke-opacity:1"
         id="rect2390"
         width="8.3529882"
         height="3.7808547"
         x="0.21206512"
         y="292.08575" />
      <path
         style="fill:#adadad;fill-opacity:1;stroke:#000000;stroke-width:0.127101;stroke-linecap:butt;stroke-linejoin:bevel;stroke-miterlimit:4;stroke-dasharray:none;stroke-opacity:1"
         d="m 8.6030589,292.15394 1.0204635,0.59028 0.051021,4.14452 -1.071485,-1.00207 z"
         id="path2394"
         inkscape:connector-curvature="0"
         sodipodi:nodetypes="ccccc" />
      <path
         style="fill:#848484;fill-opacity:1;stroke:#000000;stroke-width:0.152046;stroke-linecap:butt;stroke-linejoin:round;stroke-miterlimit:4;stroke-dasharray:none;stroke-opacity:1"
         d="m 0.30053403,295.89944 0.60512692,0.7811 8.68875495,0.15756 -1.1553752,-0.98493 z"
         id="path2396"
         inkscape:connector-curvature="0"
         sodipodi:nodetypes="ccccc" />
      <g
         aria-label="scan"
         transform="scale(0.86291641,1.1588608)"
         id="text1665"
         style="font-style:normal;font-weight:normal;font-size:4.11687px;line-height:1.25;font-family:sans-serif;fill:#000000;fill-opacity:1;stroke:none;stroke-width:0.0161999">
        <path
           d="m 2.4628883,254.11409 q 0,0.30756 -0.2890876,0.54648 -0.2868111,0.23861 -0.7853164,0.31093 -0.2822587,0.041 -0.51899195,0.017 -0.23445681,-0.0263 -0.3937964,-0.0735 v -0.42415 l 0.0227628,-0.003 q 0.20258891,0.10529 0.45070344,0.14971 0.24811451,0.0424 0.47574251,0.009 0.2822587,-0.0409 0.4415982,-0.14446 0.1593397,-0.10352 0.1593397,-0.27641 0,-0.13267 -0.086498,-0.18847 -0.086498,-0.0558 -0.3323369,-0.0684 -0.091052,-0.005 -0.2390094,-0.008 -0.1456818,-0.003 -0.2663247,-0.0137 -0.33461319,-0.0299 -0.47574254,-0.16014 -0.13885308,-0.13263 -0.13885308,-0.35375 0,-0.13871 0.0637358,-0.27057 0.0660121,-0.1322 0.19803635,-0.24784 0.12747163,-0.113 0.32323187,-0.19565 0.1980364,-0.085 0.4415982,-0.12036 0.2276281,-0.033 0.4598086,-0.0164 0.2344568,0.0142 0.3892438,0.0622 v 0.40404 l -0.022763,0.003 q -0.1638923,-0.0828 -0.3983491,-0.12111 -0.2344568,-0.0404 -0.4598085,-0.008 -0.2344568,0.034 -0.3960727,0.13786 -0.16161588,0.10185 -0.16161588,0.25864 0,0.1387 0.0978798,0.19486 0.095604,0.0565 0.3095741,0.0697 0.1183666,0.007 0.2640485,0.01 0.1479582,0.003 0.2458382,0.009 0.2981927,0.017 0.4598085,0.14034 0.1616159,0.12531 0.1616159,0.37056 z"
           style="stroke-width:0.0172388"
           id="path1667" />
        <path
           d="m 4.4546143,254.69481 q -0.1970533,0.0804 -0.3722477,0.12149 -0.1731967,0.0413 -0.36369,0.0313 -0.2426282,-0.0128 -0.4384897,-0.0936 -0.1956723,-0.0829 -0.3263512,-0.23481 -0.1326803,-0.15208 -0.1919604,-0.37687 -0.05928,-0.22479 -0.031313,-0.51956 0.052129,-0.54942 0.3825869,-0.8464 0.3324633,-0.29689 0.8277457,-0.27083 0.1924985,0.0101 0.3718371,0.074 0.1813437,0.064 0.3283263,0.15027 l -0.039763,0.41909 -0.020052,-0.001 q -0.1597,-0.14342 -0.3373283,-0.22531 -0.1756203,-0.0818 -0.350072,-0.091 -0.3208307,-0.0169 -0.5278607,0.18987 -0.2048347,0.20485 -0.244407,0.62193 -0.038431,0.40505 0.121299,0.63311 0.1619254,0.22616 0.4907769,0.24346 0.114296,0.006 0.2354511,-0.0178 0.1211645,-0.0239 0.2199704,-0.067 0.086207,-0.0378 0.1627663,-0.0801 0.076749,-0.0443 0.1220946,-0.0762 l 0.020052,0.001 z"
           style="stroke-width:0.0161999"
           id="path1669" />
        <path
           d="M 7.1296643,253.99974 H 6.6850978 v -0.17498 q -0.059434,0.025 -0.1616604,0.0706 -0.099849,0.0441 -0.1949435,0.0706 -0.111736,0.0338 -0.256755,0.0559 -0.145019,0.0236 -0.3399625,0.0236 -0.3589813,0 -0.6086042,-0.14704 -0.2496228,-0.14703 -0.2496228,-0.37494 0,-0.18675 0.1283774,-0.30144 0.1307548,-0.11616 0.3708683,-0.18233 0.2424907,-0.0662 0.5824532,-0.0897 0.3399625,-0.0236 0.7298495,-0.0353 v -0.0427 q 0,-0.0941 -0.054679,-0.15586 -0.052302,-0.0617 -0.1521511,-0.097 -0.095095,-0.0338 -0.2282266,-0.0456 -0.1331322,-0.0118 -0.2781512,-0.0118 -0.1759247,0 -0.3922644,0.0294 -0.2163398,0.028 -0.4469437,0.0823 h -0.023774 v -0.28085 q 0.1307549,-0.0221 0.3780004,-0.0485 0.2472454,-0.0265 0.4873588,-0.0265 0.2805285,0 0.4873589,0.0294 0.2092076,0.0279 0.3613587,0.097 0.1497737,0.0677 0.2282266,0.17497 0.078453,0.10734 0.078453,0.26614 z m -0.4445665,-0.40436 v -0.4573 q -0.2044529,0.007 -0.4826041,0.0221 -0.2757738,0.0147 -0.4374342,0.0427 -0.1925663,0.0338 -0.3114343,0.10587 -0.118868,0.0706 -0.118868,0.19556 0,0.14116 0.1378869,0.21321 0.137887,0.0706 0.4207928,0.0706 0.2353587,0 0.4303022,-0.0559 0.1949435,-0.0573 0.3613587,-0.13674 z"
           style="stroke-width:0.0150675"
           id="path1671" />
        <path
           d="m 9.390447,254.32893 -0.3779158,0.11606 v -1.27848 q 0,-0.15479 -0.018092,-0.28391 -0.018092,-0.13114 -0.066336,-0.19271 -0.050255,-0.069 -0.1447337,-0.0802 -0.094479,-0.0132 -0.2452432,0.0331 -0.1547847,0.0476 -0.3236407,0.17584 -0.168856,0.12845 -0.3236406,0.29433 v 1.6765 l -0.3779158,0.11606 v -2.24538 L 7.890845,252.5441 v 0.24926 q 0.1768967,-0.20108 0.3658546,-0.34155 0.1889579,-0.14027 0.3879668,-0.20154 0.3638444,-0.11174 0.5548125,0.0487 0.1909681,0.16046 0.1909681,0.57255 z"
           style="stroke-width:0.0161999"
           id="path1673" />
      </g>
    </g>
  </g>
</svg>
