<?xml version="1.0" encoding="UTF-8" standalone="no"?>
<!-- Created with Inkscape (http://www.inkscape.org/) -->

<svg
   xmlns:dc="http://purl.org/dc/elements/1.1/"
   xmlns:cc="http://creativecommons.org/ns#"
   xmlns:rdf="http://www.w3.org/1999/02/22-rdf-syntax-ns#"
   xmlns:svg="http://www.w3.org/2000/svg"
   xmlns="http://www.w3.org/2000/svg"
   xmlns:sodipodi="http://sodipodi.sourceforge.net/DTD/sodipodi-0.dtd"
   xmlns:inkscape="http://www.inkscape.org/namespaces/inkscape"
   width="75"
   height="380"
   viewBox="0 0 19.84375 100.54167"
   version="1.1"
   id="svg8"
   inkscape:version="0.92.2 5c3e80d, 2017-08-06"
   sodipodi:docname="ComputerscareHorseADoodleDooPanel.svg"
   style="enable-background:new">
  <defs
     id="defs2" />
  <sodipodi:namedview
     id="base"
     pagecolor="#ffffff"
     bordercolor="#666666"
     borderopacity="1.0"
     inkscape:pageopacity="0.0"
     inkscape:pageshadow="2"
     inkscape:zoom="4.0000002"
     inkscape:cx="30.425775"
     inkscape:cy="165.57579"
     inkscape:document-units="mm"
     inkscape:current-layer="g1669"
     showgrid="false"
     units="px"
     inkscape:snap-bbox="true"
     inkscape:snap-page="true"
     inkscape:bbox-nodes="true"
     inkscape:snap-bbox-edge-midpoints="true"
     inkscape:window-width="1440"
     inkscape:window-height="856"
     inkscape:window-x="0"
     inkscape:window-y="0"
     inkscape:window-maximized="0"
     inkscape:snap-global="false"
     showguides="false"
     inkscape:lockguides="false" />
  <metadata
     id="metadata5">
    <rdf:RDF>
      <cc:Work
         rdf:about="">
        <dc:format>image/svg+xml</dc:format>
        <dc:type
           rdf:resource="http://purl.org/dc/dcmitype/StillImage" />
        <dc:title></dc:title>
      </cc:Work>
    </rdf:RDF>
  </metadata>
  <g
     inkscape:label="Layer 1"
     inkscape:groupmode="layer"
     id="layer1"
     transform="translate(0,-196.45832)"
     style="display:none">
    <path
       style="opacity:1;vector-effect:none;fill:#f0f0f0;fill-opacity:1;fill-rule:evenodd;stroke:none;stroke-width:0.48607069;stroke-linecap:butt;stroke-linejoin:round;stroke-miterlimit:4;stroke-dasharray:none;stroke-dashoffset:0;stroke-opacity:1;paint-order:normal"
       d="M 0,196.45831 H 23.8125 V 296.99999 H 0 Z"
       id="rect817"
       inkscape:connector-curvature="0" />
    <text
       xml:space="preserve"
       style="font-style:normal;font-weight:normal;font-size:10.58333302px;line-height:1.25;font-family:sans-serif;letter-spacing:0px;word-spacing:0px;fill:#000000;fill-opacity:1;stroke:none;stroke-width:0.26458332"
       x="8.2147436"
       y="295.57718"
       id="text1490"
       transform="rotate(1.4468834)"><tspan
         sodipodi:role="line"
         id="tspan1488"
         x="8.2147436"
         y="295.57718"
         style="font-style:normal;font-variant:normal;font-weight:normal;font-stretch:normal;font-size:2.82222223px;font-family:sans-serif;-inkscape-font-specification:'sans-serif, Normal';font-variant-ligatures:normal;font-variant-caps:normal;font-variant-numeric:normal;font-feature-settings:normal;text-align:start;writing-mode:lr-tb;text-anchor:start;stroke-width:0.26458332">computerscare</tspan></text>
    <text
       transform="rotate(-5.9989835)"
       id="text1494"
       y="288.0314"
       x="-28.710276"
       style="font-style:normal;font-weight:normal;font-size:10.58333302px;line-height:1.25;font-family:sans-serif;letter-spacing:0px;word-spacing:0px;fill:#000000;fill-opacity:1;stroke:none;stroke-width:0.26458332"
       xml:space="preserve"><tspan
         style="font-style:normal;font-variant:normal;font-weight:normal;font-stretch:normal;font-size:2.82222223px;font-family:sans-serif;-inkscape-font-specification:'sans-serif, Normal';font-variant-ligatures:normal;font-variant-caps:normal;font-variant-numeric:normal;font-feature-settings:normal;text-align:start;writing-mode:lr-tb;text-anchor:start;stroke-width:0.26458332"
         y="288.0314"
         x="-28.710276"
         id="tspan1492"
         sodipodi:role="line">trg</tspan></text>
    <text
       xml:space="preserve"
       style="font-style:normal;font-weight:normal;font-size:10.58333302px;line-height:1.25;font-family:sans-serif;letter-spacing:0px;word-spacing:0px;fill:#000000;fill-opacity:1;stroke:none;stroke-width:0.26458332"
       x="20.711658"
       y="288.87244"
       id="text1498"
       transform="rotate(1.9714728)"><tspan
         sodipodi:role="line"
         id="tspan1496"
         x="20.711658"
         y="288.87244"
         style="font-style:normal;font-variant:normal;font-weight:normal;font-stretch:normal;font-size:2.82222223px;font-family:sans-serif;-inkscape-font-specification:'sans-serif, Normal';font-variant-ligatures:normal;font-variant-caps:normal;font-variant-numeric:normal;font-feature-settings:normal;text-align:start;writing-mode:lr-tb;text-anchor:start;stroke-width:0.26458332">in</tspan></text>
    <text
       transform="rotate(0.49746114)"
       id="text1521"
       y="289.16214"
       x="20.314623"
       style="font-style:normal;font-weight:normal;font-size:10.58333302px;line-height:1.25;font-family:sans-serif;letter-spacing:0px;word-spacing:0px;fill:#000000;fill-opacity:1;stroke:none;stroke-width:0.26458332"
       xml:space="preserve"><tspan
         style="font-style:normal;font-variant:normal;font-weight:normal;font-stretch:normal;font-size:3.17499995px;font-family:sans-serif;-inkscape-font-specification:'sans-serif, Normal';font-variant-ligatures:normal;font-variant-caps:normal;font-variant-numeric:normal;font-feature-settings:normal;text-align:start;writing-mode:lr-tb;text-anchor:start;stroke-width:0.26458332"
         y="289.16214"
         x="20.314623"
         id="tspan1519"
         sodipodi:role="line">clr</tspan></text>
    <text
       transform="matrix(1.0139335,-0.02825079,0.06854811,0.98434808,0,0)"
       id="text1645"
       y="204.61243"
       x="-10.296249"
       style="font-style:normal;font-weight:normal;font-size:10.74719143px;line-height:1.25;font-family:sans-serif;letter-spacing:0px;word-spacing:0px;fill:#000000;fill-opacity:1;stroke:none;stroke-width:0.26867977"
       xml:space="preserve"><tspan
         style="font-style:normal;font-variant:normal;font-weight:normal;font-stretch:normal;font-size:5.01535606px;font-family:sans-serif;-inkscape-font-specification:'sans-serif, Normal';font-variant-ligatures:normal;font-variant-caps:normal;font-variant-numeric:normal;font-feature-settings:normal;text-align:start;writing-mode:lr-tb;text-anchor:start;stroke-width:0.26867977"
         y="204.61243"
         x="-10.296249"
         id="tspan1643"
         sodipodi:role="line">debug</tspan></text>
  </g>
  <g
     inkscape:groupmode="layer"
     id="layer3"
     inkscape:label="bg" />
  <g
     style="display:inline"
     transform="translate(0,-196.45832)"
     id="g1669"
     inkscape:groupmode="layer"
     inkscape:label="Layer 1 copy">
    <path
       style="fill:#f2f4f5;fill-opacity:1;stroke:#000000;stroke-width:0.26683289px;stroke-linecap:butt;stroke-linejoin:miter;stroke-opacity:1"
       d="m 0.11070997,216.17839 0.19028788,79.88502 14.84245615,-0.18709 0.570864,-98.78055 -15.41332015,0.18709 z"
       id="path1130"
       inkscape:connector-curvature="0" />
    <rect
       style="fill:#fcfcfc;fill-opacity:1;stroke:#666666;stroke-width:0.19604766;stroke-linecap:round;stroke-linejoin:round;stroke-miterlimit:4;stroke-dasharray:none;stroke-opacity:1;paint-order:stroke fill markers"
       id="rect4821"
       width="19.102961"
       height="6.2033153"
       x="0.060198702"
       y="290.78348" />
    <g
       aria-label="computerscare"
       transform="matrix(0.76063702,-0.02804688,0.32442836,0.5822115,-99.43524,122.62476)"
       style="font-style:normal;font-weight:normal;font-size:10.58333302px;line-height:1.25;font-family:sans-serif;letter-spacing:0px;word-spacing:0px;fill:#000000;fill-opacity:1;stroke:none;stroke-width:0.26458332"
       id="text1651">
      <path
         d="m 9.6027791,290.64805 -0.1785472,1.13642 q -0.2071013,-0.22115 -0.4403012,-0.2959 -0.2289893,-0.082 -0.4873177,-0.0166 -0.5763522,0.1409 -1.0153469,0.97678 -0.4367476,0.82622 -0.6495621,2.18074 -0.2127596,1.35428 -0.011668,2.0279 0.2021416,0.66697 0.7797313,0.52296 0.259638,-0.0689 0.5316849,-0.2657 0.2776392,-0.20851 0.5741694,-0.55615 l -0.1764568,1.12315 q -0.2859177,0.30015 -0.5722526,0.48508 -0.2831694,0.18458 -0.583333,0.25957 -0.8170394,0.20584 -1.1320824,-0.72716 -0.3157407,-0.93062 -0.035471,-2.7145 0.2844124,-1.8103 0.9313988,-2.96829 0.6501935,-1.15871 1.4955927,-1.36946 0.2742623,-0.0675 0.516621,-0.0134 0.2438341,0.0468 0.4524011,0.21807 z"
         style="font-style:normal;font-variant:normal;font-weight:normal;font-stretch:normal;font-size:2.82222223px;font-family:sans-serif;-inkscape-font-specification:'sans-serif, Normal';font-variant-ligatures:normal;font-variant-caps:normal;font-variant-numeric:normal;font-feature-settings:normal;text-align:start;writing-mode:lr-tb;text-anchor:start;stroke-width:0.86896825"
         id="path1701"
         inkscape:connector-curvature="0" />
      <path
         d="m 10.830236,291.43632 q -0.242121,0.0741 -0.521559,0.57491 -0.278305,0.4971 -0.5188844,1.29095 -0.2405799,0.79385 -0.2403983,1.20956 0.00301,0.41129 0.2467005,0.33695 0.2404212,-0.0734 0.5199302,-0.57442 0.2795,-0.50105 0.51888,-1.29093 0.238185,-0.78594 0.236377,-1.20119 -6.09e-4,-0.4192 -0.241046,-0.34583 z m 0.186718,-0.6161 q 0.392499,-0.11967 0.429888,0.42797 0.03734,0.54781 -0.293009,1.63784 -0.329159,1.08613 -0.741139,1.77453 -0.410787,0.68447 -0.8033151,0.80422 -0.3941992,0.12035 -0.431527,-0.42747 -0.034513,-0.55222 0.2946412,-1.63833 0.3303527,-1.09005 0.7395069,-1.77404 0.410787,-0.68447 0.804954,-0.80472 z"
         style="font-style:normal;font-variant:normal;font-weight:normal;font-stretch:normal;font-size:2.82222223px;font-family:sans-serif;-inkscape-font-specification:'sans-serif, Normal';font-variant-ligatures:normal;font-variant-caps:normal;font-variant-numeric:normal;font-feature-settings:normal;text-align:start;writing-mode:lr-tb;text-anchor:start;stroke-width:0.46487415"
         id="path1703"
         inkscape:connector-curvature="0" />
      <path
         d="m 12.807825,292.43649 q 0.205376,-0.44273 0.383783,-0.65959 0.178399,-0.21686 0.344437,-0.2297 0.223488,-0.0171 0.228448,0.40604 0.0059,0.41968 -0.207833,1.21429 l -0.639393,2.37685 -0.236181,0.0178 0.633715,-2.35578 q 0.15227,-0.56606 0.153268,-0.83476 10e-4,-0.26867 -0.148429,-0.25721 -0.182514,0.0136 -0.378442,0.35612 -0.195844,0.34217 -0.350959,0.91879 l -0.598741,2.22567 -0.236178,0.0178 0.633714,-2.35578 q 0.153226,-0.56959 0.153269,-0.83477 10e-4,-0.26864 -0.150977,-0.25701 -0.179992,0.0135 -0.376835,0.35945 -0.195847,0.34216 -0.350016,0.91529 l -0.598731,2.22564 -0.236175,0.0178 1.059316,-3.93799 0.236176,-0.0178 -0.164564,0.61175 q 0.177856,-0.36827 0.336583,-0.5492 0.158669,-0.18072 0.313205,-0.19264 0.155863,-0.0123 0.205723,0.19761 0.05123,0.20939 -0.0081,0.62045 z"
         style="font-style:normal;font-variant:normal;font-weight:normal;font-stretch:normal;font-size:2.82222223px;font-family:sans-serif;-inkscape-font-specification:'sans-serif, Normal';font-variant-ligatures:normal;font-variant-caps:normal;font-variant-numeric:normal;font-feature-settings:normal;text-align:start;writing-mode:lr-tb;text-anchor:start;stroke-width:0.40262118"
         id="path1705"
         inkscape:connector-curvature="0" />
      <path
         d="m 13.60117,295.28799 -0.554629,2.13184 -0.267265,0.0195 1.443525,-5.54854 0.267267,-0.0195 -0.158727,0.61011 q 0.177173,-0.36501 0.349134,-0.54657 0.17433,-0.18522 0.352032,-0.19813 0.294924,-0.0224 0.326968,0.54651 0.03367,0.56789 -0.212846,1.51542 -0.246502,0.94749 -0.582696,1.54239 -0.334749,0.59479 -0.629491,0.61632 -0.17774,0.0129 -0.261498,-0.14988 -0.08139,-0.16659 -0.07182,-0.51936 z m 1.269531,-1.4693 q 0.189548,-0.72859 0.175557,-1.13245 -0.01161,-0.40756 -0.222552,-0.39216 -0.210881,0.0151 -0.440613,0.44055 -0.227296,0.42149 -0.416846,1.15007 -0.189545,0.72858 -0.177937,1.13612 0.01399,0.40387 0.22493,0.38848 0.210882,-0.0151 0.438235,-0.43686 0.229674,-0.42519 0.419218,-1.15375 z"
         style="font-style:normal;font-variant:normal;font-weight:normal;font-stretch:normal;font-size:2.82222223px;font-family:sans-serif;-inkscape-font-specification:'sans-serif, Normal';font-variant-ligatures:normal;font-variant-caps:normal;font-variant-numeric:normal;font-feature-settings:normal;text-align:start;writing-mode:lr-tb;text-anchor:start;stroke-width:0.43304038"
         id="path1707"
         inkscape:connector-curvature="0" />
      <path
         d="m 15.055401,295.73684 0.724151,-2.70123 0.3058,-0.15606 -0.716673,2.67333 q -0.169825,0.63345 -0.15225,0.89989 0.01859,0.26239 0.224461,0.15806 0.247262,-0.12499 0.491712,-0.57662 0.245936,-0.45182 0.421108,-1.10524 l 0.678203,-2.52983 0.305801,-0.15606 -1.19623,4.46214 -0.305797,0.15607 0.183713,-0.68527 q -0.220195,0.4628 -0.421392,0.73706 -0.198389,0.26912 -0.392768,0.36807 -0.32063,0.16323 -0.35841,-0.231 -0.03788,-0.39383 0.208823,-1.31409 z"
         style="font-style:normal;font-variant:normal;font-weight:normal;font-stretch:normal;font-size:2.82222223px;font-family:sans-serif;-inkscape-font-specification:'sans-serif, Normal';font-variant-ligatures:normal;font-variant-caps:normal;font-variant-numeric:normal;font-feature-settings:normal;text-align:start;writing-mode:lr-tb;text-anchor:start;stroke-width:0.45902026"
         id="path1709"
         inkscape:connector-curvature="0" />
      <path
         d="m 18.113428,292.3357 -0.179064,0.85803 0.491607,0.0721 -0.08052,0.38584 -0.491607,-0.0721 -0.342349,1.64047 q -0.07714,0.36965 -0.0511,0.4819 0.02738,0.11224 0.176528,0.13418 l 0.245304,0.0351 -0.08672,0.41554 -0.245305,-0.0351 q -0.276353,-0.0402 -0.336915,-0.26884 -0.06004,-0.23118 0.05822,-0.79779 l 0.342349,-1.64049 -0.175178,-0.0253 0.08052,-0.38584 0.175179,0.0253 0.179063,-0.85803 z"
         style="font-style:normal;font-variant:normal;font-weight:normal;font-stretch:normal;font-size:2.82222223px;font-family:sans-serif;-inkscape-font-specification:'sans-serif, Normal';font-variant-ligatures:normal;font-variant-caps:normal;font-variant-numeric:normal;font-feature-settings:normal;text-align:start;writing-mode:lr-tb;text-anchor:start;stroke-width:0.36464316"
         id="path1711"
         inkscape:connector-curvature="0" />
      <path
         d="m 20.261915,292.97708 -0.07466,0.29993 -1.257665,0.52946 q -0.139748,0.62563 -0.07111,0.89506 0.07099,0.26547 0.343071,0.15079 0.157847,-0.0674 0.326325,-0.21496 0.170227,-0.14922 0.359046,-0.38381 l -0.144348,0.57988 q -0.182046,0.20203 -0.354909,0.34045 -0.172839,0.13835 -0.331881,0.2052 -0.398421,0.16777 -0.502421,-0.25374 -0.102476,-0.42229 0.118208,-1.30876 0.228131,-0.91641 0.581722,-1.54555 0.355894,-0.63309 0.730507,-0.79076 0.33577,-0.14063 0.40955,0.26329 0.07592,0.40065 -0.13147,1.23373 z m -0.228747,-0.0648 q 0.122266,-0.50191 0.07358,-0.74995 -0.04723,-0.24866 -0.249404,-0.16353 -0.228759,0.0957 -0.439357,0.44448 -0.20894,0.34749 -0.360834,0.88279 z"
         style="font-style:normal;font-variant:normal;font-weight:normal;font-stretch:normal;font-size:2.82222223px;font-family:sans-serif;-inkscape-font-specification:'sans-serif, Normal';font-variant-ligatures:normal;font-variant-caps:normal;font-variant-numeric:normal;font-feature-settings:normal;text-align:start;writing-mode:lr-tb;text-anchor:start;stroke-width:0.40433538"
         id="path1713"
         inkscape:connector-curvature="0" />
      <path
         d="m 21.673498,292.84153 q -0.02499,-0.0664 -0.06594,-0.10097 -0.03882,-0.0377 -0.09539,-0.0472 -0.200434,-0.0342 -0.392529,0.28546 -0.189936,0.31632 -0.3466,0.94546 l -0.486472,1.9536 -0.237943,-0.0394 0.923474,-3.70854 0.237943,0.0394 -0.143468,0.57613 q 0.158635,-0.3251 0.318554,-0.46708 0.160764,-0.1454 0.331675,-0.1164 0.02431,0.005 0.05169,0.0182 0.0278,0.0121 0.05955,0.0351 z"
         style="font-style:normal;font-variant:normal;font-weight:normal;font-stretch:normal;font-size:2.82222223px;font-family:sans-serif;-inkscape-font-specification:'sans-serif, Normal';font-variant-ligatures:normal;font-variant-caps:normal;font-variant-numeric:normal;font-feature-settings:normal;text-align:start;writing-mode:lr-tb;text-anchor:start;stroke-width:0.40433538"
         id="path1715"
         inkscape:connector-curvature="0" />
      <path
         d="m 22.229258,293.93465 -0.102668,0.39617 q -0.07248,-0.13083 -0.164162,-0.21902 -0.09165,-0.0884 -0.202529,-0.13415 -0.168771,-0.0697 -0.278572,-0.009 -0.108573,0.0611 -0.158124,0.25229 -0.03777,0.1458 7.57e-4,0.2549 0.03913,0.10682 0.201965,0.25733 l 0.06936,0.0639 q 0.216657,0.19541 0.272253,0.41237 0.05741,0.21525 -0.02345,0.5272 -0.09204,0.35517 -0.298505,0.49929 -0.205219,0.14461 -0.471313,0.0347 -0.110888,-0.0457 -0.220988,-0.13657 -0.109481,-0.0879 -0.221839,-0.22275 l 0.112114,-0.43259 q 0.09439,0.17255 0.200407,0.28439 0.106615,0.10961 0.226124,0.15887 0.160139,0.0662 0.272416,8.8e-4 0.112791,-0.0669 0.160582,-0.25127 0.04426,-0.17077 0.005,-0.28779 -0.038,-0.1165 -0.226818,-0.28773 l -0.06998,-0.0667 q -0.189435,-0.16883 -0.239373,-0.3761 -0.04937,-0.20941 0.02734,-0.50541 0.09322,-0.35974 0.281955,-0.49858 0.188722,-0.13884 0.442502,-0.0341 0.125679,0.0517 0.227651,0.13195 0.102022,0.0799 0.177954,0.18687 z"
         style="font-style:normal;font-variant:normal;font-weight:normal;font-stretch:normal;font-size:2.82222223px;font-family:sans-serif;-inkscape-font-specification:'sans-serif, Normal';font-variant-ligatures:normal;font-variant-caps:normal;font-variant-numeric:normal;font-feature-settings:normal;text-align:start;writing-mode:lr-tb;text-anchor:start;stroke-width:0.33832553"
         id="path1717"
         inkscape:connector-curvature="0" />
      <path
         d="m 23.986751,292.12191 c -0.128774,0.25908 -0.285096,-0.0923 -0.517645,-0.0646 -0.159144,0.002 -0.29396,0.0931 -0.404426,0.27171 -0.110275,0.17711 -0.185605,0.42507 -0.225985,0.7439 -0.04034,0.31882 -0.02779,0.56619 0.03777,0.74213 0.06574,0.17449 0.178211,0.26034 0.337352,0.25788 0.07111,-10e-4 0.143417,-0.0185 0.216918,-0.0523 0.07456,-0.0353 0.150753,-0.0869 0.228587,-0.15493 l -0.05024,0.39658 c -0.07555,0.0571 -0.151996,0.10017 -0.229319,0.12922 -0.07646,0.0292 -0.15603,0.0444 -0.238701,0.0456 -0.224928,0.003 -0.387991,-0.11731 -0.48913,-0.36262 -0.101153,-0.24523 -0.12514,-0.57778 -0.07196,-0.9977 0.05397,-0.42616 0.163107,-0.76234 0.327388,-1.00858 0.165177,-0.24626 0.364234,-0.3712 0.597172,-0.37482 0.07569,-0.002 0.147877,0.01 0.215995,0.039 0.06878,0.0246 0.351198,0.27269 0.41187,0.32611 z"
         style="font-style:normal;font-variant:normal;font-weight:normal;font-stretch:normal;font-size:2.82222223px;font-family:sans-serif;-inkscape-font-specification:'sans-serif, Normal';font-variant-ligatures:normal;font-variant-caps:normal;font-variant-numeric:normal;font-feature-settings:normal;text-align:start;writing-mode:lr-tb;text-anchor:start;stroke-width:0.33832553"
         id="path1719"
         inkscape:connector-curvature="0"
         sodipodi:nodetypes="cccccccccccccccccc" />
      <path
         d="m 25.156213,294.62363 c -0.312517,0.0125 -0.547151,0.0755 -0.703953,0.18946 -0.15681,0.11392 -0.278931,0.30245 -0.366342,0.56547 -0.06973,0.20967 -0.08035,0.37475 -0.03187,0.49525 0.05059,0.11828 0.153688,0.17414 0.309207,0.16813 0.21443,-0.009 0.424504,-0.13092 0.630195,-0.36698 0.207831,-0.23833 0.375738,-0.55003 0.503717,-0.93507 l 0.04365,-0.13151 z m 0.852522,-0.27447 -0.681487,2.05034 -0.386726,0.0151 0.181291,-0.54547 c -0.160822,0.22168 -0.324516,0.38756 -0.491082,0.49763 -0.165839,0.10786 -0.344069,0.16559 -0.53468,0.1732 -0.241081,0.01 -0.398927,-0.0855 -0.473591,-0.28516 -0.07257,-0.20187 -0.05126,-0.47611 0.06392,-0.82266 0.134371,-0.40428 0.323972,-0.71259 0.568803,-0.92494 0.246236,-0.21242 0.54523,-0.32562 0.896983,-0.33958 l 0.542379,-0.0216 0.01911,-0.0576 c 0.0903,-0.27167 0.101113,-0.47897 0.03246,-0.62188 -0.06654,-0.14511 -0.205622,-0.21349 -0.417233,-0.20506 -0.134581,0.006 -0.27376,0.0353 -0.41765,0.0894 -0.143873,0.0543 -0.23933,0.0105 -0.389784,0.11369 l 0.129593,-0.42308 c 0.169238,-0.0889 0.327181,-0.15634 0.47384,-0.20236 0.147348,-0.0481 0.284083,-0.0745 0.410263,-0.0797 0.340575,-0.0136 0.550131,0.11107 0.628684,0.37402 0.07858,0.26285 0.02686,0.66808 -0.155151,1.21569 z"
         style="font-style:normal;font-variant:normal;font-weight:normal;font-stretch:normal;font-size:2.82222223px;font-family:sans-serif;-inkscape-font-specification:'sans-serif, Normal';font-variant-ligatures:normal;font-variant-caps:normal;font-variant-numeric:normal;font-feature-settings:normal;text-align:start;writing-mode:lr-tb;text-anchor:start;stroke-width:0.49534509"
         id="path1721"
         inkscape:connector-curvature="0"
         sodipodi:nodetypes="ccccccccccccccccccccccccccccccc" />
      <path
         d="m 28.126914,293.2913 q -0.04162,-0.05 -0.103389,-0.0773 -0.05896,-0.0295 -0.141049,-0.0387 -0.290942,-0.0329 -0.539632,0.19734 -0.245901,0.22772 -0.417305,0.68886 l -0.532281,1.43196 -0.345034,-0.0384 1.010313,-2.71829 0.345034,0.0384 -0.156978,0.42227 q 0.200189,-0.2354 0.41784,-0.33487 0.218607,-0.10209 0.466633,-0.0742 0.03543,0.004 0.07571,0.0154 0.0407,0.0112 0.08858,0.0282 z"
         style="font-style:normal;font-variant:normal;font-weight:normal;font-stretch:normal;font-size:2.82222223px;font-family:sans-serif;-inkscape-font-specification:'sans-serif, Normal';font-variant-ligatures:normal;font-variant-caps:normal;font-variant-numeric:normal;font-feature-settings:normal;text-align:start;writing-mode:lr-tb;text-anchor:start;stroke-width:0.41692752"
         id="path1723"
         inkscape:connector-curvature="0" />
      <path
         d="m 29.861651,294.43588 -0.07656,0.20539 -1.546187,-0.002 c -0.09291,0.29071 -0.13687,0.34741 -0.0668,0.51355 0.07195,0.16485 0.221806,0.25971 0.449493,0.2848 0.131883,0.0148 0.266754,0.009 0.404711,-0.017 0.139202,-0.0259 0.501078,-0.12507 0.652538,-0.1908 l -0.148138,0.39714 c -0.147036,0.0504 -0.508081,0.13863 -0.649956,0.15781 -0.141876,0.0193 -0.279382,0.0214 -0.412486,0.007 -0.33344,-0.037 -0.553567,-0.18454 -0.660393,-0.44348 -0.105566,-0.25875 -0.08288,-0.5905 0.06807,-0.99522 0.156134,-0.41842 0.371833,-0.73999 0.647359,-0.96467 0.277318,-0.22604 0.572748,-0.32179 0.886286,-0.28722 0.281199,0.0307 0.461833,0.16663 0.541999,0.40665 0.08195,0.23874 0.05199,0.5483 -0.08989,0.92868 z m -0.297458,-0.16104 c 0.08311,-0.23003 0.09867,-0.4192 0.04645,-0.56751 -0.05093,-0.14821 -0.161032,-0.23161 -0.330238,-0.25027 -0.191612,-0.021 -0.370002,0.0283 -0.535043,0.14776 -0.16384,0.11974 -0.137625,0.29219 -0.244719,0.53066 z"
         style="font-style:normal;font-variant:normal;font-weight:normal;font-stretch:normal;font-size:2.82222223px;font-family:sans-serif;-inkscape-font-specification:'sans-serif, Normal';font-variant-ligatures:normal;font-variant-caps:normal;font-variant-numeric:normal;font-feature-settings:normal;text-align:start;writing-mode:lr-tb;text-anchor:start;stroke-width:0.40432581"
         id="path1725"
         inkscape:connector-curvature="0"
         sodipodi:nodetypes="ccccscccsscscscccccsccc" />
    </g>
    <g
       id="g9547"
       transform="matrix(0.48195277,0.03418152,0.00480115,0.11388483,4.094763,293.20677)">
      <g
         style="display:inline"
         inkscape:label="Layer 1"
         id="layer4" />
      <path
         id="rect5872"
         d="m 11.987289,9.3234482 h 7.991524 v 3.9957608 h -7.991524 z"
         style="opacity:1;fill:#0f0f00;fill-opacity:1;stroke:#000000;stroke-width:0;stroke-miterlimit:4;stroke-dasharray:none;stroke-opacity:1"
         inkscape:connector-curvature="0" />
      <path
         id="rect5874"
         d="m 14.667374,10.662096 h 3.995763 v 1.331921 h -3.995763 z"
         style="opacity:1;fill:#ffffff;fill-opacity:0.98571424;stroke:#000000;stroke-width:0;stroke-miterlimit:4;stroke-dasharray:none;stroke-opacity:1"
         inkscape:connector-curvature="0" />
      <path
         id="rect5878"
         d="m -29.323654,9.3234482 h 7.989551 v 3.9957608 h -7.989551 z"
         style="opacity:1;fill:#0c0c00;fill-opacity:1;stroke:#000000;stroke-width:0;stroke-miterlimit:4;stroke-dasharray:none;stroke-opacity:1"
         transform="scale(-1,1)"
         inkscape:connector-curvature="0" />
      <path
         id="rect5880"
         d="m 26.64423,10.662096 -3.171232,0.209056 v 1.331921 l 3.171232,-0.209056 z"
         style="opacity:1;fill:#ffffff;fill-opacity:0.98571424;stroke:#000000;stroke-width:0;stroke-miterlimit:4;stroke-dasharray:none;stroke-opacity:1"
         inkscape:connector-curvature="0" />
      <path
         id="rect5882"
         d="m 19.995058,14.667374 h 1.331921 v 3.995762 h -1.331921 z"
         style="opacity:1;fill:#000000;fill-opacity:1;stroke:#000000;stroke-width:0;stroke-miterlimit:4;stroke-dasharray:none;stroke-opacity:1"
         inkscape:connector-curvature="0" />
      <path
         id="rect5884"
         d="m 20.888507,17.21991 2.579094,0.32072 v 1.33192 l -2.579094,-0.32072 z"
         style="opacity:1;fill:#000000;fill-opacity:1;stroke:#000000;stroke-width:0;stroke-miterlimit:4;stroke-dasharray:none;stroke-opacity:1"
         inkscape:connector-curvature="0" />
      <path
         id="rect5886"
         d="m 11.954803,20.011301 h 2.696328 v 2.663842 h -2.696328 z"
         style="opacity:1;fill:#000200;fill-opacity:1;stroke:#000000;stroke-width:0;stroke-miterlimit:4;stroke-dasharray:none;stroke-opacity:1"
         inkscape:connector-curvature="0" />
      <path
         id="rect5888"
         d="m 27.970341,20.011301 h 2.696327 v 2.663842 h -2.696327 z"
         style="opacity:1;fill:#000200;fill-opacity:1;stroke:#000000;stroke-width:0;stroke-miterlimit:4;stroke-dasharray:none;stroke-opacity:1"
         inkscape:connector-curvature="0" />
      <path
         id="rect5890"
         d="m 14.651131,20.011301 h 13.351695 v 1.33192 H 14.651131 Z"
         style="opacity:1;fill:#000200;fill-opacity:1;stroke:#000000;stroke-width:0;stroke-miterlimit:4;stroke-dasharray:none;stroke-opacity:1"
         inkscape:connector-curvature="0" />
    </g>
    <path
       style="fill:#272727;fill-opacity:1;stroke:#d6d6d6;stroke-width:0.31475356;stroke-linecap:round;stroke-linejoin:miter;stroke-miterlimit:4;stroke-dasharray:none;stroke-opacity:1;paint-order:stroke fill markers"
       d="M 0.11934062,196.46585 H 17.508162 l 0.05233,19.54612 -17.44115662,0.70099 z"
       id="rect1087"
       inkscape:connector-curvature="0"
       sodipodi:nodetypes="ccccc" />
    <g
       aria-label="goly penerator"
       style="font-style:normal;font-weight:normal;font-size:10.58333302px;line-height:1.25;font-family:sans-serif;letter-spacing:0px;word-spacing:0px;fill:#fcfcfc;fill-opacity:1;stroke:none;stroke-width:0.26458332"
       id="text1092"
       transform="matrix(0.16526347,0,0,0.32786958,14.274336,127.80889)">
      <g
         aria-label="horse-a doodle doo"
         transform="scale(1.0880441,0.91908035)"
         style="font-style:normal;font-weight:normal;font-size:23.50690651px;line-height:1.25;font-family:sans-serif;letter-spacing:0px;word-spacing:0px;fill:#f3f3f3;fill-opacity:1;stroke:none;stroke-width:0.15548837"
         id="text4844">
        <path
           d="m -63.244951,238.82665 v 7.75912 h -2.111948 v -7.69025 q 0,-1.825 -0.711635,-2.73176 -0.711635,-0.90676 -2.134905,-0.90676 -1.710219,0 -2.697325,1.09041 -0.987107,1.09041 -0.987107,2.9728 v 7.26556 h -2.123426 v -17.85974 h 2.123426 v 7.00157 q 0.757547,-1.15928 1.779087,-1.73318 1.033019,-0.5739 2.375942,-0.5739 2.215251,0 3.351571,1.37736 1.13632,1.36588 1.13632,4.02877 z"
           style="fill:#f3f3f3;fill-opacity:1;stroke-width:0.15548837"
           id="path4858"
           inkscape:connector-curvature="0" />
        <path
           d="m -52.863918,235.52125 q -1.698742,0 -2.685848,1.33145 -0.987106,1.31996 -0.987106,3.62704 0,2.30707 0.975628,3.63852 0.987106,1.31997 2.697326,1.31997 1.687263,0 2.674369,-1.33145 0.987107,-1.33145 0.987107,-3.62704 0,-2.28412 -0.987107,-3.61557 -0.987106,-1.34292 -2.674369,-1.34292 z m 0,-1.79057 q 2.754715,0 4.327199,1.79057 1.572483,1.79056 1.572483,4.95849 0,3.15644 -1.572483,4.95849 -1.572484,1.79056 -4.327199,1.79056 -2.766194,0 -4.338677,-1.79056 -1.561006,-1.80205 -1.561006,-4.95849 0,-3.16793 1.561006,-4.95849 1.572483,-1.79057 4.338677,-1.79057 z"
           style="fill:#f3f3f3;fill-opacity:1;stroke-width:0.15548837"
           id="path4860"
           inkscape:connector-curvature="0" />
        <path
           d="m -37.189932,235.70464 q -0.355818,-0.2066 -0.780503,-0.29842 -0.413208,-0.10331 -0.918239,-0.10331 -1.790565,0 -2.754715,1.17076 -0.952673,1.15927 -0.952673,3.34009 v 6.77201 h -2.123426 v -12.85534 h 2.123426 v 1.99717 q 0.665723,-1.17076 1.733175,-1.73318 1.067453,-0.5739 2.594024,-0.5739 0.218082,0 0.482076,0.0344 0.263993,0.023 0.585377,0.0803 z"
           style="fill:#f3f3f3;fill-opacity:1;stroke-width:0.15548837"
           id="path4862"
           inkscape:connector-curvature="0" />
        <path
           d="m -25.592235,234.41936 v 1.99717 q -0.895282,-0.45912 -1.859433,-0.68868 -0.96415,-0.22956 -1.997168,-0.22956 -1.572484,0 -2.364465,0.48208 -0.780502,0.48207 -0.780502,1.44622 0,0.7346 0.562421,1.15928 0.562421,0.41321 2.261162,0.79198 l 0.723113,0.16069 q 2.249684,0.48208 3.190879,1.36588 0.952672,0.87233 0.952672,2.44481 0,1.79057 -1.423269,2.83506 -1.411792,1.0445 -3.891036,1.0445 -1.033019,0 -2.157861,-0.2066 -1.113364,-0.19513 -2.352986,-0.59686 v -2.18081 q 1.170754,0.60833 2.307074,0.91823 1.136321,0.29843 2.249685,0.29843 1.492137,0 2.295596,-0.50503 0.803459,-0.51651 0.803459,-1.44622 0,-0.86085 -0.585377,-1.31997 -0.573899,-0.45912 -2.536634,-0.88381 l -0.734591,-0.17217 q -1.962735,-0.4132 -2.835061,-1.26258 -0.872327,-0.86084 -0.872327,-2.35298 0,-1.81352 1.285534,-2.80063 1.285534,-0.98711 3.649998,-0.98711 1.170754,0 2.203773,0.17217 1.033018,0.17217 1.905344,0.51651 z"
           style="fill:#f3f3f3;fill-opacity:1;stroke-width:0.15548837"
           id="path4864"
           inkscape:connector-curvature="0" />
        <path
           d="m -10.533123,239.94027 v 1.03302 h -9.710373 q 0.137736,2.18082 1.30849,3.32862 1.182232,1.13632 3.282703,1.13632 1.216666,0 2.352986,-0.29843 1.147798,-0.29843 2.272641,-0.89528 v 1.99716 q -1.136321,0.48208 -2.330031,0.7346 -1.19371,0.25251 -2.421854,0.25251 -3.076099,0 -4.878142,-1.79056 -1.790565,-1.79057 -1.790565,-4.84371 0,-3.15645 1.698741,-5.0044 1.710219,-1.85944 4.602671,-1.85944 2.594024,0 4.097639,1.67579 1.515094,1.66431 1.515094,4.5338 z m -2.111949,-0.61981 q -0.02296,-1.73317 -0.975628,-2.76619 -0.941195,-1.03302 -2.5022,-1.03302 -1.767609,0 -2.835062,0.99858 -1.055974,0.99859 -1.216666,2.81211 z"
           style="fill:#f3f3f3;fill-opacity:1;stroke-width:0.15548837"
           id="path4866"
           inkscape:connector-curvature="0" />
        <path
           d="m 6.1050132,240.12367 q -2.5595899,0 -3.5466963,0.58537 -0.9871064,0.58538 -0.9871064,1.99717 0,1.12484 0.7345908,1.79057 0.7460688,0.65424 2.0201248,0.65424 1.7561312,0 2.8121055,-1.23962 1.0674523,-1.2511 1.0674523,-3.31714 v -0.47059 z m 4.2124198,-0.87233 v 7.33443 H 8.2054839 v -1.95126 q -0.7231129,1.17076 -1.8020431,1.73318 -1.0789303,0.55094 -2.6399358,0.55094 -1.9742129,0 -3.14496701,-1.10189 -1.15927615,-1.11336 -1.15927615,-2.97279 0,-2.16934 1.44622569,-3.27123 1.45770367,-1.10188 4.33867707,-1.10188 h 2.9613193 v -0.20661 q 0,-1.4577 -0.9641505,-2.24968 -0.9526725,-0.80346 -2.6858477,-0.80346 -1.1018862,0 -2.1463826,0.26399 -1.0444963,0.264 -2.00864676,0.79198 v -1.95125 q 1.15927616,-0.44764 2.24968446,-0.66573 1.0904082,-0.22956 2.1234266,-0.22956 2.7891495,0 4.1665073,1.44623 1.3773583,1.44623 1.3773583,4.38459 z"
           style="fill:#f3f3f3;fill-opacity:1;stroke-width:0.15548837"
           id="path4870"
           inkscape:connector-curvature="0" />
        <path
           d="m -64.124852,257.33821 1.677879,-8.33086 2.419062,0.13832 -4.308216,21.3908 -2.419062,-0.13832 0.465155,-2.30955 q -1.039408,1.33113 -2.345166,1.93784 -1.289845,0.59371 -2.920081,0.50049 -2.668855,-0.1526 -3.903137,-2.47589 -1.221138,-2.32253 -0.49018,-5.95182 0.730958,-3.62929 2.849177,-5.76088 2.131364,-2.13083 4.800219,-1.97822 1.630236,0.0932 2.651511,0.83299 1.037187,0.72677 1.522839,2.1451 z m -9.325804,4.90385 q -0.56206,2.79069 0.207968,4.44778 0.785943,1.64409 2.705416,1.75385 1.919471,0.10976 3.342234,-1.40804 1.425534,-1.53154 1.987594,-4.32224 0.562063,-2.79071 -0.223881,-4.4348 -0.783178,-1.65782 -2.70265,-1.76758 -1.919472,-0.10975 -3.345001,1.42177 -1.409617,1.51855 -1.97168,4.30926 z"
           style="fill:#f3f3f3;fill-opacity:1;stroke-width:0.18316481"
           id="path4872"
           inkscape:connector-curvature="0" />
        <path
           d="m -54.858032,256.44607 q -1.698742,0 -2.499983,1.58894 -0.802844,1.57524 -0.480788,4.32847 0.322058,2.75325 1.48355,4.34218 1.171368,1.57524 2.881588,1.57524 1.687263,0 2.488504,-1.58894 0.801244,-1.58893 0.480788,-4.32848 -0.318852,-2.72584 -1.491823,-4.31477 -1.174573,-1.60264 -2.861836,-1.60264 z m -0.249954,-2.13684 q 2.754715,0 4.577153,2.13684 1.822439,2.13685 2.264666,5.91741 0.440626,3.76688 -0.880299,5.91742 -1.32253,2.13684 -4.077245,2.13684 -2.766194,0 -4.588631,-2.13684 -1.812564,-2.15054 -2.25319,-5.91742 -0.442227,-3.78056 0.868823,-5.91741 1.322529,-2.13684 4.088723,-2.13684 z"
           style="fill:#f3f3f3;fill-opacity:1;stroke-width:0.16985925"
           id="path4874"
           inkscape:connector-curvature="0" />
        <path
           d="m -40.487599,256.44607 q -1.698742,0 -2.499983,1.58894 -0.802845,1.57524 -0.480789,4.32847 0.322058,2.75325 1.483551,4.34218 1.171368,1.57524 2.881588,1.57524 1.687263,0 2.488504,-1.58894 0.801244,-1.58893 0.480788,-4.32848 -0.318852,-2.72584 -1.491823,-4.31477 -1.174573,-1.60264 -2.861836,-1.60264 z m -0.249954,-2.13684 q 2.754715,0 4.577153,2.13684 1.822439,2.13685 2.264666,5.91741 0.440626,3.76688 -0.880299,5.91742 -1.32253,2.13684 -4.077245,2.13684 -2.766194,0 -4.588632,-2.13684 -1.812563,-2.15054 -2.253189,-5.91742 -0.442227,-3.78056 0.868822,-5.91741 1.32253,-2.13684 4.088724,-2.13684 z"
           style="fill:#f3f3f3;fill-opacity:1;stroke-width:0.16985925"
           id="path4876"
           inkscape:connector-curvature="0" />
        <path
           d="m -22.573643,257.00768 -0.97098,-8.30082 h 2.111948 l 2.49314,21.31364 h -2.111948 l -0.269181,-2.30121 q -0.505496,1.36977 -1.448525,2.04096 -0.933153,0.65749 -2.356423,0.65749 -2.33003,0 -4.058781,-2.21903 -1.717271,-2.21903 -2.140272,-5.83523 -0.423001,-3.6162 0.775134,-5.83522 1.209614,-2.21903 3.539644,-2.21903 1.42327,0 2.511843,0.67119 1.098449,0.65748 1.924401,2.02726 z m -6.570206,5.3558 q 0.325262,2.78064 1.4638,4.36958 1.148412,1.57524 2.824198,1.57524 1.675785,0 2.455673,-1.57524 0.778286,-1.58894 0.453024,-4.36958 -0.325261,-2.78063 -1.473674,-4.35587 -1.150014,-1.58893 -2.825799,-1.58893 -1.675786,0 -2.454072,1.58893 -0.768411,1.57524 -0.44315,4.35587 z"
           style="fill:#f3f3f3;fill-opacity:1;stroke-width:0.16985925"
           id="path4878"
           inkscape:connector-curvature="0" />
        <path
           d="m -14.171988,248.70686 h 3.305151 v 21.81811 h -3.305151 z"
           style="fill:#f3f3f3;fill-opacity:1;stroke-width:0.21499233"
           id="path4880"
           inkscape:connector-curvature="0" />
        <path
           d="m 13.239219,262.02769 v 1.26197 H -1.957296 q 0.2155534,2.66416 2.04775732,4.06636 1.85016668,1.38817 5.13735618,1.38817 1.9040551,0 3.6823707,-0.36457 1.7962788,-0.36458 3.5566308,-1.09371 v 2.43981 q -1.778315,0.58892 -3.6464447,0.89741 -1.8681295,0.30847 -3.7901474,0.30847 -4.81402605,0 -7.6341831,-2.18741 -2.8021943,-2.18743 -2.8021943,-5.91725 0,-3.85603 2.658492,-6.11356 2.67645482,-2.27155 7.2030764,-2.27155 4.0595891,0 6.4127141,2.0472 2.371087,2.03318 2.371087,5.53866 z M 9.9340669,261.2705 q -0.035926,-2.11731 -1.5268366,-3.37928 -1.4729483,-1.26197 -3.915887,-1.26197 -2.7662687,0 -4.43680761,1.21991 -1.65257609,1.2199 -1.90405499,3.43536 z"
           style="fill:#f3f3f3;fill-opacity:1;stroke-width:0.21499233"
           id="path4882"
           inkscape:connector-curvature="0" />
        <path
           d="m -53.604197,279.74217 -1.18294,-7.94505 h 5.16089 l 3.037385,20.40017 h -5.160889 l -0.327943,-2.20258 q -1.431599,1.31105 -3.832247,1.95348 -2.374553,0.62931 -5.852544,0.62931 -5.693805,0 -9.600219,-2.12392 -3.878367,-2.12393 -4.393708,-5.58515 -0.51534,-3.4612 2.730563,-5.58514 3.273951,-2.12392 8.967756,-2.12392 3.477991,0 6.041894,0.64243 2.589996,0.62931 4.412002,1.94037 z m -16.823039,5.12626 q 0.396267,2.66146 2.950716,4.18231 2.580542,1.50773 6.675596,1.50773 4.095052,0 6.226623,-1.50773 2.129621,-1.52085 1.733354,-4.18231 -0.396266,-2.66146 -2.976808,-4.16918 -2.582494,-1.52083 -6.677547,-1.52083 -4.095053,0 -6.224672,1.52083 -2.103528,1.50772 -1.707262,4.16918 z"
           style="fill:#f3f3f3;fill-opacity:1;stroke-width:0.25977531"
           id="path4884"
           inkscape:connector-curvature="0" />
        <path
           d="m -29.459384,277.48073 q -3.407339,0 -5.201414,1.58893 -1.795676,1.57524 -1.47362,4.32847 0.322059,2.75325 2.464837,4.34218 2.164201,1.57524 5.594562,1.57524 3.384314,0 5.178389,-1.58893 1.794076,-1.58894 1.47362,-4.32849 -0.318851,-2.72583 -2.484656,-4.31477 -2.167404,-1.60263 -5.551718,-1.60263 z m -0.249956,-2.13685 q 5.52541,0 8.929457,2.13685 3.404041,2.13683 3.846269,5.9174 0.440627,3.76688 -2.461904,5.91742 -2.904136,2.13684 -8.429546,2.13684 -5.548435,0 -8.952478,-2.13684 -3.382625,-2.15054 -3.823252,-5.91742 -0.442228,-3.78057 2.438887,-5.9174 2.904132,-2.13685 8.452567,-2.13685 z"
           style="fill:#f3f3f3;fill-opacity:1;stroke-width:0.24056539"
           id="path4886"
           inkscape:connector-curvature="0" />
        <path
           d="m -0.63515339,277.48073 q -3.40733861,0 -5.20141361,1.58893 -1.7956783,1.57524 -1.4736222,4.32847 0.3220584,2.75325 2.4648395,4.34218 2.1642004,1.57524 5.59456161,1.57524 3.38431409,0 5.17838899,-1.58893 1.7940758,-1.58894 1.4736199,-4.32849 -0.318851,-2.72583 -2.4846559,-4.31477 -2.1674042,-1.60263 -5.55171829,-1.60263 z m -0.24995573,-2.13685 q 5.52541052,0 8.92945642,2.13685 3.4040417,2.13683 3.8462697,5.9174 0.440627,3.76688 -2.4619044,5.91742 -2.9041356,2.13684 -8.42954613,2.13684 -5.54843507,0 -8.95247937,-2.13684 -3.3826231,-2.15054 -3.8232501,-5.91742 -0.442228,-3.78057 2.4388848,-5.9174 2.904134,-2.13685 8.45256908,-2.13685 z"
           style="fill:#f3f3f3;fill-opacity:1;stroke-width:0.24056539"
           id="path4888"
           inkscape:connector-curvature="0" />
      </g>
    </g>
    <path
       style="fill:#c6c6c6;fill-opacity:1;stroke:#000000;stroke-width:0.36160204px;stroke-linecap:butt;stroke-linejoin:miter;stroke-opacity:1"
       d="m 10.286849,259.90024 9.448937,-0.0948 -0.17498,30.47425 H 9.4119464 Z"
       id="path1132"
       inkscape:connector-curvature="0"
       sodipodi:nodetypes="ccccc" />
    <path
       style="fill:#a2a2a2;fill-opacity:1;stroke:#000000;stroke-width:0.36160204px;stroke-linecap:butt;stroke-linejoin:miter;stroke-opacity:1"
       d="m 10.011691,260.12315 -1.4746456,1.64382 -0.6415948,29.4234 1.4581693,-1.05082 z"
       id="path1134"
       inkscape:connector-curvature="0"
       sodipodi:nodetypes="ccccc" />
    <path
       style="fill:#e1e1e1;fill-opacity:1;stroke:#000000;stroke-width:0.36353821;stroke-linecap:butt;stroke-linejoin:round;stroke-miterlimit:4;stroke-dasharray:none;stroke-opacity:1"
       d="m 7.8742933,291.28688 11.1489347,0.0679 0.540796,-1.03439 -10.167804,-0.21018 z"
       id="path1136"
       inkscape:connector-curvature="0"
       sodipodi:nodetypes="ccccc" />
  </g>
</svg>
