<?xml version="1.0" encoding="UTF-8" standalone="no"?>
<!-- Created with Inkscape (http://www.inkscape.org/) -->

<svg
   xmlns:dc="http://purl.org/dc/elements/1.1/"
   xmlns:cc="http://creativecommons.org/ns#"
   xmlns:rdf="http://www.w3.org/1999/02/22-rdf-syntax-ns#"
   xmlns:svg="http://www.w3.org/2000/svg"
   xmlns="http://www.w3.org/2000/svg"
   xmlns:sodipodi="http://sodipodi.sourceforge.net/DTD/sodipodi-0.dtd"
   xmlns:inkscape="http://www.inkscape.org/namespaces/inkscape"
   width="140"
   height="380"
   viewBox="0 0 37.041668 100.54167"
   version="1.1"
   id="svg8"
   inkscape:version="0.92.2 5c3e80d, 2017-08-06"
   sodipodi:docname="ComputerscareOhPeasPanel.svg"
   style="enable-background:new">
  <defs
     id="defs2">
    <inkscape:perspective
       sodipodi:type="inkscape:persp3d"
       inkscape:vp_x="0 : 50.270835 : 1"
       inkscape:vp_y="0 : 1000 : 0"
       inkscape:vp_z="23.812501 : 50.270835 : 1"
       inkscape:persp3d-origin="11.906251 : 33.51389 : 1"
       id="perspective1881" />
  </defs>
  <sodipodi:namedview
     id="base"
     pagecolor="#ffffff"
     bordercolor="#666666"
     borderopacity="1.0"
     inkscape:pageopacity="0.0"
     inkscape:pageshadow="2"
     inkscape:zoom="11.313709"
     inkscape:cx="24.100287"
     inkscape:cy="303.34558"
     inkscape:document-units="mm"
     inkscape:current-layer="g1669"
     showgrid="false"
     units="px"
     inkscape:snap-bbox="false"
     inkscape:snap-page="true"
     inkscape:bbox-nodes="true"
     inkscape:snap-bbox-edge-midpoints="true"
     inkscape:window-width="1440"
     inkscape:window-height="856"
     inkscape:window-x="0"
     inkscape:window-y="0"
     inkscape:window-maximized="0"
     inkscape:snap-object-midpoints="false"
     inkscape:snap-others="false"
     inkscape:snap-nodes="false"
     inkscape:snap-global="false" />
  <metadata
     id="metadata5">
    <rdf:RDF>
      <cc:Work
         rdf:about="">
        <dc:format>image/svg+xml</dc:format>
        <dc:type
           rdf:resource="http://purl.org/dc/dcmitype/StillImage" />
        <dc:title />
      </cc:Work>
    </rdf:RDF>
  </metadata>
  <g
     inkscape:label="Layer 1"
     inkscape:groupmode="layer"
     id="layer1"
     transform="translate(0,-196.45832)"
     style="display:none">
    <path
       style="opacity:1;vector-effect:none;fill:#f0f0f0;fill-opacity:1;fill-rule:evenodd;stroke:none;stroke-width:0.48607069;stroke-linecap:butt;stroke-linejoin:round;stroke-miterlimit:4;stroke-dasharray:none;stroke-dashoffset:0;stroke-opacity:1;paint-order:normal"
       d="M 0,196.45831 H 23.8125 V 296.99999 H 0 Z"
       id="rect817"
       inkscape:connector-curvature="0" />
    <text
       xml:space="preserve"
       style="font-style:normal;font-weight:normal;font-size:10.58333302px;line-height:1.25;font-family:sans-serif;letter-spacing:0px;word-spacing:0px;fill:#000000;fill-opacity:1;stroke:none;stroke-width:0.26458332"
       x="8.2147436"
       y="295.57718"
       id="text1490"
       transform="rotate(1.4468834)"><tspan
         sodipodi:role="line"
         id="tspan1488"
         x="8.2147436"
         y="295.57718"
         style="font-style:normal;font-variant:normal;font-weight:normal;font-stretch:normal;font-size:2.82222223px;font-family:sans-serif;-inkscape-font-specification:'sans-serif, Normal';font-variant-ligatures:normal;font-variant-caps:normal;font-variant-numeric:normal;font-feature-settings:normal;text-align:start;writing-mode:lr-tb;text-anchor:start;stroke-width:0.26458332">computerscare</tspan></text>
    <text
       transform="rotate(-5.9989835)"
       id="text1494"
       y="288.0314"
       x="-28.710276"
       style="font-style:normal;font-weight:normal;font-size:10.58333302px;line-height:1.25;font-family:sans-serif;letter-spacing:0px;word-spacing:0px;fill:#000000;fill-opacity:1;stroke:none;stroke-width:0.26458332"
       xml:space="preserve"><tspan
         style="font-style:normal;font-variant:normal;font-weight:normal;font-stretch:normal;font-size:2.82222223px;font-family:sans-serif;-inkscape-font-specification:'sans-serif, Normal';font-variant-ligatures:normal;font-variant-caps:normal;font-variant-numeric:normal;font-feature-settings:normal;text-align:start;writing-mode:lr-tb;text-anchor:start;stroke-width:0.26458332"
         y="288.0314"
         x="-28.710276"
         id="tspan1492"
         sodipodi:role="line">trg</tspan></text>
    <text
       xml:space="preserve"
       style="font-style:normal;font-weight:normal;font-size:10.58333302px;line-height:1.25;font-family:sans-serif;letter-spacing:0px;word-spacing:0px;fill:#000000;fill-opacity:1;stroke:none;stroke-width:0.26458332"
       x="20.711658"
       y="288.87244"
       id="text1498"
       transform="rotate(1.9714728)"><tspan
         sodipodi:role="line"
         id="tspan1496"
         x="20.711658"
         y="288.87244"
         style="font-style:normal;font-variant:normal;font-weight:normal;font-stretch:normal;font-size:2.82222223px;font-family:sans-serif;-inkscape-font-specification:'sans-serif, Normal';font-variant-ligatures:normal;font-variant-caps:normal;font-variant-numeric:normal;font-feature-settings:normal;text-align:start;writing-mode:lr-tb;text-anchor:start;stroke-width:0.26458332">in</tspan></text>
    <text
       transform="rotate(0.49746114)"
       id="text1521"
       y="289.16214"
       x="20.314623"
       style="font-style:normal;font-weight:normal;font-size:10.58333302px;line-height:1.25;font-family:sans-serif;letter-spacing:0px;word-spacing:0px;fill:#000000;fill-opacity:1;stroke:none;stroke-width:0.26458332"
       xml:space="preserve"><tspan
         style="font-style:normal;font-variant:normal;font-weight:normal;font-stretch:normal;font-size:3.17499995px;font-family:sans-serif;-inkscape-font-specification:'sans-serif, Normal';font-variant-ligatures:normal;font-variant-caps:normal;font-variant-numeric:normal;font-feature-settings:normal;text-align:start;writing-mode:lr-tb;text-anchor:start;stroke-width:0.26458332"
         y="289.16214"
         x="20.314623"
         id="tspan1519"
         sodipodi:role="line">clr</tspan></text>
    <text
       transform="matrix(1.0139335,-0.02825079,0.06854811,0.98434808,0,0)"
       id="text1645"
       y="204.61243"
       x="-10.296249"
       style="font-style:normal;font-weight:normal;font-size:10.74719143px;line-height:1.25;font-family:sans-serif;letter-spacing:0px;word-spacing:0px;fill:#000000;fill-opacity:1;stroke:none;stroke-width:0.26867977"
       xml:space="preserve"><tspan
         style="font-style:normal;font-variant:normal;font-weight:normal;font-stretch:normal;font-size:5.01535606px;font-family:sans-serif;-inkscape-font-specification:'sans-serif, Normal';font-variant-ligatures:normal;font-variant-caps:normal;font-variant-numeric:normal;font-feature-settings:normal;text-align:start;writing-mode:lr-tb;text-anchor:start;stroke-width:0.26867977"
         y="204.61243"
         x="-10.296249"
         id="tspan1643"
         sodipodi:role="line">debug</tspan></text>
  </g>
  <g
     inkscape:groupmode="layer"
     id="layer3"
     inkscape:label="bg" />
  <g
     style="display:inline"
     transform="translate(0,-196.45832)"
     id="g1669"
     inkscape:groupmode="layer"
     inkscape:label="Layer 1 copy">
    <path
       inkscape:connector-curvature="0"
       id="path1647"
       d="m 0,196.45831 37.07474,2.05505 c 0.371889,36.41379 0.123278,64.61324 -0.01605,98.4876 L 0,296.99999 Z"
       style="opacity:1;vector-effect:none;fill:#f9f9f9;fill-opacity:1;fill-rule:evenodd;stroke:none;stroke-width:0.56126612;stroke-linecap:butt;stroke-linejoin:round;stroke-miterlimit:4;stroke-dasharray:none;stroke-dashoffset:0;stroke-opacity:1;paint-order:normal"
       sodipodi:nodetypes="ccccc" />
    <g
       aria-label="computerscare"
       transform="matrix(1.4457532,0.02712605,-0.03651719,1.0739475,3.9763638,-22.739031)"
       style="font-style:normal;font-weight:normal;font-size:10.58333302px;line-height:1.25;font-family:sans-serif;letter-spacing:0px;word-spacing:0px;fill:#000000;fill-opacity:1;stroke:none;stroke-width:0.26458332"
       id="text1651">
      <path
         d="m 9.7635177,294.7977 -0.022491,0.23707 q -0.1028223,-0.0489 -0.2099211,-0.0673 -0.1055806,-0.0199 -0.2168506,-0.009 -0.2488775,0.0238 -0.4014201,0.19401 -0.1524199,0.16888 -0.1792271,0.45145 -0.026804,0.28254 0.095932,0.42654 0.1228661,0.14262 0.371738,0.11887 0.1112317,-0.0106 0.2224055,-0.0498 0.1127112,-0.0408 0.2267849,-0.11044 l -0.022229,0.23431 q -0.111772,0.0599 -0.2295122,0.0956 -0.1163563,0.0357 -0.2456588,0.048 -0.3517468,0.0335 -0.5381239,-0.16582 -0.1863704,-0.19938 -0.1510635,-0.57153 0.035829,-0.37767 0.2649098,-0.61397 0.2304697,-0.23642 0.5947391,-0.27118 0.1181718,-0.0112 0.2283935,0.003 0.110394,0.0127 0.2114822,0.0509 z"
         style="font-style:normal;font-variant:normal;font-weight:normal;font-stretch:normal;font-size:2.82222223px;font-family:sans-serif;-inkscape-font-specification:'sans-serif, Normal';font-variant-ligatures:normal;font-variant-caps:normal;font-variant-numeric:normal;font-feature-settings:normal;text-align:start;writing-mode:lr-tb;text-anchor:start;stroke-width:0.26458332"
         id="path1701"
         inkscape:connector-curvature="0" />
      <path
         d="m 11.197314,295.00648 q -0.205711,0.0223 -0.339672,0.22398 -0.133845,0.20011 -0.158859,0.52726 -0.02501,0.32715 0.07869,0.50317 0.105218,0.17425 0.312311,0.15186 0.204306,-0.0221 0.338283,-0.22384 0.133968,-0.20175 0.15886,-0.52727 0.02477,-0.32389 -0.08032,-0.49977 -0.104967,-0.17751 -0.309282,-0.15539 z m 0.01941,-0.25391 q 0.333568,-0.0361 0.504572,0.19722 0.170997,0.23332 0.136646,0.68254 -0.03423,0.4476 -0.244185,0.72373 -0.209831,0.27449 -0.543405,0.31058 -0.33497,0.0363 -0.505964,-0.19707 -0.169483,-0.23508 -0.135254,-0.68269 0.03435,-0.44922 0.242794,-0.72358 0.209832,-0.27449 0.544796,-0.31073 z"
         style="font-style:normal;font-variant:normal;font-weight:normal;font-stretch:normal;font-size:2.82222223px;font-family:sans-serif;-inkscape-font-specification:'sans-serif, Normal';font-variant-ligatures:normal;font-variant-caps:normal;font-variant-numeric:normal;font-feature-settings:normal;text-align:start;writing-mode:lr-tb;text-anchor:start;stroke-width:0.28758317"
         id="path1703"
         inkscape:connector-curvature="0" />
      <path
         d="m 13.645113,295.02098 c 0.07212,-0.16189 0.158709,-0.28115 0.259781,-0.35779 0.101068,-0.0767 0.220289,-0.11452 0.357661,-0.11378 0.184923,10e-4 0.32797,0.0826 0.429142,0.24413 0.101165,0.16033 0.152468,0.38843 0.15391,0.6843 l 0.0065,1.3275 -0.293235,-0.002 c -0.03516,-0.22899 -0.03645,-0.67288 -0.0064,-1.31574 -10e-4,-0.21077 -0.0319,-0.36739 -0.09263,-0.46989 -0.06074,-0.10241 -0.15292,-0.15409 -0.276549,-0.15483 -0.151108,-9e-4 -0.270213,0.0605 -0.357313,0.18438 -0.0871,0.12385 -0.130127,0.29313 -0.12908,0.50783 l 0.006,1.24308 -0.293236,-0.002 -0.0064,-1.31574 c -10e-4,-0.21208 -0.03192,-0.36871 -0.09263,-0.46988 -0.06074,-0.10252 -0.153976,-0.15409 -0.279718,-0.15485 -0.148996,-9.1e-4 -0.267039,0.0613 -0.354134,0.18636 -0.0871,0.12385 -0.13013,0.29247 -0.129091,0.50587 l 0.006,1.24305 -0.293229,-0.002 -0.01076,-2.19941 0.293234,0.002 0.0017,0.34168 c 0.06591,-0.13442 0.145214,-0.23344 0.237888,-0.29703 0.09267,-0.0635 0.202947,-0.0949 0.330808,-0.0941 0.128919,7.7e-4 0.238485,0.0419 0.328699,0.12367 0.09127,0.0817 0.158948,0.19987 0.203026,0.35467 z"
         style="font-style:normal;font-variant:normal;font-weight:normal;font-stretch:normal;font-size:2.82222223px;font-family:sans-serif;-inkscape-font-specification:'sans-serif, Normal';font-variant-ligatures:normal;font-variant-caps:normal;font-variant-numeric:normal;font-feature-settings:normal;text-align:start;writing-mode:lr-tb;text-anchor:start;stroke-width:0.33873674"
         id="path1705"
         inkscape:connector-curvature="0"
         sodipodi:nodetypes="ccccccccccccccccccccccccccccc" />
      <path
         d="m 15.24757,295.82836 0.0037,0.96694 -0.254966,-10e-4 -0.0097,-2.51668 0.254967,10e-4 0.0011,0.27673 q 0.07931,-0.16242 0.200283,-0.24001 0.12235,-0.0791 0.291869,-0.0784 0.281152,10e-4 0.457205,0.26579 0.177431,0.26453 0.179097,0.69429 0.0017,0.42976 -0.17372,0.69267 -0.174009,0.26291 -0.455161,0.26162 -0.169519,-7.7e-4 -0.29248,-0.0794 -0.121592,-0.0803 -0.202158,-0.24347 z m 0.860284,-0.63255 q -0.0013,-0.33046 -0.117775,-0.5182 -0.115122,-0.18934 -0.31634,-0.19027 -0.201216,-9.2e-4 -0.316254,0.18738 -0.113664,0.18667 -0.112383,0.51715 0.0013,0.33045 0.116404,0.5198 0.116494,0.18773 0.317711,0.18866 0.201217,9.1e-4 0.314882,-0.18576 0.115036,-0.1883 0.113755,-0.51876 z"
         style="font-style:normal;font-variant:normal;font-weight:normal;font-stretch:normal;font-size:2.82222223px;font-family:sans-serif;-inkscape-font-specification:'sans-serif, Normal';font-variant-ligatures:normal;font-variant-caps:normal;font-variant-numeric:normal;font-feature-settings:normal;text-align:start;writing-mode:lr-tb;text-anchor:start;stroke-width:0.28758317"
         id="path1707"
         inkscape:connector-curvature="0" />
      <path
         d="m 16.380983,295.55261 -0.002,-1.0125 0.251818,-0.0693 0.002,1.00205 q 4.63e-4,0.23744 0.08555,0.33366 0.08508,0.0947 0.254785,0.0483 0.203917,-0.0556 0.321337,-0.22994 0.11879,-0.17448 0.118312,-0.4194 l -0.0019,-0.94826 0.251818,-0.0693 0.0033,1.67257 -0.251817,0.0693 -5.02e-4,-0.25686 q -0.0914,0.17741 -0.213054,0.28545 -0.120291,0.10604 -0.280415,0.15002 -0.264134,0.0725 -0.40134,-0.0694 -0.137208,-0.14174 -0.137881,-0.48669 z"
         style="font-style:normal;font-variant:normal;font-weight:normal;font-stretch:normal;font-size:2.82222223px;font-family:sans-serif;-inkscape-font-specification:'sans-serif, Normal';font-variant-ligatures:normal;font-variant-caps:normal;font-variant-numeric:normal;font-feature-settings:normal;text-align:start;writing-mode:lr-tb;text-anchor:start;stroke-width:0.27455816"
         id="path1709"
         inkscape:connector-curvature="0" />
      <path
         d="m 18.446541,294.06616 8.5e-4,0.47187 0.522302,0.001 3.82e-4,0.21219 -0.522302,-10e-4 0.0016,0.90217 q 3.66e-4,0.20328 0.05146,0.26126 0.05248,0.0579 0.210955,0.0582 l 0.260462,5e-4 4.11e-4,0.22852 -0.260464,-5.1e-4 q -0.293536,-5.7e-4 -0.405375,-0.11801 -0.11184,-0.11892 -0.112401,-0.43053 l -0.0016,-0.90216 -0.186044,-3.6e-4 -3.82e-4,-0.21219 0.186044,3.6e-4 -8.5e-4,-0.47186 z"
         style="font-style:normal;font-variant:normal;font-weight:normal;font-stretch:normal;font-size:2.82222223px;font-family:sans-serif;-inkscape-font-specification:'sans-serif, Normal';font-variant-ligatures:normal;font-variant-caps:normal;font-variant-numeric:normal;font-feature-settings:normal;text-align:start;writing-mode:lr-tb;text-anchor:start;stroke-width:0.27455816"
         id="path1711"
         inkscape:connector-curvature="0" />
      <path
         d="m 20.41037,294.85162 0.0012,0.17016 -1.155879,0.39368 q 0.01887,0.35362 0.159513,0.49524 0.14201,0.13926 0.392039,0.0541 0.144823,-0.0499 0.27975,-0.14457 0.136293,-0.0957 0.269515,-0.23959 l 0.0023,0.329 q -0.134719,0.12553 -0.276529,0.21553 -0.141809,0.0899 -0.288001,0.1397 -0.366164,0.12477 -0.582691,-0.0971 -0.215161,-0.22239 -0.218606,-0.72532 -0.0035,-0.51992 0.196567,-0.89319 0.201477,-0.37561 0.545782,-0.49286 0.308783,-0.10471 0.489656,0.10999 0.182228,0.21277 0.185464,0.68542 z m -0.252095,-0.0163 q -0.0047,-0.28454 -0.119256,-0.41611 -0.113201,-0.13204 -0.299015,-0.0687 -0.21041,0.0713 -0.336345,0.27941 -0.124572,0.2073 -0.141655,0.51253 z"
         style="font-style:normal;font-variant:normal;font-weight:normal;font-stretch:normal;font-size:2.82222223px;font-family:sans-serif;-inkscape-font-specification:'sans-serif, Normal';font-variant-ligatures:normal;font-variant-caps:normal;font-variant-numeric:normal;font-feature-settings:normal;text-align:start;writing-mode:lr-tb;text-anchor:start;stroke-width:0.30895016"
         id="path1713"
         inkscape:connector-curvature="0" />
      <path
         d="m 21.78975,294.42999 q -0.04491,-0.033 -0.09775,-0.0525 -0.05149,-0.0208 -0.113784,-0.0299 -0.220898,-0.0325 -0.334107,0.10057 -0.111851,0.13182 -0.10117,0.4123 l 0.03317,0.871 -0.26196,-0.0385 -0.06296,-1.65342 0.26196,0.0385 0.0098,0.25686 q 0.07641,-0.13849 0.20533,-0.19144 0.128873,-0.0546 0.317206,-0.0267 0.02691,0.004 0.05964,0.013 0.03266,0.008 0.07263,0.0213 z"
         style="font-style:normal;font-variant:normal;font-weight:normal;font-stretch:normal;font-size:2.82222223px;font-family:sans-serif;-inkscape-font-specification:'sans-serif, Normal';font-variant-ligatures:normal;font-variant-caps:normal;font-variant-numeric:normal;font-feature-settings:normal;text-align:start;writing-mode:lr-tb;text-anchor:start;stroke-width:0.27681944"
         id="path1715"
         inkscape:connector-curvature="0" />
      <path
         d="m 23.289808,294.73315 -0.03289,0.31613 q -0.09894,-0.0944 -0.209845,-0.1542 -0.110904,-0.0599 -0.233787,-0.085 -0.187054,-0.0383 -0.289205,0.0189 -0.100789,0.0574 -0.116665,0.20996 -0.01209,0.11634 0.04781,0.19718 0.0601,0.079 0.255932,0.18031 l 0.08337,0.043 q 0.259669,0.13103 0.357077,0.29373 0.09896,0.16122 0.07306,0.41015 -0.02948,0.28341 -0.215991,0.41416 -0.18514,0.13102 -0.480057,0.0708 -0.122881,-0.025 -0.253286,-0.0851 -0.12923,-0.0578 -0.270064,-0.1517 l 0.03591,-0.34519 q 0.129254,0.12472 0.259316,0.2014 0.130258,0.0749 0.262698,0.10184 0.177498,0.0363 0.281384,-0.0241 0.104077,-0.0623 0.119389,-0.20939 0.01419,-0.13627 -0.04789,-0.22317 -0.06071,-0.0866 -0.287191,-0.20152 l -0.08453,-0.0451 q -0.226673,-0.11301 -0.316453,-0.26874 -0.08959,-0.15744 -0.06502,-0.39365 0.02986,-0.28705 0.199042,-0.41206 0.169174,-0.12502 0.450438,-0.0676 0.139267,0.0284 0.25931,0.0809 0.120043,0.0523 0.218144,0.12801 z"
         style="font-style:normal;font-variant:normal;font-weight:normal;font-stretch:normal;font-size:2.82222223px;font-family:sans-serif;-inkscape-font-specification:'sans-serif, Normal';font-variant-ligatures:normal;font-variant-caps:normal;font-variant-numeric:normal;font-feature-settings:normal;text-align:start;writing-mode:lr-tb;text-anchor:start;stroke-width:0.30559522"
         id="path1717"
         inkscape:connector-curvature="0" />
      <path
         d="m 24.728637,294.63587 0.02003,0.25439 q -0.11212,-0.0543 -0.223044,-0.0758 -0.109669,-0.0231 -0.219523,-0.0136 -0.245798,0.0215 -0.368466,0.20193 -0.122783,0.17899 -0.09891,0.48219 0.02388,0.30318 0.173098,0.45992 0.149107,0.15526 0.394904,0.1338 0.109854,-0.009 0.21452,-0.05 0.10592,-0.042 0.208015,-0.11499 l 0.0198,0.25142 q -0.101541,0.0625 -0.21342,0.099 -0.110505,0.0365 -0.23821,0.0476 -0.347414,0.0303 -0.570536,-0.18697 -0.223122,-0.21728 -0.254568,-0.61661 -0.03191,-0.40525 0.155777,-0.65543 0.189064,-0.2503 0.548836,-0.28171 0.11672,-0.0106 0.230044,0.007 0.113206,0.0154 0.221649,0.0582 z"
         style="font-style:normal;font-variant:normal;font-weight:normal;font-stretch:normal;font-size:2.82222223px;font-family:sans-serif;-inkscape-font-specification:'sans-serif, Normal';font-variant-ligatures:normal;font-variant-caps:normal;font-variant-numeric:normal;font-feature-settings:normal;text-align:start;writing-mode:lr-tb;text-anchor:start;stroke-width:0.27455816"
         id="path1719"
         inkscape:connector-curvature="0" />
      <path
         d="m 25.917281,295.46624 q -0.313239,-0.009 -0.424667,0.0586 -0.111423,0.0679 -0.08883,0.23985 0.018,0.13708 0.118553,0.22085 0.101761,0.0824 0.257682,0.087 0.214909,0.006 0.324302,-0.14097 0.110608,-0.14864 0.07754,-0.4004 l -0.0075,-0.0574 z m 0.501549,-0.0911 0.117387,0.89383 -0.258456,-0.008 -0.03124,-0.2378 q -0.06976,0.14008 -0.192791,0.20475 -0.123225,0.0632 -0.314255,0.0577 -0.241599,-0.007 -0.402509,-0.14558 -0.159691,-0.13985 -0.18945,-0.36644 -0.03474,-0.26439 0.124631,-0.39346 0.160756,-0.12903 0.513323,-0.11868 l 0.362401,0.0105 -0.0033,-0.0251 q -0.02332,-0.17765 -0.153994,-0.27761 -0.129449,-0.10136 -0.341554,-0.10762 -0.134846,-0.004 -0.258443,0.0245 -0.123597,0.0285 -0.233136,0.0893 l -0.03124,-0.23779 q 0.134715,-0.0503 0.26466,-0.073 0.129765,-0.0241 0.256179,-0.0204 0.34133,0.01 0.533037,0.19122 0.191703,0.18118 0.238731,0.53927 z"
         style="font-style:normal;font-variant:normal;font-weight:normal;font-stretch:normal;font-size:2.82222223px;font-family:sans-serif;-inkscape-font-specification:'sans-serif, Normal';font-variant-ligatures:normal;font-variant-caps:normal;font-variant-numeric:normal;font-feature-settings:normal;text-align:start;writing-mode:lr-tb;text-anchor:start;stroke-width:0.26860911"
         id="path1721"
         inkscape:connector-curvature="0" />
      <path
         d="m 27.867464,295.23752 q -0.04501,-0.0348 -0.09791,-0.0551 -0.05154,-0.0217 -0.113856,-0.0311 -0.22092,-0.033 -0.333546,0.10961 -0.111277,0.14106 -0.09949,0.43935 l 0.0366,0.92631 -0.261988,-0.0389 -0.06953,-1.7584 0.261987,0.0389 0.01079,0.27317 q 0.07582,-0.14793 0.204473,-0.20525 0.1286,-0.059 0.316946,-0.0309 0.02691,0.004 0.05965,0.013 0.03268,0.008 0.07268,0.0222 z"
         style="font-style:normal;font-variant:normal;font-weight:normal;font-stretch:normal;font-size:2.82222223px;font-family:sans-serif;-inkscape-font-specification:'sans-serif, Normal';font-variant-ligatures:normal;font-variant-caps:normal;font-variant-numeric:normal;font-feature-settings:normal;text-align:start;writing-mode:lr-tb;text-anchor:start;stroke-width:0.28544712"
         id="path1723"
         inkscape:connector-curvature="0" />
      <path
         d="m 28.886282,295.33461 0.0013,0.13351 -0.711858,0.0931 c 0.009,0.18803 -0.0011,0.22628 0.06074,0.32618 0.06247,0.099 0.148316,0.14931 0.257554,0.15113 0.06327,0.001 0.124332,-0.0107 0.18317,-0.0355 0.05944,-0.0248 0.208283,-0.1091 0.266267,-0.15959 l 0.0026,0.25814 c -0.05868,0.0406 -0.20909,0.11803 -0.270953,0.13874 -0.06186,0.0207 -0.124729,0.0306 -0.1886,0.0295 -0.159977,-0.003 -0.287599,-0.082 -0.382862,-0.23774 -0.09467,-0.15584 -0.143318,-0.3653 -0.145954,-0.62838 -0.0027,-0.27197 0.03929,-0.48685 0.126037,-0.64462 0.08734,-0.15874 0.206219,-0.23686 0.356645,-0.23437 0.134907,0.002 0.242183,0.0763 0.321827,0.2219 0.08023,0.14472 0.121586,0.34071 0.124063,0.58797 z m -0.165555,-0.0828 c -0.0028,-0.14936 -0.02927,-0.26895 -0.07969,-0.35878 -0.04984,-0.0898 -0.115352,-0.13542 -0.196534,-0.13676 -0.09193,-0.002 -0.165216,0.0403 -0.219869,0.12539 -0.05406,0.0851 -0.01128,0.19167 -0.01807,0.34779 z"
         style="font-style:normal;font-variant:normal;font-weight:normal;font-stretch:normal;font-size:2.82222223px;font-family:sans-serif;-inkscape-font-specification:'sans-serif, Normal';font-variant-ligatures:normal;font-variant-caps:normal;font-variant-numeric:normal;font-feature-settings:normal;text-align:start;writing-mode:lr-tb;text-anchor:start;stroke-width:0.22126861"
         id="path1725"
         inkscape:connector-curvature="0"
         sodipodi:nodetypes="ccccscccsscscscccccsccc" />
    </g>
    <g
       id="g9547"
       transform="matrix(0.24212987,0,0,0.24730558,-2.0206165,290.96621)">
      <g
         style="display:inline"
         inkscape:label="Layer 1"
         id="layer4" />
      <path
         id="rect5872"
         d="m 11.987289,9.3234482 h 7.991524 v 3.9957608 h -7.991524 z"
         style="opacity:1;fill:#0f0f00;fill-opacity:1;stroke:#000000;stroke-width:0;stroke-miterlimit:4;stroke-dasharray:none;stroke-opacity:1"
         inkscape:connector-curvature="0" />
      <path
         id="rect5874"
         d="m 14.667374,10.662096 h 3.995763 v 1.331921 h -3.995763 z"
         style="opacity:1;fill:#ffffff;fill-opacity:0.98571424;stroke:#000000;stroke-width:0;stroke-miterlimit:4;stroke-dasharray:none;stroke-opacity:1"
         inkscape:connector-curvature="0" />
      <path
         id="rect5878"
         d="m -29.323654,9.3234482 h 7.989551 v 3.9957608 h -7.989551 z"
         style="opacity:1;fill:#0c0c00;fill-opacity:1;stroke:#000000;stroke-width:0;stroke-miterlimit:4;stroke-dasharray:none;stroke-opacity:1"
         transform="scale(-1,1)"
         inkscape:connector-curvature="0" />
      <path
         id="rect5880"
         d="m -26.64423,10.662096 h 3.994777 v 1.331921 h -3.994777 z"
         style="opacity:1;fill:#ffffff;fill-opacity:0.98571424;stroke:#000000;stroke-width:0;stroke-miterlimit:4;stroke-dasharray:none;stroke-opacity:1"
         transform="scale(-1,1)"
         inkscape:connector-curvature="0" />
      <path
         id="rect5882"
         d="m 19.995058,14.667374 h 1.331921 v 3.995762 h -1.331921 z"
         style="opacity:1;fill:#000000;fill-opacity:1;stroke:#000000;stroke-width:0;stroke-miterlimit:4;stroke-dasharray:none;stroke-opacity:1"
         inkscape:connector-curvature="0" />
      <path
         id="rect5884"
         d="m 21.326979,17.331215 h 1.315677 v 1.33192 h -1.315677 z"
         style="opacity:1;fill:#000000;fill-opacity:1;stroke:#000000;stroke-width:0;stroke-miterlimit:4;stroke-dasharray:none;stroke-opacity:1"
         inkscape:connector-curvature="0" />
      <path
         id="rect5886"
         d="m 11.954803,20.011301 h 2.696328 v 2.663842 h -2.696328 z"
         style="opacity:1;fill:#000200;fill-opacity:1;stroke:#000000;stroke-width:0;stroke-miterlimit:4;stroke-dasharray:none;stroke-opacity:1"
         inkscape:connector-curvature="0" />
      <path
         id="rect5888"
         d="m 27.970341,20.011301 h 2.696327 v 2.663842 h -2.696327 z"
         style="opacity:1;fill:#000200;fill-opacity:1;stroke:#000000;stroke-width:0;stroke-miterlimit:4;stroke-dasharray:none;stroke-opacity:1"
         inkscape:connector-curvature="0" />
      <path
         id="rect5890"
         d="m 14.651131,20.011301 h 13.351695 v 1.33192 H 14.651131 Z"
         style="opacity:1;fill:#000200;fill-opacity:1;stroke:#000000;stroke-width:0;stroke-miterlimit:4;stroke-dasharray:none;stroke-opacity:1"
         inkscape:connector-curvature="0" />
    </g>
    <g
       aria-label="oh, peas!"
       transform="matrix(1.7495374,0.15209286,0,0.96586683,-1.0705572,-14.062378)"
       style="font-style:normal;font-weight:normal;font-size:4.82299232px;line-height:1.25;font-family:sans-serif;letter-spacing:0px;word-spacing:0px;fill:#000000;fill-opacity:1;stroke:none;stroke-width:0.12057481"
       id="text1573">
      <path
         d="m 2.0306039,219.11262 q -0.2878659,-0.0331 -0.4551394,0.22079 -0.1672735,0.25158 -0.1672735,0.72493 0,0.47335 0.1653285,0.76555 0.1672735,0.29007 0.4570844,0.32343 0.2859209,0.0329 0.4531944,-0.22101 0.1672735,-0.25391 0.1672735,-0.72491 0,-0.46864 -0.1672735,-0.76108 -0.1672735,-0.29478 -0.4531944,-0.3277 z m 0,-0.36738 q 0.4668097,0.0537 0.7332802,0.45179 0.2664705,0.39805 0.2664705,1.04802 0,0.64762 -0.2664705,0.98668 -0.2664705,0.33671 -0.7332802,0.28297 -0.4687546,-0.054 -0.7352251,-0.452 -0.2645255,-0.40018 -0.2645255,-1.0478 0,-0.64997 0.2645255,-0.9869 0.2664705,-0.33671 0.7352251,-0.28276 z"
         style="stroke-width:0.10957906"
         id="path1575"
         inkscape:connector-curvature="0" />
      <path
         d="m 5.9968026,219.9325 0.064679,1.46882 -0.5563483,-0.60825 0.045516,-0.78268 c 0.014743,-0.25352 -0.087267,-0.42122 -0.1982802,-0.52859 -0.1110125,-0.10736 -0.2670107,-0.14666 -0.4679946,-0.11789 -0.241506,0.0346 -0.4256294,0.135 -0.5523703,0.30135 -0.1267409,0.16635 -0.1791916,0.37589 -0.1573522,0.62862 l 0.1264442,1.46322 -0.4497848,0.0643 -0.3108167,-3.5968 0.4497848,-0.0643 0.1218493,1.41004 c 0.093526,-0.17095 0.2090865,-0.30527 0.3466828,-0.40297 0.1392171,-0.0979 0.3036447,-0.16049 0.4932829,-0.1876 0.3128207,-0.0448 0.5574537,0.0138 0.7338989,0.1758 0.1763099,0.16041 0.2799127,0.41939 0.3108082,0.77691 z"
         style="stroke-width:0.12212589"
         id="path1577"
         inkscape:connector-curvature="0"
         sodipodi:nodetypes="cccsccsscccccccccc" />
      <path
         d="m 6.8057705,221.26125 0.7484453,0.0381 v 0.40505 l -0.5817301,0.724 -0.45758,-0.0233 0.2908648,-0.73881 z"
         style="stroke-width:0.14797968"
         id="path1579"
         inkscape:connector-curvature="0" />
      <path
         d="m 9.2015306,220.55177 v 1.39885 l -0.5653924,-0.0334 v -3.64079 l 0.5653924,0.0334 v 0.40034 q 0.1772577,-0.22502 0.4462013,-0.32218 0.2719999,-0.0993 0.6479101,-0.0771 0.623459,0.0368 1.011594,0.44124 0.391189,0.4046 0.391189,1.02631 0,0.62171 -0.391189,0.98013 -0.388135,0.35859 -1.011594,0.32178 -0.3759102,-0.0222 -0.6479101,-0.1513 -0.2689436,-0.13128 -0.4462013,-0.37724 z m 1.9131644,-0.80783 q 0,-0.47806 -0.256718,-0.76404 -0.253662,-0.28816 -0.699864,-0.3145 -0.4462005,-0.0264 -0.7029201,0.23167 -0.2536623,0.25584 -0.2536623,0.7339 0,0.47806 0.2536623,0.76622 0.2567196,0.28598 0.7029201,0.31233 0.446202,0.0263 0.699864,-0.2295 0.256718,-0.25802 0.256718,-0.73608 z"
         style="stroke-width:0.13735752"
         id="path1581"
         inkscape:connector-curvature="0" />
      <path
         d="m 14.503389,219.22295 v 0.21194 l -1.878859,0.18931 q 0.02665,0.44477 0.253179,0.65744 0.22875,0.21009 0.63517,0.16914 0.235413,-0.0238 0.455278,-0.10707 0.222088,-0.0836 0.439734,-0.228 v 0.40977 q -0.219867,0.12102 -0.450837,0.19615 -0.230971,0.075 -0.468605,0.099 -0.595194,0.0599 -0.943871,-0.27227 -0.346456,-0.33246 -0.346456,-0.95888 0,-0.64762 0.328689,-1.0599 0.33091,-0.41485 0.89057,-0.47125 0.501918,-0.0506 0.792852,0.26395 0.293156,0.31193 0.293156,0.90068 z m -0.408642,-0.086 q -0.0044,-0.35515 -0.188773,-0.54853 -0.182112,-0.19359 -0.484151,-0.16316 -0.342015,0.0344 -0.548556,0.26015 -0.20432,0.22548 -0.235412,0.6007 z"
         style="stroke-width:0.11709147"
         id="path1583"
         inkscape:connector-curvature="0" />
      <path
         d="m 16.304517,219.14271 q -0.495255,0.0499 -0.68625,0.18921 -0.190995,0.13937 -0.190995,0.42903 0,0.23079 0.142136,0.35305 0.144357,0.11968 0.390875,0.0948 0.339793,-0.0342 0.544113,-0.30916 0.206541,-0.2775 0.206541,-0.7014 v -0.0966 z m 0.815062,-0.2611 v 1.50483 l -0.408642,0.0412 v -0.40034 q -0.139915,0.2543 -0.348676,0.39073 -0.208762,0.1341 -0.510802,0.16448 -0.38199,0.0385 -0.60852,-0.16476 -0.224307,-0.20583 -0.224307,-0.58734 0,-0.44509 0.27983,-0.69937 0.282051,-0.2545 0.83949,-0.31067 l 0.572985,-0.0577 v -0.0424 q 0,-0.29908 -0.186553,-0.44278 -0.184332,-0.14627 -0.519685,-0.11248 -0.213203,0.0215 -0.415303,0.0961 -0.202099,0.0746 -0.388652,0.20166 v -0.40035 q 0.224307,-0.11443 0.43529,-0.18045 0.210984,-0.0684 0.410863,-0.0885 0.539671,-0.0544 0.806176,0.21551 0.266506,0.26987 0.266506,0.87274 z"
         style="stroke-width:0.11709147"
         id="path1585"
         inkscape:connector-curvature="0" />
      <path
         d="m 19.246753,217.6294 v 0.40977 c -0.115485,-0.0512 -0.235412,-0.0862 -0.359781,-0.10506 -0.124369,-0.0189 -0.253179,-0.0215 -0.386432,-0.008 -0.202841,0.0205 -0.355341,0.0688 -0.457501,0.14497 -0.100679,0.0761 -0.151019,0.18004 -0.151019,0.31195 0,0.10047 0.03627,0.1761 0.108823,0.22688 0.07255,0.0492 0.218386,0.0887 0.437512,0.11841 l 0.139915,0.0189 c 0.290194,0.0367 0.495995,0.10934 0.617403,0.21803 0.122888,0.10693 0.184332,0.26794 0.184332,0.48303 0,0.24492 -0.0918,0.44807 -0.275388,0.60944 -0.182112,0.16122 -0.433071,0.25794 -0.752876,0.29016 -0.133253,0.0135 -0.272427,0.0134 -0.417524,-3e-4 -0.143617,-0.0122 -0.295377,-0.0377 -0.45528,-0.0766 v -0.44745 c 0.15102,0.068 0.299819,0.11579 0.446396,0.14342 0.146577,0.0261 0.291674,0.0319 0.435291,0.0174 0.192476,-0.0194 0.340534,-0.0688 0.444175,-0.14835 0.103641,-0.0811 0.155462,-0.1852 0.155462,-0.3124 0,-0.11775 -0.03776,-0.20421 -0.113265,-0.2594 -0.07403,-0.0553 -0.237634,-0.0993 -0.490814,-0.13188 l -0.142135,-0.021 c -0.253179,-0.031 -0.436031,-0.0989 -0.548556,-0.20377 -0.112525,-0.10641 -0.168787,-0.26167 -0.168787,-0.46576 0,-0.24806 -0.01161,-0.60428 0.15422,-0.756 0.165825,-0.15174 0.495757,-0.0866 0.800756,-0.11738 0.151019,-0.0152 0.293155,-0.0179 0.426408,-0.008 0.133253,0.0101 0.256141,0.033 0.368665,0.0688 z"
         style="stroke-width:0.11709147"
         id="path1587"
         inkscape:connector-curvature="0"
         sodipodi:nodetypes="cccccsccccsccccccccsccccsccccc" />
      <path
         d="m 19.780161,220.01143 0.356319,0.0721 v 0.59816 l -0.450838,0.0455 z m -0.09452,-2.80021 0.450838,-0.0455 v 1.54251 l -0.04442,0.84521 -0.359781,0.0363 -0.04663,-0.83604 z"
         style="stroke-width:0.11709147"
         id="path1589"
         inkscape:connector-curvature="0"
         sodipodi:nodetypes="cccccccccccc" />
    </g>
    <g
       aria-label="range"
       transform="rotate(92.345118,0.49732568,-1.0477197)"
       style="font-style:normal;font-weight:normal;font-size:4.72717714px;line-height:1.25;font-family:sans-serif;letter-spacing:0px;word-spacing:0px;fill:#000000;fill-opacity:1;stroke:none;stroke-width:0.11817943"
       id="text871">
      <path
         d="m 234.37522,-44.650058 q -0.0827,0.0045 -0.16415,0.03592 -0.0809,0.02822 -0.16579,0.08393 -0.30108,0.197519 -0.33404,0.500723 -0.0323,0.300013 0.20826,0.666701 l 0.74702,1.138662 -0.35704,0.234237 -1.41807,-2.161528 0.35704,-0.234237 0.22031,0.335808 q -0.0172,-0.270286 0.10023,-0.482603 0.11617,-0.214246 0.37285,-0.382642 0.0367,-0.02408 0.0849,-0.04744 0.0469,-0.02528 0.1073,-0.05106 z"
         style="stroke-width:0.11817943"
         id="path926"
         inkscape:connector-curvature="0" />
      <path
         d="m 236.6102,-43.255249 q -0.51487,-0.0036 -0.71261,0.132832 -0.19773,0.136431 -0.19574,0.468822 0.002,0.264831 0.15028,0.4226 0.15099,0.155084 0.40727,0.156876 0.35325,0.0025 0.56393,-0.2879 0.21296,-0.293056 0.21006,-0.779479 l -6.6e-4,-0.110802 z m 0.84613,-0.199456 0.0103,1.726807 -0.42484,-0.003 -0.003,-0.459401 q -0.14382,0.274624 -0.36006,0.405522 -0.21625,0.128195 -0.53025,0.126 -0.39713,-0.0028 -0.63417,-0.263849 -0.23477,-0.263759 -0.23738,-0.701541 -0.003,-0.510745 0.28631,-0.768136 0.29167,-0.257377 0.8712,-0.253326 l 0.59568,0.0042 -2.9e-4,-0.04865 q -0.002,-0.3432 -0.19711,-0.531019 -0.19276,-0.190504 -0.54139,-0.192941 -0.22166,-0.0016 -0.4314,0.05914 -0.20972,0.06069 -0.40293,0.183638 l -0.003,-0.4594 q 0.23257,-0.103762 0.4516,-0.153574 0.21901,-0.05251 0.42681,-0.05106 0.56105,0.0039 0.84014,0.346356 0.27911,0.342434 0.28324,1.034237 z"
         style="stroke-width:0.12788817"
         id="path928"
         inkscape:connector-curvature="0" />
      <path
         d="m 240.45219,-44.277133 v 1.560338 h -0.42471 v -1.546489 q 0,-0.367002 -0.14311,-0.54935 -0.14311,-0.182347 -0.42932,-0.182347 -0.34392,0 -0.54243,0.219279 -0.1985,0.219278 -0.1985,0.597821 v 1.461086 h -0.42702 v -2.585175 h 0.42702 v 0.401625 q 0.15234,-0.233127 0.35777,-0.348537 0.20774,-0.115409 0.47779,-0.115409 0.44549,0 0.674,0.276983 0.22851,0.274674 0.22851,0.810175 z"
         style="stroke-width:0.11817943"
         id="path930"
         inkscape:connector-curvature="0" />
      <path
         d="m 243.09892,-43.267833 q 0.072,-0.438024 -0.0792,-0.746311 -0.14893,-0.307474 -0.49151,-0.428414 -0.34028,-0.120132 -0.57072,0.05342 -0.22813,0.17436 -0.30013,0.612391 -0.0716,0.435842 0.0773,0.743313 0.15123,0.308286 0.49151,0.428414 0.34258,0.120938 0.57072,-0.05342 0.23043,-0.173547 0.30207,-0.609388 z m 0.26681,1.099874 q -0.10297,0.626383 -0.44502,0.827729 -0.34239,0.20354 -0.94477,-0.0091 -0.22303,-0.07873 -0.41536,-0.181386 -0.19269,-0.100476 -0.36812,-0.231917 l 0.0645,-0.392032 q 0.17039,0.162112 0.34447,0.272227 0.17407,0.110116 0.3626,0.176671 0.41615,0.146908 0.65728,0.0119 0.24078,-0.132822 0.30953,-0.551142 l 0.0327,-0.199308 q -0.1667,0.170558 -0.38897,0.205635 -0.22227,0.03507 -0.50735,-0.06557 -0.47364,-0.167203 -0.70681,-0.61333 -0.23318,-0.446126 -0.13993,-1.013375 0.0936,-0.569448 0.43983,-0.811019 0.34621,-0.241585 0.81984,-0.07438 0.28509,0.100643 0.47208,0.280201 0.18699,0.179557 0.2824,0.442647 l 0.0612,-0.37232 0.42305,0.149346 z"
         style="stroke-width:0.11817943"
         id="path932"
         inkscape:connector-curvature="0" />
      <path
         d="m 246.53746,-43.586837 v 0.207738 h -1.95273 q 0.0277,0.438556 0.26313,0.669375 0.23774,0.228511 0.66014,0.228511 0.24467,0 0.47318,-0.06001 0.23082,-0.06001 0.45703,-0.180039 v 0.401626 q -0.22852,0.09694 -0.46857,0.147724 -0.24005,0.05078 -0.48703,0.05078 -0.61859,0 -0.98098,-0.360078 -0.36008,-0.360078 -0.36008,-0.974057 0,-0.634752 0.34162,-1.006371 0.34392,-0.373927 0.92558,-0.373927 0.52165,0 0.82403,0.336996 0.30468,0.334687 0.30468,0.911735 z m -0.42471,-0.124642 q -0.005,-0.348537 -0.1962,-0.556274 -0.18927,-0.207737 -0.50318,-0.207737 -0.35546,0 -0.57013,0.200812 -0.21235,0.200813 -0.24466,0.565507 z"
         style="stroke-width:0.11817943"
         id="path934"
         inkscape:connector-curvature="0" />
    </g>
    <g
       aria-label="offset "
       transform="rotate(92.345118,2.5184696,-3.6829391)"
       style="font-style:normal;font-weight:normal;font-size:4.72717714px;line-height:1.25;font-family:sans-serif;letter-spacing:0px;word-spacing:0px;fill:#000000;fill-opacity:1;stroke:none;stroke-width:0.11817943"
       id="text875">
      <path
         d="m 262.62297,-45.898495 c -0.22645,0.03166 -0.40544,0.146448 -0.53698,0.344363 -0.13154,0.196365 -0.19728,0.450078 -0.1972,0.761137 7e-5,0.311058 0.0652,0.547254 0.19525,0.708586 0.13162,0.159573 0.31142,0.223421 0.53939,0.191546 0.22491,-0.03145 0.40314,-0.146127 0.53469,-0.344043 0.13153,-0.197913 0.19727,-0.451625 0.1972,-0.761136 -7e-5,-0.307965 -0.16449,-0.524641 -0.19754,-0.703625 -0.13163,-0.162666 -0.3099,-0.228275 -0.53481,-0.196828 z m -9e-5,-0.362128 c 0.36721,-0.05134 0.65566,0.02904 0.86532,0.241152 0.20967,0.212112 0.31456,0.53173 0.31466,0.958855 9e-5,0.425577 -0.10464,0.774504 -0.31419,1.046777 -0.20956,0.270725 -0.49795,0.431761 -0.86515,0.483103 -0.36874,0.05156 -0.65794,-0.02872 -0.86762,-0.24083 -0.20813,-0.213874 -0.31226,-0.533599 -0.31236,-0.959176 -9e-5,-0.427125 0.10387,-0.775945 0.31189,-1.046456 0.20957,-0.270728 0.49871,-0.431869 0.86745,-0.483425 z"
         style="stroke-width:0.11817943"
         id="path913"
         inkscape:connector-curvature="0"
         sodipodi:nodetypes="scscscscsssscscscs" />
      <path
         d="m 265.82005,-47.196947 v 0.353154 h -0.40625 c -0.15234,0 -0.25852,0.03078 -0.31853,0.09233 -0.0585,0.06155 -0.0877,0.172347 -0.0877,0.33238 v 0.228511 h 0.69939 v 0.330071 l -0.80693,0.203008 0.10754,2.052096 -0.42701,0 v -2.255104 l -0.40624,0 v -0.330071 l 0.40624,0 v -0.180039 c 0,-0.287755 0.0669,-0.497031 0.20081,-0.627828 0.13387,-0.132337 0.34623,-0.198505 0.63706,-0.198505 z"
         style="stroke-width:0.11817943"
         id="path915"
         inkscape:connector-curvature="0"
         sodipodi:nodetypes="ccscsccccccccccsccc" />
      <path
         d="m 267.6081,-47.316885 -0.0244,0.3754 -0.40174,-0.0012 c -0.15065,-4.44e-4 -0.25778,0.03196 -0.32139,0.09721 -0.0621,0.06526 -0.0987,0.182947 -0.10971,0.353061 l -0.0158,0.242906 0.69163,0.002 -0.0228,0.350863 -0.69164,-0.002 -0.13867,2.413005 -0.43949,-0.01705 0.15587,-2.397158 -0.40175,-0.0012 0.0228,-0.350862 0.40176,0.0012 0.0124,-0.191381 c 0.0199,-0.305881 0.10059,-0.528145 0.24197,-0.666791 0.14155,-0.140282 0.35613,-0.209999 0.64375,-0.209151 z"
         style="stroke-width:0.12118064"
         id="path917"
         inkscape:connector-curvature="0"
         sodipodi:nodetypes="ccccccccccccccccccc" />
      <path
         d="m 269.77368,-45.837314 -0.10608,0.387365 q -0.14926,-0.136601 -0.32407,-0.232331 -0.17482,-0.09573 -0.37518,-0.150594 -0.30499,-0.08352 -0.4842,-0.03208 -0.17699,0.05204 -0.2282,0.239052 -0.039,0.142479 0.0475,0.25472 0.0871,0.11002 0.39651,0.273704 l 0.13171,0.06958 q 0.41074,0.212983 0.54635,0.434394 0.13845,0.219791 0.0549,0.524786 -0.0951,0.347293 -0.42663,0.474288 -0.32929,0.127607 -0.81016,-0.0041 -0.20036,-0.05487 -0.40756,-0.154681 -0.20558,-0.09698 -0.42468,-0.240734 l 0.11583,-0.422985 q 0.19476,0.180169 0.3987,0.300628 0.20454,0.11823 0.42049,0.177364 0.28941,0.07925 0.47208,0.02397 0.18326,-0.05751 0.23264,-0.237834 0.0457,-0.166968 -0.0434,-0.287108 -0.0869,-0.119532 -0.44505,-0.306143 l -0.13333,-0.07241 q -0.35874,-0.184392 -0.48283,-0.395462 -0.12348,-0.213296 -0.0442,-0.502707 0.0963,-0.351745 0.39809,-0.474925 0.30177,-0.12318 0.76036,0.0024 0.22708,0.06218 0.4183,0.150437 0.19121,0.08825 0.34213,0.201375 z"
         style="stroke-width:0.11817943"
         id="path919"
         inkscape:connector-curvature="0" />
      <path
         d="m 272.51149,-45.004164 v 0.207737 h -1.95273 c 0.0185,0.292371 0.20193,0.428823 0.35889,0.582703 0.1585,0.152341 0.28279,0.315184 0.56439,0.315184 0.16311,0 0.32084,-0.02 0.47318,-0.06001 0.15388,-0.04001 0.30622,-0.10002 0.45702,-0.180039 l 0,0.401625 c -0.15234,0.06463 -0.30853,0.113868 -0.46856,0.147724 -0.16003,0.03385 -0.32238,0.05078 -0.48703,0.05078 -0.41239,0 -0.61059,-0.208052 -0.85218,-0.448103 -0.24006,-0.240052 -0.48888,-0.476712 -0.48888,-0.886031 0,-0.423169 0.11387,-0.758626 0.34161,-1.006372 0.22928,-0.249285 0.54255,-0.258269 0.93033,-0.258269 0.34776,0 0.6177,-0.0033 0.81928,0.221338 0.20312,0.223125 0.30468,0.527037 0.30468,0.911736 z m -0.4247,-0.124643 c -0.003,-0.232358 -0.0687,-0.417783 -0.1962,-0.556274 -0.12618,-0.138491 -0.28849,-0.07556 -0.49777,-0.07556 -0.23698,0 -0.43243,-0.06524 -0.57554,0.06863 -0.14157,0.133875 -0.22312,0.322378 -0.24467,0.565507 z"
         style="stroke-width:0.11817943"
         id="path921"
         inkscape:connector-curvature="0"
         sodipodi:nodetypes="ccccsccccscscscccccsccc" />
      <path
         d="m 273.60326,-46.505055 0.002,0.512567 0.87894,0.02695 9.9e-4,0.230492 -0.87894,-0.02695 0.004,0.980002 q 10e-4,0.220819 0.087,0.286315 0.0884,0.06556 0.35507,0.07374 l 0.43831,0.01344 6.8e-4,0.248228 -0.43831,-0.01344 q -0.49398,-0.01514 -0.68231,-0.148236 -0.18836,-0.134706 -0.18969,-0.473194 l -0.004,-0.980003 -0.31308,-0.0096 -9.9e-4,-0.230492 0.31308,0.0096 -0.002,-0.512567 z"
         style="stroke-width:0.09898433"
         id="path923"
         inkscape:connector-curvature="0" />
    </g>
    <g
       aria-label="out "
       transform="matrix(0.95277575,0.28542636,-0.28767396,0.96338538,-250.99926,237.09134)"
       style="font-style:normal;font-weight:normal;font-size:4.33383846px;line-height:1.25;font-family:sans-serif;letter-spacing:0px;word-spacing:0px;fill:#000000;fill-opacity:1;stroke:none;stroke-width:0.10834597"
       id="text883"
       inkscape:transform-center-x="0.93544334"
       inkscape:transform-center-y="-1.122532">
      <path
         d="m 279.91559,-46.460084 q -0.40187,0.02872 -0.65832,0.291202 -0.25625,0.260363 -0.296,0.686267 -0.0398,0.425902 0.16811,0.655202 0.21076,0.226989 0.61535,0.198075 0.39915,-0.02853 0.6556,-0.291009 0.25645,-0.262482 0.296,-0.686265 0.0394,-0.421666 -0.17121,-0.650772 -0.21038,-0.231225 -0.60953,-0.2027 z m 0.0308,-0.330552 q 0.65167,-0.04657 0.99281,0.257396 0.34115,0.303966 0.28657,0.888788 -0.0544,0.582703 -0.45743,0.941958 -0.40284,0.357135 -1.05451,0.403707 -0.65439,0.04677 -0.99553,-0.2572 -0.33823,-0.306281 -0.28385,-0.888983 0.0546,-0.584822 0.45471,-0.941763 0.40284,-0.357137 1.05723,-0.403903 z"
         style="stroke-width:0.12240025"
         id="path906"
         inkscape:connector-curvature="0" />
      <path
         d="m 281.41728,-45.232076 0.13129,-1.473627 0.3409,0.01436 -0.12993,1.458413 q -0.0309,0.345585 0.0686,0.524305 0.0996,0.176545 0.32931,0.186222 0.27605,0.01168 0.45378,-0.18814 0.17957,-0.199693 0.21133,-0.556146 l 0.1229,-1.380167 0.34091,0.01436 -0.21681,2.434312 -0.34089,-0.01436 0.0331,-0.373842 q -0.14388,0.216467 -0.31845,0.318195 -0.17252,0.09963 -0.38928,0.0905 -0.35758,-0.01507 -0.51962,-0.283688 -0.16204,-0.268623 -0.11731,-0.7707 z"
         style="stroke-width:0.10293551"
         id="path908"
         inkscape:connector-curvature="0" />
      <path
         d="m 284.3722,-47.274149 v 0.67293 h 0.80202 v 0.302606 h -0.80202 v 1.286609 q 0,0.28991 0.0783,0.372439 0.0804,0.08253 0.32377,0.08253 h 0.39995 v 0.325884 h -0.39995 q -0.45074,0 -0.62215,-0.167174 -0.1714,-0.169291 -0.1714,-0.613678 v -1.286609 h -0.28568 v -0.302606 h 0.28568 v -0.67293 z"
         style="stroke-width:0.10834597"
         id="path910"
         inkscape:connector-curvature="0" />
    </g>
    <g
       aria-label="quant "
       transform="matrix(3.2187078,-0.07840715,-0.40572539,0.87760084,-941.24464,349.25882)"
       style="font-style:normal;font-weight:normal;font-size:2.62611079px;line-height:1.25;font-family:sans-serif;letter-spacing:0px;word-spacing:0px;fill:#000000;fill-opacity:1;stroke:none;stroke-width:0.06565277"
       id="text889">
      <path
         d="m 286.9949,-47.408245 q 0.0159,0.383972 0.1108,0.616052 0.0958,0.230337 0.24668,0.252608 0.15085,0.0222 0.22863,-0.182436 0.0777,-0.206594 0.0618,-0.590566 -0.0159,-0.383974 -0.11178,-0.61432 -0.0959,-0.232229 -0.24676,-0.254501 -0.15085,-0.0222 -0.22854,0.184331 -0.0768,0.204855 -0.0609,0.588829 z m 0.67853,0.835221 q -0.0522,0.18029 -0.14021,0.259409 -0.0871,0.07737 -0.21529,0.05845 -0.20974,-0.03102 -0.35471,-0.356914 -0.14394,-0.325798 -0.16464,-0.825155 -0.0207,-0.49935 0.0978,-0.786416 0.11955,-0.286897 0.32929,-0.255933 0.12813,0.01894 0.2229,0.12502 0.0956,0.104345 0.16349,0.302365 l -0.0135,-0.321593 0.19012,0.02803 0.12132,2.924271 -0.19013,-0.02804 z"
         style="stroke-width:0.07135837"
         id="path895"
         inkscape:connector-curvature="0" />
      <path
         d="m 288.08037,-47.049622 -0.0293,-1.275055 0.24156,0.04397 0.029,1.261883 q 0.007,0.299024 0.0917,0.46428 0.0847,0.163372 0.24759,0.193012 0.19562,0.03566 0.30441,-0.122501 0.11011,-0.157871 0.10307,-0.46628 l -0.0274,-1.194185 0.24156,0.04397 0.0484,2.106288 -0.24156,-0.04397 -0.007,-0.323458 q -0.0836,0.175804 -0.19822,0.248577 -0.11341,0.07112 -0.26701,0.04316 -0.25337,-0.04612 -0.38985,-0.295688 -0.13647,-0.249568 -0.14644,-0.683988 z"
         style="stroke-width:0.08028095"
         id="path897"
         inkscape:connector-curvature="0" />
      <path
         d="m 290.49695,-46.608578 q -0.28595,0 -0.39622,0.0654 -0.11028,0.0654 -0.11028,0.223117 0,0.125664 0.0821,0.200036 0.0833,0.07309 0.22568,0.07309 0.19619,0 0.31416,-0.138486 0.11925,-0.139769 0.11925,-0.370579 v -0.05257 z m 0.4706,-0.09745 v 0.819377 h -0.23594 v -0.217988 q -0.0808,0.130793 -0.20132,0.193625 -0.12053,0.06155 -0.29492,0.06155 -0.22055,0 -0.35135,-0.123099 -0.12951,-0.124381 -0.12951,-0.33211 0,-0.242352 0.16157,-0.36545 0.16285,-0.123099 0.4847,-0.123099 h 0.33083 v -0.02308 q 0,-0.16285 -0.10771,-0.251327 -0.10643,-0.08976 -0.30005,-0.08976 -0.1231,0 -0.23979,0.02949 -0.11669,0.02949 -0.2244,0.08848 v -0.217988 q 0.12951,-0.05001 0.25133,-0.07437 0.12181,-0.02565 0.23722,-0.02565 0.31159,0 0.46547,0.161567 0.15387,0.161568 0.15387,0.489832 z"
         style="stroke-width:0.06565277"
         id="path899"
         inkscape:connector-curvature="0" />
      <path
         d="m 292.37399,-46.573039 0.0709,1.232759 -0.17998,0.0197 -0.0703,-1.221813 q -0.0169,-0.289929 -0.0856,-0.427379 -0.069,-0.137421 -0.19023,-0.124143 -0.14574,0.01596 -0.2199,0.19841 -0.0742,0.182451 -0.057,0.481522 l 0.0664,1.154341 -0.18096,0.01981 -0.11742,-2.042434 0.18096,-0.01981 0.0181,0.317322 q 0.054,-0.191249 0.13579,-0.291965 0.0828,-0.100808 0.19724,-0.113349 0.18878,-0.02067 0.2982,0.187561 0.10932,0.206405 0.13365,0.629479 z"
         style="stroke-width:0.06859697"
         id="path901"
         inkscape:connector-curvature="0" />
      <path
         d="m 293.00917,-47.805728 0.0322,0.583804 0.49828,-0.475319 0.0141,0.2625 -0.49827,0.475318 0.0623,1.115692 q 0.0138,0.251616 0.0666,0.276607 0.054,0.02389 0.20514,-0.120293 l 0.24848,-0.237005 0.0157,0.282428 -0.24849,0.237013 q -0.28003,0.26711 -0.39461,0.223717 -0.11469,-0.04522 -0.13617,-0.430574 l -0.0623,-1.115691 -0.17747,0.169282 -0.0141,-0.2625 0.17748,-0.169282 -0.0322,-0.583804 z"
         style="stroke-width:0.08161346"
         id="path903"
         inkscape:connector-curvature="0" />
      <g
         aria-label="ized"
         transform="matrix(0.27909596,0.02493516,0.13916059,0.63356296,135.12212,-36.85583)"
         style="font-style:normal;font-weight:normal;font-size:6.3327527px;line-height:1.25;font-family:sans-serif;letter-spacing:0px;word-spacing:0px;fill:#000000;fill-opacity:1;stroke:none;stroke-width:0.01039407"
         id="text900">
        <path
           d="m 588.55022,-40.050905 h 0.56896 v 3.463224 h -0.56896 z m 0,-1.348184 h 0.56896 v 0.720475 h -0.56896 z"
           style="stroke-width:0.01039407"
           id="path902"
           inkscape:connector-curvature="0" />
        <path
           d="m 589.63098,-40.050905 h 3.03831 l 0.0256,0.464879 -2.28293,2.227541 h 2.40561 l 0.0224,0.406768 h -3.12521 l -0.0256,-0.464878 2.28294,-2.227542 h -2.31871 z"
           style="stroke-width:0.01042552"
           id="path904"
           inkscape:connector-curvature="0" />
        <path
           d="m 596.05135,-38.756382 -0.0202,0.320084 h -2.12419 q -0.013,0.675735 0.22108,1.031384 0.23638,0.352093 0.69586,0.352093 0.26615,0 0.52057,-0.09247 0.25692,-0.09247 0.51468,-0.277407 l -0.0391,0.618831 q -0.25802,0.149373 -0.52408,0.227615 -0.26608,0.07825 -0.53474,0.07825 -0.67292,0 -1.03206,-0.554814 -0.35665,-0.554812 -0.29689,-1.500841 0.0618,-0.978036 0.46958,-1.550632 0.41052,-0.576152 1.04326,-0.576152 0.56745,0 0.86357,0.519249 0.29885,0.515691 0.24268,1.404816 z m -0.44986,-0.192051 q 0.0291,-0.537031 -0.15928,-0.857116 -0.18567,-0.320085 -0.52714,-0.320085 -0.38668,0 -0.63974,0.309416 -0.25055,0.309415 -0.3212,0.871341 z"
           style="stroke-width:0.01004491"
           id="path907"
           inkscape:connector-curvature="0" />
        <path
           d="m 599.80879,-39.525237 v -1.873852 h 0.56896 v 4.811408 h -0.56896 v -0.519483 q -0.17935,0.309216 -0.45455,0.460732 -0.27211,0.148424 -0.65554,0.148424 -0.62771,0 -1.0235,-0.500931 -0.39271,-0.50093 -0.39271,-1.317262 0,-0.816331 0.39271,-1.317262 0.39579,-0.50093 1.0235,-0.50093 0.38343,0 0.65554,0.151516 0.2752,0.148424 0.45455,0.45764 z m -1.93879,1.209036 q 0,0.62771 0.25665,0.986401 0.25974,0.355599 0.7112,0.355599 0.45146,0 0.7112,-0.355599 0.25974,-0.358691 0.25974,-0.986401 0,-0.627709 -0.25974,-0.983308 -0.25974,-0.358691 -0.7112,-0.358691 -0.45146,0 -0.7112,0.358691 -0.25665,0.355599 -0.25665,0.983308 z"
           style="stroke-width:0.01039407"
           id="path909"
           inkscape:connector-curvature="0" />
      </g>
    </g>
    <g
       aria-label="input"
       transform="matrix(-0.05517726,1.2356331,-1.3473348,-0.05060276,-17.270739,-24.803586)"
       style="font-style:normal;font-weight:normal;font-size:3.36718512px;line-height:1.25;font-family:sans-serif;letter-spacing:0px;word-spacing:0px;fill:#000000;fill-opacity:1;stroke:none;stroke-width:0.08417963"
       id="text893">
      <path
         d="m 182.55822,-45.95138 h 0.30252 v 1.841429 h -0.30252 z m 0,-0.716843 h 0.30252 v 0.383084 h -0.30252 z"
         style="stroke-width:0.08417963"
         id="path937"
         inkscape:connector-curvature="0" />
      <path
         d="m 185.02278,-45.221385 v 1.111434 h -0.30252 v -1.101569 q 0,-0.261418 -0.10194,-0.391304 -0.10193,-0.129887 -0.30581,-0.129887 -0.24497,0 -0.38637,0.156193 -0.14139,0.156193 -0.14139,0.425831 v 1.040736 h -0.30417 v -1.841429 h 0.30417 v 0.286079 q 0.10851,-0.166058 0.25484,-0.248264 0.14797,-0.08221 0.34033,-0.08221 0.31732,0 0.48009,0.197296 0.16277,0.195652 0.16277,0.577091 z"
         style="stroke-width:0.08417963"
         id="path939"
         inkscape:connector-curvature="0" />
      <path
         d="m 185.92212,-44.386165 v 0.976615 h -0.30416 v -2.54183 h 0.30416 v 0.279502 q 0.0954,-0.164413 0.24004,-0.243331 0.14633,-0.08056 0.34856,-0.08056 0.3354,0 0.54421,0.26635 0.21045,0.266349 0.21045,0.7004 0,0.434052 -0.21045,0.700401 -0.20881,0.26635 -0.54421,0.26635 -0.20223,0 -0.34856,-0.07892 -0.14468,-0.08056 -0.24004,-0.244975 z m 1.02923,-0.642857 q 0,-0.333759 -0.13811,-0.522834 -0.13646,-0.190719 -0.37651,-0.190719 -0.24004,0 -0.37815,0.190719 -0.13646,0.189075 -0.13646,0.522834 0,0.33376 0.13646,0.524479 0.13811,0.189075 0.37815,0.189075 0.24005,0 0.37651,-0.189075 0.13811,-0.190719 0.13811,-0.524479 z"
         style="stroke-width:0.08417963"
         id="path941"
         inkscape:connector-curvature="0" />
      <path
         d="m 187.7356,-44.836658 v -1.114722 h 0.30252 v 1.103213 q 0,0.261417 0.10194,0.392948 0.10193,0.129887 0.30581,0.129887 0.24497,0 0.38637,-0.156193 0.14304,-0.156193 0.14304,-0.425831 v -1.044024 h 0.30252 v 1.841429 h -0.30252 v -0.282791 q -0.11016,0.167702 -0.25649,0.249908 -0.14468,0.08056 -0.33705,0.08056 -0.31731,0 -0.48173,-0.197296 -0.16441,-0.197296 -0.16441,-0.577091 z"
         style="stroke-width:0.08417963"
         id="path943"
         inkscape:connector-curvature="0" />
      <path
         d="m 190.20344,-46.474215 v 0.522835 h 0.62313 v 0.235111 h -0.62313 v 0.999633 q 0,0.225246 0.0608,0.289367 0.0625,0.06412 0.25155,0.06412 h 0.31074 v 0.253197 h -0.31074 q -0.3502,0 -0.48338,-0.129887 -0.13317,-0.13153 -0.13317,-0.476798 v -0.999633 h -0.22196 v -0.235111 h 0.22196 v -0.522835 z"
         style="stroke-width:0.08417963"
         id="path945"
         inkscape:connector-curvature="0" />
    </g>
    <g
       aria-label="transpose"
       transform="matrix(0.75735579,0,0,0.6198319,33.39462,94.04985)"
       style="font-style:normal;font-weight:normal;font-size:3.31175423px;line-height:1.25;font-family:sans-serif;letter-spacing:0px;word-spacing:0px;fill:#000000;fill-opacity:1;stroke:none;stroke-width:0.08279385"
       id="text914">
      <path
         d="m -13.28627,195.24233 v 0.51423 h 0.612868 v 0.23124 h -0.612868 v 0.98317 q 0,0.22154 0.05983,0.28461 0.06145,0.0631 0.247412,0.0631 h 0.305625 v 0.24903 h -0.305625 q -0.344436,0 -0.475418,-0.12775 -0.130983,-0.12936 -0.130983,-0.46895 v -0.98317 h -0.218304 v -0.23124 h 0.218304 v -0.51423 z"
         style="stroke-width:0.08279385"
         id="path920"
         inkscape:connector-curvature="0" />
      <path
         d="m -11.230978,196.03469 q -0.05013,-0.0291 -0.10996,-0.042 -0.05822,-0.0145 -0.129366,-0.0145 -0.252262,0 -0.388096,0.16494 -0.134216,0.16332 -0.134216,0.47056 v 0.95407 h -0.299158 v -1.81111 h 0.299158 v 0.28137 q 0.09379,-0.16494 0.244177,-0.24418 0.150387,-0.0808 0.365457,-0.0808 0.03072,0 0.06792,0.005 0.03719,0.003 0.08247,0.0113 z"
         style="stroke-width:0.08279385"
         id="path922"
         inkscape:connector-curvature="0" />
      <path
         d="m -10.092562,196.65726 q -0.360606,0 -0.499674,0.0825 -0.139068,0.0825 -0.139068,0.28137 0,0.15848 0.103493,0.25227 0.105109,0.0922 0.284604,0.0922 0.247411,0 0.3961811,-0.17464 0.1503872,-0.17626 0.1503872,-0.46734 v -0.0663 z m 0.5934638,-0.12289 v 1.0333 h -0.2975405 v -0.2749 q -0.1018752,0.16494 -0.2538793,0.24418 -0.152005,0.0776 -0.371926,0.0776 -0.278135,0 -0.443076,-0.15524 -0.163324,-0.15686 -0.163324,-0.41882 0,-0.30563 0.20375,-0.46087 0.205368,-0.15523 0.611252,-0.15523 h 0.4172033 v -0.0291 q 0,-0.20537 -0.1358336,-0.31695 -0.1342167,-0.11319 -0.3783937,-0.11319 -0.155239,0 -0.302392,0.0372 -0.147153,0.0372 -0.282987,0.11158 v -0.2749 q 0.163324,-0.0631 0.316946,-0.0938 0.153621,-0.0323 0.299157,-0.0323 0.3929476,0 0.5869957,0.20375 0.1940481,0.20375 0.1940481,0.61772 z"
         style="stroke-width:0.08279385"
         id="path924"
         inkscape:connector-curvature="0" />
      <path
         d="m -7.3791229,196.47454 v 1.09313 h -0.2975404 v -1.08343 q 0,-0.25712 -0.1002582,-0.38486 -0.1002582,-0.12775 -0.3007746,-0.12775 -0.240943,0 -0.3800108,0.15362 -0.1390678,0.15362 -0.1390678,0.41882 v 1.0236 h -0.2991575 v -1.81111 h 0.2991575 v 0.28137 q 0.1067264,-0.16333 0.2506454,-0.24418 0.1455361,-0.0808 0.334733,-0.0808 0.312094,0 0.4721837,0.19404 0.1600897,0.19244 0.1600897,0.5676 z"
         style="stroke-width:0.08279385"
         id="path927"
         inkscape:connector-curvature="0" />
      <path
         d="m -5.6278384,195.80992 v 0.28137 q -0.1261313,-0.0647 -0.261965,-0.097 -0.1358336,-0.0324 -0.2813697,-0.0324 -0.2215383,0 -0.3331159,0.0679 -0.1099606,0.0679 -0.1099606,0.20375 0,0.10349 0.079236,0.16333 0.079236,0.0582 0.3185623,0.11157 l 0.1018752,0.0226 q 0.3169453,0.0679 0.4495448,0.19243 0.1342166,0.1229 0.1342166,0.34444 0,0.25226 -0.2005164,0.39941 -0.1988993,0.14716 -0.5481858,0.14716 -0.1455361,0 -0.3040087,-0.0291 -0.1568556,-0.0275 -0.3314989,-0.0841 v -0.30724 q 0.1649409,0.0857 0.3250306,0.12937 0.1600897,0.042 0.3169452,0.042 0.2102188,0 0.3234135,-0.0712 0.1131947,-0.0728 0.1131947,-0.20375 0,-0.12128 -0.08247,-0.18596 -0.080853,-0.0647 -0.3573719,-0.12452 l -0.1034923,-0.0243 q -0.2765186,-0.0582 -0.3994157,-0.17787 -0.1228971,-0.12128 -0.1228971,-0.3315 0,-0.2555 0.1811115,-0.39457 0.1811116,-0.13906 0.5142275,-0.13906 0.1649409,0 0.310477,0.0243 0.145536,0.0243 0.2684332,0.0728 z"
         style="stroke-width:0.08279385"
         id="path929"
         inkscape:connector-curvature="0" />
      <path
         d="m -4.7675587,197.29601 v 0.96053 h -0.2991575 v -2.49998 h 0.2991575 v 0.2749 q 0.09379,-0.16171 0.2360918,-0.23933 0.143919,-0.0792 0.3428183,-0.0792 0.3298818,0 0.5352494,0.26196 0.2069846,0.26197 0.2069846,0.68887 0,0.42691 -0.2069846,0.68887 -0.2053676,0.26197 -0.5352494,0.26197 -0.1988993,0 -0.3428183,-0.0776 -0.1423019,-0.0792 -0.2360918,-0.24094 z m 1.0122842,-0.63228 q 0,-0.32826 -0.1358336,-0.51423 -0.1342166,-0.18758 -0.3703085,-0.18758 -0.2360919,0 -0.3719255,0.18758 -0.1342166,0.18597 -0.1342166,0.51423 0,0.32827 0.1342166,0.51585 0.1358336,0.18596 0.3719255,0.18596 0.2360919,0 0.3703085,-0.18596 0.1358336,-0.18758 0.1358336,-0.51585 z"
         style="stroke-width:0.08279385"
         id="path931"
         inkscape:connector-curvature="0" />
      <path
         d="m -2.4042435,196.17859 q -0.239326,0 -0.3783938,0.18758 -0.1390678,0.18596 -0.1390678,0.51099 0,0.32503 0.1374507,0.51261 0.1390679,0.18597 0.3800109,0.18597 0.2377089,0 0.3767767,-0.18758 0.1390678,-0.18758 0.1390678,-0.511 0,-0.32179 -0.1390678,-0.50937 -0.1390678,-0.1892 -0.3767767,-0.1892 z m 0,-0.25226 q 0.3880962,0 0.6096345,0.25226 0.2215382,0.25226 0.2215382,0.69857 0,0.4447 -0.2215382,0.69858 -0.2215383,0.25226 -0.6096345,0.25226 -0.3897133,0 -0.6112515,-0.25226 -0.2199212,-0.25388 -0.2199212,-0.69858 0,-0.44631 0.2199212,-0.69857 0.2215382,-0.25226 0.6112515,-0.25226 z"
         style="stroke-width:0.08279385"
         id="path933"
         inkscape:connector-curvature="0" />
      <path
         d="m 0.07310392,196.02335 v 0.28137 q -0.12613126,-0.0647 -0.26196493,-0.097 -0.13583367,-0.0324 -0.28136975,-0.0324 -0.22153824,0 -0.3331159,0.0679 -0.10996059,0.0679 -0.10996059,0.20375 0,0.10349 0.0792363,0.16333 0.0792363,0.0582 0.31856229,0.11157 l 0.10187526,0.0226 q 0.31694523,0.0679 0.44954476,0.19243 0.1342166,0.1229 0.1342166,0.34444 0,0.25226 -0.20051637,0.39941 -0.1988993,0.14716 -0.54818588,0.14716 -0.14553607,0 -0.30400869,-0.0291 -0.15685552,-0.0275 -0.33149882,-0.0841 v -0.30724 q 0.1649409,0.0857 0.32503055,0.12937 0.16008969,0.042 0.31694523,0.042 0.21021878,0 0.3234135,-0.0712 0.11319473,-0.0728 0.11319473,-0.20375 0,-0.12128 -0.0824704,-0.18596 -0.0808534,-0.0647 -0.35737191,-0.12452 l -0.10349232,-0.0243 q -0.27651854,-0.0582 -0.39941563,-0.17787 -0.1228971,-0.12128 -0.1228971,-0.3315 0,-0.2555 0.1811115,-0.39457 0.18111155,-0.13906 0.51422745,-0.13906 0.16494088,0 0.31047696,0.0243 0.14553607,0.0243 0.2684332,0.0728 z"
         style="stroke-width:0.08279385"
         id="path935"
         inkscape:connector-curvature="0" />
      <path
         d="m 2.1946973,196.80116 v 0.14554 H 0.82665814 q 0.0194048,0.30724 0.18434576,0.46895 0.1665579,0.16009 0.4624813,0.16009 0.1714091,0 0.3314988,-0.0421 0.1617068,-0.042 0.3201794,-0.12613 v 0.28137 q -0.1600897,0.0679 -0.3282647,0.10349 -0.168175,0.0356 -0.3412013,0.0356 -0.4333741,0 -0.68725369,-0.25226 -0.25226253,-0.25227 -0.25226253,-0.68241 0,-0.44469 0.23932599,-0.70504 0.24094309,-0.26196 0.64844413,-0.26196 0.3654572,0 0.5772931,0.23609 0.2134529,0.23447 0.2134529,0.63874 z m -0.2975404,-0.0873 q -0.00323,-0.24418 -0.1374508,-0.38972 -0.1325995,-0.14553 -0.3525207,-0.14553 -0.2490284,0 -0.3994157,0.14068 -0.14877024,0.14069 -0.17140916,0.39619 z"
         style="stroke-width:0.08279385"
         id="path938"
         inkscape:connector-curvature="0" />
    </g>
    <g
       aria-label="divisions"
       transform="matrix(0.62229772,0,0,0.65284569,6.9002599,84.087739)"
       style="font-style:normal;font-weight:normal;font-size:3.31175423px;line-height:1.25;font-family:sans-serif;letter-spacing:0px;word-spacing:0px;fill:#000000;fill-opacity:1;stroke:none;stroke-width:0.08279385"
       id="text918">
      <path
         d="m -7.0630418,201.44371 v -0.97995 h 0.2975404 v 2.51616 h -0.2975404 v -0.27167 q -0.09379,0.16171 -0.2377089,0.24095 -0.142302,0.0776 -0.3428183,0.0776 -0.3282647,0 -0.5352494,-0.26196 -0.2053675,-0.26197 -0.2053675,-0.68887 0,-0.42691 0.2053675,-0.68887 0.2069847,-0.26197 0.5352494,-0.26197 0.2005163,0 0.3428183,0.0792 0.143919,0.0776 0.2377089,0.23933 z m -1.0139013,0.63227 q 0,0.32826 0.1342166,0.51584 0.1358337,0.18597 0.3719255,0.18597 0.2360919,0 0.3719255,-0.18597 0.1358337,-0.18758 0.1358337,-0.51584 0,-0.32827 -0.1358337,-0.51423 -0.1358336,-0.18758 -0.3719255,-0.18758 -0.2360918,0 -0.3719255,0.18758 -0.1342166,0.18596 -0.1342166,0.51423 z"
         style="stroke-width:0.08279385"
         id="path942"
         inkscape:connector-curvature="0" />
      <path
         d="m -6.1526329,201.1688 h 0.2975404 v 1.81112 h -0.2975404 z m 0,-0.70504 h 0.2975404 v 0.37678 h -0.2975404 z"
         style="stroke-width:0.08279385"
         id="path944"
         inkscape:connector-curvature="0" />
      <path
         d="m -5.4210184,201.14347 h 0.3153282 l 0.5659736,1.52005 0.5659736,-1.52005 h 0.3153282 l -0.6791684,1.81112 H -4.74185 Z"
         style="stroke-width:0.08279385"
         id="path946"
         inkscape:connector-curvature="0" />
      <path
         d="m -3.2818631,201.2984 0.2969377,-0.018 0.1208709,1.80745 -0.2969378,0.0181 z m -0.047053,-0.70362 0.2969378,-0.018 0.025146,0.37602 -0.2969378,0.018 z"
         style="stroke-width:0.08279385"
         id="path948"
         inkscape:connector-curvature="0" />
      <path
         d="m -1.2094199,200.90359 0.018778,0.3299 q -0.1301937,-0.0668 -0.2679079,-0.095 -0.1377142,-0.0282 -0.2829555,-0.0179 -0.2210895,0.0157 -0.3279097,0.10339 -0.1052063,0.0874 -0.09614,0.24672 0.00691,0.12135 0.089975,0.18585 0.08296,0.0626 0.3253636,0.10809 l 0.1031773,0.0193 q 0.3208347,0.0571 0.4614766,0.1936 0.1421469,0.13454 0.1569321,0.3943 0.016835,0.29577 -0.1734544,0.48259 -0.1886759,0.1867 -0.537255,0.21158 -0.1452413,0.0106 -0.305335,-0.0125 -0.1583731,-0.021 -0.33644,-0.075 l -0.020505,-0.36024 q 0.1703263,0.0887 0.3330055,0.12852 0.162575,0.0379 0.3191129,0.0268 0.209793,-0.0149 0.3180067,-0.10656 0.1081069,-0.0934 0.099367,-0.24697 -0.00809,-0.1422 -0.094713,-0.21216 -0.085007,-0.0701 -0.3649578,-0.12053 l -0.1049044,-0.0212 q -0.2798425,-0.0485 -0.4104779,-0.18011 -0.1307423,-0.13344 -0.1447713,-0.37992 -0.017052,-0.29957 0.1544118,-0.47553 0.1714634,-0.17596 0.5039047,-0.1997 0.1646067,-0.0117 0.3114698,0.006 0.146863,0.0181 0.272748,0.0663 z"
         style="stroke-width:0.08974174"
         id="path950"
         inkscape:connector-curvature="0" />
      <path
         d="m -0.6665284,201.16486 0.29693775,-0.018 0.12087082,1.80745 -0.29693775,0.018 z m -0.0470531,-0.70361 0.29693775,-0.018 0.0251456,0.37602 -0.29693774,0.018 z"
         style="stroke-width:0.08279385"
         id="path952"
         inkscape:connector-curvature="0" />
      <path
         d="m 0.96441342,200.96098 q -0.23884122,0.017 -0.3651086,0.24689 -0.12637549,0.22795 -0.10468358,0.60904 0.0216919,0.3811 0.17138297,0.59125 0.15119676,0.20813 0.39165179,0.19096 0.2372275,-0.0169 0.3634948,-0.24678 0.1262674,-0.22984 0.1046836,-0.60905 -0.021476,-0.3773 -0.1727812,-0.58733 -0.1514123,-0.21192 -0.38863978,-0.19498 z m -0.016836,-0.29579 q 0.38731008,-0.0276 0.62523568,0.25235 0.2379248,0.28 0.2677107,0.80329 0.029678,0.5214 -0.1744682,0.83486 -0.2042542,0.31155 -0.5915642,0.33921 -0.3889239,0.0277 -0.62684879,-0.25224 -0.23641922,-0.282 -0.26609701,-0.80339 -0.0297859,-0.5233 0.17285445,-0.83475 0.20425348,-0.31157 0.59317737,-0.33933 z"
         style="stroke-width:0.08974174"
         id="path954"
         inkscape:connector-curvature="0" />
      <path
         d="m 3.8198221,201.88678 v 1.09314 H 3.5222817 v -1.08344 q 0,-0.25711 -0.1002582,-0.38486 -0.1002582,-0.12775 -0.3007745,-0.12775 -0.2409431,0 -0.3800109,0.15363 -0.1390678,0.15362 -0.1390678,0.41882 v 1.0236 H 2.3030128 v -1.81112 h 0.2991575 v 0.28137 q 0.1067265,-0.16332 0.2506455,-0.24417 0.145536,-0.0809 0.3347329,-0.0809 0.3120941,0 0.4721838,0.19405 0.1600896,0.19243 0.1600896,0.56759 z"
         style="stroke-width:0.08279385"
         id="path956"
         inkscape:connector-curvature="0" />
      <path
         d="m 5.5711066,201.22217 v 0.28137 q -0.1261313,-0.0647 -0.2619649,-0.097 -0.1358337,-0.0323 -0.2813698,-0.0323 -0.2215382,0 -0.3331159,0.0679 -0.1099606,0.0679 -0.1099606,0.20375 0,0.10349 0.079236,0.16332 0.079236,0.0582 0.3185623,0.11158 l 0.1018753,0.0226 q 0.3169452,0.0679 0.4495447,0.19243 0.1342167,0.1229 0.1342167,0.34444 0,0.25226 -0.2005164,0.39941 -0.1988993,0.14715 -0.5481859,0.14715 -0.1455361,0 -0.3040087,-0.0291 -0.1568555,-0.0275 -0.3314988,-0.0841 v -0.30724 q 0.1649409,0.0857 0.3250305,0.12936 0.1600897,0.0421 0.3169453,0.0421 0.2102187,0 0.3234135,-0.0712 0.1131947,-0.0728 0.1131947,-0.20376 0,-0.12128 -0.08247,-0.18596 -0.080853,-0.0647 -0.357372,-0.12451 l -0.1034923,-0.0243 q -0.2765185,-0.0582 -0.3994157,-0.17788 -0.1228971,-0.12128 -0.1228971,-0.33149 0,-0.2555 0.1811116,-0.39457 0.1811115,-0.13907 0.5142274,-0.13907 0.1649409,0 0.310477,0.0243 0.1455361,0.0243 0.2684332,0.0728 z"
         style="stroke-width:0.08279385"
         id="path958"
         inkscape:connector-curvature="0" />
    </g>
  </g>
</svg>
