<?xml version="1.0" encoding="UTF-8" standalone="no"?>
<!-- Created with Inkscape (http://www.inkscape.org/) -->

<svg
   xmlns:dc="http://purl.org/dc/elements/1.1/"
   xmlns:cc="http://creativecommons.org/ns#"
   xmlns:rdf="http://www.w3.org/1999/02/22-rdf-syntax-ns#"
   xmlns:svg="http://www.w3.org/2000/svg"
   xmlns="http://www.w3.org/2000/svg"
   xmlns:sodipodi="http://sodipodi.sourceforge.net/DTD/sodipodi-0.dtd"
   xmlns:inkscape="http://www.inkscape.org/namespaces/inkscape"
   width="10mm"
   height="5mm"
   viewBox="0 0 10 5"
   version="1.1"
   id="svg890"
   inkscape:version="0.92.2 5c3e80d, 2017-08-06"
   sodipodi:docname="computerscare-CLEAR-BUTTON-UP.svg">
  <defs
     id="defs884" />
  <sodipodi:namedview
     id="base"
     pagecolor="#ffffff"
     bordercolor="#666666"
     borderopacity="1.0"
     inkscape:pageopacity="0.0"
     inkscape:pageshadow="2"
     inkscape:zoom="11.2"
     inkscape:cx="32.51116"
     inkscape:cy="12.85712"
     inkscape:document-units="mm"
     inkscape:current-layer="text828"
     showgrid="false"
     units="mm"
     inkscape:window-width="1440"
     inkscape:window-height="855"
     inkscape:window-x="0"
     inkscape:window-y="1"
     inkscape:window-maximized="1"
     inkscape:snap-global="false" />
  <metadata
     id="metadata887">
    <rdf:RDF>
      <cc:Work
         rdf:about="">
        <dc:format>image/svg+xml</dc:format>
        <dc:type
           rdf:resource="http://purl.org/dc/dcmitype/StillImage" />
        <dc:title />
      </cc:Work>
    </rdf:RDF>
  </metadata>
  <g
     inkscape:label="Layer 1"
     inkscape:groupmode="layer"
     id="layer1"
     transform="translate(0,-292)">
    <g
       aria-label="rst"
       style="font-style:normal;font-weight:normal;font-size:6.29599571px;line-height:1.25;font-family:sans-serif;letter-spacing:0px;word-spacing:0px;fill:#000000;fill-opacity:1;stroke:none;stroke-width:0.15739989"
       id="text1460">
      <rect
         style="fill:#dedede;fill-opacity:1;stroke:#000000;stroke-width:0.03916021;stroke-opacity:1"
         id="rect2390"
         width="7.7864323"
         height="3.7822468"
         x="0.21136901"
         y="292.08505" />
      <path
         style="fill:#adadad;fill-opacity:1;stroke:#000000;stroke-width:0.13618915;stroke-linecap:butt;stroke-linejoin:miter;stroke-miterlimit:4;stroke-dasharray:none;stroke-opacity:1"
         d="m 7.9731123,292.09119 1.1703757,0.58926 0.058516,4.13739 -1.2288925,-1.00035 z"
         id="path2394"
         inkscape:connector-curvature="0"
         sodipodi:nodetypes="ccccc" />
      <path
         style="fill:#848484;fill-opacity:1;stroke:#000000;stroke-width:0.1530488;stroke-linecap:butt;stroke-linejoin:miter;stroke-miterlimit:4;stroke-dasharray:none;stroke-opacity:1"
         d="m 0.3010355,295.89989 0.61376262,0.78031 8.14457738,0.19081 -1.1050461,-1.01734 z"
         id="path2396"
         inkscape:connector-curvature="0"
         sodipodi:nodetypes="ccccc" />
      <g
         aria-label="CLR"
         transform="scale(1.1005171,0.90866376)"
         style="font-style:normal;font-weight:normal;font-size:4.6693821px;line-height:1.25;font-family:sans-serif;letter-spacing:0px;word-spacing:0px;fill:#000000;fill-opacity:1;stroke:none;stroke-width:0.01837401"
         id="text828">
        <path
           d="m 2.4704928,322.41829 -0.1179157,0.29973 c -0.0965,-0.14037 -0.1217469,-0.14851 -0.2384741,-0.23114 -0.1156776,-0.0823 -0.2419321,-0.13671 -0.3787727,-0.16286 -0.2694705,-0.0515 -0.4847641,0.009 -0.6458798,0.17886 -0.16100206,0.16947 -0.25843369,0.44093 -0.29229412,0.81438 -0.0337465,0.37217 0.011978,0.671 0.13717456,0.89643 0.12531106,0.22416 0.32270166,0.36199 0.59217216,0.41346 0.1368406,0.0261 0.2684733,0.0212 0.3949026,-0.0149 0.1274776,-0.0359 0.2503374,-0.10363 0.3685723,-0.20297 l -0.036205,0.39932 c -0.1198143,0.0695 -0.2444115,0.11502 -0.3737913,0.1365 -0.1283259,0.0216 -0.2619654,0.0192 -0.4009112,-0.008 -0.356838,-0.0682 -0.62604739,-0.25247 -0.80762827,-0.55285 -0.18146714,-0.30163 -0.25166623,-0.67893 -0.21059879,-1.13186 0.0411819,-0.45419 0.17624358,-0.79225 0.40518364,-1.0142 0.22905512,-0.22322 0.52200172,-0.30072 0.87883972,-0.23255 0.1410511,0.0269 0.271619,0.0751 0.3917114,0.14418 0.1212578,0.0681 0.232562,0.15738 0.3339122,0.26788 z"
           style="stroke-width:0.0140508"
           id="path830"
           inkscape:connector-curvature="0"
           sodipodi:nodetypes="cccscscsccccscscsccc" />
        <path
           d="m 2.7814067,322.00943 0.3777435,-0.0627 v 2.66264 l 1.3595028,-0.22586 v 0.34215 l -1.7372463,0.28862 z"
           style="stroke-width:0.01563415"
           id="path832"
           inkscape:connector-curvature="0" />
        <path
           d="m 6.3420636,323.68206 c 0.077754,0.031 0.1531158,0.097 0.226085,0.19827 0.074166,0.10121 0.1483308,0.24045 0.2224963,0.41762 l 0.1213507,0.66818 -0.2837317,-0.0962 -0.201867,-0.51922 c -0.08852,-0.21093 -0.1746477,-0.35084 -0.2583828,-0.41973 -0.08254,-0.0689 -0.1955815,-0.10341 -0.3391274,-0.10341 H 5.4341352 v 1.33093 H 5.0716817 v -3.1491 h 0.8182121 c 0.3062314,0 0.5347088,0.0752 0.6854322,0.22569 0.1507232,0.15046 0.1556604,0.37755 0.1556604,0.68129 0,0.19826 0.03095,0.36279 -0.048001,0.49356 -0.077754,0.13077 -0.1913948,0.22147 -0.3409216,0.27209 z m -0.8022916,-1.17818 -0.1056368,0.97359 h 0.4557586 c 0.1746476,0 0.3062314,-0.0471 0.3947514,-0.14133 0.089716,-0.0956 0.1345745,-0.23553 0.1345745,-0.41973 0,-0.18421 -0.044858,-0.32273 -0.1345745,-0.41552 -0.08852,-0.0942 -0.2201038,-0.14132 -0.3947514,-0.14132 z"
           style="stroke-width:0.01567791"
           id="path834"
           inkscape:connector-curvature="0"
           sodipodi:nodetypes="cccccccsccccsssccccscscsc" />
      </g>
    </g>
  </g>
</svg>
