<?xml version="1.0" encoding="UTF-8" standalone="no"?>
<!-- Created with Inkscape (http://www.inkscape.org/) -->

<svg
   xmlns:dc="http://purl.org/dc/elements/1.1/"
   xmlns:cc="http://creativecommons.org/ns#"
   xmlns:rdf="http://www.w3.org/1999/02/22-rdf-syntax-ns#"
   xmlns:svg="http://www.w3.org/2000/svg"
   xmlns="http://www.w3.org/2000/svg"
   xmlns:sodipodi="http://sodipodi.sourceforge.net/DTD/sodipodi-0.dtd"
   xmlns:inkscape="http://www.inkscape.org/namespaces/inkscape"
   width="300"
   height="380"
   viewBox="0 0 79.375004 100.54167"
   version="1.1"
   id="svg8"
   inkscape:version="0.92.2 5c3e80d, 2017-08-06"
   sodipodi:docname="ComputerscareRouter.svg"
   style="enable-background:new">
  <defs
     id="defs2">
    <inkscape:perspective
       sodipodi:type="inkscape:persp3d"
       inkscape:vp_x="0 : 50.270835 : 1"
       inkscape:vp_y="0 : 1000 : 0"
       inkscape:vp_z="23.812501 : 50.270835 : 1"
       inkscape:persp3d-origin="11.906251 : 33.51389 : 1"
       id="perspective1881" />
  </defs>
  <sodipodi:namedview
     id="base"
     pagecolor="#ffffff"
     bordercolor="#666666"
     borderopacity="1.0"
     inkscape:pageopacity="0.0"
     inkscape:pageshadow="2"
     inkscape:zoom="1.4142136"
     inkscape:cx="64.663598"
     inkscape:cy="196.06315"
     inkscape:document-units="mm"
     inkscape:current-layer="g1669"
     showgrid="false"
     units="px"
     inkscape:snap-bbox="true"
     inkscape:snap-page="true"
     inkscape:bbox-nodes="true"
     inkscape:snap-bbox-edge-midpoints="true"
     inkscape:window-width="1440"
     inkscape:window-height="856"
     inkscape:window-x="0"
     inkscape:window-y="0"
     inkscape:window-maximized="0" />
  <metadata
     id="metadata5">
    <rdf:RDF>
      <cc:Work
         rdf:about="">
        <dc:format>image/svg+xml</dc:format>
        <dc:type
           rdf:resource="http://purl.org/dc/dcmitype/StillImage" />
        <dc:title></dc:title>
      </cc:Work>
    </rdf:RDF>
  </metadata>
  <g
     style="display:inline"
     transform="translate(0,-196.45832)"
     id="g1669"
     inkscape:groupmode="layer"
     inkscape:label="Layer 1 copy">
    <path
       inkscape:connector-curvature="0"
       id="path1647"
       d="M 0,196.45832 H 79.375 V 297 H 0 Z"
       style="opacity:1;vector-effect:none;fill:#f9f9f9;fill-opacity:1;fill-rule:evenodd;stroke:none;stroke-width:0.88743967;stroke-linecap:butt;stroke-linejoin:round;stroke-miterlimit:4;stroke-dasharray:none;stroke-dashoffset:0;stroke-opacity:1;paint-order:normal" />
    <g
       aria-label="computerscare"
       transform="rotate(1.4468834,6.0854166,481.93263)"
       style="font-style:normal;font-weight:normal;font-size:10.58333302px;line-height:1.25;font-family:sans-serif;letter-spacing:0px;word-spacing:0px;fill:#000000;fill-opacity:1;stroke:none;stroke-width:0.26458332"
       id="text1651">
      <path
         d="m 9.6564066,294.11837 -0.022491,0.23707 q -0.1028223,-0.0489 -0.2099211,-0.0673 -0.1055806,-0.0199 -0.2168506,-0.009 -0.2488775,0.0238 -0.4014201,0.19401 -0.1524199,0.16888 -0.1792271,0.45145 -0.026804,0.28254 0.095932,0.42654 0.1228661,0.14262 0.371738,0.11887 0.1112317,-0.0106 0.2224055,-0.0498 0.1127112,-0.0408 0.2267849,-0.11044 l -0.022229,0.23431 q -0.111772,0.0599 -0.2295122,0.0956 -0.1163563,0.0357 -0.2456588,0.048 -0.3517468,0.0335 -0.5381239,-0.16582 -0.1863704,-0.19938 -0.1510635,-0.57153 0.035829,-0.37767 0.2649098,-0.61397 0.2304697,-0.23642 0.5947391,-0.27118 0.1181718,-0.0112 0.2283935,0.003 0.110394,0.0127 0.2114822,0.0509 z"
         style="font-style:normal;font-variant:normal;font-weight:normal;font-stretch:normal;font-size:2.82222223px;font-family:sans-serif;-inkscape-font-specification:'sans-serif, Normal';font-variant-ligatures:normal;font-variant-caps:normal;font-variant-numeric:normal;font-feature-settings:normal;text-align:start;writing-mode:lr-tb;text-anchor:start;stroke-width:0.26458332"
         id="path1701"
         inkscape:connector-curvature="0" />
      <path
         d="m 10.696255,294.13661 q -0.205776,0.0197 -0.340506,0.19093 -0.134608,0.16992 -0.160888,0.44696 -0.02628,0.27705 0.07673,0.42565 0.104532,0.1471 0.311691,0.12734 0.204372,-0.0195 0.339118,-0.1908 0.134737,-0.1713 0.160888,-0.44696 0.02602,-0.27428 -0.07838,-0.42277 -0.10427,-0.14986 -0.308651,-0.13035 z m 0.0204,-0.21501 q 0.333675,-0.0318 0.503758,0.16499 0.170076,0.19686 0.133987,0.57727 -0.03596,0.37905 -0.246966,0.61361 -0.210875,0.23319 -0.544555,0.26503 -0.335078,0.032 -0.505151,-0.16486 -0.1685548,-0.19836 -0.1325956,-0.5774 0.036091,-0.38042 0.2455756,-0.61348 0.210875,-0.23319 0.545947,-0.26516 z"
         style="font-style:normal;font-variant:normal;font-weight:normal;font-stretch:normal;font-size:2.82222223px;font-family:sans-serif;-inkscape-font-specification:'sans-serif, Normal';font-variant-ligatures:normal;font-variant-caps:normal;font-variant-numeric:normal;font-feature-settings:normal;text-align:start;writing-mode:lr-tb;text-anchor:start;stroke-width:0.26458332"
         id="path1703"
         inkscape:connector-curvature="0" />
      <path
         d="m 13.383753,294.3194 q 0.187688,-0.17321 0.362845,-0.25561 0.175147,-0.0824 0.351813,-0.0824 0.23781,8e-5 0.273729,0.17198 0.03668,0.17051 -0.13452,0.48626 l -0.512086,0.94449 -0.251397,-9e-5 0.507544,-0.93611 q 0.121957,-0.22494 0.10359,-0.33395 -0.01838,-0.109 -0.177367,-0.10906 -0.194324,-6e-5 -0.379077,0.13262 -0.184751,0.13269 -0.308986,0.36183 l -0.479512,0.88441 -0.2514,-9e-5 0.507544,-0.9361 q 0.122719,-0.22635 0.10359,-0.33396 -0.01838,-0.109 -0.180083,-0.10906 -0.191606,-7e-5 -0.377117,0.13403 -0.184751,0.13268 -0.308226,0.36041 l -0.479515,0.88442 -0.251392,-9e-5 0.848424,-1.56482 0.251398,8e-5 -0.131803,0.2431 q 0.163633,-0.14387 0.320336,-0.2123 0.156694,-0.0684 0.321109,-0.0683 0.165786,7e-5 0.234354,0.0867 0.06991,0.0866 0.03623,0.25155 z"
         style="font-style:normal;font-variant:normal;font-weight:normal;font-stretch:normal;font-size:2.82222223px;font-family:sans-serif;-inkscape-font-specification:'sans-serif, Normal';font-variant-ligatures:normal;font-variant-caps:normal;font-variant-numeric:normal;font-feature-settings:normal;text-align:start;writing-mode:lr-tb;text-anchor:start;stroke-width:0.26458332"
         id="path1705"
         inkscape:connector-curvature="0" />
      <path
         d="m 14.594748,295.34975 -0.449967,0.82992 -0.251398,-10e-5 1.171128,-2.16001 0.251398,8e-5 -0.128771,0.23751 q 0.15457,-0.13968 0.310513,-0.2067 0.158053,-0.0684 0.325186,-0.0683 0.277216,1e-4 0.327078,0.2265 0.05123,0.2264 -0.148768,0.59527 -0.199983,0.36884 -0.496643,0.59513 -0.295297,0.22627 -0.572514,0.22618 -0.167146,-7e-5 -0.251743,-0.0672 -0.08248,-0.0684 -0.08553,-0.20825 z m 1.146864,-0.54599 q 0.153783,-0.28363 0.126749,-0.44434 -0.02492,-0.16211 -0.223318,-0.16219 -0.1984,-6e-5 -0.40042,0.16197 -0.199902,0.16063 -0.353683,0.44426 -0.153781,0.28362 -0.128861,0.44573 0.02703,0.16071 0.225435,0.16079 0.198401,6e-5 0.398301,-0.16056 0.20202,-0.16203 0.355797,-0.44566 z"
         style="font-style:normal;font-variant:normal;font-weight:normal;font-stretch:normal;font-size:2.82222223px;font-family:sans-serif;-inkscape-font-specification:'sans-serif, Normal';font-variant-ligatures:normal;font-variant-caps:normal;font-variant-numeric:normal;font-feature-settings:normal;text-align:start;writing-mode:lr-tb;text-anchor:start;stroke-width:0.26458332"
         id="path1707"
         inkscape:connector-curvature="0" />
      <path
         d="m 16.301178,294.96747 0.513602,-0.94729 0.25004,8e-5 -0.508299,0.93751 q -0.120446,0.22215 -0.09679,0.33395 0.0244,0.11041 0.192909,0.11048 0.202477,6e-5 0.391312,-0.13263 0.190187,-0.13269 0.314422,-0.36183 l 0.481026,-0.8872 0.250038,9e-5 -0.848425,1.56483 -0.25004,-8e-5 0.130294,-0.24032 q -0.168315,0.14248 -0.327131,0.21229 -0.156694,0.0684 -0.315674,0.0683 -0.262268,-9e-5 -0.307258,-0.1678 -0.04498,-0.16771 0.129993,-0.49044 z"
         style="font-style:normal;font-variant:normal;font-weight:normal;font-stretch:normal;font-size:2.82222223px;font-family:sans-serif;-inkscape-font-specification:'sans-serif, Normal';font-variant-ligatures:normal;font-variant-caps:normal;font-variant-numeric:normal;font-feature-settings:normal;text-align:start;writing-mode:lr-tb;text-anchor:start;stroke-width:0.26458332"
         id="path1709"
         inkscape:connector-curvature="0" />
      <path
         d="m 18.344702,293.59556 v 0.43822 h 0.522277 v 0.19706 h -0.522277 v 0.83784 q 0,0.18879 0.05099,0.24254 0.05237,0.0537 0.21084,0.0537 h 0.260449 v 0.21222 H 18.60653 q -0.293522,0 -0.405144,-0.10887 -0.111621,-0.11024 -0.111621,-0.39963 V 294.2308 H 17.90373 v -0.19706 h 0.186035 v -0.43822 z"
         style="font-style:normal;font-variant:normal;font-weight:normal;font-stretch:normal;font-size:2.82222223px;font-family:sans-serif;-inkscape-font-specification:'sans-serif, Normal';font-variant-ligatures:normal;font-variant-caps:normal;font-variant-numeric:normal;font-feature-settings:normal;text-align:start;writing-mode:lr-tb;text-anchor:start;stroke-width:0.26458332"
         id="path1711"
         inkscape:connector-curvature="0" />
      <path
         d="m 20.522003,294.74209 v 0.12402 h -1.165821 q 0.01654,0.26183 0.157097,0.39963 0.141938,0.13643 0.394119,0.13643 0.146072,0 0.282497,-0.0358 0.137804,-0.0358 0.272852,-0.10749 v 0.23978 q -0.136426,0.0579 -0.279742,0.0882 -0.143316,0.0303 -0.290766,0.0303 -0.369314,0 -0.585666,-0.21497 -0.214974,-0.21498 -0.214974,-0.58153 0,-0.37896 0.20395,-0.60083 0.205327,-0.22324 0.552593,-0.22324 0.311437,0 0.49196,0.20119 0.181901,0.19982 0.181901,0.54433 z m -0.253559,-0.0744 q -0.0028,-0.20808 -0.117134,-0.3321 -0.112999,-0.12403 -0.300412,-0.12403 -0.212218,0 -0.340375,0.11989 -0.12678,0.11989 -0.146072,0.33762 z"
         style="font-style:normal;font-variant:normal;font-weight:normal;font-stretch:normal;font-size:2.82222223px;font-family:sans-serif;-inkscape-font-specification:'sans-serif, Normal';font-variant-ligatures:normal;font-variant-caps:normal;font-variant-numeric:normal;font-feature-settings:normal;text-align:start;writing-mode:lr-tb;text-anchor:start;stroke-width:0.26458332"
         id="path1713"
         inkscape:connector-curvature="0" />
      <path
         d="m 21.832517,294.2708 q -0.04272,-0.0248 -0.09371,-0.0358 -0.04961,-0.0124 -0.110243,-0.0124 -0.214974,0 -0.330729,0.14056 -0.114377,0.13918 -0.114377,0.40101 v 0.81304 h -0.254937 v -1.5434 h 0.254937 v 0.23977 q 0.07993,-0.14056 0.208084,-0.20808 0.128157,-0.0689 0.311436,-0.0689 0.02618,0 0.05788,0.004 0.03169,0.003 0.07028,0.01 z"
         style="font-style:normal;font-variant:normal;font-weight:normal;font-stretch:normal;font-size:2.82222223px;font-family:sans-serif;-inkscape-font-specification:'sans-serif, Normal';font-variant-ligatures:normal;font-variant-caps:normal;font-variant-numeric:normal;font-feature-settings:normal;text-align:start;writing-mode:lr-tb;text-anchor:start;stroke-width:0.26458332"
         id="path1715"
         inkscape:connector-curvature="0" />
      <path
         d="m 23.185447,294.16269 -0.03488,0.23723 q -0.09833,-0.0702 -0.208837,-0.11429 -0.110508,-0.0442 -0.233212,-0.0622 -0.186783,-0.0275 -0.289279,0.016 -0.101136,0.0437 -0.117973,0.15816 -0.01283,0.0873 0.04655,0.14753 0.05959,0.0589 0.254751,0.13358 l 0.08309,0.0317 q 0.258799,0.0966 0.355164,0.21797 0.09793,0.12025 0.07046,0.30705 -0.03127,0.21268 -0.218575,0.31189 -0.185938,0.0994 -0.480428,0.0561 -0.122703,-0.018 -0.252707,-0.0622 -0.128844,-0.0426 -0.269062,-0.11204 l 0.03809,-0.25904 q 0.128445,0.0927 0.258001,0.14937 0.129765,0.0553 0.262013,0.0747 0.17724,0.0261 0.281492,-0.0199 0.104454,-0.0473 0.120693,-0.15775 0.01504,-0.10226 -0.04648,-0.16702 -0.06015,-0.0645 -0.285871,-0.14928 l -0.08424,-0.0333 q -0.225922,-0.0833 -0.314703,-0.19949 -0.08858,-0.11748 -0.06252,-0.29473 0.03167,-0.21541 0.201614,-0.31021 0.169938,-0.0948 0.450794,-0.0535 0.139065,0.0204 0.258757,0.059 0.119693,0.0385 0.217301,0.0946 z"
         style="font-style:normal;font-variant:normal;font-weight:normal;font-stretch:normal;font-size:2.82222223px;font-family:sans-serif;-inkscape-font-specification:'sans-serif, Normal';font-variant-ligatures:normal;font-variant-caps:normal;font-variant-numeric:normal;font-feature-settings:normal;text-align:start;writing-mode:lr-tb;text-anchor:start;stroke-width:0.26458332"
         id="path1717"
         inkscape:connector-curvature="0" />
      <path
         d="m 24.683678,294.09303 v 0.23702 q -0.107487,-0.0593 -0.216352,-0.0882 -0.107487,-0.0303 -0.21773,-0.0303 -0.246668,0 -0.383094,0.1571 -0.136426,0.15572 -0.136426,0.43822 0,0.28249 0.136426,0.43959 0.136426,0.15572 0.383094,0.15572 0.110243,0 0.21773,-0.0289 0.108865,-0.0303 0.216352,-0.0896 v 0.23426 q -0.106108,0.0496 -0.220486,0.0744 -0.112999,0.0248 -0.241156,0.0248 -0.348644,0 -0.553972,-0.21911 -0.205327,-0.2191 -0.205327,-0.59117 0,-0.37759 0.206705,-0.59394 0.208084,-0.21635 0.56913,-0.21635 0.117133,0 0.228754,0.0248 0.111622,0.0234 0.216352,0.0717 z"
         style="font-style:normal;font-variant:normal;font-weight:normal;font-stretch:normal;font-size:2.82222223px;font-family:sans-serif;-inkscape-font-specification:'sans-serif, Normal';font-variant-ligatures:normal;font-variant-caps:normal;font-variant-numeric:normal;font-feature-settings:normal;text-align:start;writing-mode:lr-tb;text-anchor:start;stroke-width:0.26458332"
         id="path1719"
         inkscape:connector-curvature="0" />
      <path
         d="m 25.828828,294.80134 q -0.307302,0 -0.425814,0.0703 -0.118511,0.0703 -0.118511,0.23978 0,0.13505 0.08819,0.21498 0.08957,0.0785 0.242534,0.0785 0.21084,0 0.33762,-0.14882 0.128157,-0.15021 0.128157,-0.39826 v -0.0565 z m 0.50574,-0.10473 v 0.88057 h -0.253559 v -0.23427 q -0.08682,0.14056 -0.216352,0.20809 -0.129535,0.0661 -0.316949,0.0661 -0.237022,0 -0.377582,-0.13229 -0.139182,-0.13367 -0.139182,-0.35691 0,-0.26045 0.173633,-0.39274 0.175011,-0.13229 0.520898,-0.13229 h 0.355534 v -0.0248 q 0,-0.17501 -0.115755,-0.27009 -0.114377,-0.0965 -0.322461,-0.0965 -0.132292,0 -0.257693,0.0317 -0.125402,0.0317 -0.241157,0.0951 v -0.23426 q 0.139182,-0.0537 0.270096,-0.0799 0.130913,-0.0276 0.254937,-0.0276 0.334863,0 0.500228,0.17363 0.165364,0.17363 0.165364,0.52641 z"
         style="font-style:normal;font-variant:normal;font-weight:normal;font-stretch:normal;font-size:2.82222223px;font-family:sans-serif;-inkscape-font-specification:'sans-serif, Normal';font-variant-ligatures:normal;font-variant-caps:normal;font-variant-numeric:normal;font-feature-settings:normal;text-align:start;writing-mode:lr-tb;text-anchor:start;stroke-width:0.26458332"
         id="path1721"
         inkscape:connector-curvature="0" />
      <path
         d="m 27.750508,294.18919 q -0.04276,-0.0264 -0.09377,-0.0382 -0.04963,-0.0133 -0.110268,-0.0134 -0.214982,-3.4e-4 -0.330517,0.14893 -0.114161,0.1478 -0.113742,0.42619 l 0.0013,0.86448 -0.254947,-4.1e-4 -0.0025,-1.64104 0.254948,4.1e-4 3.83e-4,0.25494 q 0.07971,-0.14933 0.20776,-0.22092 0.128053,-0.0731 0.311339,-0.0728 0.02618,4e-5 0.05789,0.004 0.03171,0.003 0.0703,0.0107 z"
         style="font-style:normal;font-variant:normal;font-weight:normal;font-stretch:normal;font-size:2.82222223px;font-family:sans-serif;-inkscape-font-specification:'sans-serif, Normal';font-variant-ligatures:normal;font-variant-caps:normal;font-variant-numeric:normal;font-feature-settings:normal;text-align:start;writing-mode:lr-tb;text-anchor:start;stroke-width:0.27282965"
         id="path1723"
         inkscape:connector-curvature="0" />
      <path
         d="m 29.28357,294.74209 v 0.12402 h -1.165821 q 0.01654,0.26183 0.157097,0.39963 0.141938,0.13643 0.394119,0.13643 0.146072,0 0.282498,-0.0358 0.137803,-0.0358 0.272851,-0.10749 v 0.23978 q -0.136426,0.0579 -0.279742,0.0882 -0.143316,0.0303 -0.290766,0.0303 -0.369314,0 -0.585666,-0.21497 -0.214974,-0.21498 -0.214974,-0.58153 0,-0.37896 0.20395,-0.60083 0.205327,-0.22324 0.552593,-0.22324 0.311437,0 0.49196,0.20119 0.181901,0.19982 0.181901,0.54433 z m -0.253559,-0.0744 q -0.0028,-0.20808 -0.117134,-0.3321 -0.112999,-0.12403 -0.300412,-0.12403 -0.212218,0 -0.340375,0.11989 -0.12678,0.11989 -0.146072,0.33762 z"
         style="font-style:normal;font-variant:normal;font-weight:normal;font-stretch:normal;font-size:2.82222223px;font-family:sans-serif;-inkscape-font-specification:'sans-serif, Normal';font-variant-ligatures:normal;font-variant-caps:normal;font-variant-numeric:normal;font-feature-settings:normal;text-align:start;writing-mode:lr-tb;text-anchor:start;stroke-width:0.26458332"
         id="path1725"
         inkscape:connector-curvature="0" />
    </g>
    <g
       aria-label="router"
       transform="matrix(1.033705,0.06259817,-0.33553856,0.94707474,12.298202,-0.63637663)"
       style="font-style:normal;font-weight:normal;font-size:6.75034046px;line-height:1.25;font-family:sans-serif;letter-spacing:0px;word-spacing:0px;fill:#000000;fill-opacity:1;stroke:none;stroke-width:0.16875851"
       id="text2005">
      <path
         d="m 70.369082,205.60124 q -0.102178,-0.0593 -0.224132,-0.0857 -0.118658,-0.0297 -0.263685,-0.0297 -0.514186,0 -0.791056,0.3362 -0.273573,0.33291 -0.273573,0.95916 v 1.94468 h -0.609772 v -3.6916 h 0.609772 v 0.57352 q 0.191172,-0.3362 0.497706,-0.49771 0.306534,-0.1648 0.74491,-0.1648 0.06262,0 0.138435,0.01 0.07581,0.007 0.168099,0.0231 z"
         style="stroke-width:0.16875851"
         id="path2007"
         inkscape:connector-curvature="0" />
      <path
         d="m 72.1885,205.10408 q -0.488922,-0.003 -0.759925,0.41732 -0.271115,0.41708 -0.248414,1.14953 0.0227,0.73244 0.316601,1.1571 0.297092,0.42104 0.789317,0.42446 0.485619,0.003 0.756621,-0.41735 0.271003,-0.42072 0.248416,-1.14952 -0.02248,-0.72516 -0.31968,-1.14983 -0.297317,-0.42833 -0.782936,-0.43171 z m -0.01762,-0.56847 q 0.792848,0.006 1.26305,0.57714 0.470202,0.57161 0.501373,1.57736 0.03106,1.00209 -0.403794,1.57105 -0.434965,0.56531 -1.227813,0.55979 -0.79615,-0.006 -1.266352,-0.57715 -0.467012,-0.57524 -0.49807,-1.57733 -0.03117,-1.00575 0.400491,-1.57108 0.434965,-0.56532 1.231115,-0.55978 z"
         style="stroke-width:0.1776239"
         id="path2009"
         inkscape:connector-curvature="0" />
      <path
         d="m 75.20181,207.70345 -0.476539,-2.31698 0.681941,-0.16103 0.471617,2.29306 q 0.111756,0.54336 0.397767,0.7625 0.285312,0.21571 0.744881,0.10719 0.552224,-0.13039 0.804188,-0.53029 0.255667,-0.40079 0.140405,-0.96124 l -0.446317,-2.17004 0.681941,-0.16101 0.787203,3.82745 -0.681942,0.16103 -0.120892,-0.58779 q -0.176624,0.40719 -0.471333,0.65596 -0.291706,0.24445 -0.725333,0.34684 -0.715297,0.1689 -1.170262,-0.15367 -0.45496,-0.32257 -0.61732,-1.11198 z"
         style="stroke-width:0.18658562"
         id="path2011"
         inkscape:connector-curvature="0" />
      <path
         d="m 80.144683,203.96943 -0.04589,1.05117 1.417697,-0.0111 -0.02063,0.4727 -1.219511,0.0854 -0.08774,2.00981 c -0.01318,0.30191 -0.173697,0.42117 -0.08518,0.5064 0.09101,0.0852 0.279907,0.12666 0.566688,0.12441 l 0.706979,-0.006 -0.02222,0.50907 -0.706979,0.006 c -0.531168,0.004 -0.893949,-0.0802 -1.088344,-0.2525 -0.194297,-0.17472 -0.281344,-0.49347 -0.261142,-0.95625 l 0.08774,-2.00981 -0.504984,0.004 0.02064,-0.4727 0.504985,-0.004 0.04589,-1.05117 z"
         style="stroke-width:0.18000843"
         id="path2013"
         inkscape:connector-curvature="0"
         sodipodi:nodetypes="cccccsccccccccccccc" />
      <path
         d="m 85.092631,206.72892 -0.0048,0.29697 -2.928548,0.009 q 0.03133,0.6268 0.379041,0.95564 0.351227,0.32554 0.984708,0.32354 0.366934,-10e-4 0.711034,-0.088 0.347561,-0.0869 0.689596,-0.25953 l -0.0094,0.57412 q -0.34496,0.13968 -0.706153,0.2134 -0.361193,0.0737 -0.731588,0.0749 -0.92772,0.003 -1.462813,-0.51008 -0.531631,-0.51304 -0.517335,-1.39073 0.01478,-0.9074 0.535756,-1.44026 0.524491,-0.53617 1.396824,-0.53893 0.782331,-0.002 1.227959,0.47785 0.449143,0.477 0.435707,1.30189 z m -0.63404,-0.17616 q 0.0012,-0.49822 -0.281286,-0.79428 -0.279018,-0.29606 -0.749801,-0.29457 -0.533092,0.002 -0.859701,0.28976 -0.323146,0.28807 -0.380101,0.80957 z"
         style="stroke-width:0.17303403"
         id="path2015"
         inkscape:connector-curvature="0" />
      <path
         d="m 88.233752,205.60124 q -0.102178,-0.0593 -0.224132,-0.0857 -0.118659,-0.0297 -0.263686,-0.0297 -0.514186,0 -0.791055,0.3362 -0.273573,0.33291 -0.273573,0.95916 v 1.94468 h -0.609772 v -3.6916 h 0.609772 v 0.57352 q 0.191171,-0.3362 0.497705,-0.49771 0.306534,-0.1648 0.744911,-0.1648 0.06262,0 0.138435,0.01 0.07581,0.007 0.168099,0.0231 z"
         style="stroke-width:0.16875851"
         id="path2017"
         inkscape:connector-curvature="0" />
    </g>
  </g>
</svg>
