<?xml version="1.0" encoding="UTF-8" standalone="no"?>
<!-- Created with Inkscape (http://www.inkscape.org/) -->

<svg
   xmlns:dc="http://purl.org/dc/elements/1.1/"
   xmlns:cc="http://creativecommons.org/ns#"
   xmlns:rdf="http://www.w3.org/1999/02/22-rdf-syntax-ns#"
   xmlns:svg="http://www.w3.org/2000/svg"
   xmlns="http://www.w3.org/2000/svg"
   xmlns:sodipodi="http://sodipodi.sourceforge.net/DTD/sodipodi-0.dtd"
   xmlns:inkscape="http://www.inkscape.org/namespaces/inkscape"
   width="90"
   height="380"
   viewBox="0 0 23.812501 100.54167"
   version="1.1"
   id="svg8"
   inkscape:version="0.92.2 5c3e80d, 2017-08-06"
   sodipodi:docname="ComputerscareDebugPanel.svg"
   enable-background="new">
  <defs
     id="defs2">
    <inkscape:perspective
       sodipodi:type="inkscape:persp3d"
       inkscape:vp_x="0 : 50.270835 : 1"
       inkscape:vp_y="0 : 1000 : 0"
       inkscape:vp_z="23.812501 : 50.270835 : 1"
       inkscape:persp3d-origin="11.906251 : 33.51389 : 1"
       id="perspective1881" />
  </defs>
  <sodipodi:namedview
     id="base"
     pagecolor="#ffffff"
     bordercolor="#666666"
     borderopacity="1.0"
     inkscape:pageopacity="0.0"
     inkscape:pageshadow="2"
     inkscape:zoom="8.0000004"
     inkscape:cx="31.739768"
     inkscape:cy="348.02564"
     inkscape:document-units="mm"
     inkscape:current-layer="text1667"
     showgrid="false"
     units="px"
     inkscape:snap-bbox="true"
     inkscape:snap-page="true"
     inkscape:bbox-nodes="true"
     inkscape:snap-bbox-edge-midpoints="true"
     inkscape:window-width="1440"
     inkscape:window-height="856"
     inkscape:window-x="0"
     inkscape:window-y="0"
     inkscape:window-maximized="0"
     inkscape:snap-global="false"
     showguides="false"
     inkscape:lockguides="false" />
  <metadata
     id="metadata5">
    <rdf:RDF>
      <cc:Work
         rdf:about="">
        <dc:format>image/svg+xml</dc:format>
        <dc:type
           rdf:resource="http://purl.org/dc/dcmitype/StillImage" />
        <dc:title />
      </cc:Work>
    </rdf:RDF>
  </metadata>
  <g
     inkscape:label="Layer 1"
     inkscape:groupmode="layer"
     id="layer1"
     transform="translate(0,-196.45832)"
     style="display:inline">
    <path
       style="opacity:1;vector-effect:none;fill:#f0f0f0;fill-opacity:1;fill-rule:evenodd;stroke:none;stroke-width:0.48607069;stroke-linecap:butt;stroke-linejoin:round;stroke-miterlimit:4;stroke-dasharray:none;stroke-dashoffset:0;stroke-opacity:1;paint-order:normal"
       d="M 0,196.45831 H 23.8125 V 296.99999 H 0 Z"
       id="rect817"
       inkscape:connector-curvature="0" />
    <text
       xml:space="preserve"
       style="font-style:normal;font-weight:normal;font-size:10.58333302px;line-height:1.25;font-family:sans-serif;letter-spacing:0px;word-spacing:0px;fill:#000000;fill-opacity:1;stroke:none;stroke-width:0.26458332"
       x="8.2147436"
       y="295.57718"
       id="text1490"
       transform="rotate(1.4468834)"><tspan
         sodipodi:role="line"
         id="tspan1488"
         x="8.2147436"
         y="295.57718"
         style="font-style:normal;font-variant:normal;font-weight:normal;font-stretch:normal;font-size:2.82222223px;font-family:sans-serif;-inkscape-font-specification:'sans-serif, Normal';font-variant-ligatures:normal;font-variant-caps:normal;font-variant-numeric:normal;font-feature-settings:normal;text-align:start;writing-mode:lr-tb;text-anchor:start;stroke-width:0.26458332">computerscare</tspan></text>
    <text
       xml:space="preserve"
       style="font-style:normal;font-weight:normal;font-size:10.58333302px;line-height:1.25;font-family:sans-serif;letter-spacing:0px;word-spacing:0px;fill:#000000;fill-opacity:1;stroke:none;stroke-width:0.26458332"
       x="20.711658"
       y="288.87244"
       id="text1498"
       transform="rotate(1.9714728)"><tspan
         sodipodi:role="line"
         id="tspan1496"
         x="20.711658"
         y="288.87244"
         style="font-style:normal;font-variant:normal;font-weight:normal;font-stretch:normal;font-size:2.82222223px;font-family:sans-serif;-inkscape-font-specification:'sans-serif, Normal';font-variant-ligatures:normal;font-variant-caps:normal;font-variant-numeric:normal;font-feature-settings:normal;text-align:start;writing-mode:lr-tb;text-anchor:start;stroke-width:0.26458332">in</tspan></text>
    <text
       transform="rotate(0.49746114)"
       id="text1521"
       y="289.16214"
       x="20.314623"
       style="font-style:normal;font-weight:normal;font-size:10.58333302px;line-height:1.25;font-family:sans-serif;letter-spacing:0px;word-spacing:0px;fill:#000000;fill-opacity:1;stroke:none;stroke-width:0.26458332"
       xml:space="preserve"><tspan
         style="font-style:normal;font-variant:normal;font-weight:normal;font-stretch:normal;font-size:3.17499995px;font-family:sans-serif;-inkscape-font-specification:'sans-serif, Normal';font-variant-ligatures:normal;font-variant-caps:normal;font-variant-numeric:normal;font-feature-settings:normal;text-align:start;writing-mode:lr-tb;text-anchor:start;stroke-width:0.26458332"
         y="289.16214"
         x="20.314623"
         id="tspan1519"
         sodipodi:role="line">clr</tspan></text>
    <text
       transform="matrix(1.0139335,-0.02825079,0.06854811,0.98434808,0,0)"
       id="text1645"
       y="204.61243"
       x="-10.296249"
       style="font-style:normal;font-weight:normal;font-size:10.74719143px;line-height:1.25;font-family:sans-serif;letter-spacing:0px;word-spacing:0px;fill:#000000;fill-opacity:1;stroke:none;stroke-width:0.26867977"
       xml:space="preserve"><tspan
         style="font-style:normal;font-variant:normal;font-weight:normal;font-stretch:normal;font-size:5.01535606px;font-family:sans-serif;-inkscape-font-specification:'sans-serif, Normal';font-variant-ligatures:normal;font-variant-caps:normal;font-variant-numeric:normal;font-feature-settings:normal;text-align:start;writing-mode:lr-tb;text-anchor:start;stroke-width:0.26867977"
         y="204.61243"
         x="-10.296249"
         id="tspan1643"
         sodipodi:role="line">debug</tspan></text>
  </g>
  <g
     inkscape:groupmode="layer"
     id="layer3"
     inkscape:label="bg"
     style="display:inline" />
  <g
     style="display:inline"
     transform="translate(0,-196.45832)"
     id="g1669"
     inkscape:groupmode="layer"
     inkscape:label="Layer 1 copy">
    <path
       inkscape:connector-curvature="0"
       id="path1647"
       d="M 0,196.41154 H 23.8125 V 296.95322 H 0 Z"
       style="opacity:1;vector-effect:none;fill:#f9f9f9;fill-opacity:1;fill-rule:evenodd;stroke:none;stroke-width:0.48607069;stroke-linecap:butt;stroke-linejoin:round;stroke-miterlimit:4;stroke-dasharray:none;stroke-dashoffset:0;stroke-opacity:1;paint-order:normal" />
    <g
       aria-label="computerscare"
       transform="matrix(0.8241748,0.02257152,-0.02081721,0.89362904,5.4323529,31.427614)"
       style="font-style:normal;font-weight:normal;font-size:10.58333302px;line-height:1.25;font-family:sans-serif;letter-spacing:0px;word-spacing:0px;fill:#000000;fill-opacity:1;stroke:none;stroke-width:0.26458332"
       id="text1651">
      <path
         d="m 9.6564066,294.11837 -0.022491,0.23707 q -0.1028223,-0.0489 -0.2099211,-0.0673 -0.1055806,-0.0199 -0.2168506,-0.009 -0.2488775,0.0238 -0.4014201,0.19401 -0.1524199,0.16888 -0.1792271,0.45145 -0.026804,0.28254 0.095932,0.42654 0.1228661,0.14262 0.371738,0.11887 0.1112317,-0.0106 0.2224055,-0.0498 0.1127112,-0.0408 0.2267849,-0.11044 l -0.022229,0.23431 q -0.111772,0.0599 -0.2295122,0.0956 -0.1163563,0.0357 -0.2456588,0.048 -0.3517468,0.0335 -0.5381239,-0.16582 -0.1863704,-0.19938 -0.1510635,-0.57153 0.035829,-0.37767 0.2649098,-0.61397 0.2304697,-0.23642 0.5947391,-0.27118 0.1181718,-0.0112 0.2283935,0.003 0.110394,0.0127 0.2114822,0.0509 z"
         style="font-style:normal;font-variant:normal;font-weight:normal;font-stretch:normal;font-size:2.82222223px;font-family:sans-serif;-inkscape-font-specification:'sans-serif, Normal';font-variant-ligatures:normal;font-variant-caps:normal;font-variant-numeric:normal;font-feature-settings:normal;text-align:start;writing-mode:lr-tb;text-anchor:start;stroke-width:0.26458332"
         id="path1701"
         inkscape:connector-curvature="0" />
      <path
         d="m 10.696255,294.13661 q -0.205776,0.0197 -0.340506,0.19093 -0.134608,0.16992 -0.160888,0.44696 -0.02628,0.27705 0.07673,0.42565 0.104532,0.1471 0.311691,0.12734 0.204372,-0.0195 0.339118,-0.1908 0.134737,-0.1713 0.160888,-0.44696 0.02602,-0.27428 -0.07838,-0.42277 -0.10427,-0.14986 -0.308651,-0.13035 z m 0.0204,-0.21501 q 0.333675,-0.0318 0.503758,0.16499 0.170076,0.19686 0.133987,0.57727 -0.03596,0.37905 -0.246966,0.61361 -0.210875,0.23319 -0.544555,0.26503 -0.335078,0.032 -0.505151,-0.16486 -0.1685548,-0.19836 -0.1325956,-0.5774 0.036091,-0.38042 0.2455756,-0.61348 0.210875,-0.23319 0.545947,-0.26516 z"
         style="font-style:normal;font-variant:normal;font-weight:normal;font-stretch:normal;font-size:2.82222223px;font-family:sans-serif;-inkscape-font-specification:'sans-serif, Normal';font-variant-ligatures:normal;font-variant-caps:normal;font-variant-numeric:normal;font-feature-settings:normal;text-align:start;writing-mode:lr-tb;text-anchor:start;stroke-width:0.26458332"
         id="path1703"
         inkscape:connector-curvature="0" />
      <path
         d="m 13.143759,294.1394 q 0.109103,-0.20599 0.261143,-0.30389 0.152033,-0.0979 0.358066,-0.0977 0.277351,3.4e-4 0.428154,0.205 0.150801,0.203 0.151243,0.57869 l 0.0013,1.12376 -0.2932,-3.3e-4 -0.0013,-1.1138 q -3.15e-4,-0.26763 -0.0908,-0.39742 -0.0905,-0.12977 -0.275921,-0.13 -0.226635,-2.7e-4 -0.357993,0.15747 -0.131357,0.15777 -0.131036,0.4304 l 0.0012,1.05229 -0.2932,-3.4e-4 -0.0013,-1.1138 q -3.17e-4,-0.2693 -0.0908,-0.39742 -0.0905,-0.12976 -0.279091,-0.13 -0.223465,-2.8e-4 -0.354821,0.15914 -0.131357,0.15777 -0.131039,0.42874 l 0.0012,1.05227 -0.293194,-3.3e-4 -0.0022,-1.86186 0.293199,3.4e-4 3.42e-4,0.28924 q 0.09965,-0.17108 0.239016,-0.25238 0.139373,-0.0812 0.331141,-0.081 0.193354,2.3e-4 0.328188,0.10342 0.136421,0.10314 0.201631,0.29946 z"
         style="font-style:normal;font-variant:normal;font-weight:normal;font-stretch:normal;font-size:2.82222223px;font-family:sans-serif;-inkscape-font-specification:'sans-serif, Normal';font-variant-ligatures:normal;font-variant-caps:normal;font-variant-numeric:normal;font-feature-settings:normal;text-align:start;writing-mode:lr-tb;text-anchor:start;stroke-width:0.31164581"
         id="path1705"
         inkscape:connector-curvature="0" />
      <path
         d="m 14.742929,294.81667 v 0.81855 h -0.254937 v -2.13044 h 0.254937 v 0.23426 q 0.07993,-0.1378 0.201194,-0.20395 0.122645,-0.0675 0.292144,-0.0675 0.28112,0 0.45613,0.22324 0.176389,0.22324 0.176389,0.58705 0,0.3638 -0.176389,0.58704 -0.17501,0.22324 -0.45613,0.22324 -0.169499,0 -0.292144,-0.0661 -0.121268,-0.0675 -0.201194,-0.20533 z m 0.862652,-0.53881 q 0,-0.27975 -0.115755,-0.43822 -0.114377,-0.15985 -0.315571,-0.15985 -0.201193,0 -0.316949,0.15985 -0.114377,0.15847 -0.114377,0.43822 0,0.27974 0.114377,0.43959 0.115756,0.15847 0.316949,0.15847 0.201194,0 0.315571,-0.15847 0.115755,-0.15985 0.115755,-0.43959 z"
         style="font-style:normal;font-variant:normal;font-weight:normal;font-stretch:normal;font-size:2.82222223px;font-family:sans-serif;-inkscape-font-specification:'sans-serif, Normal';font-variant-ligatures:normal;font-variant-caps:normal;font-variant-numeric:normal;font-feature-settings:normal;text-align:start;writing-mode:lr-tb;text-anchor:start;stroke-width:0.26458332"
         id="path1707"
         inkscape:connector-curvature="0" />
      <path
         d="m 16.276561,294.97975 -1.52e-4,-0.94031 0.251931,-0.0648 1.5e-4,0.9306 q 3.6e-5,0.22051 0.08495,0.30972 0.08491,0.0878 0.254686,0.0444 0.204008,-0.052 0.321737,-0.21413 0.119098,-0.16225 0.119061,-0.38971 l -1.43e-4,-0.88065 0.251931,-0.0648 2.51e-4,1.55331 -0.25193,0.0648 -3.9e-5,-0.23855 q -0.09172,0.16493 -0.213559,0.26548 -0.120476,0.0987 -0.280672,0.13983 -0.264253,0.0678 -0.401197,-0.0637 -0.136946,-0.13139 -0.136998,-0.45174 z"
         style="font-style:normal;font-variant:normal;font-weight:normal;font-stretch:normal;font-size:2.82222223px;font-family:sans-serif;-inkscape-font-specification:'sans-serif, Normal';font-variant-ligatures:normal;font-variant-caps:normal;font-variant-numeric:normal;font-feature-settings:normal;text-align:start;writing-mode:lr-tb;text-anchor:start;stroke-width:0.26458332"
         id="path1709"
         inkscape:connector-curvature="0" />
      <path
         d="m 18.344702,293.59556 v 0.43822 h 0.522277 v 0.19706 h -0.522277 v 0.83784 q 0,0.18879 0.05099,0.24254 0.05237,0.0537 0.21084,0.0537 h 0.260449 v 0.21222 H 18.60653 q -0.293522,0 -0.405144,-0.10887 -0.111621,-0.11024 -0.111621,-0.39963 V 294.2308 H 17.90373 v -0.19706 h 0.186035 v -0.43822 z"
         style="font-style:normal;font-variant:normal;font-weight:normal;font-stretch:normal;font-size:2.82222223px;font-family:sans-serif;-inkscape-font-specification:'sans-serif, Normal';font-variant-ligatures:normal;font-variant-caps:normal;font-variant-numeric:normal;font-feature-settings:normal;text-align:start;writing-mode:lr-tb;text-anchor:start;stroke-width:0.26458332"
         id="path1711"
         inkscape:connector-curvature="0" />
      <path
         d="m 20.508346,294.20141 2.1e-5,0.12482 -1.158332,0.29657 q 0.01648,0.25929 0.156153,0.36223 0.141049,0.1012 0.391609,0.037 0.145134,-0.0376 0.280676,-0.10793 0.136913,-0.0711 0.271081,-0.17758 l 4e-5,0.24133 q -0.135541,0.093 -0.277931,0.15998 -0.14239,0.0669 -0.288893,0.10441 -0.366941,0.094 -0.581938,-0.0673 -0.213628,-0.16169 -0.213688,-0.53061 -6.1e-5,-0.38138 0.202543,-0.65655 0.203972,-0.2769 0.549007,-0.36523 0.309435,-0.0789 0.488832,0.0774 0.180765,0.15485 0.18082,0.50156 z m -0.251942,-0.0103 q -0.0028,-0.2087 -0.116435,-0.30445 -0.112293,-0.0961 -0.298502,-0.0484 -0.210854,0.0537 -0.338169,0.20723 -0.125945,0.15291 -0.145079,0.37694 z"
         style="font-style:normal;font-variant:normal;font-weight:normal;font-stretch:normal;font-size:2.82222223px;font-family:sans-serif;-inkscape-font-specification:'sans-serif, Normal';font-variant-ligatures:normal;font-variant-caps:normal;font-variant-numeric:normal;font-feature-settings:normal;text-align:start;writing-mode:lr-tb;text-anchor:start;stroke-width:0.26458332"
         id="path1713"
         inkscape:connector-curvature="0" />
      <path
         d="m 21.832517,294.2708 q -0.04272,-0.0248 -0.09371,-0.0358 -0.04961,-0.0124 -0.110243,-0.0124 -0.214974,0 -0.330729,0.14056 -0.114377,0.13918 -0.114377,0.40101 v 0.81304 h -0.254937 v -1.5434 h 0.254937 v 0.23977 q 0.07993,-0.14056 0.208084,-0.20808 0.128157,-0.0689 0.311436,-0.0689 0.02618,0 0.05788,0.004 0.03169,0.003 0.07028,0.01 z"
         style="font-style:normal;font-variant:normal;font-weight:normal;font-stretch:normal;font-size:2.82222223px;font-family:sans-serif;-inkscape-font-specification:'sans-serif, Normal';font-variant-ligatures:normal;font-variant-caps:normal;font-variant-numeric:normal;font-feature-settings:normal;text-align:start;writing-mode:lr-tb;text-anchor:start;stroke-width:0.26458332"
         id="path1715"
         inkscape:connector-curvature="0" />
      <path
         d="m 23.185447,294.16269 -0.03488,0.23723 q -0.09833,-0.0702 -0.208837,-0.11429 -0.110508,-0.0442 -0.233212,-0.0622 -0.186783,-0.0275 -0.289279,0.016 -0.101136,0.0437 -0.117973,0.15816 -0.01283,0.0873 0.04655,0.14753 0.05959,0.0589 0.254751,0.13358 l 0.08309,0.0317 q 0.258799,0.0966 0.355164,0.21797 0.09793,0.12025 0.07046,0.30705 -0.03127,0.21268 -0.218575,0.31189 -0.185938,0.0994 -0.480428,0.0561 -0.122703,-0.018 -0.252707,-0.0622 -0.128844,-0.0426 -0.269062,-0.11204 l 0.03809,-0.25904 q 0.128445,0.0927 0.258001,0.14937 0.129765,0.0553 0.262013,0.0747 0.17724,0.0261 0.281492,-0.0199 0.104454,-0.0473 0.120693,-0.15775 0.01504,-0.10226 -0.04648,-0.16702 -0.06015,-0.0645 -0.285871,-0.14928 l -0.08424,-0.0333 q -0.225922,-0.0833 -0.314703,-0.19949 -0.08858,-0.11748 -0.06252,-0.29473 0.03167,-0.21541 0.201614,-0.31021 0.169938,-0.0948 0.450794,-0.0535 0.139065,0.0204 0.258757,0.059 0.119693,0.0385 0.217301,0.0946 z"
         style="font-style:normal;font-variant:normal;font-weight:normal;font-stretch:normal;font-size:2.82222223px;font-family:sans-serif;-inkscape-font-specification:'sans-serif, Normal';font-variant-ligatures:normal;font-variant-caps:normal;font-variant-numeric:normal;font-feature-settings:normal;text-align:start;writing-mode:lr-tb;text-anchor:start;stroke-width:0.26458332"
         id="path1717"
         inkscape:connector-curvature="0" />
      <path
         d="m 24.625486,294.11334 0.01957,0.23621 q -0.112017,-0.0502 -0.222897,-0.07 -0.109622,-0.0213 -0.219489,-0.0122 -0.245825,0.0204 -0.368812,0.1882 -0.1231,0.16645 -0.09977,0.44799 0.02333,0.28152 0.172262,0.42682 0.14882,0.14392 0.394645,0.12355 0.109866,-0.009 0.2146,-0.0468 0.105991,-0.0392 0.208213,-0.10716 l 0.01935,0.23346 q -0.101649,0.0582 -0.213589,0.0923 -0.110565,0.0341 -0.238284,0.0446 -0.347453,0.0288 -0.570174,-0.17261 -0.22272,-0.20139 -0.253446,-0.57219 -0.03118,-0.3763 0.15695,-0.60898 0.189507,-0.2328 0.549319,-0.26262 0.116733,-0.01 0.230021,0.006 0.113173,0.0141 0.221534,0.0536 z"
         style="font-style:normal;font-variant:normal;font-weight:normal;font-stretch:normal;font-size:2.82222223px;font-family:sans-serif;-inkscape-font-specification:'sans-serif, Normal';font-variant-ligatures:normal;font-variant-caps:normal;font-variant-numeric:normal;font-feature-settings:normal;text-align:start;writing-mode:lr-tb;text-anchor:start;stroke-width:0.26458332"
         id="path1719"
         inkscape:connector-curvature="0" />
      <path
         d="m 25.825218,294.72466 q -0.306252,0.0254 -0.418554,0.10522 -0.112301,0.0799 -0.0983,0.24875 0.01115,0.13459 0.105643,0.20696 0.09575,0.0708 0.248188,0.0582 0.21012,-0.0174 0.324177,-0.1762 0.115315,-0.16028 0.09483,-0.40748 l -0.0047,-0.0563 z m 0.495364,-0.14614 0.07272,0.87756 -0.252693,0.0209 -0.01935,-0.23347 q -0.07492,0.14725 -0.198429,0.22525 -0.123634,0.0766 -0.310407,0.0921 -0.236213,0.0196 -0.387217,-0.10066 -0.149746,-0.12172 -0.168181,-0.3442 -0.02151,-0.25956 0.140606,-0.40573 0.163489,-0.14629 0.508194,-0.17486 l 0.35432,-0.0294 -0.002,-0.0247 q -0.01445,-0.17442 -0.137665,-0.25961 -0.121955,-0.0867 -0.329328,-0.0695 -0.13184,0.0109 -0.254195,0.0529 -0.122356,0.0419 -0.23248,0.11469 l -0.01935,-0.23346 q 0.134272,-0.065 0.262575,-0.10193 0.128187,-0.0383 0.251787,-0.0486 0.33372,-0.0277 0.512858,0.13173 0.179138,0.15938 0.208272,0.51095 z"
         style="font-style:normal;font-variant:normal;font-weight:normal;font-stretch:normal;font-size:2.82222223px;font-family:sans-serif;-inkscape-font-specification:'sans-serif, Normal';font-variant-ligatures:normal;font-variant-caps:normal;font-variant-numeric:normal;font-feature-settings:normal;text-align:start;writing-mode:lr-tb;text-anchor:start;stroke-width:0.26458332"
         id="path1721"
         inkscape:connector-curvature="0" />
      <path
         d="m 27.750508,294.18919 q -0.04276,-0.0264 -0.09377,-0.0382 -0.04963,-0.0133 -0.110268,-0.0134 -0.214982,-3.4e-4 -0.330517,0.14893 -0.114161,0.1478 -0.113742,0.42619 l 0.0013,0.86448 -0.254947,-4.1e-4 -0.0025,-1.64104 0.254948,4.1e-4 3.83e-4,0.25494 q 0.07971,-0.14933 0.20776,-0.22092 0.128053,-0.0731 0.311339,-0.0728 0.02618,4e-5 0.05789,0.004 0.03171,0.003 0.0703,0.0107 z"
         style="font-style:normal;font-variant:normal;font-weight:normal;font-stretch:normal;font-size:2.82222223px;font-family:sans-serif;-inkscape-font-specification:'sans-serif, Normal';font-variant-ligatures:normal;font-variant-caps:normal;font-variant-numeric:normal;font-feature-settings:normal;text-align:start;writing-mode:lr-tb;text-anchor:start;stroke-width:0.27282965"
         id="path1723"
         inkscape:connector-curvature="0" />
      <path
         d="m 29.28357,294.74209 v 0.12402 l -1.097191,0.0975 c 0.01103,0.17455 -0.0052,0.21024 0.08847,0.30211 0.09463,0.091 0.225998,0.13643 0.394119,0.13643 0.09738,0 0.191547,-0.0119 0.282498,-0.0358 0.09187,-0.0239 0.32229,-0.10457 0.412322,-0.15237 v 0.23978 c -0.09095,0.0386 -0.323669,0.11288 -0.419213,0.13308 -0.09554,0.0202 -0.192466,0.0303 -0.290766,0.0303 -0.246209,0 -0.441431,-0.0717 -0.585666,-0.21497 -0.143316,-0.14332 -0.214974,-0.33716 -0.214974,-0.58153 0,-0.25264 0.06798,-0.45292 0.20395,-0.60083 0.136885,-0.14883 0.321082,-0.22324 0.552593,-0.22324 0.207625,0 0.371611,0.0671 0.49196,0.20119 0.121267,0.13321 0.181901,0.31466 0.181901,0.54433 z m -0.253559,-0.0744 c -0.0019,-0.13872 -0.04091,-0.24942 -0.117134,-0.3321 -0.07533,-0.0827 -0.17547,-0.12403 -0.300412,-0.12403 -0.141479,0 -0.254937,0.04 -0.340375,0.11989 -0.08452,0.0799 -0.02032,0.17825 -0.03319,0.3234 z"
         style="font-style:normal;font-variant:normal;font-weight:normal;font-stretch:normal;font-size:2.82222223px;font-family:sans-serif;-inkscape-font-specification:'sans-serif, Normal';font-variant-ligatures:normal;font-variant-caps:normal;font-variant-numeric:normal;font-feature-settings:normal;text-align:start;writing-mode:lr-tb;text-anchor:start;stroke-width:0.26458332"
         id="path1725"
         inkscape:connector-curvature="0"
         sodipodi:nodetypes="ccccscccsscscscccccsccc" />
    </g>
    <g
       aria-label="in"
       transform="matrix(1.1587322,-0.11250462,0.21089172,1.875217,-66.196614,-253.71278)"
       style="font-style:normal;font-weight:normal;font-size:10.58333302px;line-height:1.25;font-family:sans-serif;letter-spacing:0px;word-spacing:0px;fill:#200000;fill-opacity:1;stroke:none;stroke-width:0.26458332"
       id="text1659">
      <path
         d="m 20.830404,287.69433 0.338042,0.075 -0.03879,1.43613 -0.299249,0.0322 z m 0,-0.60082 0.66381,0.023 0.264762,0.32529 -0.928573,-0.0272 z"
         style="font-style:normal;font-variant:normal;font-weight:normal;font-stretch:normal;font-size:2.82222223px;font-family:sans-serif;-inkscape-font-specification:'sans-serif, Normal';font-variant-ligatures:normal;font-variant-caps:normal;font-variant-numeric:normal;font-feature-settings:normal;text-align:start;writing-mode:lr-tb;text-anchor:start;fill:#200000;fill-opacity:1;stroke-width:0.26458332"
         id="path1689"
         inkscape:connector-curvature="0"
         sodipodi:nodetypes="cccccccccc" />
      <path
         d="m 23.347906,288.14324 -0.01308,0.76084 -0.310745,-0.006 0.01297,-0.75408 c 0.0021,-0.1193 -0.0313,-0.20928 -0.100104,-0.26995 -0.06879,-0.0607 -0.172985,-0.0924 -0.312594,-0.0952 -0.167757,-0.003 -0.300662,0.0297 -0.398714,0.099 -0.09805,0.0693 -0.148137,0.16555 -0.150252,0.2886 l -0.01225,0.71243 -0.312434,-0.006 -0.03494,-1.20564 0.369044,-0.0489 -0.0034,0.19584 c 0.07561,-0.0743 0.163841,-0.12921 0.264691,-0.16472 0.101975,-0.0355 0.218827,-0.0519 0.350556,-0.0493 0.217297,0.005 0.380902,0.053 0.490816,0.1449 0.109928,0.0915 0.163395,0.22431 0.160402,0.39838 z"
         style="font-style:normal;font-variant:normal;font-weight:normal;font-stretch:normal;font-size:2.82222223px;font-family:sans-serif;-inkscape-font-specification:'sans-serif, Normal';font-variant-ligatures:normal;font-variant-caps:normal;font-variant-numeric:normal;font-feature-settings:normal;text-align:start;writing-mode:lr-tb;text-anchor:start;fill:#200000;fill-opacity:1;stroke-width:0.2647517"
         id="path1691"
         inkscape:connector-curvature="0"
         sodipodi:nodetypes="cccccccccccccccccc" />
    </g>
    <g
       aria-label="debug"
       transform="matrix(0.87695926,-0.04700004,0.05928781,1.6376321,0.72575314,-127.94726)"
       style="font-style:normal;font-weight:normal;font-size:10.74719143px;line-height:1.25;font-family:sans-serif;letter-spacing:0px;word-spacing:0px;fill:#000000;fill-opacity:1;stroke:none;stroke-width:0.26867977"
       id="text1667">
      <path
         d="m -11.909757,199.46304 0.328421,-1.48067 0.730711,0.007 -0.369724,4.27667 -0.504869,-6.3e-4 c 0.0083,-0.14551 -0.484924,0.0531 0.0303,-0.44022 -0.118127,0.17456 -0.26154,0.30454 -0.430238,0.38993 -0.166748,0.0837 -0.363535,0.12534 -0.590361,0.12505 -0.371335,-4.5e-4 -0.664328,-0.14233 -0.878979,-0.42562 -0.212823,-0.28328 -0.303354,-0.65551 -0.271591,-1.11669 0.03177,-0.46118 0.33502,-0.99006 0.586815,-1.27277 0.253634,-0.28271 0.404657,-0.2669 0.775992,-0.26644 0.226826,2.8e-4 0.222764,0.13868 0.377841,0.2245 0.157027,0.084 0.121626,-0.19504 0.215689,-0.0202 z m -1.435003,1.33557 c -0.02446,0.35463 0.03226,0.63335 0.17017,0.83617 0.139821,0.20109 0.343265,0.3018 0.610333,0.30213 0.267069,3.3e-4 0.48435,-0.0999 0.651842,-0.30056 0.167613,-0.20245 0.263631,-0.48099 0.288055,-0.8356 0.02446,-0.35462 -0.233705,-0.45646 -0.373559,-0.65755 -0.139699,-0.20283 -0.207512,-0.0784 -0.474581,-0.0787 -0.267069,-3.3e-4 -0.430419,-0.14007 -0.598032,0.0624 -0.165662,0.2007 -0.249803,0.31711 -0.274228,0.67173 z"
         style="font-style:normal;font-variant:normal;font-weight:normal;font-stretch:normal;font-size:5.01535606px;font-family:sans-serif;-inkscape-font-specification:'sans-serif, Normal';font-variant-ligatures:normal;font-variant-caps:normal;font-variant-numeric:normal;font-feature-settings:normal;text-align:start;writing-mode:lr-tb;text-anchor:start;stroke-width:0.29419962"
         id="path1671"
         inkscape:connector-curvature="0"
         sodipodi:nodetypes="cccccccccccccccccccccsccc" />
      <path
         d="m -8.1057085,200.78544 v 0.2204 h -2.0717725 c 0.01959,0.31019 0.112652,0.54692 0.2791746,0.71018 0.1681581,0.16163 0.41661,0.0207 0.7153763,0.0207 0.1730559,0 0.5285984,-0.0158 0.6902261,-0.0583 0.1632603,-0.0425 0.1216975,0.11018 0.2816926,0.0253 v 0.42611 c -0.1616277,0.0686 -0.3273368,0.12081 -0.4971275,0.15673 -0.1697907,0.0359 -0.3420304,0.0539 -0.5167189,0.0539 -0.4375375,0 -0.7844652,-0.12734 -1.0407842,-0.38202 -0.254686,-0.25469 -0.382029,-0.59917 -0.382029,-1.03344 0,-0.44897 0.05643,-0.96829 0.298059,-1.23113 0.243258,-0.26449 0.6041467,-0.33518 1.0155627,-0.33518 0.3689682,0 0.6912145,0.22104 0.9050855,0.4594 0.2155035,0.23673 0.3232553,0.55917 0.3232553,0.96732 z m -0.4505984,-0.13224 c -0.00327,-0.24652 -0.072652,-0.44325 -0.2081568,-0.59019 -0.1338735,-0.14693 -0.3118272,-0.2204 -0.5338612,-0.2204 -0.2514209,0 -0.2716601,0.1772 -0.6048794,0.21306 -0.1501987,0.14203 -0.082078,0.28588 -0.1049347,0.54383 z"
         style="font-style:normal;font-variant:normal;font-weight:normal;font-stretch:normal;font-size:5.01535606px;font-family:sans-serif;-inkscape-font-specification:'sans-serif, Normal';font-variant-ligatures:normal;font-variant-caps:normal;font-variant-numeric:normal;font-feature-settings:normal;text-align:start;writing-mode:lr-tb;text-anchor:start;stroke-width:0.26867977"
         id="path1673"
         inkscape:connector-curvature="0"
         sodipodi:nodetypes="ccccsccccscscscccccsccc" />
      <path
         d="m -5.6043964,200.58039 c 0.00511,-0.27418 -0.068546,-0.49166 -0.2209738,-0.65245 -0.1505543,-0.1621 -0.3608165,-0.24792 -0.6307868,-0.25745 -0.2699891,-0.009 -0.2537715,0.0421 -0.4120096,0.19321 -0.1563724,0.14988 -0.2371145,0.3619 -0.242228,0.63607 -0.00511,0.27417 0.067608,0.49229 0.2181624,0.65438 0.152429,0.1608 0.363629,0.24597 0.6335994,0.2555 0.2699891,0.009 0.2528324,-0.0415 0.4091961,-0.19124 0.1582468,-0.15118 0.2399268,-0.36385 0.2450403,-0.63802 z m -1.491226,-0.87272 c 0.1097672,-0.13127 0.2466159,-0.22645 0.4105469,-0.28553 0.1658112,-0.0604 0.362427,-0.0865 0.5898642,-0.0785 0.9083532,0.35639 0.036175,0.0254 0.9119631,0.36063 -0.3897581,0.0959 0.3455835,0.519 0.338935,0.87555 -0.00665,0.35655 -0.1303583,0.64004 -0.3711241,0.85047 -0.238917,0.21049 -0.5469851,0.30908 -0.924204,0.29576 -0.2274262,-0.008 -0.4228393,-0.0474 -0.5862035,-0.11801 -0.1614894,-0.0719 -0.2945962,-0.17731 -0.3993256,-0.31616 l -0.00635,0.34036 -0.6386716,0.0556 0.1842986,-3.22559 0.5131417,0.0179 z"
         style="font-style:normal;font-variant:normal;font-weight:normal;font-stretch:normal;font-size:5.01535606px;font-family:sans-serif;-inkscape-font-specification:'sans-serif, Normal';font-variant-ligatures:normal;font-variant-caps:normal;font-variant-numeric:normal;font-feature-settings:normal;text-align:start;writing-mode:lr-tb;text-anchor:start;stroke-width:0.26015803"
         id="path1675"
         inkscape:connector-curvature="0"
         sodipodi:nodetypes="scccscccscccccccccccccc" />
      <path
         d="m -4.3868142,200.03445 0.5742718,-1.69609 0.6248429,-0.0275 -0.7848074,1.79337 c -0.089784,0.26517 -0.1113954,0.47426 -0.064846,0.62732 0.047175,0.15124 0.3788344,0.13194 0.5623481,0.17109 0.220595,0.0468 0.2046439,0.11985 0.3855086,-0.0114 0.1823702,-0.13092 0.3650247,-0.46852 0.4576392,-0.74205 l 0.4926639,-1.45312 0.6248031,-0.0274 -1.1651151,2.91658 -0.4083368,-0.0873 0.1456847,-0.43027 c -0.1567195,0.14891 -0.3150268,0.25097 -0.4749389,0.30622 -0.1579292,0.054 -0.3234788,0.0626 -0.4964538,0.0253 -0.2856052,-0.0609 -0.4685089,-0.20724 -0.5485817,-0.43924 -0.080185,-0.23176 -0.055053,-0.54028 0.075386,-0.92554 z"
         style="font-style:normal;font-variant:normal;font-weight:normal;font-stretch:normal;font-size:5.01535606px;font-family:sans-serif;-inkscape-font-specification:'sans-serif, Normal';font-variant-ligatures:normal;font-variant-caps:normal;font-variant-numeric:normal;font-feature-settings:normal;text-align:start;writing-mode:lr-tb;text-anchor:start;stroke-width:0.26770094"
         id="path1677"
         inkscape:connector-curvature="0"
         sodipodi:nodetypes="cccccccccccccccccc" />
      <path
         d="m 1.0169714,200.13205 c 0.056751,-0.34063 0.2810694,-0.60434 0.1480886,-0.82731 -0.1310016,-0.22255 -0.3438816,-0.36578 -0.63863467,-0.42977 -0.29274065,-0.0637 -0.53679424,-0.02 -0.73226804,0.13223 -0.19342717,0.15214 -0.51573799,-0.0313 -0.57248847,0.30934 -0.0564658,0.33891 0.17802723,1.0494 0.30903,1.27194 0.13298014,0.22296 0.34585666,0.36624 0.63863003,0.42979 0.29471741,0.0641 0.5388056,0.0201 0.73227016,-0.13223 0.19540289,-0.15169 0.0589067,-0.41508 0.11537239,-0.75399 z m 0.6237025,1.24525 c -0.081152,0.48709 -0.2670645,0.82171 -0.5577358,1.00389 -0.29095744,0.1839 -0.69558393,0.21961 -1.21387823,0.10709 -0.1919479,-0.0413 -1.05380917,-0.0321 -1.21961417,-0.095 -0.1661487,-0.0607 -3.7530647,-0.19203 -3.0671636,-0.39531 l 1.039839,-0.20745 c 0.1477474,0.10977 2.6064637,0.0637 2.756783,0.13341 0.15032038,0.0696 0.0441509,0.1041 0.20637642,0.1392 0.35813072,0.0774 0.63965677,0.0547 0.84459073,-0.0683 0.20471291,-0.1215 0.33416337,-0.3448 0.38835907,-0.67008 l 0.30117048,-0.21442 c -0.14084807,0.14409 -0.30625434,0.23879 -0.49621888,0.28403 -0.18996065,0.0452 -0.40758738,0.0411 -0.65284226,-0.0128 -0.40754193,-0.0882 -0.71364321,-0.2933 -0.91832791,-0.61489 -0.20470715,-0.32147 -0.27031525,-0.70275 -0.19682535,-1.14384 0.073773,-0.44279 0.25756117,-0.77083 0.55136482,-0.98411 0.29380546,-0.21329 0.64446305,-0.2757 1.05197434,-0.18726 0.24531879,0.0531 0.44904479,0.14062 0.61117904,0.26239 0.1621593,0.12167 0.2855723,0.27902 0.3702384,0.4721 l 0.072353,-0.43427 0.5461283,0.11776 z"
         style="font-style:normal;font-variant:normal;font-weight:normal;font-stretch:normal;font-size:5.01535606px;font-family:sans-serif;-inkscape-font-specification:'sans-serif, Normal';font-variant-ligatures:normal;font-variant-caps:normal;font-variant-numeric:normal;font-feature-settings:normal;text-align:start;writing-mode:lr-tb;text-anchor:start;stroke-width:0.30748096"
         id="path1679"
         inkscape:connector-curvature="0"
         sodipodi:nodetypes="scccscccsccccccccccccccsccccccc" />
    </g>
    <g
       id="g9547"
       transform="matrix(0.26458333,0,0,0.26458333,-2.3613788,290.57444)">
      <g
         style="display:inline"
         inkscape:label="Layer 1"
         id="layer4" />
      <path
         id="rect5872"
         d="m 11.987289,9.3234482 h 7.991524 v 3.9957608 h -7.991524 z"
         style="opacity:1;fill:#0f0f00;fill-opacity:1;stroke:#000000;stroke-width:0;stroke-miterlimit:4;stroke-dasharray:none;stroke-opacity:1"
         inkscape:connector-curvature="0" />
      <path
         id="rect5874"
         d="m 14.667374,10.662096 h 3.995763 v 1.331921 h -3.995763 z"
         style="opacity:1;fill:#ffffff;fill-opacity:0.98571424;stroke:#000000;stroke-width:0;stroke-miterlimit:4;stroke-dasharray:none;stroke-opacity:1"
         inkscape:connector-curvature="0" />
      <path
         id="rect5878"
         d="m -29.323654,9.3234482 h 7.989551 v 3.9957608 h -7.989551 z"
         style="opacity:1;fill:#0c0c00;fill-opacity:1;stroke:#000000;stroke-width:0;stroke-miterlimit:4;stroke-dasharray:none;stroke-opacity:1"
         transform="scale(-1,1)"
         inkscape:connector-curvature="0" />
      <path
         id="rect5880"
         d="m -26.64423,10.662096 h 3.994777 v 1.331921 h -3.994777 z"
         style="opacity:1;fill:#ffffff;fill-opacity:0.98571424;stroke:#000000;stroke-width:0;stroke-miterlimit:4;stroke-dasharray:none;stroke-opacity:1"
         transform="scale(-1,1)"
         inkscape:connector-curvature="0" />
      <path
         id="rect5882"
         d="m 19.995058,14.667374 h 1.331921 v 3.995762 h -1.331921 z"
         style="opacity:1;fill:#000000;fill-opacity:1;stroke:#000000;stroke-width:0;stroke-miterlimit:4;stroke-dasharray:none;stroke-opacity:1"
         inkscape:connector-curvature="0" />
      <path
         id="rect5884"
         d="m 21.326979,17.331215 h 1.315677 v 1.33192 h -1.315677 z"
         style="opacity:1;fill:#000000;fill-opacity:1;stroke:#000000;stroke-width:0;stroke-miterlimit:4;stroke-dasharray:none;stroke-opacity:1"
         inkscape:connector-curvature="0" />
      <path
         id="rect5886"
         d="m 11.954803,20.011301 h 2.696328 v 2.663842 h -2.696328 z"
         style="opacity:1;fill:#000200;fill-opacity:1;stroke:#000000;stroke-width:0;stroke-miterlimit:4;stroke-dasharray:none;stroke-opacity:1"
         inkscape:connector-curvature="0" />
      <path
         id="rect5888"
         d="m 27.970341,20.011301 h 2.696327 v 2.663842 h -2.696327 z"
         style="opacity:1;fill:#000200;fill-opacity:1;stroke:#000000;stroke-width:0;stroke-miterlimit:4;stroke-dasharray:none;stroke-opacity:1"
         inkscape:connector-curvature="0" />
      <path
         id="rect5890"
         d="m 14.651131,20.011301 h 13.351695 v 1.33192 H 14.651131 Z"
         style="opacity:1;fill:#000200;fill-opacity:1;stroke:#000000;stroke-width:0;stroke-miterlimit:4;stroke-dasharray:none;stroke-opacity:1"
         inkscape:connector-curvature="0" />
    </g>
    <g
       aria-label="single internal poly"
       style="font-style:normal;font-variant:normal;font-weight:normal;font-stretch:normal;font-size:10.58333302px;line-height:1.25;font-family:sans-serif;-inkscape-font-specification:'sans-serif, Normal';font-variant-ligatures:normal;font-variant-caps:normal;font-variant-numeric:normal;font-feature-settings:normal;text-align:center;letter-spacing:0px;word-spacing:0px;writing-mode:lr-tb;text-anchor:middle;fill:#000000;fill-opacity:1;stroke:none;stroke-width:0.26458332"
       id="text2992"
       transform="matrix(0.40498722,0,0,0.22005185,8.184542,217.4858)">
      <path
         d="m -4.2176575,248.74686 0.1188366,1.03918 q -0.5707857,-0.23889 -1.1697178,-0.35834 -0.5989309,-0.11944 -1.2260083,-0.11944 -0.954551,0 -1.4066261,0.25083 -0.4451079,0.25083 -0.3877385,0.75251 0.043709,0.38222 0.4103886,0.6032 0.3659952,0.21499 1.4197259,0.41207 l 0.4485253,0.0837 q 1.3943193,0.25083 2.0182453,0.7107 0.6302097,0.45388 0.723776,1.27208 0.1065419,0.93167 -0.6952802,1.47516 -0.7948571,0.54346 -2.2998428,0.54346 -0.6270772,0 -1.3221841,-0.10746 -0.6874694,-0.10161 -1.4638569,-0.31056 l -0.1297642,-1.13473 q 0.7468858,0.31653 1.4551112,0.47779 0.7075414,0.15527 1.3833914,0.15527 0.9057785,0 1.3634557,-0.26277 0.4569919,-0.26877 0.401672,-0.75252 -0.051222,-0.44791 -0.4338831,-0.68679 -0.375695,-0.23889 -1.5924123,-0.45987 l -0.4561628,-0.0896 q -1.216032,-0.21498 -1.7961048,-0.65694 -0.5807527,-0.44791 -0.6695384,-1.2243 -0.1079093,-0.94362 0.613719,-1.45724 0.7216281,-0.51361 2.1569384,-0.51361 0.7106877,0 1.3480062,0.0896 0.6373183,0.0896 1.1873416,0.26874 z"
         style="font-style:normal;font-variant:normal;font-weight:normal;font-stretch:normal;font-size:10.58333302px;font-family:sans-serif;-inkscape-font-specification:'sans-serif, Normal';font-variant-ligatures:normal;font-variant-caps:normal;font-variant-numeric:normal;font-feature-settings:normal;text-align:center;writing-mode:lr-tb;text-anchor:middle;stroke-width:0.33027679"
         id="path2998"
         inkscape:connector-curvature="0" />
      <path
         d="m -1.7736899,248.54979 h 1.28202479 l 0.76491904,6.68891 H -1.0087708 Z m -0.2977722,-2.6039 h 1.28202481 l 0.15912976,1.39153 H -1.9123323 Z"
         style="font-style:normal;font-variant:normal;font-weight:normal;font-stretch:normal;font-size:10.58333302px;font-family:sans-serif;-inkscape-font-specification:'sans-serif, Normal';font-variant-ligatures:normal;font-variant-caps:normal;font-variant-numeric:normal;font-feature-settings:normal;text-align:center;writing-mode:lr-tb;text-anchor:middle;stroke-width:0.33027679"
         id="path3000"
         inkscape:connector-curvature="0" />
      <path
         d="m 6.5677513,251.30796 0.4500064,3.93512 H 5.903708 l -0.4460116,-3.90019 q -0.1058448,-0.92557 -0.5338205,-1.38544 -0.4279752,-0.45987 -1.1787479,-0.45987 -0.902138,0 -1.3595955,0.553 -0.4574562,0.55302 -0.3482837,1.50769 l 0.4213816,3.68481 H 1.338526 L 0.59295422,248.72335 H 1.7130586 l 0.1158295,1.01289 q 0.3323704,-0.58794 0.8379473,-0.87899 0.5116302,-0.29107 1.2200204,-0.29107 1.1685413,0 1.8478316,0.69854 0.6786242,0.69273 0.8330639,2.04324 z"
         style="font-style:normal;font-variant:normal;font-weight:normal;font-stretch:normal;font-size:10.58333302px;font-family:sans-serif;-inkscape-font-specification:'sans-serif, Normal';font-variant-ligatures:normal;font-variant-caps:normal;font-variant-numeric:normal;font-feature-settings:normal;text-align:center;writing-mode:lr-tb;text-anchor:middle;stroke-width:0.30396181"
         id="path3002"
         inkscape:connector-curvature="0" />
      <path
         d="m 12.287694,250.02332 q 0,-1.27675 -0.428914,-1.97896 -0.423747,-0.70222 -1.193726,-0.70222 -0.7648111,0 -1.1937255,0.70222 -0.4237467,0.70221 -0.4237467,1.97896 0,1.27037 0.4237467,1.97258 0.4289144,0.70222 1.1937255,0.70222 0.769979,0 1.193726,-0.70222 0.428914,-0.70221 0.428914,-1.97258 z m 0.950847,2.77056 q 0,1.82575 -0.656291,2.7131 -0.656291,0.89373 -2.010213,0.89373 -0.501262,0 -0.9456792,-0.0957 -0.4444173,-0.0893 -0.8629964,-0.28089 v -1.14268 q 0.4185791,0.28088 0.8268229,0.41493 0.4082438,0.13406 0.8319907,0.13406 0.935343,0 1.400432,-0.60645 0.465087,-0.60007 0.465087,-1.81937 v -0.58093 q -0.294555,0.632 -0.754476,0.94481 -0.45992,0.3128 -1.100708,0.3128 -1.0645343,0 -1.7156574,-1.00225 -0.651123,-1.00226 -0.651123,-2.65565 0,-1.65978 0.651123,-2.66203 0.6511231,-1.00226 1.7156574,-1.00226 0.640788,0 1.100708,0.31282 0.459921,0.31279 0.754476,0.94479 v -1.08524 h 0.950847 z"
         style="font-style:normal;font-variant:normal;font-weight:normal;font-stretch:normal;font-size:10.58333302px;font-family:sans-serif;-inkscape-font-specification:'sans-serif, Normal';font-variant-ligatures:normal;font-variant-caps:normal;font-variant-numeric:normal;font-feature-settings:normal;text-align:center;writing-mode:lr-tb;text-anchor:middle;stroke-width:0.29407266"
         id="path3004"
         inkscape:connector-curvature="0" />
      <path
         d="m 15.197078,246.15844 h 0.950846 v 8.04085 h -0.950846 z"
         style="font-style:normal;font-variant:normal;font-weight:normal;font-stretch:normal;font-size:10.58333302px;font-family:sans-serif;-inkscape-font-specification:'sans-serif, Normal';font-variant-ligatures:normal;font-variant-caps:normal;font-variant-numeric:normal;font-feature-settings:normal;text-align:center;writing-mode:lr-tb;text-anchor:middle;stroke-width:0.26458332"
         id="path3006"
         inkscape:connector-curvature="0" />
      <path
         d="m 23.082901,251.0677 v 0.46509 h -4.371826 q 0.06201,0.98185 0.589111,1.49861 0.532267,0.5116 1.477946,0.5116 0.54777,0 1.059367,-0.13436 0.516764,-0.13436 1.023193,-0.40308 v 0.89917 q -0.511597,0.21705 -1.049031,0.33073 -0.537435,0.11369 -1.090373,0.11369 -1.384928,0 -2.196248,-0.80615 -0.806153,-0.80615 -0.806153,-2.18075 0,-1.4211 0.764811,-2.25309 0.769979,-0.83716 2.072225,-0.83716 1.167888,0 1.844849,0.75448 0.682129,0.74931 0.682129,2.04122 z m -0.950847,-0.27905 q -0.01034,-0.78032 -0.439249,-1.24541 -0.423747,-0.46508 -1.126546,-0.46508 -0.795817,0 -1.276408,0.44958 -0.475423,0.44959 -0.54777,1.26607 z"
         style="font-style:normal;font-variant:normal;font-weight:normal;font-stretch:normal;font-size:10.58333302px;font-family:sans-serif;-inkscape-font-specification:'sans-serif, Normal';font-variant-ligatures:normal;font-variant-caps:normal;font-variant-numeric:normal;font-feature-settings:normal;text-align:center;writing-mode:lr-tb;text-anchor:middle;stroke-width:0.26458332"
         id="path3008"
         inkscape:connector-curvature="0" />
      <path
         d="m -9.9683874,259.87149 h 0.8741825 v 8.34106 h -0.8741825 z m 0,-3.24705 h 0.8741825 v 1.73523 h -0.8741825 z"
         style="font-style:normal;font-variant:normal;font-weight:normal;font-stretch:normal;font-size:10.58333302px;font-family:sans-serif;-inkscape-font-specification:'sans-serif, Normal';font-variant-ligatures:normal;font-variant-caps:normal;font-variant-numeric:normal;font-feature-settings:normal;text-align:center;writing-mode:lr-tb;text-anchor:middle;stroke-width:0.30455324"
         id="path3010"
         inkscape:connector-curvature="0" />
      <path
         d="m -2.5915671,263.08494 0.096361,6.66017 -0.9279355,-0.0555 -0.095506,-6.62305 c -0.00946,-0.65584 -0.1306433,-1.1523 -0.3465999,-1.49045 -0.2159567,-0.33814 -0.5323842,-0.51967 -0.9492826,-0.54459 -0.5009513,-0.03 -0.8914823,0.14221 -1.1715929,0.51662 -0.2801115,0.37435 -0.4123746,0.89957 -0.3967894,1.57568 l 0.090231,3.91436 -0.9329783,-0.0558 -0.1596513,-6.9259 0.9329786,0.0558 0.024803,1.076 c 0.2122992,-0.40313 0.4656857,-0.69881 0.7601596,-0.88705 0.2978363,-0.18803 0.6434364,-0.27029 1.0368003,-0.24678 0.6488822,0.0388 1.1454484,0.3155 1.4896986,0.8301 0.3441549,0.51048 0.5272559,1.24393 0.5493028,2.20036 z"
         style="font-style:normal;font-variant:normal;font-weight:normal;font-stretch:normal;font-size:10.58333302px;font-family:sans-serif;-inkscape-font-specification:'sans-serif, Normal';font-variant-ligatures:normal;font-variant-caps:normal;font-variant-numeric:normal;font-feature-settings:normal;text-align:center;writing-mode:lr-tb;text-anchor:middle;stroke-width:0.28572556"
         id="path3012"
         inkscape:connector-curvature="0"
         sodipodi:nodetypes="cccscccscccccccccc" />
      <path
         d="m -0.06076206,257.50324 v 2.82899 H 1.7826494 v 1.27217 h -1.84341146 v 5.40892 q 0,1.21878 0.17996368,1.56573 0.18482757,0.34696 0.74417407,0.34696 H 1.7826494 v 1.37003 H 0.86337569 q -1.03600701,0 -1.42998149,-0.70283 -0.39397444,-0.71168 -0.39397444,-2.57989 V 261.6044 H -1.6172044 v -1.27217 h 0.65662416 v -2.82899 z"
         style="font-style:normal;font-variant:normal;font-weight:normal;font-stretch:normal;font-size:10.58333302px;font-family:sans-serif;-inkscape-font-specification:'sans-serif, Normal';font-variant-ligatures:normal;font-variant-caps:normal;font-variant-numeric:normal;font-feature-settings:normal;text-align:center;writing-mode:lr-tb;text-anchor:middle;stroke-width:0.33679438"
         id="path3014"
         inkscape:connector-curvature="0" />
      <path
         d="m 7.6241723,264.90491 v 0.80066 H 3.5093278 c 0.038911,1.12685 0.2237389,1.98682 0.5544826,2.57991 0.3339865,0.58716 0.1443638,0.42985 0.7377575,0.42985 0.3437144,0 1.3293925,0.37379 1.6504088,0.21958 0.3242588,-0.15421 -0.00804,-0.8364 0.3097359,-1.1448 v 1.54793 c -0.3210163,0.2491 0.00317,0.88978 -0.3340554,1.02026 -0.3372292,0.13049 -1.332635,-0.25516 -1.6795919,-0.25516 -0.8690137,0 -0.904751,-0.0117 -1.4138373,-0.93692 -0.5058438,-0.92521 -0.7587657,-2.17662 -0.7587657,-3.75423 0,-1.63097 -0.1683689,-3.75052 0.3115341,-4.70538 0.4831457,-0.9608 1.1332847,-1.44121 1.9504169,-1.44121 0.732825,0 1.7199474,1.25959 2.1447265,2.1255 0.4280217,0.85996 0.6420325,2.0313 0.6420325,3.51401 z m -1.4666031,-0.4804 c -0.00649,-0.89555 0.1415278,-1.61022 -0.1276055,-2.14399 -0.2658923,-0.53377 -0.3335101,-0.80066 -0.7745021,-0.80066 -0.4993587,0 -1.3081388,-0.56864 -1.6096995,-0.0527 -0.2983181,0.51598 -0.061855,2.06913 -0.107251,3.00621 z"
         style="font-style:normal;font-variant:normal;font-weight:normal;font-stretch:normal;font-size:10.58333302px;font-family:sans-serif;-inkscape-font-specification:'sans-serif, Normal';font-variant-ligatures:normal;font-variant-caps:normal;font-variant-numeric:normal;font-feature-settings:normal;text-align:center;writing-mode:lr-tb;text-anchor:middle;stroke-width:0.33679438"
         id="path3016"
         inkscape:connector-curvature="0"
         sodipodi:nodetypes="scccsccccscscscsccsccc" />
      <path
         d="m 11.79589,261.15244 q -0.147279,-0.13407 -0.323066,-0.19363 -0.171036,-0.067 -0.38008,-0.067 -0.741154,0 -1.1402366,0.75962 -0.3943326,0.75218 -0.3943326,2.16721 v 4.39394 H 8.6792419 v -8.34106 h 0.8789329 v 1.29586 q 0.275557,-0.75965 0.7173992,-1.12458 0.441842,-0.37236 1.073724,-0.37236 0.09026,0 0.199541,0.0223 0.109273,0.0152 0.242301,0.0521 z"
         style="font-style:normal;font-variant:normal;font-weight:normal;font-stretch:normal;font-size:10.58333302px;font-family:sans-serif;-inkscape-font-specification:'sans-serif, Normal';font-variant-ligatures:normal;font-variant-caps:normal;font-variant-numeric:normal;font-feature-settings:normal;text-align:center;writing-mode:lr-tb;text-anchor:middle;stroke-width:0.30455324"
         id="path3018"
         inkscape:connector-curvature="0" />
      <path
         d="m 16.060048,263.17812 v 5.03443 h -0.692943 v -4.98974 q 0,-1.18413 -0.233491,-1.77248 -0.233492,-0.58834 -0.700476,-0.58834 -0.561133,0 -0.885008,0.7075 -0.323877,0.70749 -0.323877,1.92887 v 4.71419 h -0.696708 v -8.34106 h 0.696708 v 1.29586 q 0.248557,-0.75221 0.58373,-1.12458 0.33894,-0.37236 0.779561,-0.37236 0.726837,0 1.099671,0.89369 0.372833,0.88623 0.372833,2.61402 z"
         style="font-style:normal;font-variant:normal;font-weight:normal;font-stretch:normal;font-size:10.58333302px;font-family:sans-serif;-inkscape-font-specification:'sans-serif, Normal';font-variant-ligatures:normal;font-variant-caps:normal;font-variant-numeric:normal;font-feature-settings:normal;text-align:center;writing-mode:lr-tb;text-anchor:middle;stroke-width:0.27115095"
         id="path3020"
         inkscape:connector-curvature="0" />
      <path
         d="m 20.574577,264.18731 q -1.254763,0.32321 -1.759298,0.79638 -0.504534,0.47317 -0.554298,1.31368 -0.03965,0.66971 0.296994,0.97328 0.342679,0.2953 0.967246,0.13442 0.860891,-0.22175 1.422247,-1.09311 0.567389,-0.87967 0.640214,-2.1097 l 0.01659,-0.28019 z m 2.095762,-1.05127 -0.258533,4.36665 -1.03532,0.26669 0.06878,-1.16171 q -0.395754,0.78834 -0.944492,1.25942 -0.548335,0.46426 -1.313572,0.66138 -0.967799,0.24929 -1.502886,-0.2589 -0.529055,-0.51646 -0.463511,-1.62351 0.07647,-1.29153 0.824276,-2.13017 0.753436,-0.8401 2.16575,-1.2039 l 1.451699,-0.37394 0.0073,-0.12302 q 0.05139,-0.86786 -0.393348,-1.21761 -0.438699,-0.35807 -1.288337,-0.13921 -0.540167,0.13914 -1.061507,0.42823 -0.521339,0.28906 -1.012595,0.72514 l 0.06878,-1.16169 q 0.584081,-0.41291 1.126308,-0.68043 0.542633,-0.27439 1.049041,-0.40483 1.367299,-0.35221 1.991528,0.3349 0.62423,0.68711 0.520655,2.4365 z"
         style="font-style:normal;font-variant:normal;font-weight:normal;font-stretch:normal;font-size:10.58333302px;font-family:sans-serif;-inkscape-font-specification:'sans-serif, Normal';font-variant-ligatures:normal;font-variant-caps:normal;font-variant-numeric:normal;font-feature-settings:normal;text-align:center;writing-mode:lr-tb;text-anchor:middle;stroke-width:0.31505379"
         id="path3022"
         inkscape:connector-curvature="0" />
      <path
         d="m 23.407202,256.62444 h 0.874182 v 11.58811 h -0.874182 z"
         style="font-style:normal;font-variant:normal;font-weight:normal;font-stretch:normal;font-size:10.58333302px;font-family:sans-serif;-inkscape-font-specification:'sans-serif, Normal';font-variant-ligatures:normal;font-variant-caps:normal;font-variant-numeric:normal;font-feature-settings:normal;text-align:center;writing-mode:lr-tb;text-anchor:middle;stroke-width:0.30455324"
         id="path3024"
         inkscape:connector-curvature="0" />
      <path
         d="m -1.2980398,280.98004 v 3.79196 h -0.956014 v -9.86931 h 0.956014 v 1.08524 q 0.29972331,-0.63837 0.75447591,-0.94479 0.4599202,-0.3128 1.0955403,-0.3128 1.05419919,0 1.71048989,1.03416 0.6614583,1.03417 0.6614583,2.71949 0,1.68531 -0.6614583,2.71949 -0.6562907,1.03415 -1.71048989,1.03415 -0.6356201,0 -1.0955403,-0.30641 -0.4547526,-0.31281 -0.75447591,-0.95118 z m 3.2349446,-2.49605 q 0,-1.2959 -0.434082,-2.03004 -0.4289144,-0.74052 -1.18339029,-0.74052 -0.7544759,0 -1.1885579,0.74052 -0.42891441,0.73414 -0.42891441,2.03004 0,1.2959 0.42891441,2.03642 0.434082,0.73413 1.1885579,0.73413 0.75447589,0 1.18339029,-0.73413 0.434082,-0.74052 0.434082,-2.03642 z"
         style="font-style:normal;font-variant:normal;font-weight:normal;font-stretch:normal;font-size:10.58333302px;font-family:sans-serif;-inkscape-font-specification:'sans-serif, Normal';font-variant-ligatures:normal;font-variant-caps:normal;font-variant-numeric:normal;font-feature-settings:normal;text-align:center;writing-mode:lr-tb;text-anchor:middle;stroke-width:0.29407263"
         id="path3026"
         inkscape:connector-curvature="0" />
      <path
         d="m 6.7428129,275.7262 q -0.7648112,0 -1.2092285,0.74051 -0.4444173,0.73414 -0.4444173,2.01728 0,1.28314 0.4392497,2.02365 0.4444173,0.73413 1.2143961,0.73413 0.7596435,0 1.2040608,-0.74052 0.4444173,-0.74051 0.4444173,-2.01726 0,-1.27037 -0.4444173,-2.01089 -0.4444173,-0.7469 -1.2040608,-0.7469 z m 0,-0.99586 q 1.2402343,0 1.9482014,0.99586 0.7079671,0.99587 0.7079671,2.75779 0,1.75553 -0.7079671,2.75778 -0.7079671,0.99586 -1.9482014,0.99586 -1.245402,0 -1.9533691,-0.99586 -0.7027995,-1.00225 -0.7027995,-2.75778 0,-1.76192 0.7027995,-2.75779 0.7079671,-0.99586 1.9533691,-0.99586 z"
         style="font-style:normal;font-variant:normal;font-weight:normal;font-stretch:normal;font-size:10.58333302px;font-family:sans-serif;-inkscape-font-specification:'sans-serif, Normal';font-variant-ligatures:normal;font-variant-caps:normal;font-variant-numeric:normal;font-feature-settings:normal;text-align:center;writing-mode:lr-tb;text-anchor:middle;stroke-width:0.29407263"
         id="path3028"
         inkscape:connector-curvature="0" />
      <path
         d="m 10.458906,275.12337 1.50898,-0.28092 1.127661,7.93658 -1.508982,0.28091 z"
         style="font-style:normal;font-variant:normal;font-weight:normal;font-stretch:normal;font-size:10.58333302px;font-family:sans-serif;-inkscape-font-specification:'sans-serif, Normal';font-variant-ligatures:normal;font-variant-caps:normal;font-variant-numeric:normal;font-feature-settings:normal;text-align:center;writing-mode:lr-tb;text-anchor:middle;stroke-width:0.33549315"
         id="path3030"
         inkscape:connector-curvature="0" />
      <path
         d="m 20.141754,282.01178 q -0.494734,1.13921 -1.0574,1.56332 -0.562664,0.42412 -1.579585,0.61344 l -1.205545,0.22442 -0.1116,-0.7855 0.885709,-0.16488 q 0.623272,-0.11603 0.941624,-0.36377 0.31835,-0.24775 0.63949,-1.00909 l 0.209754,-0.47885 -4.513681,-4.92928 1.599191,-0.29771 3.505197,3.9338 2.23549,-5.0025 1.59919,-0.29771 z"
         style="font-style:normal;font-variant:normal;font-weight:normal;font-stretch:normal;font-size:10.58333302px;font-family:sans-serif;-inkscape-font-specification:'sans-serif, Normal';font-variant-ligatures:normal;font-variant-caps:normal;font-variant-numeric:normal;font-feature-settings:normal;text-align:center;writing-mode:lr-tb;text-anchor:middle;stroke-width:0.33549315"
         id="path3032"
         inkscape:connector-curvature="0" />
    </g>
  </g>
  <g
     inkscape:groupmode="layer"
     id="layer2"
     inkscape:label="pencil" />
</svg>
