<?xml version="1.0" encoding="UTF-8" standalone="no"?>
<svg
   xmlns:dc="http://purl.org/dc/elements/1.1/"
   xmlns:cc="http://creativecommons.org/ns#"
   xmlns:rdf="http://www.w3.org/1999/02/22-rdf-syntax-ns#"
   xmlns:svg="http://www.w3.org/2000/svg"
   xmlns="http://www.w3.org/2000/svg"
   xmlns:sodipodi="http://sodipodi.sourceforge.net/DTD/sodipodi-0.dtd"
   xmlns:inkscape="http://www.inkscape.org/namespaces/inkscape"
   id="Layer_1"
   data-name="Layer 1"
   viewBox="0 0 18 18"
   version="1.1"
   sodipodi:docname="computerscare-channels-empty-knob-auto-mode.svg"
   inkscape:version="0.92.2 5c3e80d, 2017-08-06"
   width="18"
   height="18">
  <metadata
     id="metadata1289">
    <rdf:RDF>
      <cc:Work
         rdf:about="">
        <dc:format>image/svg+xml</dc:format>
        <dc:type
           rdf:resource="http://purl.org/dc/dcmitype/StillImage" />
        <dc:title>01 Big Knob</dc:title>
      </cc:Work>
    </rdf:RDF>
  </metadata>
  <sodipodi:namedview
     pagecolor="#ffffff"
     bordercolor="#666666"
     borderopacity="1"
     objecttolerance="10"
     gridtolerance="10"
     guidetolerance="10"
     inkscape:pageopacity="0"
     inkscape:pageshadow="2"
     inkscape:window-width="1398"
     inkscape:window-height="834"
     id="namedview1287"
     showgrid="false"
     inkscape:zoom="22.378007"
     inkscape:cx="9.7209807"
     inkscape:cy="7.2234282"
     inkscape:window-x="0"
     inkscape:window-y="0"
     inkscape:window-maximized="0"
     inkscape:current-layer="Big_Knob"
     inkscape:snap-global="false" />
  <defs
     id="defs1279">
    <marker
       inkscape:stockid="Arrow1Lstart"
       orient="auto"
       refY="0.0"
       refX="0.0"
       id="marker1120"
       style="overflow:visible"
       inkscape:isstock="true">
      <path
         id="path1118"
         d="M 0.0,0.0 L 5.0,-5.0 L -12.5,0.0 L 5.0,5.0 L 0.0,0.0 z "
         style="fill-rule:evenodd;stroke:#fb2020;stroke-width:1pt;stroke-opacity:1;fill:#bfbfbf;fill-opacity:1"
         transform="scale(0.8) translate(12.5,0)" />
    </marker>
    <marker
       inkscape:stockid="Arrow1Lend"
       orient="auto"
       refY="0.0"
       refX="0.0"
       id="Arrow1Lend"
       style="overflow:visible;"
       inkscape:isstock="true">
      <path
         id="path837"
         d="M 0.0,0.0 L 5.0,-5.0 L -12.5,0.0 L 5.0,5.0 L 0.0,0.0 z "
         style="fill-rule:evenodd;stroke:#fb2020;stroke-width:1pt;stroke-opacity:1;fill:#bfbfbf;fill-opacity:1"
         transform="scale(0.8) rotate(180) translate(12.5,0)" />
    </marker>
    <marker
       inkscape:stockid="Arrow1Lstart"
       orient="auto"
       refY="0.0"
       refX="0.0"
       id="Arrow1Lstart"
       style="overflow:visible"
       inkscape:isstock="true">
      <path
         id="path834"
         d="M 0.0,0.0 L 5.0,-5.0 L -12.5,0.0 L 5.0,5.0 L 0.0,0.0 z "
         style="fill-rule:evenodd;stroke:#fb2020;stroke-width:1pt;stroke-opacity:1;fill:#bfbfbf;fill-opacity:1"
         transform="scale(0.8) translate(12.5,0)" />
    </marker>
    <style
       id="style1277">.cls-1{fill:#245559;}.cls-2{fill:none;stroke:#24c9a6;stroke-miterlimit:10;stroke-width:3px;}</style>
  </defs>
  <title
     id="title1281">01 Big Knob</title>
  <g
     id="Big_Knob"
     data-name="Big Knob"
     transform="translate(0,-42)">
    <path
       sodipodi:nodetypes="ccccccccccccccccc"
       inkscape:connector-curvature="0"
       id="path1623"
       d="m 4.5808552,43.048284 c -0.916995,0.776532 -1.6722965,1.803125 -1.9013601,3.031798 -0.5431233,2.168432 -0.4358872,4.429132 -0.5395994,6.645897 0.036253,1.148227 0.7926187,2.062573 1.410674,2.938392 0.7968887,0.857174 2.0119906,0.865255 3.0251773,1.270916 1.136957,-0.01439 2.0164644,0.595913 2.750354,0.670576 1.570628,-0.13174 1.855081,0.101175 3.049879,0.287472 1.151066,0.157815 1.854001,0.671787 2.426802,-0.144803 0.448227,-0.952378 0.917889,-1.929294 0.971381,-3.009072 0.06756,-0.932379 0.610671,-1.738462 0.626678,-2.683326 0.05254,-1.041607 0.08676,-2.098552 -0.02634,-3.134093 -0.119858,-1.021423 -0.668707,-1.886466 -0.817907,-2.88858 -0.386676,-0.862701 -0.6563,-1.904954 -1.530782,-2.37809 -0.789007,-0.637386 -1.719449,-1.034032 -2.735757,-0.896557 -1.223655,-0.191187 -2.4577279,-0.05624 -3.6867338,-0.01441 -1.0038807,0.03353 -2.0628646,0.04852 -3.0224776,0.303872 z"
       style="fill:#ffffff;stroke:#f2f2f2;stroke-width:0.48204279;stroke-linecap:butt;stroke-linejoin:miter;stroke-miterlimit:4;stroke-dasharray:none;stroke-opacity:1;fill-opacity:1" />
    <path
       style="fill:none;stroke:#d58bed;stroke-width:1.77900457;stroke-linecap:butt;stroke-linejoin:miter;stroke-miterlimit:4;stroke-dasharray:none;stroke-opacity:1"
       d="m 4.2830031,43.445647 c -0.9718619,0.770016 -1.7723556,1.787994 -2.0151248,3.006358 -0.5756203,2.150237 -0.4619679,4.391966 -0.5718856,6.59013 0.038423,1.138592 0.8400439,2.045265 1.4950794,2.913734 0.8445693,0.849982 2.1323748,0.857996 3.206184,1.260253 1.2049849,-0.01426 1.9883862,-0.327133 2.7326979,0.373567 1.19576,0.464695 2.148296,0.391708 3.414581,0.576442 1.21994,0.156491 1.901649,-0.13524 2.508723,-0.944978 0.475046,-0.944386 1.036094,-1.111715 1.092786,-2.182433 0.07161,-0.924554 0.64721,-1.723873 0.664175,-2.66081 0.05569,-1.032866 0.09195,-2.080941 -0.02791,-3.107793 -0.12703,-1.012852 -0.708719,-1.870638 -0.866846,-2.864343 -0.409811,-0.855459 -0.695568,-1.888968 -1.622373,-2.358133 -0.836216,-0.632038 -1.822331,-1.025355 -2.899447,-0.889035 -1.29687,-0.189582 -2.6047817,-0.05577 -3.9073233,-0.01428 -1.0639462,0.03324 -2.1862926,0.04812 -3.2033226,0.301321 z"
       id="path1618"
       inkscape:connector-curvature="0"
       sodipodi:nodetypes="ccccccccccccccccc" />
    <path
       style="fill:none;stroke:#000000;stroke-width:1px;stroke-linecap:butt;stroke-linejoin:miter;stroke-opacity:1"
       d="m 3.9734774,44.20859 c -0.1556976,0.138731 -0.3113952,0.277463 -0.4670929,0.416193 -0.044484,0.03964 -0.08439,0.08511 -0.1334549,0.118913 -0.050556,0.03486 -0.1212185,0.04071 -0.1631859,0.08554 -0.2757606,0.294652 -0.1081798,0.176646 -0.2110896,0.367644 -0.067028,0.124403 -0.1587667,0.236375 -0.2110895,0.367645 -0.01233,0.03095 0.032692,0.06381 0.026089,0.09645 -0.1429818,0.707321 -0.079313,0.08453 -0.1552689,0.497464 -0.021051,0.114415 -0.022201,0.23261 -0.051542,0.345187 -0.011879,0.04559 -0.067652,0.07553 -0.070361,0.122551 -0.00383,0.0665 0.034791,0.128608 0.052185,0.192912 -0.014755,0.073 -0.029516,0.146 -0.04427,0.219005"
       id="path1583"
       inkscape:connector-curvature="0" />
    <path
       style="fill:none;stroke:#000000;stroke-width:1px;stroke-linecap:butt;stroke-linejoin:miter;stroke-opacity:1"
       d="m 14.205974,44.049178 c 0.05588,0.02548 0.115676,0.04371 0.167636,0.07646 0.06299,0.03972 0.116488,0.09283 0.174731,0.139256 0.09319,0.07426 0.18638,0.148537 0.27957,0.222806 0.05825,0.04642 0.116488,0.09283 0.17473,0.139254 0.0466,0.03713 0.109195,0.06027 0.139785,0.111409 0.0034,0.0056 0.106341,0.416092 0.112463,0.432483 0.0052,0.01398 0.02976,0.01387 0.03495,0.02786 0.02606,0.06976 0.03352,0.145315 0.05624,0.216242 0.01015,0.03172 0.03366,0.05841 0.04204,0.09065 0.0106,0.04077 0.0036,0.08482 0.01419,0.125588 0.0084,0.03224 0.03366,0.05841 0.04204,0.09065 0.01061,0.04078 0.0095,0.08373 0.01419,0.125588 0.0047,0.04187 0.0095,0.08373 0.01419,0.125588"
       id="path1585"
       inkscape:connector-curvature="0" />
    <path
       style="fill:none;stroke:#000000;stroke-width:0.57568485px;stroke-linecap:butt;stroke-linejoin:miter;stroke-opacity:1;paint-order:markers fill stroke"
       d="m 9.1906545,43.330522 c -0.090627,0.01623 -0.2337072,0.02864 -0.2718787,0.04869 -0.03626,0.01904 0.054257,0.03877 0.067971,0.05842 0.08755,0.125412 -0.1384119,-0.05311 0.1359416,0.07789 0.039602,0.01891 0.027441,0.03955 0.067971,0.05842 0.1282938,0.05973 0.2909041,0.07321 0.3398522,0.136312 0.0056,0.0072 -0.073565,0.01226 -0.067971,0.01947 0.018215,0.02348 0.095937,0.04523 0.1359417,0.06816 0.028019,0.01605 0.045313,0.03246 0.067971,0.04868 0.022657,0.01623 0.053641,0.03226 0.067971,0.04868 0.00843,0.0097 0,0.01947 0,0.02921 0,0.02272 0,0.04544 0,0.06816 0,0.0032 -0.00549,0.0066 0,0.0097 0.017376,0.01 0.050593,0.01925 0.067971,0.02921 0.00549,0.0031 0.022657,0.0097 0,0.0097 -0.022657,0 0,-0.01298 0,-0.0097 0,0.0065 0,0.01298 0,0.01947"
       id="path1587"
       inkscape:connector-curvature="0" />
    <path
       inkscape:connector-curvature="0"
       id="path1610"
       d="m 9.3171816,43.153085 c 0.061818,0.03123 0.3288925,-0.02443 0.4021806,0 0.014131,0.0047 0,0.02979 0,0.04469 0.029791,0.02979 0.049404,0.07605 0.089373,0.08937 0.019985,0.0067 0.024702,-0.03802 0.044687,-0.04469 0.053097,-0.0177 0.1405251,0.0065 0.1787468,0.04469 0.01053,0.01053 -0.044687,-0.0149 -0.044687,0 0,0.02107 0.023621,0.04469 0.044687,0.04469 0.0149,0 0,-0.05958 0,-0.04469 0,0.05958 0,0.119165 0,0.178747 0,0.0149 0.01332,0.03802 0,0.04469 -0.1191645,0.05958 -0.089374,-0.08937 -0.089374,0.08937 0,0.05958 0.014896,-0.163851 -0.044687,-0.04469 -0.013323,0.02665 0.021066,0.06831 0,0.08937 -0.014896,0.0149 -0.025845,-0.03527 -0.044687,-0.04469 -0.013323,-0.0067 -0.044687,0.0149 -0.044687,0 0,-0.0149 0.038025,-0.01332 0.044687,0 0.013323,0.02665 0,0.05958 0,0.08937 0,0.0149 0,-0.05958 0,-0.04469 0,0.02979 0.013323,0.06273 0,0.08937 -0.026706,0.05341 -0.089374,-0.08607 -0.089374,0.04469 0,0.0149 0.034154,-0.01053 0.044687,0 0.010533,0.01053 0.010533,0.03415 0,0.04469 -0.010533,0.01053 -0.044687,0.0149 -0.044687,0 0,-0.0149 0.034154,0.01053 0.044687,0 0.074478,-0.07448 -0.1638513,-0.04469 0.089373,-0.04469"
       style="fill:none;stroke:#cacaca;stroke-width:1px;stroke-linecap:butt;stroke-linejoin:miter;stroke-opacity:1" />
    <path
       inkscape:connector-curvature="0"
       id="path1612"
       d="M 8.1398223,46.118417 7.0699483,44.522679 C 6.9716387,44.376048 6.5840937,44.314027 6.0748176,44.928569 5.918363,44.825061 5.7729512,43.995894 5.6159279,43.915216 4.5841294,43.384998 5.1068801,44.397644 4.5834254,44.226528 4.242483,44.115087 3.875407,43.943292 3.550923,43.867538 3.47444,43.849908 3.504604,43.962978 3.4362015,43.958728 1.9541148,43.866758 3.1398053,43.806506 2.2889767,43.769567 2.05322,43.759357 1.8491505,43.795787 1.6006418,43.766267 1.5000231,43.754207 1.3419833,43.637334 1.2564742,43.646613 c -0.1209268,0.01317 -0.152962,0.121584 -0.2294462,0.182376 -0.152962,-0.0095 -0.30592675,-0.01902 -0.4588902,-0.02847"
       style="fill:none;stroke:#ee2b2b;stroke-width:2.12558532px;stroke-linecap:butt;stroke-linejoin:miter;stroke-opacity:0.4848485"
       sodipodi:nodetypes="cscccccccccc" />
    <path
       inkscape:connector-curvature="0"
       id="path1614"
       d="m 8.5932002,43.538116 c 0.2278625,-0.02099 0.4501932,-0.05368 0.6836509,-0.0633 0.2831033,-0.01175 0.569717,0 0.8545759,0 0.455767,0 0.911539,0 1.367309,0 0.284865,0 0.569714,0 0.854573,0 0.227887,0 0.47028,-0.02961 0.683656,0 0.02359,0.0034 1.309922,0.366972 1.367311,0.379725 0.04885,0.01093 0.122047,-0.01093 0.170919,0 0.244248,0.05426 0.446643,0.131348 0.683656,0.189867 0.105969,0.02603 0.239936,0.03496 0.341815,0.0633 0.128901,0.03578 0.212924,0.09076 0.341816,0.126568 0.101926,0.0283 0.239936,0.03496 0.341814,0.06329 0.128954,0.0358 0.227864,0.08439 0.341817,0.126568 0.113928,0.04219 0.227862,0.08437 0.341812,0.126569"
       style="fill:none;stroke:#ee2b2b;stroke-width:2.32737398px;stroke-linecap:butt;stroke-linejoin:miter;stroke-opacity:0.4848485" />
    <path
       style="fill:none;fill-opacity:1;stroke:#510101;stroke-width:1.21000004;stroke-linecap:round;stroke-linejoin:round;stroke-miterlimit:4;stroke-dasharray:none;stroke-opacity:1"
       d="m 8.1139646,42.9247 c -0.9389905,1.5421 0.7095944,3.243621 1.3407824,3.058726 0.790221,-0.007 -0.012404,-3.549349 1.225147,-3.009979"
       id="path1616"
       inkscape:connector-curvature="0"
       sodipodi:nodetypes="ccc" />
    <ellipse
       style="fill:#4d3b3b;fill-opacity:1;stroke:none;stroke-width:3.85056901;stroke-linecap:round;stroke-linejoin:round;stroke-miterlimit:4;stroke-dasharray:none;stroke-opacity:1;paint-order:stroke fill markers"
       id="path1143"
       cx="9.0845089"
       cy="44.121857"
       rx="1.1217393"
       ry="1.4377222" />
    <path
       style="fill:none;stroke:#000000;stroke-width:1px;stroke-linecap:butt;stroke-linejoin:miter;stroke-opacity:1"
       d="m 8.5744311,43.016796 c 0.200089,0.0095 0.4165454,-0.0075 0.5945012,0.101971 0.070903,0.03733 0.1374363,0.120475 0.1012109,0.203617 -0.1587148,0.865545 0.6210495,1.925098 -0.5887648,0.762365"
       id="path1581"
       inkscape:connector-curvature="0"
       sodipodi:nodetypes="cccc" />
    <path
       inkscape:connector-curvature="0"
       id="path1178"
       d="m 16.354355,54.246746 c 0.03929,0.108947 0.08892,0.211219 0.117829,0.326885 0.03504,0.140258 0.04851,0.290078 0.07274,0.435133 0.0388,0.232056 0.07759,0.464137 0.116371,0.696207 0.02425,0.145048 0.04849,0.290077 0.07274,0.435129 0.0194,0.116043 0.06796,0.229516 0.05819,0.348113 -10e-4,0.01303 -0.234394,0.790047 -0.241528,0.823541 -0.0061,0.02854 0.02067,0.05849 0.01453,0.08704 -0.03035,0.142562 -0.08579,0.271474 -0.120758,0.411782 -0.01565,0.06274 -0.01256,0.133883 -0.03055,0.195283 -0.02276,0.07764 -0.06742,0.138874 -0.0902,0.216485 -0.01798,0.06142 -0.01256,0.133883 -0.03055,0.195283 -0.02277,0.07766 -0.0601,0.144387 -0.09021,0.216488 -0.03011,0.07214 -0.0601,0.144387 -0.0902,0.216486"
       style="fill:none;stroke:#000000;stroke-width:1.65957522px;stroke-linecap:butt;stroke-linejoin:miter;stroke-opacity:1" />
    <path
       style="fill:none;stroke:#ee2b2b;stroke-width:1.63409412px;stroke-linecap:butt;stroke-linejoin:miter;stroke-opacity:0.4848485"
       d="m 13.873137,47.596219 c 0.115527,0.06213 0.234967,0.114533 0.34676,0.186253 0.135616,0.0869 0.25989,0.190856 0.389836,0.286284 0.207909,0.152684 0.415822,0.30537 0.623733,0.458053 0.129953,0.09542 0.259889,0.190857 0.389833,0.286285 0.103954,0.07634 0.230856,0.137534 0.311867,0.229027 0.0089,0.01017 0.39523,0.686818 0.414377,0.714663 0.01623,0.02379 0.06173,0.03347 0.07797,0.05726 0.0815,0.118498 0.131328,0.23839 0.207185,0.357335 0.03399,0.0531 0.09017,0.104002 0.12103,0.157282 0.03905,0.06737 0.0471,0.132659 0.08615,0.200042 0.0309,0.05327 0.09017,0.104001 0.121028,0.157282 0.03908,0.06738 0.05741,0.13336 0.08615,0.200044 0.02872,0.06668 0.05744,0.133339 0.08615,0.200042"
       id="path1180"
       inkscape:connector-curvature="0" />
    <path
       inkscape:connector-curvature="0"
       id="path1182"
       d="m 1.8391575,53.274986 c 0.04522,0.433442 0.090438,0.866888 0.1356558,1.30033 0.012913,0.123846 0.042024,0.247107 0.03876,0.371522 -0.00334,0.128235 -0.083663,0.254826 -0.058339,0.38079 0.1665303,0.827775 0.1731675,0.3997 0.378446,0.808113 0.1337062,0.266014 0.2137422,0.558519 0.378448,0.808117 0.038844,0.05884 0.1546593,0.0231 0.203833,0.07435 1.0658,1.11009 0.047516,0.237814 0.6793751,0.873182 0.175068,0.176067 0.3823522,0.323124 0.5435353,0.51093 0.065281,0.07605 0.046584,0.207064 0.126157,0.269372 0.1125388,0.08813 0.2718007,0.09912 0.4076987,0.148681 0.1099995,0.114561 0.2199907,0.229141 0.3300004,0.343715"
       style="fill:none;stroke:#000000;stroke-width:2.13550544px;stroke-linecap:butt;stroke-linejoin:miter;stroke-opacity:0.60101008" />
    <path
       style="fill:none;stroke:#ee2b2b;stroke-width:1.57480478px;stroke-linecap:butt;stroke-linejoin:miter;stroke-opacity:0.4848485"
       d="m 3.3128487,45.818427 c -0.2272495,0.315405 -0.454499,0.630811 -0.6817484,0.946217 -0.064928,0.09011 -0.12237,0.18678 -0.1947853,0.270347 -0.074491,0.08625 -0.1820582,0.138326 -0.2427424,0.235206 -0.3987598,0.636596 -0.1517849,0.347006 -0.2943976,0.713701 -0.092891,0.238838 -0.224485,0.472841 -0.2943983,0.713699 -0.016366,0.05685 0.054818,0.08187 0.047209,0.137861 -0.1644485,1.213617 -0.1145634,0.18286 -0.1992274,0.886704 -0.023423,0.195057 -0.016167,0.384068 -0.052399,0.581217 -0.014675,0.07981 -0.097539,0.161364 -0.098142,0.237895 -7.695e-4,0.108293 0.062956,0.183821 0.094433,0.275732 -0.016971,0.125256 -0.033964,0.250496 -0.050917,0.375766"
       id="path1184"
       inkscape:connector-curvature="0" />
  </g>
</svg>
