<?xml version="1.0" encoding="UTF-8" standalone="no"?>
<!-- Created with Inkscape (http://www.inkscape.org/) -->

<svg
   xmlns:dc="http://purl.org/dc/elements/1.1/"
   xmlns:cc="http://creativecommons.org/ns#"
   xmlns:rdf="http://www.w3.org/1999/02/22-rdf-syntax-ns#"
   xmlns:svg="http://www.w3.org/2000/svg"
   xmlns="http://www.w3.org/2000/svg"
   xmlns:sodipodi="http://sodipodi.sourceforge.net/DTD/sodipodi-0.dtd"
   xmlns:inkscape="http://www.inkscape.org/namespaces/inkscape"
   width="90"
   height="380"
   viewBox="0 0 23.8125 100.54167"
   version="1.1"
   id="svg8"
   inkscape:version="0.92.2 5c3e80d, 2017-08-06"
   sodipodi:docname="ComputerscareHorseADoodleDooPanel.svg"
   style="enable-background:new">
  <defs
     id="defs2" />
  <sodipodi:namedview
     id="base"
     pagecolor="#ffffff"
     bordercolor="#666666"
     borderopacity="1.0"
     inkscape:pageopacity="0.0"
     inkscape:pageshadow="2"
     inkscape:zoom="16.000001"
     inkscape:cx="27.131897"
     inkscape:cy="277.5269"
     inkscape:document-units="mm"
     inkscape:current-layer="g1669"
     showgrid="false"
     units="px"
     inkscape:snap-bbox="true"
     inkscape:snap-page="true"
     inkscape:bbox-nodes="true"
     inkscape:snap-bbox-edge-midpoints="true"
     inkscape:window-width="1440"
     inkscape:window-height="856"
     inkscape:window-x="0"
     inkscape:window-y="0"
     inkscape:window-maximized="0"
     inkscape:snap-global="false"
     showguides="false"
     inkscape:lockguides="false" />
  <metadata
     id="metadata5">
    <rdf:RDF>
      <cc:Work
         rdf:about="">
        <dc:format>image/svg+xml</dc:format>
        <dc:type
           rdf:resource="http://purl.org/dc/dcmitype/StillImage" />
        <dc:title></dc:title>
      </cc:Work>
    </rdf:RDF>
  </metadata>
  <g
     inkscape:label="Layer 1"
     inkscape:groupmode="layer"
     id="layer1"
     transform="translate(0,-196.45832)"
     style="display:none">
    <path
       style="opacity:1;vector-effect:none;fill:#f0f0f0;fill-opacity:1;fill-rule:evenodd;stroke:none;stroke-width:0.48607069;stroke-linecap:butt;stroke-linejoin:round;stroke-miterlimit:4;stroke-dasharray:none;stroke-dashoffset:0;stroke-opacity:1;paint-order:normal"
       d="M 0,196.45831 H 23.8125 V 296.99999 H 0 Z"
       id="rect817"
       inkscape:connector-curvature="0" />
    <text
       xml:space="preserve"
       style="font-style:normal;font-weight:normal;font-size:10.58333302px;line-height:1.25;font-family:sans-serif;letter-spacing:0px;word-spacing:0px;fill:#000000;fill-opacity:1;stroke:none;stroke-width:0.26458332"
       x="8.2147436"
       y="295.57718"
       id="text1490"
       transform="rotate(1.4468834)"><tspan
         sodipodi:role="line"
         id="tspan1488"
         x="8.2147436"
         y="295.57718"
         style="font-style:normal;font-variant:normal;font-weight:normal;font-stretch:normal;font-size:2.82222223px;font-family:sans-serif;-inkscape-font-specification:'sans-serif, Normal';font-variant-ligatures:normal;font-variant-caps:normal;font-variant-numeric:normal;font-feature-settings:normal;text-align:start;writing-mode:lr-tb;text-anchor:start;stroke-width:0.26458332">computerscare</tspan></text>
    <text
       transform="rotate(-5.9989835)"
       id="text1494"
       y="288.0314"
       x="-28.710276"
       style="font-style:normal;font-weight:normal;font-size:10.58333302px;line-height:1.25;font-family:sans-serif;letter-spacing:0px;word-spacing:0px;fill:#000000;fill-opacity:1;stroke:none;stroke-width:0.26458332"
       xml:space="preserve"><tspan
         style="font-style:normal;font-variant:normal;font-weight:normal;font-stretch:normal;font-size:2.82222223px;font-family:sans-serif;-inkscape-font-specification:'sans-serif, Normal';font-variant-ligatures:normal;font-variant-caps:normal;font-variant-numeric:normal;font-feature-settings:normal;text-align:start;writing-mode:lr-tb;text-anchor:start;stroke-width:0.26458332"
         y="288.0314"
         x="-28.710276"
         id="tspan1492"
         sodipodi:role="line">trg</tspan></text>
    <text
       xml:space="preserve"
       style="font-style:normal;font-weight:normal;font-size:10.58333302px;line-height:1.25;font-family:sans-serif;letter-spacing:0px;word-spacing:0px;fill:#000000;fill-opacity:1;stroke:none;stroke-width:0.26458332"
       x="20.711658"
       y="288.87244"
       id="text1498"
       transform="rotate(1.9714728)"><tspan
         sodipodi:role="line"
         id="tspan1496"
         x="20.711658"
         y="288.87244"
         style="font-style:normal;font-variant:normal;font-weight:normal;font-stretch:normal;font-size:2.82222223px;font-family:sans-serif;-inkscape-font-specification:'sans-serif, Normal';font-variant-ligatures:normal;font-variant-caps:normal;font-variant-numeric:normal;font-feature-settings:normal;text-align:start;writing-mode:lr-tb;text-anchor:start;stroke-width:0.26458332">in</tspan></text>
    <text
       transform="rotate(0.49746114)"
       id="text1521"
       y="289.16214"
       x="20.314623"
       style="font-style:normal;font-weight:normal;font-size:10.58333302px;line-height:1.25;font-family:sans-serif;letter-spacing:0px;word-spacing:0px;fill:#000000;fill-opacity:1;stroke:none;stroke-width:0.26458332"
       xml:space="preserve"><tspan
         style="font-style:normal;font-variant:normal;font-weight:normal;font-stretch:normal;font-size:3.17499995px;font-family:sans-serif;-inkscape-font-specification:'sans-serif, Normal';font-variant-ligatures:normal;font-variant-caps:normal;font-variant-numeric:normal;font-feature-settings:normal;text-align:start;writing-mode:lr-tb;text-anchor:start;stroke-width:0.26458332"
         y="289.16214"
         x="20.314623"
         id="tspan1519"
         sodipodi:role="line">clr</tspan></text>
    <text
       transform="matrix(1.0139335,-0.02825079,0.06854811,0.98434808,0,0)"
       id="text1645"
       y="204.61243"
       x="-10.296249"
       style="font-style:normal;font-weight:normal;font-size:10.74719143px;line-height:1.25;font-family:sans-serif;letter-spacing:0px;word-spacing:0px;fill:#000000;fill-opacity:1;stroke:none;stroke-width:0.26867977"
       xml:space="preserve"><tspan
         style="font-style:normal;font-variant:normal;font-weight:normal;font-stretch:normal;font-size:5.01535606px;font-family:sans-serif;-inkscape-font-specification:'sans-serif, Normal';font-variant-ligatures:normal;font-variant-caps:normal;font-variant-numeric:normal;font-feature-settings:normal;text-align:start;writing-mode:lr-tb;text-anchor:start;stroke-width:0.26867977"
         y="204.61243"
         x="-10.296249"
         id="tspan1643"
         sodipodi:role="line">debug</tspan></text>
  </g>
  <g
     inkscape:groupmode="layer"
     id="layer3"
     inkscape:label="bg" />
  <g
     style="display:inline"
     transform="translate(0,-196.45832)"
     id="g1669"
     inkscape:groupmode="layer"
     inkscape:label="Layer 1 copy">
    <path
       style="fill:#f2f4f5;fill-opacity:1;stroke:#000000;stroke-width:0.26683289px;stroke-linecap:butt;stroke-linejoin:miter;stroke-opacity:1"
       d="m 0.11070997,216.17839 0.19028788,79.88502 14.84245615,-0.18709 0.570864,-98.78055 -15.41332015,0.18709 z"
       id="path1130"
       inkscape:connector-curvature="0" />
    <rect
       style="fill:#fcfcfc;fill-opacity:1;stroke:#666666;stroke-width:0.21803042;stroke-linecap:round;stroke-linejoin:round;stroke-miterlimit:4;stroke-dasharray:none;stroke-opacity:1;paint-order:stroke fill markers"
       id="rect4821"
       width="23.711185"
       height="6.1813326"
       x="0.071190082"
       y="290.79446" />
    <g
       aria-label="computerscare"
       transform="matrix(0.94988578,-0.02804688,0.4051471,0.5822115,-124.33412,122.62476)"
       style="font-style:normal;font-weight:normal;font-size:10.58333302px;line-height:1.25;font-family:sans-serif;letter-spacing:0px;word-spacing:0px;fill:#000000;fill-opacity:1;stroke:none;stroke-width:0.26458332"
       id="text1651">
      <path
         d="m 9.6027791,290.64805 -0.1785472,1.13642 q -0.2071013,-0.22115 -0.4403012,-0.2959 -0.2289893,-0.082 -0.4873177,-0.0166 -0.5763522,0.1409 -1.0153469,0.97678 -0.4367476,0.82622 -0.6495621,2.18074 -0.2127596,1.35428 -0.011668,2.0279 0.2021416,0.66697 0.7797313,0.52296 0.259638,-0.0689 0.5316849,-0.2657 0.2776392,-0.20851 0.5741694,-0.55615 l -0.1764568,1.12315 q -0.2859177,0.30015 -0.5722526,0.48508 -0.2831694,0.18458 -0.583333,0.25957 -0.8170394,0.20584 -1.1320824,-0.72716 -0.3157407,-0.93062 -0.035471,-2.7145 0.2844124,-1.8103 0.9313988,-2.96829 0.6501935,-1.15871 1.4955927,-1.36946 0.2742623,-0.0675 0.516621,-0.0134 0.2438341,0.0468 0.4524011,0.21807 z"
         style="font-style:normal;font-variant:normal;font-weight:normal;font-stretch:normal;font-size:2.82222223px;font-family:sans-serif;-inkscape-font-specification:'sans-serif, Normal';font-variant-ligatures:normal;font-variant-caps:normal;font-variant-numeric:normal;font-feature-settings:normal;text-align:start;writing-mode:lr-tb;text-anchor:start;stroke-width:0.86896825"
         id="path1701"
         inkscape:connector-curvature="0" />
      <path
         d="m 10.830236,291.43632 q -0.242121,0.0741 -0.521559,0.57491 -0.278305,0.4971 -0.5188844,1.29095 -0.2405799,0.79385 -0.2403983,1.20956 0.00301,0.41129 0.2467005,0.33695 0.2404212,-0.0734 0.5199302,-0.57442 0.2795,-0.50105 0.51888,-1.29093 0.238185,-0.78594 0.236377,-1.20119 -6.09e-4,-0.4192 -0.241046,-0.34583 z m 0.186718,-0.6161 q 0.392499,-0.11967 0.429888,0.42797 0.03734,0.54781 -0.293009,1.63784 -0.329159,1.08613 -0.741139,1.77453 -0.410787,0.68447 -0.8033151,0.80422 -0.3941992,0.12035 -0.431527,-0.42747 -0.034513,-0.55222 0.2946412,-1.63833 0.3303527,-1.09005 0.7395069,-1.77404 0.410787,-0.68447 0.804954,-0.80472 z"
         style="font-style:normal;font-variant:normal;font-weight:normal;font-stretch:normal;font-size:2.82222223px;font-family:sans-serif;-inkscape-font-specification:'sans-serif, Normal';font-variant-ligatures:normal;font-variant-caps:normal;font-variant-numeric:normal;font-feature-settings:normal;text-align:start;writing-mode:lr-tb;text-anchor:start;stroke-width:0.46487415"
         id="path1703"
         inkscape:connector-curvature="0" />
      <path
         d="m 12.807825,292.43649 q 0.205376,-0.44273 0.383783,-0.65959 0.178399,-0.21686 0.344437,-0.2297 0.223488,-0.0171 0.228448,0.40604 0.0059,0.41968 -0.207833,1.21429 l -0.639393,2.37685 -0.236181,0.0178 0.633715,-2.35578 q 0.15227,-0.56606 0.153268,-0.83476 10e-4,-0.26867 -0.148429,-0.25721 -0.182514,0.0136 -0.378442,0.35612 -0.195844,0.34217 -0.350959,0.91879 l -0.598741,2.22567 -0.236178,0.0178 0.633714,-2.35578 q 0.153226,-0.56959 0.153269,-0.83477 10e-4,-0.26864 -0.150977,-0.25701 -0.179992,0.0135 -0.376835,0.35945 -0.195847,0.34216 -0.350016,0.91529 l -0.598731,2.22564 -0.236175,0.0178 1.059316,-3.93799 0.236176,-0.0178 -0.164564,0.61175 q 0.177856,-0.36827 0.336583,-0.5492 0.158669,-0.18072 0.313205,-0.19264 0.155863,-0.0123 0.205723,0.19761 0.05123,0.20939 -0.0081,0.62045 z"
         style="font-style:normal;font-variant:normal;font-weight:normal;font-stretch:normal;font-size:2.82222223px;font-family:sans-serif;-inkscape-font-specification:'sans-serif, Normal';font-variant-ligatures:normal;font-variant-caps:normal;font-variant-numeric:normal;font-feature-settings:normal;text-align:start;writing-mode:lr-tb;text-anchor:start;stroke-width:0.40262118"
         id="path1705"
         inkscape:connector-curvature="0" />
      <path
         d="m 13.60117,295.28799 -0.554629,2.13184 -0.267265,0.0195 1.443525,-5.54854 0.267267,-0.0195 -0.158727,0.61011 q 0.177173,-0.36501 0.349134,-0.54657 0.17433,-0.18522 0.352032,-0.19813 0.294924,-0.0224 0.326968,0.54651 0.03367,0.56789 -0.212846,1.51542 -0.246502,0.94749 -0.582696,1.54239 -0.334749,0.59479 -0.629491,0.61632 -0.17774,0.0129 -0.261498,-0.14988 -0.08139,-0.16659 -0.07182,-0.51936 z m 1.269531,-1.4693 q 0.189548,-0.72859 0.175557,-1.13245 -0.01161,-0.40756 -0.222552,-0.39216 -0.210881,0.0151 -0.440613,0.44055 -0.227296,0.42149 -0.416846,1.15007 -0.189545,0.72858 -0.177937,1.13612 0.01399,0.40387 0.22493,0.38848 0.210882,-0.0151 0.438235,-0.43686 0.229674,-0.42519 0.419218,-1.15375 z"
         style="font-style:normal;font-variant:normal;font-weight:normal;font-stretch:normal;font-size:2.82222223px;font-family:sans-serif;-inkscape-font-specification:'sans-serif, Normal';font-variant-ligatures:normal;font-variant-caps:normal;font-variant-numeric:normal;font-feature-settings:normal;text-align:start;writing-mode:lr-tb;text-anchor:start;stroke-width:0.43304038"
         id="path1707"
         inkscape:connector-curvature="0" />
      <path
         d="m 15.055401,295.73684 0.724151,-2.70123 0.3058,-0.15606 -0.716673,2.67333 q -0.169825,0.63345 -0.15225,0.89989 0.01859,0.26239 0.224461,0.15806 0.247262,-0.12499 0.491712,-0.57662 0.245936,-0.45182 0.421108,-1.10524 l 0.678203,-2.52983 0.305801,-0.15606 -1.19623,4.46214 -0.305797,0.15607 0.183713,-0.68527 q -0.220195,0.4628 -0.421392,0.73706 -0.198389,0.26912 -0.392768,0.36807 -0.32063,0.16323 -0.35841,-0.231 -0.03788,-0.39383 0.208823,-1.31409 z"
         style="font-style:normal;font-variant:normal;font-weight:normal;font-stretch:normal;font-size:2.82222223px;font-family:sans-serif;-inkscape-font-specification:'sans-serif, Normal';font-variant-ligatures:normal;font-variant-caps:normal;font-variant-numeric:normal;font-feature-settings:normal;text-align:start;writing-mode:lr-tb;text-anchor:start;stroke-width:0.45902026"
         id="path1709"
         inkscape:connector-curvature="0" />
      <path
         d="m 18.113428,292.3357 -0.179064,0.85803 0.491607,0.0721 -0.08052,0.38584 -0.491607,-0.0721 -0.342349,1.64047 q -0.07714,0.36965 -0.0511,0.4819 0.02738,0.11224 0.176528,0.13418 l 0.245304,0.0351 -0.08672,0.41554 -0.245305,-0.0351 q -0.276353,-0.0402 -0.336915,-0.26884 -0.06004,-0.23118 0.05822,-0.79779 l 0.342349,-1.64049 -0.175178,-0.0253 0.08052,-0.38584 0.175179,0.0253 0.179063,-0.85803 z"
         style="font-style:normal;font-variant:normal;font-weight:normal;font-stretch:normal;font-size:2.82222223px;font-family:sans-serif;-inkscape-font-specification:'sans-serif, Normal';font-variant-ligatures:normal;font-variant-caps:normal;font-variant-numeric:normal;font-feature-settings:normal;text-align:start;writing-mode:lr-tb;text-anchor:start;stroke-width:0.36464316"
         id="path1711"
         inkscape:connector-curvature="0" />
      <path
         d="m 20.261915,292.97708 -0.07466,0.29993 -1.257665,0.52946 q -0.139748,0.62563 -0.07111,0.89506 0.07099,0.26547 0.343071,0.15079 0.157847,-0.0674 0.326325,-0.21496 0.170227,-0.14922 0.359046,-0.38381 l -0.144348,0.57988 q -0.182046,0.20203 -0.354909,0.34045 -0.172839,0.13835 -0.331881,0.2052 -0.398421,0.16777 -0.502421,-0.25374 -0.102476,-0.42229 0.118208,-1.30876 0.228131,-0.91641 0.581722,-1.54555 0.355894,-0.63309 0.730507,-0.79076 0.33577,-0.14063 0.40955,0.26329 0.07592,0.40065 -0.13147,1.23373 z m -0.228747,-0.0648 q 0.122266,-0.50191 0.07358,-0.74995 -0.04723,-0.24866 -0.249404,-0.16353 -0.228759,0.0957 -0.439357,0.44448 -0.20894,0.34749 -0.360834,0.88279 z"
         style="font-style:normal;font-variant:normal;font-weight:normal;font-stretch:normal;font-size:2.82222223px;font-family:sans-serif;-inkscape-font-specification:'sans-serif, Normal';font-variant-ligatures:normal;font-variant-caps:normal;font-variant-numeric:normal;font-feature-settings:normal;text-align:start;writing-mode:lr-tb;text-anchor:start;stroke-width:0.40433538"
         id="path1713"
         inkscape:connector-curvature="0" />
      <path
         d="m 21.673498,292.84153 q -0.02499,-0.0664 -0.06594,-0.10097 -0.03882,-0.0377 -0.09539,-0.0472 -0.200434,-0.0342 -0.392529,0.28546 -0.189936,0.31632 -0.3466,0.94546 l -0.486472,1.9536 -0.237943,-0.0394 0.923474,-3.70854 0.237943,0.0394 -0.143468,0.57613 q 0.158635,-0.3251 0.318554,-0.46708 0.160764,-0.1454 0.331675,-0.1164 0.02431,0.005 0.05169,0.0182 0.0278,0.0121 0.05955,0.0351 z"
         style="font-style:normal;font-variant:normal;font-weight:normal;font-stretch:normal;font-size:2.82222223px;font-family:sans-serif;-inkscape-font-specification:'sans-serif, Normal';font-variant-ligatures:normal;font-variant-caps:normal;font-variant-numeric:normal;font-feature-settings:normal;text-align:start;writing-mode:lr-tb;text-anchor:start;stroke-width:0.40433538"
         id="path1715"
         inkscape:connector-curvature="0" />
      <path
         d="m 22.229258,293.93465 -0.102668,0.39617 q -0.07248,-0.13083 -0.164162,-0.21902 -0.09165,-0.0884 -0.202529,-0.13415 -0.168771,-0.0697 -0.278572,-0.009 -0.108573,0.0611 -0.158124,0.25229 -0.03777,0.1458 7.57e-4,0.2549 0.03913,0.10682 0.201965,0.25733 l 0.06936,0.0639 q 0.216657,0.19541 0.272253,0.41237 0.05741,0.21525 -0.02345,0.5272 -0.09204,0.35517 -0.298505,0.49929 -0.205219,0.14461 -0.471313,0.0347 -0.110888,-0.0457 -0.220988,-0.13657 -0.109481,-0.0879 -0.221839,-0.22275 l 0.112114,-0.43259 q 0.09439,0.17255 0.200407,0.28439 0.106615,0.10961 0.226124,0.15887 0.160139,0.0662 0.272416,8.8e-4 0.112791,-0.0669 0.160582,-0.25127 0.04426,-0.17077 0.005,-0.28779 -0.038,-0.1165 -0.226818,-0.28773 l -0.06998,-0.0667 q -0.189435,-0.16883 -0.239373,-0.3761 -0.04937,-0.20941 0.02734,-0.50541 0.09322,-0.35974 0.281955,-0.49858 0.188722,-0.13884 0.442502,-0.0341 0.125679,0.0517 0.227651,0.13195 0.102022,0.0799 0.177954,0.18687 z"
         style="font-style:normal;font-variant:normal;font-weight:normal;font-stretch:normal;font-size:2.82222223px;font-family:sans-serif;-inkscape-font-specification:'sans-serif, Normal';font-variant-ligatures:normal;font-variant-caps:normal;font-variant-numeric:normal;font-feature-settings:normal;text-align:start;writing-mode:lr-tb;text-anchor:start;stroke-width:0.33832553"
         id="path1717"
         inkscape:connector-curvature="0" />
      <path
         d="m 23.986751,292.12191 c -0.128774,0.25908 -0.285096,-0.0923 -0.517645,-0.0646 -0.159144,0.002 -0.29396,0.0931 -0.404426,0.27171 -0.110275,0.17711 -0.185605,0.42507 -0.225985,0.7439 -0.04034,0.31882 -0.02779,0.56619 0.03777,0.74213 0.06574,0.17449 0.178211,0.26034 0.337352,0.25788 0.07111,-10e-4 0.143417,-0.0185 0.216918,-0.0523 0.07456,-0.0353 0.150753,-0.0869 0.228587,-0.15493 l -0.05024,0.39658 c -0.07555,0.0571 -0.151996,0.10017 -0.229319,0.12922 -0.07646,0.0292 -0.15603,0.0444 -0.238701,0.0456 -0.224928,0.003 -0.387991,-0.11731 -0.48913,-0.36262 -0.101153,-0.24523 -0.12514,-0.57778 -0.07196,-0.9977 0.05397,-0.42616 0.163107,-0.76234 0.327388,-1.00858 0.165177,-0.24626 0.364234,-0.3712 0.597172,-0.37482 0.07569,-0.002 0.147877,0.01 0.215995,0.039 0.06878,0.0246 0.351198,0.27269 0.41187,0.32611 z"
         style="font-style:normal;font-variant:normal;font-weight:normal;font-stretch:normal;font-size:2.82222223px;font-family:sans-serif;-inkscape-font-specification:'sans-serif, Normal';font-variant-ligatures:normal;font-variant-caps:normal;font-variant-numeric:normal;font-feature-settings:normal;text-align:start;writing-mode:lr-tb;text-anchor:start;stroke-width:0.33832553"
         id="path1719"
         inkscape:connector-curvature="0"
         sodipodi:nodetypes="cccccccccccccccccc" />
      <path
         d="m 25.156213,294.62363 c -0.312517,0.0125 -0.547151,0.0755 -0.703953,0.18946 -0.15681,0.11392 -0.278931,0.30245 -0.366342,0.56547 -0.06973,0.20967 -0.08035,0.37475 -0.03187,0.49525 0.05059,0.11828 0.153688,0.17414 0.309207,0.16813 0.21443,-0.009 0.424504,-0.13092 0.630195,-0.36698 0.207831,-0.23833 0.375738,-0.55003 0.503717,-0.93507 l 0.04365,-0.13151 z m 0.852522,-0.27447 -0.681487,2.05034 -0.386726,0.0151 0.181291,-0.54547 c -0.160822,0.22168 -0.324516,0.38756 -0.491082,0.49763 -0.165839,0.10786 -0.344069,0.16559 -0.53468,0.1732 -0.241081,0.01 -0.398927,-0.0855 -0.473591,-0.28516 -0.07257,-0.20187 -0.05126,-0.47611 0.06392,-0.82266 0.134371,-0.40428 0.323972,-0.71259 0.568803,-0.92494 0.246236,-0.21242 0.54523,-0.32562 0.896983,-0.33958 l 0.542379,-0.0216 0.01911,-0.0576 c 0.0903,-0.27167 0.101113,-0.47897 0.03246,-0.62188 -0.06654,-0.14511 -0.205622,-0.21349 -0.417233,-0.20506 -0.134581,0.006 -0.27376,0.0353 -0.41765,0.0894 -0.143873,0.0543 -0.23933,0.0105 -0.389784,0.11369 l 0.129593,-0.42308 c 0.169238,-0.0889 0.327181,-0.15634 0.47384,-0.20236 0.147348,-0.0481 0.284083,-0.0745 0.410263,-0.0797 0.340575,-0.0136 0.550131,0.11107 0.628684,0.37402 0.07858,0.26285 0.02686,0.66808 -0.155151,1.21569 z"
         style="font-style:normal;font-variant:normal;font-weight:normal;font-stretch:normal;font-size:2.82222223px;font-family:sans-serif;-inkscape-font-specification:'sans-serif, Normal';font-variant-ligatures:normal;font-variant-caps:normal;font-variant-numeric:normal;font-feature-settings:normal;text-align:start;writing-mode:lr-tb;text-anchor:start;stroke-width:0.49534509"
         id="path1721"
         inkscape:connector-curvature="0"
         sodipodi:nodetypes="ccccccccccccccccccccccccccccccc" />
      <path
         d="m 28.126914,293.2913 q -0.04162,-0.05 -0.103389,-0.0773 -0.05896,-0.0295 -0.141049,-0.0387 -0.290942,-0.0329 -0.539632,0.19734 -0.245901,0.22772 -0.417305,0.68886 l -0.532281,1.43196 -0.345034,-0.0384 1.010313,-2.71829 0.345034,0.0384 -0.156978,0.42227 q 0.200189,-0.2354 0.41784,-0.33487 0.218607,-0.10209 0.466633,-0.0742 0.03543,0.004 0.07571,0.0154 0.0407,0.0112 0.08858,0.0282 z"
         style="font-style:normal;font-variant:normal;font-weight:normal;font-stretch:normal;font-size:2.82222223px;font-family:sans-serif;-inkscape-font-specification:'sans-serif, Normal';font-variant-ligatures:normal;font-variant-caps:normal;font-variant-numeric:normal;font-feature-settings:normal;text-align:start;writing-mode:lr-tb;text-anchor:start;stroke-width:0.41692752"
         id="path1723"
         inkscape:connector-curvature="0" />
      <path
         d="m 29.861651,294.43588 -0.07656,0.20539 -1.546187,-0.002 c -0.09291,0.29071 -0.13687,0.34741 -0.0668,0.51355 0.07195,0.16485 0.221806,0.25971 0.449493,0.2848 0.131883,0.0148 0.266754,0.009 0.404711,-0.017 0.139202,-0.0259 0.501078,-0.12507 0.652538,-0.1908 l -0.148138,0.39714 c -0.147036,0.0504 -0.508081,0.13863 -0.649956,0.15781 -0.141876,0.0193 -0.279382,0.0214 -0.412486,0.007 -0.33344,-0.037 -0.553567,-0.18454 -0.660393,-0.44348 -0.105566,-0.25875 -0.08288,-0.5905 0.06807,-0.99522 0.156134,-0.41842 0.371833,-0.73999 0.647359,-0.96467 0.277318,-0.22604 0.572748,-0.32179 0.886286,-0.28722 0.281199,0.0307 0.461833,0.16663 0.541999,0.40665 0.08195,0.23874 0.05199,0.5483 -0.08989,0.92868 z m -0.297458,-0.16104 c 0.08311,-0.23003 0.09867,-0.4192 0.04645,-0.56751 -0.05093,-0.14821 -0.161032,-0.23161 -0.330238,-0.25027 -0.191612,-0.021 -0.370002,0.0283 -0.535043,0.14776 -0.16384,0.11974 -0.137625,0.29219 -0.244719,0.53066 z"
         style="font-style:normal;font-variant:normal;font-weight:normal;font-stretch:normal;font-size:2.82222223px;font-family:sans-serif;-inkscape-font-specification:'sans-serif, Normal';font-variant-ligatures:normal;font-variant-caps:normal;font-variant-numeric:normal;font-feature-settings:normal;text-align:start;writing-mode:lr-tb;text-anchor:start;stroke-width:0.40432581"
         id="path1725"
         inkscape:connector-curvature="0"
         sodipodi:nodetypes="ccccscccsscscscccccsccc" />
    </g>
    <g
       id="g9547"
       transform="matrix(0.60186406,0.03418152,0.00599569,0.11388483,4.9544592,293.20677)">
      <g
         style="display:inline"
         inkscape:label="Layer 1"
         id="layer4" />
      <path
         id="rect5872"
         d="m 11.987289,9.3234482 h 7.991524 v 3.9957608 h -7.991524 z"
         style="opacity:1;fill:#0f0f00;fill-opacity:1;stroke:#000000;stroke-width:0;stroke-miterlimit:4;stroke-dasharray:none;stroke-opacity:1"
         inkscape:connector-curvature="0" />
      <path
         id="rect5874"
         d="m 14.667374,10.662096 h 3.995763 v 1.331921 h -3.995763 z"
         style="opacity:1;fill:#ffffff;fill-opacity:0.98571424;stroke:#000000;stroke-width:0;stroke-miterlimit:4;stroke-dasharray:none;stroke-opacity:1"
         inkscape:connector-curvature="0" />
      <path
         id="rect5878"
         d="m -29.323654,9.3234482 h 7.989551 v 3.9957608 h -7.989551 z"
         style="opacity:1;fill:#0c0c00;fill-opacity:1;stroke:#000000;stroke-width:0;stroke-miterlimit:4;stroke-dasharray:none;stroke-opacity:1"
         transform="scale(-1,1)"
         inkscape:connector-curvature="0" />
      <path
         id="rect5880"
         d="m 26.64423,10.662096 -3.171232,0.209056 v 1.331921 l 3.171232,-0.209056 z"
         style="opacity:1;fill:#ffffff;fill-opacity:0.98571424;stroke:#000000;stroke-width:0;stroke-miterlimit:4;stroke-dasharray:none;stroke-opacity:1"
         inkscape:connector-curvature="0" />
      <path
         id="rect5882"
         d="m 19.995058,14.667374 h 1.331921 v 3.995762 h -1.331921 z"
         style="opacity:1;fill:#000000;fill-opacity:1;stroke:#000000;stroke-width:0;stroke-miterlimit:4;stroke-dasharray:none;stroke-opacity:1"
         inkscape:connector-curvature="0" />
      <path
         id="rect5884"
         d="m 20.888507,17.21991 2.579094,0.32072 v 1.33192 l -2.579094,-0.32072 z"
         style="opacity:1;fill:#000000;fill-opacity:1;stroke:#000000;stroke-width:0;stroke-miterlimit:4;stroke-dasharray:none;stroke-opacity:1"
         inkscape:connector-curvature="0" />
      <path
         id="rect5886"
         d="m 11.954803,20.011301 h 2.696328 v 2.663842 h -2.696328 z"
         style="opacity:1;fill:#000200;fill-opacity:1;stroke:#000000;stroke-width:0;stroke-miterlimit:4;stroke-dasharray:none;stroke-opacity:1"
         inkscape:connector-curvature="0" />
      <path
         id="rect5888"
         d="m 27.970341,20.011301 h 2.696327 v 2.663842 h -2.696327 z"
         style="opacity:1;fill:#000200;fill-opacity:1;stroke:#000000;stroke-width:0;stroke-miterlimit:4;stroke-dasharray:none;stroke-opacity:1"
         inkscape:connector-curvature="0" />
      <path
         id="rect5890"
         d="m 14.651131,20.011301 h 13.351695 v 1.33192 H 14.651131 Z"
         style="opacity:1;fill:#000200;fill-opacity:1;stroke:#000000;stroke-width:0;stroke-miterlimit:4;stroke-dasharray:none;stroke-opacity:1"
         inkscape:connector-curvature="0" />
    </g>
    <path
       style="fill:#272727;fill-opacity:1;stroke:#d6d6d6;stroke-width:0.36472282;stroke-linecap:round;stroke-linejoin:miter;stroke-miterlimit:4;stroke-dasharray:none;stroke-opacity:1;paint-order:stroke fill markers"
       d="M 0.14400729,196.49111 H 23.550663 l 0.07044,19.49736 -23.47710277,0.69925 z"
       id="rect1087"
       inkscape:connector-curvature="0"
       sodipodi:nodetypes="ccccc" />
    <g
       aria-label="goly penerator"
       style="font-style:normal;font-weight:normal;font-size:10.58333302px;line-height:1.25;font-family:sans-serif;letter-spacing:0px;word-spacing:0px;fill:#fcfcfc;fill-opacity:1;stroke:none;stroke-width:0.26458332"
       id="text1092"
       transform="matrix(0.22245701,0,0,0.32705175,19.197691,128.00541)">
      <g
         aria-label="horse-a doodle doo"
         transform="scale(1.0880441,0.91908035)"
         style="font-style:normal;font-weight:normal;font-size:23.50690651px;line-height:1.25;font-family:sans-serif;letter-spacing:0px;word-spacing:0px;fill:#f3f3f3;fill-opacity:1;stroke:none;stroke-width:0.15548837"
         id="text4844">
        <path
           d="m -63.244951,238.82665 v 7.75912 h -2.111948 v -7.69025 q 0,-1.825 -0.711635,-2.73176 -0.711635,-0.90676 -2.134905,-0.90676 -1.710219,0 -2.697325,1.09041 -0.987107,1.09041 -0.987107,2.9728 v 7.26556 h -2.123426 v -17.85974 h 2.123426 v 7.00157 q 0.757547,-1.15928 1.779087,-1.73318 1.033019,-0.5739 2.375942,-0.5739 2.215251,0 3.351571,1.37736 1.13632,1.36588 1.13632,4.02877 z"
           style="fill:#f3f3f3;fill-opacity:1;stroke-width:0.15548837"
           id="path4858"
           inkscape:connector-curvature="0" />
        <path
           d="m -52.863918,235.95912 q -1.698742,0 -2.685848,1.65704 -0.987106,1.64274 -0.987106,4.514 0,2.87124 0.975628,4.52828 0.987106,1.64276 2.697326,1.64276 1.687263,0 2.674369,-1.65704 0.987107,-1.65705 0.987107,-4.514 0,-2.84268 -0.987107,-4.49972 -0.987106,-1.67132 -2.674369,-1.67132 z m 0,-2.22844 q 2.754715,0 4.327199,2.22844 1.572483,2.22842 1.572483,6.17104 0,3.92832 -1.572483,6.17104 -1.572484,2.22842 -4.327199,2.22842 -2.766194,0 -4.338677,-2.22842 -1.561006,-2.24272 -1.561006,-6.17104 0,-3.94262 1.561006,-6.17104 1.572483,-2.22844 4.338677,-2.22844 z"
           style="fill:#f3f3f3;fill-opacity:1;stroke-width:0.17346123"
           id="path4860"
           inkscape:connector-curvature="0" />
        <path
           d="m -37.189932,236.23914 q -0.355818,-0.25494 -0.780503,-0.36825 -0.413208,-0.12748 -0.918239,-0.12748 -1.790565,0 -2.754715,1.44472 -0.952673,1.43055 -0.952673,4.1217 v 8.35672 h -2.123426 v -15.8636 h 2.123426 v 2.46453 q 0.665723,-1.44473 1.733175,-2.13876 1.067453,-0.7082 2.594024,-0.7082 0.218082,0 0.482076,0.0425 0.263993,0.0284 0.585377,0.0991 z"
           style="fill:#f3f3f3;fill-opacity:1;stroke-width:0.17272571"
           id="path4862"
           inkscape:connector-curvature="0" />
        <path
           d="m -26.690469,237.28008 v 1.99717 q -0.546657,-0.45912 -1.135365,-0.68868 -0.588708,-0.22956 -1.219466,-0.22956 -0.960155,0 -1.443737,0.48208 -0.476572,0.48207 -0.476572,1.44622 0,0.7346 0.343413,1.15928 0.343413,0.41321 1.38066,0.79198 l 0.441531,0.16069 q 1.373652,0.48208 1.948343,1.36588 0.581699,0.87233 0.581699,2.44481 0,1.79057 -0.869044,2.83506 -0.862037,1.0445 -2.375858,1.0445 -0.630759,0 -1.317584,-0.2066 -0.679818,-0.19513 -1.436728,-0.59686 v -2.18081 q 0.71486,0.60833 1.408694,0.91823 0.693835,0.29843 1.373652,0.29843 0.911095,0 1.401685,-0.50503 0.490591,-0.51651 0.490591,-1.44622 0,-0.86085 -0.35743,-1.31997 -0.350422,-0.45912 -1.548863,-0.88381 l -0.448539,-0.17217 q -1.198442,-0.4132 -1.731082,-1.26258 -0.53264,-0.86084 -0.53264,-2.35298 0,-1.81352 0.784943,-2.80063 0.784944,-0.98711 2.22868,-0.98711 0.71486,0 1.345619,0.17217 0.630758,0.17217 1.163398,0.51651 z"
           style="fill:#f3f3f3;fill-opacity:1;stroke-width:0.12149977"
           id="path4864"
           inkscape:connector-curvature="0" />
        <path
           d="m -10.533123,239.94027 v 1.03302 h -9.710373 q 0.137736,2.18082 1.30849,3.32862 1.182232,1.13632 3.282703,1.13632 1.216666,0 2.352986,-0.29843 1.147798,-0.29843 2.272641,-0.89528 v 1.99716 q -1.136321,0.48208 -2.330031,0.7346 -1.19371,0.25251 -2.421854,0.25251 -3.076099,0 -4.878142,-1.79056 -1.790565,-1.79057 -1.790565,-4.84371 0,-3.15645 1.698741,-5.0044 1.710219,-1.85944 4.602671,-1.85944 2.594024,0 4.097639,1.67579 1.515094,1.66431 1.515094,4.5338 z m -2.111949,-0.61981 q -0.02296,-1.73317 -0.975628,-2.76619 -0.941195,-1.03302 -2.5022,-1.03302 -1.767609,0 -2.835062,0.99858 -1.055974,0.99859 -1.216666,2.81211 z"
           style="fill:#f3f3f3;fill-opacity:1;stroke-width:0.15548837"
           id="path4866"
           inkscape:connector-curvature="0" />
        <path
           d="m 6.1050132,240.12367 q -2.5595899,0 -3.5466963,0.58537 -0.9871064,0.58538 -0.9871064,1.99717 0,1.12484 0.7345908,1.79057 0.7460688,0.65424 2.0201248,0.65424 1.7561312,0 2.8121055,-1.23962 1.0674523,-1.2511 1.0674523,-3.31714 v -0.47059 z m 4.2124198,-0.87233 v 7.33443 H 8.2054839 v -1.95126 q -0.7231129,1.17076 -1.8020431,1.73318 -1.0789303,0.55094 -2.6399358,0.55094 -1.9742129,0 -3.14496701,-1.10189 -1.15927615,-1.11336 -1.15927615,-2.97279 0,-2.16934 1.44622569,-3.27123 1.45770367,-1.10188 4.33867707,-1.10188 h 2.9613193 v -0.20661 q 0,-1.4577 -0.9641505,-2.24968 -0.9526725,-0.80346 -2.6858477,-0.80346 -1.1018862,0 -2.1463826,0.26399 -1.0444963,0.264 -2.00864676,0.79198 v -1.95125 q 1.15927616,-0.44764 2.24968446,-0.66573 1.0904082,-0.22956 2.1234266,-0.22956 2.7891495,0 4.1665073,1.44623 1.3773583,1.44623 1.3773583,4.38459 z"
           style="fill:#f3f3f3;fill-opacity:1;stroke-width:0.15548837"
           id="path4870"
           inkscape:connector-curvature="0" />
        <path
           d="m -64.124852,257.33821 1.677879,-8.33086 2.419062,0.13832 -4.308216,21.3908 -2.419062,-0.13832 0.465155,-2.30955 q -1.039408,1.33113 -2.345166,1.93784 -1.289845,0.59371 -2.920081,0.50049 -2.668855,-0.1526 -3.903137,-2.47589 -1.221138,-2.32253 -0.49018,-5.95182 0.730958,-3.62929 2.849177,-5.76088 2.131364,-2.13083 4.800219,-1.97822 1.630236,0.0932 2.651511,0.83299 1.037187,0.72677 1.522839,2.1451 z m -9.325804,4.90385 q -0.56206,2.79069 0.207968,4.44778 0.785943,1.64409 2.705416,1.75385 1.919471,0.10976 3.342234,-1.40804 1.425534,-1.53154 1.987594,-4.32224 0.562063,-2.79071 -0.223881,-4.4348 -0.783178,-1.65782 -2.70265,-1.76758 -1.919472,-0.10975 -3.345001,1.42177 -1.409617,1.51855 -1.97168,4.30926 z"
           style="fill:#f3f3f3;fill-opacity:1;stroke-width:0.18316481"
           id="path4872"
           inkscape:connector-curvature="0" />
        <path
           d="m -54.858032,260.83596 q -1.698742,0 -2.499983,1.08969 -0.802844,1.0803 -0.480788,2.96847 0.322058,1.88818 1.48355,2.97787 1.171368,1.0803 2.881588,1.0803 1.687263,0 2.488504,-1.08969 0.801244,-1.08969 0.480788,-2.96848 -0.318852,-1.86938 -1.491823,-2.95907 -1.174573,-1.09909 -2.861836,-1.09909 z m -0.249954,-1.46545 q 2.754715,0 4.577153,1.46545 1.822439,1.46545 2.264666,4.05816 0.440626,2.58333 -0.880299,4.05817 -1.32253,1.46545 -4.077245,1.46545 -2.766194,0 -4.588631,-1.46545 -1.812564,-1.47484 -2.25319,-4.05817 -0.442227,-2.59271 0.868823,-4.05816 1.322529,-1.46545 4.088723,-1.46545 z"
           style="fill:#f3f3f3;fill-opacity:1;stroke-width:0.1406657"
           id="path4874"
           inkscape:connector-curvature="0" />
        <path
           d="m -40.487599,260.83596 q -1.698742,0 -2.499983,1.08969 -0.802845,1.0803 -0.480789,2.96847 0.322058,1.88818 1.483551,2.97787 1.171368,1.0803 2.881588,1.0803 1.687263,0 2.488504,-1.08969 0.801244,-1.08969 0.480788,-2.96848 -0.318852,-1.86938 -1.491823,-2.95907 -1.174573,-1.09909 -2.861836,-1.09909 z m -0.249954,-1.46545 q 2.754715,0 4.577153,1.46545 1.822439,1.46545 2.264666,4.05816 0.440626,2.58333 -0.880299,4.05817 -1.32253,1.46545 -4.077245,1.46545 -2.766194,0 -4.588632,-1.46545 -1.812563,-1.47484 -2.253189,-4.05817 -0.442227,-2.59271 0.868822,-4.05816 1.32253,-1.46545 4.088724,-1.46545 z"
           style="fill:#d8d8d8;fill-opacity:1;stroke-width:0.1406657"
           id="path4876"
           inkscape:connector-curvature="0" />
        <path
           d="m -22.573643,257.00768 -0.97098,-8.30082 h 2.111948 l 2.49314,21.31364 h -2.111948 l -0.269181,-2.30121 q -0.505496,1.36977 -1.448525,2.04096 -0.933153,0.65749 -2.356423,0.65749 -2.33003,0 -4.058781,-2.21903 -1.717271,-2.21903 -2.140272,-5.83523 -0.423001,-3.6162 0.775134,-5.83522 1.209614,-2.21903 3.539644,-2.21903 1.42327,0 2.511843,0.67119 1.098449,0.65748 1.924401,2.02726 z m -6.570206,5.3558 q 0.325262,2.78064 1.4638,4.36958 1.148412,1.57524 2.824198,1.57524 1.675785,0 2.455673,-1.57524 0.778286,-1.58894 0.453024,-4.36958 -0.325261,-2.78063 -1.473674,-4.35587 -1.150014,-1.58893 -2.825799,-1.58893 -1.675786,0 -2.454072,1.58893 -0.768411,1.57524 -0.44315,4.35587 z"
           style="fill:#f3f3f3;fill-opacity:1;stroke-width:0.16985925"
           id="path4878"
           inkscape:connector-curvature="0" />
        <path
           d="m -14.171988,248.70686 h 3.305151 v 21.81811 h -3.305151 z"
           style="fill:#dfdfdf;fill-opacity:1;stroke-width:0.21499233"
           id="path4880"
           inkscape:connector-curvature="0" />
        <path
           d="m 13.239219,262.02769 v 1.26197 H -1.957296 q 0.2155534,2.66416 2.04775732,4.06636 1.85016668,1.38817 5.13735618,1.38817 1.9040551,0 3.6823707,-0.36457 1.7962788,-0.36458 3.5566308,-1.09371 v 2.43981 q -1.778315,0.58892 -3.6464447,0.89741 -1.8681295,0.30847 -3.7901474,0.30847 -4.81402605,0 -7.6341831,-2.18741 -2.8021943,-2.18743 -2.8021943,-5.91725 0,-3.85603 2.658492,-6.11356 2.67645482,-2.27155 7.2030764,-2.27155 4.0595891,0 6.4127141,2.0472 2.371087,2.03318 2.371087,5.53866 z M 9.9340669,261.2705 q -0.035926,-2.11731 -1.5268366,-3.37928 -1.4729483,-1.26197 -3.915887,-1.26197 -2.7662687,0 -4.43680761,1.21991 -1.65257609,1.2199 -1.90405499,3.43536 z"
           style="fill:#f3f3f3;fill-opacity:1;stroke-width:0.21499233"
           id="path4882"
           inkscape:connector-curvature="0" />
        <path
           d="m -53.604197,279.74217 -1.18294,-7.94505 h 5.16089 l 3.037385,20.40017 h -5.160889 l -0.327943,-2.20258 q -1.431599,1.31105 -3.832247,1.95348 -2.374553,0.62931 -5.852544,0.62931 -5.693805,0 -9.600219,-2.12392 -3.878367,-2.12393 -4.393708,-5.58515 -0.51534,-3.4612 2.730563,-5.58514 3.273951,-2.12392 8.967756,-2.12392 3.477991,0 6.041894,0.64243 2.589996,0.62931 4.412002,1.94037 z m -16.823039,5.12626 q 0.396267,2.66146 2.950716,4.18231 2.580542,1.50773 6.675596,1.50773 4.095052,0 6.226623,-1.50773 2.129621,-1.52085 1.733354,-4.18231 -0.396266,-2.66146 -2.976808,-4.16918 -2.582494,-1.52083 -6.677547,-1.52083 -4.095053,0 -6.224672,1.52083 -2.103528,1.50772 -1.707262,4.16918 z"
           style="fill:#d8d8d8;fill-opacity:1;stroke-width:0.25977531"
           id="path4884"
           inkscape:connector-curvature="0" />
        <path
           d="m -29.459384,277.48073 q -3.407339,0 -5.201414,1.58893 -1.795676,1.57524 -1.47362,4.32847 0.322059,2.75325 2.464837,4.34218 2.164201,1.57524 5.594562,1.57524 3.384314,0 5.178389,-1.58893 1.794076,-1.58894 1.47362,-4.32849 -0.318851,-2.72583 -2.484656,-4.31477 -2.167404,-1.60263 -5.551718,-1.60263 z m -0.249956,-2.13685 q 5.52541,0 8.929457,2.13685 3.404041,2.13683 3.846269,5.9174 0.440627,3.76688 -2.461904,5.91742 -2.904136,2.13684 -8.429546,2.13684 -5.548435,0 -8.952478,-2.13684 -3.382625,-2.15054 -3.823252,-5.91742 -0.442228,-3.78057 2.438887,-5.9174 2.904132,-2.13685 8.452567,-2.13685 z"
           style="fill:#f3f3f3;fill-opacity:1;stroke-width:0.24056539"
           id="path4886"
           inkscape:connector-curvature="0" />
        <path
           d="m -0.63515339,277.48073 q -3.40733861,0 -5.20141361,1.58893 -1.7956783,1.57524 -1.4736222,4.32847 0.3220584,2.75325 2.4648395,4.34218 2.1642004,1.57524 5.59456161,1.57524 3.38431409,0 5.17838899,-1.58893 1.7940758,-1.58894 1.4736199,-4.32849 -0.318851,-2.72583 -2.4846559,-4.31477 -2.1674042,-1.60263 -5.55171829,-1.60263 z m -0.24995573,-2.13685 q 5.52541052,0 8.92945642,2.13685 3.4040417,2.13683 3.8462697,5.9174 0.440627,3.76688 -2.4619044,5.91742 -2.9041356,2.13684 -8.42954613,2.13684 -5.54843507,0 -8.95247937,-2.13684 -3.3826231,-2.15054 -3.8232501,-5.91742 -0.442228,-3.78057 2.4388848,-5.9174 2.904134,-2.13685 8.45256908,-2.13685 z"
           style="fill:#f3f3f3;fill-opacity:1;stroke-width:0.24056539"
           id="path4888"
           inkscape:connector-curvature="0" />
      </g>
    </g>
    <path
       style="fill:#c6c6c6;fill-opacity:1;stroke:#000000;stroke-width:0.4221397px;stroke-linecap:butt;stroke-linejoin:miter;stroke-opacity:1"
       d="m 10.989302,259.65003 12.552693,0.18603 -0.238953,30.41303 H 9.4437423 Z"
       id="path1132"
       inkscape:connector-curvature="0"
       sodipodi:nodetypes="ccccc" />
    <path
       style="fill:#a2a2a2;fill-opacity:1;stroke:#000000;stroke-width:0.36160204px;stroke-linecap:butt;stroke-linejoin:miter;stroke-opacity:1"
       d="m 10.607003,259.85857 -2.0699576,1.9084 -0.6415948,29.4234 1.4581693,-1.05082 z"
       id="path1134"
       inkscape:connector-curvature="0"
       sodipodi:nodetypes="ccccc" />
    <path
       style="fill:#e1e1e1;fill-opacity:1;stroke:#000000;stroke-width:0.36353821;stroke-linecap:butt;stroke-linejoin:round;stroke-miterlimit:4;stroke-dasharray:none;stroke-opacity:1"
       d="m 7.8742933,291.40381 13.6624767,0.0171 1.73142,-1.00133 -13.87197,-0.30939 z"
       id="path1136"
       inkscape:connector-curvature="0"
       sodipodi:nodetypes="ccccc" />
    <path
       style="fill:#afafaf;fill-opacity:1;stroke:#000000;stroke-width:0.34951192;stroke-linecap:round;stroke-linejoin:bevel;stroke-miterlimit:4;stroke-dasharray:none;stroke-opacity:1;paint-order:stroke fill markers"
       d="m 1.3114946,218.43093 22.2476644,-0.94949 v 12.72249 H 1.1793784 Z"
       id="rect881"
       inkscape:connector-curvature="0"
       sodipodi:nodetypes="ccccc" />
    <path
       style="fill:#bdbdbd;fill-opacity:1;stroke:#000000;stroke-width:0.34251431;stroke-linecap:round;stroke-linejoin:bevel;stroke-miterlimit:4;stroke-dasharray:none;stroke-opacity:1;paint-order:stroke fill markers"
       d="m 1.969632,230.97169 h 21.593025 v 12.66335 H 1.969632 Z"
       id="rect883"
       inkscape:connector-curvature="0" />
    <path
       style="fill:#afafaf;fill-opacity:1;stroke:#000000;stroke-width:0.342;stroke-linecap:round;stroke-linejoin:bevel;stroke-miterlimit:4;stroke-dasharray:none;stroke-opacity:1;paint-order:stroke fill markers"
       d="M 2.2339638,244.3329 H 23.430616 v 12.86227 H 2.2339638 Z"
       id="rect885"
       inkscape:connector-curvature="0" />
    <path
       style="fill:#474747;stroke:#000000;stroke-width:0.165;stroke-linecap:butt;stroke-linejoin:miter;stroke-opacity:1;stroke-miterlimit:4;stroke-dasharray:none;fill-opacity:1"
       d="m 2.1982917,244.28776 -1.59025357,0.28063 0.28063298,12.18415 1.28623449,0.51449 z"
       id="path890"
       inkscape:connector-curvature="0" />
    <path
       inkscape:connector-curvature="0"
       id="path892"
       d="m 1.9644309,230.91092 -1.02898761,0.32741 -0.0701583,12.20753 1.00560161,0.23386 z"
       style="fill:#474747;fill-opacity:1;stroke:#000000;stroke-width:0.16500001;stroke-linecap:butt;stroke-linejoin:miter;stroke-miterlimit:4;stroke-dasharray:none;stroke-opacity:1"
       sodipodi:nodetypes="ccccc" />
    <path
       sodipodi:nodetypes="ccccc"
       style="fill:#474747;fill-opacity:1;stroke:#000000;stroke-width:0.14035203;stroke-linecap:butt;stroke-linejoin:miter;stroke-miterlimit:4;stroke-dasharray:none;stroke-opacity:1"
       d="m 1.2738062,218.33845 -0.74287931,0.30475 -0.0740368,11.41607 0.60906531,0.21099 z"
       id="path894"
       inkscape:connector-curvature="0" />
    <g
       aria-label="trg"
       transform="scale(1.0194966,0.98087624)"
       style="font-style:normal;font-weight:normal;font-size:2.87486291px;line-height:1.25;font-family:sans-serif;letter-spacing:0px;word-spacing:0px;fill:#000000;fill-opacity:1;stroke:none;stroke-width:0.07187158"
       id="text898">
      <path
         d="m 19.369058,273.29735 -0.148579,0.73956 0.520786,0.11303 -0.06682,0.33258 -0.520786,-0.11303 -0.284071,1.41399 q -0.06401,0.31861 -0.03139,0.42035 0.034,0.10198 0.192027,0.13627 l 0.259706,0.0564 -0.07195,0.35814 -0.259705,-0.0564 q -0.292685,-0.0635 -0.367078,-0.2714 -0.07392,-0.21021 0.02419,-0.69861 l 0.284071,-1.41399 -0.185504,-0.0403 0.06681,-0.33257 0.185504,0.0403 0.148577,-0.73956 z"
         style="stroke-width:0.0935019"
         id="path924"
         inkscape:connector-curvature="0" />
      <path
         d="m 20.999928,274.1158 c -0.0348,-0.0338 -0.07296,-0.0582 -0.11448,-0.0732 -0.0404,-0.0168 -0.08529,-0.0252 -0.134672,-0.0252 -0.175082,0 -0.309761,0.0956 -0.404037,0.28686 -0.09315,0.18936 -0.139733,0.46216 -0.139733,0.8184 v 0.944 l -0.311446,0.0477 v -2.48223 h 0.311446 v 0.48934 c 0.06509,-0.19124 0.149828,-0.33279 0.254205,-0.42465 0.104377,-0.0938 0.231199,-0.14064 0.380467,-0.14064 0.02132,0 0.04489,0.003 0.07071,0.008 0.02581,0.004 0.05443,0.0107 0.08586,0.02 z"
         style="stroke-width:0.11140583"
         id="path926"
         inkscape:connector-curvature="0"
         sodipodi:nodetypes="ccscsccccccsccc" />
      <path
         d="m 21.969364,275.03908 c 0,-0.31678 -0.02742,-0.56228 -0.08227,-0.73651 -0.05419,-0.17423 -0.130513,-0.26134 -0.22898,-0.26134 -0.0978,0 -0.174131,0.0871 -0.22898,0.26134 -0.05419,0.17423 -0.08128,0.41973 -0.08128,0.73651 0,0.31519 0.02709,0.55989 0.08128,0.73411 0.05485,0.17424 0.131173,0.26136 0.22898,0.26136 0.09846,0 0.174792,-0.0871 0.22898,-0.26136 0.05485,-0.17422 0.08227,-0.41892 0.08227,-0.73411 z m 0.182391,1.0311 c 0,0.45299 -0.04196,0.78956 -0.125889,1.00972 -0.08393,0.22175 -0.212459,0.33262 -0.385598,0.33262 -0.0641,0 -0.124567,-0.0119 -0.1814,-0.0357 -0.05683,-0.0222 -0.593729,-0.31933 -0.647256,-0.36685 l 0.20645,-0.28223 c 0.05353,0.0697 0.38166,0.2404 0.433867,0.27357 0.05221,0.0333 0.105404,0.0499 0.159592,0.0499 0.119611,0 0.209155,-0.0752 0.26863,-0.22571 0.05947,-0.14889 0.08921,-0.37459 0.08921,-0.6771 v -0.2162 c -0.03767,0.15681 -0.08591,0.27401 -0.144723,0.35162 -0.05881,0.0776 -0.129192,0.11644 -0.211137,0.11644 -0.136133,0 -0.245832,-0.12433 -0.329097,-0.37299 -0.08326,-0.24867 -0.124898,-0.57812 -0.124898,-0.98835 0,-0.41181 0.04163,-0.74205 0.124898,-0.99072 0.08327,-0.24867 0.192964,-0.373 0.329097,-0.373 0.08194,0 0.152322,0.0388 0.211137,0.11644 0.05881,0.0776 0.107054,0.19484 0.144723,0.35163 v -0.4039 h 0.182391 z"
         style="stroke-width:0.0785723"
         id="path928"
         inkscape:connector-curvature="0"
         sodipodi:nodetypes="scscscscsccsccccscsccscscsccccc" />
    </g>
    <g
       aria-label="eoc"
       transform="matrix(0.87792806,0,0,2.0931498,0,-232.17222)"
       style="font-style:normal;font-weight:normal;font-size:2.47565603px;line-height:1.25;font-family:sans-serif;letter-spacing:0px;word-spacing:0px;fill:#000000;fill-opacity:1;stroke:none;stroke-width:0.0618914"
       id="text906">
      <path
         d="m 22.962019,243.99449 v 0.1088 l -1.022659,0.0894 c 0.0097,0.15311 0.05561,0.18058 0.137805,0.26117 0.08301,0.0798 0.198246,0.11968 0.345722,0.11968 0.08542,0 0.168025,-0.0105 0.247807,-0.0314 0.08059,-0.0209 0.16037,-0.0524 0.239346,-0.0943 v 0.21033 c -0.07978,0.0339 -0.161579,0.0597 -0.24539,0.0774 -0.08381,0.0177 -0.168831,0.0266 -0.25506,0.0266 -0.215975,0 -0.387224,-0.0629 -0.513747,-0.18857 -0.125717,-0.12572 -0.188576,-0.29576 -0.188576,-0.51012 0,-0.22162 0.05964,-0.3973 0.178905,-0.52705 0.120076,-0.13055 0.281655,-0.19583 0.484736,-0.19583 0.182128,0 0.325977,0.0588 0.431547,0.17649 0.106376,0.11685 0.159564,0.27601 0.159564,0.47748 z m -0.222422,-0.0653 c -0.0016,-0.12169 -0.03585,-0.2188 -0.10275,-0.29133 -0.06608,-0.0725 -0.153921,-0.10879 -0.263522,-0.10879 -0.124105,0 -0.223631,0.0351 -0.298577,0.10517 -0.07414,0.0701 -0.116853,0.26938 -0.128135,0.39671 z"
         style="stroke-width:0.0618914"
         id="path917"
         inkscape:connector-curvature="0"
         sodipodi:nodetypes="ccccscccsscscscccccsccc" />
      <path
         d="m 23.767779,243.53029 q -0.178498,0.005 -0.259683,0.1479 -0.08138,0.14164 -0.04233,0.38406 0.03905,0.24241 0.164102,0.37941 0.126065,0.13576 0.30577,0.13067 0.177291,-0.005 0.258475,-0.14787 0.08119,-0.14284 0.04233,-0.38405 -0.03866,-0.24002 -0.164921,-0.37698 -0.126452,-0.13817 -0.303744,-0.13314 z m -0.03031,-0.18815 q 0.289456,-0.008 0.484995,0.17526 0.195539,0.18346 0.249161,0.51634 0.05343,0.33167 -0.0813,0.52571 -0.134923,0.19282 -0.424379,0.20102 -0.290663,0.008 -0.486201,-0.17522 -0.194528,-0.18471 -0.247955,-0.51637 -0.05362,-0.33288 0.0801,-0.52567 0.134923,-0.19284 0.425585,-0.20107 z"
         style="stroke-width:0.0618914"
         id="path919"
         inkscape:connector-curvature="0" />
      <path
         d="m 25.814825,243.18343 v 0.24551 q -0.09429,-0.0614 -0.189784,-0.0914 -0.09429,-0.0314 -0.190993,-0.0314 -0.216378,0 -0.336051,0.16271 -0.119673,0.16128 -0.119673,0.45389 0,0.29259 0.119673,0.45532 0.119673,0.16129 0.336051,0.16129 0.09671,0 0.190993,-0.03 0.0955,-0.0314 0.189784,-0.0927 v 0.24265 q -0.09308,0.0514 -0.19341,0.0771 -0.09912,0.0258 -0.211543,0.0258 -0.305831,0 -0.485944,-0.22695 -0.180114,-0.22694 -0.180114,-0.61231 0,-0.3911 0.181323,-0.61518 0.182531,-0.22411 0.499241,-0.22411 0.102749,0 0.200663,0.0258 0.09791,0.0244 0.189784,0.0743 z"
         style="stroke-width:0.06725306"
         id="path921"
         inkscape:connector-curvature="0" />
      <g
         aria-label="poly"
         transform="matrix(2.4522945,0,0,2.1231756,-69.322378,-406.10398)"
         style="font-style:normal;font-weight:normal;font-size:1.05467272px;line-height:1.25;font-family:sans-serif;letter-spacing:0px;word-spacing:0px;fill:#000000;fill-opacity:1;stroke:none;stroke-width:0.00163188"
         id="text933">
        <path
           d="m 33.763349,302.77256 v 0.40526 h -0.09527 v -1.05476 h 0.09527 v 0.11592 q 0.02987,-0.0682 0.07519,-0.10095 0.04583,-0.0334 0.109175,-0.0334 0.105056,0 0.170458,0.11049 0.06592,0.11049 0.06592,0.29063 0,0.18012 -0.06592,0.29064 -0.0654,0.11049 -0.170458,0.11049 -0.06334,0 -0.109175,-0.0327 -0.04532,-0.0334 -0.07519,-0.10161 z m 0.322375,-0.26676 q 0,-0.1385 -0.04326,-0.21695 -0.04274,-0.0791 -0.117929,-0.0791 -0.07519,0 -0.118445,0.0791 -0.04274,0.0784 -0.04274,0.21695 0,0.13849 0.04274,0.21764 0.04326,0.0784 0.118445,0.0784 0.07519,0 0.117929,-0.0784 0.04326,-0.0791 0.04326,-0.21764 z"
           style="stroke-width:0.0018783"
           id="path935"
           inkscape:connector-curvature="0" />
        <path
           d="m 34.564653,302.37968 q -0.07622,0 -0.120505,0.0597 -0.04429,0.0592 -0.04429,0.16273 0,0.10351 0.04377,0.16325 0.04429,0.0592 0.12102,0.0592 0.0757,0 0.119989,-0.0597 0.04429,-0.0597 0.04429,-0.16274 0,-0.10248 -0.04429,-0.16221 -0.04429,-0.0603 -0.119989,-0.0603 z m 0,-0.0803 q 0.123594,0 0.194146,0.0803 0.07055,0.0803 0.07055,0.22247 0,0.14162 -0.07055,0.22247 -0.07055,0.0803 -0.194146,0.0803 -0.12411,0 -0.194661,-0.0803 -0.07004,-0.0808 -0.07004,-0.22247 0,-0.14213 0.07004,-0.22247 0.07055,-0.0803 0.194661,-0.0803 z"
           style="stroke-width:0.00163188"
           id="path937"
           inkscape:connector-curvature="0" />
        <path
           d="m 34.917081,302.16044 0.09443,-0.004 0.137976,0.79852 -0.09443,0.004 z"
           style="stroke-width:0.00163188"
           id="path939"
           inkscape:connector-curvature="0" />
        <path
           d="m 35.51839,303.01199 c -0.02678,0.0687 -0.05287,0.11347 -0.07828,0.13441 -0.02541,0.0209 -0.05939,0.0314 -0.101966,0.0314 h -0.0757 v -0.0793 h 0.05562 c 0.02609,0 0.04635,-0.006 0.06077,-0.0185 0.01442,-0.0123 0.03038,-0.0415 0.04789,-0.0876 l 0.01699,-0.0433 -0.233284,-0.56751 h 0.10042 l 0.180242,0.45112 0.104205,-0.65635 0.176458,0.0211 z"
           style="stroke-width:0.00163188"
           id="path941"
           inkscape:connector-curvature="0"
           sodipodi:nodetypes="ccsccsscccccccc" />
      </g>
    </g>
    <g
       aria-label="cv"
       transform="matrix(1.0194966,0,0,2.0575314,0,-312.25393)"
       style="font-style:normal;font-weight:normal;font-size:2.87486291px;line-height:1.25;font-family:sans-serif;letter-spacing:0px;word-spacing:0px;fill:#000000;fill-opacity:1;stroke:none;stroke-width:0.07187158"
       id="text910">
      <path
         d="m 20.309217,290.12043 v 0.24145 c -0.07299,-0.0403 -0.146457,-0.0702 -0.220387,-0.0898 -0.073,-0.0206 -0.146925,-0.0309 -0.221791,-0.0309 -0.167513,0 -0.297593,0.0533 -0.39024,0.16002 -0.09265,0.10575 -0.09309,0.26591 -0.09309,0.45776 0,0.19184 4.46e-4,0.32974 0.09309,0.43643 0.09265,0.10575 0.222727,0.15862 0.39024,0.15862 0.07487,0 0.148796,-0.01 0.221791,-0.0295 0.07393,-0.0206 0.101515,0.0172 0.174509,-0.023 l 0.04588,0.17043 c -0.07206,0.0337 -0.146925,0.0589 -0.224598,0.0758 -0.07674,0.0169 -0.158623,0.0253 -0.245655,0.0253 -0.236765,0 -0.424866,-0.0744 -0.564304,-0.22319 -0.139439,-0.1488 -0.209158,-0.34954 -0.209158,-0.60221 0,-0.25641 0.07019,-0.45808 0.210561,-0.60501 0.14131,-0.14693 0.334559,-0.22039 0.579746,-0.22039 0.07954,0 0.157219,0.008 0.233021,0.0253 0.0758,0.0159 0.149264,0.0403 0.220387,0.073 z"
         style="stroke-width:0.07187158"
         id="path912"
         inkscape:connector-curvature="0"
         sodipodi:nodetypes="cccscscsccccscscsccc" />
      <path
         d="m 20.575928,290.151 0.27373,-0.0227 0.49131,1.25132 0.238982,-1.30815 0.526057,-0.0114 -0.589572,1.57219 H 21.1655 Z"
         style="stroke-width:0.07187158"
         id="path914"
         inkscape:connector-curvature="0"
         sodipodi:nodetypes="cccccccc" />
    </g>
    <g
       aria-label="pattern"
       transform="scale(0.96957681,1.0313778)"
       style="font-style:normal;font-weight:normal;font-size:4.08296299px;line-height:1.25;font-family:sans-serif;letter-spacing:0px;word-spacing:0px;fill:#000000;fill-opacity:1;stroke:none;stroke-width:0.10207406"
       id="text946">
      <path
         d="m 2.4214389,214.90462 v 1.18422 H 2.0526166 v -3.08216 h 0.3688223 v 0.33892 q 0.1156308,-0.19937 0.2910706,-0.29506 0.1774335,-0.0977 0.4226505,-0.0977 0.4067014,0 0.6598929,0.32297 0.2551852,0.32297 0.2551852,0.84929 0,0.52632 -0.2551852,0.84928 -0.2531915,0.32297 -0.6598929,0.32297 -0.245217,0 -0.4226505,-0.0957 -0.1754398,-0.0977 -0.2910706,-0.29705 z m 1.2480151,-0.77951 q 0,-0.40471 -0.1674653,-0.63398 -0.1654717,-0.23126 -0.4565423,-0.23126 -0.2910706,0 -0.4585358,0.23126 -0.1654717,0.22927 -0.1654717,0.63398 0,0.4047 0.1654717,0.63597 0.1674652,0.22926 0.4585358,0.22926 0.2910706,0 0.4565423,-0.22926 0.1674653,-0.23127 0.1674653,-0.63597 z"
         style="stroke-width:0.10207406"
         id="path992" />
      <path
         d="m 5.5794836,213.91167 c -0.3342921,0 -0.565898,0.0398 -0.6948179,0.11938 -0.1289197,0.0796 -0.1933796,0.21534 -0.1933796,0.40728 0,0.15293 0.04797,0.27464 0.1439105,0.36515 0.097439,0.0889 0.2293573,0.13341 0.3957538,0.13341 0.2293573,0 0.412993,-0.0843 0.5509073,-0.25279 0.1394133,-0.17009 0.20912,-0.39558 0.20912,-0.67646 v -0.0959 z m 0.8252367,-0.17789 v 1.38347 l -0.4137426,0.11223 v -0.39792 c -0.094441,0.15917 -0.2121182,0.27698 -0.3530305,0.35345 -0.1409123,0.0749 -0.3133051,0.11236 -0.5171783,0.11236 -0.2578397,0 -0.4632119,-0.0749 -0.6161168,-0.22471 -0.1514058,-0.15136 -0.2271087,-0.35344 -0.2271087,-0.60624 0,-0.29492 0.094441,-0.51728 0.2833238,-0.66709 0.1903815,-0.14981 0.4737053,-0.22471 0.8499712,-0.22471 h 0.5801393 v -0.0422 c 0,-0.19817 -0.062961,-0.3511 -0.1888826,-0.45877 -0.1244227,-0.10923 -0.2998136,-0.16384 -0.5261727,-0.16384 -0.1439105,0 -0.2840733,0.018 -0.4204884,0.0539 -0.1364152,0.0359 -0.131141,0.01 -0.2570626,0.0813 l -0.034111,-0.31775 c 0.1514058,-0.0609 0.1959824,-0.10612 0.3383939,-0.13576 0.1424113,-0.0312 0.2810751,-0.0468 0.4159912,-0.0468 0.3642734,0 0.6363542,0.0983 0.8162424,0.29493 0.1798881,0.19662 0.2698321,0.49467 0.2698321,0.89415 z"
         style="stroke-width:0.11746235"
         id="path994"
         inkscape:connector-curvature="0"
         sodipodi:nodetypes="ccscscscccccccscscscscsscccsscc" />
      <path
         d="m 7.7145195,212.37689 -0.083556,0.6291 0.7497655,0.088 -0.037574,0.28289 -0.7497655,-0.088 -0.1597544,1.20279 c -0.023997,0.18068 -0.015014,0.2996 0.026951,0.35677 0.043281,0.0573 0.1407547,0.0949 0.292422,0.11273 l 0.8343877,0.0439 -0.040464,0.25655 -0.8343873,0.004 c -0.2809147,-0.033 -0.4678662,-0.10785 -0.5608543,-0.22455 -0.092813,-0.11805 -0.1208272,-0.31555 -0.084042,-0.59251 l 0.1597543,-1.20279 -0.2670669,-0.0313 0.037574,-0.2829 0.2670669,0.0314 0.083556,-0.62909 z"
         style="stroke-width:0.10207406"
         id="path996"
         inkscape:connector-curvature="0"
         sodipodi:nodetypes="ccccccccccccccccccc" />
      <path
         d="m 9.1280247,212.61888 v 0.63398 l 0.7555874,-0.0844 v 0.28509 l -0.7555874,0.0844 v 1.21213 q 0,0.27312 0.073765,0.34264 0.075758,0.0693 0.305026,0.0437 l 0.3767969,-0.0421 v 0.30702 l -0.3767974,0.0421 q -0.4246441,0.0474 -0.5861284,-0.092 -0.1614844,-0.14145 -0.1614844,-0.56011 v -1.21213 l -0.2691407,0.0301 v -0.28509 l 0.2691407,-0.0301 v -0.63398 z"
         style="stroke-width:0.10207406"
         id="path998"
         inkscape:connector-curvature="0" />
      <path
         d="m 12.277966,213.92574 v 0.17942 l -1.686614,0.1884 q 0.02392,0.37612 0.227274,0.55277 0.205344,0.17444 0.570179,0.13368 0.211326,-0.0236 0.408695,-0.0974 0.199364,-0.0741 0.39474,-0.19959 v 0.34689 q -0.19737,0.10575 -0.404708,0.1728 -0.207338,0.0671 -0.420657,0.0909 -0.534294,0.0597 -0.847294,-0.21635 -0.311007,-0.27627 -0.311007,-0.80658 0,-0.54825 0.295058,-0.90218 0.297051,-0.35615 0.799447,-0.41227 0.450562,-0.0503 0.711728,0.21157 0.263159,0.25968 0.263159,0.75809 z m -0.366828,-0.0667 q -0.004,-0.30059 -0.169459,-0.46154 -0.163478,-0.16116 -0.434613,-0.13088 -0.307019,0.0343 -0.492427,0.22845 -0.183415,0.19394 -0.211325,0.51204 z"
         style="stroke-width:0.10207406"
         id="path1000"
         inkscape:connector-curvature="0" />
      <path
         d="m 14.173913,213.03214 q -0.0618,-0.029 -0.135567,-0.0367 -0.07177,-0.01 -0.15949,-9e-5 -0.311007,0.0347 -0.478473,0.2568 -0.165471,0.21983 -0.165471,0.59862 v 1.17625 l -0.368823,0.0412 v -2.23287 l 0.368823,-0.0412 v 0.34689 q 0.11563,-0.21626 0.301038,-0.33466 0.185408,-0.12041 0.450562,-0.15003 0.03788,-0.004 0.08373,-0.003 0.04585,-0.001 0.101676,0.003 z"
         style="stroke-width:0.10207406"
         id="path1002"
         inkscape:connector-curvature="0" />
      <path
         d="m 16.350962,213.50474 v 1.50806 h -0.366829 v -1.49468 q 0,-0.35471 -0.123605,-0.53094 -0.123606,-0.17624 -0.370816,-0.17624 -0.297052,0 -0.468504,0.21194 -0.171453,0.21192 -0.171453,0.57779 v 1.41213 h -0.368822 v -2.49856 h 0.368822 v 0.38817 q 0.13158,-0.22532 0.309013,-0.33686 0.179427,-0.11157 0.412683,-0.11157 0.384771,0 0.582141,0.26771 0.19737,0.26547 0.19737,0.78303 z"
         style="stroke-width:0.10797627"
         id="path1004"
         inkscape:connector-curvature="0" />
    </g>
    <g
       aria-label="legnth"
       transform="matrix(1.0899124,0,0,1.2115039,0,-74.159562)"
       style="font-style:normal;font-weight:normal;font-size:3.78091002px;line-height:1.25;font-family:sans-serif;letter-spacing:0px;word-spacing:0px;fill:#000000;fill-opacity:1;stroke:none;stroke-width:0.09452273"
       id="text954">
      <path
         d="m 2.6129443,252.24431 h 0.3396911 v 2.8726 H 2.6129443 Z"
         style="stroke-width:0.09452273"
         id="path979"
         inkscape:connector-curvature="0" />
      <path
         d="m 5.3791781,253.79421 0.044235,0.16132 -1.5163789,0.33654 q 0.1148974,0.33579 0.3468733,0.47445 0.2332786,0.13647 0.5612895,0.0637 0.1899956,-0.0422 0.3546647,-0.12816 0.1664616,-0.0864 0.3165589,-0.21857 l 0.085524,0.31188 q -0.1568152,0.11463 -0.3324007,0.19547 -0.1756013,0.0808 -0.3673892,0.12336 -0.4803659,0.10661 -0.8384508,-0.11055 -0.3562925,-0.21756 -0.487034,-0.69434 -0.1351663,-0.49291 0.050976,-0.84036 0.1874426,-0.34965 0.6391299,-0.4499 0.4050847,-0.0899 0.7116522,0.11968 0.3078674,0.20739 0.4307468,0.65549 z m -0.3563473,-0.0236 q -0.077802,-0.26986 -0.2708122,-0.39816 -0.1912131,-0.1287 -0.4349808,-0.0746 -0.2760311,0.0613 -0.3999621,0.25421 -0.1221413,0.19253 -0.069576,0.4813 z"
         style="stroke-width:0.09452273"
         id="path981"
         inkscape:connector-curvature="0" />
      <path
         d="m 7.305399,253.6344 c 0,-0.24615 -0.051077,-0.43692 -0.1532302,-0.57231 -0.1009227,-0.13538 -0.2430761,-0.20307 -0.4264601,-0.20307 -0.1821532,0 -0.3243065,0.0677 -0.42646,0.20307 -0.1009227,0.13539 -0.1513841,0.32616 -0.1513841,0.57231 0,0.24492 0.050461,0.43507 0.1513841,0.57046 0.1021535,0.13539 0.2443068,0.20308 0.42646,0.20308 0.183384,0 0.3255374,-0.0677 0.4264601,-0.20308 0.1021535,-0.13539 0.1532302,-0.32554 0.1532302,-0.57046 z m 0.3396912,0.80123 c 0,0.352 -0.078154,0.61354 -0.2344608,0.78461 -0.1563071,0.17231 -0.3956909,0.25846 -0.7181513,0.25846 -0.1193842,0 -0.2319992,-0.009 -0.337845,-0.0277 -0.1058458,-0.0172 -0.2086147,-0.0443 -0.3083066,-0.0812 v -0.33046 c 0.099692,0.0541 0.1981531,0.0941 0.2953835,0.12 0.097231,0.0259 0.1963071,0.0388 0.2972298,0.0388 0.2227685,0 0.3895371,-0.0585 0.500306,-0.17539 0.1107688,-0.11569 0.1661532,-0.29107 0.1661532,-0.52615 v -0.168 c -0.070154,0.12185 -0.1599994,0.21292 -0.2695375,0.27323 -0.1095381,0.0603 -0.2406145,0.0905 -0.3932294,0.0905 -0.2535376,0 -0.4578446,-0.0966 -0.612921,-0.28984 -0.1550764,-0.19323 -0.2326146,-0.44923 -0.2326146,-0.768 0,-0.32 0.077538,-0.57661 0.2326146,-0.76984 0.1550764,-0.19323 0.3593834,-0.28985 0.612921,-0.28985 0.1526149,0 0.2836913,0.0302 0.3932294,0.0905 0.1095381,0.0603 0.1083502,-0.12158 0.1785038,2.4e-4 l 0.091034,-0.0409 h 0.3396912 z"
         style="stroke-width:0.09452273"
         id="path983"
         inkscape:connector-curvature="0"
         sodipodi:nodetypes="scscscscsscscccsscsccscscsscccs" />
      <path
         d="m 10.106457,253.77791 v 1.339 H 9.7667657 v -1.32713 c 0,-0.20995 -0.038154,-0.36709 -0.1144611,-0.47142 -0.076308,-0.10432 -0.1907686,-0.15648 -0.3433835,-0.15648 -0.1833839,0 -0.3279988,0.0627 -0.4338446,0.18817 -0.1058458,0.12545 -0.1587687,0.29646 -0.1587687,0.51303 v 1.25383 H 8.3747705 v -2.21847 l 0.326365,-0.12285 0.015172,0.4675 c 0.081231,-0.13337 0.1766148,-0.23307 0.2861529,-0.2991 0.1107688,-0.066 0.238153,-0.099 0.3821525,-0.099 0.2375376,0 0.4172293,0.0792 0.539075,0.2377 0.1218458,0.15714 0.1827688,0.38889 0.1827688,0.69526 z"
         style="stroke-width:0.09790877"
         id="path985"
         inkscape:connector-curvature="0"
         sodipodi:nodetypes="cccscsssccccccsccc" />
      <path
         d="m 11.037857,252.65518 v 0.58708 h 0.69969 v 0.264 h -0.69969 v 1.12245 c 0,0.16862 0.02277,0.27693 0.06831,0.32493 0.04677,0.048 0.14092,0.072 0.282461,0.072 h 0.348922 v 0.2843 h -0.348922 c -0.262153,0 -0.443075,-0.0486 -0.542767,-0.14584 -0.09969,-0.0985 -0.149538,-0.27692 -0.149538,-0.53539 v -1.12245 h -0.173369 l -0.07586,-0.264 h 0.24923 v -0.58708 z"
         style="stroke-width:0.09452273"
         id="path987"
         inkscape:connector-curvature="0"
         sodipodi:nodetypes="cccccscsccscscccccc" />
      <path
         d="m 13.990751,254.10056 v 1.24799 l -0.339691,-0.0909 v -1.23692 c 0,-0.19569 -0.03815,-0.35235 -0.114461,-0.47 -0.07631,-0.11764 -0.190769,-0.19688 -0.343384,-0.23771 -0.183384,-0.0491 -0.327999,-0.0293 -0.433844,0.0593 -0.105846,0.0886 -0.158769,0.23382 -0.158769,0.43567 v 1.4416 l -0.341537,-0.0505 v -3.18654 l 0.341537,0.0914 v 1.12615 c 0.08123,-0.10257 0.176615,-0.16998 0.286153,-0.20221 0.110769,-0.0319 0.238153,-0.0286 0.382152,0.01 0.237538,0.0635 0.41723,0.18545 0.539075,0.36576 0.121846,0.17906 0.182769,0.41136 0.182769,0.6969 z"
         style="stroke-width:0.09452273"
         id="path989"
         inkscape:connector-curvature="0"
         sodipodi:nodetypes="cccscccscccccccccc" />
    </g>
    <text
       xml:space="preserve"
       style="font-style:normal;font-weight:normal;font-size:10.58333302px;line-height:1.25;font-family:sans-serif;letter-spacing:0px;word-spacing:0px;fill:#000000;fill-opacity:1;stroke:none;stroke-width:0.26458332"
       x="-12.722029"
       y="251.53745"
       id="text958"><tspan
         sodipodi:role="line"
         id="tspan956"
         x="-12.722029"
         y="260.90121"
         style="stroke-width:0.26458332"></tspan></text>
    <g
       aria-label="density"
       transform="scale(0.98633055,1.0138589)"
       style="font-style:normal;font-weight:normal;font-size:3.42158413px;line-height:1.25;font-family:sans-serif;letter-spacing:0px;word-spacing:0px;fill:#000000;fill-opacity:1;stroke:none;stroke-width:0.08553959"
       id="text962">
      <path
         d="m 4.4795388,242.32082 v -1.22409 h 0.4207241 v 3.14306 H 4.4795388 v -0.33935 q -0.1326191,0.202 -0.336122,0.30097 -0.2012159,0.097 -0.4847475,0.097 -0.4641685,0 -0.7568462,-0.32723 -0.2903911,-0.32723 -0.2903911,-0.86051 0,-0.53327 0.2903911,-0.8605 0.2926777,-0.32723 0.7568462,-0.32723 0.2835316,0 0.4847475,0.099 0.2035023,0.097 0.336122,0.29895 z m -1.4336634,0.78981 q 0,0.41006 0.1897832,0.64438 0.1920697,0.23229 0.5259052,0.23229 0.3338356,0 0.5259053,-0.23229 0.1920697,-0.23432 0.1920697,-0.64438 0,-0.41005 -0.1920697,-0.64235 -0.1920697,-0.23432 -0.5259053,-0.23432 -0.3338355,0 -0.5259052,0.23432 -0.1897832,0.2323 -0.1897832,0.64235 z"
         style="stroke-width:0.1100352"
         id="path964"
         inkscape:connector-curvature="0" />
      <path
         d="m 7.1313579,242.94634 0.00764,0.16851 -1.411679,-0.17776 q 0.036159,0.35831 0.2148545,0.56698 0.1802786,0.20702 0.4856418,0.24546 0.176877,0.0217 0.3398675,-0.006 0.164659,-0.0276 0.3237685,-0.1044 l 0.014777,0.3258 q -0.1616281,0.0579 -0.3333008,0.0772 -0.1716691,0.0194 -0.3502148,-0.003 -0.4471986,-0.0563 -0.7224245,-0.3814 -0.2735578,-0.32487 -0.2961478,-0.82297 -0.023354,-0.51492 0.2099339,-0.78529 0.2348716,-0.27203 0.6553717,-0.21907 0.3771152,0.0474 0.6081073,0.34838 0.2325758,0.29924 0.2538065,0.76736 z m -0.3116168,-0.13976 q -0.016159,-0.28315 -0.1623016,-0.46912 -0.1444729,-0.18575 -0.3714095,-0.21433 -0.2569723,-0.0323 -0.4047681,0.11096 -0.1461275,0.14358 -0.1560708,0.43649 z"
         style="stroke-width:0.09024349"
         id="path966"
         inkscape:connector-curvature="0" />
      <path
         d="m 9.1828605,243.07432 0.057408,1.26579 -0.3070319,-0.0386 -0.056899,-1.25456 q -0.013503,-0.29772 -0.1236684,-0.45868 -0.1101651,-0.16094 -0.3170779,-0.18698 -0.248629,-0.0313 -0.3840656,0.12849 -0.1354361,0.15982 -0.1215088,0.4669 l 0.053757,1.18527 -0.3087005,-0.0388 -0.095115,-2.09717 0.3087005,0.0388 0.014777,0.32581 q 0.1015537,-0.17525 0.2458171,-0.25018 0.1459343,-0.0747 0.3411665,-0.0501 0.3220497,0.0406 0.4974368,0.28605 0.1753023,0.24362 0.1950046,0.67803 z"
         style="stroke-width:0.09024349"
         id="path968"
         inkscape:connector-curvature="0" />
      <path
         d="m 10.955106,242.5323 0.01478,0.32581 q -0.13355,-0.0913 -0.275417,-0.14638 -0.141864,-0.0551 -0.292044,-0.074 -0.228604,-0.0288 -0.340173,0.0354 -0.1098999,0.0644 -0.1027678,0.22164 0.00543,0.11983 0.090341,0.19942 0.08482,0.0778 0.334585,0.17058 l 0.106314,0.0394 q 0.330624,0.1199 0.473991,0.28124 0.144952,0.15974 0.156587,0.41627 0.01325,0.29211 -0.185938,0.43644 -0.197515,0.14455 -0.557944,0.0992 -0.150179,-0.0191 -0.315236,-0.0732 -0.1633026,-0.0522 -0.3464906,-0.14045 l -0.016136,-0.35577 q 0.174701,0.12063 0.3421926,0.19203 0.167402,0.0694 0.329262,0.0898 0.216924,0.0273 0.329994,-0.0404 0.112983,-0.0696 0.106105,-0.22123 -0.0064,-0.14043 -0.09487,-0.22605 -0.08683,-0.0854 -0.375312,-0.1906 l -0.108069,-0.0415 q -0.2883939,-0.10329 -0.4214976,-0.25785 -0.1331868,-0.15642 -0.1442268,-0.39983 -0.013418,-0.29585 0.1661676,-0.43336 0.1795848,-0.13749 0.5233268,-0.0942 0.170203,0.0217 0.321658,0.0689 0.151454,0.047 0.280818,0.1192 z"
         style="stroke-width:0.09024349"
         id="path970"
         inkscape:connector-curvature="0" />
      <path
         d="m 11.443848,242.28088 0.458299,0.0979 v 1.87118 h -0.307408 z m -0.0503,-0.61425 0.508596,-0.0163 v 0.38927 l -0.475064,0.0163 z"
         style="stroke-width:0.08553959"
         id="path972"
         inkscape:connector-curvature="0"
         sodipodi:nodetypes="cccccccccc" />
      <path
         d="m 12.847761,241.84746 v 0.53128 h 0.633194 v 0.23891 h -0.633194 v 1.01579 q 0,0.22888 0.06182,0.29404 0.06349,0.0652 0.255616,0.0652 h 0.315762 v 0.25728 h -0.315762 q -0.355858,0 -0.491184,-0.13198 -0.135326,-0.13366 -0.135326,-0.4845 v -1.01579 h -0.225544 v -0.23891 h 0.225544 v -0.53128 z"
         style="stroke-width:0.08553959"
         id="path974" />
      <path
         d="m 14.90258,243.87009 q -0.130315,0.33414 -0.253946,0.43605 -0.123632,0.10191 -0.330798,0.10191 h -0.245592 v -0.25729 h 0.180435 q 0.126973,0 0.197142,-0.0601 0.07017,-0.0601 0.155375,-0.28402 l 0.05513,-0.14034 -0.756825,-1.84111 h 0.325785 l 0.584744,1.46353 0.584743,-1.46353 h 0.325786 z"
         style="stroke-width:0.08553959"
         id="path976"
         inkscape:connector-curvature="0" />
    </g>
  </g>
</svg>
