<?xml version="1.0" encoding="UTF-8" standalone="no"?>
<svg
   xmlns:dc="http://purl.org/dc/elements/1.1/"
   xmlns:cc="http://creativecommons.org/ns#"
   xmlns:rdf="http://www.w3.org/1999/02/22-rdf-syntax-ns#"
   xmlns:svg="http://www.w3.org/2000/svg"
   xmlns="http://www.w3.org/2000/svg"
   xmlns:sodipodi="http://sodipodi.sourceforge.net/DTD/sodipodi-0.dtd"
   xmlns:inkscape="http://www.inkscape.org/namespaces/inkscape"
   width="300"
   height="380"
   viewBox="0 0 79.375004 100.54167"
   version="1.1"
   id="svg8"
   inkscape:version="1.0.1 (c497b03c, 2020-09-10)"
   sodipodi:docname="ComputerscarePultiMolyPanel.svg"
   style="enable-background:new">
  <defs
     id="defs2">
    <inkscape:perspective
       sodipodi:type="inkscape:persp3d"
       inkscape:vp_x="0 : 50.270835 : 1"
       inkscape:vp_y="0 : 1000 : 0"
       inkscape:vp_z="23.812501 : 50.270835 : 1"
       inkscape:persp3d-origin="11.906251 : 33.51389 : 1"
       id="perspective1881" />
  </defs>
  <sodipodi:namedview
     id="base"
     pagecolor="#ffffff"
     bordercolor="#666666"
     borderopacity="1.0"
     inkscape:pageopacity="0.0"
     inkscape:pageshadow="2"
     inkscape:zoom="4"
     inkscape:cx="184.76416"
     inkscape:cy="354.83128"
     inkscape:document-units="mm"
     inkscape:current-layer="g1669"
     showgrid="false"
     units="px"
     inkscape:snap-bbox="true"
     inkscape:snap-page="true"
     inkscape:bbox-nodes="true"
     inkscape:snap-bbox-edge-midpoints="true"
     inkscape:window-width="1680"
     inkscape:window-height="1005"
     inkscape:window-x="1440"
     inkscape:window-y="23"
     inkscape:window-maximized="1"
     inkscape:snap-nodes="false"
     inkscape:snap-others="false"
     inkscape:snap-global="false"
     inkscape:document-rotation="0" />
  <metadata
     id="metadata5">
    <rdf:RDF>
      <cc:Work
         rdf:about="">
        <dc:format>image/svg+xml</dc:format>
        <dc:type
           rdf:resource="http://purl.org/dc/dcmitype/StillImage" />
        <dc:title></dc:title>
      </cc:Work>
    </rdf:RDF>
  </metadata>
  <g
     style="display:inline"
     transform="translate(0,-196.45832)"
     id="g1669"
     inkscape:groupmode="layer"
     inkscape:label="Layer 1 copy">
    <path
       inkscape:connector-curvature="0"
       id="path1647"
       d="M 0,196.45832 H 79.375 L 77.691202,197.39376 79.375,297 H 0 Z"
       style="opacity:1;vector-effect:none;fill:#f9f9f9;fill-opacity:1;fill-rule:evenodd;stroke:none;stroke-width:0.88744;stroke-linecap:butt;stroke-linejoin:round;stroke-miterlimit:4;stroke-dasharray:none;stroke-dashoffset:0;stroke-opacity:1;paint-order:normal"
       sodipodi:nodetypes="cccccc" />
    <g
       aria-label="computerscare"
       transform="matrix(1.6182156,0.0441007,-0.20628451,1.0079983,93.164002,-2.779225)"
       style="font-style:normal;font-weight:normal;font-size:10.5833px;line-height:1.25;font-family:sans-serif;letter-spacing:0px;word-spacing:0px;fill:#000000;fill-opacity:1;stroke:none;stroke-width:0.264583"
       id="text1651">
      <path
         d="m 9.6895926,293.3293 -0.015433,0.29338 q -0.1107745,-0.0626 -0.225004,-0.0875 -0.1126721,-0.0268 -0.2302965,-0.0158 -0.2630829,0.0246 -0.4188048,0.23252 -0.1556398,0.20629 -0.1740339,0.55598 -0.018392,0.34964 0.1168796,0.53053 0.1353603,0.17919 0.3984382,0.15467 0.1175805,-0.011 0.2340855,-0.0573 0.1180791,-0.0483 0.2365768,-0.1324 l -0.015252,0.28996 q -0.1164056,0.072 -0.2399954,0.11397 -0.1221265,0.0419 -0.2588107,0.0546 -0.3718296,0.0345 -0.5765522,-0.21614 -0.2047205,-0.2508 -0.1804935,-0.71133 0.024584,-0.46737 0.2591265,-0.75571 0.2360113,-0.28845 0.6210735,-0.32434 0.1249209,-0.0115 0.2423279,0.009 0.1175227,0.018 0.2260784,0.0673 z"
         style="font-style:normal;font-variant:normal;font-weight:normal;font-stretch:normal;font-size:2.82222px;font-family:sans-serif;-inkscape-font-specification:'sans-serif, Normal';font-variant-ligatures:normal;font-variant-caps:normal;font-variant-numeric:normal;font-feature-settings:normal;text-align:start;writing-mode:lr-tb;text-anchor:start;stroke-width:0.303248"
         id="path1701"
         inkscape:connector-curvature="0" />
      <path
         d="m 10.792968,293.37245 q -0.217517,0.0204 -0.354316,0.22991 -0.136714,0.20794 -0.154745,0.55077 -0.01803,0.34285 0.09649,0.52907 0.116076,0.18437 0.335061,0.16398 0.216035,-0.0202 0.352849,-0.22978 0.136801,-0.20965 0.154745,-0.55078 0.01785,-0.33941 -0.09813,-0.52552 -0.115897,-0.18779 -0.331944,-0.16765 z m 0.014,-0.26607 q 0.352725,-0.0328 0.540079,0.21444 0.187352,0.24734 0.162589,0.7181 -0.02467,0.46908 -0.240111,0.75561 -0.215346,0.28485 -0.568073,0.31772 -0.354206,0.033 -0.541552,-0.2143 -0.1857911,-0.24919 -0.1611168,-0.71824 0.024765,-0.47077 0.2386408,-0.75548 0.215346,-0.28485 0.569544,-0.31785 z"
         style="font-style:normal;font-variant:normal;font-weight:normal;font-stretch:normal;font-size:2.82222px;font-family:sans-serif;-inkscape-font-specification:'sans-serif, Normal';font-variant-ligatures:normal;font-variant-caps:normal;font-variant-numeric:normal;font-feature-settings:normal;text-align:start;writing-mode:lr-tb;text-anchor:start;stroke-width:0.303248"
         id="path1703"
         inkscape:connector-curvature="0" />
      <path
         d="m 23.862611,294.036 q -0.325878,-0.006 -0.449069,0.0787 -0.12318,0.0848 -0.117162,0.29483 0.0048,0.16738 0.101152,0.26818 0.09777,0.0991 0.259986,0.10204 0.223602,0.004 0.352752,-0.17778 0.130572,-0.18363 0.121764,-0.49105 l -0.002,-0.0701 z m 0.532603,-0.1198 0.03126,1.09135 -0.26887,-0.004 -0.0083,-0.29035 q -0.08708,0.1725 -0.222046,0.25363 -0.135018,0.0794 -0.333767,0.0757 -0.251374,-0.005 -0.405112,-0.17142 -0.152345,-0.16842 -0.160272,-0.44509 -0.0093,-0.32281 0.170187,-0.48333 0.180896,-0.16049 0.547699,-0.15367 l 0.377039,0.007 -8.79e-4,-0.0307 q -0.0062,-0.2169 -0.132347,-0.33703 -0.124718,-0.12183 -0.345387,-0.126 -0.140292,-0.003 -0.272149,0.0342 -0.131859,0.0368 -0.252361,0.11316 l -0.0083,-0.29034 q 0.145692,-0.0638 0.283592,-0.0937 0.137851,-0.0316 0.269372,-0.0292 0.355112,0.007 0.536642,0.22508 0.18153,0.21846 0.194057,0.65569 z"
         style="font-style:normal;font-variant:normal;font-weight:normal;font-stretch:normal;font-size:2.82222px;font-family:sans-serif;-inkscape-font-specification:'sans-serif, Normal';font-variant-ligatures:normal;font-variant-caps:normal;font-variant-numeric:normal;font-feature-settings:normal;text-align:start;writing-mode:lr-tb;text-anchor:start;stroke-width:0.303248"
         id="path1721"
         inkscape:connector-curvature="0" />
      <path
         d="m 27.524158,294.03083 0.0044,0.15371 -1.236317,-0.023 q 0.02684,0.32484 0.180787,0.49841 0.155366,0.17188 0.422796,0.17687 0.154906,0.003 0.298312,-0.0387 0.144863,-0.0417 0.285533,-0.12783 l 0.0085,0.29717 q -0.142619,0.0691 -0.293525,0.10381 -0.150907,0.0347 -0.307272,0.0318 -0.391656,-0.008 -0.628715,-0.27798 -0.235607,-0.2707 -0.248623,-0.72499 -0.01344,-0.46967 0.194947,-0.74063 0.209816,-0.27262 0.578081,-0.26576 0.330263,0.006 0.528853,0.25906 0.199997,0.25126 0.21223,0.67824 z m -0.271535,-0.0973 q -0.01036,-0.25794 -0.136011,-0.4139 -0.124236,-0.15596 -0.322982,-0.15967 -0.225064,-0.005 -0.3567,0.14187 -0.130189,0.14608 -0.142916,0.41555 z"
         style="font-style:normal;font-variant:normal;font-weight:normal;font-stretch:normal;font-size:2.82222px;font-family:sans-serif;-inkscape-font-specification:'sans-serif, Normal';font-variant-ligatures:normal;font-variant-caps:normal;font-variant-numeric:normal;font-feature-settings:normal;text-align:start;writing-mode:lr-tb;text-anchor:start;stroke-width:0.303248"
         id="path1725"
         inkscape:connector-curvature="0" />
    </g>
    <text
       id="text983"
       y="224.61163"
       x="31.011026"
       style="font-style:normal;font-weight:normal;font-size:10.5833px;line-height:1.25;font-family:sans-serif;letter-spacing:0px;word-spacing:0px;fill:#000000;fill-opacity:1;stroke:none;stroke-width:0.264583"
       xml:space="preserve" />
    <g
       aria-label="father &amp; son"
       transform="matrix(1.0190173,0,0,0.9813376,21.629688,85.989581)"
       style="font-style:normal;font-weight:normal;font-size:8.01353px;line-height:1.25;font-family:sans-serif;letter-spacing:0px;word-spacing:0px;fill:#000000;fill-opacity:1;stroke:none;stroke-width:0.200338"
       id="text1057">
      <path
         d="m 29.909103,210.41573 -0.04112,0.38335 1.007838,0.0263 -0.0185,0.17239 -1.007838,-0.0264 -0.07863,0.73294 q -0.01772,0.16515 0.07562,0.21473 0.09601,0.0497 0.401814,0.0576 l 0.50259,0.0131 -0.01992,0.18564 -0.50259,-0.0131 q -0.56641,-0.0148 -0.771589,-0.11568 -0.205049,-0.10206 -0.17789,-0.35522 l 0.07863,-0.73293 -0.358992,-0.009 0.0185,-0.17238 0.358993,0.009 0.04112,-0.38334 z"
         style="stroke-width:0.0917985"
         id="path1063"
         inkscape:connector-curvature="0" />
      <path
         d="m 33.932334,211.44728 -0.253078,0.80934 -0.494165,3.1e-4 0.250832,-0.80215 q 0.05952,-0.19036 -0.07741,-0.28481 -0.136939,-0.0944 -0.469966,-0.0942 -0.400166,3.1e-4 -0.666707,0.11426 -0.266536,0.11393 -0.327934,0.31028 l -0.23698,0.75786 -0.496859,3.1e-4 0.582529,-1.86292 0.496859,-3.1e-4 -0.22837,0.73032 q 0.215069,-0.12107 0.472815,-0.18113 0.260434,-0.0601 0.574661,-0.0603 0.518348,-3.1e-4 0.739302,0.14302 0.221334,0.14225 0.134479,0.42001 z"
         style="stroke-width:0.0917985"
         id="path1065"
         inkscape:connector-curvature="0" />
      <path
         d="m 36.840988,211.34699 -0.0221,0.10848 -2.163451,0.0584 q -0.01598,0.22819 0.22031,0.34169 0.239085,0.11223 0.707065,0.0996 0.271071,-0.007 0.530627,-0.0455 0.262111,-0.0382 0.525495,-0.10768 l -0.04273,0.20973 q -0.263485,0.0575 -0.534843,0.0911 -0.271361,0.0337 -0.544988,0.0411 -0.685346,0.0185 -1.048529,-0.15872 -0.360624,-0.17727 -0.295298,-0.49789 0.06753,-0.33147 0.48555,-0.53574 0.420818,-0.20555 1.06525,-0.22293 0.57794,-0.0156 0.87709,0.15135 0.30195,0.16567 0.240555,0.46701 z m -0.457276,-0.0524 q 0.03198,-0.18186 -0.158183,-0.28462 -0.187594,-0.10282 -0.535383,-0.0934 -0.393815,0.0106 -0.653011,0.1219 -0.256633,0.11121 -0.331238,0.30262 z"
         style="stroke-width:0.0896431"
         id="path1067"
         inkscape:connector-curvature="0" />
      <path
         d="m 39.260122,211.00765 q -0.07872,-0.0217 -0.172676,-0.0314 -0.09142,-0.0109 -0.20315,-0.0109 -0.39614,0 -0.609446,0.12313 -0.210768,0.12193 -0.210768,0.35129 v 0.71224 H 37.5943 v -1.35204 h 0.469782 v 0.21005 q 0.147284,-0.12313 0.383445,-0.18229 0.236159,-0.0603 0.573896,-0.0603 0.04824,0 0.106653,0.004 0.05841,0.002 0.129507,0.008 z"
         style="stroke-width:0.0896431"
         id="path1069"
         inkscape:connector-curvature="0" />
      <path
         d="m 41.755571,211.23443 q -0.18782,0.11089 -0.26287,0.21443 -0.07302,0.10218 -0.04481,0.20749 0.0468,0.17473 0.326928,0.27456 0.280122,0.0998 0.65601,0.0753 0.223184,-0.0146 0.408237,-0.0644 0.184734,-0.051 0.335716,-0.13881 z m 0.295346,-0.15566 1.360149,0.54441 q 0.110078,-0.11555 0.155226,-0.24149 0.04483,-0.12713 0.02238,-0.26448 l 0.43697,-0.0285 q 0.01412,0.15982 -0.06668,0.32217 -0.0808,0.16236 -0.258901,0.32741 l 0.746822,0.29829 -0.592025,0.0386 -0.383075,-0.154 q -0.215795,0.12246 -0.46951,0.1926 -0.254037,0.069 -0.561794,0.089 -0.566182,0.037 -0.969545,-0.10353 -0.403684,-0.14169 -0.472609,-0.39899 -0.04104,-0.15319 0.08046,-0.2975 0.121178,-0.14551 0.404247,-0.28454 -0.132963,-0.068 -0.211573,-0.1384 -0.07893,-0.0716 -0.09817,-0.14336 -0.05193,-0.19388 0.17742,-0.32818 0.229035,-0.13551 0.661306,-0.16372 0.194993,-0.0127 0.393403,-0.004 0.20076,0.009 0.411995,0.0389 l 0.05835,0.21781 q -0.219456,-0.0429 -0.412746,-0.0595 -0.193607,-0.0178 -0.353359,-0.007 -0.246677,0.0161 -0.383778,0.0932 -0.135073,0.0758 -0.106862,0.1811 0.01635,0.061 0.10115,0.11882 0.08683,0.0564 0.330749,0.15498 z"
         style="stroke-width:0.0865977"
         id="path1071"
         inkscape:connector-curvature="0" />
      <path
         d="m 47.709336,210.64414 -0.04255,0.24409 q -0.190274,-0.0483 -0.400826,-0.068 -0.210546,-0.0197 -0.44138,-0.0107 -0.351372,0.0136 -0.538615,0.0794 -0.184674,0.0657 -0.205211,0.18353 -0.01565,0.0898 0.100981,0.1368 0.116873,0.0456 0.488392,0.0772 l 0.158151,0.0134 q 0.492429,0.0394 0.683917,0.13923 0.194296,0.0983 0.1608,0.29053 -0.03814,0.21883 -0.378422,0.35884 -0.337718,0.1399 -0.89171,0.16142 -0.230835,0.009 -0.477782,-0.007 -0.244634,-0.0142 -0.513067,-0.0525 l 0.04645,-0.26653 q 0.24865,0.0642 0.495962,0.0922 0.247562,0.0266 0.496343,0.0169 0.333425,-0.013 0.523715,-0.0816 0.190536,-0.0701 0.21034,-0.18372 0.01834,-0.10521 -0.102687,-0.15624 -0.11846,-0.0511 -0.547991,-0.086 l -0.160483,-0.0146 q -0.429776,-0.0335 -0.606608,-0.1297 -0.176586,-0.0976 -0.144803,-0.28 0.03863,-0.22164 0.346912,-0.35343 0.308281,-0.1318 0.836626,-0.15232 0.261604,-0.0102 0.488791,0.002 0.227167,0.0121 0.414752,0.0466 z"
         style="stroke-width:0.0967867"
         id="path1073"
         inkscape:connector-curvature="0" />
      <path
         d="m 49.706917,210.70031 q -0.379589,0.0147 -0.628521,0.18603 -0.248688,0.16989 -0.29783,0.45185 -0.04914,0.28196 0.140503,0.43621 0.192456,0.15276 0.574608,0.13791 0.377025,-0.0147 0.625957,-0.18594 0.248931,-0.17129 0.297829,-0.45184 0.04866,-0.27916 -0.143556,-0.43331 -0.191967,-0.15556 -0.56899,-0.14091 z m 0.03814,-0.21884 q 0.615548,-0.0239 0.928783,0.18128 0.313235,0.20518 0.245755,0.59235 -0.06723,0.38577 -0.456995,0.61965 -0.389516,0.23249 -1.005064,0.2564 -0.618111,0.024 -0.931348,-0.18118 -0.310424,-0.20669 -0.243191,-0.59245 0.06748,-0.38717 0.454431,-0.61956 0.389515,-0.23248 1.007629,-0.25649 z"
         style="stroke-width:0.0967867"
         id="path1075"
         inkscape:connector-curvature="0" />
      <path
         d="m 54.373975,211.336 -0.274028,0.81605 h -0.467244 l 0.271598,-0.80881 q 0.06446,-0.19194 -0.06096,-0.2873 -0.125417,-0.0954 -0.440297,-0.0954 -0.378365,0 -0.63526,0.11468 -0.256895,0.11468 -0.323376,0.31266 l -0.256599,0.76414 h -0.469781 l 0.454012,-1.35203 h 0.469782 l -0.07053,0.21004 q 0.20854,-0.12192 0.454812,-0.18228 0.248812,-0.0604 0.545917,-0.0604 0.490097,0 0.69285,0.14486 0.203157,0.14366 0.109111,0.42372 z"
         style="stroke-width:0.0896431"
         id="path1077"
         inkscape:connector-curvature="0" />
    </g>
    <g
       id="g8072"
       transform="matrix(0.26458333,0,0,0.26458333,38.546951,290.12101)">
      <g
         style="display:inline"
         inkscape:label="Layer 1"
         id="layer4" />
      <path
         id="rect5872"
         d="m 11.987289,9.3234482 h 7.991524 v 3.9957608 h -7.991524 z"
         style="opacity:1;fill:#000000;fill-opacity:1;stroke:#000000;stroke-width:0;stroke-miterlimit:4;stroke-dasharray:none;stroke-opacity:1"
         inkscape:connector-curvature="0" />
      <path
         id="rect5874"
         d="m 14.667374,10.662096 h 3.995763 v 1.331921 h -3.995763 z"
         style="opacity:1;fill:#ffffff;fill-opacity:0.985714;stroke:#000000;stroke-width:0;stroke-miterlimit:4;stroke-dasharray:none;stroke-opacity:1"
         inkscape:connector-curvature="0" />
      <path
         id="rect5878"
         d="m -29.323654,9.3234482 h 7.989551 v 3.9957608 h -7.989551 z"
         style="opacity:1;fill:#000000;fill-opacity:1;stroke:#000000;stroke-width:0;stroke-miterlimit:4;stroke-dasharray:none;stroke-opacity:1"
         transform="scale(-1,1)"
         inkscape:connector-curvature="0" />
      <path
         id="rect5880"
         d="m 30.39423,10.662097 h -7.744777 v 3.581919 h 7.744777 z"
         style="opacity:1;fill:#ffffff;fill-opacity:0.985714;stroke:#000000;stroke-width:0;stroke-miterlimit:4;stroke-dasharray:none;stroke-opacity:1"
         inkscape:connector-curvature="0" />
      <path
         id="rect5882"
         d="m 19.995058,14.667374 h 1.331921 v 3.995762 h -1.331921 z"
         style="opacity:1;fill:#000000;fill-opacity:1;stroke:#000000;stroke-width:0;stroke-miterlimit:4;stroke-dasharray:none;stroke-opacity:1"
         inkscape:connector-curvature="0" />
      <path
         id="rect5884"
         d="m 21.326979,17.331215 h 1.315677 v 1.33192 h -1.315677 z"
         style="opacity:1;fill:#000000;fill-opacity:1;stroke:#000000;stroke-width:0;stroke-miterlimit:4;stroke-dasharray:none;stroke-opacity:1"
         inkscape:connector-curvature="0" />
      <path
         id="rect5886"
         d="m 11.954803,20.011301 h 2.696328 v 2.663842 h -2.696328 z"
         style="opacity:1;fill:#001800;fill-opacity:1;stroke:#000000;stroke-width:0;stroke-miterlimit:4;stroke-dasharray:none;stroke-opacity:1"
         inkscape:connector-curvature="0" />
      <path
         id="rect5888"
         d="m 27.970341,20.011301 h 2.696327 v 2.663842 h -2.696327 z"
         style="opacity:1;fill:#001800;fill-opacity:1;stroke:#000000;stroke-width:0;stroke-miterlimit:4;stroke-dasharray:none;stroke-opacity:1"
         inkscape:connector-curvature="0" />
      <path
         id="rect5890"
         d="m 14.651131,20.011301 h 13.351695 v 1.33192 H 14.651131 Z"
         style="opacity:1;fill:#001800;fill-opacity:1;stroke:#000000;stroke-width:0;stroke-miterlimit:4;stroke-dasharray:none;stroke-opacity:1"
         inkscape:connector-curvature="0" />
    </g>
    <g
       aria-label="Pulti Moly"
       transform="scale(1.1838745,0.84468413)"
       id="text1037"
       style="font-style:normal;font-weight:normal;font-size:8.32167px;line-height:1.25;font-family:sans-serif;fill:#000000;fill-opacity:1;stroke:none;stroke-width:0.208042">
      <path
         d="m 14.884095,234.95634 v 2.27952 h 1.594206 q 0.884972,0 1.368256,-0.29662 0.483283,-0.29663 0.483283,-0.84517 0,-0.54449 -0.483283,-0.84111 -0.483284,-0.29662 -1.368256,-0.29662 z m -1.267834,-0.67451 h 2.86204 q 1.575377,0 2.378756,0.46322 0.809656,0.45915 0.809656,1.34902 0,0.89799 -0.809656,1.35714 -0.803379,0.45916 -2.378756,0.45916 h -1.594206 v 2.43799 h -1.267834 z"
         style="stroke-width:0.258563"
         id="path1076" />
      <path
         d="m 18.38253,238.55237 v -2.75492 h 0.74765 v 2.72648 q 0,0.64607 0.251926,0.97113 0.251925,0.321 0.755776,0.321 0.605434,0 0.954879,-0.38601 0.353509,-0.38602 0.353509,-1.0524 v -2.5802 h 0.74765 v 4.55091 h -0.74765 v -0.69889 q -0.272242,0.41446 -0.633877,0.61762 -0.357572,0.1991 -0.83298,0.1991 -0.78422,0 -1.190551,-0.48759 -0.406332,-0.4876 -0.406332,-1.42623 z m 1.881315,-2.86463 z"
         style="stroke-width:0.208042"
         id="path1078" />
      <path
         d="m 22.95189,236.24074 h 1.61682 v 4.21837 h -1.61682 z"
         style="stroke-width:0.249896"
         id="path1080" />
      <path
         d="m 26.789529,234.50531 v 1.29214 h 1.539997 v 0.58105 h -1.539997 v 2.47049 q 0,0.55668 0.150343,0.71515 0.154406,0.15847 0.621687,0.15847 h 0.767967 v 0.62575 h -0.767967 q -0.865486,0 -1.194614,-0.321 -0.329129,-0.32507 -0.329129,-1.17837 v -2.47049 h -0.548547 v -0.58105 h 0.548547 v -1.29214 z"
         style="stroke-width:0.208042"
         id="path1082" />
      <path
         d="m 29.316912,235.79745 h 0.74765 v 4.55091 h -0.74765 z m 0,-1.77161 h 0.74765 v 0.94675 h -0.74765 z"
         style="stroke-width:0.208042"
         id="path1084" />
      <path
         d="m 34.306662,234.28183 h 1.223058 l 1.548123,4.12833 1.55625,-4.12833 h 1.223058 v 6.06653 h -0.800473 v -5.32701 l -1.564377,4.16084 h -0.824853 l -1.564376,-4.16084 v 5.32701 c -0.692662,-1.95033 -0.700998,-3.94168 -0.79641,-6.06653 z"
         style="stroke-width:0.208042"
         id="path1086"
         sodipodi:nodetypes="ccccccccccccc" />
      <path
         d="m 43.221577,236.32161 q -0.60137,0 -0.950815,0.47135 -0.349446,0.46728 -0.349446,1.284 0,0.81673 0.345382,1.28808 0.349445,0.46728 0.954879,0.46728 0.597308,0 0.946753,-0.47135 0.349445,-0.47134 0.349445,-1.28401 0,-0.80859 -0.349445,-1.27994 -0.349445,-0.47541 -0.946753,-0.47541 z m 0,-0.63387 q 0.975196,0 1.53187,0.63387 0.556674,0.63388 0.556674,1.75535 0,1.11742 -0.556674,1.75536 -0.556674,0.63387 -1.53187,0.63387 -0.979259,0 -1.535933,-0.63387 -0.552611,-0.63794 -0.552611,-1.75536 0,-1.12147 0.552611,-1.75535 0.556674,-0.63387 1.535933,-0.63387 z"
         style="stroke-width:0.208042"
         id="path1088" />
      <path
         d="m 46.545367,234.02584 h 0.74765 v 6.32252 h -0.74765 z"
         style="stroke-width:0.208042"
         id="path1090" />
      <path
         d="m 50.746837,240.77094 q -0.316939,0.81267 -0.617624,1.06053 -0.300686,0.24786 -0.804537,0.24786 h -0.597307 v -0.62575 h 0.438838 q 0.308812,0 0.479471,-0.14628 0.170659,-0.14628 0.377888,-0.69076 l 0.13409,-0.34132 -1.840682,-4.47777 h 0.792347 l 1.42216,3.55946 1.42216,-3.55946 h 0.792347 z"
         style="stroke-width:0.208042"
         id="path1092" />
    </g>
  </g>
</svg>
