<?xml version="1.0" encoding="UTF-8" standalone="no"?>
<!-- Created with Inkscape (http://www.inkscape.org/) -->

<svg
   xmlns:dc="http://purl.org/dc/elements/1.1/"
   xmlns:cc="http://creativecommons.org/ns#"
   xmlns:rdf="http://www.w3.org/1999/02/22-rdf-syntax-ns#"
   xmlns:svg="http://www.w3.org/2000/svg"
   xmlns="http://www.w3.org/2000/svg"
   xmlns:sodipodi="http://sodipodi.sourceforge.net/DTD/sodipodi-0.dtd"
   xmlns:inkscape="http://www.inkscape.org/namespaces/inkscape"
   width="140"
   height="380"
   viewBox="0 0 37.041668 100.54167"
   version="1.1"
   id="svg8"
   inkscape:version="0.92.2 5c3e80d, 2017-08-06"
   sodipodi:docname="ComputerscareOhPeasPanel.svg"
   style="enable-background:new">
  <defs
     id="defs2">
    <inkscape:perspective
       sodipodi:type="inkscape:persp3d"
       inkscape:vp_x="0 : 50.270835 : 1"
       inkscape:vp_y="0 : 1000 : 0"
       inkscape:vp_z="23.812501 : 50.270835 : 1"
       inkscape:persp3d-origin="11.906251 : 33.51389 : 1"
       id="perspective1881" />
  </defs>
  <sodipodi:namedview
     id="base"
     pagecolor="#ffffff"
     bordercolor="#666666"
     borderopacity="1.0"
     inkscape:pageopacity="0.0"
     inkscape:pageshadow="2"
     inkscape:zoom="2.8284273"
     inkscape:cx="121.65934"
     inkscape:cy="9.7096726"
     inkscape:document-units="mm"
     inkscape:current-layer="g1669"
     showgrid="false"
     units="px"
     inkscape:snap-bbox="false"
     inkscape:snap-page="true"
     inkscape:bbox-nodes="true"
     inkscape:snap-bbox-edge-midpoints="true"
     inkscape:window-width="1440"
     inkscape:window-height="856"
     inkscape:window-x="0"
     inkscape:window-y="0"
     inkscape:window-maximized="0"
     inkscape:snap-object-midpoints="false"
     inkscape:snap-others="false"
     inkscape:snap-nodes="false"
     inkscape:snap-global="false" />
  <metadata
     id="metadata5">
    <rdf:RDF>
      <cc:Work
         rdf:about="">
        <dc:format>image/svg+xml</dc:format>
        <dc:type
           rdf:resource="http://purl.org/dc/dcmitype/StillImage" />
        <dc:title></dc:title>
      </cc:Work>
    </rdf:RDF>
  </metadata>
  <g
     inkscape:label="Layer 1"
     inkscape:groupmode="layer"
     id="layer1"
     transform="translate(0,-196.45832)"
     style="display:none">
    <path
       style="opacity:1;vector-effect:none;fill:#f0f0f0;fill-opacity:1;fill-rule:evenodd;stroke:none;stroke-width:0.48607069;stroke-linecap:butt;stroke-linejoin:round;stroke-miterlimit:4;stroke-dasharray:none;stroke-dashoffset:0;stroke-opacity:1;paint-order:normal"
       d="M 0,196.45831 H 23.8125 V 296.99999 H 0 Z"
       id="rect817"
       inkscape:connector-curvature="0" />
    <text
       xml:space="preserve"
       style="font-style:normal;font-weight:normal;font-size:10.58333302px;line-height:1.25;font-family:sans-serif;letter-spacing:0px;word-spacing:0px;fill:#000000;fill-opacity:1;stroke:none;stroke-width:0.26458332"
       x="8.2147436"
       y="295.57718"
       id="text1490"
       transform="rotate(1.4468834)"><tspan
         sodipodi:role="line"
         id="tspan1488"
         x="8.2147436"
         y="295.57718"
         style="font-style:normal;font-variant:normal;font-weight:normal;font-stretch:normal;font-size:2.82222223px;font-family:sans-serif;-inkscape-font-specification:'sans-serif, Normal';font-variant-ligatures:normal;font-variant-caps:normal;font-variant-numeric:normal;font-feature-settings:normal;text-align:start;writing-mode:lr-tb;text-anchor:start;stroke-width:0.26458332">computerscare</tspan></text>
    <text
       transform="rotate(-5.9989835)"
       id="text1494"
       y="288.0314"
       x="-28.710276"
       style="font-style:normal;font-weight:normal;font-size:10.58333302px;line-height:1.25;font-family:sans-serif;letter-spacing:0px;word-spacing:0px;fill:#000000;fill-opacity:1;stroke:none;stroke-width:0.26458332"
       xml:space="preserve"><tspan
         style="font-style:normal;font-variant:normal;font-weight:normal;font-stretch:normal;font-size:2.82222223px;font-family:sans-serif;-inkscape-font-specification:'sans-serif, Normal';font-variant-ligatures:normal;font-variant-caps:normal;font-variant-numeric:normal;font-feature-settings:normal;text-align:start;writing-mode:lr-tb;text-anchor:start;stroke-width:0.26458332"
         y="288.0314"
         x="-28.710276"
         id="tspan1492"
         sodipodi:role="line">trg</tspan></text>
    <text
       xml:space="preserve"
       style="font-style:normal;font-weight:normal;font-size:10.58333302px;line-height:1.25;font-family:sans-serif;letter-spacing:0px;word-spacing:0px;fill:#000000;fill-opacity:1;stroke:none;stroke-width:0.26458332"
       x="20.711658"
       y="288.87244"
       id="text1498"
       transform="rotate(1.9714728)"><tspan
         sodipodi:role="line"
         id="tspan1496"
         x="20.711658"
         y="288.87244"
         style="font-style:normal;font-variant:normal;font-weight:normal;font-stretch:normal;font-size:2.82222223px;font-family:sans-serif;-inkscape-font-specification:'sans-serif, Normal';font-variant-ligatures:normal;font-variant-caps:normal;font-variant-numeric:normal;font-feature-settings:normal;text-align:start;writing-mode:lr-tb;text-anchor:start;stroke-width:0.26458332">in</tspan></text>
    <text
       transform="rotate(0.49746114)"
       id="text1521"
       y="289.16214"
       x="20.314623"
       style="font-style:normal;font-weight:normal;font-size:10.58333302px;line-height:1.25;font-family:sans-serif;letter-spacing:0px;word-spacing:0px;fill:#000000;fill-opacity:1;stroke:none;stroke-width:0.26458332"
       xml:space="preserve"><tspan
         style="font-style:normal;font-variant:normal;font-weight:normal;font-stretch:normal;font-size:3.17499995px;font-family:sans-serif;-inkscape-font-specification:'sans-serif, Normal';font-variant-ligatures:normal;font-variant-caps:normal;font-variant-numeric:normal;font-feature-settings:normal;text-align:start;writing-mode:lr-tb;text-anchor:start;stroke-width:0.26458332"
         y="289.16214"
         x="20.314623"
         id="tspan1519"
         sodipodi:role="line">clr</tspan></text>
    <text
       transform="matrix(1.0139335,-0.02825079,0.06854811,0.98434808,0,0)"
       id="text1645"
       y="204.61243"
       x="-10.296249"
       style="font-style:normal;font-weight:normal;font-size:10.74719143px;line-height:1.25;font-family:sans-serif;letter-spacing:0px;word-spacing:0px;fill:#000000;fill-opacity:1;stroke:none;stroke-width:0.26867977"
       xml:space="preserve"><tspan
         style="font-style:normal;font-variant:normal;font-weight:normal;font-stretch:normal;font-size:5.01535606px;font-family:sans-serif;-inkscape-font-specification:'sans-serif, Normal';font-variant-ligatures:normal;font-variant-caps:normal;font-variant-numeric:normal;font-feature-settings:normal;text-align:start;writing-mode:lr-tb;text-anchor:start;stroke-width:0.26867977"
         y="204.61243"
         x="-10.296249"
         id="tspan1643"
         sodipodi:role="line">debug</tspan></text>
  </g>
  <g
     inkscape:groupmode="layer"
     id="layer3"
     inkscape:label="bg" />
  <g
     style="display:inline"
     transform="translate(0,-196.45832)"
     id="g1669"
     inkscape:groupmode="layer"
     inkscape:label="Layer 1 copy">
    <path
       inkscape:connector-curvature="0"
       id="path1647"
       d="m 0,196.45831 37.07474,2.05505 c 0.371889,36.41379 0.123278,64.61324 -0.01605,98.4876 L 0,296.99999 Z"
       style="opacity:1;vector-effect:none;fill:#f9f9f9;fill-opacity:1;fill-rule:evenodd;stroke:none;stroke-width:0.56126612;stroke-linecap:butt;stroke-linejoin:round;stroke-miterlimit:4;stroke-dasharray:none;stroke-dashoffset:0;stroke-opacity:1;paint-order:normal"
       sodipodi:nodetypes="ccccc" />
    <g
       aria-label="computerscare"
       transform="matrix(1.4457532,0.02712605,-0.03651719,1.0739475,3.9763638,-22.739031)"
       style="font-style:normal;font-weight:normal;font-size:10.58333302px;line-height:1.25;font-family:sans-serif;letter-spacing:0px;word-spacing:0px;fill:#000000;fill-opacity:1;stroke:none;stroke-width:0.26458332"
       id="text1651">
      <path
         d="m 9.7635177,294.7977 -0.022491,0.23707 q -0.1028223,-0.0489 -0.2099211,-0.0673 -0.1055806,-0.0199 -0.2168506,-0.009 -0.2488775,0.0238 -0.4014201,0.19401 -0.1524199,0.16888 -0.1792271,0.45145 -0.026804,0.28254 0.095932,0.42654 0.1228661,0.14262 0.371738,0.11887 0.1112317,-0.0106 0.2224055,-0.0498 0.1127112,-0.0408 0.2267849,-0.11044 l -0.022229,0.23431 q -0.111772,0.0599 -0.2295122,0.0956 -0.1163563,0.0357 -0.2456588,0.048 -0.3517468,0.0335 -0.5381239,-0.16582 -0.1863704,-0.19938 -0.1510635,-0.57153 0.035829,-0.37767 0.2649098,-0.61397 0.2304697,-0.23642 0.5947391,-0.27118 0.1181718,-0.0112 0.2283935,0.003 0.110394,0.0127 0.2114822,0.0509 z"
         style="font-style:normal;font-variant:normal;font-weight:normal;font-stretch:normal;font-size:2.82222223px;font-family:sans-serif;-inkscape-font-specification:'sans-serif, Normal';font-variant-ligatures:normal;font-variant-caps:normal;font-variant-numeric:normal;font-feature-settings:normal;text-align:start;writing-mode:lr-tb;text-anchor:start;stroke-width:0.26458332"
         id="path1701"
         inkscape:connector-curvature="0" />
      <path
         d="m 11.197314,295.00648 q -0.205711,0.0223 -0.339672,0.22398 -0.133845,0.20011 -0.158859,0.52726 -0.02501,0.32715 0.07869,0.50317 0.105218,0.17425 0.312311,0.15186 0.204306,-0.0221 0.338283,-0.22384 0.133968,-0.20175 0.15886,-0.52727 0.02477,-0.32389 -0.08032,-0.49977 -0.104967,-0.17751 -0.309282,-0.15539 z m 0.01941,-0.25391 q 0.333568,-0.0361 0.504572,0.19722 0.170997,0.23332 0.136646,0.68254 -0.03423,0.4476 -0.244185,0.72373 -0.209831,0.27449 -0.543405,0.31058 -0.33497,0.0363 -0.505964,-0.19707 -0.169483,-0.23508 -0.135254,-0.68269 0.03435,-0.44922 0.242794,-0.72358 0.209832,-0.27449 0.544796,-0.31073 z"
         style="font-style:normal;font-variant:normal;font-weight:normal;font-stretch:normal;font-size:2.82222223px;font-family:sans-serif;-inkscape-font-specification:'sans-serif, Normal';font-variant-ligatures:normal;font-variant-caps:normal;font-variant-numeric:normal;font-feature-settings:normal;text-align:start;writing-mode:lr-tb;text-anchor:start;stroke-width:0.28758317"
         id="path1703"
         inkscape:connector-curvature="0" />
      <path
         d="m 13.645113,295.02098 c 0.07212,-0.16189 0.158709,-0.28115 0.259781,-0.35779 0.101068,-0.0767 0.220289,-0.11452 0.357661,-0.11378 0.184923,10e-4 0.32797,0.0826 0.429142,0.24413 0.101165,0.16033 0.152468,0.38843 0.15391,0.6843 l 0.0065,1.3275 -0.293235,-0.002 c -0.03516,-0.22899 -0.03645,-0.67288 -0.0064,-1.31574 -10e-4,-0.21077 -0.0319,-0.36739 -0.09263,-0.46989 -0.06074,-0.10241 -0.15292,-0.15409 -0.276549,-0.15483 -0.151108,-9e-4 -0.270213,0.0605 -0.357313,0.18438 -0.0871,0.12385 -0.130127,0.29313 -0.12908,0.50783 l 0.006,1.24308 -0.293236,-0.002 -0.0064,-1.31574 c -10e-4,-0.21208 -0.03192,-0.36871 -0.09263,-0.46988 -0.06074,-0.10252 -0.153976,-0.15409 -0.279718,-0.15485 -0.148996,-9.1e-4 -0.267039,0.0613 -0.354134,0.18636 -0.0871,0.12385 -0.13013,0.29247 -0.129091,0.50587 l 0.006,1.24305 -0.293229,-0.002 -0.01076,-2.19941 0.293234,0.002 0.0017,0.34168 c 0.06591,-0.13442 0.145214,-0.23344 0.237888,-0.29703 0.09267,-0.0635 0.202947,-0.0949 0.330808,-0.0941 0.128919,7.7e-4 0.238485,0.0419 0.328699,0.12367 0.09127,0.0817 0.158948,0.19987 0.203026,0.35467 z"
         style="font-style:normal;font-variant:normal;font-weight:normal;font-stretch:normal;font-size:2.82222223px;font-family:sans-serif;-inkscape-font-specification:'sans-serif, Normal';font-variant-ligatures:normal;font-variant-caps:normal;font-variant-numeric:normal;font-feature-settings:normal;text-align:start;writing-mode:lr-tb;text-anchor:start;stroke-width:0.33873674"
         id="path1705"
         inkscape:connector-curvature="0"
         sodipodi:nodetypes="ccccccccccccccccccccccccccccc" />
      <path
         d="m 15.24757,295.82836 0.0037,0.96694 -0.254966,-10e-4 -0.0097,-2.51668 0.254967,10e-4 0.0011,0.27673 q 0.07931,-0.16242 0.200283,-0.24001 0.12235,-0.0791 0.291869,-0.0784 0.281152,10e-4 0.457205,0.26579 0.177431,0.26453 0.179097,0.69429 0.0017,0.42976 -0.17372,0.69267 -0.174009,0.26291 -0.455161,0.26162 -0.169519,-7.7e-4 -0.29248,-0.0794 -0.121592,-0.0803 -0.202158,-0.24347 z m 0.860284,-0.63255 q -0.0013,-0.33046 -0.117775,-0.5182 -0.115122,-0.18934 -0.31634,-0.19027 -0.201216,-9.2e-4 -0.316254,0.18738 -0.113664,0.18667 -0.112383,0.51715 0.0013,0.33045 0.116404,0.5198 0.116494,0.18773 0.317711,0.18866 0.201217,9.1e-4 0.314882,-0.18576 0.115036,-0.1883 0.113755,-0.51876 z"
         style="font-style:normal;font-variant:normal;font-weight:normal;font-stretch:normal;font-size:2.82222223px;font-family:sans-serif;-inkscape-font-specification:'sans-serif, Normal';font-variant-ligatures:normal;font-variant-caps:normal;font-variant-numeric:normal;font-feature-settings:normal;text-align:start;writing-mode:lr-tb;text-anchor:start;stroke-width:0.28758317"
         id="path1707"
         inkscape:connector-curvature="0" />
      <path
         d="m 16.380983,295.55261 -0.002,-1.0125 0.251818,-0.0693 0.002,1.00205 q 4.63e-4,0.23744 0.08555,0.33366 0.08508,0.0947 0.254785,0.0483 0.203917,-0.0556 0.321337,-0.22994 0.11879,-0.17448 0.118312,-0.4194 l -0.0019,-0.94826 0.251818,-0.0693 0.0033,1.67257 -0.251817,0.0693 -5.02e-4,-0.25686 q -0.0914,0.17741 -0.213054,0.28545 -0.120291,0.10604 -0.280415,0.15002 -0.264134,0.0725 -0.40134,-0.0694 -0.137208,-0.14174 -0.137881,-0.48669 z"
         style="font-style:normal;font-variant:normal;font-weight:normal;font-stretch:normal;font-size:2.82222223px;font-family:sans-serif;-inkscape-font-specification:'sans-serif, Normal';font-variant-ligatures:normal;font-variant-caps:normal;font-variant-numeric:normal;font-feature-settings:normal;text-align:start;writing-mode:lr-tb;text-anchor:start;stroke-width:0.27455816"
         id="path1709"
         inkscape:connector-curvature="0" />
      <path
         d="m 18.446541,294.06616 8.5e-4,0.47187 0.522302,0.001 3.82e-4,0.21219 -0.522302,-10e-4 0.0016,0.90217 q 3.66e-4,0.20328 0.05146,0.26126 0.05248,0.0579 0.210955,0.0582 l 0.260462,5e-4 4.11e-4,0.22852 -0.260464,-5.1e-4 q -0.293536,-5.7e-4 -0.405375,-0.11801 -0.11184,-0.11892 -0.112401,-0.43053 l -0.0016,-0.90216 -0.186044,-3.6e-4 -3.82e-4,-0.21219 0.186044,3.6e-4 -8.5e-4,-0.47186 z"
         style="font-style:normal;font-variant:normal;font-weight:normal;font-stretch:normal;font-size:2.82222223px;font-family:sans-serif;-inkscape-font-specification:'sans-serif, Normal';font-variant-ligatures:normal;font-variant-caps:normal;font-variant-numeric:normal;font-feature-settings:normal;text-align:start;writing-mode:lr-tb;text-anchor:start;stroke-width:0.27455816"
         id="path1711"
         inkscape:connector-curvature="0" />
      <path
         d="m 20.41037,294.85162 0.0012,0.17016 -1.155879,0.39368 q 0.01887,0.35362 0.159513,0.49524 0.14201,0.13926 0.392039,0.0541 0.144823,-0.0499 0.27975,-0.14457 0.136293,-0.0957 0.269515,-0.23959 l 0.0023,0.329 q -0.134719,0.12553 -0.276529,0.21553 -0.141809,0.0899 -0.288001,0.1397 -0.366164,0.12477 -0.582691,-0.0971 -0.215161,-0.22239 -0.218606,-0.72532 -0.0035,-0.51992 0.196567,-0.89319 0.201477,-0.37561 0.545782,-0.49286 0.308783,-0.10471 0.489656,0.10999 0.182228,0.21277 0.185464,0.68542 z m -0.252095,-0.0163 q -0.0047,-0.28454 -0.119256,-0.41611 -0.113201,-0.13204 -0.299015,-0.0687 -0.21041,0.0713 -0.336345,0.27941 -0.124572,0.2073 -0.141655,0.51253 z"
         style="font-style:normal;font-variant:normal;font-weight:normal;font-stretch:normal;font-size:2.82222223px;font-family:sans-serif;-inkscape-font-specification:'sans-serif, Normal';font-variant-ligatures:normal;font-variant-caps:normal;font-variant-numeric:normal;font-feature-settings:normal;text-align:start;writing-mode:lr-tb;text-anchor:start;stroke-width:0.30895016"
         id="path1713"
         inkscape:connector-curvature="0" />
      <path
         d="m 21.78975,294.42999 q -0.04491,-0.033 -0.09775,-0.0525 -0.05149,-0.0208 -0.113784,-0.0299 -0.220898,-0.0325 -0.334107,0.10057 -0.111851,0.13182 -0.10117,0.4123 l 0.03317,0.871 -0.26196,-0.0385 -0.06296,-1.65342 0.26196,0.0385 0.0098,0.25686 q 0.07641,-0.13849 0.20533,-0.19144 0.128873,-0.0546 0.317206,-0.0267 0.02691,0.004 0.05964,0.013 0.03266,0.008 0.07263,0.0213 z"
         style="font-style:normal;font-variant:normal;font-weight:normal;font-stretch:normal;font-size:2.82222223px;font-family:sans-serif;-inkscape-font-specification:'sans-serif, Normal';font-variant-ligatures:normal;font-variant-caps:normal;font-variant-numeric:normal;font-feature-settings:normal;text-align:start;writing-mode:lr-tb;text-anchor:start;stroke-width:0.27681944"
         id="path1715"
         inkscape:connector-curvature="0" />
      <path
         d="m 23.289808,294.73315 -0.03289,0.31613 q -0.09894,-0.0944 -0.209845,-0.1542 -0.110904,-0.0599 -0.233787,-0.085 -0.187054,-0.0383 -0.289205,0.0189 -0.100789,0.0574 -0.116665,0.20996 -0.01209,0.11634 0.04781,0.19718 0.0601,0.079 0.255932,0.18031 l 0.08337,0.043 q 0.259669,0.13103 0.357077,0.29373 0.09896,0.16122 0.07306,0.41015 -0.02948,0.28341 -0.215991,0.41416 -0.18514,0.13102 -0.480057,0.0708 -0.122881,-0.025 -0.253286,-0.0851 -0.12923,-0.0578 -0.270064,-0.1517 l 0.03591,-0.34519 q 0.129254,0.12472 0.259316,0.2014 0.130258,0.0749 0.262698,0.10184 0.177498,0.0363 0.281384,-0.0241 0.104077,-0.0623 0.119389,-0.20939 0.01419,-0.13627 -0.04789,-0.22317 -0.06071,-0.0866 -0.287191,-0.20152 l -0.08453,-0.0451 q -0.226673,-0.11301 -0.316453,-0.26874 -0.08959,-0.15744 -0.06502,-0.39365 0.02986,-0.28705 0.199042,-0.41206 0.169174,-0.12502 0.450438,-0.0676 0.139267,0.0284 0.25931,0.0809 0.120043,0.0523 0.218144,0.12801 z"
         style="font-style:normal;font-variant:normal;font-weight:normal;font-stretch:normal;font-size:2.82222223px;font-family:sans-serif;-inkscape-font-specification:'sans-serif, Normal';font-variant-ligatures:normal;font-variant-caps:normal;font-variant-numeric:normal;font-feature-settings:normal;text-align:start;writing-mode:lr-tb;text-anchor:start;stroke-width:0.30559522"
         id="path1717"
         inkscape:connector-curvature="0" />
      <path
         d="m 24.728637,294.63587 0.02003,0.25439 q -0.11212,-0.0543 -0.223044,-0.0758 -0.109669,-0.0231 -0.219523,-0.0136 -0.245798,0.0215 -0.368466,0.20193 -0.122783,0.17899 -0.09891,0.48219 0.02388,0.30318 0.173098,0.45992 0.149107,0.15526 0.394904,0.1338 0.109854,-0.009 0.21452,-0.05 0.10592,-0.042 0.208015,-0.11499 l 0.0198,0.25142 q -0.101541,0.0625 -0.21342,0.099 -0.110505,0.0365 -0.23821,0.0476 -0.347414,0.0303 -0.570536,-0.18697 -0.223122,-0.21728 -0.254568,-0.61661 -0.03191,-0.40525 0.155777,-0.65543 0.189064,-0.2503 0.548836,-0.28171 0.11672,-0.0106 0.230044,0.007 0.113206,0.0154 0.221649,0.0582 z"
         style="font-style:normal;font-variant:normal;font-weight:normal;font-stretch:normal;font-size:2.82222223px;font-family:sans-serif;-inkscape-font-specification:'sans-serif, Normal';font-variant-ligatures:normal;font-variant-caps:normal;font-variant-numeric:normal;font-feature-settings:normal;text-align:start;writing-mode:lr-tb;text-anchor:start;stroke-width:0.27455816"
         id="path1719"
         inkscape:connector-curvature="0" />
      <path
         d="m 25.917281,295.46624 q -0.313239,-0.009 -0.424667,0.0586 -0.111423,0.0679 -0.08883,0.23985 0.018,0.13708 0.118553,0.22085 0.101761,0.0824 0.257682,0.087 0.214909,0.006 0.324302,-0.14097 0.110608,-0.14864 0.07754,-0.4004 l -0.0075,-0.0574 z m 0.501549,-0.0911 0.117387,0.89383 -0.258456,-0.008 -0.03124,-0.2378 q -0.06976,0.14008 -0.192791,0.20475 -0.123225,0.0632 -0.314255,0.0577 -0.241599,-0.007 -0.402509,-0.14558 -0.159691,-0.13985 -0.18945,-0.36644 -0.03474,-0.26439 0.124631,-0.39346 0.160756,-0.12903 0.513323,-0.11868 l 0.362401,0.0105 -0.0033,-0.0251 q -0.02332,-0.17765 -0.153994,-0.27761 -0.129449,-0.10136 -0.341554,-0.10762 -0.134846,-0.004 -0.258443,0.0245 -0.123597,0.0285 -0.233136,0.0893 l -0.03124,-0.23779 q 0.134715,-0.0503 0.26466,-0.073 0.129765,-0.0241 0.256179,-0.0204 0.34133,0.01 0.533037,0.19122 0.191703,0.18118 0.238731,0.53927 z"
         style="font-style:normal;font-variant:normal;font-weight:normal;font-stretch:normal;font-size:2.82222223px;font-family:sans-serif;-inkscape-font-specification:'sans-serif, Normal';font-variant-ligatures:normal;font-variant-caps:normal;font-variant-numeric:normal;font-feature-settings:normal;text-align:start;writing-mode:lr-tb;text-anchor:start;stroke-width:0.26860911"
         id="path1721"
         inkscape:connector-curvature="0" />
      <path
         d="m 27.867464,295.23752 q -0.04501,-0.0348 -0.09791,-0.0551 -0.05154,-0.0217 -0.113856,-0.0311 -0.22092,-0.033 -0.333546,0.10961 -0.111277,0.14106 -0.09949,0.43935 l 0.0366,0.92631 -0.261988,-0.0389 -0.06953,-1.7584 0.261987,0.0389 0.01079,0.27317 q 0.07582,-0.14793 0.204473,-0.20525 0.1286,-0.059 0.316946,-0.0309 0.02691,0.004 0.05965,0.013 0.03268,0.008 0.07268,0.0222 z"
         style="font-style:normal;font-variant:normal;font-weight:normal;font-stretch:normal;font-size:2.82222223px;font-family:sans-serif;-inkscape-font-specification:'sans-serif, Normal';font-variant-ligatures:normal;font-variant-caps:normal;font-variant-numeric:normal;font-feature-settings:normal;text-align:start;writing-mode:lr-tb;text-anchor:start;stroke-width:0.28544712"
         id="path1723"
         inkscape:connector-curvature="0" />
      <path
         d="m 28.886282,295.33461 0.0013,0.13351 -0.711858,0.0931 c 0.009,0.18803 -0.0011,0.22628 0.06074,0.32618 0.06247,0.099 0.148316,0.14931 0.257554,0.15113 0.06327,0.001 0.124332,-0.0107 0.18317,-0.0355 0.05944,-0.0248 0.208283,-0.1091 0.266267,-0.15959 l 0.0026,0.25814 c -0.05868,0.0406 -0.20909,0.11803 -0.270953,0.13874 -0.06186,0.0207 -0.124729,0.0306 -0.1886,0.0295 -0.159977,-0.003 -0.287599,-0.082 -0.382862,-0.23774 -0.09467,-0.15584 -0.143318,-0.3653 -0.145954,-0.62838 -0.0027,-0.27197 0.03929,-0.48685 0.126037,-0.64462 0.08734,-0.15874 0.206219,-0.23686 0.356645,-0.23437 0.134907,0.002 0.242183,0.0763 0.321827,0.2219 0.08023,0.14472 0.121586,0.34071 0.124063,0.58797 z m -0.165555,-0.0828 c -0.0028,-0.14936 -0.02927,-0.26895 -0.07969,-0.35878 -0.04984,-0.0898 -0.115352,-0.13542 -0.196534,-0.13676 -0.09193,-0.002 -0.165216,0.0403 -0.219869,0.12539 -0.05406,0.0851 -0.01128,0.19167 -0.01807,0.34779 z"
         style="font-style:normal;font-variant:normal;font-weight:normal;font-stretch:normal;font-size:2.82222223px;font-family:sans-serif;-inkscape-font-specification:'sans-serif, Normal';font-variant-ligatures:normal;font-variant-caps:normal;font-variant-numeric:normal;font-feature-settings:normal;text-align:start;writing-mode:lr-tb;text-anchor:start;stroke-width:0.22126861"
         id="path1725"
         inkscape:connector-curvature="0"
         sodipodi:nodetypes="ccccscccsscscscccccsccc" />
    </g>
    <g
       id="g9547"
       transform="matrix(0.24212987,0,0,0.24730558,-2.0206165,290.96621)">
      <g
         style="display:inline"
         inkscape:label="Layer 1"
         id="layer4" />
      <path
         id="rect5872"
         d="m 11.987289,9.3234482 h 7.991524 v 3.9957608 h -7.991524 z"
         style="opacity:1;fill:#0f0f00;fill-opacity:1;stroke:#000000;stroke-width:0;stroke-miterlimit:4;stroke-dasharray:none;stroke-opacity:1"
         inkscape:connector-curvature="0" />
      <path
         id="rect5874"
         d="m 14.667374,10.662096 h 3.995763 v 1.331921 h -3.995763 z"
         style="opacity:1;fill:#ffffff;fill-opacity:0.98571424;stroke:#000000;stroke-width:0;stroke-miterlimit:4;stroke-dasharray:none;stroke-opacity:1"
         inkscape:connector-curvature="0" />
      <path
         id="rect5878"
         d="m -29.323654,9.3234482 h 7.989551 v 3.9957608 h -7.989551 z"
         style="opacity:1;fill:#0c0c00;fill-opacity:1;stroke:#000000;stroke-width:0;stroke-miterlimit:4;stroke-dasharray:none;stroke-opacity:1"
         transform="scale(-1,1)"
         inkscape:connector-curvature="0" />
      <path
         id="rect5880"
         d="m -26.64423,10.662096 h 3.994777 v 1.331921 h -3.994777 z"
         style="opacity:1;fill:#ffffff;fill-opacity:0.98571424;stroke:#000000;stroke-width:0;stroke-miterlimit:4;stroke-dasharray:none;stroke-opacity:1"
         transform="scale(-1,1)"
         inkscape:connector-curvature="0" />
      <path
         id="rect5882"
         d="m 19.995058,14.667374 h 1.331921 v 3.995762 h -1.331921 z"
         style="opacity:1;fill:#000000;fill-opacity:1;stroke:#000000;stroke-width:0;stroke-miterlimit:4;stroke-dasharray:none;stroke-opacity:1"
         inkscape:connector-curvature="0" />
      <path
         id="rect5884"
         d="m 21.326979,17.331215 h 1.315677 v 1.33192 h -1.315677 z"
         style="opacity:1;fill:#000000;fill-opacity:1;stroke:#000000;stroke-width:0;stroke-miterlimit:4;stroke-dasharray:none;stroke-opacity:1"
         inkscape:connector-curvature="0" />
      <path
         id="rect5886"
         d="m 11.954803,20.011301 h 2.696328 v 2.663842 h -2.696328 z"
         style="opacity:1;fill:#000200;fill-opacity:1;stroke:#000000;stroke-width:0;stroke-miterlimit:4;stroke-dasharray:none;stroke-opacity:1"
         inkscape:connector-curvature="0" />
      <path
         id="rect5888"
         d="m 27.970341,20.011301 h 2.696327 v 2.663842 h -2.696327 z"
         style="opacity:1;fill:#000200;fill-opacity:1;stroke:#000000;stroke-width:0;stroke-miterlimit:4;stroke-dasharray:none;stroke-opacity:1"
         inkscape:connector-curvature="0" />
      <path
         id="rect5890"
         d="m 14.651131,20.011301 h 13.351695 v 1.33192 H 14.651131 Z"
         style="opacity:1;fill:#000200;fill-opacity:1;stroke:#000000;stroke-width:0;stroke-miterlimit:4;stroke-dasharray:none;stroke-opacity:1"
         inkscape:connector-curvature="0" />
    </g>
    <g
       aria-label="oh, peas!"
       transform="matrix(1.7495374,0.15209286,0,0.96586683,-1.0705572,-14.062378)"
       style="font-style:normal;font-weight:normal;font-size:4.82299232px;line-height:1.25;font-family:sans-serif;letter-spacing:0px;word-spacing:0px;fill:#000000;fill-opacity:1;stroke:none;stroke-width:0.12057481"
       id="text1573">
      <path
         d="m 2.0306039,219.11262 q -0.2878659,-0.0331 -0.4551394,0.22079 -0.1672735,0.25158 -0.1672735,0.72493 0,0.47335 0.1653285,0.76555 0.1672735,0.29007 0.4570844,0.32343 0.2859209,0.0329 0.4531944,-0.22101 0.1672735,-0.25391 0.1672735,-0.72491 0,-0.46864 -0.1672735,-0.76108 -0.1672735,-0.29478 -0.4531944,-0.3277 z m 0,-0.36738 q 0.4668097,0.0537 0.7332802,0.45179 0.2664705,0.39805 0.2664705,1.04802 0,0.64762 -0.2664705,0.98668 -0.2664705,0.33671 -0.7332802,0.28297 -0.4687546,-0.054 -0.7352251,-0.452 -0.2645255,-0.40018 -0.2645255,-1.0478 0,-0.64997 0.2645255,-0.9869 0.2664705,-0.33671 0.7352251,-0.28276 z"
         style="stroke-width:0.10957906"
         id="path1575"
         inkscape:connector-curvature="0" />
      <path
         d="m 5.9968026,219.9325 0.064679,1.46882 -0.5563483,-0.60825 0.045516,-0.78268 c 0.014743,-0.25352 -0.087267,-0.42122 -0.1982802,-0.52859 -0.1110125,-0.10736 -0.2670107,-0.14666 -0.4679946,-0.11789 -0.241506,0.0346 -0.4256294,0.135 -0.5523703,0.30135 -0.1267409,0.16635 -0.1791916,0.37589 -0.1573522,0.62862 l 0.1264442,1.46322 -0.4497848,0.0643 -0.3108167,-3.5968 0.4497848,-0.0643 0.1218493,1.41004 c 0.093526,-0.17095 0.2090865,-0.30527 0.3466828,-0.40297 0.1392171,-0.0979 0.3036447,-0.16049 0.4932829,-0.1876 0.3128207,-0.0448 0.5574537,0.0138 0.7338989,0.1758 0.1763099,0.16041 0.2799127,0.41939 0.3108082,0.77691 z"
         style="stroke-width:0.12212589"
         id="path1577"
         inkscape:connector-curvature="0"
         sodipodi:nodetypes="cccsccsscccccccccc" />
      <path
         d="m 6.8057705,221.26125 0.7484453,0.0381 v 0.40505 l -0.5817301,0.724 -0.45758,-0.0233 0.2908648,-0.73881 z"
         style="stroke-width:0.14797968"
         id="path1579"
         inkscape:connector-curvature="0" />
      <path
         d="m 9.2015306,220.55177 v 1.39885 l -0.5653924,-0.0334 v -3.64079 l 0.5653924,0.0334 v 0.40034 q 0.1772577,-0.22502 0.4462013,-0.32218 0.2719999,-0.0993 0.6479101,-0.0771 0.623459,0.0368 1.011594,0.44124 0.391189,0.4046 0.391189,1.02631 0,0.62171 -0.391189,0.98013 -0.388135,0.35859 -1.011594,0.32178 -0.3759102,-0.0222 -0.6479101,-0.1513 -0.2689436,-0.13128 -0.4462013,-0.37724 z m 1.9131644,-0.80783 q 0,-0.47806 -0.256718,-0.76404 -0.253662,-0.28816 -0.699864,-0.3145 -0.4462005,-0.0264 -0.7029201,0.23167 -0.2536623,0.25584 -0.2536623,0.7339 0,0.47806 0.2536623,0.76622 0.2567196,0.28598 0.7029201,0.31233 0.446202,0.0263 0.699864,-0.2295 0.256718,-0.25802 0.256718,-0.73608 z"
         style="stroke-width:0.13735752"
         id="path1581"
         inkscape:connector-curvature="0" />
      <path
         d="m 14.503389,219.22295 v 0.21194 l -1.878859,0.18931 q 0.02665,0.44477 0.253179,0.65744 0.22875,0.21009 0.63517,0.16914 0.235413,-0.0238 0.455278,-0.10707 0.222088,-0.0836 0.439734,-0.228 v 0.40977 q -0.219867,0.12102 -0.450837,0.19615 -0.230971,0.075 -0.468605,0.099 -0.595194,0.0599 -0.943871,-0.27227 -0.346456,-0.33246 -0.346456,-0.95888 0,-0.64762 0.328689,-1.0599 0.33091,-0.41485 0.89057,-0.47125 0.501918,-0.0506 0.792852,0.26395 0.293156,0.31193 0.293156,0.90068 z m -0.408642,-0.086 q -0.0044,-0.35515 -0.188773,-0.54853 -0.182112,-0.19359 -0.484151,-0.16316 -0.342015,0.0344 -0.548556,0.26015 -0.20432,0.22548 -0.235412,0.6007 z"
         style="stroke-width:0.11709147"
         id="path1583"
         inkscape:connector-curvature="0" />
      <path
         d="m 16.304517,219.14271 q -0.495255,0.0499 -0.68625,0.18921 -0.190995,0.13937 -0.190995,0.42903 0,0.23079 0.142136,0.35305 0.144357,0.11968 0.390875,0.0948 0.339793,-0.0342 0.544113,-0.30916 0.206541,-0.2775 0.206541,-0.7014 v -0.0966 z m 0.815062,-0.2611 v 1.50483 l -0.408642,0.0412 v -0.40034 q -0.139915,0.2543 -0.348676,0.39073 -0.208762,0.1341 -0.510802,0.16448 -0.38199,0.0385 -0.60852,-0.16476 -0.224307,-0.20583 -0.224307,-0.58734 0,-0.44509 0.27983,-0.69937 0.282051,-0.2545 0.83949,-0.31067 l 0.572985,-0.0577 v -0.0424 q 0,-0.29908 -0.186553,-0.44278 -0.184332,-0.14627 -0.519685,-0.11248 -0.213203,0.0215 -0.415303,0.0961 -0.202099,0.0746 -0.388652,0.20166 v -0.40035 q 0.224307,-0.11443 0.43529,-0.18045 0.210984,-0.0684 0.410863,-0.0885 0.539671,-0.0544 0.806176,0.21551 0.266506,0.26987 0.266506,0.87274 z"
         style="stroke-width:0.11709147"
         id="path1585"
         inkscape:connector-curvature="0" />
      <path
         d="m 19.246753,217.6294 v 0.40977 c -0.115485,-0.0512 -0.235412,-0.0862 -0.359781,-0.10506 -0.124369,-0.0189 -0.253179,-0.0215 -0.386432,-0.008 -0.202841,0.0205 -0.355341,0.0688 -0.457501,0.14497 -0.100679,0.0761 -0.151019,0.18004 -0.151019,0.31195 0,0.10047 0.03627,0.1761 0.108823,0.22688 0.07255,0.0492 0.218386,0.0887 0.437512,0.11841 l 0.139915,0.0189 c 0.290194,0.0367 0.495995,0.10934 0.617403,0.21803 0.122888,0.10693 0.184332,0.26794 0.184332,0.48303 0,0.24492 -0.0918,0.44807 -0.275388,0.60944 -0.182112,0.16122 -0.433071,0.25794 -0.752876,0.29016 -0.133253,0.0135 -0.272427,0.0134 -0.417524,-3e-4 -0.143617,-0.0122 -0.295377,-0.0377 -0.45528,-0.0766 v -0.44745 c 0.15102,0.068 0.299819,0.11579 0.446396,0.14342 0.146577,0.0261 0.291674,0.0319 0.435291,0.0174 0.192476,-0.0194 0.340534,-0.0688 0.444175,-0.14835 0.103641,-0.0811 0.155462,-0.1852 0.155462,-0.3124 0,-0.11775 -0.03776,-0.20421 -0.113265,-0.2594 -0.07403,-0.0553 -0.237634,-0.0993 -0.490814,-0.13188 l -0.142135,-0.021 c -0.253179,-0.031 -0.436031,-0.0989 -0.548556,-0.20377 -0.112525,-0.10641 -0.168787,-0.26167 -0.168787,-0.46576 0,-0.24806 -0.01161,-0.60428 0.15422,-0.756 0.165825,-0.15174 0.495757,-0.0866 0.800756,-0.11738 0.151019,-0.0152 0.293155,-0.0179 0.426408,-0.008 0.133253,0.0101 0.256141,0.033 0.368665,0.0688 z"
         style="stroke-width:0.11709147"
         id="path1587"
         inkscape:connector-curvature="0"
         sodipodi:nodetypes="cccccsccccsccccccccsccccsccccc" />
      <path
         d="m 19.780161,220.01143 0.356319,0.0721 v 0.59816 l -0.450838,0.0455 z m -0.09452,-2.80021 0.450838,-0.0455 v 1.54251 l -0.04442,0.84521 -0.359781,0.0363 -0.04663,-0.83604 z"
         style="stroke-width:0.11709147"
         id="path1589"
         inkscape:connector-curvature="0"
         sodipodi:nodetypes="cccccccccccc" />
    </g>
    <g
       aria-label="range"
       transform="rotate(92.345118,0.49732568,-1.0477197)"
       style="font-style:normal;font-weight:normal;font-size:4.72717714px;line-height:1.25;font-family:sans-serif;letter-spacing:0px;word-spacing:0px;fill:#000000;fill-opacity:1;stroke:none;stroke-width:0.11817943"
       id="text871">
      <path
         d="m 234.97572,-44.376238 q -0.0716,-0.04155 -0.15695,-0.06001 -0.0831,-0.02077 -0.18466,-0.02077 -0.36008,0 -0.55396,0.235436 -0.19158,0.233127 -0.19158,0.671684 v 1.361833 h -0.42702 v -2.585175 h 0.42702 v 0.401625 q 0.13387,-0.235435 0.34853,-0.348537 0.21466,-0.115409 0.52165,-0.115409 0.0439,0 0.097,0.0069 0.0531,0.0046 0.11772,0.01616 z"
         style="stroke-width:0.11817943"
         id="path926"
         inkscape:connector-curvature="0" />
      <path
         d="m 236.60069,-43.487584 q -0.51473,0 -0.71323,0.117718 -0.1985,0.117717 -0.1985,0.401625 0,0.226203 0.14772,0.360078 0.15003,0.131567 0.40624,0.131567 0.35315,0 0.56551,-0.249285 0.21466,-0.251593 0.21466,-0.667067 v -0.09464 z m 0.84711,-0.175423 v 1.474935 h -0.42471 v -0.392393 q -0.14542,0.235436 -0.36239,0.348537 -0.21697,0.110793 -0.53088,0.110793 -0.39701,0 -0.63244,-0.221586 -0.23313,-0.223895 -0.23313,-0.597822 0,-0.436248 0.29083,-0.657834 0.29314,-0.221587 0.8725,-0.221587 h 0.59551 v -0.04155 q 0,-0.293141 -0.19389,-0.452406 -0.19158,-0.161573 -0.54011,-0.161573 -0.22159,0 -0.43164,0.05309 -0.21004,0.05309 -0.40393,0.159265 v -0.392392 q 0.23313,-0.09002 0.45241,-0.133876 0.21927,-0.04616 0.42701,-0.04616 0.56089,0 0.83787,0.290832 0.27699,0.290832 0.27699,0.881729 z"
         style="stroke-width:0.11817943"
         id="path928"
         inkscape:connector-curvature="0" />
      <path
         d="m 240.47384,-43.74841 v 1.560338 h -0.42471 v -1.546489 q 0,-0.367002 -0.14311,-0.54935 -0.14311,-0.182347 -0.42932,-0.182347 -0.34392,0 -0.54243,0.219279 -0.1985,0.219278 -0.1985,0.597821 v 1.461086 h -0.42702 v -2.585175 h 0.42702 v 0.401625 q 0.15234,-0.233127 0.35777,-0.348537 0.20774,-0.115409 0.47779,-0.115409 0.44549,0 0.674,0.276983 0.22851,0.274674 0.22851,0.810175 z"
         style="stroke-width:0.11817943"
         id="path930"
         inkscape:connector-curvature="0" />
      <path
         d="m 243.0267,-43.510666 q 0,-0.461639 -0.19158,-0.71554 -0.18927,-0.253901 -0.53319,-0.253901 -0.34162,0 -0.5332,0.253901 -0.18927,0.253901 -0.18927,0.71554 0,0.45933 0.18927,0.713231 0.19158,0.253901 0.5332,0.253901 0.34392,0 0.53319,-0.253901 0.19158,-0.253901 0.19158,-0.713231 z m 0.42471,1.001755 q 0,0.660143 -0.29315,0.980982 -0.29314,0.323147 -0.89788,0.323147 -0.2239,0 -0.4224,-0.03462 -0.19851,-0.03232 -0.38547,-0.101561 v -0.413166 q 0.18696,0.10156 0.36931,0.150032 0.18235,0.04847 0.37162,0.04847 0.41778,0 0.62552,-0.219278 0.20774,-0.21697 0.20774,-0.657835 v -0.210045 q -0.13157,0.228511 -0.337,0.341612 -0.20543,0.113102 -0.49164,0.113102 -0.47549,0 -0.76632,-0.362386 -0.29084,-0.362386 -0.29084,-0.960208 0,-0.60013 0.29084,-0.962516 0.29083,-0.362386 0.76632,-0.362386 0.28621,0 0.49164,0.113101 0.20543,0.113101 0.337,0.341612 v -0.392392 h 0.42471 z"
         style="stroke-width:0.11817943"
         id="path932"
         inkscape:connector-curvature="0" />
      <path
         d="m 246.53746,-43.586837 v 0.207738 h -1.95273 q 0.0277,0.438556 0.26313,0.669375 0.23774,0.228511 0.66014,0.228511 0.24467,0 0.47318,-0.06001 0.23082,-0.06001 0.45703,-0.180039 v 0.401626 q -0.22852,0.09694 -0.46857,0.147724 -0.24005,0.05078 -0.48703,0.05078 -0.61859,0 -0.98098,-0.360078 -0.36008,-0.360078 -0.36008,-0.974057 0,-0.634752 0.34162,-1.006371 0.34392,-0.373927 0.92558,-0.373927 0.52165,0 0.82403,0.336996 0.30468,0.334687 0.30468,0.911735 z m -0.42471,-0.124642 q -0.005,-0.348537 -0.1962,-0.556274 -0.18927,-0.207737 -0.50318,-0.207737 -0.35546,0 -0.57013,0.200812 -0.21235,0.200813 -0.24466,0.565507 z"
         style="stroke-width:0.11817943"
         id="path934"
         inkscape:connector-curvature="0" />
    </g>
    <g
       aria-label="offset
"
       transform="rotate(92.345118,2.5184696,-3.6829391)"
       style="font-style:normal;font-weight:normal;font-size:4.72717714px;line-height:1.25;font-family:sans-serif;letter-spacing:0px;word-spacing:0px;fill:#000000;fill-opacity:1;stroke:none;stroke-width:0.11817943"
       id="text875">
      <path
         d="m 262.6232,-45.892818 q -0.34161,0 -0.54012,0.26775 -0.1985,0.265442 -0.1985,0.729389 0,0.463946 0.1962,0.731696 0.1985,0.265443 0.54242,0.265443 0.3393,0 0.53781,-0.267751 0.1985,-0.26775 0.1985,-0.729388 0,-0.459331 -0.1985,-0.727081 -0.19851,-0.270058 -0.53781,-0.270058 z m 0,-0.360078 q 0.55397,0 0.87019,0.360078 0.31622,0.360078 0.31622,0.997139 0,0.634752 -0.31622,0.997139 -0.31622,0.360077 -0.87019,0.360077 -0.55627,0 -0.8725,-0.360077 -0.31391,-0.362387 -0.31391,-0.997139 0,-0.637061 0.31391,-0.997139 0.31623,-0.360078 0.8725,-0.360078 z"
         style="stroke-width:0.11817943"
         id="path913"
         inkscape:connector-curvature="0" />
      <path
         d="m 265.82005,-47.196947 v 0.353154 h -0.40625 q -0.22851,0 -0.31853,0.09233 -0.0877,0.09233 -0.0877,0.33238 v 0.228511 h 0.69939 v 0.330071 h -0.69939 v 2.255104 h -0.42701 v -2.255104 h -0.40624 v -0.330071 h 0.40624 v -0.180039 q 0,-0.431632 0.20081,-0.627828 0.20081,-0.198505 0.63706,-0.198505 z"
         style="stroke-width:0.11817943"
         id="path915"
         inkscape:connector-curvature="0" />
      <path
         d="m 267.48194,-47.196947 v 0.353154 h -0.40624 q -0.22851,0 -0.31853,0.09233 -0.0877,0.09233 -0.0877,0.33238 v 0.228511 h 0.69938 v 0.330071 h -0.69938 v 2.255104 h -0.42701 v -2.255104 h -0.40625 v -0.330071 h 0.40625 v -0.180039 q 0,-0.431632 0.20081,-0.627828 0.20081,-0.198505 0.63706,-0.198505 z"
         style="stroke-width:0.11817943"
         id="path917"
         inkscape:connector-curvature="0" />
      <path
         d="m 269.48315,-46.114405 v 0.401626 q -0.18004,-0.09233 -0.37393,-0.138492 -0.19389,-0.04616 -0.40163,-0.04616 -0.31622,0 -0.47548,0.09694 -0.15696,0.09694 -0.15696,0.290833 0,0.147724 0.1131,0.233127 0.1131,0.0831 0.45472,0.159265 l 0.14541,0.03232 q 0.45241,0.09694 0.64168,0.274675 0.19158,0.175422 0.19158,0.491645 0,0.360078 -0.28622,0.570123 -0.2839,0.210045 -0.78247,0.210045 -0.20774,0 -0.43394,-0.04155 -0.2239,-0.03924 -0.47318,-0.120026 v -0.438556 q 0.23543,0.122334 0.46394,0.184655 0.22851,0.06001 0.45241,0.06001 0.30006,0 0.46164,-0.101561 0.16157,-0.103868 0.16157,-0.290832 0,-0.173114 -0.11772,-0.265442 -0.11541,-0.09233 -0.51011,-0.177731 l -0.14772,-0.03462 q -0.3947,-0.0831 -0.57013,-0.253902 -0.17542,-0.173114 -0.17542,-0.473179 0,-0.364694 0.25852,-0.563199 0.25852,-0.198504 0.734,-0.198504 0.23544,0 0.44318,0.03462 0.20773,0.03462 0.38316,0.103868 z"
         style="stroke-width:0.11817943"
         id="path919"
         inkscape:connector-curvature="0" />
      <path
         d="m 272.51149,-45.004164 v 0.207737 h -1.95273 q 0.0277,0.438556 0.26314,0.669376 0.23774,0.228511 0.66014,0.228511 0.24467,0 0.47318,-0.06001 0.23082,-0.06001 0.45702,-0.180039 v 0.401625 q -0.22851,0.09694 -0.46856,0.147724 -0.24005,0.05078 -0.48703,0.05078 -0.61859,0 -0.98098,-0.360077 -0.36008,-0.360078 -0.36008,-0.974057 0,-0.634753 0.34161,-1.006372 0.34392,-0.373927 0.92559,-0.373927 0.52165,0 0.82402,0.336996 0.30468,0.334688 0.30468,0.911736 z m -0.4247,-0.124643 q -0.005,-0.348537 -0.1962,-0.556274 -0.18927,-0.207737 -0.50318,-0.207737 -0.35547,0 -0.57013,0.200812 -0.21235,0.200813 -0.24467,0.565507 z"
         style="stroke-width:0.11817943"
         id="path921"
         inkscape:connector-curvature="0" />
      <path
         d="m 273.62866,-46.92458 v 0.734005 h 0.8748 v 0.330071 h -0.8748 v 1.403381 q 0,0.316222 0.0854,0.406242 0.0877,0.09002 0.35316,0.09002 h 0.43624 v 0.355462 h -0.43624 q -0.49165,0 -0.67861,-0.182347 -0.18697,-0.184656 -0.18697,-0.669376 v -1.403381 h -0.3116 v -0.330071 h 0.3116 v -0.734005 z"
         style="stroke-width:0.11817943"
         id="path923"
         inkscape:connector-curvature="0" />
    </g>
    <g
       aria-label="out
"
       transform="matrix(0.95277575,0.28542636,-0.28767396,0.96338538,-250.99926,237.09134)"
       style="font-style:normal;font-weight:normal;font-size:4.33383846px;line-height:1.25;font-family:sans-serif;letter-spacing:0px;word-spacing:0px;fill:#000000;fill-opacity:1;stroke:none;stroke-width:0.10834597"
       id="text883"
       inkscape:transform-center-x="0.93544334"
       inkscape:transform-center-y="-1.122532">
      <path
         d="m 279.5051,-46.328238 q -0.31319,0 -0.49518,0.245471 -0.18198,0.243355 -0.18198,0.668698 0,0.425342 0.17987,0.670813 0.18198,0.243356 0.49729,0.243356 0.31107,0 0.49306,-0.245472 0.18198,-0.245471 0.18198,-0.668697 0,-0.421111 -0.18198,-0.666582 -0.18199,-0.247587 -0.49306,-0.247587 z m 0,-0.330117 q 0.50787,0 0.79778,0.330117 0.28991,0.330116 0.28991,0.914169 0,0.581936 -0.28991,0.914169 -0.28991,0.330116 -0.79778,0.330116 -0.50999,0 -0.7999,-0.330116 -0.28779,-0.332233 -0.28779,-0.914169 0,-0.584053 0.28779,-0.914169 0.28991,-0.330117 0.7999,-0.330117 z"
         style="stroke-width:0.10834597"
         id="path906"
         inkscape:connector-curvature="0" />
      <path
         d="m 281.19589,-45.166482 v -1.434737 h 0.38937 v 1.419924 q 0,0.336465 0.1312,0.505756 0.1312,0.167174 0.3936,0.167174 0.3153,0 0.49729,-0.201032 0.1841,-0.201033 0.1841,-0.548079 v -1.343743 h 0.38937 v 2.370067 h -0.38937 v -0.363974 q -0.14178,0.215845 -0.33011,0.321652 -0.18622,0.10369 -0.43381,0.10369 -0.40842,0 -0.62003,-0.253936 -0.21161,-0.253935 -0.21161,-0.742762 z"
         style="stroke-width:0.10834597"
         id="path908"
         inkscape:connector-curvature="0" />
      <path
         d="m 284.3722,-47.274149 v 0.67293 h 0.80202 v 0.302606 h -0.80202 v 1.286609 q 0,0.28991 0.0783,0.372439 0.0804,0.08253 0.32377,0.08253 h 0.39995 v 0.325884 h -0.39995 q -0.45074,0 -0.62215,-0.167174 -0.1714,-0.169291 -0.1714,-0.613678 v -1.286609 h -0.28568 v -0.302606 h 0.28568 v -0.67293 z"
         style="stroke-width:0.10834597"
         id="path910"
         inkscape:connector-curvature="0" />
    </g>
    <g
       aria-label="quant
"
       transform="matrix(0.71687236,0.53933631,-0.67006342,0.73500573,-206.99007,161.99108)"
       style="font-style:normal;font-weight:normal;font-size:2.62611079px;line-height:1.25;font-family:sans-serif;letter-spacing:0px;word-spacing:0px;fill:#000000;fill-opacity:1;stroke:none;stroke-width:0.06565277"
       id="text889">
      <path
         d="m 287.39338,-45.934187 q 0,0.260303 0.10643,0.409048 0.10771,0.147462 0.29493,0.147462 0.18721,0 0.29492,-0.147462 0.10771,-0.148745 0.10771,-0.409048 0,-0.260303 -0.10771,-0.407765 -0.10771,-0.148745 -0.29492,-0.148745 -0.18722,0 -0.29493,0.148745 -0.10643,0.147462 -0.10643,0.407765 z m 0.80399,0.501372 q -0.0744,0.128228 -0.18849,0.19106 -0.11284,0.06155 -0.27185,0.06155 -0.2603,0 -0.42443,-0.207729 -0.16285,-0.20773 -0.16285,-0.546252 0,-0.338522 0.16285,-0.546251 0.16413,-0.20773 0.42443,-0.20773 0.15901,0 0.27185,0.06283 0.11412,0.06155 0.18849,0.189777 v -0.217987 h 0.23594 v 1.982406 h -0.23594 z"
         style="stroke-width:0.06565277"
         id="path895"
         inkscape:connector-curvature="0" />
      <path
         d="m 288.89493,-45.78416 v -0.869386 h 0.23594 v 0.86041 q 0,0.203883 0.0795,0.306465 0.0795,0.1013 0.2385,0.1013 0.19106,0 0.30134,-0.121816 0.11155,-0.121817 0.11155,-0.332111 v -0.814248 h 0.23594 v 1.436154 h -0.23594 v -0.220552 q -0.0859,0.130792 -0.20003,0.194906 -0.11284,0.06283 -0.26287,0.06283 -0.24748,0 -0.37571,-0.153874 -0.12823,-0.153873 -0.12823,-0.45008 z"
         style="stroke-width:0.06565277"
         id="path897"
         inkscape:connector-curvature="0" />
      <path
         d="m 291.23894,-45.939316 q -0.28595,0 -0.39622,0.0654 -0.11028,0.0654 -0.11028,0.223117 0,0.125664 0.0821,0.200036 0.0833,0.07309 0.22568,0.07309 0.19619,0 0.31416,-0.138486 0.11925,-0.139769 0.11925,-0.370579 v -0.05257 z m 0.4706,-0.09745 v 0.819377 h -0.23594 v -0.217988 q -0.0808,0.130793 -0.20132,0.193625 -0.12053,0.06155 -0.29492,0.06155 -0.22055,0 -0.35135,-0.123099 -0.12951,-0.124381 -0.12951,-0.33211 0,-0.242352 0.16157,-0.36545 0.16285,-0.123099 0.4847,-0.123099 h 0.33083 v -0.02308 q 0,-0.16285 -0.10771,-0.251327 -0.10643,-0.08976 -0.30005,-0.08976 -0.1231,0 -0.23979,0.02949 -0.11669,0.02949 -0.2244,0.08848 v -0.217988 q 0.12951,-0.05001 0.25133,-0.07437 0.12181,-0.02565 0.23722,-0.02565 0.31159,0 0.46547,0.161567 0.15387,0.161568 0.15387,0.489832 z"
         style="stroke-width:0.06565277"
         id="path899"
         inkscape:connector-curvature="0" />
      <path
         d="m 293.39061,-46.084214 v 0.866822 h -0.23594 v -0.859128 q 0,-0.203883 -0.0795,-0.305183 -0.0795,-0.1013 -0.23851,-0.1013 -0.19106,0 -0.30133,0.121817 -0.11028,0.121816 -0.11028,0.33211 v 0.811684 h -0.23722 v -1.436154 h 0.23722 v 0.223117 q 0.0846,-0.129511 0.19876,-0.193625 0.1154,-0.06411 0.26543,-0.06411 0.24748,0 0.37442,0.153874 0.12695,0.152591 0.12695,0.45008 z"
         style="stroke-width:0.06565277"
         id="path901"
         inkscape:connector-curvature="0" />
      <path
         d="m 294.09715,-47.061312 v 0.407766 h 0.48598 v 0.183366 h -0.48598 v 0.779626 q 0,0.175673 0.0474,0.225682 0.0487,0.05001 0.19619,0.05001 h 0.24235 v 0.197471 h -0.24235 q -0.27313,0 -0.37699,-0.1013 -0.10387,-0.102583 -0.10387,-0.371862 v -0.779626 h -0.1731 v -0.183366 h 0.1731 v -0.407766 z"
         style="stroke-width:0.06565277"
         id="path903"
         inkscape:connector-curvature="0" />
    </g>
    <g
       aria-label="input"
       transform="matrix(-0.05517726,1.2356331,-1.3473348,-0.05060276,-17.270739,-24.803586)"
       style="font-style:normal;font-weight:normal;font-size:3.36718512px;line-height:1.25;font-family:sans-serif;letter-spacing:0px;word-spacing:0px;fill:#000000;fill-opacity:1;stroke:none;stroke-width:0.08417963"
       id="text893">
      <path
         d="m 182.55822,-45.95138 h 0.30252 v 1.841429 h -0.30252 z m 0,-0.716843 h 0.30252 v 0.383084 h -0.30252 z"
         style="stroke-width:0.08417963"
         id="path937"
         inkscape:connector-curvature="0" />
      <path
         d="m 185.02278,-45.221385 v 1.111434 h -0.30252 v -1.101569 q 0,-0.261418 -0.10194,-0.391304 -0.10193,-0.129887 -0.30581,-0.129887 -0.24497,0 -0.38637,0.156193 -0.14139,0.156193 -0.14139,0.425831 v 1.040736 h -0.30417 v -1.841429 h 0.30417 v 0.286079 q 0.10851,-0.166058 0.25484,-0.248264 0.14797,-0.08221 0.34033,-0.08221 0.31732,0 0.48009,0.197296 0.16277,0.195652 0.16277,0.577091 z"
         style="stroke-width:0.08417963"
         id="path939"
         inkscape:connector-curvature="0" />
      <path
         d="m 185.92212,-44.386165 v 0.976615 h -0.30416 v -2.54183 h 0.30416 v 0.279502 q 0.0954,-0.164413 0.24004,-0.243331 0.14633,-0.08056 0.34856,-0.08056 0.3354,0 0.54421,0.26635 0.21045,0.266349 0.21045,0.7004 0,0.434052 -0.21045,0.700401 -0.20881,0.26635 -0.54421,0.26635 -0.20223,0 -0.34856,-0.07892 -0.14468,-0.08056 -0.24004,-0.244975 z m 1.02923,-0.642857 q 0,-0.333759 -0.13811,-0.522834 -0.13646,-0.190719 -0.37651,-0.190719 -0.24004,0 -0.37815,0.190719 -0.13646,0.189075 -0.13646,0.522834 0,0.33376 0.13646,0.524479 0.13811,0.189075 0.37815,0.189075 0.24005,0 0.37651,-0.189075 0.13811,-0.190719 0.13811,-0.524479 z"
         style="stroke-width:0.08417963"
         id="path941"
         inkscape:connector-curvature="0" />
      <path
         d="m 187.7356,-44.836658 v -1.114722 h 0.30252 v 1.103213 q 0,0.261417 0.10194,0.392948 0.10193,0.129887 0.30581,0.129887 0.24497,0 0.38637,-0.156193 0.14304,-0.156193 0.14304,-0.425831 v -1.044024 h 0.30252 v 1.841429 h -0.30252 v -0.282791 q -0.11016,0.167702 -0.25649,0.249908 -0.14468,0.08056 -0.33705,0.08056 -0.31731,0 -0.48173,-0.197296 -0.16441,-0.197296 -0.16441,-0.577091 z"
         style="stroke-width:0.08417963"
         id="path943"
         inkscape:connector-curvature="0" />
      <path
         d="m 190.20344,-46.474215 v 0.522835 h 0.62313 v 0.235111 h -0.62313 v 0.999633 q 0,0.225246 0.0608,0.289367 0.0625,0.06412 0.25155,0.06412 h 0.31074 v 0.253197 h -0.31074 q -0.3502,0 -0.48338,-0.129887 -0.13317,-0.13153 -0.13317,-0.476798 v -0.999633 h -0.22196 v -0.235111 h 0.22196 v -0.522835 z"
         style="stroke-width:0.08417963"
         id="path945"
         inkscape:connector-curvature="0" />
    </g>
  </g>
</svg>
