<?xml version="1.0" encoding="UTF-8" standalone="no"?>
<!-- Created with Inkscape (http://www.inkscape.org/) -->

<svg
   xmlns:dc="http://purl.org/dc/elements/1.1/"
   xmlns:cc="http://creativecommons.org/ns#"
   xmlns:rdf="http://www.w3.org/1999/02/22-rdf-syntax-ns#"
   xmlns:svg="http://www.w3.org/2000/svg"
   xmlns="http://www.w3.org/2000/svg"
   xmlns:sodipodi="http://sodipodi.sourceforge.net/DTD/sodipodi-0.dtd"
   xmlns:inkscape="http://www.inkscape.org/namespaces/inkscape"
   width="320"
   height="380"
   viewBox="0 0 84.666671 100.54167"
   version="1.1"
   id="svg8"
   inkscape:version="0.92.2 5c3e80d, 2017-08-06"
   sodipodi:docname="ComputerscareILoveCookiesPanel.svg"
   style="enable-background:new">
  <defs
     id="defs2">
    <inkscape:perspective
       sodipodi:type="inkscape:persp3d"
       inkscape:vp_x="0 : 50.270835 : 1"
       inkscape:vp_y="0 : 1000 : 0"
       inkscape:vp_z="23.812501 : 50.270835 : 1"
       inkscape:persp3d-origin="11.906251 : 33.51389 : 1"
       id="perspective1881" />
  </defs>
  <sodipodi:namedview
     id="base"
     pagecolor="#ffffff"
     bordercolor="#666666"
     borderopacity="1.0"
     inkscape:pageopacity="0.0"
     inkscape:pageshadow="2"
     inkscape:zoom="5.6568544"
     inkscape:cx="134.26049"
     inkscape:cy="357.21727"
     inkscape:document-units="mm"
     inkscape:current-layer="text1651"
     showgrid="false"
     units="px"
     inkscape:snap-bbox="true"
     inkscape:snap-page="true"
     inkscape:bbox-nodes="true"
     inkscape:snap-bbox-edge-midpoints="true"
     inkscape:window-width="1440"
     inkscape:window-height="856"
     inkscape:window-x="0"
     inkscape:window-y="0"
     inkscape:window-maximized="0"
     inkscape:snap-nodes="false"
     inkscape:snap-others="false"
     inkscape:snap-global="false" />
  <metadata
     id="metadata5">
    <rdf:RDF>
      <cc:Work
         rdf:about="">
        <dc:format>image/svg+xml</dc:format>
        <dc:type
           rdf:resource="http://purl.org/dc/dcmitype/StillImage" />
        <dc:title />
      </cc:Work>
    </rdf:RDF>
  </metadata>
  <g
     style="display:inline"
     transform="translate(0,-196.45832)"
     id="g1669"
     inkscape:groupmode="layer"
     inkscape:label="Layer 1 copy">
    <path
       inkscape:connector-curvature="0"
       id="path1647"
       d="M 0,196.45832 H 84.666667 V 297 H 0 Z"
       style="opacity:1;vector-effect:none;fill:#f9f9f9;fill-opacity:1;fill-rule:evenodd;stroke:none;stroke-width:0.91654366;stroke-linecap:butt;stroke-linejoin:round;stroke-miterlimit:4;stroke-dasharray:none;stroke-dashoffset:0;stroke-opacity:1;paint-order:normal" />
    <g
       aria-label="computerscare"
       transform="matrix(0.98656289,0.0441007,-0.12576361,1.0079983,81.852341,-2.779225)"
       style="font-style:normal;font-weight:normal;font-size:10.58333302px;line-height:1.25;font-family:sans-serif;letter-spacing:0px;word-spacing:0px;fill:#000000;fill-opacity:1;stroke:none;stroke-width:0.26458332"
       id="text1651">
      <path
         d="m 6.6805153,294.74087 -0.016688,0.21573 q -0.091784,-0.0455 -0.1869432,-0.0633 -0.093833,-0.0192 -0.1922912,-0.0106 -0.2202194,0.0192 -0.3530674,0.17279 -0.1327584,0.15233 -0.1526496,0.40948 -0.019887,0.25711 0.090844,0.38948 0.1108289,0.13112 0.3310431,0.11194 0.098425,-0.009 0.1964041,-0.0432 0.09932,-0.036 0.1994563,-0.0984 l -0.016492,0.21322 q -0.09823,0.0535 -0.2020758,0.0849 -0.1026226,0.0313 -0.2170348,0.0413 -0.3112454,0.027 -0.4791286,-0.15633 -0.1678799,-0.18346 -0.1416814,-0.52211 0.026586,-0.34368 0.226355,-0.55668 0.2009995,-0.2131 0.523323,-0.24118 0.1045662,-0.009 0.2024381,0.006 0.098002,0.0127 0.1881007,0.0485 z"
         style="font-style:normal;font-variant:normal;font-weight:normal;font-stretch:normal;font-size:2.82222223px;font-family:sans-serif;-inkscape-font-specification:'sans-serif, Normal';font-variant-ligatures:normal;font-variant-caps:normal;font-variant-numeric:normal;font-feature-settings:normal;text-align:start;writing-mode:lr-tb;text-anchor:start;stroke-width:0.23769678"
         id="path1701"
         inkscape:connector-curvature="0" />
      <path
         d="m 7.6022319,294.7677 q -0.1820776,0.0159 -0.2991302,0.17058 -0.1169599,0.15346 -0.1364596,0.40556 -0.019498,0.25212 0.073816,0.3885 0.094643,0.13502 0.277948,0.11906 0.1808374,-0.0158 0.297902,-0.17048 0.1170552,-0.15472 0.1364596,-0.40557 0.01931,-0.24958 -0.075238,-0.38588 -0.094449,-0.13753 -0.2752952,-0.12177 z m 0.015134,-0.19566 q 0.2952536,-0.0257 0.4486639,0.15525 0.153406,0.18099 0.1266273,0.52716 -0.026679,0.34494 -0.2104596,0.55653 -0.1836786,0.21035 -0.4789357,0.23608 -0.2964931,0.0258 -0.4498964,-0.15514 -0.1520785,-0.18236 -0.1253963,-0.52727 0.026781,-0.34618 0.2092287,-0.55642 0.1836792,-0.21036 0.4801681,-0.23619 z"
         style="font-style:normal;font-variant:normal;font-weight:normal;font-stretch:normal;font-size:2.82222223px;font-family:sans-serif;-inkscape-font-specification:'sans-serif, Normal';font-variant-ligatures:normal;font-variant-caps:normal;font-variant-numeric:normal;font-feature-settings:normal;text-align:start;writing-mode:lr-tb;text-anchor:start;stroke-width:0.23769678"
         id="path1703"
         inkscape:connector-curvature="0" />
      <path
         d="m 10.251377,294.84502 q 0.17921,-0.12523 0.345108,-0.18504 0.165889,-0.0598 0.331807,-0.0603 0.223344,-4.8e-4 0.254151,0.12307 0.03156,0.12267 -0.134593,0.35048 l -0.496966,0.68144 -0.23608,9e-5 0.492559,-0.67539 q 0.118357,-0.1623 0.102964,-0.24074 -0.01541,-0.0784 -0.164722,-0.078 -0.1825,4.4e-4 -0.358263,0.0965 -0.175764,0.096 -0.296331,0.26137 l -0.4653557,0.6381 -0.2360821,9e-5 0.4925593,-0.6754 q 0.1190965,-0.16331 0.1029539,-0.24073 -0.015409,-0.0784 -0.1672727,-0.078 -0.1799435,4e-4 -0.3564458,0.0975 -0.1757627,0.096 -0.2955924,0.26035 l -0.4653582,0.63811 -0.2360748,9e-5 0.8233759,-1.12901 0.2360804,-9e-5 -0.127912,0.17539 q 0.1561197,-0.10403 0.3044503,-0.15374 0.1483225,-0.0497 0.3027299,-0.05 0.155711,-6.2e-4 0.218621,0.0618 0.06418,0.0622 0.02976,0.18102 z"
         style="font-style:normal;font-variant:normal;font-weight:normal;font-stretch:normal;font-size:2.82222223px;font-family:sans-serif;-inkscape-font-specification:'sans-serif, Normal';font-variant-ligatures:normal;font-variant-caps:normal;font-variant-numeric:normal;font-feature-settings:normal;text-align:start;writing-mode:lr-tb;text-anchor:start;stroke-width:0.21756229"
         id="path1705"
         inkscape:connector-curvature="0" />
      <path
         d="m 11.470278,295.6447 -0.166298,0.6538 -0.226498,0.0407 0.432828,-1.70163 0.226499,-0.0406 -0.04759,0.1871 q 0.09895,-0.12297 0.220025,-0.1954 0.122591,-0.0737 0.27304,-0.10108 0.249389,-0.0458 0.35952,0.10461 0.111224,0.14981 0.03731,0.4404 -0.07392,0.29057 -0.275835,0.49738 -0.2007,0.20658 -0.450227,0.25202 -0.150376,0.0276 -0.245911,-0.006 -0.09391,-0.0342 -0.136875,-0.13149 z m 0.875182,-0.56976 q 0.05684,-0.22343 -0.01371,-0.33131 -0.06905,-0.10919 -0.247639,-0.0767 -0.178587,0.0325 -0.313807,0.1789 -0.133721,0.14505 -0.190557,0.36849 -0.05684,0.22344 0.01221,0.33263 0.07055,0.10787 0.249141,0.0754 0.178588,-0.0325 0.312306,-0.17756 0.135225,-0.14638 0.192054,-0.36983 z"
         style="font-style:normal;font-variant:normal;font-weight:normal;font-stretch:normal;font-size:2.82222223px;font-family:sans-serif;-inkscape-font-specification:'sans-serif, Normal';font-variant-ligatures:normal;font-variant-caps:normal;font-variant-numeric:normal;font-feature-settings:normal;text-align:start;writing-mode:lr-tb;text-anchor:start;stroke-width:0.21756229"
         id="path1707"
         inkscape:connector-curvature="0" />
      <path
         d="m 12.631037,295.5364 0.491324,-0.73927 0.234932,5e-4 -0.486251,0.73166 q -0.115221,0.17336 -0.09403,0.26066 0.0219,0.0862 0.180229,0.0863 0.190253,2e-5 0.368889,-0.10335 0.17992,-0.1035 0.298766,-0.28232 l 0.460161,-0.6924 0.23493,5.1e-4 -0.811622,1.22122 -0.234932,-5.1e-4 0.124642,-0.18755 q -0.15946,0.11115 -0.309324,0.16557 -0.147856,0.0533 -0.297227,0.0532 -0.246395,-9.2e-4 -0.287136,-0.13115 -0.04071,-0.13096 0.126673,-0.38281 z"
         style="font-style:normal;font-variant:normal;font-weight:normal;font-stretch:normal;font-size:2.82222223px;font-family:sans-serif;-inkscape-font-specification:'sans-serif, Normal';font-variant-ligatures:normal;font-variant-caps:normal;font-variant-numeric:normal;font-feature-settings:normal;text-align:start;writing-mode:lr-tb;text-anchor:start;stroke-width:0.2266023"
         id="path1709"
         inkscape:connector-curvature="0" />
      <path
         d="m 14.922754,294.31023 -0.0074,0.31552 0.490495,-10e-4 -0.0033,0.14188 -0.490495,10e-4 -0.01421,0.60325 q -0.0032,0.13593 0.04376,0.17449 0.04828,0.0385 0.1971,0.0381 l 0.244588,-8e-4 -0.0036,0.15279 -0.24459,8e-4 q -0.275683,10e-4 -0.378642,-0.0773 -0.102958,-0.0791 -0.09804,-0.28743 l 0.0142,-0.60324 -0.174707,3.2e-4 0.0033,-0.14189 0.174708,-3.2e-4 0.0074,-0.31552 z"
         style="font-style:normal;font-variant:normal;font-weight:normal;font-stretch:normal;font-size:2.82222223px;font-family:sans-serif;-inkscape-font-specification:'sans-serif, Normal';font-variant-ligatures:normal;font-variant-caps:normal;font-variant-numeric:normal;font-feature-settings:normal;text-align:start;writing-mode:lr-tb;text-anchor:start;stroke-width:0.21756229"
         id="path1711"
         inkscape:connector-curvature="0" />
      <path
         d="m 16.94157,295.07858 -0.0011,0.0968 -1.095364,-5.5e-4 q 0.01312,0.20442 0.143907,0.31207 0.132097,0.10657 0.369038,0.1067 0.137232,2.4e-4 0.265754,-0.0278 0.129809,-0.0279 0.257357,-0.0838 l -0.0022,0.1872 q -0.128717,0.0451 -0.26365,0.0687 -0.134936,0.0236 -0.273472,0.0235 -0.34698,-6.1e-4 -0.548281,-0.16812 -0.199994,-0.16793 -0.196604,-0.45409 0.0035,-0.29585 0.197182,-0.46896 0.194983,-0.17417 0.521261,-0.174 0.292604,2.1e-4 0.460367,0.1573 0.169059,0.15608 0.165873,0.42504 z m -0.237545,-0.0583 q -7.08e-4,-0.16245 -0.106982,-0.25931 -0.105024,-0.0969 -0.28111,-0.097 -0.199387,-4.6e-4 -0.320912,0.0934 -0.120228,0.0935 -0.140368,0.26351 z"
         style="font-style:normal;font-variant:normal;font-weight:normal;font-stretch:normal;font-size:2.82222223px;font-family:sans-serif;-inkscape-font-specification:'sans-serif, Normal';font-variant-ligatures:normal;font-variant-caps:normal;font-variant-numeric:normal;font-feature-settings:normal;text-align:start;writing-mode:lr-tb;text-anchor:start;stroke-width:0.2266023"
         id="path1713"
         inkscape:connector-curvature="0" />
      <path
         d="m 18.549259,294.59448 q -0.05705,-0.0213 -0.122602,-0.0295 -0.06376,-0.0115 -0.139034,-0.011 -0.267558,1.2e-4 -0.387876,0.12251 -0.118969,0.11945 -0.07508,0.34233 l 0.136229,0.69199 -0.316855,0.003 -0.258668,-1.31363 0.316855,-0.003 0.04014,0.20407 q 0.07586,-0.12023 0.223981,-0.17893 0.147867,-0.0598 0.375872,-0.0614 0.03256,-2.3e-4 0.07273,0.003 0.03969,0.003 0.08898,0.007 z"
         style="font-style:normal;font-variant:normal;font-weight:normal;font-stretch:normal;font-size:2.82222223px;font-family:sans-serif;-inkscape-font-specification:'sans-serif, Normal';font-variant-ligatures:normal;font-variant-caps:normal;font-variant-numeric:normal;font-feature-settings:normal;text-align:start;writing-mode:lr-tb;text-anchor:start;stroke-width:0.27243829"
         id="path1715"
         inkscape:connector-curvature="0" />
      <path
         d="m 20.202252,294.56561 0.05561,0.18117 q -0.134233,-0.0538 -0.271475,-0.0875 -0.137211,-0.0339 -0.277399,-0.0478 -0.213395,-0.0211 -0.307461,0.0121 -0.09249,0.0334 -0.06567,0.12071 0.0204,0.0667 0.108576,0.1127 0.08783,0.0451 0.328918,0.1022 l 0.102538,0.0243 q 0.318708,0.0739 0.471041,0.16671 0.153587,0.0919 0.197348,0.23457 0.04985,0.16242 -0.114212,0.23805 -0.162476,0.0757 -0.498952,0.0427 -0.140163,-0.0137 -0.298619,-0.0477 -0.156496,-0.0327 -0.335937,-0.0858 l -0.06073,-0.19783 q 0.17584,0.0709 0.338622,0.11428 0.162537,0.0423 0.3136,0.0572 0.202502,0.0201 0.297484,-0.0149 0.09462,-0.036 0.06879,-0.1204 -0.024,-0.0781 -0.116196,-0.1276 -0.09065,-0.0493 -0.368857,-0.11411 l -0.10449,-0.0255 q -0.277799,-0.0638 -0.419883,-0.15257 -0.142346,-0.0897 -0.18389,-0.22515 -0.05049,-0.1645 0.09648,-0.23679 0.147014,-0.0723 0.467874,-0.0405 0.158847,0.0158 0.303897,0.0452 0.144979,0.0294 0.272943,0.0724 z"
         style="font-style:normal;font-variant:normal;font-weight:normal;font-stretch:normal;font-size:2.82222223px;font-family:sans-serif;-inkscape-font-specification:'sans-serif, Normal';font-variant-ligatures:normal;font-variant-caps:normal;font-variant-numeric:normal;font-feature-settings:normal;text-align:start;writing-mode:lr-tb;text-anchor:start;stroke-width:0.24076694"
         id="path1717"
         inkscape:connector-curvature="0" />
      <path
         d="m 21.467089,294.15645 0.09339,0.18105 q -0.13992,-0.0455 -0.269375,-0.0675 -0.128506,-0.0232 -0.248073,-0.0231 -0.267889,-8.2e-4 -0.353607,0.11971 -0.08663,0.11885 0.02463,0.33462 0.111298,0.21575 0.321091,0.33583 0.209298,0.11902 0.476827,0.11919 0.119338,-2.9e-4 0.224758,-0.0219 0.106151,-0.0231 0.199349,-0.0682 l 0.09232,0.17891 q -0.09546,0.0378 -0.209797,0.0567 -0.112787,0.0188 -0.251721,0.0188 -0.377888,5e-5 -0.687103,-0.16775 -0.308977,-0.16746 -0.455519,-0.45164 -0.148736,-0.2884 -0.0097,-0.45351 0.140472,-0.16509 0.53204,-0.16483 0.126621,-2.3e-4 0.25786,0.019 0.130311,0.0179 0.262873,0.0551 z"
         style="font-style:normal;font-variant:normal;font-weight:normal;font-stretch:normal;font-size:2.82222223px;font-family:sans-serif;-inkscape-font-specification:'sans-serif, Normal';font-variant-ligatures:normal;font-variant-caps:normal;font-variant-numeric:normal;font-feature-settings:normal;text-align:start;writing-mode:lr-tb;text-anchor:start;stroke-width:0.24076694"
         id="path1719"
         inkscape:connector-curvature="0" />
      <path
         d="m 22.848255,294.76509 q -0.324049,0.0145 -0.412927,0.075 -0.08878,0.0605 -0.0016,0.19293 0.06954,0.10555 0.203589,0.16385 0.134877,0.0572 0.296138,0.0499 0.222393,-0.01 0.279493,-0.13222 0.05788,-0.12339 -0.06973,-0.31721 l -0.02911,-0.0442 z m 0.47948,-0.10562 0.453008,0.68806 -0.266864,0.0126 -0.120515,-0.18306 q -0.01921,0.11387 -0.121119,0.1728 -0.102601,0.0577 -0.300181,0.0666 -0.249975,0.0111 -0.466214,-0.0857 -0.215582,-0.0978 -0.330397,-0.27232 -0.134042,-0.20353 -0.01894,-0.31506 0.116528,-0.11161 0.481275,-0.12792 l 0.374957,-0.0167 -0.01278,-0.0192 q -0.09003,-0.13675 -0.261034,-0.20558 -0.170245,-0.07 -0.389748,-0.0601 -0.139642,0.006 -0.255461,0.037 -0.115999,0.0307 -0.205427,0.0858 l -0.120504,-0.18305 q 0.119183,-0.0485 0.243677,-0.0751 0.123899,-0.0277 0.254636,-0.0335 0.353322,-0.0155 0.616856,0.11216 0.263723,0.12788 0.44521,0.40354 z"
         style="font-style:normal;font-variant:normal;font-weight:normal;font-stretch:normal;font-size:2.82222223px;font-family:sans-serif;-inkscape-font-specification:'sans-serif, Normal';font-variant-ligatures:normal;font-variant-caps:normal;font-variant-numeric:normal;font-feature-settings:normal;text-align:start;writing-mode:lr-tb;text-anchor:start;stroke-width:0.24368711"
         id="path1721"
         inkscape:connector-curvature="0" />
      <path
         d="m 24.559922,294.19624 q -0.05862,-0.0187 -0.118501,-0.0254 -0.05964,-0.007 -0.123586,-0.004 -0.226885,0.01 -0.271945,0.13195 -0.04437,0.12085 0.09931,0.33836 l 0.44616,0.67545 -0.269288,0.0112 -0.8469,-1.28215 0.269291,-0.0112 0.131588,0.19918 q 0.0073,-0.12044 0.105449,-0.18241 0.09741,-0.0632 0.290941,-0.0716 0.02765,-9.6e-4 0.06323,4.5e-4 0.03494,6.5e-4 0.07928,0.006 z"
         style="font-style:normal;font-variant:normal;font-weight:normal;font-stretch:normal;font-size:2.82222223px;font-family:sans-serif;-inkscape-font-specification:'sans-serif, Normal';font-variant-ligatures:normal;font-variant-caps:normal;font-variant-numeric:normal;font-feature-settings:normal;text-align:start;writing-mode:lr-tb;text-anchor:start;stroke-width:0.25128216"
         id="path1723"
         inkscape:connector-curvature="0" />
      <path
         d="m 26.461145,294.55605 0.06378,0.0969 -1.229442,0.0548 q 0.152154,0.2038 0.371272,0.30486 0.21984,0.1 0.485838,0.088 0.154066,-0.007 0.279558,-0.0413 0.12691,-0.0345 0.23245,-0.0969 l 0.123335,0.18736 q -0.114079,0.0517 -0.249577,0.0821 -0.135569,0.0305 -0.291027,0.0373 -0.389751,0.0169 -0.728229,-0.1404 -0.337316,-0.15784 -0.525894,-0.44424 -0.194954,-0.29611 -0.09402,-0.47912 0.101706,-0.1841 0.467919,-0.20046 0.328404,-0.0147 0.622318,0.13404 0.294642,0.14757 0.471873,0.41677 z m -0.305714,-0.0463 q -0.110013,-0.16246 -0.294376,-0.25398 -0.18296,-0.0916 -0.380663,-0.0827 -0.22415,0.009 -0.297261,0.10974 -0.07205,0.0997 0.01965,0.2707 z"
         style="font-style:normal;font-variant:normal;font-weight:normal;font-stretch:normal;font-size:2.82222223px;font-family:sans-serif;-inkscape-font-specification:'sans-serif, Normal';font-variant-ligatures:normal;font-variant-caps:normal;font-variant-numeric:normal;font-feature-settings:normal;text-align:start;writing-mode:lr-tb;text-anchor:start;stroke-width:0.24368711"
         id="path1725"
         inkscape:connector-curvature="0" />
      <text
         xml:space="preserve"
         style="font-style:normal;font-weight:normal;font-size:3.52777767px;line-height:1.25;font-family:sans-serif;letter-spacing:0px;word-spacing:0px;fill:#000000;fill-opacity:1;stroke:none;stroke-width:0.07000434"
         x="-18.08774"
         y="188.72037"
         id="text876"
         transform="matrix(1.0079983,-0.0441007,0.12576363,0.98656289,0,0)"><tspan
           sodipodi:role="line"
           id="tspan874"
           x="-18.08774"
           y="191.84163"
           style="stroke-width:0.07000434" /></text>
      <g
         aria-label="out"
         transform="matrix(1.0743225,-0.26898724,0.37322674,0.87295797,-37.671603,34.123373)"
         style="font-style:normal;font-weight:normal;font-size:3.52777767px;line-height:1.25;font-family:sans-serif;letter-spacing:0px;word-spacing:0px;fill:#000000;fill-opacity:1;stroke:none;stroke-width:0.07000434"
         id="text888">
        <path
           d="m -13.369682,192.47237 q -0.273983,0 -0.433189,0.22592 -0.159206,0.22396 -0.159206,0.61541 0,0.39146 0.157354,0.61737 0.159207,0.22397 0.435041,0.22397 0.272131,0 0.431338,-0.22591 0.159207,-0.22592 0.159207,-0.61543 0,-0.38755 -0.159207,-0.61347 -0.159207,-0.22786 -0.431338,-0.22786 z m 0,-0.30381 q 0.444296,0 0.697916,0.30381 0.253619,0.30382 0.253619,0.84133 0,0.53557 -0.253619,0.84134 -0.25362,0.30381 -0.697916,0.30381 -0.446148,0 -0.699767,-0.30381 -0.251769,-0.30577 -0.251769,-0.84134 0,-0.53751 0.251769,-0.84133 0.253619,-0.30381 0.699767,-0.30381 z"
           style="stroke-width:0.07716621"
           id="path901"
           inkscape:connector-curvature="0" />
        <path
           d="m -11.925778,193.38936 -0.0093,-1.16785 0.316938,-0.003 0.0092,1.15579 q 0.0022,0.27389 0.110065,0.41083 0.107876,0.13523 0.321465,0.13353 0.256652,-0.002 0.403486,-0.16685 0.148558,-0.16482 0.146313,-0.44731 l -0.0087,-1.09379 0.316938,-0.003 0.01533,1.9292 -0.316938,0.003 -0.0024,-0.29627 q -0.114012,0.17661 -0.26663,0.26396 -0.150909,0.0856 -0.35244,0.0872 -0.332442,0.003 -0.506333,-0.20269 -0.173891,-0.20533 -0.177052,-0.60323 z"
           style="stroke-width:0.07000434"
           id="path903"
           inkscape:connector-curvature="0" />
        <path
           d="m -9.2205509,191.66729 v 0.65016 h 0.7963034 v 0.29238 h -0.7963034 v 1.24307 q 0,0.28011 0.077739,0.35984 0.079841,0.0798 0.3214628,0.0798 h 0.3971013 v 0.31485 h -0.3971013 q -0.4475267,0 -0.617713,-0.16152 -0.1701861,-0.16357 -0.1701861,-0.59291 v -1.24308 H -9.892892 v -0.29237 h 0.2836438 v -0.65017 z"
           style="stroke-width:0.08423072"
           id="path905"
           inkscape:connector-curvature="0" />
      </g>
      <g
         aria-label="one"
         transform="matrix(0.96175882,-0.34207491,-0.14893339,1.102215,59.092309,-13.079623)"
         style="font-style:normal;font-weight:normal;font-size:3.52777767px;line-height:1.25;font-family:sans-serif;letter-spacing:0px;word-spacing:0px;fill:#000000;fill-opacity:1;stroke:none;stroke-width:0.07000434"
         id="text892">
        <path
           d="m -21.637912,192.23885 q -0.254937,0 -0.403076,0.19981 -0.148139,0.1981 -0.148139,0.54433 0,0.34623 0.146417,0.54605 0.148139,0.19809 0.404798,0.19809 0.253215,0 0.401354,-0.19982 0.148139,-0.19981 0.148139,-0.54432 0,-0.34279 -0.148139,-0.5426 -0.148139,-0.20154 -0.401354,-0.20154 z m 0,-0.26872 q 0.413412,0 0.649401,0.26872 0.235989,0.26872 0.235989,0.74414 0,0.4737 -0.235989,0.74414 -0.235989,0.26872 -0.649401,0.26872 -0.415134,0 -0.651123,-0.26872 -0.234266,-0.27044 -0.234266,-0.74414 0,-0.47542 0.234266,-0.74414 0.235989,-0.26872 0.651123,-0.26872 z"
           style="stroke-width:0.07000434"
           id="path894"
           inkscape:connector-curvature="0" />
        <path
           d="m -18.657729,192.65297 0.191769,1.13213 -0.317087,0.0526 -0.190066,-1.12207 q -0.04511,-0.26629 -0.174362,-0.38088 -0.129256,-0.11459 -0.342945,-0.0791 -0.256773,0.0426 -0.378027,0.22625 -0.121254,0.18367 -0.07473,0.45833 l 0.179571,1.06012 -0.318811,0.0529 -0.317724,-1.87572 0.318811,-0.0529 0.04936,0.2914 q 0.08508,-0.18801 0.224276,-0.29717 0.140918,-0.10943 0.342544,-0.14286 0.332598,-0.0552 0.537247,0.11753 0.204365,0.171 0.270179,0.55954 z"
           style="stroke-width:0.07000434"
           id="path896"
           inkscape:connector-curvature="0" />
        <path
           d="m -16.339355,192.90203 v 0.15503 h -1.457275 q 0.02067,0.32728 0.19637,0.49954 0.177423,0.17053 0.492649,0.17053 0.18259,0 0.353122,-0.0448 0.172255,-0.0448 0.341065,-0.13436 v 0.29973 q -0.170533,0.0723 -0.349678,0.11024 -0.179144,0.0379 -0.363457,0.0379 -0.461643,0 -0.732083,-0.26872 -0.268717,-0.26872 -0.268717,-0.72692 0,-0.4737 0.254937,-0.75103 0.256659,-0.27905 0.690741,-0.27905 0.389296,0 0.61495,0.25149 0.227376,0.24977 0.227376,0.68041 z m -0.316949,-0.093 q -0.0034,-0.2601 -0.146416,-0.41513 -0.141249,-0.15503 -0.375516,-0.15503 -0.265272,0 -0.425469,0.14986 -0.158474,0.14986 -0.18259,0.42202 z"
           style="stroke-width:0.07000434"
           id="path898"
           inkscape:connector-curvature="0" />
      </g>
      <g
         aria-label="I Love Cookies"
         transform="matrix(0.88134036,-0.06480396,0.2054298,1.6115106,-10.378218,-125.02066)"
         style="font-style:normal;font-weight:normal;font-size:4.94244957px;line-height:1.25;font-family:sans-serif;letter-spacing:0px;word-spacing:0px;fill:#000000;fill-opacity:1;stroke:none;stroke-width:0.03269225"
         id="text901">
        <path
           d="m -40.322279,199.62443 0.644232,-0.0354 0.120382,3.43097 2.450886,0.13734 0.03245,0.47487 -2.962824,0.16259 z"
           style="stroke-width:0.04050894"
           id="path906"
           inkscape:connector-curvature="0"
           sodipodi:nodetypes="ccccccc" />
        <path
           d="m -35.357614,200.76271 q -0.404796,0 -0.640016,0.37017 -0.23522,0.36697 -0.23522,1.00838 0,0.64142 0.232485,1.01158 0.235219,0.36697 0.642751,0.36697 0.402062,0 0.637281,-0.37017 0.23522,-0.37016 0.23522,-1.00838 0,-0.63502 -0.23522,-1.0052 -0.235219,-0.37335 -0.637281,-0.37335 z m 0,-0.49782 q 0.656427,0 1.031137,0.49782 0.374711,0.49781 0.374711,1.37855 0,0.87755 -0.374711,1.37855 -0.37471,0.49782 -1.031137,0.49782 -0.659162,0 -1.033873,-0.49782 -0.371974,-0.501 -0.371974,-1.37855 0,-0.88074 0.371974,-1.37855 0.374711,-0.49782 1.033873,-0.49782 z"
           style="stroke-width:0.04002121"
           id="path908"
           inkscape:connector-curvature="0" />
        <path
           d="m -33.475857,200.50604 h 0.683962 l 0.929968,3.18139 1.525279,-3.18139 h 0.683962 l -1.539294,3.73325 -0.810729,0.21497 z"
           style="stroke-width:0.04763455"
           id="path910"
           inkscape:connector-curvature="0"
           sodipodi:nodetypes="cccccccc" />
        <path
           d="m -27.17963,202.47284 v 0.25834 l -2.313905,0.4092 c 0.02188,0.3597 0.125814,0.61879 0.311803,0.77726 0.187811,0.15623 0.448559,0.20484 0.782243,0.14583 0.193281,-0.0342 0.38018,-0.0921 0.560697,-0.17376 0.182341,-0.082 0.362859,-0.18854 0.541553,-0.31967 v 0.49944 c -0.180518,0.11229 -0.365594,0.20626 -0.555228,0.2819 -0.189635,0.0756 -0.382004,0.13067 -0.577109,0.16517 -0.488673,0.0864 -0.876148,0.006 -1.162423,-0.24221 -0.284451,-0.24821 -0.426677,-0.62683 -0.426677,-1.13584 0,-0.52624 0.134932,-0.96727 0.404797,-1.32308 0.271687,-0.35805 0.63728,-0.5777 1.096779,-0.65895 0.41209,-0.0729 0.737568,0.009 0.976435,0.2464 0.24069,0.23491 0.361035,0.59156 0.361035,1.06995 z m -0.602479,-0.13215 c -0.0036,-0.2883 -0.09763,-0.47211 -0.249021,-0.61757 -0.14952,-0.14578 -0.232516,-0.16366 -0.480499,-0.11981 -0.280805,0.0497 -0.505996,0.17273 -0.675573,0.36918 -0.167754,0.19615 -0.363613,0.5138 -0.389141,0.82066 z"
           style="stroke-width:0.03795681"
           id="path912"
           inkscape:connector-curvature="0"
           sodipodi:nodetypes="cccccccccccscccsccccccc" />
        <path
           d="m -22.945679,200.64122 v 0.4474 q -0.325406,-0.20099 -0.695476,-0.30136 -0.366879,-0.10035 -0.781611,-0.1022 -0.816705,-0.004 -1.250579,0.32421 -0.433875,0.32575 -0.433875,0.9475 0,0.61966 0.433875,0.95137 0.433874,0.32962 1.250579,0.33325 0.414732,0.002 0.781611,-0.0952 0.37007,-0.0971 0.695476,-0.29519 v 0.44322 q -0.338168,0.14974 -0.717807,0.22366 -0.37645,0.0739 -0.797563,0.0721 -1.081496,-0.005 -1.703594,-0.44239 -0.6221,-0.43968 -0.6221,-1.19377 0,-0.75618 0.6221,-1.18823 0.622098,-0.43414 1.703594,-0.42932 0.427494,0.002 0.803944,0.0792 0.379639,0.0753 0.711426,0.22583 z"
           style="stroke-width:0.03506782"
           id="path914"
           inkscape:connector-curvature="0" />
        <path
           d="m -21.466727,201.88591 q -0.357169,-0.002 -0.48726,0.20085 -0.130756,0.20068 0.0035,0.55306 0.134213,0.35238 0.416798,0.55666 0.284331,0.20253 0.643914,0.20413 0.354756,0.002 0.484846,-0.20086 0.130087,-0.20244 -0.0035,-0.55307 -0.132874,-0.34886 -0.417875,-0.55316 -0.285665,-0.20603 -0.640421,-0.20761 z m -0.104166,-0.27349 q 0.579193,0.003 1.013982,0.27754 0.434785,0.27496 0.619075,0.75882 0.183622,0.48211 -0.04217,0.75588 -0.226457,0.27202 -0.80565,0.26944 -0.581607,-0.003 -1.016396,-0.27755 -0.433041,-0.2767 -0.616663,-0.75881 -0.18429,-0.48387 0.03976,-0.75589 0.226457,-0.27202 0.808064,-0.26943 z"
           style="stroke-width:0.02784052"
           id="path916"
           inkscape:connector-curvature="0" />
        <path
           d="m -18.929377,200.7178 q -0.464482,-0.002 -0.633659,0.24704 -0.170042,0.24695 0.0046,0.68066 0.174538,0.43373 0.542027,0.68522 0.36976,0.24936 0.83738,0.25144 0.461344,0.002 0.630522,-0.24705 0.169172,-0.24911 -0.0046,-0.68068 -0.172796,-0.4294 -0.543427,-0.68091 -0.371496,-0.25367 -0.83284,-0.25572 z m -0.135463,-0.33662 q 0.753216,0.003 1.318639,0.34188 0.565417,0.33853 0.805078,0.93409 0.238792,0.59341 -0.05484,0.93028 -0.294497,0.33471 -1.047713,0.33135 -0.756353,-0.003 -1.321776,-0.3419 -0.563152,-0.34068 -0.801944,-0.93409 -0.239661,-0.59556 0.05171,-0.93027 0.294497,-0.33471 1.05085,-0.33134 z"
           style="stroke-width:0.03522132"
           id="path918"
           inkscape:connector-curvature="0" />
        <path
           d="m -16.865342,200.91755 0.446462,0.002 0.613634,1.61113 1.002396,-0.84087 0.368688,0.14556 -0.885181,0.76923 1.891796,1.05151 -0.579193,-0.003 -1.738414,-0.96507 0.365243,0.95896 -0.446462,-0.002 z"
           style="stroke-width:0.02784052"
           id="path920"
           inkscape:connector-curvature="0"
           sodipodi:nodetypes="cccccccccccc" />
        <path
           d="m -13.4376,201.08531 0.582962,0.003 v 1.96017 l -0.582962,-0.003 z m 0,-0.76306 0.582962,0.003 0.132292,0.43236 -0.715254,-0.0272 z"
           style="stroke-width:0.03189941"
           id="path922"
           inkscape:connector-curvature="0"
           sodipodi:nodetypes="cccccccccc" />
        <path
           d="m -8.6028135,202.00641 v 0.15752 l -2.6803615,-0.0119 c 0.02535,0.2218 0.145741,0.39151 0.361184,0.50915 0.217554,0.11648 0.519596,0.17558 0.906126,0.1773 0.223892,9.9e-4 0.440391,-0.0132 0.649497,-0.0426 0.2112179,-0.0294 0.4203237,-0.0739 0.6273175,-0.13373 v 0.30453 c -0.2091057,0.0481 -0.4234922,0.0845 -0.6431595,0.10915 -0.2196665,0.0247 -0.4425018,0.0365 -0.668506,0.0355 -0.566065,-0.003 -1.014904,-0.0955 -1.346517,-0.27902 -0.329501,-0.18348 -0.494251,-0.4304 -0.494251,-0.74076 0,-0.32087 0.156302,-0.57453 0.468906,-0.76099 0.314715,-0.18761 0.738207,-0.28024 1.270477,-0.27787 0.4773537,0.002 0.8543785,0.089 1.1310746,0.26055 0.2788086,0.17043 0.4182129,0.40149 0.4182129,0.69318 z m -0.8310103,-0.18216 c -0.0042,-0.1762 0.1540791,-0.23214 -0.021256,-0.33793 -0.1731991,-0.10578 -0.403427,-0.1593 -0.6906832,-0.16058 -0.325276,-0.001 -0.586131,0.0481 -0.782564,0.14877 -0.194321,0.10065 0.0079,0.16053 -0.02164,0.34474 z"
           style="stroke-width:0.03189941"
           id="path924"
           inkscape:connector-curvature="0"
           sodipodi:nodetypes="ccccsccccscscscccccsccc" />
        <path
           d="m -5.1228851,200.72338 v 0.38482 c -0.1817981,-0.068 -0.3705884,-0.12164 -0.5663711,-0.1609 -0.1957826,-0.0392 -0.3985574,-0.0641 -0.6083245,-0.0745 -0.3193121,-0.0159 -0.5593788,0.003 -0.7202002,0.0571 -0.1584907,0.0541 -0.1219808,0.1435 -0.1219808,0.26734 0,0.0944 -0.058652,0.17116 0.055554,0.2314 0.1142066,0.0588 0.343785,0.12107 0.6887353,0.18689 l 0.2202553,0.042 c 0.4568261,0.0847 0.7807998,0.18853 0.9719209,0.31158 0.1934518,0.12169 0.2901777,0.28353 0.2901777,0.48552 0,0.23002 -0.1445062,0.40491 -0.4335186,0.5247 -0.2866815,0.1199 -0.6817428,0.2033 -1.1851839,0.17823 -0.2097671,-0.0104 -0.1146644,0.0391 -0.4919054,-0.0118 -0.4245198,-0.0492 -0.6138119,-0.003 -0.8820689,-0.24736 l 0.3141927,-0.33486 c 0.2377361,0.09 0.1577833,0.0753 0.388527,0.12656 0.2307438,0.0498 0.4591568,0.0803 0.6852391,0.0916 0.3029969,0.0151 0.5360714,-0.006 0.6992236,-0.0625 0.1631521,-0.0582 0.2447282,-0.14706 0.2447282,-0.26648 0,-0.11059 -0.059434,-0.19833 -0.178302,-0.26322 -0.1165373,-0.0648 -0.3740847,-0.13435 -0.772642,-0.20876 l -0.2237516,-0.0443 c -0.3985574,-0.0729 -0.6864044,-0.16836 -0.863541,-0.28627 -0.1771366,-0.1194 -0.2657049,-0.27494 -0.2657049,-0.46662 0,-0.23296 0.1305217,-0.40634 0.3915651,-0.52015 0.2610434,-0.1138 0.6316318,-0.15874 1.1117653,-0.13484 0.2377361,0.0119 0.4614877,0.034 0.6712548,0.0666 0.2097671,0.0326 0.4032189,0.0754 0.5803555,0.12842 z"
           style="stroke-width:0.03766897"
           id="path926"
           inkscape:connector-curvature="0"
           sodipodi:nodetypes="cccccsccccsccccccccsccccsccscc" />
        <text
           xml:space="preserve"
           style="font-style:normal;font-variant:normal;font-weight:normal;font-stretch:normal;font-size:10.58333397px;line-height:1.25;font-family:'.Damascus PUA';-inkscape-font-specification:'.Damascus PUA';letter-spacing:0px;word-spacing:0px;fill:#000000;fill-opacity:1;stroke:none;stroke-width:0.00864983"
           x="-42.478462"
           y="196.64659"
           id="text1439"><tspan
             sodipodi:role="line"
             id="tspan1437"
             x="-42.478462"
             y="204.10867"
             style="stroke-width:0.00864983" /></text>
        <g
           aria-label="I"
           style="font-style:normal;font-variant:normal;font-weight:normal;font-stretch:normal;font-size:10.58333397px;line-height:1.25;font-family:'.Damascus PUA';-inkscape-font-specification:'.Damascus PUA';letter-spacing:0px;word-spacing:0px;fill:#000000;fill-opacity:1;stroke:none;stroke-width:0.00864983"
           id="text1443"
           transform="matrix(0.95613575,-0.12921776,0.08046973,0.8264771,-20.759577,36.918454)">
          <path
             d="m -39.130096,191.22162 v 5.17798 h 1.488281 c 0.103353,0 0.177422,0.0207 0.222209,0.062 0.04479,0.0379 0.06718,0.0895 0.06718,0.15503 0,0.062 -0.02239,0.11368 -0.06718,0.15503 -0.04479,0.0413 -0.118856,0.062 -0.222209,0.062 h -3.410645 c -0.103353,0 -0.177422,-0.0207 -0.222208,-0.062 -0.04479,-0.0413 -0.06718,-0.093 -0.06718,-0.15503 0,-0.0655 0.02239,-0.11714 0.06718,-0.15503 0.04479,-0.0413 0.118856,-0.062 0.222208,-0.062 l 1.315915,-0.007 0.172367,-5.17104 h -1.488282 c -0.103353,0 -0.177422,-0.0189 -0.222208,-0.0568 -0.04479,-0.0413 -0.06718,-0.0947 -0.06718,-0.16019 0,-0.0655 0.02239,-0.11714 0.06718,-0.15503 0.04479,-0.0413 0.118856,-0.062 0.222208,-0.062 h 3.410645 c 0.103353,0 0.177422,0.0207 0.222209,0.062 0.04479,0.0379 0.06718,0.0895 0.06718,0.15503 0,0.0655 -0.02239,0.11886 -0.06718,0.16019 -0.04479,0.0379 -0.118856,0.0568 -0.222209,0.0568 z"
             style="font-style:normal;font-variant:normal;font-weight:normal;font-stretch:normal;font-size:10.58333397px;font-family:'Courier New';-inkscape-font-specification:'Courier New, Normal';font-variant-ligatures:normal;font-variant-caps:normal;font-variant-numeric:normal;font-feature-settings:normal;text-align:start;writing-mode:lr-tb;text-anchor:start;stroke-width:0.00864983"
             id="path1445"
             inkscape:connector-curvature="0"
             sodipodi:nodetypes="ccscscsscscsccscscsscscsc" />
        </g>
      </g>
    </g>
    <text
       id="text983"
       y="224.61163"
       x="31.011026"
       style="font-style:normal;font-weight:normal;font-size:10.58333302px;line-height:1.25;font-family:sans-serif;letter-spacing:0px;word-spacing:0px;fill:#000000;fill-opacity:1;stroke:none;stroke-width:0.26458332"
       xml:space="preserve"><tspan
         style="stroke-width:0.26458332"
         y="233.9754"
         x="31.011026"
         id="tspan981"
         sodipodi:role="line" /></text>
    <g
       aria-label="father &amp; son"
       transform="matrix(1.0190173,0,0,0.9813376,0.5291667,0.52916667)"
       style="font-style:normal;font-weight:normal;font-size:8.01353455px;line-height:1.25;font-family:sans-serif;letter-spacing:0px;word-spacing:0px;fill:#000000;fill-opacity:1;stroke:none;stroke-width:0.20033836"
       id="text1057" />
    <g
       id="g8072"
       transform="matrix(0.26889251,-0.01002392,-0.03200614,0.19788514,41.90235,292.24297)">
      <g
         style="display:inline"
         inkscape:label="Layer 1"
         id="layer4" />
      <path
         id="rect5872"
         d="m 11.987289,9.3234482 h 7.991524 v 3.9957608 h -7.991524 z"
         style="opacity:1;fill:#000000;fill-opacity:1;stroke:#000000;stroke-width:0;stroke-miterlimit:4;stroke-dasharray:none;stroke-opacity:1"
         inkscape:connector-curvature="0" />
      <path
         id="rect5874"
         d="m 14.667374,10.662096 h 3.995763 v 1.331921 h -3.995763 z"
         style="opacity:1;fill:#ffffff;fill-opacity:0.98571424;stroke:#000000;stroke-width:0;stroke-miterlimit:4;stroke-dasharray:none;stroke-opacity:1"
         inkscape:connector-curvature="0" />
      <path
         id="rect5878"
         d="m -29.323654,9.3234482 h 7.989551 v 3.9957608 h -7.989551 z"
         style="opacity:1;fill:#000000;fill-opacity:1;stroke:#000000;stroke-width:0;stroke-miterlimit:4;stroke-dasharray:none;stroke-opacity:1"
         transform="scale(-1,1)"
         inkscape:connector-curvature="0" />
      <path
         id="rect5880"
         d="m -26.64423,10.662096 h 3.994777 v 1.331921 h -3.994777 z"
         style="opacity:1;fill:#ffffff;fill-opacity:0.98571424;stroke:#000000;stroke-width:0;stroke-miterlimit:4;stroke-dasharray:none;stroke-opacity:1"
         transform="scale(-1,1)"
         inkscape:connector-curvature="0" />
      <path
         id="rect5882"
         d="m 19.995058,14.667374 h 1.331921 v 3.995762 h -1.331921 z"
         style="opacity:1;fill:#000000;fill-opacity:1;stroke:#000000;stroke-width:0;stroke-miterlimit:4;stroke-dasharray:none;stroke-opacity:1"
         inkscape:connector-curvature="0" />
      <path
         id="rect5884"
         d="m 21.326979,17.331215 h 1.315677 v 1.33192 h -1.315677 z"
         style="opacity:1;fill:#000000;fill-opacity:1;stroke:#000000;stroke-width:0;stroke-miterlimit:4;stroke-dasharray:none;stroke-opacity:1"
         inkscape:connector-curvature="0" />
      <path
         id="rect5886"
         d="m 11.954803,20.011301 h 2.696328 v 2.663842 h -2.696328 z"
         style="opacity:1;fill:#001800;fill-opacity:1;stroke:#000000;stroke-width:0;stroke-miterlimit:4;stroke-dasharray:none;stroke-opacity:1"
         inkscape:connector-curvature="0" />
      <path
         id="rect5888"
         d="m 27.970341,20.011301 h 2.696327 v 2.663842 h -2.696327 z"
         style="opacity:1;fill:#001800;fill-opacity:1;stroke:#000000;stroke-width:0;stroke-miterlimit:4;stroke-dasharray:none;stroke-opacity:1"
         inkscape:connector-curvature="0" />
      <path
         id="rect5890"
         d="m 14.651131,20.011301 h 13.351695 v 1.33192 H 14.651131 Z"
         style="opacity:1;fill:#001800;fill-opacity:1;stroke:#000000;stroke-width:0;stroke-miterlimit:4;stroke-dasharray:none;stroke-opacity:1"
         inkscape:connector-curvature="0" />
    </g>
  </g>
</svg>
