<?xml version="1.0" encoding="UTF-8" standalone="no"?>
<!-- Created with Inkscape (http://www.inkscape.org/) -->

<svg
   width="200"
   height="380"
   viewBox="0 0 52.916669 100.54167"
   version="1.1"
   id="svg8"
   inkscape:version="1.3.2 (091e20e, 2023-11-25)"
   sodipodi:docname="ComputerscareColdRidePanel.svg"
   style="enable-background:new"
   xmlns:inkscape="http://www.inkscape.org/namespaces/inkscape"
   xmlns:sodipodi="http://sodipodi.sourceforge.net/DTD/sodipodi-0.dtd"
   xmlns="http://www.w3.org/2000/svg"
   xmlns:svg="http://www.w3.org/2000/svg"
   xmlns:rdf="http://www.w3.org/1999/02/22-rdf-syntax-ns#"
   xmlns:cc="http://creativecommons.org/ns#"
   xmlns:dc="http://purl.org/dc/elements/1.1/">
  <defs
     id="defs2">
    <inkscape:perspective
       sodipodi:type="inkscape:persp3d"
       inkscape:vp_x="0 : 50.270835 : 1"
       inkscape:vp_y="0 : 1000 : 0"
       inkscape:vp_z="23.812501 : 50.270835 : 1"
       inkscape:persp3d-origin="11.906251 : 33.51389 : 1"
       id="perspective1881" />
  </defs>
  <sodipodi:namedview
     id="base"
     pagecolor="#ffffff"
     bordercolor="#666666"
     borderopacity="1.0"
     inkscape:pageopacity="0.0"
     inkscape:pageshadow="2"
     inkscape:zoom="1.4142136"
     inkscape:cx="26.516503"
     inkscape:cy="251.37645"
     inkscape:document-units="mm"
     inkscape:current-layer="g1669"
     showgrid="false"
     units="px"
     inkscape:snap-bbox="true"
     inkscape:snap-page="true"
     inkscape:bbox-nodes="true"
     inkscape:snap-bbox-edge-midpoints="true"
     inkscape:window-width="1440"
     inkscape:window-height="856"
     inkscape:window-x="1862"
     inkscape:window-y="46"
     inkscape:window-maximized="0"
     inkscape:snap-nodes="false"
     inkscape:snap-others="false"
     inkscape:snap-global="false"
     inkscape:showpageshadow="2"
     inkscape:pagecheckerboard="0"
     inkscape:deskcolor="#d1d1d1" />
  <metadata
     id="metadata5">
    <rdf:RDF>
      <cc:Work
         rdf:about="">
        <dc:format>image/svg+xml</dc:format>
        <dc:type
           rdf:resource="http://purl.org/dc/dcmitype/StillImage" />
      </cc:Work>
    </rdf:RDF>
  </metadata>
  <g
     style="display:inline"
     transform="translate(0,-196.45832)"
     id="g1669"
     inkscape:groupmode="layer"
     inkscape:label="Layer 1 copy">
    <path
       inkscape:connector-curvature="0"
       id="path1647"
       d="M 0,196.45832 H 52.916667 V 297 H 0 Z"
       style="opacity:1;vector-effect:none;fill:#f9f9f9;fill-opacity:1;fill-rule:evenodd;stroke:none;stroke-width:0.72459143;stroke-linecap:butt;stroke-linejoin:round;stroke-miterlimit:4;stroke-dasharray:none;stroke-dashoffset:0;stroke-opacity:1;paint-order:normal" />
    <g
       aria-label="computerscare"
       transform="matrix(0.98656289,0.0441007,-0.12576361,1.0079983,60.01802,-0.53416116)"
       style="font-style:normal;font-weight:normal;font-size:10.5833px;line-height:1.25;font-family:sans-serif;letter-spacing:0px;word-spacing:0px;fill:#000000;fill-opacity:1;stroke:none;stroke-width:0.264583"
       id="text1651">
      <path
         d="m 8.6347533,290.97563 -0.00246,0.37105 q -0.1071193,-0.0808 -0.2159438,-0.11391 -0.1074332,-0.0355 -0.2179805,-0.0233 -0.2472541,0.0274 -0.38563,0.28832 -0.1383657,0.25886 -0.1412982,0.70113 -0.00293,0.44221 0.1321842,0.67304 0.1351305,0.22868 0.3823831,0.20138 0.1105059,-0.0123 0.2185405,-0.0692 0.1094376,-0.0594 0.2177934,-0.1642 l -0.00243,0.36673 q -0.1068806,0.0895 -0.2217798,0.14083 -0.1135211,0.0513 -0.2419848,0.0654 -0.3494689,0.0384 -0.5530034,-0.28169 -0.2035392,-0.32028 -0.1996747,-0.90274 0.00392,-0.59111 0.2133598,-0.95268 0.2108222,-0.3617 0.5727212,-0.40166 0.1174123,-0.0128 0.2290539,0.0148 0.1116476,0.0244 0.2161244,0.0884 z"
         style="font-style:normal;font-variant:normal;font-weight:normal;font-stretch:normal;font-size:2.82222px;font-family:sans-serif;-inkscape-font-specification:'sans-serif, Normal';font-variant-ligatures:normal;font-variant-caps:normal;font-variant-numeric:normal;font-feature-settings:normal;text-align:start;writing-mode:lr-tb;text-anchor:start;fill:#000000;fill-opacity:1;stroke-width:0.331312"
         id="path1701"
         inkscape:connector-curvature="0" />
      <path
         d="m 9.677779,291.04586 q -0.2044279,0.0227 -0.3248808,0.28593 -0.1204373,0.26121 -0.1233105,0.69481 -0.00287,0.43362 0.1128778,0.6709 0.1171462,0.23497 0.3229586,0.21226 0.2030374,-0.0225 0.3235011,-0.28579 0.1204498,-0.26337 0.1233098,-0.69482 0.0029,-0.42927 -0.1142854,-0.66643 -0.1171176,-0.23929 -0.3201684,-0.21686 z m 0.00223,-0.33652 q 0.33151,-0.0365 0.518514,0.27902 0.187005,0.31566 0.183057,0.91106 -0.0039,0.59327 -0.195419,0.95283 -0.1914691,0.35742 -0.5229782,0.39403 -0.3328997,0.0367 -0.5198978,-0.27887 -0.1856097,-0.31798 -0.1816746,-0.91121 0.00395,-0.59541 0.1940369,-0.95268 0.191469,-0.35743 0.5243617,-0.39418 z"
         style="font-style:normal;font-variant:normal;font-weight:normal;font-stretch:normal;font-size:2.82222px;font-family:sans-serif;-inkscape-font-specification:'sans-serif, Normal';font-variant-ligatures:normal;font-variant-caps:normal;font-variant-numeric:normal;font-feature-settings:normal;text-align:start;writing-mode:lr-tb;text-anchor:start;fill:#000000;fill-opacity:1;stroke-width:0.331312"
         id="path1703"
         inkscape:connector-curvature="0" />
      <path
         d="m 12.675599,291.24807 q 0.192887,-0.21097 0.37571,-0.30964 0.182814,-0.0986 0.370161,-0.0952 0.252209,0.005 0.296388,0.21855 0.04496,0.21206 -0.125387,0.6 l -0.509512,1.16046 -0.266622,-0.006 0.504994,-1.15016 q 0.121344,-0.27639 0.098,-0.41186 -0.02336,-0.13545 -0.191965,-0.13867 -0.206082,-0.004 -0.39729,0.15688 -0.191212,0.1608 -0.314822,0.44234 l -0.477103,1.08665 -0.266624,-0.006 0.504993,-1.15016 q 0.122103,-0.27811 0.09799,-0.41185 -0.02336,-0.13545 -0.194845,-0.13872 -0.203198,-0.004 -0.395162,0.15865 -0.191211,0.1608 -0.314066,0.4406 l -0.477105,1.08666 -0.266616,-0.006 0.844161,-1.92264 0.266623,0.006 -0.131141,0.29869 q 0.168419,-0.17508 0.332168,-0.2568 0.163741,-0.0817 0.338101,-0.0783 0.175813,0.003 0.251604,0.11209 0.07721,0.10874 0.04736,0.31249 z"
         style="font-style:normal;font-variant:normal;font-weight:normal;font-stretch:normal;font-size:2.82222px;font-family:sans-serif;-inkscape-font-specification:'sans-serif, Normal';font-variant-ligatures:normal;font-variant-caps:normal;font-variant-numeric:normal;font-feature-settings:normal;text-align:start;writing-mode:lr-tb;text-anchor:start;fill:#000000;fill-opacity:1;stroke-width:0.303248"
         id="path1705"
         inkscape:connector-curvature="0" />
      <path
         d="m 14.112971,292.65685 -0.138154,1.12148 -0.252719,0.0641 0.359579,-2.91885 0.25272,-0.0641 -0.03954,0.32095 q 0.102409,-0.20918 0.233654,-0.33074 0.132856,-0.12372 0.300694,-0.16693 0.278184,-0.0723 0.413988,0.1895 0.136996,0.26086 0.07559,0.75932 -0.06141,0.49842 -0.273747,0.84928 -0.210979,0.35049 -0.489344,0.42222 -0.167738,0.0436 -0.278164,-0.0162 -0.108663,-0.0614 -0.164575,-0.22999 z m 0.945152,-0.95828 q 0.04722,-0.38326 -0.04065,-0.57085 -0.08628,-0.18983 -0.28551,-0.13852 -0.199228,0.0513 -0.340824,0.29987 -0.140007,0.24629 -0.187225,0.62956 -0.04722,0.38328 0.03906,0.5731 0.08787,0.18758 0.287104,0.13627 0.19923,-0.0513 0.339232,-0.29761 0.141604,-0.24853 0.188813,-0.63182 z"
         style="font-style:normal;font-variant:normal;font-weight:normal;font-stretch:normal;font-size:2.82222px;font-family:sans-serif;-inkscape-font-specification:'sans-serif, Normal';font-variant-ligatures:normal;font-variant-caps:normal;font-variant-numeric:normal;font-feature-settings:normal;text-align:start;writing-mode:lr-tb;text-anchor:start;fill:#000000;fill-opacity:1;stroke-width:0.303248"
         id="path1707"
         inkscape:connector-curvature="0" />
      <path
         d="m 15.415707,292.50063 0.498746,-1.26019 0.265371,0.007 -0.493595,1.2472 q -0.116963,0.29552 -0.0864,0.44639 0.03128,0.14901 0.21011,0.15338 0.214874,0.005 0.408773,-0.16835 0.19534,-0.17353 0.315981,-0.47836 l 0.467112,-1.18027 0.265369,0.007 -0.823883,2.08172 -0.265371,-0.007 0.126524,-0.31971 q -0.171651,0.18724 -0.336773,0.27705 -0.162941,0.0879 -0.33165,0.0838 -0.278348,-0.008 -0.334254,-0.23332 -0.05593,-0.22656 0.113986,-0.65588 z"
         style="font-style:normal;font-variant:normal;font-weight:normal;font-stretch:normal;font-size:2.82222px;font-family:sans-serif;-inkscape-font-specification:'sans-serif, Normal';font-variant-ligatures:normal;font-variant-caps:normal;font-variant-numeric:normal;font-feature-settings:normal;text-align:start;writing-mode:lr-tb;text-anchor:start;fill:#000000;fill-opacity:1;stroke-width:0.315848"
         id="path1709"
         inkscape:connector-curvature="0" />
      <path
         d="m 17.910834,290.44897 0.01558,0.54312 0.553865,0.0105 0.007,0.24423 -0.553865,-0.0105 0.02978,1.0384 q 0.0067,0.23398 0.06268,0.30161 0.05745,0.0675 0.225497,0.0707 l 0.276178,0.005 0.0075,0.26301 -0.27618,-0.005 q -0.31126,-0.005 -0.433509,-0.14294 -0.122286,-0.13883 -0.132562,-0.4975 l -0.02978,-1.03839 -0.19729,-0.004 -0.007,-0.24424 0.197291,0.004 -0.01558,-0.54312 z"
         style="font-style:normal;font-variant:normal;font-weight:normal;font-stretch:normal;font-size:2.82222px;font-family:sans-serif;-inkscape-font-specification:'sans-serif, Normal';font-variant-ligatures:normal;font-variant-caps:normal;font-variant-numeric:normal;font-feature-settings:normal;text-align:start;writing-mode:lr-tb;text-anchor:start;fill:#000000;fill-opacity:1;stroke-width:0.303248"
         id="path1711"
         inkscape:connector-curvature="0" />
      <path
         d="m 20.249251,291.82466 0.0061,0.16669 -1.237147,-0.0295 q 0.03034,0.35234 0.186233,0.54112 0.157286,0.18695 0.424897,0.19335 0.155009,0.004 0.298033,-0.0409 0.144485,-0.0447 0.284294,-0.13758 l 0.0117,0.32229 q -0.141943,0.0744 -0.292546,0.11148 -0.150605,0.0371 -0.307075,0.0333 -0.391927,-0.0101 -0.632,-0.30378 -0.23863,-0.29439 -0.256537,-0.78705 -0.0185,-0.50935 0.187075,-0.80239 0.206983,-0.29484 0.575495,-0.28604 0.330483,0.008 0.531887,0.28287 0.202792,0.27317 0.219624,0.73623 z m -0.272709,-0.10651 q -0.01314,-0.27975 -0.140524,-0.44932 -0.125973,-0.16958 -0.324852,-0.17433 -0.225224,-0.006 -0.355342,0.15252 -0.12868,0.15792 -0.138515,0.45008 z"
         style="font-style:normal;font-variant:normal;font-weight:normal;font-stretch:normal;font-size:2.82222px;font-family:sans-serif;-inkscape-font-specification:'sans-serif, Normal';font-variant-ligatures:normal;font-variant-caps:normal;font-variant-numeric:normal;font-feature-settings:normal;text-align:start;writing-mode:lr-tb;text-anchor:start;fill:#000000;fill-opacity:1;stroke-width:0.315848"
         id="path1713"
         inkscape:connector-curvature="0" />
      <path
         d="m 21.633535,291.35476 q -0.04618,-0.0316 -0.100647,-0.0462 -0.05305,-0.0163 -0.117352,-0.0176 -0.227987,-0.005 -0.345737,0.16766 -0.116352,0.17024 -0.107053,0.49475 l 0.02883,1.00765 -0.270332,-0.004 -0.0548,-1.91286 0.270331,0.004 0.0085,0.29716 q 0.07977,-0.17262 0.213278,-0.25377 0.133462,-0.0828 0.327824,-0.0792 0.02776,5.2e-4 0.06154,0.007 0.03372,0.005 0.0749,0.0143 z"
         style="font-style:normal;font-variant:normal;font-weight:normal;font-stretch:normal;font-size:2.82222px;font-family:sans-serif;-inkscape-font-specification:'sans-serif, Normal';font-variant-ligatures:normal;font-variant-caps:normal;font-variant-numeric:normal;font-feature-settings:normal;text-align:start;writing-mode:lr-tb;text-anchor:start;fill:#000000;fill-opacity:1;stroke-width:0.303248"
         id="path1715"
         inkscape:connector-curvature="0" />
      <path
         d="m 22.81499,291.49075 -0.01857,0.34476 q -0.110229,-0.10674 -0.231384,-0.17592 -0.121161,-0.0693 -0.253267,-0.101 -0.201096,-0.0483 -0.306854,0.0108 -0.104296,0.0594 -0.113266,0.22573 -0.0069,0.12687 0.06113,0.21736 0.06808,0.0886 0.281797,0.2061 l 0.09098,0.0498 q 0.283211,0.15228 0.395355,0.33364 0.113723,0.1798 0.0991,0.45127 -0.01665,0.30909 -0.208377,0.44573 -0.190257,0.137 -0.507308,0.061 -0.132101,-0.0316 -0.274033,-0.1019 -0.140568,-0.0678 -0.295351,-0.17526 l 0.02027,-0.37647 q 0.144067,0.1409 0.286495,0.22927 0.142545,0.0864 0.284921,0.12048 0.190823,0.0458 0.29826,-0.0167 0.107548,-0.0645 0.116195,-0.22501 0.008,-0.14862 -0.06259,-0.24583 -0.06912,-0.0968 -0.316172,-0.23036 l -0.09233,-0.0522 q -0.247153,-0.13144 -0.350813,-0.3049 -0.103556,-0.17536 -0.08967,-0.43295 0.01686,-0.31305 0.190443,-0.44402 0.173575,-0.13097 0.47595,-0.0584 0.149716,0.0359 0.280221,0.0974 0.130498,0.0614 0.238856,0.14756 z"
         style="font-style:normal;font-variant:normal;font-weight:normal;font-stretch:normal;font-size:2.82222px;font-family:sans-serif;-inkscape-font-specification:'sans-serif, Normal';font-variant-ligatures:normal;font-variant-caps:normal;font-variant-numeric:normal;font-feature-settings:normal;text-align:start;writing-mode:lr-tb;text-anchor:start;fill:#000000;fill-opacity:1;stroke-width:0.329542"
         id="path1717"
         inkscape:connector-curvature="0" />
      <path
         d="m 24.222772,290.76632 0.01856,0.34598 q -0.119128,-0.0913 -0.237344,-0.13817 -0.116857,-0.0489 -0.234275,-0.0536 -0.262757,-0.0117 -0.395728,0.21262 -0.133111,0.22136 -0.110986,0.63372 0.02214,0.41235 0.179736,0.64761 0.157503,0.23326 0.42023,0.244 0.117399,0.004 0.229639,-0.0327 0.113579,-0.0395 0.223419,-0.12136 l 0.01841,0.34194 q -0.109128,0.0678 -0.22901,0.099 -0.118415,0.0312 -0.254912,0.0258 -0.371355,-0.0157 -0.607195,-0.34398 -0.235853,-0.32876 -0.264994,-0.87187 -0.02954,-0.55117 0.173645,-0.85796 0.204684,-0.30674 0.589233,-0.29099 0.124736,0.004 0.245587,0.0461 0.120724,0.0391 0.236054,0.11417 z"
         style="font-style:normal;font-variant:normal;font-weight:normal;font-stretch:normal;font-size:2.82222px;font-family:sans-serif;-inkscape-font-specification:'sans-serif, Normal';font-variant-ligatures:normal;font-variant-caps:normal;font-variant-numeric:normal;font-feature-settings:normal;text-align:start;writing-mode:lr-tb;text-anchor:start;fill:#000000;fill-opacity:1;stroke-width:0.329542"
         id="path1719"
         inkscape:connector-curvature="0" />
      <path
         d="m 25.333634,291.97112 q -0.324182,0.0149 -0.435899,0.12568 -0.111691,0.11098 -0.07954,0.36479 0.02567,0.20227 0.133813,0.31774 0.109387,0.11332 0.270755,0.10589 0.222436,-0.0102 0.327956,-0.2391 0.106711,-0.23111 0.05966,-0.6026 l -0.01075,-0.0847 z m 0.513686,-0.18111 0.167027,1.31882 -0.267332,0.0137 -0.04442,-0.35088 q -0.06493,0.21469 -0.188777,0.32204 -0.124115,0.10522 -0.321829,0.1143 -0.250088,0.0113 -0.42344,-0.18003 -0.172192,-0.19352 -0.214536,-0.52785 -0.04945,-0.39009 0.108682,-0.59655 0.159543,-0.20651 0.524449,-0.22312 l 0.375087,-0.0171 -0.0047,-0.0371 q -0.03318,-0.26211 -0.173355,-0.39896 -0.138967,-0.13902 -0.358502,-0.12911 -0.139623,0.006 -0.265854,0.0598 -0.126284,0.0535 -0.236369,0.15407 l -0.04442,-0.35086 q 0.136648,-0.0871 0.269792,-0.13263 0.132883,-0.0476 0.263718,-0.0536 0.353325,-0.0156 0.560671,0.23606 0.207395,0.25212 0.274312,0.78048 z"
         style="font-style:normal;font-variant:normal;font-weight:normal;font-stretch:normal;font-size:2.82222px;font-family:sans-serif;-inkscape-font-specification:'sans-serif, Normal';font-variant-ligatures:normal;font-variant-caps:normal;font-variant-numeric:normal;font-feature-settings:normal;text-align:start;writing-mode:lr-tb;text-anchor:start;fill:#000000;fill-opacity:1;stroke-width:0.333539"
         id="path1721"
         inkscape:connector-curvature="0" />
      <path
         d="m 27.244872,290.96212 q -0.05013,-0.0375 -0.106177,-0.0527 -0.05486,-0.0174 -0.118862,-0.0147 -0.2269,0.01 -0.320441,0.2389 -0.0924,0.22683 -0.03915,0.64375 l 0.165399,1.29468 -0.269129,0.0108 -0.313919,-2.45767 0.26913,-0.0108 0.0488,0.38179 q 0.05577,-0.22747 0.17728,-0.34083 0.121221,-0.11567 0.314665,-0.12384 0.02762,-10e-4 0.06196,0.004 0.03409,0.003 0.07621,0.0128 z"
         style="font-style:normal;font-variant:normal;font-weight:normal;font-stretch:normal;font-size:2.82222px;font-family:sans-serif;-inkscape-font-specification:'sans-serif, Normal';font-variant-ligatures:normal;font-variant-caps:normal;font-variant-numeric:normal;font-feature-settings:normal;text-align:start;writing-mode:lr-tb;text-anchor:start;fill:#000000;fill-opacity:1;stroke-width:0.343934"
         id="path1723"
         inkscape:connector-curvature="0" />
      <path
         d="m 28.967116,291.71667 0.02353,0.18575 -1.229926,0.0559 q 0.06712,0.39135 0.241541,0.591 0.175622,0.19751 0.441671,0.18543 0.154117,-0.007 0.291251,-0.0671 0.13858,-0.0603 0.267465,-0.17408 l 0.04547,0.35911 q -0.132941,0.0933 -0.27839,0.14555 -0.14545,0.0523 -0.301011,0.0593 -0.389724,0.0168 -0.658647,-0.29385 -0.267575,-0.31167 -0.337104,-0.86065 -0.07187,-0.56756 0.101194,-0.90965 0.174272,-0.3442 0.540635,-0.36085 0.328539,-0.0151 0.557174,0.27771 0.22981,0.29056 0.295158,0.80653 z m -0.281627,-0.0994 q -0.04243,-0.3115 -0.18657,-0.49176 -0.14274,-0.18034 -0.34046,-0.17136 -0.223994,0.009 -0.33635,0.1959 -0.11101,0.18563 -0.09006,0.51266 z"
         style="font-style:normal;font-variant:normal;font-weight:normal;font-stretch:normal;font-size:2.82222px;font-family:sans-serif;-inkscape-font-specification:'sans-serif, Normal';font-variant-ligatures:normal;font-variant-caps:normal;font-variant-numeric:normal;font-feature-settings:normal;text-align:start;writing-mode:lr-tb;text-anchor:start;fill:#000000;fill-opacity:1;stroke-width:0.333539"
         id="path1725"
         inkscape:connector-curvature="0" />
      <text
         xml:space="preserve"
         style="font-style:normal;font-weight:normal;font-size:3.52778px;line-height:1.25;font-family:sans-serif;letter-spacing:0px;word-spacing:0px;fill:#000000;fill-opacity:1;stroke:none;stroke-width:0.0700043"
         x="-18.08774"
         y="188.72037"
         id="text876"
         transform="matrix(1.0079983,-0.0441007,0.12576363,0.98656289,0,0)" />
    </g>
    <text
       id="text983"
       y="224.61163"
       x="31.011026"
       style="font-style:normal;font-weight:normal;font-size:10.5833px;line-height:1.25;font-family:sans-serif;letter-spacing:0px;word-spacing:0px;fill:#000000;fill-opacity:1;stroke:none;stroke-width:0.264583"
       xml:space="preserve" />
    <g
       aria-label="father &amp; son"
       transform="matrix(1.0190173,0,0,0.9813376,0.5291667,0.52916667)"
       style="font-style:normal;font-weight:normal;font-size:8.01353455px;line-height:1.25;font-family:sans-serif;letter-spacing:0px;word-spacing:0px;fill:#000000;fill-opacity:1;stroke:none;stroke-width:0.20033836"
       id="text1057" />
    <g
       id="g8072"
       transform="matrix(0.35240113,0.03914784,-0.02921256,0.26296571,-2.4222219,289.02534)">
      <g
         style="display:inline"
         inkscape:label="Layer 1"
         id="layer4" />
      <path
         id="rect5872"
         d="m 11.987289,9.3234482 h 7.991524 v 3.9957608 h -7.991524 z"
         style="opacity:1;fill:#000000;fill-opacity:1;stroke:#000000;stroke-width:0;stroke-miterlimit:4;stroke-dasharray:none;stroke-opacity:1"
         inkscape:connector-curvature="0" />
      <path
         id="rect5874"
         d="m 14.667374,10.662096 h 3.995763 v 1.331921 h -3.995763 z"
         style="opacity:1;fill:#ffffff;fill-opacity:0.985714;stroke:#000000;stroke-width:0;stroke-miterlimit:4;stroke-dasharray:none;stroke-opacity:1"
         inkscape:connector-curvature="0" />
      <path
         id="rect5878"
         d="m -29.323654,9.3234482 h 7.989551 v 3.9957608 h -7.989551 z"
         style="opacity:1;fill:#000000;fill-opacity:1;stroke:#000000;stroke-width:0;stroke-miterlimit:4;stroke-dasharray:none;stroke-opacity:1"
         transform="scale(-1,1)"
         inkscape:connector-curvature="0" />
      <path
         id="rect5880"
         d="m -26.64423,10.662096 h 3.994777 v 1.331921 h -3.994777 z"
         style="opacity:1;fill:#ffffff;fill-opacity:0.985714;stroke:#000000;stroke-width:0;stroke-miterlimit:4;stroke-dasharray:none;stroke-opacity:1"
         transform="scale(-1,1)"
         inkscape:connector-curvature="0" />
      <path
         id="rect5882"
         d="m 19.995058,14.667374 h 1.331921 v 3.995762 h -1.331921 z"
         style="opacity:1;fill:#000000;fill-opacity:1;stroke:#000000;stroke-width:0;stroke-miterlimit:4;stroke-dasharray:none;stroke-opacity:1"
         inkscape:connector-curvature="0" />
      <path
         id="rect5884"
         d="m 21.326979,17.331215 h 1.315677 v 1.33192 h -1.315677 z"
         style="opacity:1;fill:#000000;fill-opacity:1;stroke:#000000;stroke-width:0;stroke-miterlimit:4;stroke-dasharray:none;stroke-opacity:1"
         inkscape:connector-curvature="0" />
      <path
         id="rect5886"
         d="m 11.954803,20.011301 h 2.696328 v 2.663842 h -2.696328 z"
         style="opacity:1;fill:#001800;fill-opacity:1;stroke:#000000;stroke-width:0;stroke-miterlimit:4;stroke-dasharray:none;stroke-opacity:1"
         inkscape:connector-curvature="0" />
      <path
         id="rect5888"
         d="m 27.970341,20.011301 h 2.696327 v 2.663842 h -2.696327 z"
         style="opacity:1;fill:#001800;fill-opacity:1;stroke:#000000;stroke-width:0;stroke-miterlimit:4;stroke-dasharray:none;stroke-opacity:1"
         inkscape:connector-curvature="0" />
      <path
         id="rect5890"
         d="m 14.651131,20.011301 h 13.351695 v 1.33192 H 14.651131 Z"
         style="opacity:1;fill:#001800;fill-opacity:1;stroke:#000000;stroke-width:0;stroke-miterlimit:4;stroke-dasharray:none;stroke-opacity:1"
         inkscape:connector-curvature="0" />
    </g>
    <path
       d="m 13.445416,202.81293 h -1.072263 v -0.54572 h 0.355598 v -4.25438 h -0.355598 v -0.54571 h 1.072263 v 0.54571 h -0.355597 v 4.25438 h 0.355597 z m 1.644866,-0.0359 q -0.09665,0.0502 -0.211535,0.0825 -0.113061,0.0323 -0.202417,0.0323 -0.311831,0 -0.47413,-0.33029 -0.162298,-0.3303 -0.162298,-1.05911 v -2.13259 h -0.231594 v -0.56724 h 0.231594 v -1.15246 h 0.342833 v 1.15246 h 0.707547 v 0.56724 h -0.707547 v 1.82742 q 0,0.31593 0.0073,0.49545 0.0073,0.17592 0.05106,0.33029 0.04012,0.14361 0.109415,0.21182 0.07112,0.0647 0.215182,0.0647 0.08389,0 0.175063,-0.0467 0.09118,-0.0502 0.131298,-0.0827 h 0.01824 z m 0.780491,-5.55046 -0.07841,2.07874 h -0.248006 l -0.07841,-2.07874 z m 2.091642,4.43031 q 0,0.54931 -0.231594,0.90115 -0.229771,0.35183 -0.629134,0.35183 -0.226123,0 -0.415775,-0.10411 -0.187829,-0.10776 -0.315479,-0.23337 v -0.75752 h 0.01824 q 0.162298,0.24054 0.361068,0.38415 0.19877,0.14003 0.381127,0.14003 0.226124,0 0.353774,-0.14361 0.127651,-0.14361 0.127651,-0.45237 0,-0.23694 -0.0693,-0.35902 -0.0693,-0.12207 -0.266243,-0.20822 -0.07294,-0.0323 -0.191476,-0.0754 -0.116708,-0.0431 -0.213358,-0.0933 -0.268065,-0.14003 -0.381127,-0.40929 -0.111238,-0.27285 -0.111238,-0.66778 0,-0.24772 0.05106,-0.46672 0.05288,-0.219 0.158651,-0.39133 0.102121,-0.16874 0.258948,-0.26567 0.158651,-0.10046 0.353774,-0.10046 0.182357,0 0.368362,0.0898 0.187829,0.0862 0.311832,0.21181 v 0.72163 h -0.01824 q -0.131297,-0.19028 -0.319126,-0.31952 -0.187829,-0.13287 -0.368362,-0.13287 -0.187829,0 -0.317303,0.14361 -0.129473,0.14003 -0.129473,0.42004 0,0.24773 0.07841,0.37338 0.07659,0.12572 0.248007,0.20465 0.09483,0.0431 0.211534,0.0862 0.118533,0.0431 0.196946,0.079 0.238889,0.10776 0.368363,0.36979 0.129474,0.26567 0.129474,0.70367 z m 3.386382,1.15605 h -0.341009 v -0.42724 q -0.04559,0.061 -0.124003,0.17234 -0.07659,0.10776 -0.149534,0.17233 -0.08571,0.0826 -0.196946,0.13638 -0.111238,0.0574 -0.260771,0.0574 -0.275361,0 -0.466836,-0.35902 -0.191475,-0.35902 -0.191475,-0.9155 0,-0.45596 0.09847,-0.73599 0.100297,-0.28363 0.284477,-0.44519 0.186005,-0.16155 0.446777,-0.219 0.260771,-0.0574 0.559838,-0.0862 v -0.10411 q 0,-0.22978 -0.04194,-0.38057 -0.04012,-0.15078 -0.116709,-0.23695 -0.07294,-0.0825 -0.175064,-0.11127 -0.10212,-0.0288 -0.213358,-0.0288 -0.134945,0 -0.30089,0.0718 -0.165945,0.0682 -0.342832,0.20105 h -0.01824 v -0.68572 q 0.100296,-0.0539 0.289948,-0.11842 0.189652,-0.0647 0.373833,-0.0647 0.215182,0 0.373833,0.0718 0.160475,0.0682 0.277184,0.23695 0.114885,0.16515 0.175063,0.42724 0.06018,0.26207 0.06018,0.64981 z m -0.341009,-0.98731 v -1.11655 q -0.156828,0.018 -0.370186,0.0539 -0.211535,0.0359 -0.335538,0.10411 -0.14771,0.0826 -0.238888,0.25848 -0.09118,0.17234 -0.09118,0.4775 0,0.34467 0.105768,0.52058 0.105768,0.17233 0.322773,0.17233 0.180534,0 0.330067,-0.13638 0.149533,-0.14004 0.277184,-0.33389 z m 4.438584,0.59957 q -0.100296,0.0862 -0.182357,0.16156 -0.08024,0.0754 -0.211535,0.15796 -0.111238,0.0682 -0.242536,0.11492 -0.129474,0.0502 -0.286301,0.0502 -0.29542,0 -0.537956,-0.16156 -0.240712,-0.16514 -0.419422,-0.5134 -0.175064,-0.34106 -0.273537,-0.86522 -0.09847,-0.52776 -0.09847,-1.22426 0,-0.66061 0.09483,-1.18118 0.09483,-0.52058 0.273536,-0.8796 0.17324,-0.34825 0.417599,-0.53135 0.246182,-0.1831 0.545249,-0.1831 0.218829,0 0.435835,0.10411 0.218829,0.10411 0.485071,0.3662 v 0.8437 h -0.02735 q -0.224299,-0.36979 -0.444952,-0.53853 -0.220653,-0.16874 -0.472307,-0.16874 -0.206064,0 -0.37201,0.13287 -0.164121,0.12923 -0.293595,0.40569 -0.125827,0.26926 -0.196946,0.68214 -0.0693,0.40928 -0.0693,0.94782 0,0.56365 0.07659,0.96935 0.07841,0.40568 0.200593,0.66059 0.12765,0.26567 0.297243,0.39492 0.171416,0.12572 0.361068,0.12572 0.260772,0 0.488718,-0.17591 0.227947,-0.17592 0.426718,-0.52775 h 0.02553 z m 2.219293,-1.61559 q 0,0.98012 -0.255301,1.54737 -0.2553,0.56726 -0.68384,0.56726 -0.432188,0 -0.687489,-0.56726 -0.253477,-0.56725 -0.253477,-1.54737 0,-0.98012 0.253477,-1.54738 0.255301,-0.57084 0.687489,-0.57084 0.42854,0 0.68384,0.57084 0.255301,0.56726 0.255301,1.54738 z m -0.353774,0 q 0,-0.77907 -0.155004,-1.15605 -0.155004,-0.38055 -0.430363,-0.38055 -0.279008,0 -0.434012,0.38055 -0.15318,0.37698 -0.15318,1.15605 0,0.75395 0.155004,1.14528 0.155004,0.38774 0.432188,0.38774 0.273536,0 0.42854,-0.38416 0.156827,-0.38774 0.156827,-1.14886 z m 1.230914,2.00333 h -0.342832 v -5.58636 h 0.342832 z m 2.330531,0 h -0.342833 v -0.42005 q -0.147709,0.25131 -0.308184,0.39133 -0.160475,0.14003 -0.348303,0.14003 -0.364716,0 -0.579898,-0.55289 -0.213358,-0.5529 -0.213358,-1.53301 0,-0.50981 0.07294,-0.90833 0.07477,-0.3985 0.200594,-0.67854 0.124003,-0.27287 0.288125,-0.41646 0.165945,-0.14361 0.342832,-0.14361 0.160474,0 0.284478,0.0682 0.124003,0.0647 0.260771,0.20465 v -1.73767 h 0.342833 z m -0.342833,-0.98731 v -2.30131 q -0.138592,-0.12207 -0.248006,-0.16874 -0.109415,-0.0467 -0.238888,-0.0467 -0.288126,0 -0.4486,0.39492 -0.160475,0.39492 -0.160475,1.12014 0,0.71445 0.124004,1.08783 0.124002,0.3698 0.397539,0.3698 0.145886,0 0.295419,-0.12572 0.149533,-0.12923 0.279007,-0.3303 z m 4.604531,0.98731 h -0.468659 l -0.908141,-2.1254 h -0.508778 v 2.1254 h -0.361068 v -5.3458 h 0.760431 q 0.246183,0 0.410304,0.0647 0.164122,0.061 0.29542,0.22259 0.14771,0.18311 0.229771,0.46315 0.08388,0.27644 0.08388,0.70367 0,0.57803 -0.14771,0.96936 -0.147709,0.38774 -0.406657,0.5852 z m -0.844316,-3.84151 q 0,-0.22978 -0.04194,-0.4057 -0.04012,-0.1795 -0.134944,-0.30157 -0.07841,-0.10412 -0.186005,-0.14361 -0.107591,-0.0431 -0.253477,-0.0431 h -0.424893 v 2.01768 h 0.364715 q 0.171416,0 0.299066,-0.0574 0.12765,-0.061 0.217006,-0.2226 0.08206,-0.15078 0.120356,-0.34465 0.04012,-0.19746 0.04012,-0.49903 z m 1.535452,-0.84011 h -0.386598 v -0.70009 h 0.386598 z m -0.02188,4.68162 h -0.342833 v -4.01025 h 0.342833 z m 2.330528,0 h -0.342833 v -0.42005 q -0.14771,0.25131 -0.308184,0.39133 -0.160475,0.14003 -0.348303,0.14003 -0.364716,0 -0.579898,-0.55289 -0.213358,-0.5529 -0.213358,-1.53301 0,-0.50981 0.07294,-0.90833 0.07477,-0.3985 0.200593,-0.67854 0.124004,-0.27287 0.288126,-0.41646 0.165945,-0.14361 0.342831,-0.14361 0.160476,0 0.284478,0.0682 0.124004,0.0647 0.260772,0.20465 v -1.73767 h 0.342833 z m -0.342833,-0.98731 v -2.30131 q -0.138592,-0.12207 -0.248006,-0.16874 -0.109415,-0.0467 -0.238889,-0.0467 -0.288125,0 -0.4486,0.39492 -0.160474,0.39492 -0.160474,1.12014 0,0.71445 0.124003,1.08783 0.124003,0.3698 0.39754,0.3698 0.145886,0 0.295419,-0.12572 0.149534,-0.12923 0.279007,-0.3303 z m 2.7226,-0.94781 h -1.500803 q 0,0.36979 0.05653,0.64624 0.05653,0.27285 0.155003,0.44877 0.09483,0.17234 0.224301,0.2585 0.131297,0.0862 0.288124,0.0862 0.207888,0 0.417599,-0.16157 0.211535,-0.16514 0.30089,-0.32311 h 0.01824 v 0.736 q -0.173239,0.14359 -0.353774,0.24054 -0.180533,0.0969 -0.379304,0.0969 -0.506953,0 -0.791431,-0.53852 -0.284478,-0.54212 -0.284478,-1.53661 0,-0.98371 0.271713,-1.56173 0.273536,-0.57802 0.718489,-0.57802 0.412128,0 0.634604,0.4739 0.2243,0.47391 0.2243,1.34632 z m -0.333714,-0.51698 q -0.0019,-0.53135 -0.136769,-0.82217 -0.133121,-0.2908 -0.406657,-0.2908 -0.275361,0 -0.439483,0.31953 -0.162298,0.31953 -0.18418,0.79344 z m 1.564628,1.42889 -0.514248,2.35158 H 40.96501 l 0.317302,-2.35158 z m 4.281758,-1.6443 q 0,0.7288 -0.162298,1.32118 -0.160475,0.59239 -0.428541,0.91909 -0.186005,0.22619 -0.415775,0.32671 -0.227947,0.1006 -0.601781,0.1006 h -0.685664 v -5.3458 h 0.67837 q 0.39754,0 0.630957,0.11491 0.235242,0.11127 0.39754,0.30875 0.277184,0.34107 0.432188,0.90833 0.155004,0.56724 0.155004,1.34633 z m -0.37748,-0.0112 q 0,-0.62829 -0.111238,-1.05911 -0.111239,-0.43083 -0.331892,-0.67855 -0.160474,-0.1795 -0.341008,-0.24772 -0.180534,-0.0718 -0.432188,-0.0718 h -0.339185 v 4.12514 h 0.339185 q 0.260771,0 0.454071,-0.0753 0.195122,-0.0754 0.357421,-0.28004 0.202417,-0.25489 0.302713,-0.67135 0.102121,-0.41648 0.102121,-1.04116 z m 2.638715,0.74317 h -1.500806 q 0,0.36979 0.05653,0.64624 0.05653,0.27285 0.155004,0.44877 0.09483,0.17234 0.2243,0.2585 0.131298,0.0862 0.288125,0.0862 0.207888,0 0.417599,-0.16158 0.211535,-0.16514 0.30089,-0.32311 h 0.01824 v 0.736 q -0.17324,0.1436 -0.353773,0.24054 -0.180535,0.0969 -0.379304,0.0969 -0.506955,0 -0.791433,-0.53852 -0.284478,-0.54212 -0.284478,-1.5366 0,-0.98372 0.271713,-1.56174 0.273537,-0.57802 0.718489,-0.57802 0.412129,0 0.634605,0.47391 0.2243,0.4739 0.2243,1.34631 z m -0.333714,-0.51698 q -0.0019,-0.53135 -0.136768,-0.82217 -0.133121,-0.29079 -0.406658,-0.29079 -0.27536,0 -0.439481,0.31952 -0.162299,0.31953 -0.184182,0.79344 z m 2.436298,2.4521 h -0.341009 v -0.42723 q -0.04559,0.061 -0.124003,0.17233 -0.07659,0.10776 -0.149533,0.17233 -0.08571,0.0826 -0.196946,0.13638 -0.111238,0.0574 -0.260772,0.0574 -0.275359,0 -0.466835,-0.35902 -0.191475,-0.35902 -0.191475,-0.9155 0,-0.45596 0.09847,-0.73599 0.100296,-0.28363 0.284478,-0.44519 0.186004,-0.16155 0.446776,-0.219 0.260771,-0.0574 0.559837,-0.0862 v -0.10411 q 0,-0.22978 -0.04194,-0.38057 -0.04012,-0.15078 -0.116709,-0.23695 -0.07294,-0.0825 -0.175063,-0.11127 -0.10212,-0.0288 -0.213358,-0.0288 -0.134945,0 -0.30089,0.0718 -0.165946,0.0682 -0.342833,0.20105 h -0.01824 v -0.68572 q 0.100297,-0.0539 0.289949,-0.11842 0.189652,-0.0647 0.373833,-0.0647 0.215182,0 0.373833,0.0718 0.160475,0.0682 0.277184,0.23695 0.114885,0.16515 0.175063,0.42724 0.06018,0.26207 0.06018,0.64981 z m -0.341009,-0.98731 v -1.11655 q -0.156827,0.018 -0.370185,0.0539 -0.211535,0.0359 -0.335539,0.10411 -0.147709,0.0827 -0.238888,0.25849 -0.09118,0.17233 -0.09118,0.47749 0,0.34467 0.105768,0.52058 0.105767,0.17233 0.322773,0.17233 0.180534,0 0.330067,-0.13638 0.149534,-0.14004 0.277183,-0.33389 z m 2.272176,-2.28696 h -0.01824 q -0.07659,-0.0359 -0.149534,-0.0502 -0.07112,-0.018 -0.169592,-0.018 -0.158652,0 -0.306361,0.14003 -0.14771,0.13639 -0.284478,0.35543 v 2.84703 h -0.342832 v -4.01025 h 0.342832 v 0.59237 q 0.20424,-0.32311 0.359245,-0.45594 0.156827,-0.13639 0.319125,-0.13639 0.08936,0 0.129475,0.0112 0.04012,0.007 0.120356,0.0323 z"
       id="text1"
       style="font-size:5.24024px;stroke-width:2.937;stroke-dasharray:none"
       aria-label="It's a Cold Ride, Dear" />
    <path
       style="font-size:3.175px;stroke-width:2.937"
       d="M 5.0900914,206.03623 H 4.7614293 v -0.3023 h 0.3286621 z m -0.018604,2.02159 H 4.7800328 v -1.73168 h 0.2914551 z m 2.0246826,0 H 6.8047154 v -0.98599 q 0,-0.11937 -0.013953,-0.22324 -0.013953,-0.10542 -0.05116,-0.16433 -0.038757,-0.0651 -0.1116211,-0.0961 -0.072864,-0.0326 -0.1891357,-0.0326 -0.1193726,0 -0.2495972,0.0589 -0.1302246,0.0589 -0.2495972,0.15038 v 1.29295 h -0.291455 v -1.73168 h 0.291455 v 0.19223 q 0.1364258,-0.11317 0.2821534,-0.17673 0.1457275,-0.0636 0.2992065,-0.0636 0.280603,0 0.4278809,0.16898 0.1472778,0.16898 0.1472778,0.48679 z"
       id="text6"
       aria-label="in" />
    <path
       style="font-size:3.175px;stroke-width:2.937"
       d="m 45.915607,207.75403 q 0,0.42323 -0.217041,0.66817 -0.217041,0.24495 -0.58136,0.24495 -0.36742,0 -0.584461,-0.24495 -0.21549,-0.24494 -0.21549,-0.66817 0,-0.42323 0.21549,-0.66818 0.217041,-0.2465 0.584461,-0.2465 0.364319,0 0.58136,0.2465 0.217041,0.24495 0.217041,0.66818 z m -0.300757,0 q 0,-0.33642 -0.131775,-0.4992 -0.131775,-0.16433 -0.365869,-0.16433 -0.237195,0 -0.36897,0.16433 -0.130225,0.16278 -0.130225,0.4992 0,0.32556 0.131775,0.49454 0.131775,0.16743 0.36742,0.16743 0.232544,0 0.364319,-0.16588 0.133325,-0.16743 0.133325,-0.49609 z m 2.187463,0.86506 h -0.291455 v -0.19224 q -0.147278,0.11628 -0.282153,0.17829 -0.134876,0.062 -0.297657,0.062 -0.272851,0 -0.42478,-0.16588 -0.151929,-0.16743 -0.151929,-0.48989 v -1.12397 h 0.291456 v 0.98599 q 0,0.13177 0.0124,0.22634 0.0124,0.093 0.05271,0.15968 0.04186,0.0682 0.10852,0.0992 0.06666,0.031 0.193787,0.031 0.113171,0 0.246497,-0.0589 0.134875,-0.0589 0.251147,-0.15038 v -1.29295 h 0.291455 z m 1.472778,-0.0155 q -0.08216,0.0217 -0.179834,0.0357 -0.09612,0.014 -0.172082,0.014 -0.2651,0 -0.403076,-0.14263 -0.137976,-0.14263 -0.137976,-0.45734 v -0.92087 h -0.196888 v -0.24495 h 0.196888 v -0.49764 h 0.291455 v 0.49764 h 0.601513 v 0.24495 h -0.601513 v 0.7891 q 0,0.13642 0.0062,0.21394 0.0062,0.076 0.04341,0.14263 0.03411,0.062 0.09302,0.0915 0.06046,0.0279 0.182934,0.0279 0.07131,0 0.148828,-0.0202 0.07751,-0.0217 0.111621,-0.0357 h 0.0155 z"
       id="text8"
       aria-label="out" />
  </g>
</svg>
