<?xml version="1.0" encoding="UTF-8" standalone="no"?>
<!-- Created with Inkscape (http://www.inkscape.org/) -->

<svg
   xmlns:dc="http://purl.org/dc/elements/1.1/"
   xmlns:cc="http://creativecommons.org/ns#"
   xmlns:rdf="http://www.w3.org/1999/02/22-rdf-syntax-ns#"
   xmlns:svg="http://www.w3.org/2000/svg"
   xmlns="http://www.w3.org/2000/svg"
   xmlns:sodipodi="http://sodipodi.sourceforge.net/DTD/sodipodi-0.dtd"
   xmlns:inkscape="http://www.inkscape.org/namespaces/inkscape"
   width="150"
   height="380"
   viewBox="0 0 39.687501 100.54167"
   version="1.1"
   id="svg8"
   inkscape:version="0.92.2 5c3e80d, 2017-08-06"
   sodipodi:docname="ComputerscareIsoPanel.svg"
   style="enable-background:new">
  <defs
     id="defs2">
    <inkscape:perspective
       sodipodi:type="inkscape:persp3d"
       inkscape:vp_x="0 : 50.270835 : 1"
       inkscape:vp_y="0 : 1000 : 0"
       inkscape:vp_z="23.812501 : 50.270835 : 1"
       inkscape:persp3d-origin="11.906251 : 33.51389 : 1"
       id="perspective1881" />
  </defs>
  <sodipodi:namedview
     id="base"
     pagecolor="#ffffff"
     bordercolor="#666666"
     borderopacity="1.0"
     inkscape:pageopacity="0.0"
     inkscape:pageshadow="2"
     inkscape:zoom="2.8284273"
     inkscape:cx="60.426242"
     inkscape:cy="338.71354"
     inkscape:document-units="mm"
     inkscape:current-layer="g1669"
     showgrid="false"
     units="px"
     inkscape:snap-bbox="false"
     inkscape:snap-page="true"
     inkscape:bbox-nodes="true"
     inkscape:snap-bbox-edge-midpoints="true"
     inkscape:window-width="1440"
     inkscape:window-height="856"
     inkscape:window-x="0"
     inkscape:window-y="0"
     inkscape:window-maximized="0"
     inkscape:snap-object-midpoints="false"
     inkscape:snap-others="false"
     inkscape:snap-nodes="false"
     inkscape:snap-global="false"
     showguides="false"
     showborder="true" />
  <metadata
     id="metadata5">
    <rdf:RDF>
      <cc:Work
         rdf:about="">
        <dc:format>image/svg+xml</dc:format>
        <dc:type
           rdf:resource="http://purl.org/dc/dcmitype/StillImage" />
        <dc:title></dc:title>
      </cc:Work>
    </rdf:RDF>
  </metadata>
  <g
     inkscape:label="Layer 1"
     inkscape:groupmode="layer"
     id="layer1"
     transform="translate(0,-196.45832)"
     style="display:none">
    <path
       style="opacity:1;vector-effect:none;fill:#f0f0f0;fill-opacity:1;fill-rule:evenodd;stroke:none;stroke-width:0.48607069;stroke-linecap:butt;stroke-linejoin:round;stroke-miterlimit:4;stroke-dasharray:none;stroke-dashoffset:0;stroke-opacity:1;paint-order:normal"
       d="M 0,196.45831 H 23.8125 V 296.99999 H 0 Z"
       id="rect817"
       inkscape:connector-curvature="0" />
    <text
       xml:space="preserve"
       style="font-style:normal;font-weight:normal;font-size:10.58333302px;line-height:1.25;font-family:sans-serif;letter-spacing:0px;word-spacing:0px;fill:#000000;fill-opacity:1;stroke:none;stroke-width:0.26458332"
       x="8.2147436"
       y="295.57718"
       id="text1490"
       transform="rotate(1.4468834)"><tspan
         sodipodi:role="line"
         id="tspan1488"
         x="8.2147436"
         y="295.57718"
         style="font-style:normal;font-variant:normal;font-weight:normal;font-stretch:normal;font-size:2.82222223px;font-family:sans-serif;-inkscape-font-specification:'sans-serif, Normal';font-variant-ligatures:normal;font-variant-caps:normal;font-variant-numeric:normal;font-feature-settings:normal;text-align:start;writing-mode:lr-tb;text-anchor:start;stroke-width:0.26458332">computerscare</tspan></text>
    <text
       transform="rotate(-5.9989835)"
       id="text1494"
       y="288.0314"
       x="-28.710276"
       style="font-style:normal;font-weight:normal;font-size:10.58333302px;line-height:1.25;font-family:sans-serif;letter-spacing:0px;word-spacing:0px;fill:#000000;fill-opacity:1;stroke:none;stroke-width:0.26458332"
       xml:space="preserve"><tspan
         style="font-style:normal;font-variant:normal;font-weight:normal;font-stretch:normal;font-size:2.82222223px;font-family:sans-serif;-inkscape-font-specification:'sans-serif, Normal';font-variant-ligatures:normal;font-variant-caps:normal;font-variant-numeric:normal;font-feature-settings:normal;text-align:start;writing-mode:lr-tb;text-anchor:start;stroke-width:0.26458332"
         y="288.0314"
         x="-28.710276"
         id="tspan1492"
         sodipodi:role="line">trg</tspan></text>
    <text
       xml:space="preserve"
       style="font-style:normal;font-weight:normal;font-size:10.58333302px;line-height:1.25;font-family:sans-serif;letter-spacing:0px;word-spacing:0px;fill:#000000;fill-opacity:1;stroke:none;stroke-width:0.26458332"
       x="20.711658"
       y="288.87244"
       id="text1498"
       transform="rotate(1.9714728)"><tspan
         sodipodi:role="line"
         id="tspan1496"
         x="20.711658"
         y="288.87244"
         style="font-style:normal;font-variant:normal;font-weight:normal;font-stretch:normal;font-size:2.82222223px;font-family:sans-serif;-inkscape-font-specification:'sans-serif, Normal';font-variant-ligatures:normal;font-variant-caps:normal;font-variant-numeric:normal;font-feature-settings:normal;text-align:start;writing-mode:lr-tb;text-anchor:start;stroke-width:0.26458332">in</tspan></text>
    <text
       transform="rotate(0.49746114)"
       id="text1521"
       y="289.16214"
       x="20.314623"
       style="font-style:normal;font-weight:normal;font-size:10.58333302px;line-height:1.25;font-family:sans-serif;letter-spacing:0px;word-spacing:0px;fill:#000000;fill-opacity:1;stroke:none;stroke-width:0.26458332"
       xml:space="preserve"><tspan
         style="font-style:normal;font-variant:normal;font-weight:normal;font-stretch:normal;font-size:3.17499995px;font-family:sans-serif;-inkscape-font-specification:'sans-serif, Normal';font-variant-ligatures:normal;font-variant-caps:normal;font-variant-numeric:normal;font-feature-settings:normal;text-align:start;writing-mode:lr-tb;text-anchor:start;stroke-width:0.26458332"
         y="289.16214"
         x="20.314623"
         id="tspan1519"
         sodipodi:role="line">clr</tspan></text>
    <text
       transform="matrix(1.0139335,-0.02825079,0.06854811,0.98434808,0,0)"
       id="text1645"
       y="204.61243"
       x="-10.296249"
       style="font-style:normal;font-weight:normal;font-size:10.74719143px;line-height:1.25;font-family:sans-serif;letter-spacing:0px;word-spacing:0px;fill:#000000;fill-opacity:1;stroke:none;stroke-width:0.26867977"
       xml:space="preserve"><tspan
         style="font-style:normal;font-variant:normal;font-weight:normal;font-stretch:normal;font-size:5.01535606px;font-family:sans-serif;-inkscape-font-specification:'sans-serif, Normal';font-variant-ligatures:normal;font-variant-caps:normal;font-variant-numeric:normal;font-feature-settings:normal;text-align:start;writing-mode:lr-tb;text-anchor:start;stroke-width:0.26867977"
         y="204.61243"
         x="-10.296249"
         id="tspan1643"
         sodipodi:role="line">debug</tspan></text>
  </g>
  <g
     inkscape:groupmode="layer"
     id="layer3"
     inkscape:label="bg" />
  <g
     style="display:inline"
     transform="translate(0,-196.45832)"
     id="g1669"
     inkscape:groupmode="layer"
     inkscape:label="Layer 1 copy">
    <rect
       style="fill:#f9f9f9;fill-opacity:1;stroke:#000000;stroke-width:0.26499999;stroke-linejoin:bevel;stroke-miterlimit:4;stroke-dasharray:none;stroke-opacity:1"
       id="rect4032"
       width="17.3057"
       height="14.873548"
       x="7.1093688"
       y="234.32529"
       inkscape:label="indentFloor" />
    <path
       style="fill:#dedede;fill-opacity:1;stroke:#000000;stroke-width:0.26840547px;stroke-linecap:butt;stroke-linejoin:miter;stroke-opacity:1"
       d="m 3.4203939,230.3057 3.7114704,4.01677 H 25.159006 l -1.855924,-3.87659 z"
       id="path4030"
       inkscape:connector-curvature="0"
       sodipodi:nodetypes="ccccc"
       inkscape:label="indentSouth" />
    <path
       inkscape:connector-curvature="0"
       id="path1647"
       d="m 3.3776331,199.57135 36.2445539,-0.063 c 0.09362,9.4067 0.07597,16.80946 0.09407,25.26047 5.67e-4,0.26475 -4.50896,-0.33057 -4.508436,-0.0661 0.02614,13.20226 2.790862,27.87419 4.704417,40.34569 0.122681,0.79957 0.03654,-1.01706 0.06642,-0.19621 0.183626,5.04482 0.197994,11.49332 0.03975,17.27245 -0.0017,0.062 -0.373647,-0.52059 -0.512047,-0.50285 -0.212047,0.0272 -0.222474,0.6443 -0.224564,0.73887 -0.0011,0.0506 0.216264,0.21436 0.124,0.39731 -0.112027,0.22215 -0.525278,0.47264 -0.358204,0.58348 0.08232,0.0546 1.093191,-0.4233 1.15195,-0.35685 0.154791,0.17506 0.133297,0.42133 -0.04189,0.4833 -0.387614,0.13712 0.249011,0.39146 0.246863,0.45905 -0.0085,0.2676 -0.811783,-0.26129 -0.819517,0.003 -0.0075,0.2564 0.429312,0.4426 0.421766,0.69888 -0.0085,0.28876 -0.975855,0.25001 -0.984363,0.5385 -0.0074,0.24961 0.757028,0.0548 0.74971,0.30406 -0.0096,0.32721 0.03012,0.65933 -0.0286,0.98069 -2.148328,11.75779 -0.194399,7.11138 -0.207892,10.47812 l -36.0870043,-9.6e-4 -0.026179,-35.91386 -0.012052,-16.53493 19.8675243,-2.7e-4 -0.0019,-14.0218 -19.8758181,3.6e-4 z"
       style="opacity:1;vector-effect:none;fill:#f9f9f9;fill-opacity:1;fill-rule:evenodd;stroke:#000000;stroke-width:0.24339159;stroke-linecap:butt;stroke-linejoin:round;stroke-miterlimit:4;stroke-dasharray:none;stroke-dashoffset:0;stroke-opacity:1;paint-order:normal"
       sodipodi:nodetypes="ccssssssssssssssssscccccccc"
       inkscape:label="groundFloor" />
    <g
       aria-label="computerscare"
       transform="matrix(1.3123272,0.02710821,-0.03314708,1.073241,7.0489753,-22.594823)"
       style="font-style:normal;font-weight:normal;font-size:10.58333302px;line-height:1.25;font-family:sans-serif;letter-spacing:0px;word-spacing:0px;fill:#000000;fill-opacity:1;stroke:none;stroke-width:0.26458332"
       id="text1651">
      <path
         d="m 9.7635177,294.7977 -0.022491,0.23707 q -0.1028223,-0.0489 -0.2099211,-0.0673 -0.1055806,-0.0199 -0.2168506,-0.009 -0.2488775,0.0238 -0.4014201,0.19401 -0.1524199,0.16888 -0.1792271,0.45145 -0.026804,0.28254 0.095932,0.42654 0.1228661,0.14262 0.371738,0.11887 0.1112317,-0.0106 0.2224055,-0.0498 0.1127112,-0.0408 0.2267849,-0.11044 l -0.022229,0.23431 q -0.111772,0.0599 -0.2295122,0.0956 -0.1163563,0.0357 -0.2456588,0.048 -0.3517468,0.0335 -0.5381239,-0.16582 -0.1863704,-0.19938 -0.1510635,-0.57153 0.035829,-0.37767 0.2649098,-0.61397 0.2304697,-0.23642 0.5947391,-0.27118 0.1181718,-0.0112 0.2283935,0.003 0.110394,0.0127 0.2114822,0.0509 z"
         style="font-style:normal;font-variant:normal;font-weight:normal;font-stretch:normal;font-size:2.82222223px;font-family:sans-serif;-inkscape-font-specification:'sans-serif, Normal';font-variant-ligatures:normal;font-variant-caps:normal;font-variant-numeric:normal;font-feature-settings:normal;text-align:start;writing-mode:lr-tb;text-anchor:start;stroke-width:0.26458332"
         id="path1701"
         inkscape:connector-curvature="0" />
      <path
         d="m 10.992212,294.51861 q -0.266408,0.0238 -0.441287,0.22654 -0.174717,0.20115 -0.209523,0.52854 -0.0348,0.3274 0.09811,0.50268 0.134883,0.1735 0.403081,0.14957 0.264588,-0.0236 0.439488,-0.2264 0.174888,-0.20278 0.209524,-0.52855 0.03447,-0.32413 -0.10024,-0.49926 -0.134535,-0.17677 -0.399135,-0.15312 z m 0.02701,-0.25411 q 0.431991,-0.0386 0.651579,0.19351 0.21958,0.23209 0.171782,0.68165 -0.04763,0.44794 -0.321417,0.72568 -0.273614,0.27611 -0.705612,0.31468 -0.433806,0.0388 -0.653382,-0.19335 -0.2176066,-0.23386 -0.1699788,-0.68181 0.047797,-0.44956 0.3196148,-0.72552 0.273616,-0.2761 0.707414,-0.31484 z"
         style="font-style:normal;font-variant:normal;font-weight:normal;font-stretch:normal;font-size:2.82222223px;font-family:sans-serif;-inkscape-font-specification:'sans-serif, Normal';font-variant-ligatures:normal;font-variant-caps:normal;font-variant-numeric:normal;font-feature-settings:normal;text-align:start;writing-mode:lr-tb;text-anchor:start;stroke-width:0.32719359"
         id="path1703"
         inkscape:connector-curvature="0" />
      <path
         d="m 13.653765,295.36352 c 0.07288,-0.13168 0.16003,-0.22884 0.261455,-0.2915 0.101422,-0.0627 0.220809,-0.094 0.358161,-0.094 0.184896,-7e-5 0.327536,0.0654 0.427926,0.19601 0.100389,0.12958 0.150598,0.31439 0.150629,0.55441 l 1.71e-4,1.07691 -0.29319,-2.2e-4 c -0.03406,-0.18561 -0.03324,-0.54571 -1.27e-4,-1.06738 5e-6,-0.17098 -0.03015,-0.29789 -0.09038,-0.38076 -0.06024,-0.0828 -0.152167,-0.12428 -0.275777,-0.12429 -0.151086,-1e-5 -0.270469,0.0504 -0.358149,0.15129 -0.08768,0.10089 -0.131509,0.23842 -0.131486,0.41259 l 7.4e-5,1.00843 -0.293192,-2.2e-4 -1.26e-4,-1.06738 c 1.1e-5,-0.17204 -0.03016,-0.29896 -0.09038,-0.38075 -0.06024,-0.0829 -0.153223,-0.12427 -0.278946,-0.12429 -0.148974,-3e-5 -0.267299,0.051 -0.35498,0.15288 -0.08768,0.10089 -0.131509,0.23788 -0.131487,0.411 l 7.3e-5,1.00841 -0.293184,-2.3e-4 -2.73e-4,-1.78423 0.293189,2.2e-4 7.1e-5,0.27718 c 0.06654,-0.10936 0.146309,-0.19007 0.239275,-0.2421 0.09296,-0.052 0.203375,-0.078 0.331217,-0.0779 0.1289,1e-5 0.238256,0.0329 0.32807,0.0988 0.09087,0.0658 0.157976,0.16138 0.20131,0.28676 z"
         style="font-style:normal;font-variant:normal;font-weight:normal;font-stretch:normal;font-size:2.82222223px;font-family:sans-serif;-inkscape-font-specification:'sans-serif, Normal';font-variant-ligatures:normal;font-variant-caps:normal;font-variant-numeric:normal;font-feature-settings:normal;text-align:start;writing-mode:lr-tb;text-anchor:start;stroke-width:0.30507702"
         id="path1705"
         inkscape:connector-curvature="0"
         sodipodi:nodetypes="ccccccccccccccccccccccccccccc" />
      <path
         d="m 15.24757,295.82836 0.0037,0.96694 -0.254966,-10e-4 -0.0097,-2.51668 0.254967,10e-4 0.0011,0.27673 q 0.07931,-0.16242 0.200283,-0.24001 0.12235,-0.0791 0.291869,-0.0784 0.281152,10e-4 0.457205,0.26579 0.177431,0.26453 0.179097,0.69429 0.0017,0.42976 -0.17372,0.69267 -0.174009,0.26291 -0.455161,0.26162 -0.169519,-7.7e-4 -0.29248,-0.0794 -0.121592,-0.0803 -0.202158,-0.24347 z m 0.860284,-0.63255 q -0.0013,-0.33046 -0.117775,-0.5182 -0.115122,-0.18934 -0.31634,-0.19027 -0.201216,-9.2e-4 -0.316254,0.18738 -0.113664,0.18667 -0.112383,0.51715 0.0013,0.33045 0.116404,0.5198 0.116494,0.18773 0.317711,0.18866 0.201217,9.1e-4 0.314882,-0.18576 0.115036,-0.1883 0.113755,-0.51876 z"
         style="font-style:normal;font-variant:normal;font-weight:normal;font-stretch:normal;font-size:2.82222223px;font-family:sans-serif;-inkscape-font-specification:'sans-serif, Normal';font-variant-ligatures:normal;font-variant-caps:normal;font-variant-numeric:normal;font-feature-settings:normal;text-align:start;writing-mode:lr-tb;text-anchor:start;stroke-width:0.28758317"
         id="path1707"
         inkscape:connector-curvature="0" />
      <path
         d="m 16.380983,295.55261 -0.002,-1.0125 0.251818,-0.0693 0.002,1.00205 q 4.63e-4,0.23744 0.08555,0.33366 0.08508,0.0947 0.254785,0.0483 0.203917,-0.0556 0.321337,-0.22994 0.11879,-0.17448 0.118312,-0.4194 l -0.0019,-0.94826 0.251818,-0.0693 0.0033,1.67257 -0.251817,0.0693 -5.02e-4,-0.25686 q -0.0914,0.17741 -0.213054,0.28545 -0.120291,0.10604 -0.280415,0.15002 -0.264134,0.0725 -0.40134,-0.0694 -0.137208,-0.14174 -0.137881,-0.48669 z"
         style="font-style:normal;font-variant:normal;font-weight:normal;font-stretch:normal;font-size:2.82222223px;font-family:sans-serif;-inkscape-font-specification:'sans-serif, Normal';font-variant-ligatures:normal;font-variant-caps:normal;font-variant-numeric:normal;font-feature-settings:normal;text-align:start;writing-mode:lr-tb;text-anchor:start;stroke-width:0.27455816"
         id="path1709"
         inkscape:connector-curvature="0" />
      <path
         d="m 18.446541,294.06616 8.5e-4,0.47187 0.522302,0.001 3.82e-4,0.21219 -0.522302,-10e-4 0.0016,0.90217 q 3.66e-4,0.20328 0.05146,0.26126 0.05248,0.0579 0.210955,0.0582 l 0.260462,5e-4 4.11e-4,0.22852 -0.260464,-5.1e-4 q -0.293536,-5.7e-4 -0.405375,-0.11801 -0.11184,-0.11892 -0.112401,-0.43053 l -0.0016,-0.90216 -0.186044,-3.6e-4 -3.82e-4,-0.21219 0.186044,3.6e-4 -8.5e-4,-0.47186 z"
         style="font-style:normal;font-variant:normal;font-weight:normal;font-stretch:normal;font-size:2.82222223px;font-family:sans-serif;-inkscape-font-specification:'sans-serif, Normal';font-variant-ligatures:normal;font-variant-caps:normal;font-variant-numeric:normal;font-feature-settings:normal;text-align:start;writing-mode:lr-tb;text-anchor:start;stroke-width:0.27455816"
         id="path1711"
         inkscape:connector-curvature="0" />
      <path
         d="m 20.597441,294.72662 0.0019,0.18106 -0.982076,0.41269 q 0.01797,0.37637 0.13848,0.52782 0.121665,0.14894 0.334099,0.0597 0.123044,-0.0523 0.237421,-0.15233 0.115534,-0.10109 0.228195,-0.25349 l 0.0037,0.35009 q -0.114034,0.13285 -0.234297,0.22785 -0.120262,0.0949 -0.244472,0.1471 -0.311106,0.1308 -0.496663,-0.10645 -0.184397,-0.23779 -0.190033,-0.77295 -0.0058,-0.55324 0.162571,-0.94935 0.169533,-0.39859 0.462067,-0.5215 0.262355,-0.10975 0.417516,0.11967 0.156304,0.22738 0.161599,0.73032 z m -0.214738,-0.0187 q -0.0055,-0.30279 -0.103778,-0.4434 -0.0971,-0.14111 -0.25497,-0.0747 -0.178774,0.0747 -0.284885,0.2955 -0.104955,0.21991 -0.117861,0.5446 z"
         style="font-style:normal;font-variant:normal;font-weight:normal;font-stretch:normal;font-size:2.82222223px;font-family:sans-serif;-inkscape-font-specification:'sans-serif, Normal';font-variant-ligatures:normal;font-variant-caps:normal;font-variant-numeric:normal;font-feature-settings:normal;text-align:start;writing-mode:lr-tb;text-anchor:start;stroke-width:0.29406741"
         id="path1713"
         inkscape:connector-curvature="0" />
      <path
         d="m 21.769671,294.28539 q -0.03842,-0.0353 -0.08351,-0.0564 -0.04395,-0.0224 -0.09704,-0.0324 -0.188262,-0.0358 -0.283941,0.10521 -0.09453,0.13967 -0.08393,0.43817 l 0.03292,0.92697 -0.223257,-0.0424 -0.06249,-1.75967 0.223257,0.0424 0.0097,0.27337 q 0.06432,-0.14695 0.173803,-0.2026 0.109438,-0.0574 0.269947,-0.0267 0.02293,0.004 0.05085,0.0142 0.02785,0.009 0.06196,0.0231 z"
         style="font-style:normal;font-variant:normal;font-weight:normal;font-stretch:normal;font-size:2.82222223px;font-family:sans-serif;-inkscape-font-specification:'sans-serif, Normal';font-variant-ligatures:normal;font-variant-caps:normal;font-variant-numeric:normal;font-feature-settings:normal;text-align:start;writing-mode:lr-tb;text-anchor:start;stroke-width:0.26348451"
         id="path1715"
         inkscape:connector-curvature="0" />
      <path
         d="m 23.048548,294.61603 -0.02631,0.3362 q -0.08475,-0.10097 -0.179505,-0.1652 -0.09475,-0.0643 -0.199518,-0.0917 -0.159476,-0.0418 -0.246147,0.0186 -0.08551,0.0605 -0.09821,0.22279 -0.0097,0.12372 0.04177,0.21006 0.0516,0.0844 0.218886,0.19324 l 0.07122,0.0462 q 0.221803,0.14082 0.305617,0.31446 0.08513,0.17208 0.06441,0.43682 -0.02358,0.3014 -0.181684,0.43953 -0.156936,0.13841 -0.408372,0.0728 -0.104763,-0.0273 -0.216121,-0.0919 -0.110346,-0.0622 -0.230766,-0.16287 l 0.02872,-0.36711 q 0.110725,0.13341 0.221881,0.2157 0.111312,0.0804 0.224225,0.10977 0.151329,0.0396 0.23946,-0.0241 0.08828,-0.0657 0.10053,-0.22216 0.01135,-0.14492 -0.04197,-0.23772 -0.05216,-0.0925 -0.245617,-0.21597 l -0.07222,-0.0484 q -0.193612,-0.12146 -0.270893,-0.28765 -0.07713,-0.16801 -0.05748,-0.41921 0.02388,-0.30528 0.167264,-0.43739 0.143374,-0.13212 0.383169,-0.0695 0.118734,0.031 0.221229,0.0875 0.102493,0.0563 0.18643,0.13738 z"
         style="font-style:normal;font-variant:normal;font-weight:normal;font-stretch:normal;font-size:2.82222223px;font-family:sans-serif;-inkscape-font-specification:'sans-serif, Normal';font-variant-ligatures:normal;font-variant-caps:normal;font-variant-numeric:normal;font-feature-settings:normal;text-align:start;writing-mode:lr-tb;text-anchor:start;stroke-width:0.29087409"
         id="path1717"
         inkscape:connector-curvature="0" />
      <path
         d="m 24.728637,294.63587 0.02003,0.25439 q -0.11212,-0.0543 -0.223044,-0.0758 -0.109669,-0.0231 -0.219523,-0.0136 -0.245798,0.0215 -0.368466,0.20193 -0.122783,0.17899 -0.09891,0.48219 0.02388,0.30318 0.173098,0.45992 0.149107,0.15526 0.394904,0.1338 0.109854,-0.009 0.21452,-0.05 0.10592,-0.042 0.208015,-0.11499 l 0.0198,0.25142 q -0.101541,0.0625 -0.21342,0.099 -0.110505,0.0365 -0.23821,0.0476 -0.347414,0.0303 -0.570536,-0.18697 -0.223122,-0.21728 -0.254568,-0.61661 -0.03191,-0.40525 0.155777,-0.65543 0.189064,-0.2503 0.548836,-0.28171 0.11672,-0.0106 0.230044,0.007 0.113206,0.0154 0.221649,0.0582 z"
         style="font-style:normal;font-variant:normal;font-weight:normal;font-stretch:normal;font-size:2.82222223px;font-family:sans-serif;-inkscape-font-specification:'sans-serif, Normal';font-variant-ligatures:normal;font-variant-caps:normal;font-variant-numeric:normal;font-feature-settings:normal;text-align:start;writing-mode:lr-tb;text-anchor:start;stroke-width:0.27455816"
         id="path1719"
         inkscape:connector-curvature="0" />
      <path
         d="m 25.917281,295.46624 q -0.313239,-0.009 -0.424667,0.0586 -0.111423,0.0679 -0.08883,0.23985 0.018,0.13708 0.118553,0.22085 0.101761,0.0824 0.257682,0.087 0.214909,0.006 0.324302,-0.14097 0.110608,-0.14864 0.07754,-0.4004 l -0.0075,-0.0574 z m 0.501549,-0.0911 0.117387,0.89383 -0.258456,-0.008 -0.03124,-0.2378 q -0.06976,0.14008 -0.192791,0.20475 -0.123225,0.0632 -0.314255,0.0577 -0.241599,-0.007 -0.402509,-0.14558 -0.159691,-0.13985 -0.18945,-0.36644 -0.03474,-0.26439 0.124631,-0.39346 0.160756,-0.12903 0.513323,-0.11868 l 0.362401,0.0105 -0.0033,-0.0251 q -0.02332,-0.17765 -0.153994,-0.27761 -0.129449,-0.10136 -0.341554,-0.10762 -0.134846,-0.004 -0.258443,0.0245 -0.123597,0.0285 -0.233136,0.0893 l -0.03124,-0.23779 q 0.134715,-0.0503 0.26466,-0.073 0.129765,-0.0241 0.256179,-0.0204 0.34133,0.01 0.533037,0.19122 0.191703,0.18118 0.238731,0.53927 z"
         style="font-style:normal;font-variant:normal;font-weight:normal;font-stretch:normal;font-size:2.82222223px;font-family:sans-serif;-inkscape-font-specification:'sans-serif, Normal';font-variant-ligatures:normal;font-variant-caps:normal;font-variant-numeric:normal;font-feature-settings:normal;text-align:start;writing-mode:lr-tb;text-anchor:start;stroke-width:0.26860911"
         id="path1721"
         inkscape:connector-curvature="0" />
      <path
         d="m 27.867464,295.23752 q -0.04501,-0.0348 -0.09791,-0.0551 -0.05154,-0.0217 -0.113856,-0.0311 -0.22092,-0.033 -0.333546,0.10961 -0.111277,0.14106 -0.09949,0.43935 l 0.0366,0.92631 -0.261988,-0.0389 -0.06953,-1.7584 0.261987,0.0389 0.01079,0.27317 q 0.07582,-0.14793 0.204473,-0.20525 0.1286,-0.059 0.316946,-0.0309 0.02691,0.004 0.05965,0.013 0.03268,0.008 0.07268,0.0222 z"
         style="font-style:normal;font-variant:normal;font-weight:normal;font-stretch:normal;font-size:2.82222223px;font-family:sans-serif;-inkscape-font-specification:'sans-serif, Normal';font-variant-ligatures:normal;font-variant-caps:normal;font-variant-numeric:normal;font-feature-settings:normal;text-align:start;writing-mode:lr-tb;text-anchor:start;stroke-width:0.28544712"
         id="path1723"
         inkscape:connector-curvature="0" />
      <path
         d="m 28.886282,295.33461 0.0013,0.13351 -0.711858,0.0931 c 0.009,0.18803 -0.0011,0.22628 0.06074,0.32618 0.06247,0.099 0.148316,0.14931 0.257554,0.15113 0.06327,0.001 0.124332,-0.0107 0.18317,-0.0355 0.05944,-0.0248 0.208283,-0.1091 0.266267,-0.15959 l 0.0026,0.25814 c -0.05868,0.0406 -0.20909,0.11803 -0.270953,0.13874 -0.06186,0.0207 -0.124729,0.0306 -0.1886,0.0295 -0.159977,-0.003 -0.287599,-0.082 -0.382862,-0.23774 -0.09467,-0.15584 -0.143318,-0.3653 -0.145954,-0.62838 -0.0027,-0.27197 0.03929,-0.48685 0.126037,-0.64462 0.08734,-0.15874 0.206219,-0.23686 0.356645,-0.23437 0.134907,0.002 0.242183,0.0763 0.321827,0.2219 0.08023,0.14472 0.121586,0.34071 0.124063,0.58797 z m -0.165555,-0.0828 c -0.0028,-0.14936 -0.02927,-0.26895 -0.07969,-0.35878 -0.04984,-0.0898 -0.115352,-0.13542 -0.196534,-0.13676 -0.09193,-0.002 -0.165216,0.0403 -0.219869,0.12539 -0.05406,0.0851 -0.01128,0.19167 -0.01807,0.34779 z"
         style="font-style:normal;font-variant:normal;font-weight:normal;font-stretch:normal;font-size:2.82222223px;font-family:sans-serif;-inkscape-font-specification:'sans-serif, Normal';font-variant-ligatures:normal;font-variant-caps:normal;font-variant-numeric:normal;font-feature-settings:normal;text-align:start;writing-mode:lr-tb;text-anchor:start;stroke-width:0.22126861"
         id="path1725"
         inkscape:connector-curvature="0"
         sodipodi:nodetypes="ccccscccsscscscccccsccc" />
    </g>
    <g
       id="g9547"
       transform="matrix(0.18978894,-0.01134475,0,0.28042233,2.5252982,290.37859)">
      <g
         style="display:inline"
         inkscape:label="Layer 1"
         id="layer4" />
      <path
         id="rect5872"
         d="m 11.987289,9.3234482 h 7.991524 v 3.9957608 h -7.991524 z"
         style="opacity:1;fill:#0f0f00;fill-opacity:1;stroke:#000000;stroke-width:0;stroke-miterlimit:4;stroke-dasharray:none;stroke-opacity:1"
         inkscape:connector-curvature="0" />
      <path
         id="rect5874"
         d="m 14.667374,10.662096 h 3.995763 v 1.331921 h -3.995763 z"
         style="opacity:1;fill:#ffffff;fill-opacity:0.98571424;stroke:#000000;stroke-width:0;stroke-miterlimit:4;stroke-dasharray:none;stroke-opacity:1"
         inkscape:connector-curvature="0" />
      <path
         id="rect5878"
         d="m -29.323654,9.3234482 h 7.989551 v 3.9957608 h -7.989551 z"
         style="opacity:1;fill:#0c0c00;fill-opacity:1;stroke:#000000;stroke-width:0;stroke-miterlimit:4;stroke-dasharray:none;stroke-opacity:1"
         transform="scale(-1,1)"
         inkscape:connector-curvature="0" />
      <path
         id="rect5880"
         d="m -26.64423,10.662096 h 3.994777 v 1.331921 h -3.994777 z"
         style="opacity:1;fill:#ffffff;fill-opacity:0.98571424;stroke:#000000;stroke-width:0;stroke-miterlimit:4;stroke-dasharray:none;stroke-opacity:1"
         transform="scale(-1,1)"
         inkscape:connector-curvature="0" />
      <path
         id="rect5882"
         d="m 19.995058,14.667374 h 1.331921 v 3.995762 h -1.331921 z"
         style="opacity:1;fill:#000000;fill-opacity:1;stroke:#000000;stroke-width:0;stroke-miterlimit:4;stroke-dasharray:none;stroke-opacity:1"
         inkscape:connector-curvature="0" />
      <path
         id="rect5884"
         d="m 21.326979,17.331215 h 1.315677 v 1.33192 h -1.315677 z"
         style="opacity:1;fill:#000000;fill-opacity:1;stroke:#000000;stroke-width:0;stroke-miterlimit:4;stroke-dasharray:none;stroke-opacity:1"
         inkscape:connector-curvature="0" />
      <path
         id="rect5886"
         d="m 11.954803,20.011301 h 2.696328 v 2.663842 h -2.696328 z"
         style="opacity:1;fill:#000200;fill-opacity:1;stroke:#000000;stroke-width:0;stroke-miterlimit:4;stroke-dasharray:none;stroke-opacity:1"
         inkscape:connector-curvature="0" />
      <path
         id="rect5888"
         d="m 27.970341,20.011301 h 2.696327 v 2.663842 h -2.696327 z"
         style="opacity:1;fill:#000200;fill-opacity:1;stroke:#000000;stroke-width:0;stroke-miterlimit:4;stroke-dasharray:none;stroke-opacity:1"
         inkscape:connector-curvature="0" />
      <path
         id="rect5890"
         d="m 14.651131,20.011301 h 13.351695 v 1.33192 H 14.651131 Z"
         style="opacity:1;fill:#000200;fill-opacity:1;stroke:#000000;stroke-width:0;stroke-miterlimit:4;stroke-dasharray:none;stroke-opacity:1"
         inkscape:connector-curvature="0" />
    </g>
    <path
       sodipodi:nodetypes="ccccc"
       style="opacity:1;vector-effect:none;fill:#f9f9f9;fill-opacity:1;fill-rule:evenodd;stroke:#000000;stroke-width:0.273;stroke-linecap:butt;stroke-linejoin:bevel;stroke-miterlimit:4;stroke-dasharray:none;stroke-dashoffset:0;stroke-opacity:1;paint-order:normal"
       d="m 0.18378203,196.58837 22.22692397,-0.009 c 0.222081,5.39584 0.0301,9.42735 -0.05309,14.44691 l -22.13030777,-1.5e-4 z"
       id="path4018"
       inkscape:connector-curvature="0"
       inkscape:label="pimpleFloor" />
    <path
       style="fill:#dedede;fill-opacity:1;stroke:#000000;stroke-width:0.26499999;stroke-linecap:round;stroke-linejoin:miter;stroke-miterlimit:4;stroke-dasharray:none;stroke-opacity:1"
       d="m 0.22583599,210.93842 -0.007612,0.1447 3.10076081,2.90385 21.2862902,0.0222 -0.02052,-0.97531 -2.227465,-2.08961 z"
       id="path4020"
       inkscape:connector-curvature="0"
       sodipodi:nodetypes="ccccccc"
       inkscape:label="pimpleSouth" />
    <path
       style="fill:#bababa;fill-opacity:1;stroke:#000000;stroke-width:0.26499999;stroke-linecap:butt;stroke-linejoin:bevel;stroke-miterlimit:4;stroke-dasharray:none;stroke-opacity:1"
       d="m 22.30768,196.58236 0.129574,0.0666 2.168994,2.91823 0.0017,14.38667 -0.0083,0.1158 -2.24231,-3.12539 z"
       id="path4022"
       inkscape:connector-curvature="0"
       sodipodi:nodetypes="ccccccc"
       inkscape:label="pimpleEast" />
    <g
       aria-label="knoly
pobs"
       transform="matrix(0.92845809,0,0,0.57850027,24.941004,34.746106)"
       style="font-style:normal;font-variant:normal;font-weight:normal;font-stretch:normal;font-size:8.34672165px;line-height:1.25;font-family:'.Al Tarikh PUA';-inkscape-font-specification:'.Al Tarikh PUA, Normal';font-variant-ligatures:normal;font-variant-caps:normal;font-variant-numeric:normal;font-feature-settings:normal;text-align:start;letter-spacing:0px;word-spacing:0px;writing-mode:lr-tb;text-anchor:start;fill:#000000;fill-opacity:1;stroke:none;stroke-width:0.20866522"
       id="text4592">
      <path
         d="m -25.424556,280.64365 h 0.753977 v 5.08248 l 2.237475,-2.6712 h 0.957754 l -2.420875,2.89795 2.875397,2.30872 -1.330765,0.98742 -2.318986,-3.02515 v 3.02515 h -0.753977 z"
         style="font-style:normal;font-variant:normal;font-weight:normal;font-stretch:normal;font-size:8.34672165px;font-family:'.Al Tarikh PUA';-inkscape-font-specification:'.Al Tarikh PUA, Normal';font-variant-ligatures:normal;font-variant-caps:normal;font-variant-numeric:normal;font-feature-settings:normal;text-align:start;writing-mode:lr-tb;text-anchor:start;stroke-width:0.24307324"
         id="path4602"
         inkscape:connector-curvature="0"
         sodipodi:nodetypes="cccccccccccc" />
      <path
         d="m -16.759941,284.96913 v 4.27989 h -0.809192 v -4.24189 q 0,-1.00667 -0.272663,-1.50682 -0.272663,-0.50017 -0.817988,-0.50017 -0.65527,0 -1.033479,0.60145 -0.378209,0.60147 -0.378209,1.63979 v 4.00764 h -0.81359 v -7.09093 h 0.81359 v 1.10163 q 0.290253,-0.63945 0.681656,-0.95601 0.3958,-0.31656 0.910341,-0.31656 0.848772,0 1.284153,0.75975 0.435381,0.75341 0.435381,2.22223 z"
         style="font-style:normal;font-variant:normal;font-weight:normal;font-stretch:normal;font-size:8.34672165px;font-family:'.Al Tarikh PUA';-inkscape-font-specification:'.Al Tarikh PUA, Normal';font-variant-ligatures:normal;font-variant-caps:normal;font-variant-numeric:normal;font-feature-settings:normal;text-align:start;writing-mode:lr-tb;text-anchor:start;stroke-width:0.27016169"
         id="path4604"
         inkscape:connector-curvature="0" />
      <path
         d="m -13.310162,284.21643 q -0.53181,0 -0.868686,1.07887 -0.336637,1.06956 -0.384898,2.93898 -0.04826,1.86942 0.229318,2.94829 0.281412,1.06958 0.816816,1.06958 0.528216,0 0.865094,-1.07887 0.336876,-1.07888 0.384898,-2.939 0.04778,-1.85081 -0.233392,-2.92971 -0.280934,-1.08814 -0.80915,-1.08814 z m 0.03745,-1.4509 q 0.862394,0 1.317221,1.4509 0.454827,1.45089 0.388559,4.01785 -0.06603,2.55767 -0.596009,4.01787 -0.529739,1.45087 -1.392133,1.45087 -0.865988,0 -1.320816,-1.45087 -0.450994,-1.4602 -0.384965,-4.01787 0.06627,-2.56696 0.592415,-4.01785 0.52974,-1.4509 1.395728,-1.4509 z"
         style="font-style:normal;font-variant:normal;font-weight:normal;font-stretch:normal;font-size:8.34672165px;font-family:'.Al Tarikh PUA';-inkscape-font-specification:'.Al Tarikh PUA, Normal';font-variant-ligatures:normal;font-variant-caps:normal;font-variant-numeric:normal;font-feature-settings:normal;text-align:start;writing-mode:lr-tb;text-anchor:start;stroke-width:0.29598308"
         id="path4606"
         inkscape:connector-curvature="0" />
      <path
         d="m -10.34044,283.03904 h 0.6611689 l -0.3640889,14.10322 h -0.661168 z"
         style="font-style:normal;font-variant:normal;font-weight:normal;font-stretch:normal;font-size:8.34672165px;font-family:'.Al Tarikh PUA';-inkscape-font-specification:'.Al Tarikh PUA, Normal';font-variant-ligatures:normal;font-variant-caps:normal;font-variant-numeric:normal;font-feature-settings:normal;text-align:start;writing-mode:lr-tb;text-anchor:start;stroke-width:0.29219034"
         id="path4608"
         inkscape:connector-curvature="0" />
      <path
         d="m -5.9393629,292.38854 q -0.3178927,1.84013 -0.6194832,2.40136 -0.3015905,0.56125 -0.8069584,0.56125 H -7.96491 v -1.4169 h 0.4401591 q 0.3097416,0 0.4809146,-0.33123 0.171173,-0.33122 0.379026,-1.5641 l 0.134493,-0.77286 -1.8462231,-10.13908 h 0.7947318 l 1.4264417,8.05974 1.4264417,-8.05974 h 0.7947318 z"
         style="font-style:normal;font-variant:normal;font-weight:normal;font-stretch:normal;font-size:8.34672165px;font-family:'.Al Tarikh PUA';-inkscape-font-specification:'.Al Tarikh PUA, Normal';font-variant-ligatures:normal;font-variant-caps:normal;font-variant-numeric:normal;font-feature-settings:normal;text-align:start;writing-mode:lr-tb;text-anchor:start;stroke-width:0.31352031"
         id="path4610"
         inkscape:connector-curvature="0" />
      <path
         d="m -24.670579,298.79009 v 4.34432 h -0.753977 v -11.30696 h 0.753977 v 1.24333 q 0.236381,-0.73136 0.595029,-1.08243 0.362724,-0.35837 0.864017,-0.35837 0.831411,0 1.349006,1.18482 0.52167,1.18483 0.52167,3.11563 0,1.93081 -0.52167,3.11563 -0.517595,1.18482 -1.349006,1.18482 -0.501293,0 -0.864017,-0.35105 -0.358648,-0.35838 -0.595029,-1.08974 z m 2.551292,-2.85966 q 0,-1.48468 -0.342346,-2.32574 -0.33827,-0.8484 -0.9333,-0.8484 -0.59503,0 -0.937376,0.8484 -0.33827,0.84106 -0.33827,2.32574 0,1.48469 0.33827,2.33307 0.342346,0.84108 0.937376,0.84108 0.59503,0 0.9333,-0.84108 0.342346,-0.84838 0.342346,-2.33307 z"
         style="font-style:normal;font-variant:normal;font-weight:normal;font-stretch:normal;font-size:8.34672165px;font-family:'.Al Tarikh PUA';-inkscape-font-specification:'.Al Tarikh PUA, Normal';font-variant-ligatures:normal;font-variant-caps:normal;font-variant-numeric:normal;font-feature-settings:normal;text-align:start;writing-mode:lr-tb;text-anchor:start;stroke-width:0.27952805"
         id="path4612"
         inkscape:connector-curvature="0" />
      <path
         d="m -16.528708,298.50392 q -0.417414,2.38849 -1.270299,3.60002 -0.84835,1.21517 -1.645861,0.57131 -0.79751,-0.64385 -1.070781,-2.74893 -0.270885,-2.11873 0.148917,-4.52088 0.4198,-2.40214 1.27268,-3.61365 0.852884,-1.21152 1.650394,-0.56769 0.797511,0.64386 1.063862,2.75896 0.270885,2.11874 -0.148912,4.52086 z m -0.344381,-0.27802 q 0.34347,-1.96537 0.117412,-3.6897 -0.219132,-1.73438 -0.876175,-2.26481 -0.65251,-0.52677 -1.353231,0.46497 -0.693801,0.98174 -1.03727,2.9471 -0.341091,1.95176 -0.117415,3.68972 0.223669,1.738 0.871645,2.26115 0.652507,0.52679 1.350843,-0.45131 0.700718,-0.99172 1.044191,-2.95712 z"
         style="font-style:normal;font-variant:normal;font-weight:normal;font-stretch:normal;font-size:8.34672165px;font-family:'East Syriac Ctesiphon';-inkscape-font-specification:'East Syriac Ctesiphon, Normal';font-variant-ligatures:normal;font-variant-caps:normal;font-variant-numeric:normal;font-feature-settings:normal;text-align:start;writing-mode:lr-tb;text-anchor:start;stroke-width:0.43010914"
         id="path4614"
         inkscape:connector-curvature="0" />
      <path
         d="m -12.069288,300.1773 q -0.03498,1.35511 -0.555332,2.29443 -0.516347,0.93934 -1.220485,0.93934 -0.872172,0 -1.352893,-1.37051 l -0.02643,1.02403 h -0.620122 q -0.224045,0 -0.215696,-0.32337 0.0086,-0.33108 0.232592,-0.33108 h 0.284055 l 0.214472,-8.30772 h -0.284055 q -0.224045,0 -0.215498,-0.33106 0.0084,-0.32339 0.232393,-0.32339 h 0.620122 l -0.121567,4.86606 q 0.551284,-1.3628 1.419455,-1.3628 0.704138,0 1.171987,0.93932 0.471848,0.93934 0.437063,2.28675 z m -0.30406,0 q 0.02862,-1.10873 -0.35978,-1.87097 -0.388205,-0.76994 -0.964317,-0.76994 -0.572114,0 -1.00007,0.76994 -0.427958,0.76995 -0.456382,1.87097 -0.02862,1.10872 0.35558,1.87866 0.388403,0.76225 0.964517,0.76225 0.580114,0 1.003871,-0.76225 0.427958,-0.76994 0.456581,-1.87866 z"
         style="font-style:normal;font-variant:normal;font-weight:normal;font-stretch:normal;font-size:8.34672165px;font-family:'East Syriac Ctesiphon';-inkscape-font-specification:'East Syriac Ctesiphon, Normal';font-variant-ligatures:normal;font-variant-caps:normal;font-variant-numeric:normal;font-feature-settings:normal;text-align:start;writing-mode:lr-tb;text-anchor:start;stroke-width:0.28416264"
         id="path4616"
         inkscape:connector-curvature="0" />
      <path
         d="m -3.9441426,297.0506 v 0.9484 q -0.6667594,-0.21803 -1.384808,-0.32704 -0.7180486,-0.109 -1.4873864,-0.109 -1.1711033,0 -1.7609289,0.22893 -0.5812774,0.22892 -0.5812774,0.68676 0,0.34884 0.4188616,0.55051 0.4188618,0.19622 1.683995,0.3761 l 0.5385365,0.0764 q 1.6754469,0.22892 2.3763991,0.64862 0.7095005,0.41424 0.7095005,1.16096 0,0.85028 -1.0599768,1.34629 -1.0514282,0.49599 -2.8978389,0.49599 -0.7693378,0 -1.6070613,-0.0982 -0.8291743,-0.0927 -1.7523814,-0.28343 v -1.0356 q 0.8719165,0.28887 1.7181886,0.43604 0.8462716,0.14172 1.6754469,0.14172 1.1112657,0 1.7096395,-0.23983 0.5983738,-0.24528 0.5983738,-0.68677 0,-0.40879 -0.435958,-0.62681 -0.42741,-0.21803 -1.8891517,-0.41969 l -0.5470847,-0.0817 q -1.461742,-0.19622 -2.1114054,-0.59956 -0.649662,-0.4088 -0.649662,-1.11737 0,-0.86119 0.9573973,-1.32994 0.9573985,-0.46874 2.7183272,-0.46874 0.8719163,0 1.6412541,0.0817 0.7693378,0.0817 1.4190008,0.24528 z"
         style="font-style:normal;font-variant:normal;font-weight:normal;font-stretch:normal;font-size:8.34672165px;font-family:'.Al Tarikh PUA';-inkscape-font-specification:'.Al Tarikh PUA, Normal';font-variant-ligatures:normal;font-variant-caps:normal;font-variant-numeric:normal;font-feature-settings:normal;text-align:start;writing-mode:lr-tb;text-anchor:start;stroke-width:0.34947965"
         id="path4618"
         inkscape:connector-curvature="0" />
    </g>
    <text
       xml:space="preserve"
       style="font-style:normal;font-weight:normal;font-size:10.58333302px;line-height:1.25;font-family:sans-serif;letter-spacing:0px;word-spacing:0px;fill:#000000;fill-opacity:1;stroke:none;stroke-width:0.26458332"
       x="-24.134436"
       y="214.30679"
       id="text4598"><tspan
         sodipodi:role="line"
         id="tspan4596"
         x="-24.134436"
         y="223.67056"
         style="stroke-width:0.26458332" /></text>
    <path
       inkscape:label="indentSouth"
       sodipodi:nodetypes="cccccc"
       inkscape:connector-curvature="0"
       id="path4659"
       d="m 23.738551,220.75572 2.777429,4.06676 13.263746,0.0468 -0.0072,-0.51449 -2.55816,-3.45712 z"
       style="fill:#dedede;fill-opacity:1;stroke:#000000;stroke-width:0.23362851px;stroke-linecap:butt;stroke-linejoin:bevel;stroke-opacity:1" />
    <path
       style="fill:#dedede;fill-opacity:1;stroke:#000000;stroke-width:0.634;stroke-linecap:butt;stroke-linejoin:miter;stroke-miterlimit:4;stroke-dasharray:none;stroke-opacity:1"
       d="m 23.606259,260.44322 2.777429,4.06676 h 13.116192 0.257247 l -0.06015,-0.50042 -2.614941,-3.42442 z"
       id="path4661"
       inkscape:connector-curvature="0"
       sodipodi:nodetypes="ccccccc"
       inkscape:label="indentSouth" />
    <path
       style="fill:#cfd0cf;fill-opacity:1;stroke:#000000;stroke-width:0.565;stroke-miterlimit:4;stroke-dasharray:none;stroke-opacity:1"
       d="m 23.906042,220.66769 13.094121,0.37418 c 1.537806,0.0439 3.6e-4,-0.33248 -4e-6,-0.28068 l -0.280633,39.95208 c 0,0 -0.135265,-0.0936 -0.187085,-0.0936 H 23.906042 c -0.05182,0 -0.09354,-0.0417 -0.09354,-0.0935 v -39.76499 c 0,-0.0518 0.04172,-0.0935 0.09354,-0.0935 z"
       id="rect4663"
       inkscape:connector-curvature="0"
       sodipodi:nodetypes="csscsssssc" />
    <g
       aria-label="5-8"
       transform="matrix(0.85673357,0,0.35617732,0.38011199,-60.264817,168.92692)"
       style="font-style:normal;font-weight:normal;font-size:7.99481201px;line-height:1.25;font-family:sans-serif;letter-spacing:0px;word-spacing:0px;fill:#000000;fill-opacity:1;stroke:none;stroke-width:0.1998703"
       id="text4671">
      <path
         d="m -1.013402,243.28526 h 3.0956474 v 0.66363 h -2.37345981 v 1.42876 q 0.17176354,-0.0585 0.34352708,-0.0859 0.17176354,-0.0312 0.34352708,-0.0312 0.97592925,0 1.54587185,0.53481 0.5699427,0.53481 0.5699427,1.44828 0,0.9408 -0.5855576,1.46389 -0.5855575,0.5192 -1.65127217,0.5192 -0.36694938,0 -0.74951363,-0.0625 -0.37866053,-0.0625 -0.7846471,-0.18738 v -0.79245 q 0.35133454,0.19128 0.72609135,0.28497 0.37475681,0.0937 0.79245451,0.0937 0.67534301,0 1.06961844,-0.35524 0.3942754,-0.35524 0.3942754,-0.96422 0,-0.60898 -0.3942754,-0.96422 -0.39427543,-0.35524 -1.06961844,-0.35524 -0.31620106,0 -0.63240212,0.0703 -0.31229734,0.0703 -0.64020954,0.21861 z"
         style="stroke-width:0.1998703"
         id="path4673"
         inkscape:connector-curvature="0" />
      <path
         d="m 3.6046947,246.60342 h 2.1041034 v 0.64021 H 3.6046947 Z"
         style="stroke-width:0.1998703"
         id="path4675"
         inkscape:connector-curvature="0" />
      <path
         d="m 8.6443932,246.34577 q -0.5621352,0 -0.8861437,0.30059 -0.3201048,0.30059 -0.3201048,0.82759 0,0.527 0.3201048,0.82759 0.3240085,0.30058 0.8861437,0.30058 0.5621353,0 0.8861437,-0.30058 0.3240085,-0.30449 0.3240085,-0.82759 0,-0.527 -0.3240085,-0.82759 -0.3201047,-0.30059 -0.8861437,-0.30059 z m -0.7885508,-0.33571 q -0.5074831,-0.12492 -0.7924545,-0.47235 -0.2810676,-0.34744 -0.2810676,-0.84711 0,-0.69877 0.4957721,-1.10475 0.4996757,-0.40599 1.3663008,-0.40599 0.8705289,0 1.3663008,0.40599 0.495772,0.40598 0.495772,1.10475 0,0.49967 -0.284971,0.84711 -0.2810678,0.34743 -0.7846473,0.47235 0.5699423,0.13272 0.8861433,0.51919 0.320105,0.38647 0.320105,0.9447 0,0.84711 -0.519194,1.29994 -0.5152907,0.45283 -1.4795088,0.45283 -0.964218,0 -1.4834123,-0.45283 -0.5152907,-0.45283 -0.5152907,-1.29994 0,-0.55823 0.3201048,-0.9447 0.3201048,-0.38647 0.8900474,-0.51919 z m -0.288875,-1.24529 q 0,0.45283 0.2810676,0.70657 0.2849713,0.25374 0.7963582,0.25374 0.5074832,0 0.7924545,-0.25374 0.2888751,-0.25374 0.2888751,-0.70657 0,-0.45283 -0.2888751,-0.70657 -0.2849713,-0.25374 -0.7924545,-0.25374 -0.5113869,0 -0.7963582,0.25374 -0.2810676,0.25374 -0.2810676,0.70657 z"
         style="stroke-width:0.1998703"
         id="path4677"
         inkscape:connector-curvature="0" />
    </g>
  </g>
</svg>
