<?xml version="1.0" encoding="UTF-8" standalone="no"?>
<svg
   xmlns:dc="http://purl.org/dc/elements/1.1/"
   xmlns:cc="http://creativecommons.org/ns#"
   xmlns:rdf="http://www.w3.org/1999/02/22-rdf-syntax-ns#"
   xmlns:svg="http://www.w3.org/2000/svg"
   xmlns="http://www.w3.org/2000/svg"
   xmlns:sodipodi="http://sodipodi.sourceforge.net/DTD/sodipodi-0.dtd"
   xmlns:inkscape="http://www.inkscape.org/namespaces/inkscape"
   width="60"
   height="380"
   viewBox="0 0 15.875 100.54167"
   version="1.1"
   id="svg8"
   inkscape:version="1.0.1 (c497b03c, 2020-09-10)"
   sodipodi:docname="ComputerscareGolyPeneratorPanel.svg"
   style="enable-background:new">
  <defs
     id="defs2" />
  <sodipodi:namedview
     id="base"
     pagecolor="#ffffff"
     bordercolor="#666666"
     borderopacity="1.0"
     inkscape:pageopacity="0.0"
     inkscape:pageshadow="2"
     inkscape:zoom="11.313709"
     inkscape:cx="30.33601"
     inkscape:cy="360.7768"
     inkscape:document-units="mm"
     inkscape:current-layer="g1669"
     showgrid="false"
     units="px"
     inkscape:snap-bbox="true"
     inkscape:snap-page="true"
     inkscape:bbox-nodes="true"
     inkscape:snap-bbox-edge-midpoints="true"
     inkscape:window-width="1440"
     inkscape:window-height="855"
     inkscape:window-x="0"
     inkscape:window-y="23"
     inkscape:window-maximized="1"
     inkscape:snap-global="false"
     showguides="false"
     inkscape:lockguides="false"
     inkscape:document-rotation="0" />
  <metadata
     id="metadata5">
    <rdf:RDF>
      <cc:Work
         rdf:about="">
        <dc:format>image/svg+xml</dc:format>
        <dc:type
           rdf:resource="http://purl.org/dc/dcmitype/StillImage" />
        <dc:title />
      </cc:Work>
    </rdf:RDF>
  </metadata>
  <g
     inkscape:label="Layer 1"
     inkscape:groupmode="layer"
     id="layer1"
     transform="translate(0,-196.45832)"
     style="display:none">
    <path
       style="opacity:1;vector-effect:none;fill:#f0f0f0;fill-opacity:1;fill-rule:evenodd;stroke:none;stroke-width:0.48607069;stroke-linecap:butt;stroke-linejoin:round;stroke-miterlimit:4;stroke-dasharray:none;stroke-dashoffset:0;stroke-opacity:1;paint-order:normal"
       d="M 0,196.45831 H 23.8125 V 296.99999 H 0 Z"
       id="rect817"
       inkscape:connector-curvature="0" />
    <text
       xml:space="preserve"
       style="font-style:normal;font-weight:normal;font-size:10.5833px;line-height:1.25;font-family:sans-serif;letter-spacing:0px;word-spacing:0px;fill:#000000;fill-opacity:1;stroke:none;stroke-width:0.264583"
       x="8.2147436"
       y="295.57718"
       id="text1490"
       transform="rotate(1.4468834)"><tspan
         sodipodi:role="line"
         id="tspan1488"
         x="8.2147436"
         y="295.57718"
         style="font-style:normal;font-variant:normal;font-weight:normal;font-stretch:normal;font-size:2.82222px;font-family:sans-serif;-inkscape-font-specification:'sans-serif, Normal';font-variant-ligatures:normal;font-variant-caps:normal;font-variant-numeric:normal;font-feature-settings:normal;text-align:start;writing-mode:lr-tb;text-anchor:start;stroke-width:0.264583">computerscare</tspan></text>
    <text
       transform="rotate(-5.9989835)"
       id="text1494"
       y="288.0314"
       x="-28.710276"
       style="font-style:normal;font-weight:normal;font-size:10.5833px;line-height:1.25;font-family:sans-serif;letter-spacing:0px;word-spacing:0px;fill:#000000;fill-opacity:1;stroke:none;stroke-width:0.264583"
       xml:space="preserve"><tspan
         style="font-style:normal;font-variant:normal;font-weight:normal;font-stretch:normal;font-size:2.82222px;font-family:sans-serif;-inkscape-font-specification:'sans-serif, Normal';font-variant-ligatures:normal;font-variant-caps:normal;font-variant-numeric:normal;font-feature-settings:normal;text-align:start;writing-mode:lr-tb;text-anchor:start;stroke-width:0.264583"
         y="288.0314"
         x="-28.710276"
         id="tspan1492"
         sodipodi:role="line">trg</tspan></text>
    <text
       xml:space="preserve"
       style="font-style:normal;font-weight:normal;font-size:10.5833px;line-height:1.25;font-family:sans-serif;letter-spacing:0px;word-spacing:0px;fill:#000000;fill-opacity:1;stroke:none;stroke-width:0.264583"
       x="20.711658"
       y="288.87244"
       id="text1498"
       transform="rotate(1.9714728)"><tspan
         sodipodi:role="line"
         id="tspan1496"
         x="20.711658"
         y="288.87244"
         style="font-style:normal;font-variant:normal;font-weight:normal;font-stretch:normal;font-size:2.82222px;font-family:sans-serif;-inkscape-font-specification:'sans-serif, Normal';font-variant-ligatures:normal;font-variant-caps:normal;font-variant-numeric:normal;font-feature-settings:normal;text-align:start;writing-mode:lr-tb;text-anchor:start;stroke-width:0.264583">in</tspan></text>
    <text
       transform="rotate(0.49746114)"
       id="text1521"
       y="289.16214"
       x="20.314623"
       style="font-style:normal;font-weight:normal;font-size:10.5833px;line-height:1.25;font-family:sans-serif;letter-spacing:0px;word-spacing:0px;fill:#000000;fill-opacity:1;stroke:none;stroke-width:0.264583"
       xml:space="preserve"><tspan
         style="font-style:normal;font-variant:normal;font-weight:normal;font-stretch:normal;font-size:3.175px;font-family:sans-serif;-inkscape-font-specification:'sans-serif, Normal';font-variant-ligatures:normal;font-variant-caps:normal;font-variant-numeric:normal;font-feature-settings:normal;text-align:start;writing-mode:lr-tb;text-anchor:start;stroke-width:0.264583"
         y="289.16214"
         x="20.314623"
         id="tspan1519"
         sodipodi:role="line">clr</tspan></text>
    <text
       transform="matrix(1.0139335,-0.02825079,0.06854811,0.98434808,0,0)"
       id="text1645"
       y="204.61243"
       x="-10.296249"
       style="font-style:normal;font-weight:normal;font-size:10.7472px;line-height:1.25;font-family:sans-serif;letter-spacing:0px;word-spacing:0px;fill:#000000;fill-opacity:1;stroke:none;stroke-width:0.26868"
       xml:space="preserve"><tspan
         style="font-style:normal;font-variant:normal;font-weight:normal;font-stretch:normal;font-size:5.01536px;font-family:sans-serif;-inkscape-font-specification:'sans-serif, Normal';font-variant-ligatures:normal;font-variant-caps:normal;font-variant-numeric:normal;font-feature-settings:normal;text-align:start;writing-mode:lr-tb;text-anchor:start;stroke-width:0.26868"
         y="204.61243"
         x="-10.296249"
         id="tspan1643"
         sodipodi:role="line">debug</tspan></text>
  </g>
  <g
     inkscape:groupmode="layer"
     id="layer3"
     inkscape:label="bg" />
  <g
     style="display:inline"
     transform="translate(0,-196.45832)"
     id="g1669"
     inkscape:groupmode="layer"
     inkscape:label="Layer 1 copy">
    <rect
       style="fill:#fcfcfc;fill-opacity:1;stroke:#666666;stroke-width:0.26300001;stroke-linecap:round;stroke-linejoin:round;stroke-miterlimit:4;stroke-dasharray:none;stroke-opacity:1;paint-order:stroke fill markers"
       id="rect4821"
       width="15.668674"
       height="13.6107"
       x="0.093544334"
       y="283.3425" />
    <rect
       style="fill:#fcfcfc;fill-opacity:1;stroke:#666666;stroke-width:0.39181;stroke-linecap:round;stroke-linejoin:round;stroke-miterlimit:4;stroke-dasharray:none;stroke-opacity:1;paint-order:stroke fill markers"
       id="rect1125"
       width="11.975877"
       height="81.017967"
       x="3.9670091"
       y="203.66071" />
    <rect
       style="fill:#fcfcfc;fill-opacity:1;stroke:#666666;stroke-width:0.362623;stroke-linecap:round;stroke-linejoin:round;stroke-miterlimit:4;stroke-dasharray:none;stroke-opacity:1;paint-order:stroke fill markers"
       id="rect1123"
       width="14.320168"
       height="80.53215"
       x="0.24824893"
       y="199.22011" />
    <g
       aria-label="computerscare"
       transform="matrix(0.60064444,-0.07085766,0.25618802,1.4708996,-77.768926,-137.20328)"
       style="font-style:normal;font-weight:normal;font-size:10.58333302px;line-height:1.25;font-family:sans-serif;letter-spacing:0px;word-spacing:0px;fill:#000000;fill-opacity:1;stroke:none;stroke-width:0.26458332"
       id="text1651">
      <path
         d="m 7.0715568,293.85718 0.2613077,0.24102 Q 6.9992046,294.04 6.6955837,294.0127 6.3938909,293.984 6.1188826,293.9863 q -0.6156858,0.004 -0.783258,0.1669 -0.1689374,0.1609 0.1425243,0.44818 0.3114306,0.28724 0.8252359,0.44445 0.5122852,0.1558 1.1281313,0.15119 0.2751147,-0.003 0.5118125,-0.0335 0.2384006,-0.0328 0.4413636,-0.0952 l 0.2582676,0.23821 q -0.2101865,0.0525 -0.4685187,0.0797 -0.2547675,0.0273 -0.5747614,0.0297 -0.870277,0.007 -1.6246327,-0.21246 -0.7541869,-0.21896 -1.1643838,-0.59731 -0.416285,-0.38396 -0.1387384,-0.60783 0.2809984,-0.22388 1.182405,-0.23063 0.2928036,-0.002 0.5985991,0.0212 0.3045029,0.0217 0.6192412,0.069 z"
         style="font-style:normal;font-variant:normal;font-weight:normal;font-stretch:normal;font-size:2.82222223px;font-family:sans-serif;-inkscape-font-specification:'sans-serif, Normal';font-variant-ligatures:normal;font-variant-caps:normal;font-variant-numeric:normal;font-feature-settings:normal;text-align:start;writing-mode:lr-tb;text-anchor:start;stroke-width:0.42328158"
         id="path1701"
         inkscape:connector-curvature="0" />
      <path
         d="m 9.9464593,293.50838 q -0.2237141,0.0309 -0.3927104,0.27281 -0.1686789,0.24008 -0.2362989,0.62842 -0.067621,0.38834 0.021828,0.59476 0.091297,0.20429 0.3165043,0.17329 0.2221783,-0.0306 0.3912017,-0.27261 0.169014,-0.24201 0.236299,-0.62841 0.06695,-0.38447 -0.02401,-0.5907 -0.09062,-0.20816 -0.3128137,-0.17756 z m 0.052484,-0.30139 q 0.3627417,-0.0499 0.5173437,0.22293 0.154584,0.27291 0.06173,0.80614 -0.09252,0.53132 -0.352413,0.86314 -0.2595559,0.3299 -0.6223088,0.37984 -0.3642764,0.0502 -0.5188573,-0.22272 -0.1527376,-0.27503 -0.060218,-0.80634 0.092858,-0.53324 0.3509019,-0.86294 0.2595555,-0.3299 0.6238215,-0.38005 z"
         style="font-style:normal;font-variant:normal;font-weight:normal;font-stretch:normal;font-size:2.82222223px;font-family:sans-serif;-inkscape-font-specification:'sans-serif, Normal';font-variant-ligatures:normal;font-variant-caps:normal;font-variant-numeric:normal;font-feature-settings:normal;text-align:start;writing-mode:lr-tb;text-anchor:start;stroke-width:0.32414466"
         id="path1703"
         inkscape:connector-curvature="0" />
      <path
         d="m 12.573593,293.47296 q 0.146429,-0.29017 0.323577,-0.4297 0.177142,-0.13952 0.398301,-0.14255 0.297703,-0.004 0.430487,0.28016 0.133018,0.28182 0.08005,0.80785 l -0.158451,1.57347 -0.31472,0.004 0.157034,-1.55952 q 0.03773,-0.37473 -0.04095,-0.55501 -0.0787,-0.18025 -0.277725,-0.17759 -0.243267,0.003 -0.406724,0.22624 -0.163461,0.22302 -0.201896,0.60475 l -0.148392,1.47339 -0.314718,0.004 0.157034,-1.55952 q 0.03797,-0.37707 -0.04095,-0.55501 -0.0787,-0.18024 -0.281128,-0.17754 -0.239862,0.003 -0.403556,0.22853 -0.163461,0.22302 -0.201663,0.60242 l -0.148389,1.47337 -0.314713,0.004 0.262474,-2.60694 0.314717,-0.004 -0.04078,0.40498 q 0.131314,-0.24114 0.292496,-0.35722 0.161174,-0.11593 0.36702,-0.11873 0.207543,-0.003 0.337617,0.13953 0.131784,0.14223 0.173866,0.41607 z"
         style="font-style:normal;font-variant:normal;font-weight:normal;font-stretch:normal;font-size:2.82222223px;font-family:sans-serif;-inkscape-font-specification:'sans-serif, Normal';font-variant-ligatures:normal;font-variant-caps:normal;font-variant-numeric:normal;font-feature-settings:normal;text-align:start;writing-mode:lr-tb;text-anchor:start;stroke-width:0.38180155"
         id="path1705"
         inkscape:connector-curvature="0" />
      <path
         d="m 14.194053,294.39558 -0.116432,1.14614 -0.273689,0.004 0.303039,-2.98303 0.273689,-0.004 -0.03332,0.32801 q 0.105411,-0.19423 0.245004,-0.2888 0.141267,-0.0965 0.323234,-0.0992 0.301797,-0.005 0.457926,0.30525 0.157609,0.30975 0.10586,0.81916 -0.05175,0.50939 -0.272866,0.8248 -0.219637,0.31539 -0.521434,0.31991 -0.181967,0.003 -0.304231,-0.0879 -0.120586,-0.0926 -0.186786,-0.28427 z m 1.002747,-0.76829 q 0.03979,-0.39171 -0.06194,-0.61174 -0.100053,-0.22198 -0.316046,-0.21875 -0.215991,0.003 -0.362999,0.22891 -0.145331,0.22373 -0.185124,0.61543 -0.03979,0.3917 0.06026,0.61368 0.101729,0.22003 0.317721,0.2168 0.215993,-0.003 0.361324,-0.22696 0.147007,-0.22568 0.186798,-0.61737 z"
         style="font-style:normal;font-variant:normal;font-weight:normal;font-stretch:normal;font-size:2.82222223px;font-family:sans-serif;-inkscape-font-specification:'sans-serif, Normal';font-variant-ligatures:normal;font-variant-caps:normal;font-variant-numeric:normal;font-feature-settings:normal;text-align:start;writing-mode:lr-tb;text-anchor:start;stroke-width:0.32414466"
         id="path1707"
         inkscape:connector-curvature="0" />
      <path
         d="m 15.817295,294.59929 0.133589,-1.31662 0.279679,-0.0948 -0.13221,1.30302 q -0.03133,0.30876 0.04714,0.43231 0.07867,0.12157 0.267104,0.0581 0.226411,-0.0761 0.375861,-0.305 0.150937,-0.22909 0.183252,-0.54758 l 0.125112,-1.23308 0.27968,-0.0948 -0.220678,2.17493 -0.279678,0.0948 0.03389,-0.33401 q -0.121926,0.23241 -0.26703,0.37515 -0.143377,0.14014 -0.321206,0.2003 -0.293335,0.0992 -0.421647,-0.0827 -0.128329,-0.18177 -0.08282,-0.63032 z"
         style="font-style:normal;font-variant:normal;font-weight:normal;font-stretch:normal;font-size:2.82222223px;font-family:sans-serif;-inkscape-font-specification:'sans-serif, Normal';font-variant-ligatures:normal;font-variant-caps:normal;font-variant-numeric:normal;font-feature-settings:normal;text-align:start;writing-mode:lr-tb;text-anchor:start;stroke-width:0.32414466"
         id="path1709"
         inkscape:connector-curvature="0" />
      <path
         d="m 18.344702,293.59556 v 0.43822 h 0.522277 v 0.19706 h -0.522277 v 0.83784 q 0,0.18879 0.05099,0.24254 0.05237,0.0537 0.21084,0.0537 h 0.260449 v 0.21222 H 18.60653 q -0.293522,0 -0.405144,-0.10887 -0.111621,-0.11024 -0.111621,-0.39963 V 294.2308 H 17.90373 v -0.19706 h 0.186035 v -0.43822 z"
         style="font-style:normal;font-variant:normal;font-weight:normal;font-stretch:normal;font-size:2.82222223px;font-family:sans-serif;-inkscape-font-specification:'sans-serif, Normal';font-variant-ligatures:normal;font-variant-caps:normal;font-variant-numeric:normal;font-feature-settings:normal;text-align:start;writing-mode:lr-tb;text-anchor:start;stroke-width:0.26458332"
         id="path1711"
         inkscape:connector-curvature="0" />
      <path
         d="m 20.508346,294.20141 2.1e-5,0.12482 -1.158332,0.29657 q 0.01648,0.25929 0.156153,0.36223 0.141049,0.1012 0.391609,0.037 0.145134,-0.0376 0.280676,-0.10793 0.136913,-0.0711 0.271081,-0.17758 l 4e-5,0.24133 q -0.135541,0.093 -0.277931,0.15998 -0.14239,0.0669 -0.288893,0.10441 -0.366941,0.094 -0.581938,-0.0673 -0.213628,-0.16169 -0.213688,-0.53061 -6.1e-5,-0.38138 0.202543,-0.65655 0.203972,-0.2769 0.549007,-0.36523 0.309435,-0.0789 0.488832,0.0774 0.180765,0.15485 0.18082,0.50156 z m -0.251942,-0.0103 q -0.0028,-0.2087 -0.116435,-0.30445 -0.112293,-0.0961 -0.298502,-0.0484 -0.210854,0.0537 -0.338169,0.20723 -0.125945,0.15291 -0.145079,0.37694 z"
         style="font-style:normal;font-variant:normal;font-weight:normal;font-stretch:normal;font-size:2.82222223px;font-family:sans-serif;-inkscape-font-specification:'sans-serif, Normal';font-variant-ligatures:normal;font-variant-caps:normal;font-variant-numeric:normal;font-feature-settings:normal;text-align:start;writing-mode:lr-tb;text-anchor:start;stroke-width:0.26458332"
         id="path1713"
         inkscape:connector-curvature="0" />
      <path
         d="m 21.832517,294.2708 q -0.04272,-0.0248 -0.09371,-0.0358 -0.04961,-0.0124 -0.110243,-0.0124 -0.214974,0 -0.330729,0.14056 -0.114377,0.13918 -0.114377,0.40101 v 0.81304 h -0.254937 v -1.5434 h 0.254937 v 0.23977 q 0.07993,-0.14056 0.208084,-0.20808 0.128157,-0.0689 0.311436,-0.0689 0.02618,0 0.05788,0.004 0.03169,0.003 0.07028,0.01 z"
         style="font-style:normal;font-variant:normal;font-weight:normal;font-stretch:normal;font-size:2.82222223px;font-family:sans-serif;-inkscape-font-specification:'sans-serif, Normal';font-variant-ligatures:normal;font-variant-caps:normal;font-variant-numeric:normal;font-feature-settings:normal;text-align:start;writing-mode:lr-tb;text-anchor:start;stroke-width:0.26458332"
         id="path1715"
         inkscape:connector-curvature="0" />
      <path
         d="m 21.917438,292.35903 -0.03488,0.23723 q -0.09833,-0.0702 -0.208837,-0.11429 -0.110508,-0.0442 -0.233212,-0.0622 -0.186783,-0.0275 -0.289279,0.016 -0.101136,0.0437 -0.117973,0.15816 -0.01283,0.0873 0.04655,0.14753 0.05959,0.0589 0.254751,0.13358 l 0.08309,0.0317 q 0.258799,0.0966 0.355164,0.21797 0.09793,0.12025 0.07046,0.30705 -0.03127,0.21268 -0.218575,0.31189 -0.185938,0.0994 -0.480428,0.0561 -0.122703,-0.018 -0.252707,-0.0622 -0.128844,-0.0426 -0.269062,-0.11204 l 0.03809,-0.25904 q 0.128445,0.0927 0.258001,0.14937 0.129765,0.0553 0.262013,0.0747 0.17724,0.0261 0.281492,-0.0199 0.104454,-0.0473 0.120693,-0.15775 0.01504,-0.10226 -0.04648,-0.16702 -0.06015,-0.0645 -0.285871,-0.14928 l -0.08424,-0.0333 q -0.225922,-0.0833 -0.314703,-0.19949 -0.08858,-0.11748 -0.06252,-0.29473 0.03167,-0.21541 0.201614,-0.31021 0.169938,-0.0948 0.450794,-0.0535 0.139065,0.0204 0.258757,0.059 0.119693,0.0385 0.217301,0.0946 z"
         style="font-style:normal;font-variant:normal;font-weight:normal;font-stretch:normal;font-size:2.82222223px;font-family:sans-serif;-inkscape-font-specification:'sans-serif, Normal';font-variant-ligatures:normal;font-variant-caps:normal;font-variant-numeric:normal;font-feature-settings:normal;text-align:start;writing-mode:lr-tb;text-anchor:start;stroke-width:0.26458332"
         id="path1717"
         inkscape:connector-curvature="0" />
      <path
         d="m 23.75281,292.59831 c -0.08645,0.15984 -0.310959,-0.0317 -0.546114,0.002 -0.163883,0.0136 -0.286821,0.0763 -0.368812,0.1882 -0.08207,0.11097 -0.115323,0.2603 -0.09977,0.44799 0.01555,0.18768 0.07297,0.32995 0.172262,0.42682 0.09921,0.096 0.230762,0.13713 0.394645,0.12355 0.07324,-0.006 0.144777,-0.0216 0.2146,-0.0468 0.07066,-0.0261 0.140065,-0.0618 0.208213,-0.10716 l 0.01935,0.23346 c -0.06777,0.0388 -0.138962,0.0696 -0.213589,0.0923 -0.07371,0.0227 -0.153138,0.0376 -0.238284,0.0446 -0.231635,0.0192 -0.421693,-0.0383 -0.570174,-0.17261 -0.14848,-0.13426 -0.232962,-0.32499 -0.253446,-0.57219 -0.02079,-0.25087 0.03153,-0.45386 0.15695,-0.60898 0.126338,-0.1552 0.309444,-0.24274 0.549319,-0.26262 0.07782,-0.007 0.154496,-0.005 0.230021,0.006 0.07545,0.009 0.411602,0.13108 0.483843,0.15738 z"
         style="font-style:normal;font-variant:normal;font-weight:normal;font-stretch:normal;font-size:2.82222223px;font-family:sans-serif;-inkscape-font-specification:'sans-serif, Normal';font-variant-ligatures:normal;font-variant-caps:normal;font-variant-numeric:normal;font-feature-settings:normal;text-align:start;writing-mode:lr-tb;text-anchor:start;stroke-width:0.26458332"
         id="path1719"
         inkscape:connector-curvature="0"
         sodipodi:nodetypes="cccccccccccccccccc" />
      <path
         d="m 25.018614,294.15331 c -0.322925,0.0369 -0.560556,0.10695 -0.712911,0.21046 -0.152364,0.1035 -0.26206,0.2629 -0.329076,0.4781 -0.05348,0.17155 -0.04966,0.30279 0.01143,0.39373 0.06308,0.089 0.174996,0.12418 0.335714,0.10598 0.221572,-0.0253 0.428408,-0.14007 0.620489,-0.34422 0.194095,-0.20613 0.340205,-0.46672 0.438328,-0.78176 l 0.03345,-0.1076 z m 0.859326,-0.29042 -0.5225,1.67759 -0.399634,0.0454 0.138993,-0.4463 c -0.146847,0.18892 -0.301683,0.33404 -0.46451,0.43533 -0.162271,0.0995 -0.341892,0.16049 -0.538852,0.18299 -0.249106,0.0285 -0.421324,-0.033 -0.516673,-0.18416 -0.09338,-0.15309 -0.09591,-0.37142 -0.0076,-0.65497 0.103022,-0.33078 0.27193,-0.59058 0.506724,-0.7794 0.236244,-0.18899 0.536104,-0.30422 0.89958,-0.34567 l 0.560447,-0.064 0.01464,-0.0471 c 0.06923,-0.22228 0.06183,-0.38687 -0.02219,-0.49376 -0.08203,-0.1088 -0.23238,-0.15075 -0.451042,-0.12579 -0.139039,0.0161 -0.280695,0.0515 -0.425026,0.10674 -0.144306,0.0553 -0.247216,0.029 -0.393955,0.12347 l 0.09638,-0.34521 c 0.167501,-0.0848 0.325212,-0.15172 0.473149,-0.20074 0.148467,-0.0507 0.287872,-0.0834 0.418243,-0.0984 0.351917,-0.0402 0.580402,0.0401 0.685466,0.24088 0.105088,0.20071 0.08785,0.5251 -0.0517,0.97315 z"
         style="font-style:normal;font-variant:normal;font-weight:normal;font-stretch:normal;font-size:2.82222223px;font-family:sans-serif;-inkscape-font-specification:'sans-serif, Normal';font-variant-ligatures:normal;font-variant-caps:normal;font-variant-numeric:normal;font-feature-settings:normal;text-align:start;writing-mode:lr-tb;text-anchor:start;stroke-width:0.45028558"
         id="path1721"
         inkscape:connector-curvature="0"
         sodipodi:nodetypes="ccccccccccccccccccccccccccccccc" />
      <path
         d="m 27.811045,294.03187 q -0.04765,-0.0359 -0.114148,-0.0521 -0.06379,-0.0182 -0.149723,-0.0183 -0.304614,-6.2e-4 -0.541819,0.20246 -0.234523,0.20105 -0.370837,0.57993 l -0.423324,1.17649 -0.361236,-7.4e-4 0.803473,-2.23334 0.361237,7.5e-4 -0.124848,0.34694 q 0.186434,-0.20316 0.403183,-0.30051 0.217505,-0.0995 0.47719,-0.0989 0.0371,8e-5 0.07992,0.006 0.04318,0.005 0.09438,0.0146 z"
         style="font-style:normal;font-variant:normal;font-weight:normal;font-stretch:normal;font-size:2.82222223px;font-family:sans-serif;-inkscape-font-specification:'sans-serif, Normal';font-variant-ligatures:normal;font-variant-caps:normal;font-variant-numeric:normal;font-feature-settings:normal;text-align:start;writing-mode:lr-tb;text-anchor:start;stroke-width:0.37900135"
         id="path1723"
         inkscape:connector-curvature="0" />
      <path
         d="m 29.712571,294.7854 -0.06094,0.16877 -1.603439,0.13193 c -0.07023,0.23754 -0.110719,0.28611 -0.02315,0.41121 0.08941,0.12391 0.253311,0.18583 0.491653,0.18595 0.138059,6e-5 0.277401,-0.016 0.418108,-0.0485 0.14201,-0.0325 0.508333,-0.14208 0.659478,-0.20707 l -0.117939,0.32633 c -0.147934,0.0525 -0.514377,0.15339 -0.659762,0.18081 -0.145379,0.0275 -0.287764,0.0411 -0.427099,0.041 -0.349049,-1.8e-4 -0.590562,-0.0978 -0.724584,-0.29298 -0.132697,-0.19514 -0.138963,-0.459 -0.01879,-0.79157 0.12432,-0.34382 0.319099,-0.61634 0.584612,-0.81755 0.267249,-0.20244 0.56498,-0.30358 0.893191,-0.30341 0.29435,1.4e-4 0.493835,0.0916 0.598514,0.27415 0.106411,0.18138 0.103144,0.42835 -0.0098,0.74092 z m -0.322894,-0.1014 c 0.06552,-0.18878 0.06466,-0.33947 -0.0028,-0.45204 -0.06612,-0.1126 -0.187772,-0.16891 -0.364898,-0.16901 -0.200575,-10e-5 -0.381115,0.0543 -0.541512,0.16293 -0.159132,0.1087 -0.116464,0.24257 -0.206093,0.4401 z"
         style="font-style:normal;font-variant:normal;font-weight:normal;font-stretch:normal;font-size:2.82222223px;font-family:sans-serif;-inkscape-font-specification:'sans-serif, Normal';font-variant-ligatures:normal;font-variant-caps:normal;font-variant-numeric:normal;font-feature-settings:normal;text-align:start;writing-mode:lr-tb;text-anchor:start;stroke-width:0.36754596"
         id="path1725"
         inkscape:connector-curvature="0"
         sodipodi:nodetypes="ccccscccsscscscccccsccc" />
    </g>
    <g
       id="g9547"
       transform="matrix(0.23127322,-0.07546583,0.02054862,0.22663881,-2.7040876,289.7923)">
      <g
         style="display:inline"
         inkscape:label="Layer 1"
         id="layer4" />
      <path
         id="rect5872"
         d="m 11.987289,9.3234482 h 7.991524 v 3.9957608 h -7.991524 z"
         style="opacity:1;fill:#0f0f00;fill-opacity:1;stroke:#000000;stroke-width:0;stroke-miterlimit:4;stroke-dasharray:none;stroke-opacity:1"
         inkscape:connector-curvature="0" />
      <path
         id="rect5874"
         d="m 14.667374,10.662096 h 3.995763 v 1.331921 h -3.995763 z"
         style="opacity:1;fill:#ffffff;fill-opacity:0.985714;stroke:#000000;stroke-width:0;stroke-miterlimit:4;stroke-dasharray:none;stroke-opacity:1"
         inkscape:connector-curvature="0" />
      <path
         id="rect5878"
         d="m -29.323654,9.3234482 h 7.989551 v 3.9957608 h -7.989551 z"
         style="opacity:1;fill:#0c0c00;fill-opacity:1;stroke:#000000;stroke-width:0;stroke-miterlimit:4;stroke-dasharray:none;stroke-opacity:1"
         transform="scale(-1,1)"
         inkscape:connector-curvature="0" />
      <path
         id="rect5880"
         d="m 26.64423,10.662096 -3.171232,0.209056 v 1.331921 l 3.171232,-0.209056 z"
         style="opacity:1;fill:#ffffff;fill-opacity:0.985714;stroke:#000000;stroke-width:0;stroke-miterlimit:4;stroke-dasharray:none;stroke-opacity:1"
         inkscape:connector-curvature="0" />
      <path
         id="rect5882"
         d="m 19.995058,14.667374 h 1.331921 v 3.995762 h -1.331921 z"
         style="opacity:1;fill:#000000;fill-opacity:1;stroke:#000000;stroke-width:0;stroke-miterlimit:4;stroke-dasharray:none;stroke-opacity:1"
         inkscape:connector-curvature="0" />
      <path
         id="rect5884"
         d="m 20.888507,17.21991 2.579094,0.32072 v 1.33192 l -2.579094,-0.32072 z"
         style="opacity:1;fill:#000000;fill-opacity:1;stroke:#000000;stroke-width:0;stroke-miterlimit:4;stroke-dasharray:none;stroke-opacity:1"
         inkscape:connector-curvature="0" />
      <path
         id="rect5886"
         d="m 11.954803,20.011301 h 2.696328 v 2.663842 h -2.696328 z"
         style="opacity:1;fill:#000200;fill-opacity:1;stroke:#000000;stroke-width:0;stroke-miterlimit:4;stroke-dasharray:none;stroke-opacity:1"
         inkscape:connector-curvature="0" />
      <path
         id="rect5888"
         d="m 27.970341,20.011301 h 2.696327 v 2.663842 h -2.696327 z"
         style="opacity:1;fill:#000200;fill-opacity:1;stroke:#000000;stroke-width:0;stroke-miterlimit:4;stroke-dasharray:none;stroke-opacity:1"
         inkscape:connector-curvature="0" />
      <path
         id="rect5890"
         d="m 14.651131,20.011301 h 13.351695 v 1.33192 H 14.651131 Z"
         style="opacity:1;fill:#000200;fill-opacity:1;stroke:#000000;stroke-width:0;stroke-miterlimit:4;stroke-dasharray:none;stroke-opacity:1"
         inkscape:connector-curvature="0" />
    </g>
    <path
       style="fill:#272727;fill-opacity:1;stroke:#666666;stroke-width:0.26300001;stroke-linecap:round;stroke-linejoin:round;stroke-miterlimit:4;stroke-dasharray:none;stroke-opacity:1;paint-order:stroke fill markers"
       d="M 0.56126595,197.843 H 15.154181 v 16.83798 H 0.56126595 Z"
       id="rect1087" />
    <g
       aria-label="goly penerator"
       style="font-style:normal;font-weight:normal;font-size:10.58333302px;line-height:1.25;font-family:sans-serif;letter-spacing:0px;word-spacing:0px;fill:#fcfcfc;fill-opacity:1;stroke:none;stroke-width:0.26458332"
       id="text1092"
       transform="matrix(0.41379048,0,0,0.48986175,-12.489446,90.192177)">
      <path
         d="m 39.452651,225.91079 q 0,-1.78757 -0.734371,-2.77072 -0.725524,-0.98315 -2.043854,-0.98315 -1.309482,0 -2.043853,0.98315 -0.725524,0.98315 -0.725524,2.77072 0,1.77862 0.725524,2.76177 0.734371,0.98316 2.043853,0.98316 1.31833,0 2.043854,-0.98316 0.734371,-0.98315 0.734371,-2.76177 z m 1.628006,3.879 q 0,2.55622 -1.123677,3.79858 -1.123679,1.25129 -3.441814,1.25129 -0.858243,0 -1.619158,-0.13404 -0.760914,-0.12506 -1.477589,-0.39326 v -1.59987 q 0.716675,0.39328 1.415655,0.58097 0.698979,0.18769 1.424503,0.18769 1.601462,0 2.397768,-0.8491 0.796306,-0.84015 0.796306,-2.54727 v -0.81333 q -0.504326,0.88483 -1.291786,1.32279 -0.787458,0.43794 -1.884592,0.43794 -1.822657,0 -2.937486,-1.40323 -1.114829,-1.40324 -1.114829,-3.71812 0,-2.32382 1.114829,-3.72706 1.114829,-1.40323 2.937486,-1.40323 1.097134,0 1.884592,0.43794 0.78746,0.43795 1.291786,1.32279 v -1.51942 h 1.628006 z"
         style="fill:#fcfcfc;fill-opacity:1;stroke-width:0.45530674"
         id="path1096"
         inkscape:connector-curvature="0" />
      <path
         d="m 47.71447,222.71492 q -1.309481,0 -2.070396,1.03677 -0.760914,1.02785 -0.760914,2.82436 0,1.7965 0.752066,2.83327 0.760916,1.02785 2.079244,1.02785 1.300635,0 2.06155,-1.03679 0.760916,-1.03677 0.760916,-2.82433 0,-1.77863 -0.760916,-2.81542 -0.760915,-1.04571 -2.06155,-1.04571 z m 0,-1.3943 q 2.123485,0 3.335641,1.3943 1.212156,1.39429 1.212156,3.86113 0,2.45789 -1.212156,3.86112 -1.212156,1.39429 -3.335641,1.39429 -2.132331,0 -3.344487,-1.39429 -1.203306,-1.40323 -1.203306,-3.86112 0,-2.46684 1.203306,-3.86113 1.212156,-1.3943 3.344487,-1.3943 z"
         style="stroke-width:0.45530674;fill:#fcfcfc;fill-opacity:1"
         id="path1098"
         inkscape:connector-curvature="0" />
      <path
         d="m 53.193626,217.73257 h 1.628004 v 13.90721 h -1.628004 z"
         style="fill:#fcfcfc;fill-opacity:1;stroke-width:0.45530674"
         id="path1100"
         inkscape:connector-curvature="0" />
      <path
         d="m 62.342303,232.56932 q -0.690133,1.78756 -1.344873,2.33275 -0.654741,0.54522 -1.751875,0.54522 h -1.300634 v -1.37643 h 0.955569 q 0.672436,0 1.044045,-0.32175 0.37161,-0.32177 0.822851,-1.51943 l 0.291979,-0.75079 -4.008076,-9.84944 h 1.725331 l 3.096747,7.82952 3.096747,-7.82952 h 1.725332 z"
         style="fill:#fcfcfc;fill-opacity:1;stroke-width:0.45530674"
         id="path1102"
         inkscape:connector-curvature="0" />
      <path
         d="m 34.049678,246.82094 -0.801115,6.29014 h -0.756401 l 2.085054,-16.37128 h 0.756402 l -0.229275,1.8002 c 0.248007,-0.70597 0.513522,-1.22838 0.796547,-1.56723 0.286651,-0.34593 0.597611,-0.5189 0.932881,-0.5189 0.556058,0 0.934345,0.57184 1.134859,1.71551 0.203242,1.14365 0.18618,2.64736 -0.05118,4.51111 -0.237364,1.86373 -0.603324,3.36743 -1.09788,4.51109 -0.49183,1.14366 -1.015775,1.71549 -1.571831,1.71549 -0.335271,0 -0.602623,-0.16943 -0.802059,-0.50829 -0.195812,-0.34592 -0.327808,-0.87186 -0.395989,-1.57784 z m 3.086827,-4.14045 c 0.182523,-1.43312 0.210998,-2.5556 0.08542,-3.36744 -0.121935,-0.81892 -0.381892,-1.22839 -0.779854,-1.22839 -0.397964,0 -0.763576,0.40947 -1.096838,1.22839 -0.329636,0.81184 -0.585716,1.93432 -0.768239,3.36744 -0.18252,1.4331 -0.212809,2.55911 -0.09086,3.37801 0.125572,0.81187 0.387329,1.2178 0.785291,1.2178 0.397963,0 0.761763,-0.40593 1.091401,-1.2178 0.333262,-0.8189 0.591153,-1.94491 0.773672,-3.37801 z"
         style="fill:#fcfcfc;fill-opacity:1;stroke-width:0.3368969"
         id="path1104"
         inkscape:connector-curvature="0"
         sodipodi:nodetypes="cccccccscscscccccscscsccc" />
      <path
         d="m 42.102058,243.51561 -0.161148,1.05537 -2.716984,-0.12041 c -0.201115,1.4865 -0.252165,2.62547 -0.153145,3.4169 0.102346,0.78373 0.349425,1.18428 0.741236,1.20164 0.226951,0.0101 0.461927,-0.0819 0.704929,-0.27573 0.245141,-0.19377 0.503659,-0.48926 0.775555,-0.88649 l -0.311562,2.04042 c -0.262098,0.31894 -0.517613,0.55948 -0.766545,0.7216 -0.24893,0.16212 -0.48794,0.2381 -0.717031,0.22795 -0.5738,-0.0254 -0.935663,-0.65536 -1.085588,-1.8898 -0.147782,-1.23436 -0.06291,-2.89129 0.25462,-4.97078 0.328274,-2.14986 0.746943,-3.84708 1.256007,-5.09167 0.512399,-1.25233 1.038371,-1.86655 1.577914,-1.84264 0.483876,0.0214 0.778909,0.60908 0.885102,1.76289 0.109528,1.14608 0.01508,2.69633 -0.283341,4.65075 z m -0.494234,-0.65943 c 0.175958,-1.18065 0.228809,-2.12672 0.158549,-2.83818 -0.06813,-0.71137 -0.247787,-1.0735 -0.53897,-1.0864 -0.32972,-0.0146 -0.646066,0.31374 -0.949038,0.98505 -0.300829,0.6714 -0.560535,1.62403 -0.779119,2.8579 z"
         style="fill:#fcfcfc;fill-opacity:1;stroke-width:0.31526539"
         id="path1106"
         inkscape:connector-curvature="0"
         sodipodi:nodetypes="ccccsccccscscscccccsccc" />
      <path
         d="m 46.109588,242.25015 -0.717114,8.31906 h -0.59174 l 0.710747,-8.24521 c 0.112449,-1.30449 0.130142,-2.28079 0.05308,-2.92891 -0.07706,-0.64815 -0.248512,-0.97222 -0.514367,-0.97222 -0.319454,0 -0.604965,0.38971 -0.856534,1.16912 -0.251569,0.77941 -0.435345,1.84185 -0.551327,3.18732 l -0.671499,7.7899 H 42.375883 L 43.564,236.78616 h 0.594956 l -0.184583,2.1413 c 0.212932,-0.82863 0.432486,-1.44805 0.658663,-1.85828 0.22832,-0.41021 0.467903,-0.61531 0.718749,-0.61531 0.41379,0 0.684379,0.49226 0.811767,1.47677 0.128097,0.9763 0.110107,2.41614 -0.05397,4.31951 z"
         style="fill:#fcfcfc;fill-opacity:1;stroke-width:0.32209978"
         id="path1108"
         inkscape:connector-curvature="0"
         sodipodi:nodetypes="cccscscsccccccsccc" />
      <path
         d="m 50.302937,243.1116 -0.09547,1.10755 h -2.72072 c -0.108641,1.55881 -0.08898,2.74841 0.05899,3.56882 0.150814,0.81223 0.422396,1.21835 0.814746,1.21835 0.227263,0 0.456217,-0.10666 0.68686,-0.31999 0.232786,-0.21331 0.472622,-0.53327 0.719507,-0.95989 l -0.184583,2.1413 c -0.241956,0.34457 -0.482201,0.60711 -0.720736,0.78761 -0.238533,0.18049 -0.472503,0.27073 -0.70191,0.27073 -0.574589,0 -0.975024,-0.63992 -1.201306,-1.91976 -0.224137,-1.27986 -0.242147,-3.01095 -0.05403,-5.19327 0.194483,-2.25615 0.507311,-4.04467 0.938484,-5.36554 0.434023,-1.32909 0.921177,-1.99364 1.461462,-1.99364 0.484541,0 0.815616,0.59891 0.993224,1.79673 0.180461,1.18961 0.182294,2.80995 0.0055,4.861 z m -0.534454,-0.66455 c 0.102489,-1.23884 0.09659,-2.22745 -0.0177,-2.96583 -0.112158,-0.73837 -0.314028,-1.10756 -0.605611,-1.10756 -0.330175,0 -0.625721,0.35688 -0.88664,1.07065 -0.258773,0.71376 -0.459038,1.71878 -0.600793,3.01505 z"
         style="fill:#fcfcfc;fill-opacity:1;stroke-width:0.32209978"
         id="path1110"
         inkscape:connector-curvature="0"
         sodipodi:nodetypes="ccccsccccscscscccccsccc" />
      <path
         d="m 53.724139,238.90282 c -0.05374,-0.14764 -0.117442,-0.25429 -0.191107,-0.31996 -0.07081,-0.0739 -0.153388,-0.11083 -0.247724,-0.11083 -0.334461,0 -0.627807,0.4184 -0.880036,1.2552 -0.249381,0.82865 -0.441256,2.02237 -0.575625,3.58115 l -0.625885,7.26073 h -0.594958 l 1.188118,-13.78305 h 0.594957 l -0.184582,2.14129 c 0.196487,-0.83683 0.411754,-1.45626 0.645799,-1.85827 0.23475,-0.4102 0.4947,-0.6153 0.779851,-0.6153 0.04074,0 0.0847,0.0123 0.131887,0.0369 0.0479,0.0164 0.100094,0.0451 0.156581,0.0862 z"
         style="fill:#fcfcfc;fill-opacity:1;stroke-width:0.32209978"
         id="path1112"
         inkscape:connector-curvature="0"
         sodipodi:nodetypes="ccscsccccccsccc" />
      <path
         d="m 55.579774,243.64077 c -0.47811,0 -0.827391,0.20921 -1.047843,0.62763 -0.220448,0.41839 -0.374166,1.13215 -0.461153,2.14127 -0.06931,0.80401 -0.05586,1.44394 0.04033,1.91979 0.09905,0.46763 0.267565,0.70145 0.505548,0.70145 0.32803,0 0.628858,-0.44303 0.902485,-1.32908 0.276477,-0.89426 0.478364,-2.07976 0.605661,-3.55651 l 0.04349,-0.50455 z m 1.260891,-0.93531 -0.677866,7.86375 h -0.591741 l 0.18034,-2.09208 c -0.207207,0.83683 -0.428905,1.45625 -0.665094,1.85825 -0.235481,0.3938 -0.499012,0.5907 -0.790594,0.5907 -0.368766,0 -0.628546,-0.3938 -0.779341,-1.1814 -0.147942,-0.79581 -0.164629,-1.85825 -0.05006,-3.18732 0.133663,-1.5506 0.369513,-2.7197 0.707548,-3.50731 0.340179,-0.78761 0.779339,-1.18141 1.31748,-1.18141 h 0.829724 l 0.01909,-0.22147 c 0.08982,-1.04193 0.06908,-1.84595 -0.06222,-2.41204 -0.128445,-0.57431 -0.354539,-0.86146 -0.678281,-0.86146 -0.205823,0 -0.414418,0.0943 -0.625787,0.28305 -0.21137,0.18871 -0.423368,0.47176 -0.635995,0.84915 l 0.180339,-2.09207 c 0.244124,-0.31996 0.474744,-0.55789 0.691861,-0.71378 0.217822,-0.16407 0.423213,-0.24611 0.616172,-0.24611 0.520989,0 0.865569,0.51686 1.033738,1.55059 0.168169,1.03373 0.161733,2.60073 -0.01931,4.701 z"
         style="fill:#fcfcfc;fill-opacity:1;stroke-width:0.32209978"
         id="path1114"
         inkscape:connector-curvature="0"
         sodipodi:nodetypes="scscscccscccccscccscccsccccsscc" />
      <path
         d="m 58.296736,232.40016 0.861561,4.386 h 1.218857 l -0.151697,1.75979 H 59.0066 l -0.644979,7.48224 c -0.09689,1.12398 -0.119458,1.84594 -0.06771,2.16588 0.05389,0.31997 0.204118,0.47995 0.450673,0.47995 h 0.60782 l -0.163368,1.89519 h -0.60782 c -0.456669,0 -0.743901,-0.32407 -0.861694,-0.97222 -0.117086,-0.65633 -0.101373,-1.84593 0.04714,-3.5688 l 0.644978,-7.48224 h -0.434156 l -0.40779,-1.8273 0.993644,0.0675 -1.341121,-4.31849 z"
         style="fill:#fcfcfc;fill-opacity:1;stroke-width:0.32209978"
         id="path1116"
         inkscape:connector-curvature="0"
         sodipodi:nodetypes="cccccscsccscscccccc" />
      <path
         d="m 62.104116,240.3112 q -0.538689,0 -0.851711,1.03678 -0.313022,1.02785 -0.313022,2.82436 0,1.79648 0.309382,2.83328 0.313023,1.02785 0.855351,1.02785 0.535051,0 0.848072,-1.0368 0.313023,-1.03679 0.313023,-2.82433 0,-1.77864 -0.313023,-2.81542 -0.313021,-1.04572 -0.848072,-1.04572 z m 0,-1.3943 q 0.873551,0 1.372203,1.3943 0.498652,1.3943 0.498652,3.86114 0,2.45789 -0.498652,3.86113 -0.498652,1.39428 -1.372203,1.39428 -0.87719,0 -1.375842,-1.39428 -0.495011,-1.40324 -0.495011,-3.86113 0,-2.46684 0.495011,-3.86114 0.498652,-1.3943 1.375842,-1.3943 z"
         style="stroke-width:0.29202741;fill:#fcfcfc;fill-opacity:1"
         id="path1118"
         inkscape:connector-curvature="0" />
      <path
         d="m 67.443695,240.69552 q -0.112833,-0.16085 -0.247505,-0.23238 -0.131034,-0.0805 -0.291184,-0.0805 -0.567808,0 -0.87355,0.91163 -0.302104,0.90274 -0.302104,2.60091 v 5.27331 H 65.05599 V 239.1582 h 0.673362 v 1.55517 q 0.211109,-0.91166 0.549609,-1.34962 0.338501,-0.44688 0.822594,-0.44688 0.06916,0 0.152871,0.0268 0.08372,0.0179 0.18563,0.0626 z"
         style="stroke-width:0.29202741;fill:#fcfcfc;fill-opacity:1"
         id="path1120"
         inkscape:connector-curvature="0" />
    </g>
    <path
       style="fill:#fcfcfc;fill-opacity:1;stroke:#464646;stroke-width:0.327203;stroke-linecap:round;stroke-linejoin:round;stroke-miterlimit:4;stroke-dasharray:none;stroke-opacity:1;paint-order:stroke fill markers"
       d="m 0.8595379,279.07411 14.5471951,0.0393 -0.300202,1.1823 -0.424279,11.10574 -13.82270645,-0.0393 z"
       id="rect1127"
       inkscape:connector-curvature="0"
       sodipodi:nodetypes="cccccc" />
    <g
       aria-label="scale"
       transform="scale(0.79744536,1.2540044)"
       id="text1023"
       style="font-style:normal;font-weight:normal;font-size:2.98674px;line-height:1.25;font-family:sans-serif;fill:#000000;fill-opacity:1;stroke:none;stroke-width:0.074669">
      <path
         d="m 10.367148,217.19757 q 0,0.2507 0.21228,0.41128 0.210608,0.16058 0.576666,0.16058 0.207266,0 0.381102,-0.0475 0.172163,-0.0492 0.289168,-0.10651 v -0.34573 h -0.01671 q -0.148763,0.10977 -0.330956,0.17532 -0.182192,0.0639 -0.349342,0.0639 -0.207265,0 -0.32427,-0.0655 -0.117005,-0.0655 -0.117005,-0.20646 0,-0.10808 0.06352,-0.16386 0.06352,-0.0557 0.244038,-0.095 0.06685,-0.0147 0.175508,-0.0344 0.10698,-0.0197 0.195565,-0.0426 0.245711,-0.0639 0.349342,-0.18679 0.101965,-0.12454 0.101965,-0.30478 0,-0.11305 -0.0468,-0.213 -0.04846,-0.1 -0.14542,-0.17862 -0.09361,-0.077 -0.237353,-0.12125 -0.145419,-0.0458 -0.324271,-0.0458 -0.167148,0 -0.337641,0.041 -0.172164,0.0393 -0.285825,0.0966 v 0.32935 h 0.01671 q 0.120348,-0.0868 0.292511,-0.14582 0.172165,-0.0607 0.337643,-0.0607 0.172165,0 0.290841,0.0655 0.118676,0.0639 0.118676,0.1917 0,0.11306 -0.07188,0.17041 -0.0702,0.0574 -0.227324,0.0934 -0.08691,0.0197 -0.193893,0.0393 -0.108643,0.0197 -0.180522,0.0361 -0.218966,0.0491 -0.337642,0.16877 -0.118677,0.12125 -0.118677,0.32115 z"
         style="stroke-width:0.0847338"
         id="path1059" />
      <path
         d="m 13.216187,217.5418 q -0.143483,0.0598 -0.2709,0.0911 -0.125965,0.0314 -0.264219,0.0257 -0.176092,-0.007 -0.317881,-0.0642 -0.141636,-0.0585 -0.23572,-0.16757 -0.09554,-0.10918 -0.137404,-0.27166 -0.04186,-0.16249 -0.02002,-0.37642 0.04072,-0.39875 0.282192,-0.61677 0.242932,-0.21794 0.602392,-0.2031 0.139708,0.006 0.269582,0.0506 0.131329,0.0449 0.23759,0.10632 l -0.03106,0.30416 -0.01455,-6.1e-4 q -0.115201,-0.10266 -0.243738,-0.1606 -0.127083,-0.0579 -0.253695,-0.0631 -0.232848,-0.01 -0.38424,0.14197 -0.149788,0.15019 -0.180696,0.45289 -0.03002,0.29397 0.08476,0.45802 0.116384,0.16263 0.355054,0.17249 0.08296,0.003 0.171047,-0.0149 0.08809,-0.0183 0.16006,-0.0504 0.06278,-0.0281 0.118599,-0.0594 0.05596,-0.0328 0.08905,-0.0563 l 0.01455,6e-4 z"
         style="stroke-width:0.074669"
         id="path1061" />
      <path
         d="m 14.909023,217.61816 h -0.272715 v -0.17354 q -0.03646,0.0248 -0.09917,0.07 -0.06125,0.0437 -0.119586,0.07 -0.06854,0.0335 -0.157504,0.0554 -0.08896,0.0233 -0.208547,0.0233 -0.220214,0 -0.373343,-0.14583 -0.153128,-0.14584 -0.153128,-0.37189 0,-0.18521 0.07875,-0.29896 0.08021,-0.11521 0.227506,-0.18084 0.148754,-0.0656 0.357301,-0.089 0.208546,-0.0233 0.447719,-0.035 v -0.0423 q 0,-0.0933 -0.03354,-0.15458 -0.03208,-0.0613 -0.09333,-0.0962 -0.05833,-0.0335 -0.140004,-0.0452 -0.08167,-0.0117 -0.170629,-0.0117 -0.107919,0 -0.240631,0.0292 -0.132711,0.0277 -0.274173,0.0817 h -0.01458 v -0.27855 q 0.08021,-0.0219 0.231881,-0.0481 0.15167,-0.0263 0.298965,-0.0263 0.172088,0 0.298966,0.0292 0.128337,0.0277 0.221672,0.0962 0.09188,0.0671 0.140004,0.17355 0.04813,0.10646 0.04813,0.26396 z m -0.272715,-0.40105 v -0.45355 q -0.12542,0.007 -0.296049,0.0219 -0.169171,0.0146 -0.26834,0.0423 -0.118128,0.0335 -0.191046,0.105 -0.07292,0.07 -0.07292,0.19396 0,0.14001 0.08459,0.21147 0.08458,0.07 0.258131,0.07 0.144378,0 0.263965,-0.0554 0.119586,-0.0569 0.221672,-0.13563 z"
         style="stroke-width:0.074669"
         id="path1063" />
      <path
         d="m 15.71696,217.61816 h -0.523015 v -2.26922 l 0.288405,0.0746 z"
         style="stroke-width:0.10313"
         id="path1065"
         sodipodi:nodetypes="ccccc" />
      <path
         d="m 17.625965,216.73055 h -1.200238 q 0,0.16874 0.04521,0.29486 0.04521,0.1245 0.123962,0.20477 0.07583,0.0786 0.179379,0.11794 0.105003,0.0393 0.230423,0.0393 0.166254,0 0.333966,-0.0737 0.169171,-0.0754 0.240631,-0.14743 h 0.01458 v 0.3358 q -0.138545,0.0655 -0.282924,0.10974 -0.144378,0.0443 -0.303341,0.0443 -0.405426,0 -0.632932,-0.24571 -0.227505,-0.24736 -0.227505,-0.70111 0,-0.44883 0.217297,-0.71257 0.218755,-0.26372 0.574597,-0.26372 0.329591,0 0.507512,0.21622 0.17938,0.21624 0.17938,0.61429 z m -0.266882,-0.23588 q -0.0015,-0.24243 -0.109377,-0.37512 -0.106461,-0.13269 -0.325217,-0.13269 -0.220213,0 -0.351467,0.1458 -0.129795,0.14578 -0.147295,0.36201 z"
         style="stroke-width:0.0791362"
         id="path1067" />
    </g>
    <g
       aria-label="offset"
       transform="matrix(0.79744536,0,0,1.2540044,0,-0.52916667)"
       id="text1040"
       style="font-style:normal;font-weight:normal;font-size:2.98674px;line-height:1.25;font-family:sans-serif;fill:#000000;fill-opacity:1;stroke:none;stroke-width:0.074669">
      <path
         d="m 2.2945782,215.80218 q 0,0.39814 -0.2041717,0.62856 -0.2041717,0.23042 -0.5468884,0.23042 -0.3456335,0 -0.54980521,-0.23042 -0.20271331,-0.23042 -0.20271331,-0.62856 0,-0.39813 0.20271331,-0.62856 0.20417171,-0.23188 0.54980521,-0.23188 0.3427167,0 0.5468884,0.23188 0.2041717,0.23043 0.2041717,0.62856 z m -0.2829236,0 q 0,-0.31646 -0.1239614,-0.46959 -0.1239614,-0.15459 -0.3441751,-0.15459 -0.2231305,0 -0.3470919,0.15459 -0.122503,0.15313 -0.122503,0.46959 0,0.30626 0.1239614,0.46522 0.1239614,0.15751 0.3456335,0.15751 0.2187554,0 0.3427167,-0.15605 0.1254198,-0.1575 0.1254198,-0.46668 z"
         style="stroke-width:0.074669"
         id="path1042" />
      <path
         d="m 3.5969019,214.61215 h -0.014584 q -0.045209,-0.0131 -0.1181279,-0.0263 -0.072918,-0.0146 -0.1283365,-0.0146 -0.1764627,0 -0.256673,0.0788 -0.078752,0.0773 -0.078752,0.28147 v 0.0554 H 3.494816 v 0.23043 H 3.0091791 v 1.39857 H 2.7350057 v -1.39857 H 2.5497928 v -0.23043 h 0.1852129 v -0.054 q 0,-0.29021 0.1443785,-0.4448 0.1443786,-0.15604 0.4170936,-0.15604 0.091877,0 0.1647957,0.009 0.074377,0.009 0.1356284,0.0204 z"
         style="stroke-width:0.074669"
         id="path1044" />
      <path
         d="M 4.6469277,214.64449 H 4.632344 q -0.045209,-0.0146 -0.1181279,-0.0293 -0.072918,-0.0163 -0.1283365,-0.0163 -0.1764627,0 -0.256673,0.0879 -0.078752,0.0862 -0.078752,0.31397 v 0.0618 h 0.4943872 v 0.25704 h -0.485637 v 1.56008 H 3.7850315 V 215.3196 H 3.5998186 v -0.25704 h 0.1852129 v -0.0602 q 0,-0.32373 0.1443786,-0.49617 0.1443785,-0.17406 0.4170935,-0.17406 0.091877,0 0.1647958,0.01 0.074377,0.01 0.1356283,0.0228 z"
         style="stroke-width:0.0788626"
         id="path1046" />
      <path
         d="m 5.9842521,216.14636 q 0,0.22313 -0.1852129,0.36605 -0.1837545,0.14292 -0.5031373,0.14292 -0.1808378,0 -0.3325082,-0.0423 -0.150212,-0.0438 -0.2522979,-0.0948 v -0.30772 h 0.014584 q 0.1297949,0.0977 0.2887571,0.15605 0.1589623,0.0569 0.3047992,0.0569 0.1808378,0 0.2829236,-0.0583 0.1020858,-0.0583 0.1020858,-0.18375 0,-0.0963 -0.055418,-0.14584 -0.055418,-0.0496 -0.2129219,-0.0846 -0.058335,-0.0131 -0.1531288,-0.0306 -0.093336,-0.0175 -0.1706291,-0.0379 -0.2143803,-0.0569 -0.3047992,-0.16625 -0.08896,-0.11084 -0.08896,-0.27126 0,-0.10063 0.040834,-0.18959 0.042293,-0.089 0.1268781,-0.15896 0.081669,-0.0685 0.2070885,-0.10792 0.1268781,-0.0408 0.2829236,-0.0408 0.1458369,0 0.2945906,0.0365 0.150212,0.035 0.2493811,0.086 v 0.29313 h -0.014584 q -0.1050026,-0.0773 -0.2552146,-0.12979 -0.150212,-0.054 -0.2945906,-0.054 -0.150212,0 -0.2537562,0.0583 -0.1035442,0.0569 -0.1035442,0.17063 0,0.10063 0.06271,0.15167 0.061252,0.0511 0.1983382,0.0831 0.075835,0.0175 0.1691709,0.035 0.094794,0.0175 0.1575038,0.0321 0.1910464,0.0438 0.2945906,0.15022 0.1035442,0.10792 0.1035442,0.28584 z"
         style="stroke-width:0.074669"
         id="path1048" />
      <path
         d="m 7.7415872,215.64527 -1.2002378,0.29969 q 0,0.15021 0.045209,0.25122 0.04521,0.0995 0.1239614,0.15134 0.075835,0.0511 0.1793794,0.0602 0.1050026,0.009 0.2304223,-0.0225 0.1662541,-0.0415 0.3339666,-0.14899 0.1691708,-0.10934 0.2406309,-0.19133 l 0.014584,-0.004 v 0.29896 q -0.1385451,0.0929 -0.2829236,0.16835 -0.1443786,0.0754 -0.3033408,0.11514 -0.4054267,0.10123 -0.6329322,-0.0607 -0.2275056,-0.1634 -0.2275056,-0.56737 0,-0.39959 0.217297,-0.68865 0.2187553,-0.28942 0.5745974,-0.37827 0.3295915,-0.0823 0.5075125,0.0658 0.1793794,0.14771 0.1793794,0.5021 z m -0.2668815,-0.14336 q -0.00146,-0.21548 -0.1093777,-0.30666 -0.106461,-0.0915 -0.3252164,-0.0369 -0.2202137,0.055 -0.3514669,0.21756 -0.1297949,0.1622 -0.1472953,0.35908 z"
         style="stroke-width:0.074669"
         id="path1050" />
      <path
         d="m 9.0030767,216.60137 q -0.077293,0.0204 -0.1691708,0.0335 -0.090419,0.0131 -0.161879,0.0131 -0.2493811,0 -0.379176,-0.13417 -0.1297948,-0.13417 -0.1297948,-0.43022 v -0.86627 H 7.9778432 v -0.23043 h 0.1852129 v -0.46813 h 0.2741734 v 0.46813 h 0.5658472 v 0.23043 H 8.4372295 v 0.74231 q 0,0.12833 0.00583,0.20125 0.00583,0.0715 0.040834,0.13417 0.032084,0.0583 0.087502,0.086 0.056876,0.0263 0.1720876,0.0263 0.067085,0 0.1400035,-0.0189 0.072918,-0.0204 0.1050025,-0.0336 h 0.014584 z"
         style="stroke-width:0.074669"
         id="path1052" />
    </g>
    <g
       aria-label="spread"
       transform="matrix(0.69156414,0,0,1.4459975,0.19843749,0.39687498)"
       id="text1072"
       style="font-style:normal;font-weight:normal;font-size:2.59017px;line-height:1.25;font-family:sans-serif;fill:#000000;fill-opacity:1;stroke:none;stroke-width:0.0647548">
      <path
         d="m 2.0229424,150.25746 q 0,0.1935 -0.1606209,0.31745 -0.1593562,0.12394 -0.4363323,0.12394 -0.1568267,0 -0.2883588,-0.0367 -0.1302673,-0.0379 -0.21879852,-0.0822 v -0.26686 h 0.0126473 q 0.11256112,0.0847 0.25041682,0.13532 0.1378557,0.0493 0.2643289,0.0493 0.1568267,0 0.2453579,-0.0506 0.088531,-0.0506 0.088531,-0.15936 0,-0.0835 -0.04806,-0.12647 -0.04806,-0.043 -0.1846508,-0.0734 -0.050589,-0.0114 -0.1327968,-0.0266 -0.080943,-0.0152 -0.1479736,-0.0329 -0.1859155,-0.0493 -0.2643288,-0.14418 -0.0771487,-0.0961 -0.0771487,-0.23524 0,-0.0873 0.0354125,-0.16441 0.0366772,-0.0772 0.11003161,-0.13786 0.070825,-0.0594 0.1795919,-0.0936 0.1100316,-0.0354 0.2453579,-0.0354 0.1264731,0 0.2554757,0.0316 0.1302674,0.0303 0.2162691,0.0746 v 0.25421 h -0.012647 q -0.091061,-0.067 -0.221328,-0.11256 -0.1302673,-0.0468 -0.2554757,-0.0468 -0.1302674,0 -0.2200633,0.0506 -0.089796,0.0493 -0.089796,0.14798 0,0.0873 0.054383,0.13153 0.053119,0.0443 0.1720035,0.0721 0.065766,0.0152 0.1467088,0.0303 0.082208,0.0152 0.136591,0.0278 0.1656798,0.0379 0.2554758,0.13026 0.089796,0.0936 0.089796,0.24789 z"
         style="stroke-width:0.0647548"
         id="path1074" />
      <path
         d="m 3.5655068,149.75744 q 0.02693,0.19317 1.204e-4,0.35566 -0.027007,0.16106 -0.1011077,0.27546 -0.068583,0.10846 -0.1739711,0.17131 -0.1043226,0.0614 -0.2304408,0.0665 -0.1097226,0.005 -0.2030241,-0.0189 -0.09204,-0.0234 -0.1920289,-0.0765 l 0.092672,0.66471 -0.2371015,0.0101 -0.3027793,-2.17177 0.237102,-0.0101 0.023168,0.16617 q 0.08211,-0.0934 0.1910875,-0.1577 0.1100335,-0.0659 0.2437187,-0.0713 0.2547585,-0.0101 0.4263085,0.2013 0.1726108,0.21011 0.2262751,0.59504 z m -0.2437296,0.0167 q -0.040001,-0.28691 -0.1468238,-0.42542 -0.1068234,-0.13851 -0.2871718,-0.13122 -0.1021555,0.005 -0.1986363,0.0581 -0.096481,0.054 -0.1797869,0.13869 l 0.125345,0.89906 q 0.1080184,0.047 0.1824891,0.0626 0.075716,0.0154 0.1677824,0.0117 0.1980053,-0.008 0.2879995,-0.16305 0.089993,-0.15505 0.048805,-0.45048 z"
         style="stroke-width:0.0687195"
         id="path1076" />
      <path
         d="m 4.8709809,149.30936 h -0.012808 q -0.053797,-0.0148 -0.1050311,-0.0207 -0.049953,-0.007 -0.1191205,-0.007 -0.1114354,0 -0.2151855,0.0576 -0.1037502,0.0562 -0.1998152,0.1464 v 1.17273 H 3.9782172 v -1.65187 H 4.21902 v 0.24401 q 0.143457,-0.1331 0.2523307,-0.18781 0.1101545,-0.0563 0.2241516,-0.0563 0.062763,0 0.090941,0.005 0.028179,0.004 0.084537,0.0133 z"
         style="stroke-width:0.0704672"
         id="path1078" />
      <path
         d="M 6.268646,149.98301 H 5.227772 q 0,0.13027 0.039207,0.22765 0.039207,0.0961 0.1075022,0.1581 0.065766,0.0607 0.1555619,0.0911 0.091061,0.0303 0.1998276,0.0303 0.1441794,0 0.2896235,-0.0569 0.1467088,-0.0582 0.2086807,-0.11383 h 0.012647 v 0.25927 q -0.1201495,0.0506 -0.2453579,0.0847 -0.1252084,0.0341 -0.2630641,0.0341 -0.3515954,0 -0.5488935,-0.18971 -0.1972981,-0.19098 -0.1972981,-0.54131 0,-0.34653 0.188445,-0.55016 0.1897097,-0.20362 0.4983042,-0.20362 0.2858293,0 0.4401265,0.16695 0.155562,0.16694 0.155562,0.47427 z m -0.2314459,-0.18212 q -0.00126,-0.18718 -0.094855,-0.28962 -0.092325,-0.10244 -0.2820351,-0.10244 -0.1909745,0 -0.3048003,0.11256 -0.1125611,0.11256 -0.1277379,0.2795 z"
         style="stroke-width:0.0647548"
         id="path1080" />
      <path
         d="m 7.7747045,150.65806 h -0.239522 v -0.17598 q -0.032021,0.0251 -0.087099,0.071 -0.053797,0.0443 -0.105031,0.071 -0.0602,0.034 -0.1383335,0.0562 -0.078133,0.0236 -0.1831639,0.0236 -0.1934107,0 -0.3279017,-0.14788 -0.1344909,-0.14789 -0.1344909,-0.37711 0,-0.18781 0.069166,-0.30316 0.070447,-0.11682 0.1998151,-0.18338 0.1306483,-0.0665 0.3138121,-0.0902 0.1831639,-0.0236 0.3932259,-0.0355 v -0.0429 q 0,-0.0946 -0.02946,-0.15675 -0.028179,-0.0621 -0.081976,-0.0976 -0.051234,-0.034 -0.1229632,-0.0458 -0.071729,-0.0118 -0.1498613,-0.0118 -0.094784,0 -0.2113429,0.0296 -0.1165589,0.0281 -0.2408028,0.0828 h -0.012808 v -0.28246 q 0.070447,-0.0222 0.2036577,-0.0488 0.1332101,-0.0267 0.2625776,-0.0267 0.1511422,0 0.2625775,0.0296 0.1127162,0.0281 0.1946917,0.0976 0.080694,0.068 0.1229631,0.17598 0.042268,0.10792 0.042268,0.26767 z m -0.239522,-0.40668 v -0.45992 q -0.1101545,0.007 -0.2600159,0.0222 -0.1485804,0.0147 -0.2356794,0.0429 -0.1037501,0.034 -0.1677934,0.10653 -0.064044,0.071 -0.064044,0.19668 0,0.14197 0.07429,0.21443 0.07429,0.071 0.2267133,0.071 0.1268057,0 0.2318368,-0.0562 0.105031,-0.0576 0.1946916,-0.13753 z"
         style="stroke-width:0.0704672"
         id="path1082" />
      <path
         d="M 9.3330897,150.6647 H 9.0953202 v -0.14797 q -0.1024432,0.0885 -0.2137396,0.13786 -0.1112964,0.0493 -0.2415637,0.0493 -0.2529463,0 -0.4021846,-0.19477 -0.1479736,-0.19477 -0.1479736,-0.54004 0,-0.17959 0.050589,-0.31998 0.051854,-0.14038 0.1391205,-0.23903 0.086002,-0.0961 0.1998275,-0.14671 0.1150906,-0.0506 0.2377695,-0.0506 0.1112964,0 0.1972981,0.024 0.086002,0.0228 0.1808566,0.0721 v -0.61213 h 0.2377695 z m -0.2377695,-0.3478 v -0.81069 q -0.09612,-0.043 -0.1720035,-0.0594 -0.075884,-0.0164 -0.1656798,-0.0164 -0.1998275,0 -0.3111239,0.13912 -0.1112964,0.13912 -0.1112964,0.39459 0,0.25168 0.086002,0.38322 0.086002,0.13026 0.2757114,0.13026 0.1011785,0 0.2048865,-0.0443 0.103708,-0.0455 0.1935039,-0.11636 z"
         style="stroke-width:0.0647548"
         id="path1084" />
    </g>
    <g
       aria-label="center"
       transform="scale(0.75364817,1.3268791)"
       id="text1089"
       style="font-style:normal;font-weight:normal;font-size:2.8227px;line-height:1.25;font-family:sans-serif;fill:#000000;fill-opacity:1;stroke:none;stroke-width:0.070568">
      <path
         d="m 11.475263,163.79482 q -0.129558,0.062 -0.246711,0.0965 -0.115775,0.0344 -0.246711,0.0344 -0.166771,0 -0.305976,-0.0482 -0.139205,-0.0496 -0.238441,-0.14885 -0.100614,-0.0992 -0.155745,-0.25085 -0.05513,-0.1516 -0.05513,-0.35421 0,-0.37765 0.20674,-0.59266 0.208119,-0.21501 0.548552,-0.21501 0.132314,0 0.259115,0.0372 0.12818,0.0372 0.234307,0.091 v 0.28806 h -0.01378 q -0.118532,-0.0923 -0.245333,-0.14196 -0.125422,-0.0496 -0.245332,-0.0496 -0.220523,0 -0.348703,0.14885 -0.126801,0.14748 -0.126801,0.43416 0,0.27841 0.124045,0.42864 0.125423,0.14885 0.351459,0.14885 0.07856,0 0.15988,-0.0207 0.08132,-0.0207 0.146096,-0.0538 0.05651,-0.0289 0.106127,-0.0606 0.04962,-0.0331 0.07856,-0.0565 h 0.01378 z"
         style="stroke-width:0.070568"
         id="path1091" />
      <path
         d="m 13.097488,163.22599 h -1.134317 q 0,0.15508 0.04273,0.27102 0.04273,0.11444 0.117153,0.18821 0.07167,0.0723 0.169527,0.10837 0.09924,0.0361 0.217767,0.0361 0.157123,0 0.315625,-0.0677 0.159879,-0.0693 0.227414,-0.1355 h 0.01378 v 0.30865 q -0.130936,0.0602 -0.267385,0.10083 -0.136448,0.0406 -0.28668,0.0406 -0.38316,0 -0.59817,-0.22585 -0.21501,-0.22735 -0.21501,-0.64442 0,-0.41255 0.205362,-0.65496 0.206741,-0.24241 0.543039,-0.24241 0.31149,0 0.479639,0.19875 0.169527,0.19874 0.169527,0.56462 z m -0.252224,-0.21681 q -0.0014,-0.22284 -0.10337,-0.3448 -0.100614,-0.12196 -0.307355,-0.12196 -0.208119,0 -0.332163,0.13401 -0.122666,0.13401 -0.139205,0.33275 z"
         style="stroke-width:0.073757"
         id="path1093" />
      <path
         d="m 14.777601,164.03755 h -0.259115 v -0.9576 q 0,-0.11594 -0.0124,-0.21683 -0.0124,-0.10236 -0.04548,-0.15959 -0.03446,-0.0633 -0.09924,-0.0934 -0.06478,-0.0317 -0.168149,-0.0317 -0.106127,0 -0.221902,0.0572 -0.115775,0.0572 -0.221901,0.14605 v 1.25572 h -0.259115 v -1.68182 h 0.259115 v 0.18669 q 0.121287,-0.10991 0.250845,-0.17164 0.129558,-0.0617 0.266006,-0.0617 0.249468,0 0.380403,0.16411 0.130936,0.16412 0.130936,0.47278 z"
         style="stroke-width:0.073757"
         id="path1095" />
      <path
         d="m 16.289572,163.89249 q -0.06823,0.0243 -0.151648,0.0428 -0.08205,0.0184 -0.149059,0.0232 -0.233835,0.0167 -0.383449,-0.10036 -0.149613,-0.11709 -0.211198,-0.39468 l -0.180203,-0.81228 -0.173667,0.0124 -0.04793,-0.21605 0.173667,-0.0124 -0.09738,-0.43896 0.257082,-0.0184 0.09738,0.43896 0.530574,-0.038 0.04793,0.21606 -0.530574,0.038 0.154415,0.69604 q 0.0267,0.12033 0.04732,0.18832 0.02031,0.0666 0.0662,0.12307 0.04221,0.0525 0.09995,0.0748 0.05879,0.0208 0.166819,0.0131 0.0629,-0.005 0.127336,-0.0272 0.06412,-0.024 0.09148,-0.0385 l 0.01367,-9.8e-4 z"
         style="stroke-width:0.070568"
         id="path1097" />
      <path
         d="m 17.719444,163.05529 -1.125418,0.0805 q 0.03125,0.14084 0.097,0.24311 0.06545,0.10089 0.154155,0.16261 0.08568,0.0606 0.190031,0.0864 0.105747,0.0258 0.223345,0.0174 0.15589,-0.0112 0.299501,-0.0839 0.14467,-0.0742 0.198328,-0.13921 l 0.01367,-9.8e-4 0.06219,0.28032 q -0.11778,0.064 -0.244971,0.11056 -0.12719,0.0466 -0.276242,0.0573 -0.380154,0.0272 -0.638983,-0.16264 -0.259133,-0.19122 -0.343166,-0.57001 -0.08312,-0.37468 0.07178,-0.60943 0.156277,-0.23484 0.489936,-0.25872 0.309046,-0.0221 0.51592,0.14645 0.208242,0.16846 0.281961,0.50076 z m -0.29393,-0.179 q -0.04629,-0.20229 -0.172032,-0.30581 -0.124398,-0.10362 -0.329517,-0.0889 -0.206486,0.0148 -0.302556,0.14529 -0.0947,0.13042 -0.07107,0.3121 z"
         style="stroke-width:0.070568"
         id="path1099" />
      <path
         d="m 19.032325,162.63431 h -0.01378 q -0.05789,-0.0138 -0.113018,-0.0193 -0.05375,-0.007 -0.128179,-0.007 -0.11991,0 -0.23155,0.0538 -0.11164,0.0524 -0.21501,0.13645 v 1.09297 H 18.07167 v -1.53953 h 0.259115 v 0.22741 q 0.154366,-0.12404 0.271519,-0.17504 0.118532,-0.0524 0.241198,-0.0524 0.06753,0 0.09786,0.004 0.03032,0.003 0.09097,0.0124 z"
         style="stroke-width:0.070568"
         id="path1101" />
    </g>
  </g>
</svg>
