<?xml version="1.0" encoding="UTF-8" standalone="no"?>
<!-- Created with Inkscape (http://www.inkscape.org/) -->

<svg
   width="90"
   height="380"
   viewBox="0 0 23.812501 100.54167"
   version="1.1"
   id="svg8"
   inkscape:version="1.3.2 (091e20e, 2023-11-25)"
   sodipodi:docname="ComputerscarePouseMositionPanel.svg"
   enable-background="new"
   xmlns:inkscape="http://www.inkscape.org/namespaces/inkscape"
   xmlns:sodipodi="http://sodipodi.sourceforge.net/DTD/sodipodi-0.dtd"
   xmlns="http://www.w3.org/2000/svg"
   xmlns:svg="http://www.w3.org/2000/svg"
   xmlns:rdf="http://www.w3.org/1999/02/22-rdf-syntax-ns#"
   xmlns:cc="http://creativecommons.org/ns#"
   xmlns:dc="http://purl.org/dc/elements/1.1/">
  <defs
     id="defs2">
    <inkscape:perspective
       sodipodi:type="inkscape:persp3d"
       inkscape:vp_x="0 : 50.270835 : 1"
       inkscape:vp_y="0 : 1000 : 0"
       inkscape:vp_z="23.812501 : 50.270835 : 1"
       inkscape:persp3d-origin="11.906251 : 33.51389 : 1"
       id="perspective1881" />
  </defs>
  <sodipodi:namedview
     id="base"
     pagecolor="#ffffff"
     bordercolor="#666666"
     borderopacity="1.0"
     inkscape:pageopacity="0.0"
     inkscape:pageshadow="2"
     inkscape:zoom="11.313709"
     inkscape:cx="48.039065"
     inkscape:cy="29.34493"
     inkscape:document-units="mm"
     inkscape:current-layer="g1669"
     showgrid="false"
     units="px"
     inkscape:snap-bbox="true"
     inkscape:snap-page="true"
     inkscape:bbox-nodes="true"
     inkscape:snap-bbox-edge-midpoints="true"
     inkscape:window-width="1920"
     inkscape:window-height="1027"
     inkscape:window-x="1728"
     inkscape:window-y="25"
     inkscape:window-maximized="1"
     inkscape:snap-global="false"
     showguides="false"
     inkscape:lockguides="false"
     inkscape:showpageshadow="2"
     inkscape:pagecheckerboard="0"
     inkscape:deskcolor="#d1d1d1" />
  <metadata
     id="metadata5">
    <rdf:RDF>
      <cc:Work
         rdf:about="">
        <dc:format>image/svg+xml</dc:format>
        <dc:type
           rdf:resource="http://purl.org/dc/dcmitype/StillImage" />
      </cc:Work>
    </rdf:RDF>
  </metadata>
  <g
     inkscape:label="Layer 1"
     inkscape:groupmode="layer"
     id="layer1"
     transform="translate(0,-196.45832)"
     style="display:inline">
    <path
       style="opacity:1;vector-effect:none;fill:#f0f0f0;fill-opacity:1;fill-rule:evenodd;stroke:none;stroke-width:0.48607069;stroke-linecap:butt;stroke-linejoin:round;stroke-miterlimit:4;stroke-dasharray:none;stroke-dashoffset:0;stroke-opacity:1;paint-order:normal"
       d="M 0,196.45831 H 23.8125 V 296.99999 H 0 Z"
       id="rect817"
       inkscape:connector-curvature="0" />
    <text
       xml:space="preserve"
       style="font-style:normal;font-weight:normal;font-size:10.5833px;line-height:1.25;font-family:sans-serif;letter-spacing:0px;word-spacing:0px;fill:#000000;fill-opacity:1;stroke:none;stroke-width:0.264583"
       x="8.2147436"
       y="295.57718"
       id="text1490"
       transform="rotate(1.4468834)"><tspan
         sodipodi:role="line"
         id="tspan1488"
         x="8.2147436"
         y="295.57718"
         style="font-style:normal;font-variant:normal;font-weight:normal;font-stretch:normal;font-size:2.82222px;font-family:sans-serif;-inkscape-font-specification:'sans-serif, Normal';font-variant-ligatures:normal;font-variant-caps:normal;font-variant-numeric:normal;font-feature-settings:normal;text-align:start;writing-mode:lr-tb;text-anchor:start;stroke-width:0.264583">computerscare</tspan></text>
    <text
       transform="matrix(1.0200569,-0.0280812,0.06896209,0.97843901,0,0)"
       id="text1645"
       y="206.34372"
       x="-10.058647"
       style="font-style:normal;font-weight:normal;font-size:12.0718px;line-height:1.25;font-family:sans-serif;letter-spacing:0px;word-spacing:0px;fill:#000000;fill-opacity:1;stroke:none;stroke-width:0.301795"
       xml:space="preserve"><tspan
         style="font-style:normal;font-variant:normal;font-weight:normal;font-stretch:normal;font-size:5.6335px;font-family:sans-serif;-inkscape-font-specification:'sans-serif, Normal';font-variant-ligatures:normal;font-variant-caps:normal;font-variant-numeric:normal;font-feature-settings:normal;text-align:start;writing-mode:lr-tb;text-anchor:start;stroke-width:0.301795"
         y="206.34372"
         x="-10.058647"
         id="tspan1643"
         sodipodi:role="line">debug</tspan></text>
  </g>
  <g
     inkscape:groupmode="layer"
     id="layer3"
     inkscape:label="bg"
     style="display:inline" />
  <g
     style="display:inline"
     transform="translate(0,-196.45832)"
     id="g1669"
     inkscape:groupmode="layer"
     inkscape:label="Layer 1 copy">
    <path
       inkscape:connector-curvature="0"
       id="path1647"
       d="M 0.09354433,196.45831 H 23.906044 V 296.99999 H 0.09354433 Z"
       style="opacity:1;vector-effect:none;fill:#f3f3f4;fill-opacity:1;fill-rule:evenodd;stroke:none;stroke-width:0.486071;stroke-linecap:butt;stroke-linejoin:round;stroke-miterlimit:4;stroke-dasharray:none;stroke-dashoffset:0;stroke-opacity:1;paint-order:normal" />
    <g
       aria-label="computerscare"
       transform="matrix(0.82425013,0.03949983,0.02493485,1.0444205,-13.869408,-13.126806)"
       style="font-style:normal;font-weight:normal;font-size:10.5833px;line-height:1.25;font-family:sans-serif;letter-spacing:0px;word-spacing:0px;fill:#000000;fill-opacity:1;stroke:none;stroke-width:0.264583"
       id="text1651">
      <path
         d="m 9.6564066,294.11837 -0.022491,0.23707 q -0.1028223,-0.0489 -0.2099211,-0.0673 -0.1055806,-0.0199 -0.2168506,-0.009 -0.2488775,0.0238 -0.4014201,0.19401 -0.1524199,0.16888 -0.1792271,0.45145 -0.026804,0.28254 0.095932,0.42654 0.1228661,0.14262 0.371738,0.11887 0.1112317,-0.0106 0.2224055,-0.0498 0.1127112,-0.0408 0.2267849,-0.11044 l -0.022229,0.23431 q -0.111772,0.0599 -0.2295122,0.0956 -0.1163563,0.0357 -0.2456588,0.048 -0.3517468,0.0335 -0.5381239,-0.16582 -0.1863704,-0.19938 -0.1510635,-0.57153 0.035829,-0.37767 0.2649098,-0.61397 0.2304697,-0.23642 0.5947391,-0.27118 0.1181718,-0.0112 0.2283935,0.003 0.110394,0.0127 0.2114822,0.0509 z"
         style="font-style:normal;font-variant:normal;font-weight:normal;font-stretch:normal;font-size:2.82222px;font-family:sans-serif;-inkscape-font-specification:'sans-serif, Normal';font-variant-ligatures:normal;font-variant-caps:normal;font-variant-numeric:normal;font-feature-settings:normal;text-align:start;writing-mode:lr-tb;text-anchor:start;stroke-width:0.264583"
         id="path1701"
         inkscape:connector-curvature="0" />
      <path
         d="m 10.696255,294.13661 q -0.205776,0.0197 -0.340506,0.19093 -0.134608,0.16992 -0.160888,0.44696 -0.02628,0.27705 0.07673,0.42565 0.104532,0.1471 0.311691,0.12734 0.204372,-0.0195 0.339118,-0.1908 0.134737,-0.1713 0.160888,-0.44696 0.02602,-0.27428 -0.07838,-0.42277 -0.10427,-0.14986 -0.308651,-0.13035 z m 0.0204,-0.21501 q 0.333675,-0.0318 0.503758,0.16499 0.170076,0.19686 0.133987,0.57727 -0.03596,0.37905 -0.246966,0.61361 -0.210875,0.23319 -0.544555,0.26503 -0.335078,0.032 -0.505151,-0.16486 -0.1685548,-0.19836 -0.1325956,-0.5774 0.036091,-0.38042 0.2455756,-0.61348 0.210875,-0.23319 0.545947,-0.26516 z"
         style="font-style:normal;font-variant:normal;font-weight:normal;font-stretch:normal;font-size:2.82222px;font-family:sans-serif;-inkscape-font-specification:'sans-serif, Normal';font-variant-ligatures:normal;font-variant-caps:normal;font-variant-numeric:normal;font-feature-settings:normal;text-align:start;writing-mode:lr-tb;text-anchor:start;stroke-width:0.264583"
         id="path1703"
         inkscape:connector-curvature="0" />
      <path
         d="m 12.82943,294.43629 q -0.104543,-0.19791 -0.262112,-0.28411 -0.157562,-0.0862 -0.379436,-0.0698 -0.298679,0.0221 -0.473925,0.23911 -0.17514,0.21533 -0.19922,0.59195 l -0.072,1.12653 0.315745,-0.0234 0.07138,-1.11655 q 0.01715,-0.26829 0.122744,-0.4055 0.105606,-0.13718 0.305286,-0.15198 0.244062,-0.0181 0.375601,0.12973 0.131536,0.14783 0.114062,0.42113 l -0.0674,1.05488 0.315746,-0.0234 0.07138,-1.11654 q 0.01726,-0.26997 0.122744,-0.4055 0.105605,-0.13718 0.308699,-0.15223 0.24065,-0.0178 0.372081,0.13165 0.131536,0.14783 0.11417,0.41946 l -0.0674,1.05487 0.315739,-0.0234 0.119344,-1.86646 -0.315744,0.0234 -0.01854,0.28996 q -0.09656,-0.16366 -0.241521,-0.23421 -0.144979,-0.0704 -0.351491,-0.0552 -0.208223,0.0154 -0.359898,0.12944 -0.153382,0.1141 -0.235935,0.31601 z"
         style="font-style:normal;font-variant:normal;font-weight:normal;font-stretch:normal;font-size:2.82222px;font-family:sans-serif;-inkscape-font-specification:'sans-serif, Normal';font-variant-ligatures:normal;font-variant-caps:normal;font-variant-numeric:normal;font-feature-settings:normal;text-align:start;writing-mode:lr-tb;text-anchor:start;stroke-width:0.323038"
         id="path1705"
         inkscape:connector-curvature="0" />
      <path
         d="m 14.742929,294.81667 v 0.81855 h -0.254937 v -2.13044 h 0.254937 v 0.23426 q 0.07993,-0.1378 0.201194,-0.20395 0.122645,-0.0675 0.292144,-0.0675 0.28112,0 0.45613,0.22324 0.176389,0.22324 0.176389,0.58705 0,0.3638 -0.176389,0.58704 -0.17501,0.22324 -0.45613,0.22324 -0.169499,0 -0.292144,-0.0661 -0.121268,-0.0675 -0.201194,-0.20533 z m 0.862652,-0.53881 q 0,-0.27975 -0.115755,-0.43822 -0.114377,-0.15985 -0.315571,-0.15985 -0.201193,0 -0.316949,0.15985 -0.114377,0.15847 -0.114377,0.43822 0,0.27974 0.114377,0.43959 0.115756,0.15847 0.316949,0.15847 0.201194,0 0.315571,-0.15847 0.115755,-0.15985 0.115755,-0.43959 z"
         style="font-style:normal;font-variant:normal;font-weight:normal;font-stretch:normal;font-size:2.82222px;font-family:sans-serif;-inkscape-font-specification:'sans-serif, Normal';font-variant-ligatures:normal;font-variant-caps:normal;font-variant-numeric:normal;font-feature-settings:normal;text-align:start;writing-mode:lr-tb;text-anchor:start;stroke-width:0.264583"
         id="path1707"
         inkscape:connector-curvature="0" />
      <path
         d="m 16.276561,294.97975 -1.52e-4,-0.94031 0.251931,-0.0648 1.5e-4,0.9306 q 3.6e-5,0.22051 0.08495,0.30972 0.08491,0.0878 0.254686,0.0444 0.204008,-0.052 0.321737,-0.21413 0.119098,-0.16225 0.119061,-0.38971 l -1.43e-4,-0.88065 0.251931,-0.0648 2.51e-4,1.55331 -0.25193,0.0648 -3.9e-5,-0.23855 q -0.09172,0.16493 -0.213559,0.26548 -0.120476,0.0987 -0.280672,0.13983 -0.264253,0.0678 -0.401197,-0.0637 -0.136946,-0.13139 -0.136998,-0.45174 z"
         style="font-style:normal;font-variant:normal;font-weight:normal;font-stretch:normal;font-size:2.82222px;font-family:sans-serif;-inkscape-font-specification:'sans-serif, Normal';font-variant-ligatures:normal;font-variant-caps:normal;font-variant-numeric:normal;font-feature-settings:normal;text-align:start;writing-mode:lr-tb;text-anchor:start;stroke-width:0.264583"
         id="path1709"
         inkscape:connector-curvature="0" />
      <path
         d="m 18.344702,293.59556 v 0.43822 h 0.522277 v 0.19706 h -0.522277 v 0.83784 q 0,0.18879 0.05099,0.24254 0.05237,0.0537 0.21084,0.0537 h 0.260449 v 0.21222 H 18.60653 q -0.293522,0 -0.405144,-0.10887 -0.111621,-0.11024 -0.111621,-0.39963 V 294.2308 H 17.90373 v -0.19706 h 0.186035 v -0.43822 z"
         style="font-style:normal;font-variant:normal;font-weight:normal;font-stretch:normal;font-size:2.82222px;font-family:sans-serif;-inkscape-font-specification:'sans-serif, Normal';font-variant-ligatures:normal;font-variant-caps:normal;font-variant-numeric:normal;font-feature-settings:normal;text-align:start;writing-mode:lr-tb;text-anchor:start;stroke-width:0.264583"
         id="path1711"
         inkscape:connector-curvature="0" />
      <path
         d="m 20.508346,294.20141 2.1e-5,0.12482 -1.158332,0.29657 q 0.01648,0.25929 0.156153,0.36223 0.141049,0.1012 0.391609,0.037 0.145134,-0.0376 0.280676,-0.10793 0.136913,-0.0711 0.271081,-0.17758 l 4e-5,0.24133 q -0.135541,0.093 -0.277931,0.15998 -0.14239,0.0669 -0.288893,0.10441 -0.366941,0.094 -0.581938,-0.0673 -0.213628,-0.16169 -0.213688,-0.53061 -6.1e-5,-0.38138 0.202543,-0.65655 0.203972,-0.2769 0.549007,-0.36523 0.309435,-0.0789 0.488832,0.0774 0.180765,0.15485 0.18082,0.50156 z m -0.251942,-0.0103 q -0.0028,-0.2087 -0.116435,-0.30445 -0.112293,-0.0961 -0.298502,-0.0484 -0.210854,0.0537 -0.338169,0.20723 -0.125945,0.15291 -0.145079,0.37694 z"
         style="font-style:normal;font-variant:normal;font-weight:normal;font-stretch:normal;font-size:2.82222px;font-family:sans-serif;-inkscape-font-specification:'sans-serif, Normal';font-variant-ligatures:normal;font-variant-caps:normal;font-variant-numeric:normal;font-feature-settings:normal;text-align:start;writing-mode:lr-tb;text-anchor:start;stroke-width:0.264583"
         id="path1713"
         inkscape:connector-curvature="0" />
      <path
         d="m 21.832517,294.2708 q -0.04272,-0.0248 -0.09371,-0.0358 -0.04961,-0.0124 -0.110243,-0.0124 -0.214974,0 -0.330729,0.14056 -0.114377,0.13918 -0.114377,0.40101 v 0.81304 h -0.254937 v -1.5434 h 0.254937 v 0.23977 q 0.07993,-0.14056 0.208084,-0.20808 0.128157,-0.0689 0.311436,-0.0689 0.02618,0 0.05788,0.004 0.03169,0.003 0.07028,0.01 z"
         style="font-style:normal;font-variant:normal;font-weight:normal;font-stretch:normal;font-size:2.82222px;font-family:sans-serif;-inkscape-font-specification:'sans-serif, Normal';font-variant-ligatures:normal;font-variant-caps:normal;font-variant-numeric:normal;font-feature-settings:normal;text-align:start;writing-mode:lr-tb;text-anchor:start;stroke-width:0.264583"
         id="path1715"
         inkscape:connector-curvature="0" />
      <path
         d="m 24.830532,294.16381 -0.03488,0.23723 q -0.09833,-0.0702 -0.208837,-0.11429 -0.110508,-0.0442 -0.233212,-0.0622 -0.186783,-0.0275 -0.289279,0.016 -0.101136,0.0437 -0.117973,0.15816 -0.01283,0.0873 0.04655,0.14753 0.05959,0.0589 0.254751,0.13358 l 0.08309,0.0317 q 0.258799,0.0966 0.355164,0.21797 0.09793,0.12025 0.07046,0.30705 -0.03127,0.21268 -0.218575,0.31189 -0.185938,0.0994 -0.480428,0.0561 -0.122703,-0.018 -0.252707,-0.0622 -0.128844,-0.0426 -0.269062,-0.11204 l 0.03809,-0.25904 q 0.128445,0.0927 0.258001,0.14937 0.129765,0.0553 0.262013,0.0747 0.17724,0.0261 0.281492,-0.0199 0.104454,-0.0473 0.120693,-0.15775 0.01504,-0.10226 -0.04648,-0.16702 -0.06015,-0.0645 -0.285871,-0.14928 l -0.08424,-0.0333 q -0.225922,-0.0833 -0.314703,-0.19949 -0.08858,-0.11748 -0.06252,-0.29473 0.03167,-0.21541 0.201614,-0.31021 0.169938,-0.0948 0.450794,-0.0535 0.139065,0.0204 0.258757,0.059 0.119693,0.0385 0.217301,0.0946 z"
         style="font-style:normal;font-variant:normal;font-weight:normal;font-stretch:normal;font-size:2.82222px;font-family:sans-serif;-inkscape-font-specification:'sans-serif, Normal';font-variant-ligatures:normal;font-variant-caps:normal;font-variant-numeric:normal;font-feature-settings:normal;text-align:start;writing-mode:lr-tb;text-anchor:start;stroke-width:0.264583"
         id="path1717"
         inkscape:connector-curvature="0" />
      <path
         d="m 23.234911,293.65736 0.0175,0.30448 q -0.111542,-0.0659 -0.222213,-0.0926 -0.1094,-0.0286 -0.21931,-0.0181 -0.245922,0.0236 -0.370331,0.23841 -0.12451,0.21306 -0.103642,0.57597 0.02087,0.36289 0.168485,0.55167 0.147517,0.18701 0.393438,0.16345 0.109909,-0.0104 0.214938,-0.0579 0.106297,-0.0493 0.209078,-0.13576 l 0.01731,0.30093 q -0.102123,0.0739 -0.214323,0.11657 -0.110826,0.0427 -0.238594,0.0549 -0.34759,0.0333 -0.568482,-0.22855 -0.220891,-0.26184 -0.248375,-0.73981 -0.02789,-0.48506 0.162206,-0.78273 0.191473,-0.2978 0.551427,-0.3323 0.116781,-0.0116 0.229892,0.0102 0.113013,0.0194 0.220994,0.0715 z"
         style="font-style:normal;font-variant:normal;font-weight:normal;font-stretch:normal;font-size:2.82222px;font-family:sans-serif;-inkscape-font-specification:'sans-serif, Normal';font-variant-ligatures:normal;font-variant-caps:normal;font-variant-numeric:normal;font-feature-settings:normal;text-align:start;writing-mode:lr-tb;text-anchor:start;stroke-width:0.30025"
         id="path1719"
         inkscape:connector-curvature="0" />
      <path
         d="m 25.825218,294.72466 q -0.306252,0.0254 -0.418554,0.10522 -0.112301,0.0799 -0.0983,0.24875 0.01115,0.13459 0.105643,0.20696 0.09575,0.0708 0.248188,0.0582 0.21012,-0.0174 0.324177,-0.1762 0.115315,-0.16028 0.09483,-0.40748 l -0.0047,-0.0563 z m 0.495364,-0.14614 0.07272,0.87756 -0.252693,0.0209 -0.01935,-0.23347 q -0.07492,0.14725 -0.198429,0.22525 -0.123634,0.0766 -0.310407,0.0921 -0.236213,0.0196 -0.387217,-0.10066 -0.149746,-0.12172 -0.168181,-0.3442 -0.02151,-0.25956 0.140606,-0.40573 0.163489,-0.14629 0.508194,-0.17486 l 0.35432,-0.0294 -0.002,-0.0247 q -0.01445,-0.17442 -0.137665,-0.25961 -0.121955,-0.0867 -0.329328,-0.0695 -0.13184,0.0109 -0.254195,0.0529 -0.122356,0.0419 -0.23248,0.11469 l -0.01935,-0.23346 q 0.134272,-0.065 0.262575,-0.10193 0.128187,-0.0383 0.251787,-0.0486 0.33372,-0.0277 0.512858,0.13173 0.179138,0.15938 0.208272,0.51095 z"
         style="font-style:normal;font-variant:normal;font-weight:normal;font-stretch:normal;font-size:2.82222px;font-family:sans-serif;-inkscape-font-specification:'sans-serif, Normal';font-variant-ligatures:normal;font-variant-caps:normal;font-variant-numeric:normal;font-feature-settings:normal;text-align:start;writing-mode:lr-tb;text-anchor:start;stroke-width:0.264583"
         id="path1721"
         inkscape:connector-curvature="0" />
      <path
         d="m 27.76326,293.76764 q -0.04251,-0.0345 -0.09341,-0.0502 -0.0495,-0.0177 -0.110115,-0.0185 -0.214908,-0.003 -0.331706,0.18824 -0.115411,0.18914 -0.117419,0.54774 l -0.0062,1.11356 -0.254859,-0.003 0.0118,-2.11387 0.25486,0.003 -0.0018,0.3284 q 0.08098,-0.19149 0.209617,-0.28231 0.128648,-0.0928 0.311871,-0.0904 0.02617,3.4e-4 0.05784,0.006 0.03167,0.004 0.07018,0.0145 z"
         style="font-style:normal;font-variant:normal;font-weight:normal;font-stretch:normal;font-size:2.82222px;font-family:sans-serif;-inkscape-font-specification:'sans-serif, Normal';font-variant-ligatures:normal;font-variant-caps:normal;font-variant-numeric:normal;font-feature-settings:normal;text-align:start;writing-mode:lr-tb;text-anchor:start;stroke-width:0.309609"
         id="path1723"
         inkscape:connector-curvature="0" />
      <path
         d="m 29.290998,294.49654 -0.0011,0.15976 -1.097679,0.11363 c 0.0095,0.22496 -0.007,0.27076 0.08581,0.39012 0.0938,0.11825 0.224734,0.1782 0.3928,0.18003 0.09735,10e-4 0.191587,-0.0132 0.282717,-0.043 0.09205,-0.0298 0.323095,-0.13118 0.413514,-0.19177 l -0.0021,0.30886 c -0.09126,0.0487 -0.324546,0.14188 -0.420235,0.16685 -0.09568,0.025 -0.192667,0.0369 -0.290934,0.0359 -0.246128,-0.003 -0.440661,-0.0972 -0.583599,-0.28329 -0.14202,-0.18618 -0.211965,-0.43664 -0.209835,-0.75142 0.0022,-0.32543 0.07191,-0.58267 0.20912,-0.77171 0.138137,-0.19022 0.322921,-0.28406 0.554356,-0.28154 0.207557,0.002 0.370904,0.0905 0.490044,0.26451 0.120066,0.17292 0.179099,0.4073 0.177097,0.70314 z m -0.252827,-0.0986 c -6.9e-4,-0.17871 -0.03872,-0.32173 -0.114201,-0.42906 -0.07458,-0.10735 -0.174331,-0.16168 -0.299232,-0.16304 -0.141432,-0.002 -0.255201,0.0487 -0.341307,0.15072 -0.08519,0.102 -0.02187,0.22939 -0.036,0.41622 z"
         style="font-style:normal;font-variant:normal;font-weight:normal;font-stretch:normal;font-size:2.82222px;font-family:sans-serif;-inkscape-font-specification:'sans-serif, Normal';font-variant-ligatures:normal;font-variant-caps:normal;font-variant-numeric:normal;font-feature-settings:normal;text-align:start;writing-mode:lr-tb;text-anchor:start;stroke-width:0.30025"
         id="path1725"
         inkscape:connector-curvature="0"
         sodipodi:nodetypes="ccccscccsscscscccccsccc" />
    </g>
    <g
       aria-label="debug"
       transform="matrix(0.87695926,-0.04700004,0.05928781,1.6376321,0.72575314,-127.94726)"
       style="font-style:normal;font-weight:normal;font-size:10.74719143px;line-height:1.25;font-family:sans-serif;letter-spacing:0px;word-spacing:0px;fill:#000000;fill-opacity:1;stroke:none;stroke-width:0.26867977"
       id="text1667" />
    <g
       id="g9547"
       transform="matrix(0.24160604,0,0,0.23238158,15.673466,291.30462)">
      <g
         style="display:inline"
         inkscape:label="Layer 1"
         id="layer4" />
      <path
         id="rect5872"
         d="m 11.987289,9.3234482 h 7.991524 v 3.9957608 h -7.991524 z"
         style="opacity:1;fill:#0f0f00;fill-opacity:1;stroke:#000000;stroke-width:0;stroke-miterlimit:4;stroke-dasharray:none;stroke-opacity:1"
         inkscape:connector-curvature="0" />
      <path
         id="rect5874"
         d="m 14.667374,10.662096 h 3.995763 v 1.331921 h -3.995763 z"
         style="opacity:1;fill:#ffffff;fill-opacity:0.985714;stroke:#000000;stroke-width:0;stroke-miterlimit:4;stroke-dasharray:none;stroke-opacity:1"
         inkscape:connector-curvature="0" />
      <path
         id="rect5878"
         d="m -29.323654,9.3234482 h 7.989551 v 3.9957608 h -7.989551 z"
         style="opacity:1;fill:#0c0c00;fill-opacity:1;stroke:#000000;stroke-width:0;stroke-miterlimit:4;stroke-dasharray:none;stroke-opacity:1"
         transform="scale(-1,1)"
         inkscape:connector-curvature="0" />
      <path
         id="rect5880"
         d="m -26.64423,10.662096 h 3.994777 v 1.331921 h -3.994777 z"
         style="opacity:1;fill:#ffffff;fill-opacity:0.985714;stroke:#000000;stroke-width:0;stroke-miterlimit:4;stroke-dasharray:none;stroke-opacity:1"
         transform="scale(-1,1)"
         inkscape:connector-curvature="0" />
      <path
         id="rect5882"
         d="m 19.995058,14.667374 h 1.331921 v 3.995762 h -1.331921 z"
         style="opacity:1;fill:#000000;fill-opacity:1;stroke:#000000;stroke-width:0;stroke-miterlimit:4;stroke-dasharray:none;stroke-opacity:1"
         inkscape:connector-curvature="0" />
      <path
         id="rect5884"
         d="m 21.326979,17.331215 h 1.315677 v 1.33192 h -1.315677 z"
         style="opacity:1;fill:#000000;fill-opacity:1;stroke:#000000;stroke-width:0;stroke-miterlimit:4;stroke-dasharray:none;stroke-opacity:1"
         inkscape:connector-curvature="0" />
      <path
         id="rect5886"
         d="m 11.954803,20.011301 h 2.696328 v 2.663842 h -2.696328 z"
         style="opacity:1;fill:#000200;fill-opacity:1;stroke:#000000;stroke-width:0;stroke-miterlimit:4;stroke-dasharray:none;stroke-opacity:1"
         inkscape:connector-curvature="0" />
      <path
         id="rect5888"
         d="m 27.970341,20.011301 h 2.696327 v 2.663842 h -2.696327 z"
         style="opacity:1;fill:#000200;fill-opacity:1;stroke:#000000;stroke-width:0;stroke-miterlimit:4;stroke-dasharray:none;stroke-opacity:1"
         inkscape:connector-curvature="0" />
      <path
         id="rect5890"
         d="m 14.651131,20.011301 h 13.351695 v 1.33192 H 14.651131 Z"
         style="opacity:1;fill:#000200;fill-opacity:1;stroke:#000000;stroke-width:0;stroke-miterlimit:4;stroke-dasharray:none;stroke-opacity:1"
         inkscape:connector-curvature="0" />
    </g>
    <path
       d="m 4.2486507,198.63918 c 0,0.15079 -0.034392,0.29091 -0.1031751,0.42038 -0.066818,0.12794 -0.1611506,0.23913 -0.2829959,0.33357 -0.1513242,0.11727 -0.3301618,0.20561 -0.536513,0.26501 -0.2063513,0.0579 -0.4667467,0.0868 -0.7811865,0.0868 H 1.9611006 v 1.26799 l -1.09817269,0.0935 0.51449379,-3.49541 h 1.1909409 c 0.2633435,0 0.4863992,0.0175 0.6691673,0.0525 0.1827682,0.0335 0.3449012,0.0868 0.4863992,0.15992 0.1670462,0.0868 0.2957702,0.19495 0.3861715,0.32442 0.092367,0.12947 0.13855,0.2932 0.13855,0.4912 z m -0.607262,0.0113 c 0,-0.11728 -0.02653,-0.21934 -0.079592,-0.30615 -0.053062,-0.0868 -0.1336367,-0.15764 -0.2417256,-0.21248 -0.094332,-0.0472 -0.2024201,-0.0807 -0.324266,-0.10056 -0.11988,-0.0213 -0.272187,-0.0319 -0.4569205,-0.0319 H 1.9611011 v 1.35937 h 0.4922948 c 0.2358301,0 0.4274419,-0.016 0.5748356,-0.048 0.1473937,-0.0335 0.2672738,-0.086 0.3596405,-0.15763 0.092367,-0.0731 0.15722,-0.15003 0.1945597,-0.23075 0.039306,-0.0807 0.058959,-0.17138 0.058959,-0.27186 z m 4.2018958,1.08751 c 0,0.41579 -0.1843397,0.81419 -0.4594745,1.05485 -0.2751349,0.24064 -0.8073217,0.29081 -1.2691552,0.29081 -0.4657641,0 -0.8362135,-0.12033 -1.1113484,-0.36098 -0.2731697,-0.24066 -0.4097545,-0.56889 -0.4097545,-0.98468 0,-0.41582 0.1365848,-0.74406 0.4097545,-0.98471 0.2751349,-0.24217 0.6455843,-0.36325 1.1113484,-0.36325 0.4618335,0 0.9940203,-0.0193 1.2691552,0.22294 0.2751348,0.24065 0.4594745,0.7092 0.4594745,1.12502 z m -0.7823624,0 c 0,-0.33053 -0.083523,-0.57575 -0.250569,-0.73567 -0.1670463,-0.16146 -0.3989456,-0.24219 -0.6956983,-0.24219 -0.3006832,0 -0.5345477,0.0807 -0.701594,0.24219 -0.1650809,0.15992 -0.2476214,0.40514 -0.2476214,0.73567 0,0.31985 0.083523,0.56278 0.2505693,0.7288 0.1670461,0.16449 0.3999281,0.24673 0.6986461,0.24673 0.2947873,0 0.5257042,-0.0815 0.6927503,-0.24445 0.1690113,-0.16449 0.253517,-0.40819 0.253517,-0.73108 z m 4.1594499,1.27483 h -0.554201 v -0.2833 c -0.186698,0.11423 -0.365536,0.20181 -0.536513,0.26274 -0.1709763,0.0609 -0.3596402,0.0914 -0.5659914,0.0914 -0.3458839,0 -0.615123,-0.0815 -0.8077174,-0.24446 -0.1925943,-0.16448 -0.2888916,-0.40513 -0.2888916,-0.72196 l 0.093545,-1.49267 0.484042,0.0935 -0.023386,1.1958 c -0.00253,0.12945 0.00786,0.24066 0.023583,0.33355 0.015722,0.0914 0.049131,0.16984 0.1002279,0.23534 0.053062,0.0669 0.1218449,0.1157 0.2063514,0.14622 0.084505,0.0304 0.2073335,0.0456 0.3684841,0.0456 0.1434632,0 0.299701,-0.0289 0.468712,-0.0868 0.170977,-0.0579 0.330162,-0.13174 0.477556,-0.22162 v -1.90541 h 0.5542 z m 3.443116,-0.73567 c 0,0.23305 -0.124796,0.4242 -0.374379,0.57345 -0.247621,0.14927 -0.586627,0.22391 -1.017016,0.22391 -0.243691,0 -0.46773,-0.0221 -0.672116,-0.0663 -0.202421,-0.0456 -0.372415,-0.0952 -0.509982,-0.14851 v -0.48207 h 0.02948 c 0.174907,0.10206 0.369467,0.18354 0.583679,0.24445 0.214212,0.0594 0.419581,0.0891 0.616106,0.0891 0.243691,0 0.43432,-0.0305 0.571887,-0.0914 0.137568,-0.0609 0.206352,-0.15688 0.206352,-0.28786 0,-0.10054 -0.03733,-0.1767 -0.112016,-0.22848 -0.07468,-0.0519 -0.218139,-0.0961 -0.430388,-0.13251 -0.0786,-0.0138 -0.181786,-0.0297 -0.309526,-0.0479 -0.125777,-0.0183 -0.240744,-0.0381 -0.344902,-0.0595 -0.288891,-0.0594 -0.49426,-0.14624 -0.616105,-0.26045 -0.11988,-0.11576 -0.179821,-0.25742 -0.179821,-0.42496 0,-0.1051 0.02751,-0.20409 0.08254,-0.297 0.05699,-0.093 0.142481,-0.17592 0.256465,-0.24903 0.110053,-0.0716 0.249587,-0.12794 0.418599,-0.16906 0.170977,-0.0426 0.361606,-0.0639 0.571889,-0.0639 0.196524,0 0.395014,0.0191 0.59547,0.0572 0.202422,0.0366 0.370451,0.0815 0.504087,0.13479 v 0.4592 h -0.02947 c -0.141499,-0.0806 -0.313458,-0.14845 -0.515878,-0.20332 -0.202422,-0.0564 -0.400911,-0.0845 -0.595471,-0.0845 -0.202422,0 -0.373399,0.0305 -0.512932,0.0914 -0.139532,0.0594 -0.209298,0.14852 -0.209298,0.2673 0,0.1051 0.04225,0.18431 0.126758,0.23761 0.08254,0.0533 0.216177,0.0968 0.40091,0.13022 0.102192,0.0183 0.216179,0.0366 0.341954,0.0548 0.12774,0.0183 0.233865,0.035 0.31837,0.0502 0.257447,0.0456 0.455939,0.12412 0.595471,0.23532 0.139532,0.11271 0.209298,0.26198 0.209298,0.44779 z m 3.479084,-0.30868 -2.168855,-0.11693 c 0,0.15689 -0.156631,0.2238 -0.09571,0.34109 0.06092,0.11575 0.144439,0.21094 0.250569,0.28558 0.102192,0.0731 0.223057,0.12794 0.362589,0.16449 0.141497,0.0366 0.296751,0.0548 0.465763,0.0548 0.224038,0 0.449059,-0.0343 0.675064,-0.10285 0.227969,-0.0701 0.390102,-0.13862 0.486399,-0.20562 h 0.02947 l 0.187088,0.58529 c -0.186698,0.0609 -0.564415,-0.005 -0.758975,0.0362 -0.194561,0.0411 -0.398946,0.0618 -0.613158,0.0618 -0.546339,0 -0.972798,-0.11424 -1.279376,-0.34271 -0.30658,-0.22999 -0.45987,-0.55595 -0.45987,-0.97784 0,-0.41733 0.146412,-0.74861 0.439234,-0.99384 0.294787,-0.24522 0.681942,-0.36783 1.161463,-0.36783 0.444145,0 0.786099,0.10053 1.02586,0.30158 0.241725,0.20106 0.362587,0.48664 0.362587,0.85674 z m -0.469305,-0.51607 c -0.0019,-0.22542 -0.07559,-0.39982 -0.221089,-0.52319 -0.143463,-0.12338 -0.362589,-0.18507 -0.657377,-0.18507 -0.296751,0 -0.533564,0.0678 -0.710436,0.20334 -0.174908,0.13556 -0.274153,0.30387 -0.297736,0.50492 z"
       id="path4"
       style="font-size:3.70758px;stroke-width:0.442908"
       sodipodi:nodetypes="scccsccccscccssccccsccscccccscscscscsscscscscsccccscsccscccscccccccscccccssscccccscccscccccscsccccccccccccscccccscscscccccsccc" />
    <path
       d="m 3.9950486,205.23973 -0.8989221,-0.0412 0.3975634,-3.07865 -1.0482955,2.07351 -0.4391062,0.2232 -0.9003829,-2.38155 v 3.10203 l -0.46844118,-0.0166 v -3.60012 l 1.12800658,0.14117 0.5609141,1.92314 0.9723322,-1.96983 0.6963316,0.0247 z m 3.3854379,-1.2289 c 0,0.44005 -0.1181656,0.78322 -0.3544961,1.0295 -0.2363308,0.24627 -0.5528453,0.36236 -0.9495432,0.34827 -0.4000741,-0.0142 -0.7182766,-0.15283 -0.9546074,-0.4159 -0.2346426,-0.26301 -0.3519638,-0.61455 -0.3519638,-1.0546 0,-0.44004 0.1173213,-0.78322 0.3519638,-1.02955 0.2363308,-0.2479 0.5545333,-0.36474 0.9546074,-0.35053 0.3966979,0.0141 0.7132124,0.15346 0.9495432,0.41816 0.2363307,0.26306 0.3544961,0.61461 0.3544961,1.05465 z m -0.4912304,-0.0175 c 0,-0.34978 -0.071743,-0.61183 -0.2152297,-0.78618 -0.1434865,-0.17595 -0.2725213,-0.12814 -0.5274209,-0.13719 -0.2582758,-0.009 -0.5293151,-0.0713 -0.6728017,0.0946 -0.1417984,0.16421 -0.095768,0.4212 -0.095768,0.77098 0,0.33849 -0.045187,0.59813 0.098299,0.77893 0.1434864,0.17917 0.3435235,0.27332 0.6001112,0.28244 0.2532115,0.009 0.4515605,-0.0702 0.5950469,-0.23759 0.1451746,-0.16891 0.217762,-0.42423 0.217762,-0.76595 z m 3.2487029,0.68598 c 0,0.24663 -0.107192,0.44512 -0.3215782,0.59547 -0.2126976,0.1504 -0.5038909,0.21903 -0.8735796,0.20591 -0.2093217,-0.008 -0.4017624,-0.0376 -0.5773225,-0.0907 -0.1738718,-0.0545 -0.3198905,-0.11211 -0.4380557,-0.17271 v -0.51015 l 0.025319,8.9e-4 c 0.1502389,0.11333 0.3173585,0.2055 0.5013589,0.27652 0.1840004,0.0694 0.3604044,0.10702 0.529212,0.11301 0.2093215,0.008 0.3730648,-0.019 0.4912304,-0.0793 0.1181656,-0.0603 0.177248,-0.15978 0.177248,-0.29835 0,-0.10638 -0.032074,-0.18811 -0.096222,-0.24519 -0.064148,-0.0571 -0.1873776,-0.1082 -0.3696887,-0.15336 -0.067523,-0.0169 -0.1561475,-0.037 -0.2658722,-0.0602 -0.1080368,-0.0232 -0.2067893,-0.0476 -0.2962574,-0.0735 -0.2481472,-0.0716 -0.4245511,-0.16976 -0.5292119,-0.29442 -0.1029725,-0.12616 -0.1544591,-0.27789 -0.1544591,-0.4552 0,-0.11121 0.023633,-0.21515 0.070899,-0.3118 0.048954,-0.0966 0.1223844,-0.18182 0.2202939,-0.25572 0.094532,-0.0724 0.2143859,-0.1278 0.3595604,-0.16614 0.1468626,-0.0399 0.3106061,-0.0566 0.4912303,-0.0501 0.1688076,0.006 0.3393034,0.0321 0.5114872,0.0787 0.1738719,0.045 0.3182025,0.0976 0.4329922,0.15802 v 0.48598 l -0.02532,-9e-4 c -0.1215414,-0.0898 -0.2692482,-0.16676 -0.4431201,-0.23091 -0.173872,-0.0658 -0.3443678,-0.10167 -0.5114873,-0.1076 -0.1738718,-0.006 -0.3207346,0.0212 -0.4405881,0.0811 -0.119853,0.0585 -0.1797801,0.15075 -0.1797801,0.27651 0,0.11121 0.036294,0.19632 0.1088812,0.25531 0.070899,0.059 0.185688,0.10905 0.3443675,0.15006 0.087781,0.0224 0.1856888,0.0453 0.2937255,0.0684 0.1097254,0.0232 0.2008811,0.0442 0.2734684,0.0629 0.221138,0.0562 0.3916338,0.1453 0.5114873,0.26721 0.1198527,0.12352 0.1797797,0.28361 0.1797797,0.48026 z m 1.192627,-2.33191 -0.770669,-0.0191 0.23386,-0.47148 0.536809,0.0191 z m -0.007,2.98803 -0.499423,0.14679 v -2.70068 l 0.476038,0.0169 z m 2.387189,0.22517 c -0.08946,0.0193 -0.187379,0.0343 -0.293726,0.0451 -0.104657,0.0109 -0.198348,0.0148 -0.281064,0.0118 -0.288661,-0.0103 -0.508113,-0.0922 -0.658352,-0.24582 -0.150239,-0.15363 -0.400282,-0.51281 -0.365675,-0.83819 l 0.140317,-1.31924 -0.48528,0.0354 0.163703,-0.4288 0.321578,0.0114 v -0.77611 l 0.476038,0.0169 v 0.77611 l 0.982461,0.0349 v 0.38203 l -0.982464,-0.0349 v 1.23066 c 0,0.14184 0.0034,0.25318 0.01017,0.33403 0.0068,0.0793 0.03041,0.15419 0.0709,0.22495 0.03713,0.0658 0.08778,0.11517 0.151928,0.14805 0.06584,0.0314 0.165435,0.0494 0.29879,0.0541 0.07765,0.003 0.158682,-0.005 0.243083,-0.0228 0.08441,-0.0194 0.145182,-0.0359 0.182312,-0.0491 l 0.02532,9e-4 z m 1.226594,-3.01991 -0.840828,0.0278 0.163702,-0.5884 0.536809,0.019 z m -0.170693,3.08158 -0.476038,-0.0169 v -2.70069 l 0.476038,0.0169 z m 3.352518,-1.23005 c 0,0.44004 -0.118161,0.78321 -0.354496,1.02949 -0.23633,0.24627 -0.552845,0.36236 -0.949543,0.34828 -0.400074,-0.0142 -1.045682,-0.0125 -1.282012,-0.2756 -0.234642,-0.26301 -0.468893,-0.73147 -0.468893,-1.17151 0,-0.44005 0.397954,-0.94693 0.632595,-1.19327 0.23633,-0.2479 0.718236,-0.22443 1.11831,-0.21022 0.396698,0.0141 0.713213,0.15346 0.949543,0.41818 0.23633,0.26305 0.354496,0.6146 0.354496,1.05465 z m -0.491228,-0.0174 c 0,-0.34978 -0.07174,-0.61184 -0.215231,-0.7862 -0.143486,-0.17595 -0.34268,-0.26844 -0.597579,-0.27749 -0.258276,-0.009 -0.459156,0.0691 -0.602643,0.23487 -0.141799,0.16422 -0.212698,0.42121 -0.212698,0.77099 0,0.33849 0.07174,0.59813 0.21523,0.77893 0.143486,0.17917 0.343524,0.27332 0.600111,0.28244 0.253212,0.009 0.451561,-0.0702 0.595048,-0.23758 0.145174,-0.16891 0.217762,-0.42423 0.217762,-0.76596 z m 3.593069,1.47676 -0.476037,-0.0169 v -1.53772 c 0,-0.12411 -0.0076,-0.24045 -0.02279,-0.34898 -0.01519,-0.11015 -0.04304,-0.19656 -0.08356,-0.25926 -0.0422,-0.0692 -0.102966,-0.12131 -0.182313,-0.15637 -0.07934,-0.0367 -0.182314,-0.0572 -0.308917,-0.0617 -0.129983,-0.005 -0.265873,0.0212 -0.40767,0.0774 -0.141799,0.0562 -0.277689,0.12958 -0.407671,0.22005 v 2.01644 l -0.476038,-0.0169 v -2.51359 l 0.476038,-0.17018 v 0.2998 c 0.148551,-0.11239 0.302166,-0.19879 0.460844,-0.25924 0.15868,-0.0604 0.321579,-0.0877 0.488699,-0.0817 0.305543,0.0109 0.538498,0.10693 0.698864,0.28836 0.160368,0.1814 0.240551,0.43731 0.240551,0.76774 z"
       id="path5"
       style="font-size:3.70758px;stroke-width:0.42228"
       sodipodi:nodetypes="ccccccccccccccscccscccsscccscccsscccccccccssccccscccccccccccscccccssccccccccccccscsccccccccccsccccccccccccccccccscscscccsscccscccsccsccccccccccccccsc" />
  </g>
  <g
     inkscape:groupmode="layer"
     id="layer2"
     inkscape:label="pencil" />
</svg>
