<?xml version="1.0" encoding="UTF-8" standalone="no"?>
<!-- Created with Inkscape (http://www.inkscape.org/) -->

<svg
   xmlns:dc="http://purl.org/dc/elements/1.1/"
   xmlns:cc="http://creativecommons.org/ns#"
   xmlns:rdf="http://www.w3.org/1999/02/22-rdf-syntax-ns#"
   xmlns:svg="http://www.w3.org/2000/svg"
   xmlns="http://www.w3.org/2000/svg"
   xmlns:sodipodi="http://sodipodi.sourceforge.net/DTD/sodipodi-0.dtd"
   xmlns:inkscape="http://www.inkscape.org/namespaces/inkscape"
   width="140"
   height="380"
   viewBox="0 0 37.041668 100.54167"
   version="1.1"
   id="svg8"
   inkscape:version="0.92.2 5c3e80d, 2017-08-06"
   sodipodi:docname="ComputerscareFolyPacePanel.svg"
   style="enable-background:new">
  <defs
     id="defs2">
    <inkscape:perspective
       sodipodi:type="inkscape:persp3d"
       inkscape:vp_x="0 : 50.270835 : 1"
       inkscape:vp_y="0 : 1000 : 0"
       inkscape:vp_z="23.812501 : 50.270835 : 1"
       inkscape:persp3d-origin="11.906251 : 33.51389 : 1"
       id="perspective1881" />
  </defs>
  <sodipodi:namedview
     id="base"
     pagecolor="#ffffff"
     bordercolor="#666666"
     borderopacity="1.0"
     inkscape:pageopacity="0.0"
     inkscape:pageshadow="2"
     inkscape:zoom="5.6568546"
     inkscape:cx="75.559802"
     inkscape:cy="10.871851"
     inkscape:document-units="mm"
     inkscape:current-layer="g1669"
     showgrid="false"
     units="px"
     inkscape:snap-bbox="false"
     inkscape:snap-page="true"
     inkscape:bbox-nodes="true"
     inkscape:snap-bbox-edge-midpoints="true"
     inkscape:window-width="1440"
     inkscape:window-height="856"
     inkscape:window-x="0"
     inkscape:window-y="0"
     inkscape:window-maximized="0"
     inkscape:snap-object-midpoints="false"
     inkscape:snap-others="false"
     inkscape:snap-nodes="false"
     inkscape:snap-global="false"
     showguides="false" />
  <metadata
     id="metadata5">
    <rdf:RDF>
      <cc:Work
         rdf:about="">
        <dc:format>image/svg+xml</dc:format>
        <dc:type
           rdf:resource="http://purl.org/dc/dcmitype/StillImage" />
        <dc:title />
      </cc:Work>
    </rdf:RDF>
  </metadata>
  <g
     inkscape:label="Layer 1"
     inkscape:groupmode="layer"
     id="layer1"
     transform="translate(0,-196.45832)"
     style="display:none">
    <path
       style="opacity:1;vector-effect:none;fill:#f0f0f0;fill-opacity:1;fill-rule:evenodd;stroke:none;stroke-width:0.48607069;stroke-linecap:butt;stroke-linejoin:round;stroke-miterlimit:4;stroke-dasharray:none;stroke-dashoffset:0;stroke-opacity:1;paint-order:normal"
       d="M 0,196.45831 H 23.8125 V 296.99999 H 0 Z"
       id="rect817"
       inkscape:connector-curvature="0" />
    <text
       xml:space="preserve"
       style="font-style:normal;font-weight:normal;font-size:10.58333302px;line-height:1.25;font-family:sans-serif;letter-spacing:0px;word-spacing:0px;fill:#000000;fill-opacity:1;stroke:none;stroke-width:0.26458332"
       x="8.2147436"
       y="295.57718"
       id="text1490"
       transform="rotate(1.4468834)"><tspan
         sodipodi:role="line"
         id="tspan1488"
         x="8.2147436"
         y="295.57718"
         style="font-style:normal;font-variant:normal;font-weight:normal;font-stretch:normal;font-size:2.82222223px;font-family:sans-serif;-inkscape-font-specification:'sans-serif, Normal';font-variant-ligatures:normal;font-variant-caps:normal;font-variant-numeric:normal;font-feature-settings:normal;text-align:start;writing-mode:lr-tb;text-anchor:start;stroke-width:0.26458332">computerscare</tspan></text>
    <text
       transform="rotate(-5.9989835)"
       id="text1494"
       y="288.0314"
       x="-28.710276"
       style="font-style:normal;font-weight:normal;font-size:10.58333302px;line-height:1.25;font-family:sans-serif;letter-spacing:0px;word-spacing:0px;fill:#000000;fill-opacity:1;stroke:none;stroke-width:0.26458332"
       xml:space="preserve"><tspan
         style="font-style:normal;font-variant:normal;font-weight:normal;font-stretch:normal;font-size:2.82222223px;font-family:sans-serif;-inkscape-font-specification:'sans-serif, Normal';font-variant-ligatures:normal;font-variant-caps:normal;font-variant-numeric:normal;font-feature-settings:normal;text-align:start;writing-mode:lr-tb;text-anchor:start;stroke-width:0.26458332"
         y="288.0314"
         x="-28.710276"
         id="tspan1492"
         sodipodi:role="line">trg</tspan></text>
    <text
       xml:space="preserve"
       style="font-style:normal;font-weight:normal;font-size:10.58333302px;line-height:1.25;font-family:sans-serif;letter-spacing:0px;word-spacing:0px;fill:#000000;fill-opacity:1;stroke:none;stroke-width:0.26458332"
       x="20.711658"
       y="288.87244"
       id="text1498"
       transform="rotate(1.9714728)"><tspan
         sodipodi:role="line"
         id="tspan1496"
         x="20.711658"
         y="288.87244"
         style="font-style:normal;font-variant:normal;font-weight:normal;font-stretch:normal;font-size:2.82222223px;font-family:sans-serif;-inkscape-font-specification:'sans-serif, Normal';font-variant-ligatures:normal;font-variant-caps:normal;font-variant-numeric:normal;font-feature-settings:normal;text-align:start;writing-mode:lr-tb;text-anchor:start;stroke-width:0.26458332">in</tspan></text>
    <text
       transform="rotate(0.49746114)"
       id="text1521"
       y="289.16214"
       x="20.314623"
       style="font-style:normal;font-weight:normal;font-size:10.58333302px;line-height:1.25;font-family:sans-serif;letter-spacing:0px;word-spacing:0px;fill:#000000;fill-opacity:1;stroke:none;stroke-width:0.26458332"
       xml:space="preserve"><tspan
         style="font-style:normal;font-variant:normal;font-weight:normal;font-stretch:normal;font-size:3.17499995px;font-family:sans-serif;-inkscape-font-specification:'sans-serif, Normal';font-variant-ligatures:normal;font-variant-caps:normal;font-variant-numeric:normal;font-feature-settings:normal;text-align:start;writing-mode:lr-tb;text-anchor:start;stroke-width:0.26458332"
         y="289.16214"
         x="20.314623"
         id="tspan1519"
         sodipodi:role="line">clr</tspan></text>
    <text
       transform="matrix(1.0139335,-0.02825079,0.06854811,0.98434808,0,0)"
       id="text1645"
       y="204.61243"
       x="-10.296249"
       style="font-style:normal;font-weight:normal;font-size:10.74719143px;line-height:1.25;font-family:sans-serif;letter-spacing:0px;word-spacing:0px;fill:#000000;fill-opacity:1;stroke:none;stroke-width:0.26867977"
       xml:space="preserve"><tspan
         style="font-style:normal;font-variant:normal;font-weight:normal;font-stretch:normal;font-size:5.01535606px;font-family:sans-serif;-inkscape-font-specification:'sans-serif, Normal';font-variant-ligatures:normal;font-variant-caps:normal;font-variant-numeric:normal;font-feature-settings:normal;text-align:start;writing-mode:lr-tb;text-anchor:start;stroke-width:0.26867977"
         y="204.61243"
         x="-10.296249"
         id="tspan1643"
         sodipodi:role="line">debug</tspan></text>
  </g>
  <g
     inkscape:groupmode="layer"
     id="layer3"
     inkscape:label="bg" />
  <g
     style="display:inline"
     transform="translate(0,-196.45832)"
     id="g1669"
     inkscape:groupmode="layer"
     inkscape:label="Layer 1 copy">
    <path
       inkscape:connector-curvature="0"
       id="path1647"
       d="m 3.3675958,196.50508 29.4508772,0.0439 c 0.371889,36.41379 4.379545,66.57767 4.240217,100.45203 L 0,296.99999 Z"
       style="opacity:1;vector-effect:none;fill:#f9f9f9;fill-opacity:1;fill-rule:evenodd;stroke:none;stroke-width:0.56126612;stroke-linecap:butt;stroke-linejoin:round;stroke-miterlimit:4;stroke-dasharray:none;stroke-dashoffset:0;stroke-opacity:1;paint-order:normal"
       sodipodi:nodetypes="ccccc" />
    <g
       aria-label="computerscare"
       transform="matrix(0.88239335,0.02712605,-0.02228771,1.0739475,17.442054,-22.739031)"
       style="font-style:normal;font-weight:normal;font-size:10.58333302px;line-height:1.25;font-family:sans-serif;letter-spacing:0px;word-spacing:0px;fill:#000000;fill-opacity:1;stroke:none;stroke-width:0.26458332"
       id="text1651">
      <path
         d="m 19.923396,292.01509 -0.02249,0.23707 q -0.102822,-0.0489 -0.209921,-0.0673 -0.10558,-0.0199 -0.21685,-0.009 -0.248878,0.0238 -0.40142,0.19401 -0.15242,0.16888 -0.179227,0.45145 -0.0268,0.28254 0.09593,0.42654 0.122866,0.14262 0.371738,0.11887 0.111231,-0.0106 0.222405,-0.0498 0.112711,-0.0408 0.226785,-0.11044 l -0.02223,0.23431 q -0.111772,0.0599 -0.229512,0.0956 -0.116357,0.0357 -0.245659,0.048 -0.351747,0.0335 -0.538124,-0.16582 -0.18637,-0.19938 -0.151063,-0.57153 0.03583,-0.37767 0.264909,-0.61397 0.23047,-0.23642 0.594739,-0.27118 0.118172,-0.0112 0.228394,0.003 0.110394,0.0127 0.211482,0.0509 z"
         style="font-style:normal;font-variant:normal;font-weight:normal;font-stretch:normal;font-size:2.82222223px;font-family:sans-serif;-inkscape-font-specification:'sans-serif, Normal';font-variant-ligatures:normal;font-variant-caps:normal;font-variant-numeric:normal;font-feature-settings:normal;text-align:start;writing-mode:lr-tb;text-anchor:start;stroke-width:0.26458332"
         id="path1701"
         inkscape:connector-curvature="0" />
      <path
         d="m 20.991412,292.23311 q -0.205711,0.0223 -0.339672,0.22398 -0.133845,0.20011 -0.158859,0.52726 -0.02501,0.32715 0.07869,0.50317 0.105218,0.17425 0.312311,0.15186 0.204306,-0.0221 0.338283,-0.22384 0.133968,-0.20175 0.15886,-0.52727 0.02477,-0.32389 -0.08032,-0.49977 -0.104967,-0.17751 -0.309282,-0.15539 z m 0.01941,-0.25391 q 0.333568,-0.0361 0.504572,0.19722 0.170997,0.23332 0.136646,0.68254 -0.03423,0.4476 -0.244185,0.72373 -0.209831,0.27449 -0.543405,0.31058 -0.33497,0.0363 -0.505964,-0.19707 -0.169483,-0.23508 -0.135254,-0.68269 0.03435,-0.44922 0.242794,-0.72358 0.209832,-0.27449 0.544796,-0.31073 z"
         style="font-style:normal;font-variant:normal;font-weight:normal;font-stretch:normal;font-size:2.82222223px;font-family:sans-serif;-inkscape-font-specification:'sans-serif, Normal';font-variant-ligatures:normal;font-variant-caps:normal;font-variant-numeric:normal;font-feature-settings:normal;text-align:start;writing-mode:lr-tb;text-anchor:start;stroke-width:0.28758317"
         id="path1703"
         inkscape:connector-curvature="0" />
      <path
         d="m 23.439211,292.24761 c 0.07212,-0.16189 0.158709,-0.28115 0.259781,-0.35779 0.101068,-0.0767 0.220289,-0.11452 0.357661,-0.11378 0.184923,10e-4 0.32797,0.0826 0.429142,0.24413 0.101165,0.16033 0.152468,0.38843 0.15391,0.6843 l 0.0065,1.3275 -0.293235,-0.002 c -0.03516,-0.22899 -0.03645,-0.67288 -0.0064,-1.31574 -0.001,-0.21077 -0.0319,-0.36739 -0.09263,-0.46989 -0.06074,-0.10241 -0.15292,-0.15409 -0.276549,-0.15483 -0.151108,-9e-4 -0.270213,0.0605 -0.357313,0.18438 -0.0871,0.12385 -0.130127,0.29313 -0.12908,0.50783 l 0.006,1.24308 -0.293236,-0.002 -0.0064,-1.31574 c -10e-4,-0.21208 -0.03192,-0.36871 -0.09263,-0.46988 -0.06074,-0.10252 -0.153976,-0.15409 -0.279718,-0.15485 -0.148996,-9.1e-4 -0.267039,0.0613 -0.354134,0.18636 -0.0871,0.12385 -0.13013,0.29247 -0.129091,0.50587 l 0.006,1.24305 -0.293229,-0.002 -0.01076,-2.19941 0.293234,0.002 0.0017,0.34168 c 0.06591,-0.13442 0.145214,-0.23344 0.237888,-0.29703 0.09267,-0.0635 0.202947,-0.0949 0.330808,-0.0941 0.128919,7.7e-4 0.238485,0.0419 0.328699,0.12367 0.09127,0.0817 0.158948,0.19987 0.203026,0.35467 z"
         style="font-style:normal;font-variant:normal;font-weight:normal;font-stretch:normal;font-size:2.82222223px;font-family:sans-serif;-inkscape-font-specification:'sans-serif, Normal';font-variant-ligatures:normal;font-variant-caps:normal;font-variant-numeric:normal;font-feature-settings:normal;text-align:start;writing-mode:lr-tb;text-anchor:start;stroke-width:0.33873674"
         id="path1705"
         inkscape:connector-curvature="0"
         sodipodi:nodetypes="ccccccccccccccccccccccccccccc" />
      <path
         d="m 25.430632,293.96359 0.01789,1.52891 -0.255075,-0.005 -0.04664,-3.97933 0.255076,0.005 0.0052,0.43756 q 0.07695,-0.25564 0.196834,-0.37655 0.121234,-0.12327 0.290826,-0.11967 0.281271,0.006 0.461276,0.42696 0.18138,0.42086 0.189355,1.10039 0.008,0.67953 -0.163618,1.09264 -0.170214,0.41314 -0.451489,0.40698 -0.169593,-0.004 -0.293754,-0.12984 -0.122816,-0.12875 -0.205807,-0.38792 z m 0.851318,-0.98751 q -0.0062,-0.52252 -0.125425,-0.82107 -0.117943,-0.30106 -0.31925,-0.30548 -0.201304,-0.004 -0.313621,0.29163 -0.110966,0.29348 -0.104833,0.81603 0.0062,0.5225 0.124077,0.82357 0.119292,0.29854 0.320598,0.30296 0.201304,0.004 0.312272,-0.28909 0.112314,-0.29603 0.106182,-0.81855 z"
         style="font-style:normal;font-variant:normal;font-weight:normal;font-stretch:normal;font-size:2.82222223px;font-family:sans-serif;-inkscape-font-specification:'sans-serif, Normal';font-variant-ligatures:normal;font-variant-caps:normal;font-variant-numeric:normal;font-feature-settings:normal;text-align:start;writing-mode:lr-tb;text-anchor:start;stroke-width:0.36165768"
         id="path1707"
         inkscape:connector-curvature="0" />
      <path
         d="m 26.547644,293.03849 -0.0088,-1.28326 0.251393,-0.0861 0.0088,1.27002 q 0.0021,0.30093 0.08782,0.42346 0.08573,0.1206 0.255154,0.0629 0.203576,-0.0691 0.319839,-0.28926 0.117632,-0.22034 0.115499,-0.53075 l -0.0083,-1.20185 0.251393,-0.0861 0.0146,2.11985 -0.251392,0.0861 -0.0022,-0.32555 q -0.09022,0.22424 -0.211162,0.36035 -0.119596,0.13358 -0.27945,0.18824 -0.263689,0.0901 -0.401877,-0.0907 -0.138189,-0.18057 -0.141192,-0.61777 z"
         style="font-style:normal;font-variant:normal;font-weight:normal;font-stretch:normal;font-size:2.82222223px;font-family:sans-serif;-inkscape-font-specification:'sans-serif, Normal';font-variant-ligatures:normal;font-variant-caps:normal;font-variant-numeric:normal;font-feature-settings:normal;text-align:start;writing-mode:lr-tb;text-anchor:start;stroke-width:0.30911627"
         id="path1709"
         inkscape:connector-curvature="0" />
      <path
         d="m 28.603514,291.16851 0.004,0.59805 0.522398,0.005 0.0018,0.26893 -0.522398,-0.005 0.0077,1.14343 q 0.0017,0.25764 0.05323,0.33147 0.05288,0.0737 0.211384,0.0752 l 0.26051,0.002 0.002,0.28963 -0.260512,-0.002 q -0.29359,-0.003 -0.406241,-0.1523 -0.112663,-0.15148 -0.115329,-0.54642 l -0.0077,-1.14342 -0.186078,-0.002 -0.0018,-0.26893 0.186079,0.002 -0.004,-0.59804 z"
         style="font-style:normal;font-variant:normal;font-weight:normal;font-stretch:normal;font-size:2.82222223px;font-family:sans-serif;-inkscape-font-specification:'sans-serif, Normal';font-variant-ligatures:normal;font-variant-caps:normal;font-variant-numeric:normal;font-feature-settings:normal;text-align:start;writing-mode:lr-tb;text-anchor:start;stroke-width:0.30911627"
         id="path1711"
         inkscape:connector-curvature="0" />
      <path
         d="m 20.413105,294.95988 0.0023,0.21567 -1.153417,0.49114 q 0.02126,0.44831 0.162885,0.62875 0.142975,0.17746 0.392472,0.0712 0.14451,-0.0623 0.278821,-0.18134 0.13567,-0.12037 0.267943,-0.30184 l 0.0045,0.41699 q -0.133894,0.15819 -0.27512,0.2713 -0.141226,0.11298 -0.287107,0.17511 -0.365384,0.15566 -0.583446,-0.127 -0.2167,-0.28331 -0.223542,-0.92075 -0.007,-0.65898 0.190567,-1.13071 0.198975,-0.47469 0.542546,-0.62097 0.308129,-0.13062 0.490483,0.14271 0.183696,0.2709 0.190125,0.86996 z m -0.252248,-0.0224 q -0.0066,-0.36066 -0.122087,-0.52819 -0.114112,-0.16811 -0.29953,-0.0891 -0.209965,0.0889 -0.334515,0.35185 -0.123194,0.2619 -0.138218,0.64863 z"
         style="font-style:normal;font-variant:normal;font-weight:normal;font-stretch:normal;font-size:2.82222223px;font-family:sans-serif;-inkscape-font-specification:'sans-serif, Normal';font-variant-ligatures:normal;font-variant-caps:normal;font-variant-numeric:normal;font-feature-settings:normal;text-align:start;writing-mode:lr-tb;text-anchor:start;stroke-width:0.34783715"
         id="path1713"
         inkscape:connector-curvature="0" />
      <path
         d="m 23.284784,294.70192 q -0.04514,-0.0421 -0.09812,-0.0672 -0.05164,-0.0267 -0.114005,-0.0387 -0.221156,-0.0427 -0.333485,0.12521 -0.11098,0.16631 -0.0984,0.52187 l 0.03906,1.10414 -0.262265,-0.0506 -0.07414,-2.09598 0.262265,0.0506 0.01154,0.32562 q 0.07549,-0.17501 0.204072,-0.24125 0.128526,-0.0683 0.31708,-0.0317 0.02694,0.005 0.05974,0.0169 0.03272,0.0104 0.07279,0.0275 z"
         style="font-style:normal;font-variant:normal;font-weight:normal;font-stretch:normal;font-size:2.82222223px;font-family:sans-serif;-inkscape-font-specification:'sans-serif, Normal';font-variant-ligatures:normal;font-variant-caps:normal;font-variant-numeric:normal;font-feature-settings:normal;text-align:start;writing-mode:lr-tb;text-anchor:start;stroke-width:0.3116622"
         id="path1715"
         inkscape:connector-curvature="0" />
      <path
         d="m 24.78472,295.00025 -0.03289,0.31613 q -0.09894,-0.0944 -0.209845,-0.1542 -0.110904,-0.0599 -0.233787,-0.085 -0.187054,-0.0383 -0.289205,0.0189 -0.100789,0.0574 -0.116665,0.20996 -0.01209,0.11634 0.04781,0.19718 0.0601,0.079 0.255932,0.18031 l 0.08337,0.043 q 0.259669,0.13103 0.357077,0.29373 0.09896,0.16122 0.07306,0.41015 -0.02948,0.28341 -0.215991,0.41416 -0.18514,0.13102 -0.480057,0.0708 -0.122881,-0.025 -0.253286,-0.0851 -0.12923,-0.0578 -0.270064,-0.1517 l 0.03591,-0.34519 q 0.129254,0.12472 0.259316,0.2014 0.130258,0.0749 0.262698,0.10184 0.177498,0.0363 0.281384,-0.0241 0.104077,-0.0623 0.119389,-0.20939 0.01419,-0.13627 -0.04789,-0.22317 -0.06071,-0.0866 -0.287191,-0.20152 l -0.08453,-0.0451 q -0.226673,-0.11301 -0.316453,-0.26874 -0.08959,-0.15744 -0.06502,-0.39365 0.02986,-0.28705 0.199042,-0.41206 0.169174,-0.12502 0.450438,-0.0676 0.139267,0.0284 0.25931,0.0809 0.120043,0.0523 0.218144,0.12801 z"
         style="font-style:normal;font-variant:normal;font-weight:normal;font-stretch:normal;font-size:2.82222223px;font-family:sans-serif;-inkscape-font-specification:'sans-serif, Normal';font-variant-ligatures:normal;font-variant-caps:normal;font-variant-numeric:normal;font-feature-settings:normal;text-align:start;writing-mode:lr-tb;text-anchor:start;stroke-width:0.30559522"
         id="path1717"
         inkscape:connector-curvature="0" />
      <path
         d="m 21.878031,294.49011 0.02003,0.25439 q -0.11212,-0.0543 -0.223044,-0.0758 -0.109669,-0.0231 -0.219523,-0.0136 -0.245798,0.0215 -0.368466,0.20193 -0.122783,0.17899 -0.09891,0.48219 0.02388,0.30318 0.173098,0.45992 0.149107,0.15526 0.394904,0.1338 0.109854,-0.009 0.21452,-0.05 0.10592,-0.042 0.208015,-0.11499 l 0.0198,0.25142 q -0.101541,0.0625 -0.21342,0.099 -0.110505,0.0365 -0.23821,0.0476 -0.347414,0.0303 -0.570536,-0.18697 -0.223122,-0.21728 -0.254568,-0.61661 -0.03191,-0.40525 0.155777,-0.65543 0.189064,-0.2503 0.548836,-0.28171 0.11672,-0.0106 0.230044,0.007 0.113206,0.0154 0.221649,0.0582 z"
         style="font-style:normal;font-variant:normal;font-weight:normal;font-stretch:normal;font-size:2.82222223px;font-family:sans-serif;-inkscape-font-specification:'sans-serif, Normal';font-variant-ligatures:normal;font-variant-caps:normal;font-variant-numeric:normal;font-feature-settings:normal;text-align:start;writing-mode:lr-tb;text-anchor:start;stroke-width:0.27455816"
         id="path1719"
         inkscape:connector-curvature="0" />
      <path
         d="m 27.412193,295.73334 q -0.313239,-0.009 -0.424667,0.0586 -0.111423,0.0679 -0.08883,0.23985 0.018,0.13708 0.118553,0.22085 0.101761,0.0824 0.257682,0.087 0.214909,0.006 0.324302,-0.14097 0.110608,-0.14864 0.07754,-0.4004 l -0.0075,-0.0574 z m 0.501549,-0.0911 0.117387,0.89383 -0.258456,-0.008 -0.03124,-0.2378 q -0.06976,0.14008 -0.192791,0.20475 -0.123225,0.0632 -0.314255,0.0577 -0.241599,-0.007 -0.402509,-0.14558 -0.159691,-0.13985 -0.18945,-0.36644 -0.03474,-0.26439 0.124631,-0.39346 0.160756,-0.12903 0.513323,-0.11868 l 0.362401,0.0105 -0.0033,-0.0251 q -0.02332,-0.17765 -0.153994,-0.27761 -0.129449,-0.10136 -0.341554,-0.10762 -0.134846,-0.004 -0.258443,0.0245 -0.123597,0.0285 -0.233136,0.0893 l -0.03124,-0.23779 q 0.134715,-0.0503 0.26466,-0.073 0.129765,-0.0241 0.256179,-0.0204 0.34133,0.01 0.533037,0.19122 0.191703,0.18118 0.238731,0.53927 z"
         style="font-style:normal;font-variant:normal;font-weight:normal;font-stretch:normal;font-size:2.82222223px;font-family:sans-serif;-inkscape-font-specification:'sans-serif, Normal';font-variant-ligatures:normal;font-variant-caps:normal;font-variant-numeric:normal;font-feature-settings:normal;text-align:start;writing-mode:lr-tb;text-anchor:start;stroke-width:0.26860911"
         id="path1721"
         inkscape:connector-curvature="0" />
      <path
         d="m 26.472843,295.09854 q -0.04501,-0.0348 -0.09791,-0.0551 -0.05154,-0.0217 -0.113856,-0.0311 -0.22092,-0.033 -0.333546,0.10961 -0.111277,0.14106 -0.09949,0.43935 l 0.0366,0.92631 -0.261988,-0.0389 -0.06953,-1.7584 0.261987,0.0389 0.01079,0.27317 q 0.07582,-0.14793 0.204473,-0.20525 0.1286,-0.059 0.316946,-0.0309 0.02691,0.004 0.05965,0.013 0.03268,0.008 0.07268,0.0222 z"
         style="font-style:normal;font-variant:normal;font-weight:normal;font-stretch:normal;font-size:2.82222223px;font-family:sans-serif;-inkscape-font-specification:'sans-serif, Normal';font-variant-ligatures:normal;font-variant-caps:normal;font-variant-numeric:normal;font-feature-settings:normal;text-align:start;writing-mode:lr-tb;text-anchor:start;stroke-width:0.28544712"
         id="path1723"
         inkscape:connector-curvature="0" />
      <path
         d="m 29.180942,295.06586 -0.0012,0.13357 -1.588205,0.11524 c 0.01422,0.1879 -0.0095,0.22649 0.12516,0.32455 0.136053,0.0971 0.325675,0.14483 0.568893,0.14327 0.140872,-9.6e-4 0.277221,-0.0146 0.409023,-0.0412 0.133142,-0.0267 0.467231,-0.11564 0.597927,-0.16796 l -0.0022,0.25826 c -0.13194,0.0425 -0.469305,0.1246 -0.607717,0.14724 -0.138405,0.0226 -0.278722,0.0345 -0.420929,0.0354 -0.356179,0.002 -0.637947,-0.0731 -0.845273,-0.22606 -0.206002,-0.15303 -0.30785,-0.36114 -0.305567,-0.62435 0.0024,-0.2721 0.102588,-0.48845 0.300665,-0.64903 0.199427,-0.16157 0.466594,-0.24344 0.801518,-0.24561 0.300379,-0.002 0.536981,0.0689 0.709837,0.2121 0.174189,0.14235 0.260215,0.33721 0.258068,0.58459 z m -0.366128,-0.0777 c -0.0016,-0.14939 -0.05685,-0.26825 -0.166351,-0.35659 -0.108212,-0.0883 -0.252694,-0.13195 -0.433447,-0.13077 -0.204667,8.5e-4 -0.369187,0.0454 -0.493538,0.1323 -0.12303,0.0868 0.259917,0.18482 0.239957,0.34127 z"
         style="font-style:normal;font-variant:normal;font-weight:normal;font-stretch:normal;font-size:2.82222223px;font-family:sans-serif;-inkscape-font-specification:'sans-serif, Normal';font-variant-ligatures:normal;font-variant-caps:normal;font-variant-numeric:normal;font-feature-settings:normal;text-align:start;writing-mode:lr-tb;text-anchor:start;stroke-width:0.33026147"
         id="path1725"
         inkscape:connector-curvature="0"
         sodipodi:nodetypes="ccccscccsscscscccccsccc" />
      <path
         inkscape:connector-curvature="0"
         id="path1148"
         style="font-style:normal;font-variant:normal;font-weight:normal;font-stretch:normal;font-size:2.82222223px;font-family:sans-serif;-inkscape-font-specification:'sans-serif, Normal';font-variant-ligatures:normal;font-variant-caps:normal;font-variant-numeric:normal;font-feature-settings:normal;text-align:start;writing-mode:lr-tb;text-anchor:start;stroke-width:0.26458332"
         d="m 20.2544,292.31159 -0.02249,0.23707 q -0.102823,-0.0489 -0.209921,-0.0673 -0.105581,-0.0199 -0.216851,-0.009 -0.248877,0.0238 -0.40142,0.19401 -0.15242,0.16888 -0.179227,0.45145 -0.0268,0.28254 0.09593,0.42654 0.122866,0.14262 0.371738,0.11887 0.111232,-0.0106 0.222405,-0.0498 0.112712,-0.0408 0.226785,-0.11044 l -0.02223,0.23431 q -0.111772,0.0599 -0.229512,0.0956 -0.116356,0.0357 -0.245659,0.048 -0.351747,0.0335 -0.538124,-0.16582 -0.18637,-0.19938 -0.151063,-0.57153 0.03583,-0.37767 0.26491,-0.61397 0.230469,-0.23642 0.594739,-0.27118 0.118172,-0.0112 0.228393,0.003 0.110394,0.0127 0.211483,0.0509 z" />
      <path
         inkscape:connector-curvature="0"
         id="path1150"
         style="font-style:normal;font-variant:normal;font-weight:normal;font-stretch:normal;font-size:2.82222223px;font-family:sans-serif;-inkscape-font-specification:'sans-serif, Normal';font-variant-ligatures:normal;font-variant-caps:normal;font-variant-numeric:normal;font-feature-settings:normal;text-align:start;writing-mode:lr-tb;text-anchor:start;stroke-width:0.28758317"
         d="m 21.322415,292.52961 q -0.205711,0.0223 -0.339672,0.22398 -0.133845,0.20011 -0.158859,0.52726 -0.02501,0.32715 0.07869,0.50317 0.105218,0.17425 0.312311,0.15186 0.204306,-0.0221 0.338283,-0.22384 0.133968,-0.20175 0.15886,-0.52727 0.02477,-0.32389 -0.08032,-0.49977 -0.104967,-0.17751 -0.309282,-0.15539 z m 0.01941,-0.25391 q 0.333568,-0.0361 0.504572,0.19722 0.170997,0.23332 0.136646,0.68254 -0.03423,0.4476 -0.244185,0.72373 -0.209831,0.27449 -0.543405,0.31058 -0.33497,0.0363 -0.505964,-0.19707 -0.169483,-0.23508 -0.135254,-0.68269 0.03435,-0.44922 0.242794,-0.72358 0.209832,-0.27449 0.544796,-0.31073 z" />
      <path
         sodipodi:nodetypes="ccccccccccccccccccccccccccccc"
         inkscape:connector-curvature="0"
         id="path1152"
         style="font-style:normal;font-variant:normal;font-weight:normal;font-stretch:normal;font-size:2.82222223px;font-family:sans-serif;-inkscape-font-specification:'sans-serif, Normal';font-variant-ligatures:normal;font-variant-caps:normal;font-variant-numeric:normal;font-feature-settings:normal;text-align:start;writing-mode:lr-tb;text-anchor:start;stroke-width:0.33873674"
         d="m 23.770214,292.54411 c 0.07212,-0.16189 0.158709,-0.28115 0.259781,-0.35779 0.101068,-0.0767 0.220289,-0.11452 0.357661,-0.11378 0.184923,10e-4 0.32797,0.0826 0.429142,0.24413 0.101165,0.16033 0.152468,0.38843 0.15391,0.6843 l 0.0065,1.3275 -0.293235,-0.002 c -0.03516,-0.22899 -0.03645,-0.67288 -0.0064,-1.31574 -10e-4,-0.21077 -0.0319,-0.36739 -0.09263,-0.46989 -0.06074,-0.10241 -0.15292,-0.15409 -0.276549,-0.15483 -0.151108,-9e-4 -0.270213,0.0605 -0.357313,0.18438 -0.0871,0.12385 -0.130127,0.29313 -0.12908,0.50783 l 0.006,1.24308 -0.293236,-0.002 -0.0064,-1.31574 c -0.001,-0.21208 -0.03192,-0.36871 -0.09263,-0.46988 -0.06074,-0.10252 -0.153976,-0.15409 -0.279718,-0.15485 -0.148996,-9.1e-4 -0.267039,0.0613 -0.354134,0.18636 -0.0871,0.12385 -0.13013,0.29247 -0.129091,0.50587 l 0.006,1.24305 -0.293229,-0.002 -0.01076,-2.19941 0.293234,0.002 0.0017,0.34168 c 0.06591,-0.13442 0.145214,-0.23344 0.237888,-0.29703 0.09267,-0.0635 0.202947,-0.0949 0.330808,-0.0941 0.128919,7.7e-4 0.238485,0.0419 0.328699,0.12367 0.09127,0.0817 0.158948,0.19987 0.203026,0.35467 z" />
    </g>
    <g
       id="g9547"
       transform="matrix(0.24212987,0,0,0.24730558,19.088303,290.53059)">
      <g
         style="display:inline"
         inkscape:label="Layer 1"
         id="layer4" />
      <path
         id="rect5872"
         d="m 11.987289,9.3234482 h 7.991524 v 3.9957608 h -7.991524 z"
         style="opacity:1;fill:#0f0f00;fill-opacity:1;stroke:#000000;stroke-width:0;stroke-miterlimit:4;stroke-dasharray:none;stroke-opacity:1"
         inkscape:connector-curvature="0" />
      <path
         id="rect5874"
         d="m 14.667374,10.662096 h 3.995763 v 1.331921 h -3.995763 z"
         style="opacity:1;fill:#ffffff;fill-opacity:0.98571424;stroke:#000000;stroke-width:0;stroke-miterlimit:4;stroke-dasharray:none;stroke-opacity:1"
         inkscape:connector-curvature="0" />
      <path
         id="rect5878"
         d="m -29.323654,9.3234482 h 7.989551 v 3.9957608 h -7.989551 z"
         style="opacity:1;fill:#0c0c00;fill-opacity:1;stroke:#000000;stroke-width:0;stroke-miterlimit:4;stroke-dasharray:none;stroke-opacity:1"
         transform="scale(-1,1)"
         inkscape:connector-curvature="0" />
      <path
         id="rect5880"
         d="m -26.64423,10.662096 h 3.994777 v 1.331921 h -3.994777 z"
         style="opacity:1;fill:#ffffff;fill-opacity:0.98571424;stroke:#000000;stroke-width:0;stroke-miterlimit:4;stroke-dasharray:none;stroke-opacity:1"
         transform="scale(-1,1)"
         inkscape:connector-curvature="0" />
      <path
         id="rect5882"
         d="m 19.995058,14.667374 h 1.331921 v 3.995762 h -1.331921 z"
         style="opacity:1;fill:#000000;fill-opacity:1;stroke:#000000;stroke-width:0;stroke-miterlimit:4;stroke-dasharray:none;stroke-opacity:1"
         inkscape:connector-curvature="0" />
      <path
         id="rect5884"
         d="m 21.326979,17.331215 h 1.315677 v 1.33192 h -1.315677 z"
         style="opacity:1;fill:#000000;fill-opacity:1;stroke:#000000;stroke-width:0;stroke-miterlimit:4;stroke-dasharray:none;stroke-opacity:1"
         inkscape:connector-curvature="0" />
      <path
         id="rect5886"
         d="m 11.954803,20.011301 h 2.696328 v 2.663842 h -2.696328 z"
         style="opacity:1;fill:#000200;fill-opacity:1;stroke:#000000;stroke-width:0;stroke-miterlimit:4;stroke-dasharray:none;stroke-opacity:1"
         inkscape:connector-curvature="0" />
      <path
         id="rect5888"
         d="m 27.970341,20.011301 h 2.696327 v 2.663842 h -2.696327 z"
         style="opacity:1;fill:#000200;fill-opacity:1;stroke:#000000;stroke-width:0;stroke-miterlimit:4;stroke-dasharray:none;stroke-opacity:1"
         inkscape:connector-curvature="0" />
      <path
         id="rect5890"
         d="m 14.651131,20.011301 h 13.351695 v 1.33192 H 14.651131 Z"
         style="opacity:1;fill:#000200;fill-opacity:1;stroke:#000000;stroke-width:0;stroke-miterlimit:4;stroke-dasharray:none;stroke-opacity:1"
         inkscape:connector-curvature="0" />
    </g>
    <path
       style="fill:#1e8ea6;fill-opacity:1;stroke:#000000;stroke-width:0.66299999;stroke-linecap:round;stroke-linejoin:round;stroke-miterlimit:4;stroke-dasharray:none;stroke-opacity:1;paint-order:stroke fill markers"
       d="M 1.1225319,197.28174 H 36.482285 v 5.65942 L 1.5434814,201.63154 Z"
       id="rect1229"
       inkscape:connector-curvature="0"
       sodipodi:nodetypes="ccccc" />
    <g
       aria-label="Foly Pace"
       transform="scale(1.1520329,0.86803076)"
       style="font-style:normal;font-weight:normal;font-size:6.52092457px;line-height:1.25;font-family:sans-serif;letter-spacing:0px;word-spacing:0px;fill:#000000;fill-opacity:1;stroke:none;stroke-width:0.1630231"
       id="text1089">
      <path
         d="m 1.3888163,227.25727 h 2.7319108 v 0.54129 H 2.0319934 v 1.40098 h 1.8849548 v 0.54128 H 2.0319934 v 2.27023 H 1.3888163 Z"
         style="stroke-width:0.1630231"
         id="path1212" />
      <path
         d="m 6.2731415,228.85566 q -0.4712387,0 -0.7450666,0.36935 -0.2738279,0.36616 -0.2738279,1.00616 0,0.63999 0.2706439,1.00934 0.2738278,0.36616 0.7482506,0.36616 0.4680546,0 0.7418825,-0.36935 0.2738279,-0.36934 0.2738279,-1.00615 0,-0.63363 -0.2738279,-1.00298 -0.2738279,-0.37253 -0.7418825,-0.37253 z m 0,-0.49671 q 0.7641708,0 1.200385,0.49671 0.4362142,0.49671 0.4362142,1.37551 0,0.87561 -0.4362142,1.3755 -0.4362142,0.49671 -1.200385,0.49671 -0.7673549,0 -1.2035691,-0.49671 -0.4330302,-0.49989 -0.4330302,-1.3755 0,-0.8788 0.4330302,-1.37551 0.4362142,-0.49671 1.2035691,-0.49671 z"
         style="stroke-width:0.1630231"
         id="path1214" />
      <path
         d="m 8.8776905,227.05667 h 0.5858644 v 4.95438 H 8.8776905 Z"
         style="stroke-width:0.1630231"
         id="path1216" />
      <path
         d="m 12.169994,232.34219 q -0.248356,0.63681 -0.483975,0.83103 -0.23562,0.19423 -0.630441,0.19423 h -0.468055 v -0.49034 H 10.9314 q 0.241987,0 0.375717,-0.11463 0.13373,-0.11462 0.296117,-0.54129 l 0.105073,-0.26746 -1.442372,-3.50881 h 0.620888 l 1.114416,2.78922 1.114416,-2.78922 h 0.620889 z"
         style="stroke-width:0.1630231"
         id="path1218" />
      <path
         d="m 17.289938,227.78582 v 1.78625 h 0.808747 q 0.44895,0 0.694122,-0.23244 0.245171,-0.23243 0.245171,-0.66228 0,-0.42666 -0.245171,-0.6591 -0.245172,-0.23243 -0.694122,-0.23243 z m -0.643178,-0.52855 h 1.451925 q 0.799195,0 1.206753,0.36298 0.410742,0.3598 0.410742,1.0571 0,0.70368 -0.410742,1.06347 -0.407558,0.3598 -1.206753,0.3598 h -0.808747 v 1.91043 H 16.64676 Z"
         style="stroke-width:0.1630231"
         id="path1220" />
      <path
         d="m 21.890883,230.21843 q -0.710042,0 -0.98387,0.16239 -0.273828,0.16238 -0.273828,0.55402 0,0.31204 0.203779,0.49671 0.206963,0.18149 0.560392,0.18149 0.487159,0 0.780091,-0.34388 0.296117,-0.34706 0.296117,-0.92018 v -0.13055 z m 1.168545,-0.24199 v 2.03461 h -0.585864 v -0.54129 q -0.200595,0.32477 -0.499896,0.48079 -0.2993,0.15283 -0.73233,0.15283 -0.547656,0 -0.872428,-0.30566 -0.321589,-0.30886 -0.321589,-0.82467 0,-0.60179 0.40119,-0.90745 0.404374,-0.30567 1.203569,-0.30567 h 0.821484 v -0.0573 q 0,-0.40437 -0.26746,-0.62407 -0.264276,-0.22288 -0.745067,-0.22288 -0.305668,0 -0.595416,0.0732 -0.289748,0.0732 -0.557208,0.2197 v -0.54129 q 0.321588,-0.12417 0.624073,-0.18467 0.302484,-0.0637 0.589048,-0.0637 0.773723,0 1.155808,0.40119 0.382086,0.40119 0.382086,1.2163 z"
         style="stroke-width:0.1630231"
         id="path1222" />
      <path
         d="m 26.842072,228.58183 v 0.54766 q -0.248355,-0.13692 -0.499895,-0.20378 -0.248355,-0.0701 -0.503079,-0.0701 -0.569944,0 -0.885165,0.36298 -0.31522,0.3598 -0.31522,1.01253 0,0.65273 0.31522,1.01571 0.315221,0.35979 0.885165,0.35979 0.254724,0 0.503079,-0.0669 0.25154,-0.07 0.499895,-0.20696 v 0.54128 q -0.245171,0.11463 -0.509447,0.17194 -0.261092,0.0573 -0.557208,0.0573 -0.805563,0 -1.279986,-0.50626 -0.474423,-0.50626 -0.474423,-1.36595 0,-0.87243 0.477607,-1.37233 0.480791,-0.49989 1.315011,-0.49989 0.270643,0 0.528551,0.0573 0.257908,0.0541 0.499895,0.16557 z"
         style="stroke-width:0.1630231"
         id="path1224" />
      <path
         d="m 30.917651,230.08152 v 0.28656 h -2.693702 q 0.03821,0.60497 0.362981,0.92337 0.327957,0.31522 0.910637,0.31522 0.337509,0 0.652729,-0.0828 0.318405,-0.0828 0.630441,-0.24836 v 0.55403 q -0.31522,0.13373 -0.646361,0.20378 -0.33114,0.07 -0.671833,0.07 -0.853324,0 -1.35322,-0.49671 -0.496711,-0.49671 -0.496711,-1.34366 0,-0.87562 0.471239,-1.38825 0.474423,-0.51581 1.276802,-0.51581 0.719594,0 1.136704,0.46487 0.420294,0.46168 0.420294,1.2577 z m -0.585864,-0.17194 q -0.0064,-0.48079 -0.270644,-0.76736 -0.261092,-0.28656 -0.694122,-0.28656 -0.490343,0 -0.786459,0.27701 -0.292932,0.27701 -0.337509,0.78009 z"
         style="stroke-width:0.1630231"
         id="path1226" />
    </g>
    <g
       aria-label="Foly Pace"
       transform="scale(1.1778497,0.84900473)"
       style="font-style:normal;font-variant:normal;font-weight:normal;font-stretch:normal;font-size:6.66705799px;line-height:1.25;font-family:'Telugu MN';-inkscape-font-specification:'Telugu MN, Normal';font-variant-ligatures:normal;font-variant-caps:normal;font-variant-numeric:normal;font-feature-settings:normal;text-align:start;letter-spacing:0px;word-spacing:0px;writing-mode:lr-tb;text-anchor:start;fill:#000000;fill-opacity:1;stroke:none;stroke-width:0.16667645"
       id="text1093">
      <path
         d="m 4.5325661,232.59908 v 0.27997 H 2.4263227 v 1.54306 h 1.5235269 v 0.27996 H 2.4263227 v 2.21367 H 1.7003686 v -4.31666 z"
         style="font-style:normal;font-variant:normal;font-weight:normal;font-stretch:normal;font-size:6.66705799px;font-family:'Telugu MN';-inkscape-font-specification:'Telugu MN, Normal';font-variant-ligatures:normal;font-variant-caps:normal;font-variant-numeric:normal;font-feature-settings:normal;text-align:start;writing-mode:lr-tb;text-anchor:start;stroke-width:0.16667645"
         id="path1195" />
      <path
         d="m 6.6941513,236.98736 q -0.3841372,0 -0.7064217,-0.13347 -0.3222846,-0.13347 -0.5566733,-0.36135 -0.2343888,-0.23113 -0.3678602,-0.53714 -0.1302159,-0.30926 -0.1302159,-0.66085 0,-0.36786 0.1302159,-0.69014 0.1334714,-0.32554 0.3678602,-0.56644 0.2343887,-0.2409 0.5566733,-0.37763 0.3222845,-0.13998 0.7064217,-0.13998 0.3808817,0 0.6999108,0.12696 0.3222846,0.12696 0.5566733,0.34833 0.2343888,0.22136 0.3646048,0.52086 0.1334713,0.29624 0.1334713,0.63806 0,0.37763 -0.1334713,0.71293 -0.130216,0.33205 -0.3646048,0.58272 -0.2343887,0.24741 -0.5566733,0.3939 -0.3190291,0.14324 -0.6999108,0.14324 z m 0.1269605,-0.24416 q 0.195324,0 0.358094,-0.10091 0.1627699,-0.10092 0.2799643,-0.2702 0.1171944,-0.17254 0.1823024,-0.39716 0.065108,-0.22462 0.065108,-0.47529 0,-0.36135 -0.061853,-0.67712 -0.061853,-0.31577 -0.2018348,-0.55016 -0.1399822,-0.23439 -0.3646047,-0.36786 -0.2246226,-0.13673 -0.5469071,-0.13673 -0.1660254,0 -0.3222846,0.0977 -0.1562591,0.0944 -0.2767089,0.26043 -0.1171944,0.16603 -0.1888132,0.39065 -0.071619,0.22137 -0.071619,0.47203 0,0.36461 0.074874,0.68364 0.07813,0.31903 0.2246226,0.55667 0.1497484,0.23765 0.3613493,0.37763 0.2148564,0.13672 0.4883099,0.13672 z"
         style="font-style:normal;font-variant:normal;font-weight:normal;font-stretch:normal;font-size:6.66705799px;font-family:'Telugu MN';-inkscape-font-specification:'Telugu MN, Normal';font-variant-ligatures:normal;font-variant-caps:normal;font-variant-numeric:normal;font-feature-settings:normal;text-align:start;writing-mode:lr-tb;text-anchor:start;stroke-width:0.16667645"
         id="path1197" />
      <path
         d="M 10.053723,236.91574 H 9.3896219 v -4.84403 l 0.4720329,-0.18882 h 0.1920682 z"
         style="font-style:normal;font-variant:normal;font-weight:normal;font-stretch:normal;font-size:6.66705799px;font-family:'Telugu MN';-inkscape-font-specification:'Telugu MN, Normal';font-variant-ligatures:normal;font-variant-caps:normal;font-variant-numeric:normal;font-feature-settings:normal;text-align:start;writing-mode:lr-tb;text-anchor:start;stroke-width:0.16667645"
         id="path1199" />
      <path
         d="m 11.108473,237.70355 q 0.03907,0.0163 0.08464,0.0423 0.04883,0.026 0.104173,0.0488 0.0586,0.026 0.126961,0.0423 0.06836,0.0163 0.153003,0.0163 0.104173,0 0.195324,-0.0586 0.09115,-0.0586 0.166026,-0.14649 0.07487,-0.0879 0.133471,-0.19207 0.0586,-0.10418 0.09766,-0.19533 l 0.224623,-0.50133 -1.702574,-3.17727 h 0.751997 l 1.282627,2.409 1.051494,-2.409 h 0.354839 l -1.702574,3.9195 q -0.107428,0.24416 -0.24741,0.4232 -0.136727,0.17905 -0.292986,0.29625 -0.15626,0.11719 -0.322285,0.17253 -0.166025,0.0586 -0.322284,0.0586 -0.117195,0 -0.227878,-0.0358 -0.110684,-0.0358 -0.185558,-0.0944 z"
         style="font-style:normal;font-variant:normal;font-weight:normal;font-stretch:normal;font-size:6.66705799px;font-family:'Telugu MN';-inkscape-font-specification:'Telugu MN, Normal';font-variant-ligatures:normal;font-variant-caps:normal;font-variant-numeric:normal;font-feature-settings:normal;text-align:start;writing-mode:lr-tb;text-anchor:start;stroke-width:0.16667645"
         id="path1201" />
      <path
         d="m 16.147831,233.22236 h 1.367268 q 0.338561,0 0.634803,0.0814 0.296241,0.0814 0.514353,0.2409 0.221367,0.15626 0.345072,0.38739 0.126961,0.22788 0.126961,0.52412 0,0.29298 -0.123705,0.5111 -0.12045,0.21811 -0.322285,0.36134 -0.198579,0.14324 -0.4525,0.21486 -0.253922,0.0684 -0.517609,0.0684 -0.113939,0 -0.237644,-0.003 -0.123705,-0.007 -0.237644,-0.0163 -0.113939,-0.01 -0.211601,-0.0228 -0.09766,-0.013 -0.159515,-0.026 v 1.99556 h -0.725954 z m 0.725954,2.07695 q 0.123705,0.0423 0.263688,0.0716 0.139982,0.026 0.286475,0.026 0.234388,0 0.41018,-0.0684 0.175792,-0.0716 0.292986,-0.19206 0.117194,-0.12371 0.172536,-0.28648 0.0586,-0.16602 0.0586,-0.35158 0,-0.21811 -0.07487,-0.39391 -0.07487,-0.17579 -0.208345,-0.29949 -0.130216,-0.12696 -0.309263,-0.19533 -0.175792,-0.0684 -0.377627,-0.0684 h -0.514353 z"
         style="font-style:normal;font-variant:normal;font-weight:normal;font-stretch:normal;font-size:6.66705799px;font-family:'Telugu MN';-inkscape-font-specification:'Telugu MN, Normal';font-variant-ligatures:normal;font-variant-caps:normal;font-variant-numeric:normal;font-feature-settings:normal;text-align:start;writing-mode:lr-tb;text-anchor:start;stroke-width:0.16667645"
         id="path1203"
         inkscape:connector-curvature="0" />
      <path
         d="m 22.075915,236.91574 q -0.130216,-0.0651 -0.221368,-0.1823 -0.08789,-0.12045 -0.08789,-0.27345 -0.117195,0.0879 -0.231134,0.1823 -0.110683,0.0944 -0.244155,0.17253 -0.130216,0.0749 -0.292986,0.12371 -0.159514,0.0488 -0.371115,0.0488 -0.195324,0 -0.354839,-0.0651 -0.156259,-0.0618 -0.266942,-0.17253 -0.107429,-0.11069 -0.169281,-0.26369 -0.0586,-0.15301 -0.0586,-0.3288 0,-0.21485 0.08464,-0.38739 0.08464,-0.17254 0.231133,-0.30601 0.149749,-0.13672 0.345073,-0.2409 0.195324,-0.10742 0.416691,-0.18881 0.221367,-0.0846 0.455756,-0.14975 0.234388,-0.0651 0.455756,-0.12045 v -0.20834 q 0,-0.22788 -0.03255,-0.38414 -0.03255,-0.15626 -0.100918,-0.25067 -0.06836,-0.0977 -0.175791,-0.13672 -0.104173,-0.0423 -0.250666,-0.0423 -0.139982,0 -0.257177,0.0553 -0.117194,0.0553 -0.208345,0.14975 -0.0879,0.0911 -0.146493,0.21811 -0.05534,0.1237 -0.07487,0.26369 h -0.605505 q 0.02604,-0.21486 0.146493,-0.38414 0.123705,-0.16928 0.309263,-0.28322 0.185558,-0.1172 0.419947,-0.17905 0.237644,-0.0618 0.491565,-0.0618 0.32554,0 0.546907,0.0651 0.221367,0.0619 0.354839,0.17579 0.133471,0.11394 0.188813,0.27996 0.0586,0.16277 0.0586,0.36135 v 2.05742 q 0,0.153 0.0879,0.27345 0.09115,0.11719 0.221367,0.1823 z m -0.309263,-1.94022 q -0.143238,0.0456 -0.296242,0.10418 -0.153004,0.0586 -0.299497,0.13347 -0.146492,0.0716 -0.279964,0.15626 -0.133471,0.0846 -0.234389,0.1823 -0.100917,0.0977 -0.159514,0.20509 -0.0586,0.10743 -0.0586,0.22462 0,0.12371 0.04558,0.23439 0.04558,0.10743 0.12045,0.19207 0.07487,0.0814 0.172536,0.13021 0.09766,0.0456 0.201835,0.0456 0.110684,0 0.211601,-0.0293 0.100917,-0.0293 0.195324,-0.0781 0.09441,-0.0521 0.188813,-0.11719 0.09441,-0.0651 0.192069,-0.13998 z"
         style="font-style:normal;font-variant:normal;font-weight:normal;font-stretch:normal;font-size:6.66705799px;font-family:'Telugu MN';-inkscape-font-specification:'Telugu MN, Normal';font-variant-ligatures:normal;font-variant-caps:normal;font-variant-numeric:normal;font-feature-settings:normal;text-align:start;writing-mode:lr-tb;text-anchor:start;stroke-width:0.16667645"
         id="path1205" />
      <path
         d="m 25.692663,234.51977 q -0.03581,-0.13022 -0.09766,-0.26369 -0.06185,-0.13347 -0.159515,-0.2409 -0.09441,-0.11068 -0.224622,-0.17905 -0.130216,-0.0684 -0.306008,-0.0684 -0.224622,0 -0.403669,0.0911 -0.179047,0.0911 -0.302752,0.24741 -0.123705,0.15626 -0.188813,0.36461 -0.06511,0.20834 -0.06511,0.44273 0,0.31903 0.08138,0.6055 0.08464,0.28322 0.234388,0.49808 0.153004,0.21486 0.364605,0.34182 0.214856,0.1237 0.478544,0.1237 0.231133,0 0.400414,-0.0716 0.172536,-0.0749 0.296241,-0.19858 0.126961,-0.1237 0.218112,-0.28647 0.09115,-0.16603 0.16277,-0.34833 l 0.198579,0.0814 q -0.08464,0.31252 -0.227878,0.55993 -0.143237,0.24741 -0.338561,0.41994 -0.192069,0.16928 -0.436224,0.26043 -0.240899,0.0879 -0.524119,0.0879 -0.328795,0 -0.615271,-0.12696 -0.286475,-0.13022 -0.498076,-0.35484 -0.211601,-0.22462 -0.335306,-0.52412 -0.123705,-0.2995 -0.123705,-0.64131 0,-0.25067 0.06185,-0.4818 0.06185,-0.23439 0.172536,-0.43622 0.113939,-0.20184 0.270198,-0.36787 0.159515,-0.16602 0.351583,-0.28321 0.192069,-0.12045 0.41018,-0.18556 0.221368,-0.0651 0.459012,-0.0651 0.198579,0 0.380881,0.0456 0.182303,0.0456 0.335307,0.13022 0.153003,0.0814 0.270198,0.20509 0.117194,0.12045 0.182302,0.2702 z"
         style="font-style:normal;font-variant:normal;font-weight:normal;font-stretch:normal;font-size:6.66705799px;font-family:'Telugu MN';-inkscape-font-specification:'Telugu MN, Normal';font-variant-ligatures:normal;font-variant-caps:normal;font-variant-numeric:normal;font-feature-settings:normal;text-align:start;writing-mode:lr-tb;text-anchor:start;stroke-width:0.16667645"
         id="path1207" />
      <path
         d="m 28.729949,236.98736 q -0.338561,0 -0.638058,-0.12696 -0.296241,-0.12696 -0.517609,-0.34507 -0.221367,-0.21811 -0.351583,-0.5111 -0.12696,-0.29624 -0.12696,-0.62829 0,-0.40042 0.117194,-0.73898 0.117195,-0.34182 0.332051,-0.58923 0.214856,-0.24741 0.514353,-0.38739 0.302752,-0.13998 0.673868,-0.13998 0.32554,0 0.598993,0.11719 0.273454,0.11394 0.468778,0.30927 0.198579,0.19207 0.306007,0.44599 0.110684,0.25392 0.110684,0.53063 h -2.48387 q 0,0.3353 0.08464,0.62178 0.0879,0.28647 0.244155,0.49482 0.15626,0.20834 0.371116,0.32554 0.214856,0.11719 0.472033,0.11719 0.214856,0 0.413436,-0.0684 0.198579,-0.0716 0.358093,-0.18556 0.16277,-0.11394 0.276709,-0.26043 0.113939,-0.14649 0.159515,-0.30275 l 0.192069,0.0846 q -0.07162,0.25717 -0.231134,0.4818 -0.159514,0.22462 -0.374371,0.3939 -0.211601,0.16603 -0.462266,0.26369 -0.250666,0.0977 -0.507843,0.0977 z m 0.657591,-2.33087 q 0,-0.18881 -0.06836,-0.35158 -0.06511,-0.16277 -0.182303,-0.27996 -0.117194,-0.12045 -0.273453,-0.18882 -0.15626,-0.0684 -0.335307,-0.0684 -0.149748,0 -0.286475,0.0684 -0.136726,0.0651 -0.244155,0.18556 -0.107428,0.1172 -0.179047,0.27997 -0.06836,0.16277 -0.08139,0.35158 z"
         style="font-style:normal;font-variant:normal;font-weight:normal;font-stretch:normal;font-size:6.66705799px;font-family:'Telugu MN';-inkscape-font-specification:'Telugu MN, Normal';font-variant-ligatures:normal;font-variant-caps:normal;font-variant-numeric:normal;font-feature-settings:normal;text-align:start;writing-mode:lr-tb;text-anchor:start;stroke-width:0.16667645"
         id="path1209" />
    </g>
    <g
       transform="matrix(0.20133147,0.13450841,-0.21327925,0.31923525,23.402164,285.75622)"
       id="g1174">
      <g
         id="g1154"
         inkscape:label="Layer 1"
         style="display:inline" />
      <path
         inkscape:connector-curvature="0"
         style="opacity:1;fill:#0f0f00;fill-opacity:1;stroke:#000000;stroke-width:0;stroke-miterlimit:4;stroke-dasharray:none;stroke-opacity:1"
         d="m 11.987289,9.3234482 h 7.991524 v 3.9957608 h -7.991524 z"
         id="path1156" />
      <path
         inkscape:connector-curvature="0"
         style="opacity:1;fill:#ffffff;fill-opacity:0.98571424;stroke:#000000;stroke-width:0;stroke-miterlimit:4;stroke-dasharray:none;stroke-opacity:1"
         d="m 14.667374,10.662096 h 3.995763 v 1.331921 h -3.995763 z"
         id="path1158" />
      <path
         inkscape:connector-curvature="0"
         transform="scale(-1,1)"
         style="opacity:1;fill:#0c0c00;fill-opacity:1;stroke:#000000;stroke-width:0;stroke-miterlimit:4;stroke-dasharray:none;stroke-opacity:1"
         d="m -29.323654,9.3234482 h 7.989551 v 3.9957608 h -7.989551 z"
         id="path1160" />
      <path
         inkscape:connector-curvature="0"
         transform="scale(-1,1)"
         style="opacity:1;fill:#ffffff;fill-opacity:0.98571424;stroke:#000000;stroke-width:0;stroke-miterlimit:4;stroke-dasharray:none;stroke-opacity:1"
         d="m -26.64423,10.662096 h 3.994777 v 1.331921 h -3.994777 z"
         id="path1162" />
      <path
         inkscape:connector-curvature="0"
         style="opacity:1;fill:#000000;fill-opacity:1;stroke:#000000;stroke-width:0;stroke-miterlimit:4;stroke-dasharray:none;stroke-opacity:1"
         d="m 19.995058,14.667374 h 1.331921 v 3.995762 h -1.331921 z"
         id="path1164" />
      <path
         inkscape:connector-curvature="0"
         style="opacity:1;fill:#000000;fill-opacity:1;stroke:#000000;stroke-width:0;stroke-miterlimit:4;stroke-dasharray:none;stroke-opacity:1"
         d="m 21.326979,17.331215 h 1.315677 v 1.33192 h -1.315677 z"
         id="path1166" />
      <path
         inkscape:connector-curvature="0"
         style="opacity:1;fill:#000200;fill-opacity:1;stroke:#000000;stroke-width:0;stroke-miterlimit:4;stroke-dasharray:none;stroke-opacity:1"
         d="m 11.954803,20.011301 h 2.696328 v 2.663842 h -2.696328 z"
         id="path1168" />
      <path
         inkscape:connector-curvature="0"
         style="opacity:1;fill:#000200;fill-opacity:1;stroke:#000000;stroke-width:0;stroke-miterlimit:4;stroke-dasharray:none;stroke-opacity:1"
         d="m 27.970341,20.011301 h 2.696327 v 2.663842 h -2.696327 z"
         id="path1170" />
      <path
         inkscape:connector-curvature="0"
         style="opacity:1;fill:#000200;fill-opacity:1;stroke:#000000;stroke-width:0;stroke-miterlimit:4;stroke-dasharray:none;stroke-opacity:1"
         d="m 14.651131,20.011301 h 13.351695 v 1.33192 H 14.651131 Z"
         id="path1172" />
    </g>
  </g>
</svg>
