<?xml version="1.0" encoding="UTF-8" standalone="no"?>
<svg
   xmlns:dc="http://purl.org/dc/elements/1.1/"
   xmlns:cc="http://creativecommons.org/ns#"
   xmlns:rdf="http://www.w3.org/1999/02/22-rdf-syntax-ns#"
   xmlns:svg="http://www.w3.org/2000/svg"
   xmlns="http://www.w3.org/2000/svg"
   xmlns:sodipodi="http://sodipodi.sourceforge.net/DTD/sodipodi-0.dtd"
   xmlns:inkscape="http://www.inkscape.org/namespaces/inkscape"
   id="Layer_1"
   data-name="Layer 1"
   viewBox="0 0 18 18"
   version="1.1"
   sodipodi:docname="computerscare-channels-empty-knob.svg"
   inkscape:version="0.92.2 5c3e80d, 2017-08-06"
   width="18"
   height="18">
  <metadata
     id="metadata1289">
    <rdf:RDF>
      <cc:Work
         rdf:about="">
        <dc:format>image/svg+xml</dc:format>
        <dc:type
           rdf:resource="http://purl.org/dc/dcmitype/StillImage" />
        <dc:title>01 Big Knob</dc:title>
      </cc:Work>
    </rdf:RDF>
  </metadata>
  <sodipodi:namedview
     pagecolor="#ffffff"
     bordercolor="#666666"
     borderopacity="1"
     objecttolerance="10"
     gridtolerance="10"
     guidetolerance="10"
     inkscape:pageopacity="0"
     inkscape:pageshadow="2"
     inkscape:window-width="1398"
     inkscape:window-height="834"
     id="namedview1287"
     showgrid="false"
     inkscape:zoom="31.647281"
     inkscape:cx="8.4242681"
     inkscape:cy="11.314634"
     inkscape:window-x="0"
     inkscape:window-y="0"
     inkscape:window-maximized="0"
     inkscape:current-layer="Big_Knob"
     inkscape:snap-global="false" />
  <defs
     id="defs1279">
    <style
       id="style1277">.cls-1{fill:#245559;}.cls-2{fill:none;stroke:#24c9a6;stroke-miterlimit:10;stroke-width:3px;}</style>
  </defs>
  <title
     id="title1281">01 Big Knob</title>
  <g
     id="Big_Knob"
     data-name="Big Knob"
     transform="translate(0,-42)">
    <path
       sodipodi:nodetypes="ccccccccccccccccc"
       inkscape:connector-curvature="0"
       id="path1623"
       d="m 4.5808552,43.048284 c -0.916995,0.776532 -1.6722965,1.803125 -1.9013601,3.031798 -0.5431233,2.168432 -0.4358872,4.429132 -0.5395994,6.645897 0.036253,1.148227 0.7926187,2.062573 1.410674,2.938392 0.7968887,0.857174 2.0119906,0.865255 3.0251773,1.270916 1.136957,-0.01439 2.0164644,0.595913 2.750354,0.670576 1.570628,-0.13174 1.855081,0.101175 3.049879,0.287472 1.151066,0.157815 1.854001,0.671787 2.426802,-0.144803 0.448227,-0.952378 0.917889,-1.929294 0.971381,-3.009072 0.06756,-0.932379 0.610671,-1.738462 0.626678,-2.683326 0.05254,-1.041607 0.08676,-2.098552 -0.02634,-3.134093 -0.119858,-1.021423 -0.668707,-1.886466 -0.817907,-2.88858 -0.386676,-0.862701 -0.6563,-1.904954 -1.530782,-2.37809 -0.789007,-0.637386 -1.719449,-1.034032 -2.735757,-0.896557 -1.223655,-0.191187 -2.4577279,-0.05624 -3.6867338,-0.01441 -1.0038807,0.03353 -2.0628646,0.04852 -3.0224776,0.303872 z"
       style="fill:#ffffff;stroke:#f2f2f2;stroke-width:0.48204279;stroke-linecap:butt;stroke-linejoin:miter;stroke-miterlimit:4;stroke-dasharray:none;stroke-opacity:1;fill-opacity:1" />
    <path
       style="fill:none;stroke:#5b5b5b;stroke-width:0.5;stroke-linecap:butt;stroke-linejoin:miter;stroke-miterlimit:4;stroke-dasharray:none;stroke-opacity:1"
       d="m 4.2899263,43.063729 c -0.9705151,0.789392 -1.7698995,1.832986 -2.0123323,3.082008 -0.5748226,2.204344 -0.4613277,4.502483 -0.5710931,6.75596 0.03837,1.167243 0.8388798,2.096731 1.4930076,2.987054 0.8433989,0.87137 2.1294198,0.879586 3.2017409,1.291965 1.2033151,-0.01462 1.9856308,-0.335365 2.7289111,0.382967 1.1941025,0.476388 2.1453185,0.401565 3.4098495,0.590947 1.218249,0.160429 1.96221,0.682913 2.568443,-0.147201 0.474388,-0.96815 0.971461,-1.961245 1.028075,-3.058906 0.07151,-0.947819 0.646313,-1.767252 0.663254,-2.727765 0.05561,-1.058857 0.09182,-2.133305 -0.02787,-3.185996 -0.126854,-1.038339 -0.707737,-1.917709 -0.865645,-2.936419 -0.409243,-0.876986 -0.694604,-1.936501 -1.620124,-2.417472 -0.835058,-0.647942 -1.819806,-1.051157 -2.895429,-0.911406 -1.295073,-0.194353 -2.6011726,-0.05717 -3.9019091,-0.01464 -1.0624719,0.03408 -2.183263,0.04933 -3.1988836,0.308904 z"
       id="path1618"
       inkscape:connector-curvature="0"
       sodipodi:nodetypes="ccccccccccccccccc" />
    <path
       style="fill:none;stroke:#000000;stroke-width:1px;stroke-linecap:butt;stroke-linejoin:miter;stroke-opacity:1"
       d="m 8.669226,42.795608 c 0.061818,0.03123 0.3288925,-0.02443 0.4021806,0 0.014131,0.0047 0,0.02979 0,0.04469 0.029791,0.02979 0.049404,0.07605 0.089373,0.08937 0.019985,0.0067 0.024702,-0.03802 0.044687,-0.04469 0.053097,-0.0177 0.1405251,0.0065 0.1787469,0.04469 0.010533,0.01053 -0.044687,-0.0149 -0.044687,0 0,0.02107 0.023621,0.04469 0.044687,0.04469 0.014896,0 0,-0.05958 0,-0.04469 0,0.05958 0,0.119165 0,0.178747 0,0.0149 0.013323,0.03802 0,0.04469 -0.1191646,0.05958 -0.089374,-0.08937 -0.089374,0.08937 0,0.05958 0.014896,-0.163851 -0.044687,-0.04469 -0.013323,0.02665 0.021066,0.06831 0,0.08937 -0.014896,0.0149 -0.025845,-0.03527 -0.044687,-0.04469 -0.013323,-0.0067 -0.044687,0.0149 -0.044687,0 0,-0.0149 0.038025,-0.01332 0.044687,0 0.013323,0.02665 0,0.05958 0,0.08937 0,0.0149 0,-0.05958 0,-0.04469 0,0.02979 0.013323,0.06273 0,0.08937 -0.026706,0.05341 -0.089374,-0.08607 -0.089374,0.04469 0,0.0149 0.034154,-0.01053 0.044687,0 0.010533,0.01053 0.010533,0.03415 0,0.04469 -0.010533,0.01053 -0.044687,0.0149 -0.044687,0 0,-0.0149 0.034154,0.01053 0.044687,0 0.074478,-0.07448 -0.1638513,-0.04469 0.089373,-0.04469"
       id="path1581"
       inkscape:connector-curvature="0" />
    <path
       style="fill:none;stroke:#000000;stroke-width:1px;stroke-linecap:butt;stroke-linejoin:miter;stroke-opacity:1"
       d="m 7.6861179,43.912776 c -0.2085381,0 -0.4170762,0 -0.6256143,0 -0.059582,0 -0.1196247,0.0074 -0.1787469,0 -0.060942,-0.0076 -0.1175831,-0.05025 -0.1787469,-0.04469 -0.4019063,0.03654 -0.1982843,0.05992 -0.4021806,0.13406 -0.132804,0.04829 -0.2757874,0.07086 -0.4021806,0.13406 -0.029791,0.0149 -0.018041,0.06939 -0.044687,0.08937 -0.5773028,0.432977 -0.1154523,0.01035 -0.4468673,0.26812 -0.091832,0.07142 -0.1713212,0.158901 -0.2681204,0.223434 -0.039193,0.02613 -0.1007527,0.01138 -0.1340602,0.04469 -0.047104,0.0471 -0.059582,0.119165 -0.089374,0.178747 -0.059582,0.04469 -0.1191646,0.08937 -0.1787469,0.134061"
       id="path1583"
       inkscape:connector-curvature="0" />
    <path
       style="fill:none;stroke:#000000;stroke-width:1px;stroke-linecap:butt;stroke-linejoin:miter;stroke-opacity:1"
       d="m 10.412009,43.465909 c 0.05958,-0.0149 0.117706,-0.03791 0.178746,-0.04469 0.07402,-0.0082 0.148956,0 0.223434,0 0.119165,0 0.238329,0 0.357494,0 0.07448,0 0.148956,0 0.223434,0 0.05958,0 0.122958,-0.02092 0.178747,0 0.0062,0.0023 0.342489,0.259118 0.357493,0.268121 0.01277,0.0077 0.03191,-0.0077 0.04469,0 0.06386,0.03832 0.116778,0.09275 0.178747,0.13406 0.02771,0.01848 0.06273,0.0247 0.08937,0.04469 0.0337,0.02528 0.05567,0.06409 0.08937,0.08937 0.02665,0.01998 0.06273,0.0247 0.08937,0.04469 0.03371,0.02528 0.05958,0.05958 0.08937,0.08937 0.02979,0.02979 0.05958,0.05958 0.08937,0.08937"
       id="path1585"
       inkscape:connector-curvature="0" />
    <path
       inkscape:connector-curvature="0"
       id="path1616"
       d="m 9.8981071,43.778682 c -0.059582,0.07448 -0.1536493,0.131429 -0.1787449,0.223451 -0.023839,0.08741 0.035671,0.177964 0.044687,0.26812 0.057559,0.575585 -0.090998,-0.243745 0.089374,0.357494 0.026036,0.08679 0.018041,0.181521 0.044687,0.268121 0.084346,0.274124 0.1912528,0.335989 0.2234338,0.625614 0.0037,0.0331 -0.04836,0.05627 -0.04469,0.08937 0.01197,0.107778 0.06307,0.207603 0.08937,0.312807 0.01842,0.07368 0.02979,0.148956 0.04469,0.223434 0.0149,0.07448 0.03527,0.148067 0.04469,0.223433 0.0055,0.04434 0,0.08937 0,0.134061 v 0.312807 c 0,0.0149 -0.0036,0.03024 0,0.04469 0.01142,0.0457 0.03326,0.08836 0.04469,0.13406 0.0036,0.01445 -0.182589,0.344874 0,0.04469 0.0077,-0.01273 -0.01282,-0.03711 0,-0.04469 l 0.276485,-0.163416"
       style="fill:#bfbfbf;stroke:#fb2020;stroke-width:1px;stroke-linecap:butt;stroke-linejoin:miter;stroke-opacity:1;fill-opacity:1"
       sodipodi:nodetypes="ccccccccccssccssc" />
    <path
       style="fill:none;stroke:#000000;stroke-width:1px;stroke-linecap:butt;stroke-linejoin:miter;stroke-opacity:1;paint-order:markers fill stroke"
       d="m 9.2501515,43.421205 c -0.059582,0.07448 -0.1536493,0.131429 -0.1787449,0.223451 -0.023839,0.08741 0.035671,0.177964 0.044687,0.26812 0.057559,0.575585 -0.090998,-0.243745 0.089374,0.357494 0.026036,0.08679 0.018041,0.181521 0.044687,0.268121 0.084346,0.274124 0.1912531,0.335989 0.2234337,0.625614 0.00368,0.0331 -0.048365,0.05627 -0.044687,0.08937 0.011975,0.107778 0.063073,0.207603 0.089374,0.312807 0.018421,0.07368 0.029791,0.148956 0.044687,0.223434 0.014896,0.07448 0.035266,0.148067 0.044687,0.223433 0.00554,0.04434 0,0.08937 0,0.134061 0,0.104269 0,0.208538 0,0.312807 0,0.0149 -0.00361,0.03024 0,0.04469 0.011424,0.0457 0.033262,0.08836 0.044687,0.13406 0.00361,0.01445 0.014896,0.04469 0,0.04469 -0.014896,0 0,-0.05958 0,-0.04469 0,0.02979 0,0.05958 0,0.08937"
       id="path1587"
       inkscape:connector-curvature="0" />
    <path
       inkscape:connector-curvature="0"
       id="path1610"
       d="m 9.3171816,43.153085 c 0.061818,0.03123 0.3288925,-0.02443 0.4021806,0 0.014131,0.0047 0,0.02979 0,0.04469 0.029791,0.02979 0.049404,0.07605 0.089373,0.08937 0.019985,0.0067 0.024702,-0.03802 0.044687,-0.04469 0.053097,-0.0177 0.1405251,0.0065 0.1787468,0.04469 0.01053,0.01053 -0.044687,-0.0149 -0.044687,0 0,0.02107 0.023621,0.04469 0.044687,0.04469 0.0149,0 0,-0.05958 0,-0.04469 0,0.05958 0,0.119165 0,0.178747 0,0.0149 0.01332,0.03802 0,0.04469 -0.1191645,0.05958 -0.089374,-0.08937 -0.089374,0.08937 0,0.05958 0.014896,-0.163851 -0.044687,-0.04469 -0.013323,0.02665 0.021066,0.06831 0,0.08937 -0.014896,0.0149 -0.025845,-0.03527 -0.044687,-0.04469 -0.013323,-0.0067 -0.044687,0.0149 -0.044687,0 0,-0.0149 0.038025,-0.01332 0.044687,0 0.013323,0.02665 0,0.05958 0,0.08937 0,0.0149 0,-0.05958 0,-0.04469 0,0.02979 0.013323,0.06273 0,0.08937 -0.026706,0.05341 -0.089374,-0.08607 -0.089374,0.04469 0,0.0149 0.034154,-0.01053 0.044687,0 0.010533,0.01053 0.010533,0.03415 0,0.04469 -0.010533,0.01053 -0.044687,0.0149 -0.044687,0 0,-0.0149 0.034154,0.01053 0.044687,0 0.074478,-0.07448 -0.1638513,-0.04469 0.089373,-0.04469"
       style="fill:none;stroke:#cacaca;stroke-width:1px;stroke-linecap:butt;stroke-linejoin:miter;stroke-opacity:1" />
    <path
       inkscape:connector-curvature="0"
       id="path1612"
       d="m 8.3340735,44.252013 c -0.2085381,0 -0.4170762,0 -0.6256143,0 -0.059582,0 -0.1196247,0.0044 -0.1787469,0 -0.060942,-0.0045 -0.1175831,-0.02997 -0.1787469,-0.02665 -0.4019063,0.02179 -0.1982843,0.03573 -0.4021806,0.07995 -0.132804,0.0288 -0.2757874,0.04226 -0.4021806,0.07995 -0.029791,0.0089 -0.018041,0.04138 -0.044687,0.0533 -0.5773028,0.258204 -0.1154523,0.0062 -0.4468673,0.159892 -0.091832,0.04259 -0.1713212,0.09476 -0.2681204,0.133244 -0.039193,0.01558 -0.1007527,0.0068 -0.1340602,0.02665 -0.047104,0.02809 -0.059582,0.07106 -0.089374,0.106595 -0.059582,0.02665 -0.1191646,0.05329 -0.1787469,0.07995"
       style="fill:none;stroke:#cacaca;stroke-width:0.7722345px;stroke-linecap:butt;stroke-linejoin:miter;stroke-opacity:1" />
    <path
       inkscape:connector-curvature="0"
       id="path1614"
       d="m 11.059964,44.129328 c 0.05958,-0.0085 0.117706,-0.02169 0.178746,-0.02557 0.07402,-0.0047 0.148956,0 0.223434,0 0.119165,0 0.238329,0 0.357494,0 0.07448,0 0.148956,0 0.223434,0 0.05958,0 0.122958,-0.01197 0.178747,0 0.0062,0.0013 0.342489,0.148241 0.357493,0.153392 0.01277,0.0044 0.03191,-0.0044 0.04469,0 0.06386,0.02192 0.116778,0.05306 0.178747,0.0767 0.02771,0.01057 0.06273,0.01413 0.08937,0.02557 0.0337,0.01446 0.05567,0.03666 0.08937,0.05113 0.02665,0.01143 0.06273,0.01413 0.08937,0.02557 0.03371,0.01446 0.05958,0.03409 0.08937,0.05113 0.02979,0.01704 0.05958,0.03408 0.08937,0.05113"
       style="fill:none;stroke:#cacaca;stroke-width:0.7563718px;stroke-linecap:butt;stroke-linejoin:miter;stroke-opacity:1" />
  </g>
</svg>
