<?xml version="1.0" encoding="UTF-8" standalone="no"?>
<!-- Created with Inkscape (http://www.inkscape.org/) -->

<svg
   xmlns:dc="http://purl.org/dc/elements/1.1/"
   xmlns:cc="http://creativecommons.org/ns#"
   xmlns:rdf="http://www.w3.org/1999/02/22-rdf-syntax-ns#"
   xmlns:svg="http://www.w3.org/2000/svg"
   xmlns="http://www.w3.org/2000/svg"
   xmlns:sodipodi="http://sodipodi.sourceforge.net/DTD/sodipodi-0.dtd"
   xmlns:inkscape="http://www.inkscape.org/namespaces/inkscape"
   width="60"
   height="380"
   viewBox="0 0 15.875 100.54167"
   version="1.1"
   id="svg8"
   inkscape:version="0.92.2 5c3e80d, 2017-08-06"
   sodipodi:docname="ComputerscareTolyPoolsPanel.svg"
   style="enable-background:new">
  <defs
     id="defs2" />
  <sodipodi:namedview
     id="base"
     pagecolor="#ffffff"
     bordercolor="#666666"
     borderopacity="1.0"
     inkscape:pageopacity="0.0"
     inkscape:pageshadow="2"
     inkscape:zoom="16"
     inkscape:cx="26.244028"
     inkscape:cy="284.26327"
     inkscape:document-units="mm"
     inkscape:current-layer="g1669"
     showgrid="false"
     units="px"
     inkscape:snap-bbox="true"
     inkscape:snap-page="true"
     inkscape:bbox-nodes="true"
     inkscape:snap-bbox-edge-midpoints="true"
     inkscape:window-width="1440"
     inkscape:window-height="856"
     inkscape:window-x="0"
     inkscape:window-y="0"
     inkscape:window-maximized="0"
     inkscape:snap-global="false"
     showguides="false"
     inkscape:lockguides="false" />
  <metadata
     id="metadata5">
    <rdf:RDF>
      <cc:Work
         rdf:about="">
        <dc:format>image/svg+xml</dc:format>
        <dc:type
           rdf:resource="http://purl.org/dc/dcmitype/StillImage" />
        <dc:title />
      </cc:Work>
    </rdf:RDF>
  </metadata>
  <g
     inkscape:label="Layer 1"
     inkscape:groupmode="layer"
     id="layer1"
     transform="translate(0,-196.45832)"
     style="display:none">
    <path
       style="opacity:1;vector-effect:none;fill:#f0f0f0;fill-opacity:1;fill-rule:evenodd;stroke:none;stroke-width:0.48607069;stroke-linecap:butt;stroke-linejoin:round;stroke-miterlimit:4;stroke-dasharray:none;stroke-dashoffset:0;stroke-opacity:1;paint-order:normal"
       d="M 0,196.45831 H 23.8125 V 296.99999 H 0 Z"
       id="rect817"
       inkscape:connector-curvature="0" />
    <text
       xml:space="preserve"
       style="font-style:normal;font-weight:normal;font-size:10.58333302px;line-height:1.25;font-family:sans-serif;letter-spacing:0px;word-spacing:0px;fill:#000000;fill-opacity:1;stroke:none;stroke-width:0.26458332"
       x="8.2147436"
       y="295.57718"
       id="text1490"
       transform="rotate(1.4468834)"><tspan
         sodipodi:role="line"
         id="tspan1488"
         x="8.2147436"
         y="295.57718"
         style="font-style:normal;font-variant:normal;font-weight:normal;font-stretch:normal;font-size:2.82222223px;font-family:sans-serif;-inkscape-font-specification:'sans-serif, Normal';font-variant-ligatures:normal;font-variant-caps:normal;font-variant-numeric:normal;font-feature-settings:normal;text-align:start;writing-mode:lr-tb;text-anchor:start;stroke-width:0.26458332">computerscare</tspan></text>
    <text
       transform="rotate(-5.9989835)"
       id="text1494"
       y="288.0314"
       x="-28.710276"
       style="font-style:normal;font-weight:normal;font-size:10.58333302px;line-height:1.25;font-family:sans-serif;letter-spacing:0px;word-spacing:0px;fill:#000000;fill-opacity:1;stroke:none;stroke-width:0.26458332"
       xml:space="preserve"><tspan
         style="font-style:normal;font-variant:normal;font-weight:normal;font-stretch:normal;font-size:2.82222223px;font-family:sans-serif;-inkscape-font-specification:'sans-serif, Normal';font-variant-ligatures:normal;font-variant-caps:normal;font-variant-numeric:normal;font-feature-settings:normal;text-align:start;writing-mode:lr-tb;text-anchor:start;stroke-width:0.26458332"
         y="288.0314"
         x="-28.710276"
         id="tspan1492"
         sodipodi:role="line">trg</tspan></text>
    <text
       xml:space="preserve"
       style="font-style:normal;font-weight:normal;font-size:10.58333302px;line-height:1.25;font-family:sans-serif;letter-spacing:0px;word-spacing:0px;fill:#000000;fill-opacity:1;stroke:none;stroke-width:0.26458332"
       x="20.711658"
       y="288.87244"
       id="text1498"
       transform="rotate(1.9714728)"><tspan
         sodipodi:role="line"
         id="tspan1496"
         x="20.711658"
         y="288.87244"
         style="font-style:normal;font-variant:normal;font-weight:normal;font-stretch:normal;font-size:2.82222223px;font-family:sans-serif;-inkscape-font-specification:'sans-serif, Normal';font-variant-ligatures:normal;font-variant-caps:normal;font-variant-numeric:normal;font-feature-settings:normal;text-align:start;writing-mode:lr-tb;text-anchor:start;stroke-width:0.26458332">in</tspan></text>
    <text
       transform="rotate(0.49746114)"
       id="text1521"
       y="289.16214"
       x="20.314623"
       style="font-style:normal;font-weight:normal;font-size:10.58333302px;line-height:1.25;font-family:sans-serif;letter-spacing:0px;word-spacing:0px;fill:#000000;fill-opacity:1;stroke:none;stroke-width:0.26458332"
       xml:space="preserve"><tspan
         style="font-style:normal;font-variant:normal;font-weight:normal;font-stretch:normal;font-size:3.17499995px;font-family:sans-serif;-inkscape-font-specification:'sans-serif, Normal';font-variant-ligatures:normal;font-variant-caps:normal;font-variant-numeric:normal;font-feature-settings:normal;text-align:start;writing-mode:lr-tb;text-anchor:start;stroke-width:0.26458332"
         y="289.16214"
         x="20.314623"
         id="tspan1519"
         sodipodi:role="line">clr</tspan></text>
    <text
       transform="matrix(1.0139335,-0.02825079,0.06854811,0.98434808,0,0)"
       id="text1645"
       y="204.61243"
       x="-10.296249"
       style="font-style:normal;font-weight:normal;font-size:10.74719143px;line-height:1.25;font-family:sans-serif;letter-spacing:0px;word-spacing:0px;fill:#000000;fill-opacity:1;stroke:none;stroke-width:0.26867977"
       xml:space="preserve"><tspan
         style="font-style:normal;font-variant:normal;font-weight:normal;font-stretch:normal;font-size:5.01535606px;font-family:sans-serif;-inkscape-font-specification:'sans-serif, Normal';font-variant-ligatures:normal;font-variant-caps:normal;font-variant-numeric:normal;font-feature-settings:normal;text-align:start;writing-mode:lr-tb;text-anchor:start;stroke-width:0.26867977"
         y="204.61243"
         x="-10.296249"
         id="tspan1643"
         sodipodi:role="line">debug</tspan></text>
  </g>
  <g
     inkscape:groupmode="layer"
     id="layer3"
     inkscape:label="bg" />
  <g
     style="display:inline"
     transform="translate(0,-196.45832)"
     id="g1669"
     inkscape:groupmode="layer"
     inkscape:label="Layer 1 copy">
    <path
       inkscape:connector-curvature="0"
       id="path1647"
       d="m 0,198.04581 h 14.364523 l -0.738749,15.65303 0.93662,65.71451 0.765887,10.38104 0.545761,7.21128 L 0,296.99999 Z"
       style="opacity:1;vector-effect:none;fill:#e6e7e8;fill-opacity:1;fill-rule:evenodd;stroke:none;stroke-width:0.26300001;stroke-linecap:butt;stroke-linejoin:round;stroke-miterlimit:4;stroke-dasharray:none;stroke-dashoffset:0;stroke-opacity:1;paint-order:normal"
       sodipodi:nodetypes="cccccccc" />
    <g
       aria-label="computerscare"
       transform="matrix(0.579664,-0.0209809,0.12827949,1.4870391,-42.202497,-142.90507)"
       style="font-style:normal;font-weight:normal;font-size:10.58333302px;line-height:1.25;font-family:sans-serif;letter-spacing:0px;word-spacing:0px;fill:#000000;fill-opacity:1;stroke:none;stroke-width:0.26458332"
       id="text1651">
      <path
         d="m 9.6564066,294.11837 -0.022491,0.23707 q -0.1028223,-0.0489 -0.2099211,-0.0673 -0.1055806,-0.0199 -0.2168506,-0.009 -0.2488775,0.0238 -0.4014201,0.19401 -0.1524199,0.16888 -0.1792271,0.45145 -0.026804,0.28254 0.095932,0.42654 0.1228661,0.14262 0.371738,0.11887 0.1112317,-0.0106 0.2224055,-0.0498 0.1127112,-0.0408 0.2267849,-0.11044 l -0.022229,0.23431 q -0.111772,0.0599 -0.2295122,0.0956 -0.1163563,0.0357 -0.2456588,0.048 -0.3517468,0.0335 -0.5381239,-0.16582 -0.1863704,-0.19938 -0.1510635,-0.57153 0.035829,-0.37767 0.2649098,-0.61397 0.2304697,-0.23642 0.5947391,-0.27118 0.1181718,-0.0112 0.2283935,0.003 0.110394,0.0127 0.2114822,0.0509 z"
         style="font-style:normal;font-variant:normal;font-weight:normal;font-stretch:normal;font-size:2.82222223px;font-family:sans-serif;-inkscape-font-specification:'sans-serif, Normal';font-variant-ligatures:normal;font-variant-caps:normal;font-variant-numeric:normal;font-feature-settings:normal;text-align:start;writing-mode:lr-tb;text-anchor:start;stroke-width:0.26458332"
         id="path1701"
         inkscape:connector-curvature="0" />
      <path
         d="m 10.696255,294.13661 q -0.205776,0.0197 -0.340506,0.19093 -0.134608,0.16992 -0.160888,0.44696 -0.02628,0.27705 0.07673,0.42565 0.104532,0.1471 0.311691,0.12734 0.204372,-0.0195 0.339118,-0.1908 0.134737,-0.1713 0.160888,-0.44696 0.02602,-0.27428 -0.07838,-0.42277 -0.10427,-0.14986 -0.308651,-0.13035 z m 0.0204,-0.21501 q 0.333675,-0.0318 0.503758,0.16499 0.170076,0.19686 0.133987,0.57727 -0.03596,0.37905 -0.246966,0.61361 -0.210875,0.23319 -0.544555,0.26503 -0.335078,0.032 -0.505151,-0.16486 -0.1685548,-0.19836 -0.1325956,-0.5774 0.036091,-0.38042 0.2455756,-0.61348 0.210875,-0.23319 0.545947,-0.26516 z"
         style="font-style:normal;font-variant:normal;font-weight:normal;font-stretch:normal;font-size:2.82222223px;font-family:sans-serif;-inkscape-font-specification:'sans-serif, Normal';font-variant-ligatures:normal;font-variant-caps:normal;font-variant-numeric:normal;font-feature-settings:normal;text-align:start;writing-mode:lr-tb;text-anchor:start;stroke-width:0.26458332"
         id="path1703"
         inkscape:connector-curvature="0" />
      <path
         d="m 13.143759,294.1394 q 0.109103,-0.20599 0.261143,-0.30389 0.152033,-0.0979 0.358066,-0.0977 0.277351,3.4e-4 0.428154,0.205 0.150801,0.203 0.151243,0.57869 l 0.0013,1.12376 -0.2932,-3.3e-4 -0.0013,-1.1138 q -3.15e-4,-0.26763 -0.0908,-0.39742 -0.0905,-0.12977 -0.275921,-0.13 -0.226635,-2.7e-4 -0.357993,0.15747 -0.131357,0.15777 -0.131036,0.4304 l 0.0012,1.05229 -0.2932,-3.4e-4 -0.0013,-1.1138 q -3.17e-4,-0.2693 -0.0908,-0.39742 -0.0905,-0.12976 -0.279091,-0.13 -0.223465,-2.8e-4 -0.354821,0.15914 -0.131357,0.15777 -0.131039,0.42874 l 0.0012,1.05227 -0.293194,-3.3e-4 -0.0022,-1.86186 0.293199,3.4e-4 3.42e-4,0.28924 q 0.09965,-0.17108 0.239016,-0.25238 0.139373,-0.0812 0.331141,-0.081 0.193354,2.3e-4 0.328188,0.10342 0.136421,0.10314 0.201631,0.29946 z"
         style="font-style:normal;font-variant:normal;font-weight:normal;font-stretch:normal;font-size:2.82222223px;font-family:sans-serif;-inkscape-font-specification:'sans-serif, Normal';font-variant-ligatures:normal;font-variant-caps:normal;font-variant-numeric:normal;font-feature-settings:normal;text-align:start;writing-mode:lr-tb;text-anchor:start;stroke-width:0.31164581"
         id="path1705"
         inkscape:connector-curvature="0" />
      <path
         d="m 14.742929,294.81667 v 0.81855 h -0.254937 v -2.13044 h 0.254937 v 0.23426 q 0.07993,-0.1378 0.201194,-0.20395 0.122645,-0.0675 0.292144,-0.0675 0.28112,0 0.45613,0.22324 0.176389,0.22324 0.176389,0.58705 0,0.3638 -0.176389,0.58704 -0.17501,0.22324 -0.45613,0.22324 -0.169499,0 -0.292144,-0.0661 -0.121268,-0.0675 -0.201194,-0.20533 z m 0.862652,-0.53881 q 0,-0.27975 -0.115755,-0.43822 -0.114377,-0.15985 -0.315571,-0.15985 -0.201193,0 -0.316949,0.15985 -0.114377,0.15847 -0.114377,0.43822 0,0.27974 0.114377,0.43959 0.115756,0.15847 0.316949,0.15847 0.201194,0 0.315571,-0.15847 0.115755,-0.15985 0.115755,-0.43959 z"
         style="font-style:normal;font-variant:normal;font-weight:normal;font-stretch:normal;font-size:2.82222223px;font-family:sans-serif;-inkscape-font-specification:'sans-serif, Normal';font-variant-ligatures:normal;font-variant-caps:normal;font-variant-numeric:normal;font-feature-settings:normal;text-align:start;writing-mode:lr-tb;text-anchor:start;stroke-width:0.26458332"
         id="path1707"
         inkscape:connector-curvature="0" />
      <path
         d="m 16.276561,294.97975 -1.52e-4,-0.94031 0.251931,-0.0648 1.5e-4,0.9306 q 3.6e-5,0.22051 0.08495,0.30972 0.08491,0.0878 0.254686,0.0444 0.204008,-0.052 0.321737,-0.21413 0.119098,-0.16225 0.119061,-0.38971 l -1.43e-4,-0.88065 0.251931,-0.0648 2.51e-4,1.55331 -0.25193,0.0648 -3.9e-5,-0.23855 q -0.09172,0.16493 -0.213559,0.26548 -0.120476,0.0987 -0.280672,0.13983 -0.264253,0.0678 -0.401197,-0.0637 -0.136946,-0.13139 -0.136998,-0.45174 z"
         style="font-style:normal;font-variant:normal;font-weight:normal;font-stretch:normal;font-size:2.82222223px;font-family:sans-serif;-inkscape-font-specification:'sans-serif, Normal';font-variant-ligatures:normal;font-variant-caps:normal;font-variant-numeric:normal;font-feature-settings:normal;text-align:start;writing-mode:lr-tb;text-anchor:start;stroke-width:0.26458332"
         id="path1709"
         inkscape:connector-curvature="0" />
      <path
         d="m 20.086285,293.97598 v 0.43822 h 0.522277 v 0.19706 h -0.522277 v 0.83784 q 0,0.18879 0.05099,0.24254 0.05237,0.0537 0.21084,0.0537 h 0.260449 v 0.21222 h -0.260451 q -0.293522,0 -0.405144,-0.10887 -0.111621,-0.11024 -0.111621,-0.39963 v -0.83784 h -0.186035 v -0.19706 h 0.186035 v -0.43822 z"
         style="font-style:normal;font-variant:normal;font-weight:normal;font-stretch:normal;font-size:2.82222223px;font-family:sans-serif;-inkscape-font-specification:'sans-serif, Normal';font-variant-ligatures:normal;font-variant-caps:normal;font-variant-numeric:normal;font-feature-settings:normal;text-align:start;writing-mode:lr-tb;text-anchor:start;stroke-width:0.26458332"
         id="path1711"
         inkscape:connector-curvature="0" />
      <path
         d="m 19.519797,294.54331 2.1e-5,0.12482 -1.158332,0.29657 q 0.01648,0.25929 0.156153,0.36223 0.141049,0.1012 0.391609,0.037 0.145134,-0.0376 0.280676,-0.10793 0.136913,-0.0711 0.271081,-0.17758 l 4e-5,0.24133 q -0.135541,0.093 -0.277931,0.15998 -0.14239,0.0669 -0.288893,0.10441 -0.366941,0.094 -0.581938,-0.0673 -0.213628,-0.16169 -0.213688,-0.53061 -6.1e-5,-0.38138 0.202543,-0.65655 0.203972,-0.2769 0.549007,-0.36523 0.309435,-0.0789 0.488832,0.0774 0.180765,0.15485 0.18082,0.50156 z m -0.251942,-0.0103 q -0.0028,-0.2087 -0.116435,-0.30445 -0.112293,-0.0961 -0.298502,-0.0484 -0.210854,0.0537 -0.338169,0.20723 -0.125945,0.15291 -0.145079,0.37694 z"
         style="font-style:normal;font-variant:normal;font-weight:normal;font-stretch:normal;font-size:2.82222223px;font-family:sans-serif;-inkscape-font-specification:'sans-serif, Normal';font-variant-ligatures:normal;font-variant-caps:normal;font-variant-numeric:normal;font-feature-settings:normal;text-align:start;writing-mode:lr-tb;text-anchor:start;stroke-width:0.26458332"
         id="path1713"
         inkscape:connector-curvature="0" />
      <path
         d="m 21.832517,294.2708 q -0.04272,-0.0248 -0.09371,-0.0358 -0.04961,-0.0124 -0.110243,-0.0124 -0.214974,0 -0.330729,0.14056 -0.114377,0.13918 -0.114377,0.40101 v 0.81304 h -0.254937 v -1.5434 h 0.254937 v 0.23977 q 0.07993,-0.14056 0.208084,-0.20808 0.128157,-0.0689 0.311436,-0.0689 0.02618,0 0.05788,0.004 0.03169,0.003 0.07028,0.01 z"
         style="font-style:normal;font-variant:normal;font-weight:normal;font-stretch:normal;font-size:2.82222223px;font-family:sans-serif;-inkscape-font-specification:'sans-serif, Normal';font-variant-ligatures:normal;font-variant-caps:normal;font-variant-numeric:normal;font-feature-settings:normal;text-align:start;writing-mode:lr-tb;text-anchor:start;stroke-width:0.26458332"
         id="path1715"
         inkscape:connector-curvature="0" />
      <path
         d="m 23.185447,294.16269 -0.03488,0.23723 q -0.09833,-0.0702 -0.208837,-0.11429 -0.110508,-0.0442 -0.233212,-0.0622 -0.186783,-0.0275 -0.289279,0.016 -0.101136,0.0437 -0.117973,0.15816 -0.01283,0.0873 0.04655,0.14753 0.05959,0.0589 0.254751,0.13358 l 0.08309,0.0317 q 0.258799,0.0966 0.355164,0.21797 0.09793,0.12025 0.07046,0.30705 -0.03127,0.21268 -0.218575,0.31189 -0.185938,0.0994 -0.480428,0.0561 -0.122703,-0.018 -0.252707,-0.0622 -0.128844,-0.0426 -0.269062,-0.11204 l 0.03809,-0.25904 q 0.128445,0.0927 0.258001,0.14937 0.129765,0.0553 0.262013,0.0747 0.17724,0.0261 0.281492,-0.0199 0.104454,-0.0473 0.120693,-0.15775 0.01504,-0.10226 -0.04648,-0.16702 -0.06015,-0.0645 -0.285871,-0.14928 l -0.08424,-0.0333 q -0.225922,-0.0833 -0.314703,-0.19949 -0.08858,-0.11748 -0.06252,-0.29473 0.03167,-0.21541 0.201614,-0.31021 0.169938,-0.0948 0.450794,-0.0535 0.139065,0.0204 0.258757,0.059 0.119693,0.0385 0.217301,0.0946 z"
         style="font-style:normal;font-variant:normal;font-weight:normal;font-stretch:normal;font-size:2.82222223px;font-family:sans-serif;-inkscape-font-specification:'sans-serif, Normal';font-variant-ligatures:normal;font-variant-caps:normal;font-variant-numeric:normal;font-feature-settings:normal;text-align:start;writing-mode:lr-tb;text-anchor:start;stroke-width:0.26458332"
         id="path1717"
         inkscape:connector-curvature="0" />
      <path
         d="m 25.11943,294.27043 c -0.102397,0.15961 -0.410232,-0.0331 -0.716476,-4e-4 -0.214108,0.0129 -0.371096,0.0751 -0.470954,0.18675 -0.100025,0.11072 -0.133343,0.26005 -0.09997,0.44799 0.03337,0.18793 0.118548,0.3306 0.255532,0.428 0.136817,0.0965 0.312282,0.13828 0.526391,0.12541 0.09569,-0.006 0.188485,-0.021 0.278366,-0.0459 0.09092,-0.0258 0.179524,-0.0613 0.265815,-0.10635 l 0.04152,0.23377 c -0.08625,0.0385 -0.177538,0.0691 -0.273896,0.0915 -0.09515,0.0224 -0.19835,0.037 -0.309596,0.0436 -0.302626,0.0182 -0.555994,-0.0402 -0.760111,-0.17529 -0.204112,-0.13504 -0.328148,-0.32633 -0.372106,-0.57386 -0.04461,-0.25121 0.01002,-0.45416 0.163875,-0.60888 0.155059,-0.1548 0.389283,-0.24162 0.702675,-0.26046 0.101632,-0.007 0.202385,-0.004 0.302249,0.007 0.09963,0.009 0.549163,0.13302 0.645775,0.15967 z"
         style="font-style:normal;font-variant:normal;font-weight:normal;font-stretch:normal;font-size:2.82222223px;font-family:sans-serif;-inkscape-font-specification:'sans-serif, Normal';font-variant-ligatures:normal;font-variant-caps:normal;font-variant-numeric:normal;font-feature-settings:normal;text-align:start;writing-mode:lr-tb;text-anchor:start;stroke-width:0.30319679"
         id="path1719"
         inkscape:connector-curvature="0"
         sodipodi:nodetypes="cccccccccccccccccc" />
      <path
         d="m 31.511732,294.08408 q -0.06501,-0.0361 -0.153385,-0.0526 -0.08496,-0.0185 -0.197732,-0.019 -0.399758,-0.002 -0.696989,0.20027 -0.293852,0.20022 -0.446546,0.57887 l -0.474204,1.17577 -0.474067,-0.002 0.900018,-2.23198 0.474069,0.002 -0.139856,0.34673 q 0.230604,-0.20254 0.508297,-0.29903 0.278536,-0.0986 0.619338,-0.0969 0.04869,2.4e-4 0.105286,0.006 0.05701,0.005 0.124855,0.015 z"
         style="font-style:normal;font-variant:normal;font-weight:normal;font-stretch:normal;font-size:2.82222223px;font-family:sans-serif;-inkscape-font-specification:'sans-serif, Normal';font-variant-ligatures:normal;font-variant-caps:normal;font-variant-numeric:normal;font-feature-settings:normal;text-align:start;writing-mode:lr-tb;text-anchor:start;stroke-width:0.43431306"
         id="path1723"
         inkscape:connector-curvature="0" />
      <path
         d="m 34.058987,294.84672 -0.06831,0.16867 -2.094926,0.125 c -0.07574,0.23746 -0.125519,0.2859 -0.002,0.4115 0.125885,0.12443 0.345235,0.18713 0.657997,0.1883 0.181166,6.7e-4 0.362902,-0.0148 0.545293,-0.0467 0.184101,-0.0319 0.657221,-0.13998 0.851064,-0.20437 l -0.132214,0.32613 c -0.190493,0.0519 -0.664371,0.15127 -0.853251,0.17808 -0.188867,0.0269 -0.374766,0.0399 -0.557609,0.0392 -0.458036,-0.002 -0.781695,-0.1005 -0.971045,-0.29646 -0.187608,-0.19592 -0.214061,-0.46006 -0.07935,-0.79243 0.139379,-0.3436 0.37614,-0.61553 0.710646,-0.81577 0.336699,-0.20146 0.720395,-0.30138 1.151087,-0.29977 0.386257,10e-4 0.654342,0.0939 0.804314,0.27706 0.152165,0.18202 0.164942,0.42922 0.03833,0.74159 z m -0.430709,-0.10292 c 0.07293,-0.18867 0.06139,-0.33951 -0.03491,-0.45249 -0.09454,-0.113 -0.258066,-0.1699 -0.490498,-0.17078 -0.263203,-9.9e-4 -0.49635,0.0527 -0.699318,0.1607 -0.201304,0.10811 -0.136066,0.2423 -0.24003,0.43962 z"
         style="font-style:normal;font-variant:normal;font-weight:normal;font-stretch:normal;font-size:2.82222223px;font-family:sans-serif;-inkscape-font-specification:'sans-serif, Normal';font-variant-ligatures:normal;font-variant-caps:normal;font-variant-numeric:normal;font-feature-settings:normal;text-align:start;writing-mode:lr-tb;text-anchor:start;stroke-width:0.42118588"
         id="path1725"
         inkscape:connector-curvature="0"
         sodipodi:nodetypes="ccccscccsscscscccccsccc" />
      <g
         aria-label="A"
         transform="matrix(0.48618078,-0.06197495,-0.10186543,0.19776824,49.767106,203.9546)"
         style="font-style:normal;font-weight:normal;font-size:11.38141251px;line-height:1.25;font-family:sans-serif;letter-spacing:0px;word-spacing:0px;fill:#000000;fill-opacity:1;stroke:none;stroke-width:0.0752833"
         id="text2321">
        <path
           d="m 53.927759,473.1298 -1.522708,4.12909 h 3.050974 z m -0.633535,-1.10591 h 1.272628 l 3.162121,8.29709 h -1.167039 l -0.755797,-2.12845 h -3.740083 l -0.755797,2.12845 h -1.183712 z"
           style="stroke-width:0.0752833"
           id="path2323"
           inkscape:connector-curvature="0" />
      </g>
    </g>
    <g
       id="g9547"
       transform="matrix(0.21334155,-0.05917659,0,0.23311691,-1.9826542,289.22115)">
      <g
         style="display:inline"
         inkscape:label="Layer 1"
         id="layer4" />
      <path
         id="rect5872"
         d="m 11.987289,9.3234482 h 7.991524 v 3.9957608 h -7.991524 z"
         style="opacity:1;fill:#0f0f00;fill-opacity:1;stroke:#000000;stroke-width:0;stroke-miterlimit:4;stroke-dasharray:none;stroke-opacity:1"
         inkscape:connector-curvature="0" />
      <path
         id="rect5874"
         d="m 14.667374,10.662096 h 3.995763 v 1.331921 h -3.995763 z"
         style="opacity:1;fill:#ffffff;fill-opacity:0.98571424;stroke:#000000;stroke-width:0;stroke-miterlimit:4;stroke-dasharray:none;stroke-opacity:1"
         inkscape:connector-curvature="0" />
      <path
         id="rect5878"
         d="m -29.323654,9.3234482 h 7.989551 v 3.9957608 h -7.989551 z"
         style="opacity:1;fill:#0c0c00;fill-opacity:1;stroke:#000000;stroke-width:0;stroke-miterlimit:4;stroke-dasharray:none;stroke-opacity:1"
         transform="scale(-1,1)"
         inkscape:connector-curvature="0" />
      <path
         id="rect5880"
         d="m 26.64423,10.662096 -3.171232,0.209056 v 1.331921 l 3.171232,-0.209056 z"
         style="opacity:1;fill:#ffffff;fill-opacity:0.98571424;stroke:#000000;stroke-width:0;stroke-miterlimit:4;stroke-dasharray:none;stroke-opacity:1"
         inkscape:connector-curvature="0" />
      <path
         id="rect5882"
         d="m 19.995058,14.667374 h 1.331921 v 3.995762 h -1.331921 z"
         style="opacity:1;fill:#000000;fill-opacity:1;stroke:#000000;stroke-width:0;stroke-miterlimit:4;stroke-dasharray:none;stroke-opacity:1"
         inkscape:connector-curvature="0" />
      <path
         id="rect5884"
         d="m 20.888507,17.21991 2.579094,0.32072 v 1.33192 l -2.579094,-0.32072 z"
         style="opacity:1;fill:#000000;fill-opacity:1;stroke:#000000;stroke-width:0;stroke-miterlimit:4;stroke-dasharray:none;stroke-opacity:1"
         inkscape:connector-curvature="0" />
      <path
         id="rect5886"
         d="m 11.954803,20.011301 h 2.696328 v 2.663842 h -2.696328 z"
         style="opacity:1;fill:#000200;fill-opacity:1;stroke:#000000;stroke-width:0;stroke-miterlimit:4;stroke-dasharray:none;stroke-opacity:1"
         inkscape:connector-curvature="0" />
      <path
         id="rect5888"
         d="m 27.970341,20.011301 h 2.696327 v 2.663842 h -2.696327 z"
         style="opacity:1;fill:#000200;fill-opacity:1;stroke:#000000;stroke-width:0;stroke-miterlimit:4;stroke-dasharray:none;stroke-opacity:1"
         inkscape:connector-curvature="0" />
      <path
         id="rect5890"
         d="m 14.651131,20.011301 h 13.351695 v 1.33192 H 14.651131 Z"
         style="opacity:1;fill:#000200;fill-opacity:1;stroke:#000000;stroke-width:0;stroke-miterlimit:4;stroke-dasharray:none;stroke-opacity:1"
         inkscape:connector-curvature="0" />
    </g>
    <path
       style="fill:#232125;fill-opacity:1;stroke:none;stroke-width:0.36093959;stroke-linecap:butt;stroke-linejoin:round;stroke-miterlimit:4;stroke-dasharray:none;stroke-opacity:1"
       d="m 2.0866913,196.46789 -2.08978901,1.62471 0.00767616,5.15807 1.12248295,-0.6518 1.0170942,-0.0902 z"
       id="path890"
       inkscape:connector-curvature="0"
       sodipodi:nodetypes="cccccc" />
    <path
       style="fill:#6c687b;fill-opacity:1;stroke:none;stroke-width:0.42375344;stroke-linecap:butt;stroke-linejoin:round;stroke-miterlimit:4;stroke-dasharray:none;stroke-opacity:1"
       d="m 8.1851814,222.05754 -0.1186011,-0.0832 7.3297167,-1.1709 -1.769895,0.86259 -5.5284672,1.08553 z"
       id="path892"
       inkscape:connector-curvature="0"
       sodipodi:nodetypes="cccccc" />
    <path
       sodipodi:nodetypes="cccccc"
       inkscape:connector-curvature="0"
       id="path873"
       d="m 1.1094411,202.5618 1.0068811,-0.0501 4.8564349,0.42743 -1.3820584,1.19971 -5.58532408,-0.89921 z"
       style="fill:#6c687b;fill-opacity:1;stroke:none;stroke-width:0.42375344;stroke-linecap:butt;stroke-linejoin:round;stroke-miterlimit:4;stroke-dasharray:none;stroke-opacity:1" />
    <path
       sodipodi:nodetypes="ccccccccccccc"
       inkscape:connector-curvature="0"
       id="path875"
       d="m 6.9903212,202.91281 -1.4200624,1.22577 1.3983993,8.33223 1.2236518,1.52633 -2.0151576,4.22399 0.4916224,4.39373 1.4313665,0.13838 0.3134349,-0.54346 -0.3493643,-0.2382 L 7.793,217.15828 8.8048239,213.97742 7.5281627,212.4581 Z"
       style="fill:#2e2d30;fill-opacity:1;stroke:none;stroke-width:0.36093959;stroke-linecap:butt;stroke-linejoin:round;stroke-miterlimit:4;stroke-dasharray:none;stroke-opacity:1" />
    <path
       style="fill:#b3b0b0;fill-opacity:1;stroke:none;stroke-width:0.37162125;stroke-linejoin:round;stroke-miterlimit:4;stroke-dasharray:none;stroke-opacity:1"
       d="M 2.0835936,196.45833 H 15.874998 l 0.0086,15.03248 -0.504652,9.34071 -7.3166504,1.14936 -0.2673762,-4.7678 1.0075295,-3.23552 -1.2763978,-1.55888 -0.5313382,-9.47472 -4.8643051,-0.42375 z"
       id="rect888"
       inkscape:connector-curvature="0"
       sodipodi:nodetypes="ccccccccccc" />
    <path
       style="fill:none;stroke:#000000;stroke-width:1.11629593;stroke-linecap:butt;stroke-linejoin:miter;stroke-miterlimit:4;stroke-dasharray:none;stroke-opacity:1"
       d="m 4.5077403,197.29795 c 0.062112,0.68008 -0.330627,1.37509 0.5847539,2.01495 -0.00902,0.53789 0.709835,1.02975 0.7784181,1.56027 0.033877,0.27975 0.1465594,0.56165 0.2060983,0.83802"
       id="path876"
       inkscape:connector-curvature="0" />
    <path
       style="fill:none;stroke:#000000;stroke-width:0.84216493;stroke-linecap:butt;stroke-linejoin:miter;stroke-miterlimit:4;stroke-dasharray:none;stroke-opacity:1"
       d="m 2.6243731,197.34056 c 1.4856967,0 2.9713933,0 4.4570901,0"
       id="path878"
       inkscape:connector-curvature="0" />
    <path
       style="fill:none;stroke:#25273b;stroke-width:0.81431049;stroke-linecap:butt;stroke-linejoin:miter;stroke-miterlimit:4;stroke-dasharray:none;stroke-opacity:1"
       d="m 8.8769792,197.52737 c -1.058207,0.071 -0.6759655,1.10638 -0.2409401,1.51657 0.3289056,0.47938 1.8111899,1.14198 2.0713619,0.43846 0.332349,-0.44089 0.48435,-1.13184 -0.132187,-1.5141 -0.504248,-0.22875 -1.1268418,-0.29918 -1.6982348,-0.44093 z"
       id="path880"
       inkscape:connector-curvature="0" />
    <path
       style="fill:none;stroke:#25273b;stroke-width:0.76312572;stroke-linecap:butt;stroke-linejoin:miter;stroke-miterlimit:4;stroke-dasharray:none;stroke-opacity:1"
       d="m 11.357361,196.86136 c 0.104462,0.46676 0.601754,0.89056 0.643364,1.36289 0.239534,0.20302 0.231617,0.4471 0.21819,0.67485 0.143541,0.24342 0.0541,1.16184 0.177876,1.40606"
       id="path882"
       inkscape:connector-curvature="0"
       sodipodi:nodetypes="cccc" />
    <path
       style="fill:none;stroke:#000000;stroke-width:0.57034051;stroke-linecap:butt;stroke-linejoin:miter;stroke-miterlimit:4;stroke-dasharray:none;stroke-opacity:1"
       d="m 13.274673,197.32724 c 0.611505,0.73907 1.301016,2.83428 1.437623,1.94613 0.04529,-0.38054 -0.06776,-1.46995 -0.0075,-1.49744 -1.6e-5,1.04235 8e-5,2.08477 9e-6,3.12707 -0.01972,0.16988 -0.07587,0.28837 -0.160908,0.35559 -0.124044,0.098 -0.309565,0.0869 -0.533185,-0.0329"
       id="path884"
       inkscape:connector-curvature="0"
       sodipodi:nodetypes="ccccsc" />
    <path
       style="fill:none;stroke:#11140d;stroke-width:0.50122505;stroke-linecap:butt;stroke-linejoin:miter;stroke-miterlimit:4;stroke-dasharray:none;stroke-opacity:1"
       d="m 8.1981419,204.29967 c -0.2105388,-0.32489 -0.030897,-0.98278 -0.1881596,-1.47093 -0.03393,-0.63133 -0.6039392,-1.60955 0.2716579,-1.91608 0.4902335,-0.4569 1.2499372,0.0427 0.7555287,0.8563 -0.2320659,0.45123 -0.651797,0.57673 -1.0262416,0.53876"
       id="path886"
       inkscape:connector-curvature="0"
       sodipodi:nodetypes="ccccc" />
    <path
       style="fill:none;stroke:#11140d;stroke-width:0.50122505;stroke-linecap:butt;stroke-linejoin:miter;stroke-miterlimit:4;stroke-dasharray:none;stroke-opacity:1"
       d="m 10.182645,202.77955 c -0.4826948,0.0875 -0.2813297,1.82506 0.360901,1.35606 0.729073,0.28087 0.587515,-1.85206 -0.170341,-1.49065 -0.07136,0.016 -0.139151,0.0633 -0.19056,0.13459 z"
       id="path888"
       inkscape:connector-curvature="0" />
    <path
       style="fill:none;stroke:#11140d;stroke-width:0.36998907;stroke-linecap:butt;stroke-linejoin:miter;stroke-miterlimit:4;stroke-dasharray:none;stroke-opacity:1"
       d="m 11.952404,202.02293 c -0.193618,0.75272 0.04659,2.53343 0.621154,1.56145 0.35805,-0.77272 -0.279114,-2.42655 -0.687455,-1.75631 l 0.06632,0.19486 z"
       id="path891"
       inkscape:connector-curvature="0" />
    <path
       style="fill:none;stroke:#11140d;stroke-width:0.36998907;stroke-linecap:butt;stroke-linejoin:miter;stroke-miterlimit:4;stroke-dasharray:none;stroke-opacity:1"
       d="m 13.018716,200.58319 c -0.0011,1.14105 0.08713,2.31564 0.257383,3.40317"
       id="path893"
       inkscape:connector-curvature="0" />
    <path
       style="fill:none;stroke:#11140d;stroke-width:0.54939044;stroke-linecap:butt;stroke-linejoin:miter;stroke-miterlimit:4;stroke-dasharray:none;stroke-opacity:1"
       d="m 15.031736,202.36624 c -0.567011,-0.29342 -1.737229,0.48247 -0.954896,0.72983 0.285915,0.27094 1.56994,-0.008 0.925415,0.72849 -0.210924,0.15452 -0.501039,0.20978 -0.778289,0.20613"
       id="path895"
       inkscape:connector-curvature="0" />
    <path
       style="fill:none;stroke:#000000;stroke-width:0.465;stroke-linecap:butt;stroke-linejoin:miter;stroke-miterlimit:4;stroke-dasharray:none;stroke-opacity:1"
       d="m 1.1906249,207.14089 c 6.974e-4,0.59294 -0.00139,1.18588 0.00104,1.77881 0.1202023,0.0689 0.2909297,0.0189 0.3958276,0.10641"
       id="path2330"
       inkscape:connector-curvature="0" />
    <path
       style="fill:none;stroke:#666666;stroke-width:0.465;stroke-linecap:butt;stroke-linejoin:miter;stroke-miterlimit:4;stroke-dasharray:none;stroke-opacity:1"
       d="m 2.5466144,206.94245 c 0.017373,0.27424 0.079097,0.66643 0.2083117,0.92316 0.035529,0.33176 0.035642,0.67339 0.1382356,0.99292 0.058759,0.0102 0.0049,-0.23033 0.015827,-0.30891 -0.014102,-0.30836 -0.062797,-0.62097 -0.015567,-0.9278 0.084442,-0.22099 0.2314241,-0.41511 0.3899996,-0.58745 0.2139444,-0.17803 0.5718895,-0.2319 0.7894939,-0.0351 0.3214517,0.41313 0.3398183,1.64069 0.3880269,2.15167"
       id="path2334"
       inkscape:connector-curvature="0"
       sodipodi:nodetypes="cccccccc" />
    <rect
       style="fill:#515151;fill-opacity:1;stroke:none;stroke-width:0.46499997;stroke-linecap:round;stroke-linejoin:round;stroke-miterlimit:4;stroke-dasharray:none;stroke-opacity:1;paint-order:stroke fill markers"
       id="rect2377"
       width="0.66145831"
       height="0.33072916"
       x="1.0583333"
       y="206.46286" />
    <rect
       y="206.59515"
       x="0.89296871"
       height="0.33072916"
       width="0.66145831"
       id="rect2379"
       style="fill:#272727;fill-opacity:1;stroke:none;stroke-width:0.46499997;stroke-linecap:round;stroke-linejoin:round;stroke-miterlimit:4;stroke-dasharray:none;stroke-opacity:1;paint-order:stroke fill markers" />
    <path
       sodipodi:nodetypes="cccccccc"
       inkscape:connector-curvature="0"
       id="path2381"
       d="m 2.6789061,206.79362 c 0.017373,0.27424 0.079097,0.66643 0.2083117,0.92316 0.035529,0.33176 0.035642,0.67339 0.1382356,0.99292 0.058759,0.0102 0.0049,-0.23033 0.015827,-0.30891 -0.014102,-0.30836 -0.062797,-0.62097 -0.015567,-0.9278 0.084442,-0.22099 0.2314241,-0.41511 0.3899996,-0.58745 0.2139444,-0.17803 0.5718895,-0.2319 0.7894939,-0.0351 0.3214517,0.41313 0.3398183,1.64069 0.3880269,2.15167"
       style="fill:none;stroke:#1f1f1f;stroke-width:0.465;stroke-linecap:butt;stroke-linejoin:miter;stroke-miterlimit:4;stroke-dasharray:none;stroke-opacity:1" />
    <path
       inkscape:connector-curvature="0"
       id="path2383"
       d="m 1.3725259,207.25665 c 6.974e-4,0.59294 -0.00139,1.18588 0.00104,1.77881 0.1202023,0.0689 0.2909297,0.0189 0.3958276,0.10641"
       style="fill:none;stroke:#808080;stroke-width:0.465;stroke-linecap:butt;stroke-linejoin:miter;stroke-miterlimit:4;stroke-dasharray:none;stroke-opacity:1" />
  </g>
</svg>
