<?xml version="1.0" encoding="UTF-8" standalone="no"?>
<!-- Created with Inkscape (http://www.inkscape.org/) -->

<svg
   xmlns:dc="http://purl.org/dc/elements/1.1/"
   xmlns:cc="http://creativecommons.org/ns#"
   xmlns:rdf="http://www.w3.org/1999/02/22-rdf-syntax-ns#"
   xmlns:svg="http://www.w3.org/2000/svg"
   xmlns="http://www.w3.org/2000/svg"
   xmlns:sodipodi="http://sodipodi.sourceforge.net/DTD/sodipodi-0.dtd"
   xmlns:inkscape="http://www.inkscape.org/namespaces/inkscape"
   width="300"
   height="380"
   viewBox="0 0 79.375004 100.54167"
   version="1.1"
   id="svg8"
   inkscape:version="0.92.2 5c3e80d, 2017-08-06"
   sodipodi:docname="ComputerscareRouter.svg"
   style="enable-background:new">
  <defs
     id="defs2">
    <inkscape:perspective
       sodipodi:type="inkscape:persp3d"
       inkscape:vp_x="0 : 50.270835 : 1"
       inkscape:vp_y="0 : 1000 : 0"
       inkscape:vp_z="23.812501 : 50.270835 : 1"
       inkscape:persp3d-origin="11.906251 : 33.51389 : 1"
       id="perspective1881" />
  </defs>
  <sodipodi:namedview
     id="base"
     pagecolor="#ffffff"
     bordercolor="#666666"
     borderopacity="1.0"
     inkscape:pageopacity="0.0"
     inkscape:pageshadow="2"
     inkscape:zoom="2"
     inkscape:cx="168.44192"
     inkscape:cy="303.93111"
     inkscape:document-units="mm"
     inkscape:current-layer="g1669"
     showgrid="false"
     units="px"
     inkscape:snap-bbox="true"
     inkscape:snap-page="true"
     inkscape:bbox-nodes="true"
     inkscape:snap-bbox-edge-midpoints="true"
     inkscape:window-width="1440"
     inkscape:window-height="856"
     inkscape:window-x="0"
     inkscape:window-y="0"
     inkscape:window-maximized="0" />
  <metadata
     id="metadata5">
    <rdf:RDF>
      <cc:Work
         rdf:about="">
        <dc:format>image/svg+xml</dc:format>
        <dc:type
           rdf:resource="http://purl.org/dc/dcmitype/StillImage" />
        <dc:title></dc:title>
      </cc:Work>
    </rdf:RDF>
  </metadata>
  <g
     style="display:inline"
     transform="translate(0,-196.45832)"
     id="g1669"
     inkscape:groupmode="layer"
     inkscape:label="Layer 1 copy">
    <path
       inkscape:connector-curvature="0"
       id="path1647"
       d="M 0,196.45832 H 79.375 V 297 H 0 Z"
       style="opacity:1;vector-effect:none;fill:#f9f9f9;fill-opacity:1;fill-rule:evenodd;stroke:none;stroke-width:0.88743967;stroke-linecap:butt;stroke-linejoin:round;stroke-miterlimit:4;stroke-dasharray:none;stroke-dashoffset:0;stroke-opacity:1;paint-order:normal" />
    <g
       aria-label="computerscare"
       transform="matrix(0.98656289,0.0441007,-0.12576361,1.0079983,72.856498,-2.779225)"
       style="font-style:normal;font-weight:normal;font-size:10.58333302px;line-height:1.25;font-family:sans-serif;letter-spacing:0px;word-spacing:0px;fill:#000000;fill-opacity:1;stroke:none;stroke-width:0.26458332"
       id="text1651">
      <path
         d="m 6.6879904,292.87003 -0.015433,0.29338 q -0.1107745,-0.0626 -0.225004,-0.0875 -0.1126721,-0.0268 -0.2302965,-0.0158 -0.2630829,0.0246 -0.4188048,0.23252 -0.1556398,0.20629 -0.1740339,0.55598 -0.018392,0.34964 0.1168796,0.53053 0.1353603,0.17919 0.3984382,0.15467 0.1175805,-0.011 0.2340855,-0.0573 0.1180791,-0.0483 0.2365768,-0.1324 l -0.015252,0.28996 q -0.1164056,0.072 -0.2399954,0.11397 -0.1221265,0.0419 -0.2588107,0.0546 -0.3718296,0.0345 -0.5765522,-0.21614 -0.2047205,-0.2508 -0.1804935,-0.71133 0.024584,-0.46737 0.2591265,-0.75571 0.2360113,-0.28845 0.6210735,-0.32434 0.1249209,-0.0115 0.2423279,0.009 0.1175227,0.018 0.2260784,0.0673 z"
         style="font-style:normal;font-variant:normal;font-weight:normal;font-stretch:normal;font-size:2.82222223px;font-family:sans-serif;-inkscape-font-specification:'sans-serif, Normal';font-variant-ligatures:normal;font-variant-caps:normal;font-variant-numeric:normal;font-feature-settings:normal;text-align:start;writing-mode:lr-tb;text-anchor:start;stroke-width:0.30324769"
         id="path1701"
         inkscape:connector-curvature="0" />
      <path
         d="m 7.7913663,292.91318 q -0.2175177,0.0204 -0.3543166,0.22991 -0.1367137,0.20794 -0.1547451,0.55077 -0.018032,0.34285 0.096485,0.52907 0.1160765,0.18437 0.3350609,0.16398 0.2160355,-0.0202 0.3528489,-0.22978 0.1368015,-0.20965 0.1547451,-0.55078 0.017854,-0.33941 -0.098132,-0.52552 -0.1158967,-0.18779 -0.3319438,-0.16765 z m 0.013999,-0.26607 q 0.3527248,-0.0328 0.540079,0.21444 0.1873511,0.24734 0.1625882,0.7181 -0.024674,0.46908 -0.2401109,0.75561 -0.2153458,0.28485 -0.5680727,0.31772 -0.3542061,0.033 -0.5415516,-0.2143 -0.1857916,-0.24919 -0.1611173,-0.71824 0.024765,-0.47077 0.2386406,-0.75548 0.2153459,-0.28485 0.5695447,-0.31785 z"
         style="font-style:normal;font-variant:normal;font-weight:normal;font-stretch:normal;font-size:2.82222223px;font-family:sans-serif;-inkscape-font-specification:'sans-serif, Normal';font-variant-ligatures:normal;font-variant-caps:normal;font-variant-numeric:normal;font-feature-settings:normal;text-align:start;writing-mode:lr-tb;text-anchor:start;stroke-width:0.30324769"
         id="path1703"
         inkscape:connector-curvature="0" />
      <path
         d="m 10.647868,293.19283 q 0.192887,-0.21097 0.37571,-0.30964 0.182814,-0.0986 0.370161,-0.0952 0.252209,0.005 0.296388,0.21855 0.04496,0.21206 -0.125387,0.6 l -0.509512,1.16046 -0.266622,-0.006 0.504994,-1.15016 q 0.121344,-0.27639 0.098,-0.41186 -0.02336,-0.13545 -0.191965,-0.13867 -0.206082,-0.004 -0.39729,0.15688 -0.191212,0.1608 -0.314822,0.44234 l -0.477103,1.08665 -0.2666245,-0.006 0.5049935,-1.15016 q 0.122103,-0.27811 0.09799,-0.41185 -0.02336,-0.13545 -0.194845,-0.13872 -0.2031978,-0.004 -0.3951618,0.15865 -0.191211,0.1608 -0.3140662,0.4406 l -0.4771051,1.08666 -0.2666163,-0.006 0.8441614,-1.92264 0.2666226,0.006 -0.1311408,0.29869 q 0.168419,-0.17508 0.3321682,-0.2568 0.163741,-0.0817 0.338101,-0.0783 0.175813,0.003 0.251604,0.11209 0.07721,0.10874 0.04736,0.31249 z"
         style="font-style:normal;font-variant:normal;font-weight:normal;font-stretch:normal;font-size:2.82222223px;font-family:sans-serif;-inkscape-font-specification:'sans-serif, Normal';font-variant-ligatures:normal;font-variant-caps:normal;font-variant-numeric:normal;font-feature-settings:normal;text-align:start;writing-mode:lr-tb;text-anchor:start;stroke-width:0.30324769"
         id="path1705"
         inkscape:connector-curvature="0" />
      <path
         d="m 11.96868,294.49375 -0.447706,1.01969 -0.266622,-0.006 1.165243,-2.65393 0.266624,0.006 -0.128125,0.29182 q 0.158957,-0.17006 0.32195,-0.25004 0.165183,-0.0816 0.342427,-0.0782 0.293962,0.005 0.354898,0.28718 0.06237,0.28161 -0.136625,0.73483 -0.198978,0.45318 -0.505542,0.72777 -0.305118,0.2746 -0.599102,0.26902 -0.177256,-0.003 -0.269353,-0.0883 -0.0899,-0.0864 -0.0981,-0.25979 z m 1.196827,-0.65404 q 0.15301,-0.34848 0.118635,-0.54819 -0.03218,-0.20141 -0.242582,-0.20543 -0.210404,-0.004 -0.418881,0.19283 -0.206287,0.19513 -0.359295,0.54361 -0.153009,0.34849 -0.120825,0.54989 0.03437,0.19971 0.244776,0.20373 0.210407,0.004 0.416686,-0.19112 0.208482,-0.19682 0.361486,-0.54532 z"
         style="font-style:normal;font-variant:normal;font-weight:normal;font-stretch:normal;font-size:2.82222223px;font-family:sans-serif;-inkscape-font-specification:'sans-serif, Normal';font-variant-ligatures:normal;font-variant-caps:normal;font-variant-numeric:normal;font-feature-settings:normal;text-align:start;writing-mode:lr-tb;text-anchor:start;stroke-width:0.30324769"
         id="path1707"
         inkscape:connector-curvature="0" />
      <path
         d="m 13.764723,294.05367 0.511022,-1.1639 0.265182,0.006 -0.505745,1.15189 q -0.119841,0.27294 -0.09079,0.41198 0.02979,0.13731 0.208498,0.14073 0.21473,0.004 0.410265,-0.15665 0.196975,-0.1607 0.320586,-0.44223 l 0.478609,-1.09008 0.26518,0.006 -0.844162,1.92265 -0.265182,-0.006 0.129639,-0.29528 q -0.173433,0.17327 -0.339373,0.25665 -0.163742,0.0816 -0.332337,0.0784 -0.278153,-0.006 -0.331796,-0.21404 -0.05366,-0.20875 0.120438,-0.60527 z"
         style="font-style:normal;font-variant:normal;font-weight:normal;font-stretch:normal;font-size:2.82222223px;font-family:sans-serif;-inkscape-font-specification:'sans-serif, Normal';font-variant-ligatures:normal;font-variant-caps:normal;font-variant-numeric:normal;font-feature-settings:normal;text-align:start;writing-mode:lr-tb;text-anchor:start;stroke-width:0.30324769"
         id="path1709"
         inkscape:connector-curvature="0" />
      <path
         d="m 15.883103,292.39373 0.01558,0.54312 0.553865,0.0105 0.007,0.24423 -0.553865,-0.0105 0.02978,1.0384 q 0.0067,0.23398 0.06268,0.30161 0.05745,0.0675 0.225497,0.0707 l 0.276178,0.005 0.0075,0.26301 -0.27618,-0.005 q -0.31126,-0.005 -0.433509,-0.14294 -0.122286,-0.13883 -0.132562,-0.4975 l -0.02978,-1.03839 -0.19729,-0.004 -0.007,-0.24424 0.197291,0.004 -0.01558,-0.54312 z"
         style="font-style:normal;font-variant:normal;font-weight:normal;font-stretch:normal;font-size:2.82222223px;font-family:sans-serif;-inkscape-font-specification:'sans-serif, Normal';font-variant-ligatures:normal;font-variant-caps:normal;font-variant-numeric:normal;font-feature-settings:normal;text-align:start;writing-mode:lr-tb;text-anchor:start;stroke-width:0.30324769"
         id="path1711"
         inkscape:connector-curvature="0" />
      <path
         d="m 18.232778,293.85773 0.0044,0.15371 -1.236318,-0.023 q 0.02683,0.32484 0.180788,0.49841 0.155365,0.17188 0.422796,0.17687 0.154904,0.003 0.298309,-0.0387 0.144865,-0.0417 0.285534,-0.12784 l 0.0085,0.29718 q -0.142619,0.0691 -0.293525,0.10381 -0.150907,0.0347 -0.307272,0.0318 -0.391657,-0.008 -0.628715,-0.27801 -0.235608,-0.27068 -0.248623,-0.72497 -0.01344,-0.46968 0.194947,-0.74063 0.209816,-0.27262 0.578081,-0.26576 0.330263,0.006 0.528853,0.25907 0.199996,0.25124 0.21223,0.67823 z m -0.271535,-0.0973 q -0.01036,-0.25795 -0.136009,-0.4139 -0.124237,-0.15596 -0.322983,-0.15967 -0.225064,-0.005 -0.3567,0.14187 -0.130189,0.14608 -0.142916,0.41555 z"
         style="font-style:normal;font-variant:normal;font-weight:normal;font-stretch:normal;font-size:2.82222223px;font-family:sans-serif;-inkscape-font-specification:'sans-serif, Normal';font-variant-ligatures:normal;font-variant-caps:normal;font-variant-numeric:normal;font-feature-settings:normal;text-align:start;writing-mode:lr-tb;text-anchor:start;stroke-width:0.30324769"
         id="path1713"
         inkscape:connector-curvature="0" />
      <path
         d="m 19.605804,293.29952 q -0.04618,-0.0316 -0.100647,-0.0462 -0.05305,-0.0163 -0.117352,-0.0176 -0.227987,-0.005 -0.345737,0.16766 -0.116352,0.17024 -0.107053,0.49475 l 0.02883,1.00765 -0.270332,-0.004 -0.0548,-1.91286 0.270331,0.004 0.0085,0.29716 q 0.07977,-0.17262 0.213278,-0.25377 0.133462,-0.0828 0.327824,-0.0792 0.02776,5.2e-4 0.06154,0.007 0.03372,0.005 0.0749,0.0143 z"
         style="font-style:normal;font-variant:normal;font-weight:normal;font-stretch:normal;font-size:2.82222223px;font-family:sans-serif;-inkscape-font-specification:'sans-serif, Normal';font-variant-ligatures:normal;font-variant-caps:normal;font-variant-numeric:normal;font-feature-settings:normal;text-align:start;writing-mode:lr-tb;text-anchor:start;stroke-width:0.30324769"
         id="path1715"
         inkscape:connector-curvature="0" />
      <path
         d="m 21.096868,292.77235 -0.01857,0.34476 q -0.110229,-0.10674 -0.231384,-0.17592 -0.121161,-0.0693 -0.253267,-0.101 -0.201096,-0.0483 -0.306854,0.0108 -0.104296,0.0594 -0.113266,0.22573 -0.0069,0.12687 0.06113,0.21736 0.06808,0.0886 0.281797,0.2061 l 0.09098,0.0498 q 0.283211,0.15228 0.395355,0.33364 0.113723,0.1798 0.0991,0.45127 -0.01665,0.30909 -0.208377,0.44573 -0.190257,0.137 -0.507308,0.061 -0.132101,-0.0316 -0.274033,-0.1019 -0.140568,-0.0678 -0.295351,-0.17526 l 0.02027,-0.37647 q 0.144067,0.1409 0.286495,0.22927 0.142545,0.0864 0.284921,0.12048 0.190823,0.0458 0.29826,-0.0167 0.107548,-0.0645 0.116195,-0.22501 0.008,-0.14862 -0.06259,-0.24583 -0.06912,-0.0968 -0.316172,-0.23036 l -0.09233,-0.0522 q -0.247153,-0.13144 -0.350813,-0.3049 -0.103556,-0.17536 -0.08967,-0.43295 0.01686,-0.31305 0.190443,-0.44402 0.173575,-0.13097 0.47595,-0.0584 0.149716,0.0359 0.280221,0.0974 0.130498,0.0614 0.238856,0.14756 z"
         style="font-style:normal;font-variant:normal;font-weight:normal;font-stretch:normal;font-size:2.82222223px;font-family:sans-serif;-inkscape-font-specification:'sans-serif, Normal';font-variant-ligatures:normal;font-variant-caps:normal;font-variant-numeric:normal;font-feature-settings:normal;text-align:start;writing-mode:lr-tb;text-anchor:start;stroke-width:0.32954201"
         id="path1717"
         inkscape:connector-curvature="0" />
      <path
         d="m 22.687176,292.73595 0.01856,0.34598 q -0.119128,-0.0913 -0.237344,-0.13817 -0.116857,-0.0489 -0.234275,-0.0536 -0.262757,-0.0117 -0.395728,0.21262 -0.133111,0.22136 -0.110986,0.63372 0.02214,0.41235 0.179736,0.64761 0.157503,0.23326 0.42023,0.244 0.117399,0.004 0.229639,-0.0327 0.113579,-0.0395 0.223419,-0.12136 l 0.01841,0.34194 q -0.109128,0.0678 -0.22901,0.099 -0.118415,0.0312 -0.254912,0.0258 -0.371355,-0.0157 -0.607195,-0.34398 -0.235853,-0.32876 -0.264994,-0.87187 -0.02954,-0.55117 0.173645,-0.85796 0.204684,-0.30674 0.589233,-0.29099 0.124736,0.004 0.245587,0.0461 0.120724,0.0391 0.236054,0.11417 z"
         style="font-style:normal;font-variant:normal;font-weight:normal;font-stretch:normal;font-size:2.82222223px;font-family:sans-serif;-inkscape-font-specification:'sans-serif, Normal';font-variant-ligatures:normal;font-variant-caps:normal;font-variant-numeric:normal;font-feature-settings:normal;text-align:start;writing-mode:lr-tb;text-anchor:start;stroke-width:0.32954201"
         id="path1719"
         inkscape:connector-curvature="0" />
      <path
         d="m 23.862611,294.036 q -0.325878,-0.006 -0.449069,0.0787 -0.12318,0.0848 -0.117162,0.29483 0.0048,0.16738 0.101152,0.26818 0.09777,0.0991 0.259986,0.10204 0.223602,0.004 0.352752,-0.17778 0.130572,-0.18363 0.121764,-0.49105 l -0.002,-0.0701 z m 0.532603,-0.1198 0.03126,1.09135 -0.26887,-0.004 -0.0083,-0.29035 q -0.08708,0.1725 -0.222046,0.25363 -0.135018,0.0794 -0.333767,0.0757 -0.251374,-0.005 -0.405112,-0.17142 -0.152345,-0.16842 -0.160272,-0.44509 -0.0093,-0.32281 0.170187,-0.48333 0.180896,-0.16049 0.547699,-0.15367 l 0.377039,0.007 -8.79e-4,-0.0307 q -0.0062,-0.2169 -0.132347,-0.33703 -0.124718,-0.12183 -0.345387,-0.126 -0.140292,-0.003 -0.272149,0.0342 -0.131859,0.0368 -0.252361,0.11316 l -0.0083,-0.29034 q 0.145692,-0.0638 0.283592,-0.0937 0.137851,-0.0316 0.269372,-0.0292 0.355112,0.007 0.536642,0.22508 0.18153,0.21846 0.194057,0.65569 z"
         style="font-style:normal;font-variant:normal;font-weight:normal;font-stretch:normal;font-size:2.82222223px;font-family:sans-serif;-inkscape-font-specification:'sans-serif, Normal';font-variant-ligatures:normal;font-variant-caps:normal;font-variant-numeric:normal;font-feature-settings:normal;text-align:start;writing-mode:lr-tb;text-anchor:start;stroke-width:0.30324769"
         id="path1721"
         inkscape:connector-curvature="0" />
      <path
         d="m 25.878758,293.31529 q -0.04629,-0.0336 -0.100799,-0.0492 -0.0531,-0.0174 -0.117409,-0.0187 -0.227994,-0.005 -0.345214,0.17805 -0.115817,0.18092 -0.105487,0.52595 l 0.03212,1.07145 -0.270383,-0.006 -0.06092,-2.03392 0.270385,0.006 0.0095,0.31597 q 0.07923,-0.1835 0.212479,-0.2697 0.133198,-0.0881 0.327582,-0.084 0.02776,5.6e-4 0.06155,0.007 0.03375,0.005 0.07493,0.0147 z"
         style="font-style:normal;font-variant:normal;font-weight:normal;font-stretch:normal;font-size:2.82222223px;font-family:sans-serif;-inkscape-font-specification:'sans-serif, Normal';font-variant-ligatures:normal;font-variant-caps:normal;font-variant-numeric:normal;font-feature-settings:normal;text-align:start;writing-mode:lr-tb;text-anchor:start;stroke-width:0.31269911"
         id="path1723"
         inkscape:connector-curvature="0" />
      <path
         d="m 27.524158,294.03083 0.0044,0.15371 -1.236317,-0.023 q 0.02684,0.32484 0.180787,0.49841 0.155366,0.17188 0.422796,0.17687 0.154906,0.003 0.298312,-0.0387 0.144863,-0.0417 0.285533,-0.12783 l 0.0085,0.29717 q -0.142619,0.0691 -0.293525,0.10381 -0.150907,0.0347 -0.307272,0.0318 -0.391656,-0.008 -0.628715,-0.27798 -0.235607,-0.2707 -0.248623,-0.72499 -0.01344,-0.46967 0.194947,-0.74063 0.209816,-0.27262 0.578081,-0.26576 0.330263,0.006 0.528853,0.25906 0.199997,0.25126 0.21223,0.67824 z m -0.271535,-0.0973 q -0.01036,-0.25794 -0.136011,-0.4139 -0.124236,-0.15596 -0.322982,-0.15967 -0.225064,-0.005 -0.3567,0.14187 -0.130189,0.14608 -0.142916,0.41555 z"
         style="font-style:normal;font-variant:normal;font-weight:normal;font-stretch:normal;font-size:2.82222223px;font-family:sans-serif;-inkscape-font-specification:'sans-serif, Normal';font-variant-ligatures:normal;font-variant-caps:normal;font-variant-numeric:normal;font-feature-settings:normal;text-align:start;writing-mode:lr-tb;text-anchor:start;stroke-width:0.30324769"
         id="path1725"
         inkscape:connector-curvature="0" />
    </g>
    <g
       aria-label="router"
       transform="matrix(1.033705,0.06259817,-0.33553856,0.94707474,26.05654,-0.63637663)"
       style="font-style:normal;font-weight:normal;font-size:6.75034046px;line-height:1.25;font-family:sans-serif;letter-spacing:0px;word-spacing:0px;fill:#000000;fill-opacity:1;stroke:none;stroke-width:0.16875851"
       id="text2005">
      <path
         d="m 70.369082,205.60124 q -0.102178,-0.0593 -0.224132,-0.0857 -0.118658,-0.0297 -0.263685,-0.0297 -0.514186,0 -0.791056,0.3362 -0.273573,0.33291 -0.273573,0.95916 v 1.94468 h -0.609772 v -3.6916 h 0.609772 v 0.57352 q 0.191172,-0.3362 0.497706,-0.49771 0.306534,-0.1648 0.74491,-0.1648 0.06262,0 0.138435,0.01 0.07581,0.007 0.168099,0.0231 z"
         style="stroke-width:0.16875851"
         id="path2007"
         inkscape:connector-curvature="0" />
      <path
         d="m 72.1885,205.10408 q -0.488922,-0.003 -0.759925,0.41732 -0.271115,0.41708 -0.248414,1.14953 0.0227,0.73244 0.316601,1.1571 0.297092,0.42104 0.789317,0.42446 0.485619,0.003 0.756621,-0.41735 0.271003,-0.42072 0.248416,-1.14952 -0.02248,-0.72516 -0.31968,-1.14983 -0.297317,-0.42833 -0.782936,-0.43171 z m -0.01762,-0.56847 q 0.792848,0.006 1.26305,0.57714 0.470202,0.57161 0.501373,1.57736 0.03106,1.00209 -0.403794,1.57105 -0.434965,0.56531 -1.227813,0.55979 -0.79615,-0.006 -1.266352,-0.57715 -0.467012,-0.57524 -0.49807,-1.57733 -0.03117,-1.00575 0.400491,-1.57108 0.434965,-0.56532 1.231115,-0.55978 z"
         style="stroke-width:0.1776239"
         id="path2009"
         inkscape:connector-curvature="0" />
      <path
         d="m 75.20181,207.70345 -0.476539,-2.31698 0.681941,-0.16103 0.471617,2.29306 q 0.111756,0.54336 0.397767,0.7625 0.285312,0.21571 0.744881,0.10719 0.552224,-0.13039 0.804188,-0.53029 0.255667,-0.40079 0.140405,-0.96124 l -0.446317,-2.17004 0.681941,-0.16101 0.787203,3.82745 -0.681942,0.16103 -0.120892,-0.58779 q -0.176624,0.40719 -0.471333,0.65596 -0.291706,0.24445 -0.725333,0.34684 -0.715297,0.1689 -1.170262,-0.15367 -0.45496,-0.32257 -0.61732,-1.11198 z"
         style="stroke-width:0.18658562"
         id="path2011"
         inkscape:connector-curvature="0" />
      <path
         d="m 80.144683,203.96943 -0.04589,1.05117 1.417697,-0.0111 -0.02063,0.4727 -1.219511,0.0854 -0.08774,2.00981 c -0.01318,0.30191 -0.173697,0.42117 -0.08518,0.5064 0.09101,0.0852 0.279907,0.12666 0.566688,0.12441 l 0.706979,-0.006 -0.02222,0.50907 -0.706979,0.006 c -0.531168,0.004 -0.893949,-0.0802 -1.088344,-0.2525 -0.194297,-0.17472 -0.281344,-0.49347 -0.261142,-0.95625 l 0.08774,-2.00981 -0.504984,0.004 0.02064,-0.4727 0.504985,-0.004 0.04589,-1.05117 z"
         style="stroke-width:0.18000843"
         id="path2013"
         inkscape:connector-curvature="0"
         sodipodi:nodetypes="cccccsccccccccccccc" />
      <path
         d="m 85.092631,206.72892 -0.0048,0.29697 -2.928548,0.009 q 0.03133,0.6268 0.379041,0.95564 0.351227,0.32554 0.984708,0.32354 0.366934,-10e-4 0.711034,-0.088 0.347561,-0.0869 0.689596,-0.25953 l -0.0094,0.57412 q -0.34496,0.13968 -0.706153,0.2134 -0.361193,0.0737 -0.731588,0.0749 -0.92772,0.003 -1.462813,-0.51008 -0.531631,-0.51304 -0.517335,-1.39073 0.01478,-0.9074 0.535756,-1.44026 0.524491,-0.53617 1.396824,-0.53893 0.782331,-0.002 1.227959,0.47785 0.449143,0.477 0.435707,1.30189 z m -0.63404,-0.17616 q 0.0012,-0.49822 -0.281286,-0.79428 -0.279018,-0.29606 -0.749801,-0.29457 -0.533092,0.002 -0.859701,0.28976 -0.323146,0.28807 -0.380101,0.80957 z"
         style="stroke-width:0.17303403"
         id="path2015"
         inkscape:connector-curvature="0" />
      <path
         d="m 88.233752,205.60124 q -0.102178,-0.0593 -0.224132,-0.0857 -0.118659,-0.0297 -0.263686,-0.0297 -0.514186,0 -0.791055,0.3362 -0.273573,0.33291 -0.273573,0.95916 v 1.94468 h -0.609772 v -3.6916 h 0.609772 v 0.57352 q 0.191171,-0.3362 0.497705,-0.49771 0.306534,-0.1648 0.744911,-0.1648 0.06262,0 0.138435,0.01 0.07581,0.007 0.168099,0.0231 z"
         style="stroke-width:0.16875851"
         id="path2017"
         inkscape:connector-curvature="0" />
    </g>
    <text
       xml:space="preserve"
       style="font-style:normal;font-variant:normal;font-weight:normal;font-stretch:normal;font-size:3.52777767px;line-height:1.25;font-family:sans-serif;-inkscape-font-specification:'sans-serif, Normal';font-variant-ligatures:normal;font-variant-caps:normal;font-variant-numeric:normal;font-feature-settings:normal;text-align:start;letter-spacing:0px;word-spacing:0px;writing-mode:lr-tb;text-anchor:start;fill:#000000;fill-opacity:1;stroke:none;stroke-width:0.26458332"
       x="8.3343754"
       y="206.19296"
       id="text979"><tspan
         sodipodi:role="line"
         id="tspan977"
         x="8.3343754"
         y="206.19296"
         style="font-style:normal;font-variant:normal;font-weight:normal;font-stretch:normal;font-size:3.52777767px;font-family:sans-serif;-inkscape-font-specification:'sans-serif, Normal';font-variant-ligatures:normal;font-variant-caps:normal;font-variant-numeric:normal;font-feature-settings:normal;text-align:start;writing-mode:lr-tb;text-anchor:start;stroke-width:0.26458332">active</tspan></text>
    <text
       id="text983"
       y="224.61163"
       x="31.011026"
       style="font-style:normal;font-weight:normal;font-size:10.58333302px;line-height:1.25;font-family:sans-serif;letter-spacing:0px;word-spacing:0px;fill:#000000;fill-opacity:1;stroke:none;stroke-width:0.26458332"
       xml:space="preserve"><tspan
         style="stroke-width:0.26458332"
         y="233.9754"
         x="31.011026"
         id="tspan981"
         sodipodi:role="line" /></text>
    <text
       id="text987"
       y="205.7494"
       x="32.940628"
       style="font-style:normal;font-variant:normal;font-weight:normal;font-stretch:normal;font-size:3.52777767px;line-height:1.25;font-family:sans-serif;-inkscape-font-specification:'sans-serif, Normal';font-variant-ligatures:normal;font-variant-caps:normal;font-variant-numeric:normal;font-feature-settings:normal;text-align:start;letter-spacing:0px;word-spacing:0px;writing-mode:lr-tb;text-anchor:start;fill:#000000;fill-opacity:1;stroke:none;stroke-width:0.26458332"
       xml:space="preserve"><tspan
         style="font-style:normal;font-variant:normal;font-weight:normal;font-stretch:normal;font-size:3.52777767px;font-family:sans-serif;-inkscape-font-specification:'sans-serif, Normal';font-variant-ligatures:normal;font-variant-caps:normal;font-variant-numeric:normal;font-feature-settings:normal;text-align:start;writing-mode:lr-tb;text-anchor:start;stroke-width:0.26458332"
         y="205.7494"
         x="32.940628"
         id="tspan985"
         sodipodi:role="line">steps</tspan></text>
    <text
       xml:space="preserve"
       style="font-style:normal;font-variant:normal;font-weight:normal;font-stretch:normal;font-size:3.52777767px;line-height:1.25;font-family:sans-serif;-inkscape-font-specification:'sans-serif, Normal';font-variant-ligatures:normal;font-variant-caps:normal;font-variant-numeric:normal;font-feature-settings:normal;text-align:start;letter-spacing:0px;word-spacing:0px;writing-mode:lr-tb;text-anchor:start;fill:#000000;fill-opacity:1;stroke:none;stroke-width:0.26458332"
       x="63.63229"
       y="205.85103"
       id="text991"><tspan
         sodipodi:role="line"
         id="tspan989"
         x="63.63229"
         y="205.85103"
         style="font-style:normal;font-variant:normal;font-weight:normal;font-stretch:normal;font-size:3.52777767px;font-family:sans-serif;-inkscape-font-specification:'sans-serif, Normal';font-variant-ligatures:normal;font-variant-caps:normal;font-variant-numeric:normal;font-feature-settings:normal;text-align:start;writing-mode:lr-tb;text-anchor:start;stroke-width:0.26458332">editing</tspan></text>
  </g>
</svg>
