<?xml version="1.0" encoding="UTF-8" standalone="no"?>
<svg
   xmlns:dc="http://purl.org/dc/elements/1.1/"
   xmlns:cc="http://creativecommons.org/ns#"
   xmlns:rdf="http://www.w3.org/1999/02/22-rdf-syntax-ns#"
   xmlns:svg="http://www.w3.org/2000/svg"
   xmlns="http://www.w3.org/2000/svg"
   xmlns:sodipodi="http://sodipodi.sourceforge.net/DTD/sodipodi-0.dtd"
   xmlns:inkscape="http://www.inkscape.org/namespaces/inkscape"
   width="30"
   height="380"
   viewBox="0 0 7.9374995 100.54167"
   version="1.1"
   id="svg8"
   inkscape:version="1.0.1 (c497b03c, 2020-09-10)"
   sodipodi:docname="ComputerscareCustomBlankExpanderPanel.svg">
  <defs
     id="defs2" />
  <sodipodi:namedview
     id="base"
     pagecolor="#ffffff"
     bordercolor="#666666"
     borderopacity="1.0"
     inkscape:pageopacity="0.0"
     inkscape:pageshadow="2"
     inkscape:zoom="3.959798"
     inkscape:cx="12.478159"
     inkscape:cy="265.05363"
     inkscape:document-units="mm"
     inkscape:current-layer="text929"
     inkscape:document-rotation="0"
     showgrid="false"
     inkscape:window-width="1252"
     inkscape:window-height="855"
     inkscape:window-x="0"
     inkscape:window-y="23"
     inkscape:window-maximized="0"
     units="px"
     inkscape:snap-global="false" />
  <metadata
     id="metadata5">
    <rdf:RDF>
      <cc:Work
         rdf:about="">
        <dc:format>image/svg+xml</dc:format>
        <dc:type
           rdf:resource="http://purl.org/dc/dcmitype/StillImage" />
        <dc:title />
      </cc:Work>
    </rdf:RDF>
  </metadata>
  <g
     inkscape:label="Layer 1"
     inkscape:groupmode="layer"
     id="layer1">
    <path
       id="rect2605"
       style="fill:#e7e7e7;fill-opacity:1;stroke:#171717;stroke-width:0.19605;stroke-miterlimit:4;stroke-dasharray:none;stroke-opacity:1"
       d="M 0.11351532,0.11283527 H 7.999953 L 7.952706,100.43718 0.11351532,99.96175 Z"
       sodipodi:nodetypes="ccccc" />
    <g
       id="g9547"
       transform="matrix(0.34537853,-0.08593646,0,0.33853324,-3.4926401,0.35544723)"
       style="display:inline;enable-background:new">
      <g
         style="display:inline"
         inkscape:label="Layer 1"
         id="layer4" />
      <path
         id="rect5872"
         d="m 11.987289,9.3234482 h 7.991524 v 3.9957608 h -7.991524 z"
         style="opacity:1;fill:#0f0f00;fill-opacity:1;stroke:#000000;stroke-width:0;stroke-miterlimit:4;stroke-dasharray:none;stroke-opacity:1"
         inkscape:connector-curvature="0" />
      <path
         id="rect5874"
         d="m 14.667374,10.662096 h 3.995763 v 1.331921 h -3.995763 z"
         style="opacity:1;fill:#ffffff;fill-opacity:0.985714;stroke:#000000;stroke-width:0;stroke-miterlimit:4;stroke-dasharray:none;stroke-opacity:1"
         inkscape:connector-curvature="0" />
      <path
         id="rect5878"
         d="m -29.323654,9.3234482 h 7.989551 v 3.9957608 h -7.989551 z"
         style="opacity:1;fill:#0c0c00;fill-opacity:1;stroke:#000000;stroke-width:0;stroke-miterlimit:4;stroke-dasharray:none;stroke-opacity:1"
         transform="scale(-1,1)"
         inkscape:connector-curvature="0" />
      <path
         id="rect5880"
         d="m 26.64423,10.662096 -3.171232,0.209056 v 1.331921 l 3.171232,-0.209056 z"
         style="opacity:1;fill:#ffffff;fill-opacity:0.985714;stroke:#000000;stroke-width:0;stroke-miterlimit:4;stroke-dasharray:none;stroke-opacity:1"
         inkscape:connector-curvature="0" />
      <path
         id="rect5882"
         d="m 19.995058,14.667374 h 1.331921 v 3.995762 h -1.331921 z"
         style="opacity:1;fill:#000000;fill-opacity:1;stroke:#000000;stroke-width:0;stroke-miterlimit:4;stroke-dasharray:none;stroke-opacity:1"
         inkscape:connector-curvature="0" />
      <path
         id="rect5884"
         d="m 20.888507,17.21991 2.579094,0.32072 v 1.33192 l -2.579094,-0.32072 z"
         style="opacity:1;fill:#000000;fill-opacity:1;stroke:#000000;stroke-width:0;stroke-miterlimit:4;stroke-dasharray:none;stroke-opacity:1"
         inkscape:connector-curvature="0" />
      <path
         id="rect5886"
         d="m 11.954803,20.011301 h 2.696328 v 2.663842 h -2.696328 z"
         style="opacity:1;fill:#000200;fill-opacity:1;stroke:#000000;stroke-width:0;stroke-miterlimit:4;stroke-dasharray:none;stroke-opacity:1"
         inkscape:connector-curvature="0" />
      <path
         id="rect5888"
         d="m 27.970341,20.011301 h 2.696327 v 2.663842 h -2.696327 z"
         style="opacity:1;fill:#000200;fill-opacity:1;stroke:#000000;stroke-width:0;stroke-miterlimit:4;stroke-dasharray:none;stroke-opacity:1"
         inkscape:connector-curvature="0" />
      <path
         id="rect5890"
         d="m 14.651131,20.011301 h 13.351695 v 1.33192 H 14.651131 Z"
         style="opacity:1;fill:#000200;fill-opacity:1;stroke:#000000;stroke-width:0;stroke-miterlimit:4;stroke-dasharray:none;stroke-opacity:1"
         inkscape:connector-curvature="0" />
    </g>
    <g
       aria-label="eoc
trg
out"
       transform="scale(1.3714177,0.72917246)"
       id="text852"
       style="font-style:normal;font-weight:normal;font-size:2.59021px;line-height:1.25;font-family:sans-serif;fill:#000000;fill-opacity:1;stroke:none;stroke-width:0.0647553">
      <path
         d="M 2.2423614,128.9965 H 0.90881775 q 0,0.21248 0.0502307,0.37136 0.0502307,0.15675 0.13772935,0.25787 0.084258,0.099 0.1993024,0.1486 0.1166647,0.0496 0.2560144,0.0496 0.1847193,0 0.3710591,-0.0928 0.1879599,-0.0949 0.2673568,-0.18568 h 0.016203 v 0.42293 q -0.1539327,0.0826 -0.3143468,0.13817 -0.1604142,0.0556 -0.3370317,0.0556 -0.450456,0 -0.70322966,-0.30945 -0.25277377,-0.31152 -0.25277377,-0.88298 0,-0.56527 0.24143135,-0.89743 0.24305178,-0.33214 0.63841588,-0.33214 0.3661979,0 0.5638799,0.27231 0.1993024,0.27232 0.1993024,0.77366 z m -0.296523,-0.29708 q -0.00162,-0.30534 -0.1215255,-0.47243 -0.1182854,-0.16713 -0.3613369,-0.16713 -0.244672,0 -0.390503,0.18363 -0.14421073,0.18361 -0.16365486,0.45593 z"
         style="stroke-width:0.0936114"
         id="path877" />
      <path
         d="m 3.8260932,128.76192 q 0,0.47281 -0.200687,0.74645 -0.2006871,0.27364 -0.5375547,0.27364 -0.3397345,0 -0.5404216,-0.27364 -0.1992536,-0.27364 -0.1992536,-0.74645 0,-0.47281 0.1992536,-0.74645 0.2006871,-0.27536 0.5404216,-0.27536 0.3368676,0 0.5375547,0.27536 0.200687,0.27364 0.200687,0.74645 z m -0.2780949,0 q 0,-0.37582 -0.1218457,-0.55767 -0.1218457,-0.18357 -0.3383011,-0.18357 -0.2193223,0 -0.341168,0.18357 -0.1204122,0.18185 -0.1204122,0.55767 0,0.3637 0.1218457,0.55248 0.1218456,0.18704 0.3397345,0.18704 0.2150218,0 0.3368676,-0.18531 0.1232792,-0.18704 0.1232792,-0.55421 z"
         style="stroke-width:0.0806727"
         id="path879" />
      <path
         d="m 5.4287229,129.60709 q -0.1347471,0.0779 -0.2565927,0.12119 -0.1204123,0.0433 -0.2565928,0.0433 -0.173451,0 -0.3182324,-0.0607 -0.1447814,-0.0623 -0.2479919,-0.18704 -0.1046442,-0.12475 -0.1619831,-0.3152 -0.057339,-0.19052 -0.057339,-0.4451 0,-0.47455 0.2150219,-0.74472 0.2164554,-0.27018 0.5705247,-0.27018 0.137614,0 0.269494,0.0467 0.1333136,0.0467 0.2436915,0.11434 v 0.36198 h -0.014334 q -0.1232792,-0.11599 -0.2551593,-0.17839 -0.1304466,-0.0623 -0.2551592,-0.0623 -0.2293567,0 -0.3626702,0.18705 -0.1318801,0.18531 -0.1318801,0.54555 0,0.34983 0.1290131,0.53861 0.1304466,0.18705 0.3655372,0.18705 0.081709,0 0.1662835,-0.026 0.084575,-0.026 0.1519488,-0.0675 0.058773,-0.0364 0.1103781,-0.0763 0.051605,-0.0415 0.081708,-0.0711 h 0.014334 z"
         style="stroke-width:0.0806727"
         id="path881" />
      <path
         d="m 1.593314,132.85438 q -0.097314,0.0249 -0.2129895,0.0409 -0.1138399,0.016 -0.2038089,0.016 -0.31397591,0 -0.47739029,-0.16332 -0.16341437,-0.16331 -0.16341437,-0.52366 v -1.05442 h -0.2331868 v -0.28047 h 0.2331868 v -0.56982 H 0.8809008 v 0.56982 H 1.593314 v 0.28047 H 0.8809008 v 0.90354 q 0,0.1562 0.007346,0.24496 0.007346,0.087 0.0514112,0.16332 0.0403938,0.071 0.1101669,0.1047 0.071608,0.032 0.2166618,0.032 0.084462,0 0.1762671,-0.023 0.091807,-0.0248 0.1322003,-0.0408 h 0.01836 z"
         style="stroke-width:0.0924347"
         id="path883" />
      <path
         d="m 3.2917218,131.25321 h -0.018361 q -0.077116,-0.0177 -0.1505614,-0.0248 -0.071608,-0.008 -0.1707589,-0.008 -0.1597421,0 -0.3084675,0.0692 -0.1487256,0.0675 -0.2864343,0.17573 v 1.40767 H 2.0119485 v -1.98281 h 0.34519 v 0.29289 q 0.205645,-0.15976 0.3617149,-0.22544 0.157906,-0.0675 0.3213205,-0.0675 0.08997,0 0.1303638,0.006 0.040394,0.004 0.1211829,0.016 z"
         style="stroke-width:0.0924347"
         id="path885" />
      <path
         d="m 5.5941597,131.80264 q 0,0.38262 -0.2829609,0.5618 -0.2829612,0.17918 -0.8708184,0.17918 -0.1952212,0 -0.3816684,-0.0175 -0.1842537,-0.0162 -0.3641205,-0.0472 v -0.25868 h 0.021934 q 0.1009016,0.0243 0.3202506,0.0592 0.2193497,0.0364 0.4386992,0.0364 0.2105758,0 0.348766,-0.031 0.1381898,-0.031 0.2149628,-0.0862 0.076772,-0.0525 0.1096756,-0.12665 0.032902,-0.0741 0.032902,-0.1657 v -0.13743 q -0.1864474,0.0916 -0.3575402,0.13743 -0.1688995,0.0444 -0.4321188,0.0444 -0.4386994,0 -0.697532,-0.194 -0.2566392,-0.19535 -0.2566392,-0.54968 0,-0.194 0.08774,-0.33412 0.089934,-0.14146 0.2434781,-0.24385 0.1425776,-0.0957 0.3465726,-0.14819 0.2039951,-0.0539 0.4057968,-0.0539 0.2127693,0 0.3553466,0.0269 0.1447698,0.0256 0.3048961,0.0795 l 0.026322,-0.0647 h 0.3860554 z m -0.4123772,-0.2425 v -0.82047 q -0.1645117,-0.0458 -0.3070897,-0.0647 -0.1403837,-0.0202 -0.2807676,-0.0202 -0.339992,0 -0.5352132,0.14012 -0.1952213,0.14011 -0.1952213,0.40686 0,0.25328 0.1447716,0.38397 0.1447715,0.13068 0.4803759,0.13068 0.1798666,0 0.3597333,-0.0418 0.1820602,-0.0431 0.3334117,-0.11451 z"
         style="stroke-width:0.0880159"
         id="path887" />
      <path
         d="m 2.0719654,134.54691 q -0.036612,0.53183 -0.2745203,0.78685 -0.2379072,0.25502 -0.6016842,0.16643 -0.36687297,-0.0893 -0.56240211,-0.44991 -0.19398053,-0.36019 -0.15736812,-0.89203 0.0366124,-0.53183 0.2729716,-0.78722 0.23804232,-0.25698 0.60491523,-0.16764 0.363777,0.0886 0.559171,0.45112 0.1955293,0.36057 0.1589169,0.8924 z m -0.3003096,-0.0731 q 0.029102,-0.42274 -0.088396,-0.65931 -0.1173625,-0.23855 -0.3511086,-0.29547 -0.236842,-0.0577 -0.38263719,0.11679 -0.14411141,0.17286 -0.17321385,0.59561 -0.028163,0.40909 0.0887974,0.65348 0.11709505,0.24244 0.35238898,0.29973 0.2321981,0.0566 0.3781258,-0.11984 0.1476122,-0.17799 0.1760435,-0.59099 z"
         style="stroke-width:0.0896538"
         id="path889" />
      <path
         d="m 3.8825789,136.0931 -0.2910214,-0.0709 0.01663,-0.24158 q -0.1571112,0.11021 -0.2971558,0.15541 -0.1400411,0.0452 -0.3025797,0.006 -0.2724457,-0.0663 -0.409799,-0.31173 -0.1372181,-0.24735 -0.1093234,-0.65255 l 0.097231,-1.41237 0.2910216,0.0709 -0.085295,1.23899 q -0.011399,0.16559 -0.0072,0.28743 0.00434,0.11992 0.038818,0.21347 0.03589,0.096 0.099769,0.15116 0.063887,0.0551 0.1908221,0.086 0.1130033,0.0275 0.25123,-0.0142 0.1397747,-0.0413 0.2637825,-0.12789 l 0.1118485,-1.62471 0.2910215,0.0709 z"
         style="stroke-width:0.0896538"
         id="path891" />
      <path
         d="m 5.4548738,135.66652 q -0.082728,0.0248 -0.1810654,0.0408 -0.096777,0.016 -0.1732608,0.016 -0.2669154,0 -0.4058364,-0.16303 -0.1389208,-0.16301 -0.1389208,-0.52274 v -1.05256 H 4.357555 v -0.27998 h 0.1982354 v -0.56882 h 0.2934509 v 0.56882 h 0.6056325 v 0.27998 H 4.8492413 v 0.90195 q 0,0.15594 0.00624,0.24453 0.00624,0.0869 0.043705,0.16303 0.034339,0.0709 0.093654,0.10452 0.060875,0.0319 0.1841872,0.0319 0.071802,0 0.1498473,-0.023 0.078045,-0.0248 0.1123853,-0.0408 h 0.015608 z"
         style="stroke-width:0.0851513"
         id="path893" />
      <g
         aria-label="frame
trg
out"
         transform="matrix(0.4228123,0,0,0.31808494,-0.85751407,79.330587)"
         id="text898"
         style="font-style:normal;font-weight:normal;font-size:10.5833px;line-height:1.25;font-family:sans-serif;fill:#000000;fill-opacity:1;stroke:none;stroke-width:0.0171332">
        <path
           d="m 4.5608502,-12.700577 h -0.019301 q -0.059834,-0.04651 -0.156341,-0.09302 -0.096507,-0.05168 -0.169852,-0.05168 -0.2335465,0 -0.3397041,0.279052 -0.1042273,0.273885 -0.1042273,0.997352 v 0.19637 H 4.425741 v 0.816485 H 3.7830053 v 4.9557537 H 3.4201397 V -10.556018 H 3.1750124 v -0.816485 h 0.2451273 v -0.191202 q 0,-1.028358 0.1910835,-1.576126 0.1910834,-0.552936 0.5520189,-0.552936 0.1215986,0 0.2181054,0.03101 0.098437,0.03101 0.1795027,0.07235 z"
           style="stroke-width:0.0104709"
           id="path904" />
        <path
           d="m 6.1358413,-10.313133 h -0.019301 q -0.081066,-0.05168 -0.1582711,-0.07235 -0.075276,-0.02584 -0.1795027,-0.02584 -0.1679219,0 -0.324263,0.201537 -0.1563411,0.196375 -0.3011012,0.5115999 v 4.0979278 H 4.7905364 V -11.372497 H 5.153402 v 0.852659 q 0.2161752,-0.465087 0.3802368,-0.656289 0.1659916,-0.19637 0.3377738,-0.19637 0.094577,0 0.1370397,0.0155 0.042463,0.01033 0.127389,0.04651 z"
           style="stroke-width:0.0104709"
           id="path906" />
        <path
           d="M 8.1566939,-5.6002583 H 7.7957583 v -0.6149468 q -0.048253,0.08785 -0.1312493,0.2480459 -0.081066,0.1550279 -0.1582711,0.2480459 -0.090716,0.118855 -0.2084547,0.1963701 -0.1177384,0.08268 -0.2760095,0.08268 -0.2914506,0 -0.4941149,-0.516763 -0.2026643,-0.5167629 -0.2026643,-1.3177449 0,-0.6562881 0.1042274,-1.0593629 0.1061574,-0.408243 0.3011012,-0.640786 0.1968739,-0.232543 0.4728834,-0.315225 0.2760094,-0.08268 0.5925518,-0.124023 V -9.56383 q 0,-0.330728 -0.044393,-0.547768 -0.042463,-0.217038 -0.1235287,-0.341061 -0.077206,-0.118856 -0.1852931,-0.160197 -0.1080876,-0.04134 -0.2258259,-0.04134 -0.1428301,0 -0.3184725,0.103353 -0.1756424,0.09819 -0.3628656,0.289387 h -0.019301 v -0.987017 q 0.1061575,-0.07751 0.3068916,-0.170532 0.2007342,-0.09302 0.3956779,-0.09302 0.2277561,0 0.395678,0.103353 0.169852,0.09819 0.2933807,0.341063 0.1215983,0.237711 0.1852929,0.614948 0.063695,0.377236 0.063695,0.93534 z M 7.7957583,-7.0213551 V -8.628487 q -0.1659917,0.02584 -0.3918176,0.07751 -0.2238959,0.05168 -0.3551451,0.149861 -0.1563411,0.118856 -0.2528478,0.3720698 -0.096507,0.2480461 -0.096507,0.6872941 0,0.496092 0.1119479,0.749306 0.1119478,0.248046 0.3416341,0.248046 0.1910835,0 0.3493546,-0.19637 0.1582712,-0.201537 0.2933807,-0.480589 z"
           style="stroke-width:0.0104709"
           id="path908" />
        <path
           d="M 12.005386,-5.6544883 H 11.64252 v -4.6131607 q 0,-0.522246 -0.01351,-1.008224 -0.01158,-0.485978 -0.05211,-0.776114 -0.04439,-0.311896 -0.127389,-0.471469 -0.083,-0.159576 -0.239337,-0.159576 -0.15248,0 -0.304962,0.290136 -0.15248,0.282882 -0.304961,0.725341 0.0058,0.166827 0.0097,0.391682 0.0039,0.217602 0.0039,0.435205 v 5.1861797 h -0.362874 v -4.6131607 q 0,-0.536753 -0.01351,-1.015476 -0.01159,-0.485978 -0.05212,-0.776114 -0.04439,-0.311896 -0.127389,-0.464217 -0.082997,-0.159576 -0.2393373,-0.159576 -0.14862,0 -0.299171,0.27563 -0.1486208,0.275628 -0.2972408,0.703578 v 6.0493357 h -0.36286 v -8.1020467 h 0.3628652 v 0.899422 q 0.1698521,-0.529499 0.3377739,-0.826888 0.1698521,-0.297389 0.3609355,-0.297389 0.2200365,0 0.3725165,0.348163 0.154412,0.348163 0.229686,0.964702 0.220036,-0.696326 0.401469,-1.000969 0.181432,-0.311896 0.387957,-0.311896 0.355145,0 0.523067,0.812381 0.169852,0.805126 0.169852,2.255807 z"
           style="stroke-width:0.0124054"
           id="path910" />
        <path
           d="M 14.508772,-9.564071 H 12.92027 q 0,0.747101 0.05983,1.305613 0.05983,0.5512589 0.164062,0.9066749 0.100367,0.348164 0.237407,0.522245 0.138969,0.174082 0.304961,0.174082 0.220036,0 0.442001,-0.326404 0.223896,-0.333656 0.318473,-0.652806 h 0.0193 v 1.486948 q -0.183362,0.2901359 -0.374446,0.4859778 -0.191084,0.1958401 -0.401468,0.1958401 -0.536578,0 -0.837679,-1.0880099 -0.301101,-1.095262 -0.301101,-3.1044549 0,-1.987431 0.28759,-3.155227 0.289521,-1.167798 0.760474,-1.167798 0.43621,0 0.671687,0.957448 0.237407,0.957449 0.237407,2.720025 z m -0.353215,-1.044489 q -0.0019,-1.073503 -0.14476,-1.661027 -0.1409,-0.587526 -0.43042,-0.587526 -0.29145,0 -0.465163,0.645553 -0.171782,0.645551 -0.194944,1.603 z"
           style="stroke-width:0.0124054"
           id="path912" />
        <path
           d="m 5.9609795,5.1426383 q -0.2239942,0.09544 -0.4902514,0.156791 -0.262031,0.06135 -0.4691199,0.06135 -0.7226984,0 -1.0988397,-0.627162 Q 3.5266272,4.1064613 3.5266272,2.7226184 V -1.3266514 H 2.9898863 v -1.0770789 h 0.5367409 v -2.1882439 h 0.7945457 v 2.1882429 h 1.6398066 v 1.0770789 H 4.3211729 v 3.4698298 q 0,0.599891 0.016906,0.940736 0.016905,0.3340319 0.1183367,0.6271629 0.092979,0.272676 0.2535783,0.402199 0.164826,0.122709 0.4987042,0.122709 0.19441,0 0.4057254,-0.08862 0.2113152,-0.09544 0.3042941,-0.156786 h 0.042263 z"
           style="stroke-width:0.0177961"
           id="path914" />
        <path
           d="m 9.8703123,-1.0062545 h -0.042267 q -0.1775041,-0.06818 -0.3465565,-0.09544 -0.1648249,-0.03409 -0.3930463,-0.03409 -0.3676887,0 -0.7100194,0.26586304 -0.342331,0.259049 -0.659304,0.674885 V 5.2108053 H 6.9245773 v -7.6145346 h 0.7945456 v 1.1247968 q 0.4733465,-0.6135248 0.8325821,-0.8657538 0.3634625,-0.259043 0.7396035,-0.259043 0.2070886,0 0.3000679,0.02045 0.092979,0.01364 0.2789359,0.06135 z"
           style="stroke-width:0.0177961"
           id="path916" />
        <path
           d="m 14.455856,4.3450533 q 0,1.9360139 -0.545194,2.8426719 -0.545194,0.9066529 -1.677844,0.9066529 -0.376141,0 -0.735377,-0.08862 -0.355009,-0.08181 -0.701567,-0.238601 V 6.4583042 h 0.04226 q 0.19441,0.122708 0.617041,0.299944 0.42263,0.184057 0.845261,0.184057 0.405725,0 0.671983,-0.156786 0.266257,-0.156793 0.414177,-0.436288 0.147922,-0.265858 0.211316,-0.640794 0.0634,-0.3749309 0.0634,-0.8384839 v -0.695331 q -0.359236,0.463554 -0.688888,0.695331 -0.325426,0.224958 -0.832582,0.224958 -0.845263,0 -1.343967,-0.981638 -0.494477,-0.9884569 -0.494477,-2.7813179 0,-0.98164086 0.169052,-1.69060386 0.173278,-0.71578104 0.469119,-1.23386884 0.274711,-0.484004 0.667757,-0.749866 0.393048,-0.272677 0.781867,-0.272677 0.409951,0 0.684662,0.13634 0.278935,0.129528 0.587457,0.402199 l 0.05071,-0.327213 h 0.743831 z M 13.66131,3.1180024 v -4.1515239 q -0.316973,-0.231777 -0.591683,-0.3272129 -0.270484,-0.1022619 -0.540967,-0.1022619 -0.655078,0 -1.031219,0.70896184 -0.376141,0.708964 -0.376141,2.05872186 0,1.281585 0.278937,1.9428329 0.278935,0.661243 0.925559,0.661243 0.346559,0 0.693115,-0.211326 0.350784,-0.218141 0.642399,-0.5794399 z"
           style="stroke-width:0.0177961"
           id="path918" />
        <path
           d="m 6.4166162,12.430284 q 0,2.17788 -0.483927,3.43833 -0.483927,1.26047 -1.2962331,1.26047 -0.8192193,0 -1.3031463,-1.26047 -0.4804704,-1.26045 -0.4804704,-3.43833 0,-2.17789 0.4804704,-3.4383419 0.483927,-1.268433 1.3031463,-1.268433 0.8123061,0 1.2962331,1.268433 0.483927,1.2604519 0.483927,3.4383419 z m -0.6705846,0 q 0,-1.73114 -0.2938128,-2.5687919 -0.2938128,-0.845622 -0.8157627,-0.845622 -0.5288631,0 -0.822676,0.845622 -0.2903561,0.8376519 -0.2903561,2.5687919 0,1.6753 0.2938128,2.54485 0.2938128,0.86157 0.8192193,0.86157 0.5184932,0 0.8123061,-0.85359 0.2972694,-0.86159 0.2972694,-2.55283 z"
           style="stroke-width:0.0174104"
           id="path920" />
        <path
           d="M 10.626782,16.881774 H 9.9769361 v -0.98921 q -0.3283787,0.59831 -0.6291048,0.91741 -0.3007261,0.31911 -0.6636713,0.31911 -0.6083654,0 -0.9471143,-0.85361 -0.3387489,-0.86157 -0.3387489,-2.52092 V 7.9708051 h 0.6498449 v 5.0737489 q 0,0.67809 0.027653,1.16474 0.027653,0.47864 0.1175251,0.82168 0.093329,0.35102 0.2419636,0.51057 0.1486347,0.15954 0.4320776,0.15954 0.2523334,0 0.5496029,-0.30314 0.300726,-0.30315 0.5599722,-0.77383 V 7.9708051 h 0.6498459 z"
           style="stroke-width:0.0174104"
           id="path922" />
        <path
           d="m 14.08342,17.205294 q -0.1832,0.0723 -0.400968,0.11885 -0.214311,0.0465 -0.383685,0.0465 -0.591082,0 -0.898721,-0.47542 -0.30764,-0.47542 -0.30764,-1.52445 v -3.06957 h -0.438991 v -0.81649 h 0.438991 V 9.8259031 h 0.649845 v 1.6588109 h 1.341169 v 0.81649 h -1.341169 v 2.63032 q 0,0.45475 0.01383,0.71313 0.01383,0.25322 0.09679,0.47542 0.07605,0.20671 0.207397,0.30489 0.134809,0.093 0.407881,0.093 0.159005,0 0.331837,-0.0672 0.17283,-0.0723 0.248876,-0.11885 h 0.03457 z"
           style="stroke-width:0.0140126"
           id="path924" />
        <g
           aria-label="zero
offset"
           transform="matrix(0.15286688,0,0,0.35635553,5.5845575,59.180547)"
           id="text929"
           style="font-style:normal;font-weight:normal;font-size:28.8587px;line-height:1.25;font-family:sans-serif;fill:#000000;fill-opacity:1;stroke:none;stroke-width:0.0123611">
          <path
             d="M -2.1248301,34.71189 H -19.350733 V 31.704821 L -6.9182902,13.94364 H -19.083369 v -3.396476 h 16.6338822 v 2.898903 L -14.939222,31.272148 h 12.8143919 z"
             style="stroke-width:0.0178305"
             id="path933" />
          <path
             d="M 20.77286,23.077223 5.1111859,21.661562 q -0.1745028,2.220388 0.2849731,3.933612 0.46117,1.691668 1.4057731,2.840856 0.9082372,1.12419 2.2187049,1.76369 1.329498,0.641222 2.966076,0.789153 2.169418,0.196094 4.434104,-0.576165 2.285412,-0.792095 3.292425,-1.656324 l 0.1903,0.0172 -0.347312,4.419218 q -1.875616,0.698875 -3.805327,1.110626 -1.929712,0.41175 -4.003979,0.224257 Q 6.4565897,34.049491 3.7420429,30.547579 1.0291906,27.024108 1.4984845,21.052775 1.9626958,15.146112 5.0709291,11.931708 8.1981926,8.719023 12.841508,9.138733 q 4.300775,0.388748 6.398797,3.444149 2.117055,3.05712 1.705364,8.295511 z M 17.534338,19.65821 q 0.231709,-3.19218 -1.039277,-5.065601 -1.251958,-1.871699 -4.106455,-2.129717 -2.8735265,-0.259739 -4.7370086,1.504039 -1.8444521,1.765495 -2.2964465,4.5904 z"
             style="stroke-width:0.0178305"
             id="path935" />
          <path
             d="m 40.092239,16.725563 -0.1903,-0.0172 q -0.782317,-0.287816 -1.53674,-0.442851 -0.733698,-0.174876 -1.761316,-0.267763 -1.655609,-0.149651 -3.263111,0.551749 -1.605808,0.679842 -3.136402,1.86582 l -1.343503,17.094834 -3.577636,-0.323383 1.892424,-24.079349 3.577636,0.323383 -0.279544,3.556932 q 2.283835,-1.747491 3.96407,-2.398895 1.700957,-0.671242 3.394625,-0.518151 0.932469,0.08429 1.346047,0.186799 0.415271,0.08095 1.240731,0.307543 z"
             style="stroke-width:0.0178305"
             id="path937" />
          <path
             d="m 61.164131,22.640345 q 0,5.905971 -2.673644,9.32408 -2.673644,3.418107 -7.161545,3.418107 -4.526096,0 -7.19974,-3.418107 -2.654545,-3.418109 -2.654545,-9.32408 0,-5.905971 2.654545,-9.32408 2.673644,-3.439742 7.19974,-3.439742 4.487901,0 7.161545,3.439742 2.673644,3.418109 2.673644,9.32408 z m -3.704906,0 q 0,-4.69449 -1.623284,-6.966018 -1.623283,-2.293162 -4.506999,-2.293162 -2.921911,0 -4.545193,2.293162 -1.604187,2.271528 -1.604187,6.966018 0,4.543055 1.623284,6.901116 1.623284,2.336429 4.526096,2.336429 2.864619,0 4.487901,-2.314795 1.642382,-2.336429 1.642382,-6.92275 z"
             style="stroke-width:0.0178305"
             id="path939" />
          <path
             d="m -4.6395598,54.263684 q 0,3.846887 -1.9727627,6.07329 -1.9727627,2.226404 -5.2841855,2.226404 -3.339606,0 -5.312368,-2.226404 -1.958672,-2.226403 -1.958672,-6.07329 0,-3.846888 1.958672,-6.073291 1.972762,-2.240495 5.312368,-2.240495 3.3114228,0 5.2841855,2.240495 1.9727627,2.226403 1.9727627,6.073291 z m -2.7336854,0 q 0,-3.057783 -1.1977488,-4.537355 -1.1977488,-1.493663 -3.325514,-1.493663 -2.155948,0 -3.353697,1.493663 -1.183657,1.479572 -1.183657,4.537355 0,2.959144 1.197748,4.49508 1.197749,1.521846 3.339606,1.521846 2.1136741,0 3.3114228,-1.507755 1.21184,-1.521845 1.21184,-4.509171 z"
             style="stroke-width:0.0123611"
             id="path941" />
          <path
             d="M 7.9438479,42.765295 H 7.8029363 q -0.436826,-0.12682 -1.1413841,-0.253641 -0.7045581,-0.140911 -1.2400223,-0.140911 -1.7050306,0 -2.4800445,0.760923 -0.7609227,0.746831 -0.7609227,2.719594 v 0.535464 h 4.7769039 v 2.226404 H 2.2651096 V 62.126552 H -0.38402883 V 48.613128 H -2.1736064 v -2.226404 h 1.78957757 v -0.521373 q 0,-2.804141 1.39502503,-4.297804 1.3950251,-1.507755 4.0300723,-1.507755 0.8877433,0 1.5923014,0.08455 0.7186492,0.08455 1.310478,0.197276 z"
             style="stroke-width:0.0123611"
             id="path943" />
          <path
             d="m 17.356517,41.456987 -0.140373,0.01321 q -0.446977,-0.103592 -1.160663,-0.182093 -0.714999,-0.09456 -1.248415,-0.04437 -1.698507,0.159802 -2.399616,1.099647 -0.688385,0.922463 -0.504467,3.170778 l 0.04992,0.610257 4.758627,-0.44771 0.207565,2.537385 -4.674403,0.439786 1.259838,15.400955 -2.639002,0.248287 L 9.6056892,48.902156 7.8229586,49.069882 7.6153939,46.532498 9.3981244,46.364772 9.3495175,45.770574 q -0.2614264,-3.195819 0.9890095,-5.028861 1.249121,-1.849103 3.874086,-2.09607 0.884347,-0.0832 1.594091,-0.05288 0.723783,0.02901 1.323857,0.102009 z"
             style="stroke-width:0.0132215"
             id="path945" />
          <path
             d="m 31.610687,57.140404 q 0.200997,2.457088 -1.452992,4.198634 -1.63995,1.740226 -4.714108,2.029454 -1.740618,0.163764 -3.238589,-0.164606 -1.485248,-0.345753 -2.513834,-0.815385 l -0.277191,-3.388531 0.140372,-0.01321 q 1.337334,0.958439 2.919941,1.456861 1.581295,0.482362 2.985019,0.350294 1.740619,-0.163764 2.670679,-0.898587 0.930059,-0.734822 0.817081,-2.115931 -0.0867,-1.05992 -0.664786,-1.555754 -0.578081,-0.495833 -2.125633,-0.738625 -0.573313,-0.09171 -1.501499,-0.198576 -0.914148,-0.108189 -1.676514,-0.263025 -2.11471,-0.432176 -3.083547,-1.554748 -0.956113,-1.139952 -1.10062,-2.906485 -0.09065,-1.108098 0.222262,-2.124701 0.326945,-1.017922 1.078047,-1.865373 0.724342,-0.828749 1.896075,-1.375931 1.184457,-0.564562 2.686443,-0.705874 1.403725,-0.132068 2.868366,0.134708 1.477366,0.249395 2.477878,0.721667 l 0.264054,3.227939 -0.140372,0.01321 q -1.080308,-0.756061 -2.573438,-1.198168 -1.494444,-0.458168 -2.884131,-0.327421 -1.445837,0.13603 -2.389933,0.872174 -0.945411,0.720085 -0.842942,1.972717 0.09064,1.108098 0.740226,1.613388 0.635544,0.506609 1.983947,0.735772 0.745702,0.124038 1.65985,0.232227 0.928186,0.106869 1.544924,0.210673 1.878291,0.308774 2.970835,1.387341 1.093859,1.094626 1.25413,3.053872 z"
             style="stroke-width:0.0132215"
             id="path947" />
          <path
             d="M 47.990931,54.531416 H 36.393905 q 0,1.451389 0.436826,2.536409 0.436826,1.070928 1.197749,1.761395 0.73274,0.676376 1.733213,1.014564 1.014563,0.338188 2.226403,0.338188 1.606393,0 3.226876,-0.634103 1.634575,-0.648193 2.325042,-1.268204 h 0.140912 v 2.888688 q -1.338661,0.563646 -2.733686,0.944108 -1.395025,0.380461 -2.930961,0.380461 -3.917343,0 -6.115565,-2.113674 -2.198221,-2.127766 -2.198221,-6.031017 0,-3.860979 2.099583,-6.129656 2.113674,-2.268677 5.551918,-2.268677 3.184603,0 4.903724,1.860033 1.733213,1.860034 1.733213,5.284186 z m -2.578682,-2.029128 q -0.01409,-2.085492 -1.056837,-3.226876 -1.028655,-1.141384 -3.14233,-1.141384 -2.127765,0 -3.39597,1.254113 -1.254113,1.254114 -1.423207,3.114147 z"
             style="stroke-width:0.0123611"
             id="path949" />
          <path
             d="m 61.077664,59.41713 q -0.725582,0.294828 -1.598105,0.522565 -0.858487,0.226418 -1.546311,0.291131 -2.40037,0.225836 -3.770546,-1.134088 -1.370175,-1.359924 -1.636856,-4.619981 l -0.780338,-9.539278 -1.782731,0.167727 -0.207565,-2.537385 1.782731,-0.167726 -0.421698,-5.155065 2.639002,-0.248287 0.421698,5.155064 5.446452,-0.512423 0.207565,2.537385 -5.446452,0.512423 0.668673,8.174229 q 0.115606,1.413227 0.237435,2.210913 0.120516,0.781629 0.513904,1.440486 0.361367,0.613322 0.919743,0.868264 0.5711,0.237562 1.680042,0.133229 0.645714,-0.06075 1.330498,-0.335557 0.68347,-0.290866 0.980467,-0.464455 l 0.140372,-0.01321 z"
             style="stroke-width:0.0132215"
             id="path951" />
        </g>
      </g>
    </g>
  </g>
</svg>
