<?xml version="1.0" encoding="UTF-8" standalone="no"?>
<!-- Created with Inkscape (http://www.inkscape.org/) -->

<svg
   xmlns:dc="http://purl.org/dc/elements/1.1/"
   xmlns:cc="http://creativecommons.org/ns#"
   xmlns:rdf="http://www.w3.org/1999/02/22-rdf-syntax-ns#"
   xmlns:svg="http://www.w3.org/2000/svg"
   xmlns="http://www.w3.org/2000/svg"
   xmlns:sodipodi="http://sodipodi.sourceforge.net/DTD/sodipodi-0.dtd"
   xmlns:inkscape="http://www.inkscape.org/namespaces/inkscape"
   width="60"
   height="380"
   viewBox="0 0 15.875 100.54167"
   version="1.1"
   id="svg8"
   inkscape:version="0.92.2 5c3e80d, 2017-08-06"
   sodipodi:docname="ComputerscareHorseADoodleDooPanel.svg"
   style="enable-background:new">
  <defs
     id="defs2" />
  <sodipodi:namedview
     id="base"
     pagecolor="#ffffff"
     bordercolor="#666666"
     borderopacity="1.0"
     inkscape:pageopacity="0.0"
     inkscape:pageshadow="2"
     inkscape:zoom="8.0000004"
     inkscape:cx="45.174512"
     inkscape:cy="31.494625"
     inkscape:document-units="mm"
     inkscape:current-layer="g1669"
     showgrid="false"
     units="px"
     inkscape:snap-bbox="true"
     inkscape:snap-page="true"
     inkscape:bbox-nodes="true"
     inkscape:snap-bbox-edge-midpoints="true"
     inkscape:window-width="1440"
     inkscape:window-height="856"
     inkscape:window-x="0"
     inkscape:window-y="0"
     inkscape:window-maximized="0"
     inkscape:snap-global="false"
     showguides="false"
     inkscape:lockguides="false" />
  <metadata
     id="metadata5">
    <rdf:RDF>
      <cc:Work
         rdf:about="">
        <dc:format>image/svg+xml</dc:format>
        <dc:type
           rdf:resource="http://purl.org/dc/dcmitype/StillImage" />
        <dc:title></dc:title>
      </cc:Work>
    </rdf:RDF>
  </metadata>
  <g
     inkscape:label="Layer 1"
     inkscape:groupmode="layer"
     id="layer1"
     transform="translate(0,-196.45832)"
     style="display:none">
    <path
       style="opacity:1;vector-effect:none;fill:#f0f0f0;fill-opacity:1;fill-rule:evenodd;stroke:none;stroke-width:0.48607069;stroke-linecap:butt;stroke-linejoin:round;stroke-miterlimit:4;stroke-dasharray:none;stroke-dashoffset:0;stroke-opacity:1;paint-order:normal"
       d="M 0,196.45831 H 23.8125 V 296.99999 H 0 Z"
       id="rect817"
       inkscape:connector-curvature="0" />
    <text
       xml:space="preserve"
       style="font-style:normal;font-weight:normal;font-size:10.58333302px;line-height:1.25;font-family:sans-serif;letter-spacing:0px;word-spacing:0px;fill:#000000;fill-opacity:1;stroke:none;stroke-width:0.26458332"
       x="8.2147436"
       y="295.57718"
       id="text1490"
       transform="rotate(1.4468834)"><tspan
         sodipodi:role="line"
         id="tspan1488"
         x="8.2147436"
         y="295.57718"
         style="font-style:normal;font-variant:normal;font-weight:normal;font-stretch:normal;font-size:2.82222223px;font-family:sans-serif;-inkscape-font-specification:'sans-serif, Normal';font-variant-ligatures:normal;font-variant-caps:normal;font-variant-numeric:normal;font-feature-settings:normal;text-align:start;writing-mode:lr-tb;text-anchor:start;stroke-width:0.26458332">computerscare</tspan></text>
    <text
       transform="rotate(-5.9989835)"
       id="text1494"
       y="288.0314"
       x="-28.710276"
       style="font-style:normal;font-weight:normal;font-size:10.58333302px;line-height:1.25;font-family:sans-serif;letter-spacing:0px;word-spacing:0px;fill:#000000;fill-opacity:1;stroke:none;stroke-width:0.26458332"
       xml:space="preserve"><tspan
         style="font-style:normal;font-variant:normal;font-weight:normal;font-stretch:normal;font-size:2.82222223px;font-family:sans-serif;-inkscape-font-specification:'sans-serif, Normal';font-variant-ligatures:normal;font-variant-caps:normal;font-variant-numeric:normal;font-feature-settings:normal;text-align:start;writing-mode:lr-tb;text-anchor:start;stroke-width:0.26458332"
         y="288.0314"
         x="-28.710276"
         id="tspan1492"
         sodipodi:role="line">trg</tspan></text>
    <text
       xml:space="preserve"
       style="font-style:normal;font-weight:normal;font-size:10.58333302px;line-height:1.25;font-family:sans-serif;letter-spacing:0px;word-spacing:0px;fill:#000000;fill-opacity:1;stroke:none;stroke-width:0.26458332"
       x="20.711658"
       y="288.87244"
       id="text1498"
       transform="rotate(1.9714728)"><tspan
         sodipodi:role="line"
         id="tspan1496"
         x="20.711658"
         y="288.87244"
         style="font-style:normal;font-variant:normal;font-weight:normal;font-stretch:normal;font-size:2.82222223px;font-family:sans-serif;-inkscape-font-specification:'sans-serif, Normal';font-variant-ligatures:normal;font-variant-caps:normal;font-variant-numeric:normal;font-feature-settings:normal;text-align:start;writing-mode:lr-tb;text-anchor:start;stroke-width:0.26458332">in</tspan></text>
    <text
       transform="rotate(0.49746114)"
       id="text1521"
       y="289.16214"
       x="20.314623"
       style="font-style:normal;font-weight:normal;font-size:10.58333302px;line-height:1.25;font-family:sans-serif;letter-spacing:0px;word-spacing:0px;fill:#000000;fill-opacity:1;stroke:none;stroke-width:0.26458332"
       xml:space="preserve"><tspan
         style="font-style:normal;font-variant:normal;font-weight:normal;font-stretch:normal;font-size:3.17499995px;font-family:sans-serif;-inkscape-font-specification:'sans-serif, Normal';font-variant-ligatures:normal;font-variant-caps:normal;font-variant-numeric:normal;font-feature-settings:normal;text-align:start;writing-mode:lr-tb;text-anchor:start;stroke-width:0.26458332"
         y="289.16214"
         x="20.314623"
         id="tspan1519"
         sodipodi:role="line">clr</tspan></text>
    <text
       transform="matrix(1.0139335,-0.02825079,0.06854811,0.98434808,0,0)"
       id="text1645"
       y="204.61243"
       x="-10.296249"
       style="font-style:normal;font-weight:normal;font-size:10.74719143px;line-height:1.25;font-family:sans-serif;letter-spacing:0px;word-spacing:0px;fill:#000000;fill-opacity:1;stroke:none;stroke-width:0.26867977"
       xml:space="preserve"><tspan
         style="font-style:normal;font-variant:normal;font-weight:normal;font-stretch:normal;font-size:5.01535606px;font-family:sans-serif;-inkscape-font-specification:'sans-serif, Normal';font-variant-ligatures:normal;font-variant-caps:normal;font-variant-numeric:normal;font-feature-settings:normal;text-align:start;writing-mode:lr-tb;text-anchor:start;stroke-width:0.26867977"
         y="204.61243"
         x="-10.296249"
         id="tspan1643"
         sodipodi:role="line">debug</tspan></text>
  </g>
  <g
     inkscape:groupmode="layer"
     id="layer3"
     inkscape:label="bg" />
  <g
     style="display:inline"
     transform="translate(0,-196.45832)"
     id="g1669"
     inkscape:groupmode="layer"
     inkscape:label="Layer 1 copy">
    <rect
       style="fill:#fcfcfc;fill-opacity:1;stroke:#666666;stroke-width:0.17828479;stroke-linecap:round;stroke-linejoin:round;stroke-miterlimit:4;stroke-dasharray:none;stroke-opacity:1;paint-order:stroke fill markers"
       id="rect4821"
       width="15.753389"
       height="6.2209363"
       x="0.051186722"
       y="290.77463" />
    <g
       aria-label="computerscare"
       transform="matrix(0.60064444,-0.02803149,0.25618802,0.58189205,-78.364238,122.71866)"
       style="font-style:normal;font-weight:normal;font-size:10.58333302px;line-height:1.25;font-family:sans-serif;letter-spacing:0px;word-spacing:0px;fill:#000000;fill-opacity:1;stroke:none;stroke-width:0.26458332"
       id="text1651">
      <path
         d="m 7.6735411,295.17124 0.1069513,0.46705 q -0.2597552,-0.0977 -0.5087927,-0.13532 -0.2466773,-0.0405 -0.4855917,-0.0206 -0.5342976,0.0423 -0.7596009,0.37717 -0.2254922,0.33092 -0.098013,0.88761 0.1274724,0.55659 0.4941078,0.84208 0.3660168,0.28276 0.9007598,0.2392 0.2393458,-0.0213 0.4590497,-0.0954 0.2223135,-0.0788 0.4286028,-0.21486 l 0.10571,0.4616 q -0.207646,0.11663 -0.44443,0.18539 -0.2337461,0.0687 -0.5116054,0.0914 -0.7559008,0.0625 -1.2997943,-0.33395 -0.5439888,-0.39548 -0.7118791,-1.12863 -0.1703859,-0.74401 0.1800961,-1.20683 0.3534704,-0.46303 1.1361666,-0.52677 0.2541475,-0.0203 0.5070851,0.009 0.2525697,0.0263 0.5013415,0.10333 z"
         style="font-style:normal;font-variant:normal;font-weight:normal;font-stretch:normal;font-size:2.82222223px;font-family:sans-serif;-inkscape-font-specification:'sans-serif, Normal';font-variant-ligatures:normal;font-variant-caps:normal;font-variant-numeric:normal;font-feature-settings:normal;text-align:start;writing-mode:lr-tb;text-anchor:start;stroke-width:0.55191374"
         id="path1701"
         inkscape:connector-curvature="0" />
      <path
         d="m 9.9464593,293.50838 q -0.2237141,0.0309 -0.3927104,0.27281 -0.1686789,0.24008 -0.2362989,0.62842 -0.067621,0.38834 0.021828,0.59476 0.091297,0.20429 0.3165043,0.17329 0.2221783,-0.0306 0.3912017,-0.27261 0.169014,-0.24201 0.236299,-0.62841 0.06695,-0.38447 -0.02401,-0.5907 -0.09062,-0.20816 -0.3128137,-0.17756 z m 0.052484,-0.30139 q 0.3627417,-0.0499 0.5173437,0.22293 0.154584,0.27291 0.06173,0.80614 -0.09252,0.53132 -0.352413,0.86314 -0.2595559,0.3299 -0.6223088,0.37984 -0.3642764,0.0502 -0.5188573,-0.22272 -0.1527376,-0.27503 -0.060218,-0.80634 0.092858,-0.53324 0.3509019,-0.86294 0.2595555,-0.3299 0.6238215,-0.38005 z"
         style="font-style:normal;font-variant:normal;font-weight:normal;font-stretch:normal;font-size:2.82222223px;font-family:sans-serif;-inkscape-font-specification:'sans-serif, Normal';font-variant-ligatures:normal;font-variant-caps:normal;font-variant-numeric:normal;font-feature-settings:normal;text-align:start;writing-mode:lr-tb;text-anchor:start;stroke-width:0.32414466"
         id="path1703"
         inkscape:connector-curvature="0" />
      <path
         d="m 12.62032,294.09674 q 0.269845,-0.58799 0.491885,-0.87667 0.222032,-0.28866 0.414744,-0.30705 0.259371,-0.0246 0.233905,0.53581 -0.02408,0.55572 -0.329578,1.60978 l -0.913728,3.15294 -0.274088,0.0256 0.905618,-3.12498 q 0.217604,-0.75089 0.23857,-1.10673 0.02098,-0.3558 -0.152457,-0.33938 -0.211807,0.0195 -0.46334,0.47475 -0.251421,0.45476 -0.47309,1.21966 l -0.855629,2.9524 -0.274085,0.0256 0.905618,-3.12499 q 0.218967,-0.75557 0.23857,-1.10674 0.02098,-0.35576 -0.155424,-0.33909 -0.208868,0.0194 -0.461729,0.47915 -0.251423,0.45475 -0.471742,1.21501 l -0.855615,2.95235 -0.274081,0.0256 1.513833,-5.22381 0.274084,-0.0256 -0.235173,0.8115 q 0.232571,-0.48916 0.429232,-0.7301 0.196581,-0.24063 0.37594,-0.25771 0.180928,-0.0176 0.223028,0.25999 0.04373,0.27685 -0.05507,0.8217 z"
         style="font-style:normal;font-variant:normal;font-weight:normal;font-stretch:normal;font-size:2.82222223px;font-family:sans-serif;-inkscape-font-specification:'sans-serif, Normal';font-variant-ligatures:normal;font-variant-caps:normal;font-variant-numeric:normal;font-feature-settings:normal;text-align:start;writing-mode:lr-tb;text-anchor:start;stroke-width:0.49782816"
         id="path1705"
         inkscape:connector-curvature="0" />
      <path
         d="m 14.227932,295.60712 -0.530986,2.11807 -0.279885,0.0186 1.38199,-5.51268 0.279886,-0.0186 -0.151961,0.60617 q 0.17715,-0.36243 0.353202,-0.54248 0.178451,-0.18368 0.364544,-0.19605 0.308827,-0.0215 0.355995,0.54424 0.04885,0.56472 -0.187159,1.50612 -0.235995,0.94137 -0.574472,1.53193 -0.336964,0.59047 -0.645621,0.61108 -0.186133,0.0124 -0.277869,-0.14971 -0.08935,-0.16585 -0.08771,-0.51657 z m 1.296669,-1.45741 q 0.181467,-0.72389 0.157169,-1.12546 -0.02189,-0.40524 -0.24279,-0.3905 -0.220843,0.0145 -0.451685,0.43683 -0.22838,0.41845 -0.409849,1.14232 -0.181466,0.72387 -0.159579,1.1291 0.0243,0.40158 0.245196,0.38684 0.220844,-0.0145 0.449279,-0.43317 0.230786,-0.42211 0.412251,-1.14596 z"
         style="font-style:normal;font-variant:normal;font-weight:normal;font-stretch:normal;font-size:2.82222223px;font-family:sans-serif;-inkscape-font-specification:'sans-serif, Normal';font-variant-ligatures:normal;font-variant-caps:normal;font-variant-numeric:normal;font-feature-settings:normal;text-align:start;writing-mode:lr-tb;text-anchor:start;stroke-width:0.44221964"
         id="path1707"
         inkscape:connector-curvature="0" />
      <path
         d="m 16.606986,292.74783 0.27071,-1.63811 0.277496,-0.0897 -0.267916,1.62119 q -0.06349,0.38415 -0.0019,0.54739 0.06194,0.16079 0.248864,0.10085 0.224573,-0.0718 0.392227,-0.34337 0.169095,-0.27166 0.234579,-0.66792 l 0.253534,-1.53417 0.277496,-0.0897 -0.447191,2.70599 -0.277493,0.0897 0.06868,-0.41557 q -0.14174,0.27886 -0.295879,0.44279 -0.152205,0.16084 -0.328632,0.21771 -0.29102,0.0938 -0.393834,-0.14796 -0.102845,-0.24152 -0.01062,-0.79959 z"
         style="font-style:normal;font-variant:normal;font-weight:normal;font-stretch:normal;font-size:2.82222223px;font-family:sans-serif;-inkscape-font-specification:'sans-serif, Normal';font-variant-ligatures:normal;font-variant-caps:normal;font-variant-numeric:normal;font-feature-settings:normal;text-align:start;writing-mode:lr-tb;text-anchor:start;stroke-width:0.35658139"
         id="path1709"
         inkscape:connector-curvature="0" />
      <path
         d="m 19.130634,291.75291 -0.04763,0.54988 0.498955,0.0549 -0.02142,0.24727 -0.498955,-0.0549 -0.09106,1.05132 q -0.02052,0.23689 0.02235,0.30967 0.0442,0.0728 0.195589,0.0895 l 0.24883,0.0268 -0.02307,0.2663 -0.248831,-0.0268 q -0.280419,-0.0306 -0.375224,-0.17902 -0.09466,-0.15001 -0.0632,-0.51313 l 0.09106,-1.05132 -0.177732,-0.0193 0.02142,-0.24727 0.177732,0.0193 0.04763,-0.54988 z"
         style="font-style:normal;font-variant:normal;font-weight:normal;font-stretch:normal;font-size:2.82222223px;font-family:sans-serif;-inkscape-font-specification:'sans-serif, Normal';font-variant-ligatures:normal;font-variant-caps:normal;font-variant-numeric:normal;font-feature-settings:normal;text-align:start;writing-mode:lr-tb;text-anchor:start;stroke-width:0.29105982"
         id="path1711"
         inkscape:connector-curvature="0" />
      <path
         d="m 21.131835,292.73961 -0.01354,0.15663 -1.138847,0.25089 q -0.01241,0.32708 0.109815,0.47087 0.123754,0.14175 0.370106,0.0874 0.14274,-0.032 0.279874,-0.10605 0.138527,-0.0749 0.278276,-0.19444 l -0.02618,0.30282 q -0.139596,0.10251 -0.282908,0.17165 -0.143304,0.0691 -0.287342,0.10077 -0.360773,0.0795 -0.548642,-0.14537 -0.186518,-0.22525 -0.146482,-0.68818 0.04138,-0.47857 0.264851,-0.80264 0.224958,-0.3261 0.564188,-0.40081 0.304194,-0.0666 0.458595,0.1483 0.155866,0.21322 0.11824,0.64827 z m -0.239573,-0.0394 q 0.02001,-0.26217 -0.07815,-0.39421 -0.09684,-0.13234 -0.279915,-0.092 -0.207275,0.0453 -0.345591,0.22464 -0.13694,0.17868 -0.179568,0.4578 z"
         style="font-style:normal;font-variant:normal;font-weight:normal;font-stretch:normal;font-size:2.82222223px;font-family:sans-serif;-inkscape-font-specification:'sans-serif, Normal';font-variant-ligatures:normal;font-variant-caps:normal;font-variant-numeric:normal;font-feature-settings:normal;text-align:start;writing-mode:lr-tb;text-anchor:start;stroke-width:0.29105982"
         id="path1713"
         inkscape:connector-curvature="0" />
      <path
         d="m 22.389345,292.9653 q -0.03811,-0.0356 -0.08563,-0.0548 -0.04604,-0.0208 -0.103972,-0.0271 -0.205372,-0.0226 -0.331239,0.14176 -0.124396,0.16266 -0.15285,0.49121 l -0.08836,1.0202 -0.243565,-0.0262 0.167732,-1.93666 0.243565,0.0262 -0.02606,0.30087 q 0.09163,-0.16801 0.221408,-0.23932 0.129924,-0.0731 0.305019,-0.0539 0.02501,0.003 0.05486,0.0108 0.02996,0.007 0.06605,0.0199 z"
         style="font-style:normal;font-variant:normal;font-weight:normal;font-stretch:normal;font-size:2.82222223px;font-family:sans-serif;-inkscape-font-specification:'sans-serif, Normal';font-variant-ligatures:normal;font-variant-caps:normal;font-variant-numeric:normal;font-feature-settings:normal;text-align:start;writing-mode:lr-tb;text-anchor:start;stroke-width:0.29105982"
         id="path1715"
         inkscape:connector-curvature="0" />
      <path
         d="m 22.67824,290.5753 -0.0591,0.29402 q -0.08631,-0.0984 -0.187092,-0.16526 -0.100771,-0.067 -0.21604,-0.10247 -0.175456,-0.054 -0.278103,-0.0102 -0.10137,0.0442 -0.129894,0.1861 -0.02174,0.10821 0.02844,0.19 0.05053,0.0801 0.22886,0.19428 l 0.07594,0.0485 q 0.236747,0.1483 0.315618,0.31069 0.08049,0.16114 0.03394,0.39266 -0.05298,0.26359 -0.242711,0.36848 -0.188439,0.10526 -0.465075,0.0201 -0.115269,-0.0354 -0.234666,-0.1045 -0.118461,-0.0669 -0.244873,-0.16875 l 0.06454,-0.32105 q 0.112636,0.12977 0.230249,0.21443 0.117962,0.083 0.242196,0.12118 0.166491,0.0513 0.271087,0.004 0.104931,-0.0485 0.132449,-0.18531 0.02548,-0.12674 -0.02626,-0.21444 -0.05046,-0.0873 -0.256884,-0.21724 l -0.07686,-0.0506 q -0.206782,-0.12816 -0.278972,-0.28326 -0.07186,-0.15669 -0.0277,-0.37637 0.05366,-0.26698 0.226326,-0.36815 0.172653,-0.10117 0.436481,-0.02 0.13064,0.0401 0.240792,0.10114 0.110166,0.0608 0.197319,0.14146 z"
         style="font-style:normal;font-variant:normal;font-weight:normal;font-stretch:normal;font-size:2.82222223px;font-family:sans-serif;-inkscape-font-specification:'sans-serif, Normal';font-variant-ligatures:normal;font-variant-caps:normal;font-variant-numeric:normal;font-feature-settings:normal;text-align:start;writing-mode:lr-tb;text-anchor:start;stroke-width:0.29105982"
         id="path1717"
         inkscape:connector-curvature="0" />
      <path
         d="m 24.405663,291.06767 c -0.09996,0.19152 -0.293631,-0.0723 -0.521953,-0.0545 -0.158043,-1.1e-4 -0.282308,0.0658 -0.372798,0.19755 -0.09046,0.13066 -0.138463,0.31455 -0.144002,0.55169 -0.0055,0.23713 0.03385,0.42166 0.118186,0.5536 0.08435,0.13086 0.205556,0.19623 0.363598,0.19635 0.07063,10e-5 0.140661,-0.012 0.210105,-0.0363 0.07034,-0.0254 0.140528,-0.0629 0.210563,-0.11267 l -0.0069,0.29497 c -0.06896,0.0416 -0.14032,0.0728 -0.214083,0.0935 -0.07289,0.0208 -0.150388,0.0312 -0.232493,0.0311 -0.22338,-2.1e-4 -0.398704,-0.0922 -0.525959,-0.27628 -0.12726,-0.18402 -0.187242,-0.43218 -0.179947,-0.74451 0.0074,-0.31697 0.07945,-0.5662 0.216125,-0.74772 0.137564,-0.18152 0.322009,-0.2722 0.553335,-0.27204 0.0751,-4.1e-4 0.148151,0.009 0.219098,0.0317 0.0711,0.0192 0.37898,0.20756 0.445137,0.24812 z"
         style="font-style:normal;font-variant:normal;font-weight:normal;font-stretch:normal;font-size:2.82222223px;font-family:sans-serif;-inkscape-font-specification:'sans-serif, Normal';font-variant-ligatures:normal;font-variant-caps:normal;font-variant-numeric:normal;font-feature-settings:normal;text-align:start;writing-mode:lr-tb;text-anchor:start;stroke-width:0.29105982"
         id="path1719"
         inkscape:connector-curvature="0"
         sodipodi:nodetypes="cccccccccccccccccc" />
      <path
         d="m 25.445959,293.15138 c -0.312517,0.0125 -0.547151,0.0755 -0.703953,0.18946 -0.15681,0.11392 -0.278931,0.30245 -0.366342,0.56547 -0.06973,0.20967 -0.08035,0.37475 -0.03187,0.49525 0.05059,0.11828 0.153688,0.17414 0.309207,0.16813 0.21443,-0.009 0.424504,-0.13092 0.630195,-0.36698 0.207831,-0.23833 0.375738,-0.55003 0.503717,-0.93507 l 0.04365,-0.13151 z m 0.852522,-0.27447 -0.681487,2.05034 -0.386726,0.0151 0.181291,-0.54547 c -0.160822,0.22168 -0.324516,0.38756 -0.491082,0.49763 -0.165839,0.10786 -0.344069,0.16559 -0.53468,0.1732 -0.241081,0.01 -0.398927,-0.0855 -0.473591,-0.28516 -0.07257,-0.20187 -0.05126,-0.47611 0.06392,-0.82266 0.134371,-0.40428 0.323972,-0.71259 0.568803,-0.92494 0.246236,-0.21242 0.54523,-0.32562 0.896983,-0.33958 l 0.542379,-0.0216 0.01911,-0.0576 c 0.0903,-0.27167 0.101113,-0.47897 0.03246,-0.62188 -0.06654,-0.14511 -0.205622,-0.21349 -0.417233,-0.20506 -0.134581,0.006 -0.27376,0.0353 -0.41765,0.0894 -0.143873,0.0543 -0.23933,0.0105 -0.389784,0.11369 l 0.129593,-0.42308 c 0.169238,-0.0889 0.327181,-0.15634 0.47384,-0.20236 0.147348,-0.0481 0.284083,-0.0745 0.410263,-0.0797 0.340575,-0.0136 0.550131,0.11107 0.628684,0.37402 0.07858,0.26285 0.02686,0.66808 -0.155151,1.21569 z"
         style="font-style:normal;font-variant:normal;font-weight:normal;font-stretch:normal;font-size:2.82222223px;font-family:sans-serif;-inkscape-font-specification:'sans-serif, Normal';font-variant-ligatures:normal;font-variant-caps:normal;font-variant-numeric:normal;font-feature-settings:normal;text-align:start;writing-mode:lr-tb;text-anchor:start;stroke-width:0.49534509"
         id="path1721"
         inkscape:connector-curvature="0"
         sodipodi:nodetypes="ccccccccccccccccccccccccccccccc" />
      <path
         d="m 28.126914,293.2913 q -0.04162,-0.05 -0.103389,-0.0773 -0.05896,-0.0295 -0.141049,-0.0387 -0.290942,-0.0329 -0.539632,0.19734 -0.245901,0.22772 -0.417305,0.68886 l -0.532281,1.43196 -0.345034,-0.0384 1.010313,-2.71829 0.345034,0.0384 -0.156978,0.42227 q 0.200189,-0.2354 0.41784,-0.33487 0.218607,-0.10209 0.466633,-0.0742 0.03543,0.004 0.07571,0.0154 0.0407,0.0112 0.08858,0.0282 z"
         style="font-style:normal;font-variant:normal;font-weight:normal;font-stretch:normal;font-size:2.82222223px;font-family:sans-serif;-inkscape-font-specification:'sans-serif, Normal';font-variant-ligatures:normal;font-variant-caps:normal;font-variant-numeric:normal;font-feature-settings:normal;text-align:start;writing-mode:lr-tb;text-anchor:start;stroke-width:0.41692752"
         id="path1723"
         inkscape:connector-curvature="0" />
      <path
         d="m 29.861651,294.43588 -0.07656,0.20539 -1.546187,-0.002 c -0.09291,0.29071 -0.13687,0.34741 -0.0668,0.51355 0.07195,0.16485 0.221806,0.25971 0.449493,0.2848 0.131883,0.0148 0.266754,0.009 0.404711,-0.017 0.139202,-0.0259 0.501078,-0.12507 0.652538,-0.1908 l -0.148138,0.39714 c -0.147036,0.0504 -0.508081,0.13863 -0.649956,0.15781 -0.141876,0.0193 -0.279382,0.0214 -0.412486,0.007 -0.33344,-0.037 -0.553567,-0.18454 -0.660393,-0.44348 -0.105566,-0.25875 -0.08288,-0.5905 0.06807,-0.99522 0.156134,-0.41842 0.371833,-0.73999 0.647359,-0.96467 0.277318,-0.22604 0.572748,-0.32179 0.886286,-0.28722 0.281199,0.0307 0.461833,0.16663 0.541999,0.40665 0.08195,0.23874 0.05199,0.5483 -0.08989,0.92868 z m -0.297458,-0.16104 c 0.08311,-0.23003 0.09867,-0.4192 0.04645,-0.56751 -0.05093,-0.14821 -0.161032,-0.23161 -0.330238,-0.25027 -0.191612,-0.021 -0.370002,0.0283 -0.535043,0.14776 -0.16384,0.11974 -0.137625,0.29219 -0.244719,0.53066 z"
         style="font-style:normal;font-variant:normal;font-weight:normal;font-stretch:normal;font-size:2.82222223px;font-family:sans-serif;-inkscape-font-specification:'sans-serif, Normal';font-variant-ligatures:normal;font-variant-caps:normal;font-variant-numeric:normal;font-feature-settings:normal;text-align:start;writing-mode:lr-tb;text-anchor:start;stroke-width:0.40432581"
         id="path1725"
         inkscape:connector-curvature="0"
         sodipodi:nodetypes="ccccscccsscscscccccsccc" />
    </g>
    <g
       id="g9547"
       transform="matrix(0.44144057,0.04748421,0.00439757,0.15820627,1.527525,291.79214)">
      <g
         style="display:inline"
         inkscape:label="Layer 1"
         id="layer4" />
      <path
         id="rect5872"
         d="m 11.987289,9.3234482 h 7.991524 v 3.9957608 h -7.991524 z"
         style="opacity:1;fill:#0f0f00;fill-opacity:1;stroke:#000000;stroke-width:0;stroke-miterlimit:4;stroke-dasharray:none;stroke-opacity:1"
         inkscape:connector-curvature="0" />
      <path
         id="rect5874"
         d="m 14.667374,10.662096 h 3.995763 v 1.331921 h -3.995763 z"
         style="opacity:1;fill:#ffffff;fill-opacity:0.98571424;stroke:#000000;stroke-width:0;stroke-miterlimit:4;stroke-dasharray:none;stroke-opacity:1"
         inkscape:connector-curvature="0" />
      <path
         id="rect5878"
         d="m -29.323654,9.3234482 h 7.989551 v 3.9957608 h -7.989551 z"
         style="opacity:1;fill:#0c0c00;fill-opacity:1;stroke:#000000;stroke-width:0;stroke-miterlimit:4;stroke-dasharray:none;stroke-opacity:1"
         transform="scale(-1,1)"
         inkscape:connector-curvature="0" />
      <path
         id="rect5880"
         d="m 26.64423,10.662096 -3.171232,0.209056 v 1.331921 l 3.171232,-0.209056 z"
         style="opacity:1;fill:#ffffff;fill-opacity:0.98571424;stroke:#000000;stroke-width:0;stroke-miterlimit:4;stroke-dasharray:none;stroke-opacity:1"
         inkscape:connector-curvature="0" />
      <path
         id="rect5882"
         d="m 19.995058,14.667374 h 1.331921 v 3.995762 h -1.331921 z"
         style="opacity:1;fill:#000000;fill-opacity:1;stroke:#000000;stroke-width:0;stroke-miterlimit:4;stroke-dasharray:none;stroke-opacity:1"
         inkscape:connector-curvature="0" />
      <path
         id="rect5884"
         d="m 20.888507,17.21991 2.579094,0.32072 v 1.33192 l -2.579094,-0.32072 z"
         style="opacity:1;fill:#000000;fill-opacity:1;stroke:#000000;stroke-width:0;stroke-miterlimit:4;stroke-dasharray:none;stroke-opacity:1"
         inkscape:connector-curvature="0" />
      <path
         id="rect5886"
         d="m 11.954803,20.011301 h 2.696328 v 2.663842 h -2.696328 z"
         style="opacity:1;fill:#000200;fill-opacity:1;stroke:#000000;stroke-width:0;stroke-miterlimit:4;stroke-dasharray:none;stroke-opacity:1"
         inkscape:connector-curvature="0" />
      <path
         id="rect5888"
         d="m 27.970341,20.011301 h 2.696327 v 2.663842 h -2.696327 z"
         style="opacity:1;fill:#000200;fill-opacity:1;stroke:#000000;stroke-width:0;stroke-miterlimit:4;stroke-dasharray:none;stroke-opacity:1"
         inkscape:connector-curvature="0" />
      <path
         id="rect5890"
         d="m 14.651131,20.011301 h 13.351695 v 1.33192 H 14.651131 Z"
         style="opacity:1;fill:#000200;fill-opacity:1;stroke:#000000;stroke-width:0;stroke-miterlimit:4;stroke-dasharray:none;stroke-opacity:1"
         inkscape:connector-curvature="0" />
    </g>
    <path
       style="fill:#272727;fill-opacity:1;stroke:#d6d6d6;stroke-width:0.29768142;stroke-linecap:round;stroke-linejoin:miter;stroke-miterlimit:4;stroke-dasharray:none;stroke-opacity:1;paint-order:stroke fill markers"
       d="M 0.11091449,196.45721 H 15.651305 l 0.04677,19.5628 -15.58716251,0.70158 z"
       id="rect1087"
       inkscape:connector-curvature="0"
       sodipodi:nodetypes="ccccc" />
    <g
       aria-label="goly
penerator"
       style="font-style:normal;font-weight:normal;font-size:10.58333302px;line-height:1.25;font-family:sans-serif;letter-spacing:0px;word-spacing:0px;fill:#fcfcfc;fill-opacity:1;stroke:none;stroke-width:0.26458332"
       id="text1092"
       transform="matrix(0.14769597,0,0,0.32814931,12.761234,127.74167)">
      <g
         aria-label="horse-a
doodle
doo"
         transform="scale(1.0880441,0.91908035)"
         style="font-style:normal;font-weight:normal;font-size:23.50690651px;line-height:1.25;font-family:sans-serif;letter-spacing:0px;word-spacing:0px;fill:#f3f3f3;fill-opacity:1;stroke:none;stroke-width:0.15548837"
         id="text4844">
        <path
           d="m -63.244951,238.82665 v 7.75912 h -2.111948 v -7.69025 q 0,-1.825 -0.711635,-2.73176 -0.711635,-0.90676 -2.134905,-0.90676 -1.710219,0 -2.697325,1.09041 -0.987107,1.09041 -0.987107,2.9728 v 7.26556 h -2.123426 v -17.85974 h 2.123426 v 7.00157 q 0.757547,-1.15928 1.779087,-1.73318 1.033019,-0.5739 2.375942,-0.5739 2.215251,0 3.351571,1.37736 1.13632,1.36588 1.13632,4.02877 z"
           style="fill:#f3f3f3;fill-opacity:1;stroke-width:0.15548837"
           id="path4858"
           inkscape:connector-curvature="0" />
        <path
           d="m -52.863918,235.52125 q -1.698742,0 -2.685848,1.33145 -0.987106,1.31996 -0.987106,3.62704 0,2.30707 0.975628,3.63852 0.987106,1.31997 2.697326,1.31997 1.687263,0 2.674369,-1.33145 0.987107,-1.33145 0.987107,-3.62704 0,-2.28412 -0.987107,-3.61557 -0.987106,-1.34292 -2.674369,-1.34292 z m 0,-1.79057 q 2.754715,0 4.327199,1.79057 1.572483,1.79056 1.572483,4.95849 0,3.15644 -1.572483,4.95849 -1.572484,1.79056 -4.327199,1.79056 -2.766194,0 -4.338677,-1.79056 -1.561006,-1.80205 -1.561006,-4.95849 0,-3.16793 1.561006,-4.95849 1.572483,-1.79057 4.338677,-1.79057 z"
           style="fill:#f3f3f3;fill-opacity:1;stroke-width:0.15548837"
           id="path4860"
           inkscape:connector-curvature="0" />
        <path
           d="m -37.189932,235.70464 q -0.355818,-0.2066 -0.780503,-0.29842 -0.413208,-0.10331 -0.918239,-0.10331 -1.790565,0 -2.754715,1.17076 -0.952673,1.15927 -0.952673,3.34009 v 6.77201 h -2.123426 v -12.85534 h 2.123426 v 1.99717 q 0.665723,-1.17076 1.733175,-1.73318 1.067453,-0.5739 2.594024,-0.5739 0.218082,0 0.482076,0.0344 0.263993,0.023 0.585377,0.0803 z"
           style="fill:#f3f3f3;fill-opacity:1;stroke-width:0.15548837"
           id="path4862"
           inkscape:connector-curvature="0" />
        <path
           d="m -25.592235,234.41936 v 1.99717 q -0.895282,-0.45912 -1.859433,-0.68868 -0.96415,-0.22956 -1.997168,-0.22956 -1.572484,0 -2.364465,0.48208 -0.780502,0.48207 -0.780502,1.44622 0,0.7346 0.562421,1.15928 0.562421,0.41321 2.261162,0.79198 l 0.723113,0.16069 q 2.249684,0.48208 3.190879,1.36588 0.952672,0.87233 0.952672,2.44481 0,1.79057 -1.423269,2.83506 -1.411792,1.0445 -3.891036,1.0445 -1.033019,0 -2.157861,-0.2066 -1.113364,-0.19513 -2.352986,-0.59686 v -2.18081 q 1.170754,0.60833 2.307074,0.91823 1.136321,0.29843 2.249685,0.29843 1.492137,0 2.295596,-0.50503 0.803459,-0.51651 0.803459,-1.44622 0,-0.86085 -0.585377,-1.31997 -0.573899,-0.45912 -2.536634,-0.88381 l -0.734591,-0.17217 q -1.962735,-0.4132 -2.835061,-1.26258 -0.872327,-0.86084 -0.872327,-2.35298 0,-1.81352 1.285534,-2.80063 1.285534,-0.98711 3.649998,-0.98711 1.170754,0 2.203773,0.17217 1.033018,0.17217 1.905344,0.51651 z"
           style="fill:#f3f3f3;fill-opacity:1;stroke-width:0.15548837"
           id="path4864"
           inkscape:connector-curvature="0" />
        <path
           d="m -10.533123,239.94027 v 1.03302 h -9.710373 q 0.137736,2.18082 1.30849,3.32862 1.182232,1.13632 3.282703,1.13632 1.216666,0 2.352986,-0.29843 1.147798,-0.29843 2.272641,-0.89528 v 1.99716 q -1.136321,0.48208 -2.330031,0.7346 -1.19371,0.25251 -2.421854,0.25251 -3.076099,0 -4.878142,-1.79056 -1.790565,-1.79057 -1.790565,-4.84371 0,-3.15645 1.698741,-5.0044 1.710219,-1.85944 4.602671,-1.85944 2.594024,0 4.097639,1.67579 1.515094,1.66431 1.515094,4.5338 z m -2.111949,-0.61981 q -0.02296,-1.73317 -0.975628,-2.76619 -0.941195,-1.03302 -2.5022,-1.03302 -1.767609,0 -2.835062,0.99858 -1.055974,0.99859 -1.216666,2.81211 z"
           style="fill:#f3f3f3;fill-opacity:1;stroke-width:0.15548837"
           id="path4866"
           inkscape:connector-curvature="0" />
        <path
           d="m 6.1050132,240.12367 q -2.5595899,0 -3.5466963,0.58537 -0.9871064,0.58538 -0.9871064,1.99717 0,1.12484 0.7345908,1.79057 0.7460688,0.65424 2.0201248,0.65424 1.7561312,0 2.8121055,-1.23962 1.0674523,-1.2511 1.0674523,-3.31714 v -0.47059 z m 4.2124198,-0.87233 v 7.33443 H 8.2054839 v -1.95126 q -0.7231129,1.17076 -1.8020431,1.73318 -1.0789303,0.55094 -2.6399358,0.55094 -1.9742129,0 -3.14496701,-1.10189 -1.15927615,-1.11336 -1.15927615,-2.97279 0,-2.16934 1.44622569,-3.27123 1.45770367,-1.10188 4.33867707,-1.10188 h 2.9613193 v -0.20661 q 0,-1.4577 -0.9641505,-2.24968 -0.9526725,-0.80346 -2.6858477,-0.80346 -1.1018862,0 -2.1463826,0.26399 -1.0444963,0.264 -2.00864676,0.79198 v -1.95125 q 1.15927616,-0.44764 2.24968446,-0.66573 1.0904082,-0.22956 2.1234266,-0.22956 2.7891495,0 4.1665073,1.44623 1.3773583,1.44623 1.3773583,4.38459 z"
           style="fill:#f3f3f3;fill-opacity:1;stroke-width:0.15548837"
           id="path4870"
           inkscape:connector-curvature="0" />
        <path
           d="m -64.124852,257.33821 1.677879,-8.33086 2.419062,0.13832 -4.308216,21.3908 -2.419062,-0.13832 0.465155,-2.30955 q -1.039408,1.33113 -2.345166,1.93784 -1.289845,0.59371 -2.920081,0.50049 -2.668855,-0.1526 -3.903137,-2.47589 -1.221138,-2.32253 -0.49018,-5.95182 0.730958,-3.62929 2.849177,-5.76088 2.131364,-2.13083 4.800219,-1.97822 1.630236,0.0932 2.651511,0.83299 1.037187,0.72677 1.522839,2.1451 z m -9.325804,4.90385 q -0.56206,2.79069 0.207968,4.44778 0.785943,1.64409 2.705416,1.75385 1.919471,0.10976 3.342234,-1.40804 1.425534,-1.53154 1.987594,-4.32224 0.562063,-2.79071 -0.223881,-4.4348 -0.783178,-1.65782 -2.70265,-1.76758 -1.919472,-0.10975 -3.345001,1.42177 -1.409617,1.51855 -1.97168,4.30926 z"
           style="fill:#f3f3f3;fill-opacity:1;stroke-width:0.18316481"
           id="path4872"
           inkscape:connector-curvature="0" />
        <path
           d="m -54.858032,256.44607 q -1.698742,0 -2.499983,1.58894 -0.802844,1.57524 -0.480788,4.32847 0.322058,2.75325 1.48355,4.34218 1.171368,1.57524 2.881588,1.57524 1.687263,0 2.488504,-1.58894 0.801244,-1.58893 0.480788,-4.32848 -0.318852,-2.72584 -1.491823,-4.31477 -1.174573,-1.60264 -2.861836,-1.60264 z m -0.249954,-2.13684 q 2.754715,0 4.577153,2.13684 1.822439,2.13685 2.264666,5.91741 0.440626,3.76688 -0.880299,5.91742 -1.32253,2.13684 -4.077245,2.13684 -2.766194,0 -4.588631,-2.13684 -1.812564,-2.15054 -2.25319,-5.91742 -0.442227,-3.78056 0.868823,-5.91741 1.322529,-2.13684 4.088723,-2.13684 z"
           style="fill:#f3f3f3;fill-opacity:1;stroke-width:0.16985925"
           id="path4874"
           inkscape:connector-curvature="0" />
        <path
           d="m -40.487599,256.44607 q -1.698742,0 -2.499983,1.58894 -0.802845,1.57524 -0.480789,4.32847 0.322058,2.75325 1.483551,4.34218 1.171368,1.57524 2.881588,1.57524 1.687263,0 2.488504,-1.58894 0.801244,-1.58893 0.480788,-4.32848 -0.318852,-2.72584 -1.491823,-4.31477 -1.174573,-1.60264 -2.861836,-1.60264 z m -0.249954,-2.13684 q 2.754715,0 4.577153,2.13684 1.822439,2.13685 2.264666,5.91741 0.440626,3.76688 -0.880299,5.91742 -1.32253,2.13684 -4.077245,2.13684 -2.766194,0 -4.588632,-2.13684 -1.812563,-2.15054 -2.253189,-5.91742 -0.442227,-3.78056 0.868822,-5.91741 1.32253,-2.13684 4.088724,-2.13684 z"
           style="fill:#f3f3f3;fill-opacity:1;stroke-width:0.16985925"
           id="path4876"
           inkscape:connector-curvature="0" />
        <path
           d="m -22.573643,257.00768 -0.97098,-8.30082 h 2.111948 l 2.49314,21.31364 h -2.111948 l -0.269181,-2.30121 q -0.505496,1.36977 -1.448525,2.04096 -0.933153,0.65749 -2.356423,0.65749 -2.33003,0 -4.058781,-2.21903 -1.717271,-2.21903 -2.140272,-5.83523 -0.423001,-3.6162 0.775134,-5.83522 1.209614,-2.21903 3.539644,-2.21903 1.42327,0 2.511843,0.67119 1.098449,0.65748 1.924401,2.02726 z m -6.570206,5.3558 q 0.325262,2.78064 1.4638,4.36958 1.148412,1.57524 2.824198,1.57524 1.675785,0 2.455673,-1.57524 0.778286,-1.58894 0.453024,-4.36958 -0.325261,-2.78063 -1.473674,-4.35587 -1.150014,-1.58893 -2.825799,-1.58893 -1.675786,0 -2.454072,1.58893 -0.768411,1.57524 -0.44315,4.35587 z"
           style="fill:#f3f3f3;fill-opacity:1;stroke-width:0.16985925"
           id="path4878"
           inkscape:connector-curvature="0" />
        <path
           d="m -14.171988,248.70686 h 3.305151 v 21.81811 h -3.305151 z"
           style="fill:#f3f3f3;fill-opacity:1;stroke-width:0.21499233"
           id="path4880"
           inkscape:connector-curvature="0" />
        <path
           d="m 13.239219,262.02769 v 1.26197 H -1.957296 q 0.2155534,2.66416 2.04775732,4.06636 1.85016668,1.38817 5.13735618,1.38817 1.9040551,0 3.6823707,-0.36457 1.7962788,-0.36458 3.5566308,-1.09371 v 2.43981 q -1.778315,0.58892 -3.6464447,0.89741 -1.8681295,0.30847 -3.7901474,0.30847 -4.81402605,0 -7.6341831,-2.18741 -2.8021943,-2.18743 -2.8021943,-5.91725 0,-3.85603 2.658492,-6.11356 2.67645482,-2.27155 7.2030764,-2.27155 4.0595891,0 6.4127141,2.0472 2.371087,2.03318 2.371087,5.53866 z M 9.9340669,261.2705 q -0.035926,-2.11731 -1.5268366,-3.37928 -1.4729483,-1.26197 -3.915887,-1.26197 -2.7662687,0 -4.43680761,1.21991 -1.65257609,1.2199 -1.90405499,3.43536 z"
           style="fill:#f3f3f3;fill-opacity:1;stroke-width:0.21499233"
           id="path4882"
           inkscape:connector-curvature="0" />
        <path
           d="m -53.604197,279.74217 -1.18294,-7.94505 h 5.16089 l 3.037385,20.40017 h -5.160889 l -0.327943,-2.20258 q -1.431599,1.31105 -3.832247,1.95348 -2.374553,0.62931 -5.852544,0.62931 -5.693805,0 -9.600219,-2.12392 -3.878367,-2.12393 -4.393708,-5.58515 -0.51534,-3.4612 2.730563,-5.58514 3.273951,-2.12392 8.967756,-2.12392 3.477991,0 6.041894,0.64243 2.589996,0.62931 4.412002,1.94037 z m -16.823039,5.12626 q 0.396267,2.66146 2.950716,4.18231 2.580542,1.50773 6.675596,1.50773 4.095052,0 6.226623,-1.50773 2.129621,-1.52085 1.733354,-4.18231 -0.396266,-2.66146 -2.976808,-4.16918 -2.582494,-1.52083 -6.677547,-1.52083 -4.095053,0 -6.224672,1.52083 -2.103528,1.50772 -1.707262,4.16918 z"
           style="fill:#f3f3f3;fill-opacity:1;stroke-width:0.25977531"
           id="path4884"
           inkscape:connector-curvature="0" />
        <path
           d="m -29.459384,277.48073 q -3.407339,0 -5.201414,1.58893 -1.795676,1.57524 -1.47362,4.32847 0.322059,2.75325 2.464837,4.34218 2.164201,1.57524 5.594562,1.57524 3.384314,0 5.178389,-1.58893 1.794076,-1.58894 1.47362,-4.32849 -0.318851,-2.72583 -2.484656,-4.31477 -2.167404,-1.60263 -5.551718,-1.60263 z m -0.249956,-2.13685 q 5.52541,0 8.929457,2.13685 3.404041,2.13683 3.846269,5.9174 0.440627,3.76688 -2.461904,5.91742 -2.904136,2.13684 -8.429546,2.13684 -5.548435,0 -8.952478,-2.13684 -3.382625,-2.15054 -3.823252,-5.91742 -0.442228,-3.78057 2.438887,-5.9174 2.904132,-2.13685 8.452567,-2.13685 z"
           style="fill:#f3f3f3;fill-opacity:1;stroke-width:0.24056539"
           id="path4886"
           inkscape:connector-curvature="0" />
        <path
           d="m -0.63515339,277.48073 q -3.40733861,0 -5.20141361,1.58893 -1.7956783,1.57524 -1.4736222,4.32847 0.3220584,2.75325 2.4648395,4.34218 2.1642004,1.57524 5.59456161,1.57524 3.38431409,0 5.17838899,-1.58893 1.7940758,-1.58894 1.4736199,-4.32849 -0.318851,-2.72583 -2.4846559,-4.31477 -2.1674042,-1.60263 -5.55171829,-1.60263 z m -0.24995573,-2.13685 q 5.52541052,0 8.92945642,2.13685 3.4040417,2.13683 3.8462697,5.9174 0.440627,3.76688 -2.4619044,5.91742 -2.9041356,2.13684 -8.42954613,2.13684 -5.54843507,0 -8.95247937,-2.13684 -3.3826231,-2.15054 -3.8232501,-5.91742 -0.442228,-3.78057 2.4388848,-5.9174 2.904134,-2.13685 8.45256908,-2.13685 z"
           style="fill:#f3f3f3;fill-opacity:1;stroke-width:0.24056539"
           id="path4888"
           inkscape:connector-curvature="0" />
      </g>
    </g>
  </g>
</svg>
