<?xml version="1.0" encoding="UTF-8" standalone="no"?>
<!-- Created with Inkscape (http://www.inkscape.org/) -->

<svg
   xmlns:dc="http://purl.org/dc/elements/1.1/"
   xmlns:cc="http://creativecommons.org/ns#"
   xmlns:rdf="http://www.w3.org/1999/02/22-rdf-syntax-ns#"
   xmlns:svg="http://www.w3.org/2000/svg"
   xmlns="http://www.w3.org/2000/svg"
   xmlns:sodipodi="http://sodipodi.sourceforge.net/DTD/sodipodi-0.dtd"
   xmlns:inkscape="http://www.inkscape.org/namespaces/inkscape"
   width="60"
   height="380"
   viewBox="0 0 15.875 100.54167"
   version="1.1"
   id="svg8"
   inkscape:version="0.92.2 5c3e80d, 2017-08-06"
   sodipodi:docname="ComputerscareHorseADoodleDooPanel.svg"
   style="enable-background:new">
  <defs
     id="defs2" />
  <sodipodi:namedview
     id="base"
     pagecolor="#ffffff"
     bordercolor="#666666"
     borderopacity="1.0"
     inkscape:pageopacity="0.0"
     inkscape:pageshadow="2"
     inkscape:zoom="8.0000004"
     inkscape:cx="34.585767"
     inkscape:cy="369.60644"
     inkscape:document-units="mm"
     inkscape:current-layer="g1669"
     showgrid="false"
     units="px"
     inkscape:snap-bbox="true"
     inkscape:snap-page="true"
     inkscape:bbox-nodes="true"
     inkscape:snap-bbox-edge-midpoints="true"
     inkscape:window-width="1440"
     inkscape:window-height="856"
     inkscape:window-x="0"
     inkscape:window-y="0"
     inkscape:window-maximized="0"
     inkscape:snap-global="false"
     showguides="false"
     inkscape:lockguides="false" />
  <metadata
     id="metadata5">
    <rdf:RDF>
      <cc:Work
         rdf:about="">
        <dc:format>image/svg+xml</dc:format>
        <dc:type
           rdf:resource="http://purl.org/dc/dcmitype/StillImage" />
        <dc:title></dc:title>
      </cc:Work>
    </rdf:RDF>
  </metadata>
  <g
     inkscape:label="Layer 1"
     inkscape:groupmode="layer"
     id="layer1"
     transform="translate(0,-196.45832)"
     style="display:none">
    <path
       style="opacity:1;vector-effect:none;fill:#f0f0f0;fill-opacity:1;fill-rule:evenodd;stroke:none;stroke-width:0.48607069;stroke-linecap:butt;stroke-linejoin:round;stroke-miterlimit:4;stroke-dasharray:none;stroke-dashoffset:0;stroke-opacity:1;paint-order:normal"
       d="M 0,196.45831 H 23.8125 V 296.99999 H 0 Z"
       id="rect817"
       inkscape:connector-curvature="0" />
    <text
       xml:space="preserve"
       style="font-style:normal;font-weight:normal;font-size:10.58333302px;line-height:1.25;font-family:sans-serif;letter-spacing:0px;word-spacing:0px;fill:#000000;fill-opacity:1;stroke:none;stroke-width:0.26458332"
       x="8.2147436"
       y="295.57718"
       id="text1490"
       transform="rotate(1.4468834)"><tspan
         sodipodi:role="line"
         id="tspan1488"
         x="8.2147436"
         y="295.57718"
         style="font-style:normal;font-variant:normal;font-weight:normal;font-stretch:normal;font-size:2.82222223px;font-family:sans-serif;-inkscape-font-specification:'sans-serif, Normal';font-variant-ligatures:normal;font-variant-caps:normal;font-variant-numeric:normal;font-feature-settings:normal;text-align:start;writing-mode:lr-tb;text-anchor:start;stroke-width:0.26458332">computerscare</tspan></text>
    <text
       transform="rotate(-5.9989835)"
       id="text1494"
       y="288.0314"
       x="-28.710276"
       style="font-style:normal;font-weight:normal;font-size:10.58333302px;line-height:1.25;font-family:sans-serif;letter-spacing:0px;word-spacing:0px;fill:#000000;fill-opacity:1;stroke:none;stroke-width:0.26458332"
       xml:space="preserve"><tspan
         style="font-style:normal;font-variant:normal;font-weight:normal;font-stretch:normal;font-size:2.82222223px;font-family:sans-serif;-inkscape-font-specification:'sans-serif, Normal';font-variant-ligatures:normal;font-variant-caps:normal;font-variant-numeric:normal;font-feature-settings:normal;text-align:start;writing-mode:lr-tb;text-anchor:start;stroke-width:0.26458332"
         y="288.0314"
         x="-28.710276"
         id="tspan1492"
         sodipodi:role="line">trg</tspan></text>
    <text
       xml:space="preserve"
       style="font-style:normal;font-weight:normal;font-size:10.58333302px;line-height:1.25;font-family:sans-serif;letter-spacing:0px;word-spacing:0px;fill:#000000;fill-opacity:1;stroke:none;stroke-width:0.26458332"
       x="20.711658"
       y="288.87244"
       id="text1498"
       transform="rotate(1.9714728)"><tspan
         sodipodi:role="line"
         id="tspan1496"
         x="20.711658"
         y="288.87244"
         style="font-style:normal;font-variant:normal;font-weight:normal;font-stretch:normal;font-size:2.82222223px;font-family:sans-serif;-inkscape-font-specification:'sans-serif, Normal';font-variant-ligatures:normal;font-variant-caps:normal;font-variant-numeric:normal;font-feature-settings:normal;text-align:start;writing-mode:lr-tb;text-anchor:start;stroke-width:0.26458332">in</tspan></text>
    <text
       transform="rotate(0.49746114)"
       id="text1521"
       y="289.16214"
       x="20.314623"
       style="font-style:normal;font-weight:normal;font-size:10.58333302px;line-height:1.25;font-family:sans-serif;letter-spacing:0px;word-spacing:0px;fill:#000000;fill-opacity:1;stroke:none;stroke-width:0.26458332"
       xml:space="preserve"><tspan
         style="font-style:normal;font-variant:normal;font-weight:normal;font-stretch:normal;font-size:3.17499995px;font-family:sans-serif;-inkscape-font-specification:'sans-serif, Normal';font-variant-ligatures:normal;font-variant-caps:normal;font-variant-numeric:normal;font-feature-settings:normal;text-align:start;writing-mode:lr-tb;text-anchor:start;stroke-width:0.26458332"
         y="289.16214"
         x="20.314623"
         id="tspan1519"
         sodipodi:role="line">clr</tspan></text>
    <text
       transform="matrix(1.0139335,-0.02825079,0.06854811,0.98434808,0,0)"
       id="text1645"
       y="204.61243"
       x="-10.296249"
       style="font-style:normal;font-weight:normal;font-size:10.74719143px;line-height:1.25;font-family:sans-serif;letter-spacing:0px;word-spacing:0px;fill:#000000;fill-opacity:1;stroke:none;stroke-width:0.26867977"
       xml:space="preserve"><tspan
         style="font-style:normal;font-variant:normal;font-weight:normal;font-stretch:normal;font-size:5.01535606px;font-family:sans-serif;-inkscape-font-specification:'sans-serif, Normal';font-variant-ligatures:normal;font-variant-caps:normal;font-variant-numeric:normal;font-feature-settings:normal;text-align:start;writing-mode:lr-tb;text-anchor:start;stroke-width:0.26867977"
         y="204.61243"
         x="-10.296249"
         id="tspan1643"
         sodipodi:role="line">debug</tspan></text>
  </g>
  <g
     inkscape:groupmode="layer"
     id="layer3"
     inkscape:label="bg" />
  <g
     style="display:inline"
     transform="translate(0,-196.45832)"
     id="g1669"
     inkscape:groupmode="layer"
     inkscape:label="Layer 1 copy">
    <rect
       style="fill:#fcfcfc;fill-opacity:1;stroke:#666666;stroke-width:0.26300001;stroke-linecap:round;stroke-linejoin:round;stroke-miterlimit:4;stroke-dasharray:none;stroke-opacity:1;paint-order:stroke fill markers"
       id="rect4821"
       width="15.668674"
       height="13.6107"
       x="0.093544334"
       y="283.3425" />
    <rect
       style="fill:#fcfcfc;fill-opacity:1;stroke:#666666;stroke-width:0.29740328;stroke-linecap:round;stroke-linejoin:round;stroke-miterlimit:4;stroke-dasharray:none;stroke-opacity:1;paint-order:stroke fill markers"
       id="rect1125"
       width="12.070284"
       height="46.313881"
       x="3.9198055"
       y="238.41199" />
    <rect
       style="fill:#fcfcfc;fill-opacity:1;stroke:#666666;stroke-width:0.263;stroke-linecap:round;stroke-linejoin:round;stroke-miterlimit:4;stroke-dasharray:none;stroke-opacity:1;paint-order:stroke fill markers"
       id="rect1123"
       width="21.034372"
       height="28.839581"
       x="-6.4161453"
       y="213.19322" />
    <g
       aria-label="computerscare"
       transform="matrix(0.60064444,-0.07085766,0.25618802,1.4708996,-77.768926,-137.20328)"
       style="font-style:normal;font-weight:normal;font-size:10.58333302px;line-height:1.25;font-family:sans-serif;letter-spacing:0px;word-spacing:0px;fill:#000000;fill-opacity:1;stroke:none;stroke-width:0.26458332"
       id="text1651">
      <path
         d="m 7.0715568,293.85718 0.2613077,0.24102 Q 6.9992046,294.04 6.6955837,294.0127 6.3938909,293.984 6.1188826,293.9863 q -0.6156858,0.004 -0.783258,0.1669 -0.1689374,0.1609 0.1425243,0.44818 0.3114306,0.28724 0.8252359,0.44445 0.5122852,0.1558 1.1281313,0.15119 0.2751147,-0.003 0.5118125,-0.0335 0.2384006,-0.0328 0.4413636,-0.0952 l 0.2582676,0.23821 q -0.2101865,0.0525 -0.4685187,0.0797 -0.2547675,0.0273 -0.5747614,0.0297 -0.870277,0.007 -1.6246327,-0.21246 -0.7541869,-0.21896 -1.1643838,-0.59731 -0.416285,-0.38396 -0.1387384,-0.60783 0.2809984,-0.22388 1.182405,-0.23063 0.2928036,-0.002 0.5985991,0.0212 0.3045029,0.0217 0.6192412,0.069 z"
         style="font-style:normal;font-variant:normal;font-weight:normal;font-stretch:normal;font-size:2.82222223px;font-family:sans-serif;-inkscape-font-specification:'sans-serif, Normal';font-variant-ligatures:normal;font-variant-caps:normal;font-variant-numeric:normal;font-feature-settings:normal;text-align:start;writing-mode:lr-tb;text-anchor:start;stroke-width:0.42328158"
         id="path1701"
         inkscape:connector-curvature="0" />
      <path
         d="m 9.9464593,293.50838 q -0.2237141,0.0309 -0.3927104,0.27281 -0.1686789,0.24008 -0.2362989,0.62842 -0.067621,0.38834 0.021828,0.59476 0.091297,0.20429 0.3165043,0.17329 0.2221783,-0.0306 0.3912017,-0.27261 0.169014,-0.24201 0.236299,-0.62841 0.06695,-0.38447 -0.02401,-0.5907 -0.09062,-0.20816 -0.3128137,-0.17756 z m 0.052484,-0.30139 q 0.3627417,-0.0499 0.5173437,0.22293 0.154584,0.27291 0.06173,0.80614 -0.09252,0.53132 -0.352413,0.86314 -0.2595559,0.3299 -0.6223088,0.37984 -0.3642764,0.0502 -0.5188573,-0.22272 -0.1527376,-0.27503 -0.060218,-0.80634 0.092858,-0.53324 0.3509019,-0.86294 0.2595555,-0.3299 0.6238215,-0.38005 z"
         style="font-style:normal;font-variant:normal;font-weight:normal;font-stretch:normal;font-size:2.82222223px;font-family:sans-serif;-inkscape-font-specification:'sans-serif, Normal';font-variant-ligatures:normal;font-variant-caps:normal;font-variant-numeric:normal;font-feature-settings:normal;text-align:start;writing-mode:lr-tb;text-anchor:start;stroke-width:0.32414466"
         id="path1703"
         inkscape:connector-curvature="0" />
      <path
         d="m 12.573593,293.47296 q 0.146429,-0.29017 0.323577,-0.4297 0.177142,-0.13952 0.398301,-0.14255 0.297703,-0.004 0.430487,0.28016 0.133018,0.28182 0.08005,0.80785 l -0.158451,1.57347 -0.31472,0.004 0.157034,-1.55952 q 0.03773,-0.37473 -0.04095,-0.55501 -0.0787,-0.18025 -0.277725,-0.17759 -0.243267,0.003 -0.406724,0.22624 -0.163461,0.22302 -0.201896,0.60475 l -0.148392,1.47339 -0.314718,0.004 0.157034,-1.55952 q 0.03797,-0.37707 -0.04095,-0.55501 -0.0787,-0.18024 -0.281128,-0.17754 -0.239862,0.003 -0.403556,0.22853 -0.163461,0.22302 -0.201663,0.60242 l -0.148389,1.47337 -0.314713,0.004 0.262474,-2.60694 0.314717,-0.004 -0.04078,0.40498 q 0.131314,-0.24114 0.292496,-0.35722 0.161174,-0.11593 0.36702,-0.11873 0.207543,-0.003 0.337617,0.13953 0.131784,0.14223 0.173866,0.41607 z"
         style="font-style:normal;font-variant:normal;font-weight:normal;font-stretch:normal;font-size:2.82222223px;font-family:sans-serif;-inkscape-font-specification:'sans-serif, Normal';font-variant-ligatures:normal;font-variant-caps:normal;font-variant-numeric:normal;font-feature-settings:normal;text-align:start;writing-mode:lr-tb;text-anchor:start;stroke-width:0.38180155"
         id="path1705"
         inkscape:connector-curvature="0" />
      <path
         d="m 14.194053,294.39558 -0.116432,1.14614 -0.273689,0.004 0.303039,-2.98303 0.273689,-0.004 -0.03332,0.32801 q 0.105411,-0.19423 0.245004,-0.2888 0.141267,-0.0965 0.323234,-0.0992 0.301797,-0.005 0.457926,0.30525 0.157609,0.30975 0.10586,0.81916 -0.05175,0.50939 -0.272866,0.8248 -0.219637,0.31539 -0.521434,0.31991 -0.181967,0.003 -0.304231,-0.0879 -0.120586,-0.0926 -0.186786,-0.28427 z m 1.002747,-0.76829 q 0.03979,-0.39171 -0.06194,-0.61174 -0.100053,-0.22198 -0.316046,-0.21875 -0.215991,0.003 -0.362999,0.22891 -0.145331,0.22373 -0.185124,0.61543 -0.03979,0.3917 0.06026,0.61368 0.101729,0.22003 0.317721,0.2168 0.215993,-0.003 0.361324,-0.22696 0.147007,-0.22568 0.186798,-0.61737 z"
         style="font-style:normal;font-variant:normal;font-weight:normal;font-stretch:normal;font-size:2.82222223px;font-family:sans-serif;-inkscape-font-specification:'sans-serif, Normal';font-variant-ligatures:normal;font-variant-caps:normal;font-variant-numeric:normal;font-feature-settings:normal;text-align:start;writing-mode:lr-tb;text-anchor:start;stroke-width:0.32414466"
         id="path1707"
         inkscape:connector-curvature="0" />
      <path
         d="m 15.817295,294.59929 0.133589,-1.31662 0.279679,-0.0948 -0.13221,1.30302 q -0.03133,0.30876 0.04714,0.43231 0.07867,0.12157 0.267104,0.0581 0.226411,-0.0761 0.375861,-0.305 0.150937,-0.22909 0.183252,-0.54758 l 0.125112,-1.23308 0.27968,-0.0948 -0.220678,2.17493 -0.279678,0.0948 0.03389,-0.33401 q -0.121926,0.23241 -0.26703,0.37515 -0.143377,0.14014 -0.321206,0.2003 -0.293335,0.0992 -0.421647,-0.0827 -0.128329,-0.18177 -0.08282,-0.63032 z"
         style="font-style:normal;font-variant:normal;font-weight:normal;font-stretch:normal;font-size:2.82222223px;font-family:sans-serif;-inkscape-font-specification:'sans-serif, Normal';font-variant-ligatures:normal;font-variant-caps:normal;font-variant-numeric:normal;font-feature-settings:normal;text-align:start;writing-mode:lr-tb;text-anchor:start;stroke-width:0.32414466"
         id="path1709"
         inkscape:connector-curvature="0" />
      <path
         d="m 18.344702,293.59556 v 0.43822 h 0.522277 v 0.19706 h -0.522277 v 0.83784 q 0,0.18879 0.05099,0.24254 0.05237,0.0537 0.21084,0.0537 h 0.260449 v 0.21222 H 18.60653 q -0.293522,0 -0.405144,-0.10887 -0.111621,-0.11024 -0.111621,-0.39963 V 294.2308 H 17.90373 v -0.19706 h 0.186035 v -0.43822 z"
         style="font-style:normal;font-variant:normal;font-weight:normal;font-stretch:normal;font-size:2.82222223px;font-family:sans-serif;-inkscape-font-specification:'sans-serif, Normal';font-variant-ligatures:normal;font-variant-caps:normal;font-variant-numeric:normal;font-feature-settings:normal;text-align:start;writing-mode:lr-tb;text-anchor:start;stroke-width:0.26458332"
         id="path1711"
         inkscape:connector-curvature="0" />
      <path
         d="m 20.508346,294.20141 2.1e-5,0.12482 -1.158332,0.29657 q 0.01648,0.25929 0.156153,0.36223 0.141049,0.1012 0.391609,0.037 0.145134,-0.0376 0.280676,-0.10793 0.136913,-0.0711 0.271081,-0.17758 l 4e-5,0.24133 q -0.135541,0.093 -0.277931,0.15998 -0.14239,0.0669 -0.288893,0.10441 -0.366941,0.094 -0.581938,-0.0673 -0.213628,-0.16169 -0.213688,-0.53061 -6.1e-5,-0.38138 0.202543,-0.65655 0.203972,-0.2769 0.549007,-0.36523 0.309435,-0.0789 0.488832,0.0774 0.180765,0.15485 0.18082,0.50156 z m -0.251942,-0.0103 q -0.0028,-0.2087 -0.116435,-0.30445 -0.112293,-0.0961 -0.298502,-0.0484 -0.210854,0.0537 -0.338169,0.20723 -0.125945,0.15291 -0.145079,0.37694 z"
         style="font-style:normal;font-variant:normal;font-weight:normal;font-stretch:normal;font-size:2.82222223px;font-family:sans-serif;-inkscape-font-specification:'sans-serif, Normal';font-variant-ligatures:normal;font-variant-caps:normal;font-variant-numeric:normal;font-feature-settings:normal;text-align:start;writing-mode:lr-tb;text-anchor:start;stroke-width:0.26458332"
         id="path1713"
         inkscape:connector-curvature="0" />
      <path
         d="m 21.832517,294.2708 q -0.04272,-0.0248 -0.09371,-0.0358 -0.04961,-0.0124 -0.110243,-0.0124 -0.214974,0 -0.330729,0.14056 -0.114377,0.13918 -0.114377,0.40101 v 0.81304 h -0.254937 v -1.5434 h 0.254937 v 0.23977 q 0.07993,-0.14056 0.208084,-0.20808 0.128157,-0.0689 0.311436,-0.0689 0.02618,0 0.05788,0.004 0.03169,0.003 0.07028,0.01 z"
         style="font-style:normal;font-variant:normal;font-weight:normal;font-stretch:normal;font-size:2.82222223px;font-family:sans-serif;-inkscape-font-specification:'sans-serif, Normal';font-variant-ligatures:normal;font-variant-caps:normal;font-variant-numeric:normal;font-feature-settings:normal;text-align:start;writing-mode:lr-tb;text-anchor:start;stroke-width:0.26458332"
         id="path1715"
         inkscape:connector-curvature="0" />
      <path
         d="m 21.917438,292.35903 -0.03488,0.23723 q -0.09833,-0.0702 -0.208837,-0.11429 -0.110508,-0.0442 -0.233212,-0.0622 -0.186783,-0.0275 -0.289279,0.016 -0.101136,0.0437 -0.117973,0.15816 -0.01283,0.0873 0.04655,0.14753 0.05959,0.0589 0.254751,0.13358 l 0.08309,0.0317 q 0.258799,0.0966 0.355164,0.21797 0.09793,0.12025 0.07046,0.30705 -0.03127,0.21268 -0.218575,0.31189 -0.185938,0.0994 -0.480428,0.0561 -0.122703,-0.018 -0.252707,-0.0622 -0.128844,-0.0426 -0.269062,-0.11204 l 0.03809,-0.25904 q 0.128445,0.0927 0.258001,0.14937 0.129765,0.0553 0.262013,0.0747 0.17724,0.0261 0.281492,-0.0199 0.104454,-0.0473 0.120693,-0.15775 0.01504,-0.10226 -0.04648,-0.16702 -0.06015,-0.0645 -0.285871,-0.14928 l -0.08424,-0.0333 q -0.225922,-0.0833 -0.314703,-0.19949 -0.08858,-0.11748 -0.06252,-0.29473 0.03167,-0.21541 0.201614,-0.31021 0.169938,-0.0948 0.450794,-0.0535 0.139065,0.0204 0.258757,0.059 0.119693,0.0385 0.217301,0.0946 z"
         style="font-style:normal;font-variant:normal;font-weight:normal;font-stretch:normal;font-size:2.82222223px;font-family:sans-serif;-inkscape-font-specification:'sans-serif, Normal';font-variant-ligatures:normal;font-variant-caps:normal;font-variant-numeric:normal;font-feature-settings:normal;text-align:start;writing-mode:lr-tb;text-anchor:start;stroke-width:0.26458332"
         id="path1717"
         inkscape:connector-curvature="0" />
      <path
         d="m 23.75281,292.59831 c -0.08645,0.15984 -0.310959,-0.0317 -0.546114,0.002 -0.163883,0.0136 -0.286821,0.0763 -0.368812,0.1882 -0.08207,0.11097 -0.115323,0.2603 -0.09977,0.44799 0.01555,0.18768 0.07297,0.32995 0.172262,0.42682 0.09921,0.096 0.230762,0.13713 0.394645,0.12355 0.07324,-0.006 0.144777,-0.0216 0.2146,-0.0468 0.07066,-0.0261 0.140065,-0.0618 0.208213,-0.10716 l 0.01935,0.23346 c -0.06777,0.0388 -0.138962,0.0696 -0.213589,0.0923 -0.07371,0.0227 -0.153138,0.0376 -0.238284,0.0446 -0.231635,0.0192 -0.421693,-0.0383 -0.570174,-0.17261 -0.14848,-0.13426 -0.232962,-0.32499 -0.253446,-0.57219 -0.02079,-0.25087 0.03153,-0.45386 0.15695,-0.60898 0.126338,-0.1552 0.309444,-0.24274 0.549319,-0.26262 0.07782,-0.007 0.154496,-0.005 0.230021,0.006 0.07545,0.009 0.411602,0.13108 0.483843,0.15738 z"
         style="font-style:normal;font-variant:normal;font-weight:normal;font-stretch:normal;font-size:2.82222223px;font-family:sans-serif;-inkscape-font-specification:'sans-serif, Normal';font-variant-ligatures:normal;font-variant-caps:normal;font-variant-numeric:normal;font-feature-settings:normal;text-align:start;writing-mode:lr-tb;text-anchor:start;stroke-width:0.26458332"
         id="path1719"
         inkscape:connector-curvature="0"
         sodipodi:nodetypes="cccccccccccccccccc" />
      <path
         d="m 25.018614,294.15331 c -0.322925,0.0369 -0.560556,0.10695 -0.712911,0.21046 -0.152364,0.1035 -0.26206,0.2629 -0.329076,0.4781 -0.05348,0.17155 -0.04966,0.30279 0.01143,0.39373 0.06308,0.089 0.174996,0.12418 0.335714,0.10598 0.221572,-0.0253 0.428408,-0.14007 0.620489,-0.34422 0.194095,-0.20613 0.340205,-0.46672 0.438328,-0.78176 l 0.03345,-0.1076 z m 0.859326,-0.29042 -0.5225,1.67759 -0.399634,0.0454 0.138993,-0.4463 c -0.146847,0.18892 -0.301683,0.33404 -0.46451,0.43533 -0.162271,0.0995 -0.341892,0.16049 -0.538852,0.18299 -0.249106,0.0285 -0.421324,-0.033 -0.516673,-0.18416 -0.09338,-0.15309 -0.09591,-0.37142 -0.0076,-0.65497 0.103022,-0.33078 0.27193,-0.59058 0.506724,-0.7794 0.236244,-0.18899 0.536104,-0.30422 0.89958,-0.34567 l 0.560447,-0.064 0.01464,-0.0471 c 0.06923,-0.22228 0.06183,-0.38687 -0.02219,-0.49376 -0.08203,-0.1088 -0.23238,-0.15075 -0.451042,-0.12579 -0.139039,0.0161 -0.280695,0.0515 -0.425026,0.10674 -0.144306,0.0553 -0.247216,0.029 -0.393955,0.12347 l 0.09638,-0.34521 c 0.167501,-0.0848 0.325212,-0.15172 0.473149,-0.20074 0.148467,-0.0507 0.287872,-0.0834 0.418243,-0.0984 0.351917,-0.0402 0.580402,0.0401 0.685466,0.24088 0.105088,0.20071 0.08785,0.5251 -0.0517,0.97315 z"
         style="font-style:normal;font-variant:normal;font-weight:normal;font-stretch:normal;font-size:2.82222223px;font-family:sans-serif;-inkscape-font-specification:'sans-serif, Normal';font-variant-ligatures:normal;font-variant-caps:normal;font-variant-numeric:normal;font-feature-settings:normal;text-align:start;writing-mode:lr-tb;text-anchor:start;stroke-width:0.45028558"
         id="path1721"
         inkscape:connector-curvature="0"
         sodipodi:nodetypes="ccccccccccccccccccccccccccccccc" />
      <path
         d="m 27.811045,294.03187 q -0.04765,-0.0359 -0.114148,-0.0521 -0.06379,-0.0182 -0.149723,-0.0183 -0.304614,-6.2e-4 -0.541819,0.20246 -0.234523,0.20105 -0.370837,0.57993 l -0.423324,1.17649 -0.361236,-7.4e-4 0.803473,-2.23334 0.361237,7.5e-4 -0.124848,0.34694 q 0.186434,-0.20316 0.403183,-0.30051 0.217505,-0.0995 0.47719,-0.0989 0.0371,8e-5 0.07992,0.006 0.04318,0.005 0.09438,0.0146 z"
         style="font-style:normal;font-variant:normal;font-weight:normal;font-stretch:normal;font-size:2.82222223px;font-family:sans-serif;-inkscape-font-specification:'sans-serif, Normal';font-variant-ligatures:normal;font-variant-caps:normal;font-variant-numeric:normal;font-feature-settings:normal;text-align:start;writing-mode:lr-tb;text-anchor:start;stroke-width:0.37900135"
         id="path1723"
         inkscape:connector-curvature="0" />
      <path
         d="m 29.712571,294.7854 -0.06094,0.16877 -1.603439,0.13193 c -0.07023,0.23754 -0.110719,0.28611 -0.02315,0.41121 0.08941,0.12391 0.253311,0.18583 0.491653,0.18595 0.138059,6e-5 0.277401,-0.016 0.418108,-0.0485 0.14201,-0.0325 0.508333,-0.14208 0.659478,-0.20707 l -0.117939,0.32633 c -0.147934,0.0525 -0.514377,0.15339 -0.659762,0.18081 -0.145379,0.0275 -0.287764,0.0411 -0.427099,0.041 -0.349049,-1.8e-4 -0.590562,-0.0978 -0.724584,-0.29298 -0.132697,-0.19514 -0.138963,-0.459 -0.01879,-0.79157 0.12432,-0.34382 0.319099,-0.61634 0.584612,-0.81755 0.267249,-0.20244 0.56498,-0.30358 0.893191,-0.30341 0.29435,1.4e-4 0.493835,0.0916 0.598514,0.27415 0.106411,0.18138 0.103144,0.42835 -0.0098,0.74092 z m -0.322894,-0.1014 c 0.06552,-0.18878 0.06466,-0.33947 -0.0028,-0.45204 -0.06612,-0.1126 -0.187772,-0.16891 -0.364898,-0.16901 -0.200575,-10e-5 -0.381115,0.0543 -0.541512,0.16293 -0.159132,0.1087 -0.116464,0.24257 -0.206093,0.4401 z"
         style="font-style:normal;font-variant:normal;font-weight:normal;font-stretch:normal;font-size:2.82222223px;font-family:sans-serif;-inkscape-font-specification:'sans-serif, Normal';font-variant-ligatures:normal;font-variant-caps:normal;font-variant-numeric:normal;font-feature-settings:normal;text-align:start;writing-mode:lr-tb;text-anchor:start;stroke-width:0.36754596"
         id="path1725"
         inkscape:connector-curvature="0"
         sodipodi:nodetypes="ccccscccsscscscccccsccc" />
    </g>
    <g
       id="g9547"
       transform="matrix(0.23127322,-0.10884571,0.02054862,0.32688517,-1.1606061,287.19328)">
      <g
         style="display:inline"
         inkscape:label="Layer 1"
         id="layer4" />
      <path
         id="rect5872"
         d="m 11.987289,9.3234482 h 7.991524 v 3.9957608 h -7.991524 z"
         style="opacity:1;fill:#0f0f00;fill-opacity:1;stroke:#000000;stroke-width:0;stroke-miterlimit:4;stroke-dasharray:none;stroke-opacity:1"
         inkscape:connector-curvature="0" />
      <path
         id="rect5874"
         d="m 14.667374,10.662096 h 3.995763 v 1.331921 h -3.995763 z"
         style="opacity:1;fill:#ffffff;fill-opacity:0.98571424;stroke:#000000;stroke-width:0;stroke-miterlimit:4;stroke-dasharray:none;stroke-opacity:1"
         inkscape:connector-curvature="0" />
      <path
         id="rect5878"
         d="m -29.323654,9.3234482 h 7.989551 v 3.9957608 h -7.989551 z"
         style="opacity:1;fill:#0c0c00;fill-opacity:1;stroke:#000000;stroke-width:0;stroke-miterlimit:4;stroke-dasharray:none;stroke-opacity:1"
         transform="scale(-1,1)"
         inkscape:connector-curvature="0" />
      <path
         id="rect5880"
         d="m 26.64423,10.662096 -3.171232,0.209056 v 1.331921 l 3.171232,-0.209056 z"
         style="opacity:1;fill:#ffffff;fill-opacity:0.98571424;stroke:#000000;stroke-width:0;stroke-miterlimit:4;stroke-dasharray:none;stroke-opacity:1"
         inkscape:connector-curvature="0" />
      <path
         id="rect5882"
         d="m 19.995058,14.667374 h 1.331921 v 3.995762 h -1.331921 z"
         style="opacity:1;fill:#000000;fill-opacity:1;stroke:#000000;stroke-width:0;stroke-miterlimit:4;stroke-dasharray:none;stroke-opacity:1"
         inkscape:connector-curvature="0" />
      <path
         id="rect5884"
         d="m 20.888507,17.21991 2.579094,0.32072 v 1.33192 l -2.579094,-0.32072 z"
         style="opacity:1;fill:#000000;fill-opacity:1;stroke:#000000;stroke-width:0;stroke-miterlimit:4;stroke-dasharray:none;stroke-opacity:1"
         inkscape:connector-curvature="0" />
      <path
         id="rect5886"
         d="m 11.954803,20.011301 h 2.696328 v 2.663842 h -2.696328 z"
         style="opacity:1;fill:#000200;fill-opacity:1;stroke:#000000;stroke-width:0;stroke-miterlimit:4;stroke-dasharray:none;stroke-opacity:1"
         inkscape:connector-curvature="0" />
      <path
         id="rect5888"
         d="m 27.970341,20.011301 h 2.696327 v 2.663842 h -2.696327 z"
         style="opacity:1;fill:#000200;fill-opacity:1;stroke:#000000;stroke-width:0;stroke-miterlimit:4;stroke-dasharray:none;stroke-opacity:1"
         inkscape:connector-curvature="0" />
      <path
         id="rect5890"
         d="m 14.651131,20.011301 h 13.351695 v 1.33192 H 14.651131 Z"
         style="opacity:1;fill:#000200;fill-opacity:1;stroke:#000000;stroke-width:0;stroke-miterlimit:4;stroke-dasharray:none;stroke-opacity:1"
         inkscape:connector-curvature="0" />
    </g>
    <path
       style="fill:#272727;fill-opacity:1;stroke:#666666;stroke-width:0.26300001;stroke-linecap:round;stroke-linejoin:round;stroke-miterlimit:4;stroke-dasharray:none;stroke-opacity:1;paint-order:stroke fill markers"
       d="M 0.56126595,197.843 H 15.154181 v 16.83798 H 0.56126595 Z"
       id="rect1087" />
    <g
       aria-label="goly
penerator"
       style="font-style:normal;font-weight:normal;font-size:10.58333302px;line-height:1.25;font-family:sans-serif;letter-spacing:0px;word-spacing:0px;fill:#fcfcfc;fill-opacity:1;stroke:none;stroke-width:0.26458332"
       id="text1092"
       transform="matrix(0.41379048,0,0,0.48986175,-12.489446,90.192177)">
      <path
         d="m 39.452651,225.91079 q 0,-1.78757 -0.734371,-2.77072 -0.725524,-0.98315 -2.043854,-0.98315 -1.309482,0 -2.043853,0.98315 -0.725524,0.98315 -0.725524,2.77072 0,1.77862 0.725524,2.76177 0.734371,0.98316 2.043853,0.98316 1.31833,0 2.043854,-0.98316 0.734371,-0.98315 0.734371,-2.76177 z m 1.628006,3.879 q 0,2.55622 -1.123677,3.79858 -1.123679,1.25129 -3.441814,1.25129 -0.858243,0 -1.619158,-0.13404 -0.760914,-0.12506 -1.477589,-0.39326 v -1.59987 q 0.716675,0.39328 1.415655,0.58097 0.698979,0.18769 1.424503,0.18769 1.601462,0 2.397768,-0.8491 0.796306,-0.84015 0.796306,-2.54727 v -0.81333 q -0.504326,0.88483 -1.291786,1.32279 -0.787458,0.43794 -1.884592,0.43794 -1.822657,0 -2.937486,-1.40323 -1.114829,-1.40324 -1.114829,-3.71812 0,-2.32382 1.114829,-3.72706 1.114829,-1.40323 2.937486,-1.40323 1.097134,0 1.884592,0.43794 0.78746,0.43795 1.291786,1.32279 v -1.51942 h 1.628006 z"
         style="fill:#fcfcfc;fill-opacity:1;stroke-width:0.45530674"
         id="path1096"
         inkscape:connector-curvature="0" />
      <path
         d="m 47.71447,222.71492 q -1.309481,0 -2.070396,1.03677 -0.760914,1.02785 -0.760914,2.82436 0,1.7965 0.752066,2.83327 0.760916,1.02785 2.079244,1.02785 1.300635,0 2.06155,-1.03679 0.760916,-1.03677 0.760916,-2.82433 0,-1.77863 -0.760916,-2.81542 -0.760915,-1.04571 -2.06155,-1.04571 z m 0,-1.3943 q 2.123485,0 3.335641,1.3943 1.212156,1.39429 1.212156,3.86113 0,2.45789 -1.212156,3.86112 -1.212156,1.39429 -3.335641,1.39429 -2.132331,0 -3.344487,-1.39429 -1.203306,-1.40323 -1.203306,-3.86112 0,-2.46684 1.203306,-3.86113 1.212156,-1.3943 3.344487,-1.3943 z"
         style="stroke-width:0.45530674;fill:#fcfcfc;fill-opacity:1"
         id="path1098"
         inkscape:connector-curvature="0" />
      <path
         d="m 53.193626,217.73257 h 1.628004 v 13.90721 h -1.628004 z"
         style="fill:#fcfcfc;fill-opacity:1;stroke-width:0.45530674"
         id="path1100"
         inkscape:connector-curvature="0" />
      <path
         d="m 62.342303,232.56932 q -0.690133,1.78756 -1.344873,2.33275 -0.654741,0.54522 -1.751875,0.54522 h -1.300634 v -1.37643 h 0.955569 q 0.672436,0 1.044045,-0.32175 0.37161,-0.32177 0.822851,-1.51943 l 0.291979,-0.75079 -4.008076,-9.84944 h 1.725331 l 3.096747,7.82952 3.096747,-7.82952 h 1.725332 z"
         style="fill:#fcfcfc;fill-opacity:1;stroke-width:0.45530674"
         id="path1102"
         inkscape:connector-curvature="0" />
      <path
         d="m 34.049678,246.82094 -0.801115,6.29014 h -0.756401 l 2.085054,-16.37128 h 0.756402 l -0.229275,1.8002 c 0.248007,-0.70597 0.513522,-1.22838 0.796547,-1.56723 0.286651,-0.34593 0.597611,-0.5189 0.932881,-0.5189 0.556058,0 0.934345,0.57184 1.134859,1.71551 0.203242,1.14365 0.18618,2.64736 -0.05118,4.51111 -0.237364,1.86373 -0.603324,3.36743 -1.09788,4.51109 -0.49183,1.14366 -1.015775,1.71549 -1.571831,1.71549 -0.335271,0 -0.602623,-0.16943 -0.802059,-0.50829 -0.195812,-0.34592 -0.327808,-0.87186 -0.395989,-1.57784 z m 3.086827,-4.14045 c 0.182523,-1.43312 0.210998,-2.5556 0.08542,-3.36744 -0.121935,-0.81892 -0.381892,-1.22839 -0.779854,-1.22839 -0.397964,0 -0.763576,0.40947 -1.096838,1.22839 -0.329636,0.81184 -0.585716,1.93432 -0.768239,3.36744 -0.18252,1.4331 -0.212809,2.55911 -0.09086,3.37801 0.125572,0.81187 0.387329,1.2178 0.785291,1.2178 0.397963,0 0.761763,-0.40593 1.091401,-1.2178 0.333262,-0.8189 0.591153,-1.94491 0.773672,-3.37801 z"
         style="fill:#fcfcfc;fill-opacity:1;stroke-width:0.3368969"
         id="path1104"
         inkscape:connector-curvature="0"
         sodipodi:nodetypes="cccccccscscscccccscscsccc" />
      <path
         d="m 42.102058,243.51561 -0.161148,1.05537 -2.716984,-0.12041 c -0.201115,1.4865 -0.252165,2.62547 -0.153145,3.4169 0.102346,0.78373 0.349425,1.18428 0.741236,1.20164 0.226951,0.0101 0.461927,-0.0819 0.704929,-0.27573 0.245141,-0.19377 0.503659,-0.48926 0.775555,-0.88649 l -0.311562,2.04042 c -0.262098,0.31894 -0.517613,0.55948 -0.766545,0.7216 -0.24893,0.16212 -0.48794,0.2381 -0.717031,0.22795 -0.5738,-0.0254 -0.935663,-0.65536 -1.085588,-1.8898 -0.147782,-1.23436 -0.06291,-2.89129 0.25462,-4.97078 0.328274,-2.14986 0.746943,-3.84708 1.256007,-5.09167 0.512399,-1.25233 1.038371,-1.86655 1.577914,-1.84264 0.483876,0.0214 0.778909,0.60908 0.885102,1.76289 0.109528,1.14608 0.01508,2.69633 -0.283341,4.65075 z m -0.494234,-0.65943 c 0.175958,-1.18065 0.228809,-2.12672 0.158549,-2.83818 -0.06813,-0.71137 -0.247787,-1.0735 -0.53897,-1.0864 -0.32972,-0.0146 -0.646066,0.31374 -0.949038,0.98505 -0.300829,0.6714 -0.560535,1.62403 -0.779119,2.8579 z"
         style="fill:#fcfcfc;fill-opacity:1;stroke-width:0.31526539"
         id="path1106"
         inkscape:connector-curvature="0"
         sodipodi:nodetypes="ccccsccccscscscccccsccc" />
      <path
         d="m 46.109588,242.25015 -0.717114,8.31906 h -0.59174 l 0.710747,-8.24521 c 0.112449,-1.30449 0.130142,-2.28079 0.05308,-2.92891 -0.07706,-0.64815 -0.248512,-0.97222 -0.514367,-0.97222 -0.319454,0 -0.604965,0.38971 -0.856534,1.16912 -0.251569,0.77941 -0.435345,1.84185 -0.551327,3.18732 l -0.671499,7.7899 H 42.375883 L 43.564,236.78616 h 0.594956 l -0.184583,2.1413 c 0.212932,-0.82863 0.432486,-1.44805 0.658663,-1.85828 0.22832,-0.41021 0.467903,-0.61531 0.718749,-0.61531 0.41379,0 0.684379,0.49226 0.811767,1.47677 0.128097,0.9763 0.110107,2.41614 -0.05397,4.31951 z"
         style="fill:#fcfcfc;fill-opacity:1;stroke-width:0.32209978"
         id="path1108"
         inkscape:connector-curvature="0"
         sodipodi:nodetypes="cccscscsccccccsccc" />
      <path
         d="m 50.302937,243.1116 -0.09547,1.10755 h -2.72072 c -0.108641,1.55881 -0.08898,2.74841 0.05899,3.56882 0.150814,0.81223 0.422396,1.21835 0.814746,1.21835 0.227263,0 0.456217,-0.10666 0.68686,-0.31999 0.232786,-0.21331 0.472622,-0.53327 0.719507,-0.95989 l -0.184583,2.1413 c -0.241956,0.34457 -0.482201,0.60711 -0.720736,0.78761 -0.238533,0.18049 -0.472503,0.27073 -0.70191,0.27073 -0.574589,0 -0.975024,-0.63992 -1.201306,-1.91976 -0.224137,-1.27986 -0.242147,-3.01095 -0.05403,-5.19327 0.194483,-2.25615 0.507311,-4.04467 0.938484,-5.36554 0.434023,-1.32909 0.921177,-1.99364 1.461462,-1.99364 0.484541,0 0.815616,0.59891 0.993224,1.79673 0.180461,1.18961 0.182294,2.80995 0.0055,4.861 z m -0.534454,-0.66455 c 0.102489,-1.23884 0.09659,-2.22745 -0.0177,-2.96583 -0.112158,-0.73837 -0.314028,-1.10756 -0.605611,-1.10756 -0.330175,0 -0.625721,0.35688 -0.88664,1.07065 -0.258773,0.71376 -0.459038,1.71878 -0.600793,3.01505 z"
         style="fill:#fcfcfc;fill-opacity:1;stroke-width:0.32209978"
         id="path1110"
         inkscape:connector-curvature="0"
         sodipodi:nodetypes="ccccsccccscscscccccsccc" />
      <path
         d="m 53.724139,238.90282 c -0.05374,-0.14764 -0.117442,-0.25429 -0.191107,-0.31996 -0.07081,-0.0739 -0.153388,-0.11083 -0.247724,-0.11083 -0.334461,0 -0.627807,0.4184 -0.880036,1.2552 -0.249381,0.82865 -0.441256,2.02237 -0.575625,3.58115 l -0.625885,7.26073 h -0.594958 l 1.188118,-13.78305 h 0.594957 l -0.184582,2.14129 c 0.196487,-0.83683 0.411754,-1.45626 0.645799,-1.85827 0.23475,-0.4102 0.4947,-0.6153 0.779851,-0.6153 0.04074,0 0.0847,0.0123 0.131887,0.0369 0.0479,0.0164 0.100094,0.0451 0.156581,0.0862 z"
         style="fill:#fcfcfc;fill-opacity:1;stroke-width:0.32209978"
         id="path1112"
         inkscape:connector-curvature="0"
         sodipodi:nodetypes="ccscsccccccsccc" />
      <path
         d="m 55.579774,243.64077 c -0.47811,0 -0.827391,0.20921 -1.047843,0.62763 -0.220448,0.41839 -0.374166,1.13215 -0.461153,2.14127 -0.06931,0.80401 -0.05586,1.44394 0.04033,1.91979 0.09905,0.46763 0.267565,0.70145 0.505548,0.70145 0.32803,0 0.628858,-0.44303 0.902485,-1.32908 0.276477,-0.89426 0.478364,-2.07976 0.605661,-3.55651 l 0.04349,-0.50455 z m 1.260891,-0.93531 -0.677866,7.86375 h -0.591741 l 0.18034,-2.09208 c -0.207207,0.83683 -0.428905,1.45625 -0.665094,1.85825 -0.235481,0.3938 -0.499012,0.5907 -0.790594,0.5907 -0.368766,0 -0.628546,-0.3938 -0.779341,-1.1814 -0.147942,-0.79581 -0.164629,-1.85825 -0.05006,-3.18732 0.133663,-1.5506 0.369513,-2.7197 0.707548,-3.50731 0.340179,-0.78761 0.779339,-1.18141 1.31748,-1.18141 h 0.829724 l 0.01909,-0.22147 c 0.08982,-1.04193 0.06908,-1.84595 -0.06222,-2.41204 -0.128445,-0.57431 -0.354539,-0.86146 -0.678281,-0.86146 -0.205823,0 -0.414418,0.0943 -0.625787,0.28305 -0.21137,0.18871 -0.423368,0.47176 -0.635995,0.84915 l 0.180339,-2.09207 c 0.244124,-0.31996 0.474744,-0.55789 0.691861,-0.71378 0.217822,-0.16407 0.423213,-0.24611 0.616172,-0.24611 0.520989,0 0.865569,0.51686 1.033738,1.55059 0.168169,1.03373 0.161733,2.60073 -0.01931,4.701 z"
         style="fill:#fcfcfc;fill-opacity:1;stroke-width:0.32209978"
         id="path1114"
         inkscape:connector-curvature="0"
         sodipodi:nodetypes="scscscccscccccscccscccsccccsscc" />
      <path
         d="m 58.296736,232.40016 0.861561,4.386 h 1.218857 l -0.151697,1.75979 H 59.0066 l -0.644979,7.48224 c -0.09689,1.12398 -0.119458,1.84594 -0.06771,2.16588 0.05389,0.31997 0.204118,0.47995 0.450673,0.47995 h 0.60782 l -0.163368,1.89519 h -0.60782 c -0.456669,0 -0.743901,-0.32407 -0.861694,-0.97222 -0.117086,-0.65633 -0.101373,-1.84593 0.04714,-3.5688 l 0.644978,-7.48224 h -0.434156 l -0.40779,-1.8273 0.993644,0.0675 -1.341121,-4.31849 z"
         style="fill:#fcfcfc;fill-opacity:1;stroke-width:0.32209978"
         id="path1116"
         inkscape:connector-curvature="0"
         sodipodi:nodetypes="cccccscsccscscccccc" />
      <path
         d="m 62.104116,240.3112 q -0.538689,0 -0.851711,1.03678 -0.313022,1.02785 -0.313022,2.82436 0,1.79648 0.309382,2.83328 0.313023,1.02785 0.855351,1.02785 0.535051,0 0.848072,-1.0368 0.313023,-1.03679 0.313023,-2.82433 0,-1.77864 -0.313023,-2.81542 -0.313021,-1.04572 -0.848072,-1.04572 z m 0,-1.3943 q 0.873551,0 1.372203,1.3943 0.498652,1.3943 0.498652,3.86114 0,2.45789 -0.498652,3.86113 -0.498652,1.39428 -1.372203,1.39428 -0.87719,0 -1.375842,-1.39428 -0.495011,-1.40324 -0.495011,-3.86113 0,-2.46684 0.495011,-3.86114 0.498652,-1.3943 1.375842,-1.3943 z"
         style="stroke-width:0.29202741;fill:#fcfcfc;fill-opacity:1"
         id="path1118"
         inkscape:connector-curvature="0" />
      <path
         d="m 67.443695,240.69552 q -0.112833,-0.16085 -0.247505,-0.23238 -0.131034,-0.0805 -0.291184,-0.0805 -0.567808,0 -0.87355,0.91163 -0.302104,0.90274 -0.302104,2.60091 v 5.27331 H 65.05599 V 239.1582 h 0.673362 v 1.55517 q 0.211109,-0.91166 0.549609,-1.34962 0.338501,-0.44688 0.822594,-0.44688 0.06916,0 0.152871,0.0268 0.08372,0.0179 0.18563,0.0626 z"
         style="stroke-width:0.29202741;fill:#fcfcfc;fill-opacity:1"
         id="path1120"
         inkscape:connector-curvature="0" />
    </g>
    <path
       style="fill:#fcfcfc;fill-opacity:1;stroke:#666666;stroke-width:0.54941285;stroke-linecap:round;stroke-linejoin:round;stroke-miterlimit:4;stroke-dasharray:none;stroke-opacity:1;paint-order:stroke fill markers"
       d="m 1.1353945,240.78695 12.5402735,0.0459 -0.258787,1.37905 -0.365747,12.95368 -11.9157329,-0.0459 z"
       id="rect1127"
       inkscape:connector-curvature="0"
       sodipodi:nodetypes="cccccc" />
  </g>
</svg>
