<?xml version="1.0" encoding="UTF-8" standalone="no"?>
<!-- Created with Inkscape (http://www.inkscape.org/) -->

<svg
   xmlns:dc="http://purl.org/dc/elements/1.1/"
   xmlns:cc="http://creativecommons.org/ns#"
   xmlns:rdf="http://www.w3.org/1999/02/22-rdf-syntax-ns#"
   xmlns:svg="http://www.w3.org/2000/svg"
   xmlns="http://www.w3.org/2000/svg"
   xmlns:sodipodi="http://sodipodi.sourceforge.net/DTD/sodipodi-0.dtd"
   xmlns:inkscape="http://www.inkscape.org/namespaces/inkscape"
   width="90"
   height="380"
   viewBox="0 0 23.812501 100.54167"
   version="1.1"
   id="svg8"
   inkscape:version="0.92.2 5c3e80d, 2017-08-06"
   sodipodi:docname="ComputerscareDebug.svg">
  <defs
     id="defs2" />
  <sodipodi:namedview
     id="base"
     pagecolor="#ffffff"
     bordercolor="#666666"
     borderopacity="1.0"
     inkscape:pageopacity="0.0"
     inkscape:pageshadow="2"
     inkscape:zoom="3.959798"
     inkscape:cx="59.992198"
     inkscape:cy="55.851086"
     inkscape:document-units="mm"
     inkscape:current-layer="layer1"
     showgrid="false"
     units="px"
     inkscape:snap-bbox="true"
     inkscape:snap-page="true"
     inkscape:bbox-nodes="true"
     inkscape:snap-bbox-edge-midpoints="true"
     inkscape:window-width="1440"
     inkscape:window-height="856"
     inkscape:window-x="0"
     inkscape:window-y="0"
     inkscape:window-maximized="0" />
  <metadata
     id="metadata5">
    <rdf:RDF>
      <cc:Work
         rdf:about="">
        <dc:format>image/svg+xml</dc:format>
        <dc:type
           rdf:resource="http://purl.org/dc/dcmitype/StillImage" />
        <dc:title></dc:title>
      </cc:Work>
    </rdf:RDF>
  </metadata>
  <g
     inkscape:label="Layer 1"
     inkscape:groupmode="layer"
     id="layer1"
     transform="translate(0,-196.45832)">
    <path
       style="opacity:1;vector-effect:none;fill:#f0f0f0;fill-opacity:1;fill-rule:evenodd;stroke:none;stroke-width:0.48607069;stroke-linecap:butt;stroke-linejoin:round;stroke-miterlimit:4;stroke-dasharray:none;stroke-dashoffset:0;stroke-opacity:1;paint-order:normal"
       d="M 0,196.45831 H 23.8125 V 296.99999 H 0 Z"
       id="rect817"
       inkscape:connector-curvature="0" />
    <g
       aria-label="My Module"
       style="font-style:normal;font-variant:normal;font-weight:normal;font-stretch:normal;font-size:3.88055563px;line-height:6.61458302px;font-family:DINPro;-inkscape-font-specification:DINPro;font-variant-ligatures:normal;font-variant-caps:normal;font-variant-numeric:normal;font-feature-settings:normal;text-align:center;letter-spacing:0px;word-spacing:0px;writing-mode:lr-tb;text-anchor:middle;fill:#000000;fill-opacity:1;stroke:none;stroke-width:0.26458332px;stroke-linecap:butt;stroke-linejoin:miter;stroke-opacity:1"
       id="text925"
       transform="translate(0,-1.0583333)">
      <path
         d="m 5.3546533,207.98659 v -2.76296 H 5.0597311 l -0.8770056,1.95968 -0.9002889,-1.95968 H 2.9875144 v 2.76296 h 0.2949222 v -2.09938 l 0.76835,1.66476 h 0.2522361 l 0.7567084,-1.66476 v 2.09938 z"
         style="font-size:3.88055563px;text-align:center;text-anchor:middle;stroke-width:0.26458332px"
         id="path956"
         inkscape:connector-curvature="0" />
      <path
         d="M 7.4478493,206.07735 H 7.1451659 l -0.5199944,1.53282 -0.523875,-1.53282 H 5.7986131 l 0.6868584,1.87043 -0.1358195,0.37254 c -0.062089,0.17462 -0.1202972,0.23671 -0.314325,0.23671 H 5.949955 v 0.24835 h 0.120297 c 0.1358195,0 0.2716389,-0.0349 0.3725334,-0.13193 0.054328,-0.0505 0.097014,-0.1203 0.1358194,-0.22508 z"
         style="font-size:3.88055563px;text-align:center;text-anchor:middle;stroke-width:0.26458332px"
         id="path958"
         inkscape:connector-curvature="0" />
      <path
         d="m 11.220962,207.98659 v -2.76296 H 10.92604 l -0.877006,1.95968 -0.9002887,-1.95968 H 8.853823 v 2.76296 h 0.2949223 v -2.09938 l 0.76835,1.66476 h 0.2522357 l 0.756709,-1.66476 v 2.09938 z"
         style="font-size:3.88055563px;text-align:center;text-anchor:middle;stroke-width:0.26458332px"
         id="path960"
         inkscape:connector-curvature="0" />
      <path
         d="m 13.430574,207.03197 c 0,-0.29492 -0.0388,-0.56268 -0.232833,-0.76059 -0.131939,-0.13194 -0.314325,-0.21731 -0.547159,-0.21731 -0.232833,0 -0.415219,0.0854 -0.547158,0.21731 -0.194028,0.19791 -0.232833,0.46567 -0.232833,0.76059 0,0.29492 0.0388,0.56268 0.232833,0.76059 0.131939,0.13194 0.314325,0.21731 0.547158,0.21731 0.232834,0 0.41522,-0.0854 0.547159,-0.21731 0.194028,-0.19791 0.232833,-0.46567 0.232833,-0.76059 z m -0.2794,0 c 0,0.21343 -0.01164,0.45015 -0.151342,0.58985 -0.08925,0.0892 -0.21343,0.1397 -0.34925,0.1397 -0.135819,0 -0.256116,-0.0504 -0.345369,-0.1397 -0.1397,-0.1397 -0.155222,-0.37642 -0.155222,-0.58985 0,-0.21343 0.01552,-0.45014 0.155222,-0.58984 0.08925,-0.0893 0.20955,-0.1397 0.345369,-0.1397 0.13582,0 0.259998,0.0504 0.34925,0.1397 0.1397,0.1397 0.151342,0.37641 0.151342,0.58984 z"
         style="font-size:3.88055563px;text-align:center;text-anchor:middle;stroke-width:0.26458332px"
         id="path962"
         inkscape:connector-curvature="0" />
      <path
         d="m 15.441855,207.98659 v -2.76296 h -0.2794 v 1.07492 c -0.155223,-0.19791 -0.329848,-0.24448 -0.539398,-0.24448 -0.194027,0 -0.364772,0.066 -0.465666,0.16686 -0.194028,0.19403 -0.232834,0.51224 -0.232834,0.81104 0,0.2988 0.03881,0.61701 0.232834,0.81104 0.100894,0.10089 0.271639,0.16686 0.465666,0.16686 0.20955,0 0.388056,-0.0505 0.543278,-0.25224 v 0.22896 z m -0.2794,-0.95462 c 0,0.37253 -0.06209,0.72955 -0.477309,0.72955 -0.415219,0 -0.481189,-0.35702 -0.481189,-0.72955 0,-0.37253 0.06597,-0.72954 0.481189,-0.72954 0.41522,0 0.477309,0.35701 0.477309,0.72954 z"
         style="font-size:3.88055563px;text-align:center;text-anchor:middle;stroke-width:0.26458332px"
         id="path964"
         inkscape:connector-curvature="0" />
      <path
         d="m 17.622423,207.98659 v -1.90924 h -0.2794 v 1.17581 c 0,0.33373 -0.190147,0.50836 -0.477308,0.50836 -0.287161,0 -0.465667,-0.17075 -0.465667,-0.50836 v -1.17581 h -0.2794 v 1.2185 c 0,0.22119 0.05821,0.40358 0.194028,0.53552 0.116417,0.11641 0.287161,0.1785 0.492831,0.1785 0.21343,0 0.403577,-0.0815 0.539397,-0.23671 v 0.21343 z"
         style="font-size:3.88055563px;text-align:center;text-anchor:middle;stroke-width:0.26458332px"
         id="path966"
         inkscape:connector-curvature="0" />
      <path
         d="m 19.001961,207.98659 v -0.2406 h -0.151342 c -0.194028,0 -0.256116,-0.0931 -0.256116,-0.2794 v -2.24296 h -0.2794 v 2.2546 c 0,0.29105 0.151341,0.50836 0.485069,0.50836 z"
         style="font-size:3.88055563px;text-align:center;text-anchor:middle;stroke-width:0.26458332px"
         id="path968"
         inkscape:connector-curvature="0" />
      <path
         d="m 20.839343,207.1057 v -0.12806 c 0,-0.56656 -0.291042,-0.92357 -0.783872,-0.92357 -0.48507,0 -0.783873,0.36089 -0.783873,0.9779 0,0.67522 0.329848,0.9779 0.83432,0.9779 0.325967,0 0.504472,-0.10089 0.6985,-0.29492 l -0.190147,-0.16687 c -0.151342,0.15135 -0.2794,0.21732 -0.500592,0.21732 -0.364772,0 -0.562681,-0.2406 -0.562681,-0.6597 z m -0.2794,-0.20955 h -1.008945 c 0.0078,-0.15522 0.01552,-0.21343 0.05821,-0.3182 0.07373,-0.17463 0.244475,-0.28717 0.446264,-0.28717 0.201789,0 0.372533,0.11254 0.446264,0.28717 0.04269,0.10477 0.05045,0.16298 0.05821,0.3182 z"
         style="font-size:3.88055563px;text-align:center;text-anchor:middle;stroke-width:0.26458332px"
         id="path970"
         inkscape:connector-curvature="0" />
    </g>
    <text
       xml:space="preserve"
       style="font-style:normal;font-weight:normal;font-size:10.58333302px;line-height:1.25;font-family:sans-serif;letter-spacing:0px;word-spacing:0px;fill:#000000;fill-opacity:1;stroke:none;stroke-width:0.26458332"
       x="8.2147436"
       y="295.57718"
       id="text1490"
       transform="rotate(1.4468834)"><tspan
         sodipodi:role="line"
         id="tspan1488"
         x="8.2147436"
         y="295.57718"
         style="font-style:normal;font-variant:normal;font-weight:normal;font-stretch:normal;font-size:2.82222223px;font-family:sans-serif;-inkscape-font-specification:'sans-serif, Normal';font-variant-ligatures:normal;font-variant-caps:normal;font-variant-numeric:normal;font-feature-settings:normal;text-align:start;writing-mode:lr-tb;text-anchor:start;stroke-width:0.26458332">computerscare</tspan></text>
    <text
       transform="rotate(-5.9989835)"
       id="text1494"
       y="290.12317"
       x="-30.542538"
       style="font-style:normal;font-weight:normal;font-size:10.58333302px;line-height:1.25;font-family:sans-serif;letter-spacing:0px;word-spacing:0px;fill:#000000;fill-opacity:1;stroke:none;stroke-width:0.26458332"
       xml:space="preserve"><tspan
         style="font-style:normal;font-variant:normal;font-weight:normal;font-stretch:normal;font-size:2.82222223px;font-family:sans-serif;-inkscape-font-specification:'sans-serif, Normal';font-variant-ligatures:normal;font-variant-caps:normal;font-variant-numeric:normal;font-feature-settings:normal;text-align:start;writing-mode:lr-tb;text-anchor:start;stroke-width:0.26458332"
         y="290.12317"
         x="-30.542538"
         id="tspan1492"
         sodipodi:role="line">trg</tspan></text>
    <text
       xml:space="preserve"
       style="font-style:normal;font-weight:normal;font-size:10.58333302px;line-height:1.25;font-family:sans-serif;letter-spacing:0px;word-spacing:0px;fill:#000000;fill-opacity:1;stroke:none;stroke-width:0.26458332"
       x="15.240357"
       y="291.13333"
       id="text1498"
       transform="rotate(1.9714728)"><tspan
         sodipodi:role="line"
         id="tspan1496"
         x="15.240357"
         y="291.13333"
         style="font-style:normal;font-variant:normal;font-weight:normal;font-stretch:normal;font-size:2.82222223px;font-family:sans-serif;-inkscape-font-specification:'sans-serif, Normal';font-variant-ligatures:normal;font-variant-caps:normal;font-variant-numeric:normal;font-feature-settings:normal;text-align:start;writing-mode:lr-tb;text-anchor:start;stroke-width:0.26458332">in</tspan></text>
  </g>
</svg>
