<?xml version="1.0" encoding="UTF-8" standalone="no"?>
<!-- Created with Inkscape (http://www.inkscape.org/) -->

<svg
   xmlns:dc="http://purl.org/dc/elements/1.1/"
   xmlns:cc="http://creativecommons.org/ns#"
   xmlns:rdf="http://www.w3.org/1999/02/22-rdf-syntax-ns#"
   xmlns:svg="http://www.w3.org/2000/svg"
   xmlns="http://www.w3.org/2000/svg"
   xmlns:sodipodi="http://sodipodi.sourceforge.net/DTD/sodipodi-0.dtd"
   xmlns:inkscape="http://www.inkscape.org/namespaces/inkscape"
   width="90"
   height="380"
   viewBox="0 0 23.812501 100.54167"
   version="1.1"
   id="svg8"
   inkscape:version="0.92.2 5c3e80d, 2017-08-06"
   sodipodi:docname="ComputerscareDebugVectorGradient.svg"
   enable-background="new">
  <defs
     id="defs2">
    <inkscape:perspective
       sodipodi:type="inkscape:persp3d"
       inkscape:vp_x="0 : 50.270835 : 1"
       inkscape:vp_y="0 : 1000 : 0"
       inkscape:vp_z="23.812501 : 50.270835 : 1"
       inkscape:persp3d-origin="11.906251 : 33.51389 : 1"
       id="perspective1881" />
  </defs>
  <sodipodi:namedview
     id="base"
     pagecolor="#ffffff"
     bordercolor="#666666"
     borderopacity="1.0"
     inkscape:pageopacity="0.0"
     inkscape:pageshadow="2"
     inkscape:zoom="1.4142136"
     inkscape:cx="44.352801"
     inkscape:cy="175.49565"
     inkscape:document-units="mm"
     inkscape:current-layer="g1669"
     showgrid="false"
     units="px"
     inkscape:snap-bbox="true"
     inkscape:snap-page="true"
     inkscape:bbox-nodes="true"
     inkscape:snap-bbox-edge-midpoints="true"
     inkscape:window-width="1440"
     inkscape:window-height="856"
     inkscape:window-x="0"
     inkscape:window-y="0"
     inkscape:window-maximized="0" />
  <metadata
     id="metadata5">
    <rdf:RDF>
      <cc:Work
         rdf:about="">
        <dc:format>image/svg+xml</dc:format>
        <dc:type
           rdf:resource="http://purl.org/dc/dcmitype/StillImage" />
        <dc:title></dc:title>
      </cc:Work>
    </rdf:RDF>
  </metadata>
  <g
     inkscape:label="Layer 1"
     inkscape:groupmode="layer"
     id="layer1"
     transform="translate(0,-196.45832)"
     style="display:none">
    <path
       style="opacity:1;vector-effect:none;fill:#f0f0f0;fill-opacity:1;fill-rule:evenodd;stroke:none;stroke-width:0.48607069;stroke-linecap:butt;stroke-linejoin:round;stroke-miterlimit:4;stroke-dasharray:none;stroke-dashoffset:0;stroke-opacity:1;paint-order:normal"
       d="M 0,196.45831 H 23.8125 V 296.99999 H 0 Z"
       id="rect817"
       inkscape:connector-curvature="0" />
    <text
       xml:space="preserve"
       style="font-style:normal;font-weight:normal;font-size:10.58333302px;line-height:1.25;font-family:sans-serif;letter-spacing:0px;word-spacing:0px;fill:#000000;fill-opacity:1;stroke:none;stroke-width:0.26458332"
       x="8.2147436"
       y="295.57718"
       id="text1490"
       transform="rotate(1.4468834)"><tspan
         sodipodi:role="line"
         id="tspan1488"
         x="8.2147436"
         y="295.57718"
         style="font-style:normal;font-variant:normal;font-weight:normal;font-stretch:normal;font-size:2.82222223px;font-family:sans-serif;-inkscape-font-specification:'sans-serif, Normal';font-variant-ligatures:normal;font-variant-caps:normal;font-variant-numeric:normal;font-feature-settings:normal;text-align:start;writing-mode:lr-tb;text-anchor:start;stroke-width:0.26458332">computerscare</tspan></text>
    <text
       transform="rotate(-5.9989835)"
       id="text1494"
       y="288.0314"
       x="-28.710276"
       style="font-style:normal;font-weight:normal;font-size:10.58333302px;line-height:1.25;font-family:sans-serif;letter-spacing:0px;word-spacing:0px;fill:#000000;fill-opacity:1;stroke:none;stroke-width:0.26458332"
       xml:space="preserve"><tspan
         style="font-style:normal;font-variant:normal;font-weight:normal;font-stretch:normal;font-size:2.82222223px;font-family:sans-serif;-inkscape-font-specification:'sans-serif, Normal';font-variant-ligatures:normal;font-variant-caps:normal;font-variant-numeric:normal;font-feature-settings:normal;text-align:start;writing-mode:lr-tb;text-anchor:start;stroke-width:0.26458332"
         y="288.0314"
         x="-28.710276"
         id="tspan1492"
         sodipodi:role="line">trg</tspan></text>
    <text
       xml:space="preserve"
       style="font-style:normal;font-weight:normal;font-size:10.58333302px;line-height:1.25;font-family:sans-serif;letter-spacing:0px;word-spacing:0px;fill:#000000;fill-opacity:1;stroke:none;stroke-width:0.26458332"
       x="20.711658"
       y="288.87244"
       id="text1498"
       transform="rotate(1.9714728)"><tspan
         sodipodi:role="line"
         id="tspan1496"
         x="20.711658"
         y="288.87244"
         style="font-style:normal;font-variant:normal;font-weight:normal;font-stretch:normal;font-size:2.82222223px;font-family:sans-serif;-inkscape-font-specification:'sans-serif, Normal';font-variant-ligatures:normal;font-variant-caps:normal;font-variant-numeric:normal;font-feature-settings:normal;text-align:start;writing-mode:lr-tb;text-anchor:start;stroke-width:0.26458332">in</tspan></text>
    <text
       transform="rotate(0.49746114)"
       id="text1521"
       y="289.16214"
       x="20.314623"
       style="font-style:normal;font-weight:normal;font-size:10.58333302px;line-height:1.25;font-family:sans-serif;letter-spacing:0px;word-spacing:0px;fill:#000000;fill-opacity:1;stroke:none;stroke-width:0.26458332"
       xml:space="preserve"><tspan
         style="font-style:normal;font-variant:normal;font-weight:normal;font-stretch:normal;font-size:3.17499995px;font-family:sans-serif;-inkscape-font-specification:'sans-serif, Normal';font-variant-ligatures:normal;font-variant-caps:normal;font-variant-numeric:normal;font-feature-settings:normal;text-align:start;writing-mode:lr-tb;text-anchor:start;stroke-width:0.26458332"
         y="289.16214"
         x="20.314623"
         id="tspan1519"
         sodipodi:role="line">clr</tspan></text>
    <text
       transform="matrix(1.0139335,-0.02825079,0.06854811,0.98434808,0,0)"
       id="text1645"
       y="204.61243"
       x="-10.296249"
       style="font-style:normal;font-weight:normal;font-size:10.74719143px;line-height:1.25;font-family:sans-serif;letter-spacing:0px;word-spacing:0px;fill:#000000;fill-opacity:1;stroke:none;stroke-width:0.26867977"
       xml:space="preserve"><tspan
         style="font-style:normal;font-variant:normal;font-weight:normal;font-stretch:normal;font-size:5.01535606px;font-family:sans-serif;-inkscape-font-specification:'sans-serif, Normal';font-variant-ligatures:normal;font-variant-caps:normal;font-variant-numeric:normal;font-feature-settings:normal;text-align:start;writing-mode:lr-tb;text-anchor:start;stroke-width:0.26867977"
         y="204.61243"
         x="-10.296249"
         id="tspan1643"
         sodipodi:role="line">debug</tspan></text>
  </g>
  <g
     inkscape:groupmode="layer"
     id="layer3"
     inkscape:label="bg" />
  <g
     style="display:inline"
     transform="translate(0,-196.45832)"
     id="g1669"
     inkscape:groupmode="layer"
     inkscape:label="Layer 1 copy">
    <path
       inkscape:connector-curvature="0"
       id="path1647"
       d="M 0,196.45831 H 23.8125 V 296.99999 H 0 Z"
       style="opacity:1;vector-effect:none;fill:#f9f9f9;fill-opacity:1;fill-rule:evenodd;stroke:none;stroke-width:0.48607069;stroke-linecap:butt;stroke-linejoin:round;stroke-miterlimit:4;stroke-dasharray:none;stroke-dashoffset:0;stroke-opacity:1;paint-order:normal" />
    <g
       aria-label="computerscare"
       transform="rotate(1.4468834)"
       style="font-style:normal;font-weight:normal;font-size:10.58333302px;line-height:1.25;font-family:sans-serif;letter-spacing:0px;word-spacing:0px;fill:#000000;fill-opacity:1;stroke:none;stroke-width:0.26458332"
       id="text1651">
      <path
         d="m 9.6564066,294.11837 -0.022491,0.23707 q -0.1028223,-0.0489 -0.2099211,-0.0673 -0.1055806,-0.0199 -0.2168506,-0.009 -0.2488775,0.0238 -0.4014201,0.19401 -0.1524199,0.16888 -0.1792271,0.45145 -0.026804,0.28254 0.095932,0.42654 0.1228661,0.14262 0.371738,0.11887 0.1112317,-0.0106 0.2224055,-0.0498 0.1127112,-0.0408 0.2267849,-0.11044 l -0.022229,0.23431 q -0.111772,0.0599 -0.2295122,0.0956 -0.1163563,0.0357 -0.2456588,0.048 -0.3517468,0.0335 -0.5381239,-0.16582 -0.1863704,-0.19938 -0.1510635,-0.57153 0.035829,-0.37767 0.2649098,-0.61397 0.2304697,-0.23642 0.5947391,-0.27118 0.1181718,-0.0112 0.2283935,0.003 0.110394,0.0127 0.2114822,0.0509 z"
         style="font-style:normal;font-variant:normal;font-weight:normal;font-stretch:normal;font-size:2.82222223px;font-family:sans-serif;-inkscape-font-specification:'sans-serif, Normal';font-variant-ligatures:normal;font-variant-caps:normal;font-variant-numeric:normal;font-feature-settings:normal;text-align:start;writing-mode:lr-tb;text-anchor:start;stroke-width:0.26458332"
         id="path1701"
         inkscape:connector-curvature="0" />
      <path
         d="m 10.696255,294.13661 q -0.205776,0.0197 -0.340506,0.19093 -0.134608,0.16992 -0.160888,0.44696 -0.02628,0.27705 0.07673,0.42565 0.104532,0.1471 0.311691,0.12734 0.204372,-0.0195 0.339118,-0.1908 0.134737,-0.1713 0.160888,-0.44696 0.02602,-0.27428 -0.07838,-0.42277 -0.10427,-0.14986 -0.308651,-0.13035 z m 0.0204,-0.21501 q 0.333675,-0.0318 0.503758,0.16499 0.170076,0.19686 0.133987,0.57727 -0.03596,0.37905 -0.246966,0.61361 -0.210875,0.23319 -0.544555,0.26503 -0.335078,0.032 -0.505151,-0.16486 -0.1685548,-0.19836 -0.1325956,-0.5774 0.036091,-0.38042 0.2455756,-0.61348 0.210875,-0.23319 0.545947,-0.26516 z"
         style="font-style:normal;font-variant:normal;font-weight:normal;font-stretch:normal;font-size:2.82222223px;font-family:sans-serif;-inkscape-font-specification:'sans-serif, Normal';font-variant-ligatures:normal;font-variant-caps:normal;font-variant-numeric:normal;font-feature-settings:normal;text-align:start;writing-mode:lr-tb;text-anchor:start;stroke-width:0.26458332"
         id="path1703"
         inkscape:connector-curvature="0" />
      <path
         d="m 12.962085,294.33005 q 0.09508,-0.17087 0.227376,-0.25218 0.132292,-0.0813 0.311437,-0.0813 0.241157,0 0.37207,0.1695 0.130914,0.16812 0.130914,0.47956 v 0.93155 h -0.254937 v -0.92329 q 0,-0.22186 -0.07855,-0.32935 -0.07855,-0.10748 -0.239779,-0.10748 -0.197059,0 -0.311437,0.13091 -0.114377,0.13091 -0.114377,0.35691 v 0.8723 h -0.254937 v -0.92329 q 0,-0.22324 -0.07855,-0.32935 -0.07855,-0.10748 -0.242535,-0.10748 -0.194303,0 -0.30868,0.13229 -0.114377,0.13091 -0.114377,0.35553 v 0.8723 H 11.75079 v -1.5434 h 0.254937 v 0.23977 q 0.08682,-0.14193 0.208083,-0.20946 0.121268,-0.0675 0.28801,-0.0675 0.168121,0 0.285254,0.0854 0.118512,0.0854 0.175011,0.24804 z"
         style="font-style:normal;font-variant:normal;font-weight:normal;font-stretch:normal;font-size:2.82222223px;font-family:sans-serif;-inkscape-font-specification:'sans-serif, Normal';font-variant-ligatures:normal;font-variant-caps:normal;font-variant-numeric:normal;font-feature-settings:normal;text-align:start;writing-mode:lr-tb;text-anchor:start;stroke-width:0.26458332"
         id="path1705"
         inkscape:connector-curvature="0" />
      <path
         d="m 14.756291,295.34567 v 0.81855 h -0.254937 v -2.13044 h 0.254937 v 0.23426 q 0.07993,-0.1378 0.201194,-0.20395 0.122645,-0.0675 0.292144,-0.0675 0.28112,0 0.45613,0.22324 0.176389,0.22324 0.176389,0.58705 0,0.3638 -0.176389,0.58704 -0.17501,0.22324 -0.45613,0.22324 -0.169499,0 -0.292144,-0.0661 -0.121268,-0.0675 -0.201194,-0.20533 z m 0.862652,-0.53881 q 0,-0.27975 -0.115755,-0.43822 -0.114377,-0.15985 -0.315571,-0.15985 -0.201193,0 -0.316949,0.15985 -0.114377,0.15847 -0.114377,0.43822 0,0.27974 0.114377,0.43959 0.115756,0.15847 0.316949,0.15847 0.201194,0 0.315571,-0.15847 0.115755,-0.15985 0.115755,-0.43959 z"
         style="font-style:normal;font-variant:normal;font-weight:normal;font-stretch:normal;font-size:2.82222223px;font-family:sans-serif;-inkscape-font-specification:'sans-serif, Normal';font-variant-ligatures:normal;font-variant-caps:normal;font-variant-numeric:normal;font-feature-settings:normal;text-align:start;writing-mode:lr-tb;text-anchor:start;stroke-width:0.26458332"
         id="path1707"
         inkscape:connector-curvature="0" />
      <path
         d="m 16.276267,294.96809 v -0.93431 h 0.253559 v 0.92466 q 0,0.21911 0.08544,0.32935 0.08544,0.10887 0.256315,0.10887 0.205327,0 0.323839,-0.13092 0.119889,-0.13091 0.119889,-0.35691 v -0.87505 h 0.253559 v 1.5434 h -0.253559 v -0.23702 q -0.09233,0.14056 -0.214974,0.20946 -0.121267,0.0675 -0.282498,0.0675 -0.265961,0 -0.403765,-0.16536 -0.137804,-0.16537 -0.137804,-0.48369 z"
         style="font-style:normal;font-variant:normal;font-weight:normal;font-stretch:normal;font-size:2.82222223px;font-family:sans-serif;-inkscape-font-specification:'sans-serif, Normal';font-variant-ligatures:normal;font-variant-caps:normal;font-variant-numeric:normal;font-feature-settings:normal;text-align:start;writing-mode:lr-tb;text-anchor:start;stroke-width:0.26458332"
         id="path1709"
         inkscape:connector-curvature="0" />
      <path
         d="m 18.344702,293.59556 v 0.43822 h 0.522277 v 0.19706 h -0.522277 v 0.83784 q 0,0.18879 0.05099,0.24254 0.05237,0.0537 0.21084,0.0537 h 0.260449 v 0.21222 H 18.60653 q -0.293522,0 -0.405144,-0.10887 -0.111621,-0.11024 -0.111621,-0.39963 V 294.2308 H 17.90373 v -0.19706 h 0.186035 v -0.43822 z"
         style="font-style:normal;font-variant:normal;font-weight:normal;font-stretch:normal;font-size:2.82222223px;font-family:sans-serif;-inkscape-font-specification:'sans-serif, Normal';font-variant-ligatures:normal;font-variant-caps:normal;font-variant-numeric:normal;font-feature-settings:normal;text-align:start;writing-mode:lr-tb;text-anchor:start;stroke-width:0.26458332"
         id="path1711"
         inkscape:connector-curvature="0" />
      <path
         d="m 20.522003,294.74209 v 0.12402 h -1.165821 q 0.01654,0.26183 0.157097,0.39963 0.141938,0.13643 0.394119,0.13643 0.146072,0 0.282497,-0.0358 0.137804,-0.0358 0.272852,-0.10749 v 0.23978 q -0.136426,0.0579 -0.279742,0.0882 -0.143316,0.0303 -0.290766,0.0303 -0.369314,0 -0.585666,-0.21497 -0.214974,-0.21498 -0.214974,-0.58153 0,-0.37896 0.20395,-0.60083 0.205327,-0.22324 0.552593,-0.22324 0.311437,0 0.49196,0.20119 0.181901,0.19982 0.181901,0.54433 z m -0.253559,-0.0744 q -0.0028,-0.20808 -0.117134,-0.3321 -0.112999,-0.12403 -0.300412,-0.12403 -0.212218,0 -0.340375,0.11989 -0.12678,0.11989 -0.146072,0.33762 z"
         style="font-style:normal;font-variant:normal;font-weight:normal;font-stretch:normal;font-size:2.82222223px;font-family:sans-serif;-inkscape-font-specification:'sans-serif, Normal';font-variant-ligatures:normal;font-variant-caps:normal;font-variant-numeric:normal;font-feature-settings:normal;text-align:start;writing-mode:lr-tb;text-anchor:start;stroke-width:0.26458332"
         id="path1713"
         inkscape:connector-curvature="0" />
      <path
         d="m 21.832517,294.2708 q -0.04272,-0.0248 -0.09371,-0.0358 -0.04961,-0.0124 -0.110243,-0.0124 -0.214974,0 -0.330729,0.14056 -0.114377,0.13918 -0.114377,0.40101 v 0.81304 h -0.254937 v -1.5434 h 0.254937 v 0.23977 q 0.07993,-0.14056 0.208084,-0.20808 0.128157,-0.0689 0.311436,-0.0689 0.02618,0 0.05788,0.004 0.03169,0.003 0.07028,0.01 z"
         style="font-style:normal;font-variant:normal;font-weight:normal;font-stretch:normal;font-size:2.82222223px;font-family:sans-serif;-inkscape-font-specification:'sans-serif, Normal';font-variant-ligatures:normal;font-variant-caps:normal;font-variant-numeric:normal;font-feature-settings:normal;text-align:start;writing-mode:lr-tb;text-anchor:start;stroke-width:0.26458332"
         id="path1715"
         inkscape:connector-curvature="0" />
      <path
         d="m 23.185447,294.16269 -0.03488,0.23723 q -0.09833,-0.0702 -0.208837,-0.11429 -0.110508,-0.0442 -0.233212,-0.0622 -0.186783,-0.0275 -0.289279,0.016 -0.101136,0.0437 -0.117973,0.15816 -0.01283,0.0873 0.04655,0.14753 0.05959,0.0589 0.254751,0.13358 l 0.08309,0.0317 q 0.258799,0.0966 0.355164,0.21797 0.09793,0.12025 0.07046,0.30705 -0.03127,0.21268 -0.218575,0.31189 -0.185938,0.0994 -0.480428,0.0561 -0.122703,-0.018 -0.252707,-0.0622 -0.128844,-0.0426 -0.269062,-0.11204 l 0.03809,-0.25904 q 0.128445,0.0927 0.258001,0.14937 0.129765,0.0553 0.262013,0.0747 0.17724,0.0261 0.281492,-0.0199 0.104454,-0.0473 0.120693,-0.15775 0.01504,-0.10226 -0.04648,-0.16702 -0.06015,-0.0645 -0.285871,-0.14928 l -0.08424,-0.0333 q -0.225922,-0.0833 -0.314703,-0.19949 -0.08858,-0.11748 -0.06252,-0.29473 0.03167,-0.21541 0.201614,-0.31021 0.169938,-0.0948 0.450794,-0.0535 0.139065,0.0204 0.258757,0.059 0.119693,0.0385 0.217301,0.0946 z"
         style="font-style:normal;font-variant:normal;font-weight:normal;font-stretch:normal;font-size:2.82222223px;font-family:sans-serif;-inkscape-font-specification:'sans-serif, Normal';font-variant-ligatures:normal;font-variant-caps:normal;font-variant-numeric:normal;font-feature-settings:normal;text-align:start;writing-mode:lr-tb;text-anchor:start;stroke-width:0.26458332"
         id="path1717"
         inkscape:connector-curvature="0" />
      <path
         d="m 24.683678,294.09303 v 0.23702 q -0.107487,-0.0593 -0.216352,-0.0882 -0.107487,-0.0303 -0.21773,-0.0303 -0.246668,0 -0.383094,0.1571 -0.136426,0.15572 -0.136426,0.43822 0,0.28249 0.136426,0.43959 0.136426,0.15572 0.383094,0.15572 0.110243,0 0.21773,-0.0289 0.108865,-0.0303 0.216352,-0.0896 v 0.23426 q -0.106108,0.0496 -0.220486,0.0744 -0.112999,0.0248 -0.241156,0.0248 -0.348644,0 -0.553972,-0.21911 -0.205327,-0.2191 -0.205327,-0.59117 0,-0.37759 0.206705,-0.59394 0.208084,-0.21635 0.56913,-0.21635 0.117133,0 0.228754,0.0248 0.111622,0.0234 0.216352,0.0717 z"
         style="font-style:normal;font-variant:normal;font-weight:normal;font-stretch:normal;font-size:2.82222223px;font-family:sans-serif;-inkscape-font-specification:'sans-serif, Normal';font-variant-ligatures:normal;font-variant-caps:normal;font-variant-numeric:normal;font-feature-settings:normal;text-align:start;writing-mode:lr-tb;text-anchor:start;stroke-width:0.26458332"
         id="path1719"
         inkscape:connector-curvature="0" />
      <path
         d="m 25.828828,294.80134 q -0.307302,0 -0.425814,0.0703 -0.118511,0.0703 -0.118511,0.23978 0,0.13505 0.08819,0.21498 0.08957,0.0785 0.242534,0.0785 0.21084,0 0.33762,-0.14882 0.128157,-0.15021 0.128157,-0.39826 v -0.0565 z m 0.50574,-0.10473 v 0.88057 h -0.253559 v -0.23427 q -0.08682,0.14056 -0.216352,0.20809 -0.129535,0.0661 -0.316949,0.0661 -0.237022,0 -0.377582,-0.13229 -0.139182,-0.13367 -0.139182,-0.35691 0,-0.26045 0.173633,-0.39274 0.175011,-0.13229 0.520898,-0.13229 h 0.355534 v -0.0248 q 0,-0.17501 -0.115755,-0.27009 -0.114377,-0.0965 -0.322461,-0.0965 -0.132292,0 -0.257693,0.0317 -0.125402,0.0317 -0.241157,0.0951 v -0.23426 q 0.139182,-0.0537 0.270096,-0.0799 0.130913,-0.0276 0.254937,-0.0276 0.334863,0 0.500228,0.17363 0.165364,0.17363 0.165364,0.52641 z"
         style="font-style:normal;font-variant:normal;font-weight:normal;font-stretch:normal;font-size:2.82222223px;font-family:sans-serif;-inkscape-font-specification:'sans-serif, Normal';font-variant-ligatures:normal;font-variant-caps:normal;font-variant-numeric:normal;font-feature-settings:normal;text-align:start;writing-mode:lr-tb;text-anchor:start;stroke-width:0.26458332"
         id="path1721"
         inkscape:connector-curvature="0" />
      <path
         d="m 27.750508,294.18919 q -0.04276,-0.0264 -0.09377,-0.0382 -0.04963,-0.0133 -0.110268,-0.0134 -0.214982,-3.4e-4 -0.330517,0.14893 -0.114161,0.1478 -0.113742,0.42619 l 0.0013,0.86448 -0.254947,-4.1e-4 -0.0025,-1.64104 0.254948,4.1e-4 3.83e-4,0.25494 q 0.07971,-0.14933 0.20776,-0.22092 0.128053,-0.0731 0.311339,-0.0728 0.02618,4e-5 0.05789,0.004 0.03171,0.003 0.0703,0.0107 z"
         style="font-style:normal;font-variant:normal;font-weight:normal;font-stretch:normal;font-size:2.82222223px;font-family:sans-serif;-inkscape-font-specification:'sans-serif, Normal';font-variant-ligatures:normal;font-variant-caps:normal;font-variant-numeric:normal;font-feature-settings:normal;text-align:start;writing-mode:lr-tb;text-anchor:start;stroke-width:0.27282965"
         id="path1723"
         inkscape:connector-curvature="0" />
      <path
         d="m 29.28357,294.74209 v 0.12402 h -1.165821 q 0.01654,0.26183 0.157097,0.39963 0.141938,0.13643 0.394119,0.13643 0.146072,0 0.282498,-0.0358 0.137803,-0.0358 0.272851,-0.10749 v 0.23978 q -0.136426,0.0579 -0.279742,0.0882 -0.143316,0.0303 -0.290766,0.0303 -0.369314,0 -0.585666,-0.21497 -0.214974,-0.21498 -0.214974,-0.58153 0,-0.37896 0.20395,-0.60083 0.205327,-0.22324 0.552593,-0.22324 0.311437,0 0.49196,0.20119 0.181901,0.19982 0.181901,0.54433 z m -0.253559,-0.0744 q -0.0028,-0.20808 -0.117134,-0.3321 -0.112999,-0.12403 -0.300412,-0.12403 -0.212218,0 -0.340375,0.11989 -0.12678,0.11989 -0.146072,0.33762 z"
         style="font-style:normal;font-variant:normal;font-weight:normal;font-stretch:normal;font-size:2.82222223px;font-family:sans-serif;-inkscape-font-specification:'sans-serif, Normal';font-variant-ligatures:normal;font-variant-caps:normal;font-variant-numeric:normal;font-feature-settings:normal;text-align:start;writing-mode:lr-tb;text-anchor:start;stroke-width:0.26458332"
         id="path1725"
         inkscape:connector-curvature="0" />
    </g>
    <g
       aria-label="trg"
       transform="rotate(-5.9989835,-64.42517,-5.2329589)"
       style="font-style:normal;font-weight:normal;font-size:10.58333302px;line-height:1.25;font-family:sans-serif;letter-spacing:0px;word-spacing:0px;fill:#200000;fill-opacity:1;stroke:none;stroke-width:0.26458332"
       id="text1655"
       inkscape:transform-center-x="0.93544338">
      <path
         d="m -28.193511,286.04978 v 0.43822 h 0.522276 v 0.19706 h -0.522276 v 0.83785 q 0,0.18879 0.05099,0.24253 0.05237,0.0537 0.21084,0.0537 h 0.260449 v 0.21222 h -0.260449 q -0.293522,0 -0.405143,-0.10886 -0.111621,-0.11025 -0.111621,-0.39963 v -0.83785 h -0.186036 V 286.488 h 0.186036 v -0.43822 z"
         style="font-style:normal;font-variant:normal;font-weight:normal;font-stretch:normal;font-size:2.82222223px;font-family:sans-serif;-inkscape-font-specification:'sans-serif, Normal';font-variant-ligatures:normal;font-variant-caps:normal;font-variant-numeric:normal;font-feature-settings:normal;text-align:start;writing-mode:lr-tb;text-anchor:start;fill:#200000;fill-opacity:1;stroke-width:0.26458332"
         id="path1694"
         inkscape:connector-curvature="0" />
      <path
         d="m -26.442025,286.72502 q -0.04272,-0.0248 -0.09371,-0.0358 -0.04961,-0.0124 -0.110243,-0.0124 -0.214974,0 -0.33073,0.14056 -0.114377,0.13918 -0.114377,0.40101 v 0.81304 h -0.254937 v -1.5434 h 0.254937 v 0.23978 q 0.07993,-0.14056 0.208084,-0.20809 0.128158,-0.0689 0.311437,-0.0689 0.02618,0 0.05788,0.004 0.03169,0.003 0.07028,0.01 z"
         style="font-style:normal;font-variant:normal;font-weight:normal;font-stretch:normal;font-size:2.82222223px;font-family:sans-serif;-inkscape-font-specification:'sans-serif, Normal';font-variant-ligatures:normal;font-variant-caps:normal;font-variant-numeric:normal;font-feature-settings:normal;text-align:start;writing-mode:lr-tb;text-anchor:start;fill:#200000;fill-opacity:1;stroke-width:0.26458332"
         id="path1696"
         inkscape:connector-curvature="0" />
      <path
         d="m -25.204546,287.24179 q 0,-0.27561 -0.114378,-0.4272 -0.112999,-0.15158 -0.318326,-0.15158 -0.20395,0 -0.318327,0.15158 -0.112999,0.15159 -0.112999,0.4272 0,0.27423 0.112999,0.42581 0.114377,0.15158 0.318327,0.15158 0.205327,0 0.318326,-0.15158 0.114378,-0.15158 0.114378,-0.42581 z m 0.253559,0.59807 q 0,0.39411 -0.175011,0.58566 -0.175011,0.19293 -0.536057,0.19293 -0.13367,0 -0.252181,-0.0207 -0.118511,-0.0193 -0.230132,-0.0606 v -0.24667 q 0.111621,0.0606 0.220486,0.0896 0.108865,0.0289 0.221864,0.0289 0.249425,0 0.373448,-0.13092 0.124024,-0.12953 0.124024,-0.39274 v -0.1254 q -0.07855,0.13642 -0.201194,0.20395 -0.122645,0.0675 -0.293522,0.0675 -0.283876,0 -0.457509,-0.21635 -0.173633,-0.21635 -0.173633,-0.57326 0,-0.35829 0.173633,-0.57465 0.173633,-0.21635 0.457509,-0.21635 0.170877,0 0.293522,0.0675 0.122645,0.0675 0.201194,0.20395 V 286.488 h 0.253559 z"
         style="font-style:normal;font-variant:normal;font-weight:normal;font-stretch:normal;font-size:2.82222223px;font-family:sans-serif;-inkscape-font-specification:'sans-serif, Normal';font-variant-ligatures:normal;font-variant-caps:normal;font-variant-numeric:normal;font-feature-settings:normal;text-align:start;writing-mode:lr-tb;text-anchor:start;fill:#200000;fill-opacity:1;stroke-width:0.26458332"
         id="path1698"
         inkscape:connector-curvature="0" />
    </g>
    <g
       aria-label="in"
       transform="matrix(0.99940808,-0.06015529,-0.0344019,1.002663,0.19409248,-5.6192236)"
       style="font-style:normal;font-weight:normal;font-size:10.58333302px;line-height:1.25;font-family:sans-serif;letter-spacing:0px;word-spacing:0px;fill:#200000;fill-opacity:1;stroke:none;stroke-width:0.26458332"
       id="text1659">
      <path
         d="m 20.97762,287.32903 h 0.253559 v 1.54341 H 20.97762 Z m 0,-0.60082 h 0.253559 v 0.32108 H 20.97762 Z"
         style="font-style:normal;font-variant:normal;font-weight:normal;font-stretch:normal;font-size:2.82222223px;font-family:sans-serif;-inkscape-font-specification:'sans-serif, Normal';font-variant-ligatures:normal;font-variant-caps:normal;font-variant-numeric:normal;font-feature-settings:normal;text-align:start;writing-mode:lr-tb;text-anchor:start;fill:#200000;fill-opacity:1;stroke-width:0.26458332"
         id="path1689"
         inkscape:connector-curvature="0" />
      <path
         d="m 23.043299,287.94088 v 0.93156 H 22.78974 v -0.92329 q 0,-0.21911 -0.08544,-0.32797 -0.08544,-0.10887 -0.256315,-0.10887 -0.205328,0 -0.323839,0.13092 -0.118512,0.13091 -0.118512,0.35691 v 0.8723 h -0.254937 v -1.54341 h 0.254937 v 0.23978 q 0.09095,-0.13918 0.213596,-0.20808 0.124024,-0.0689 0.285254,-0.0689 0.265962,0 0.402387,0.16536 0.136426,0.16399 0.136426,0.48369 z"
         style="font-style:normal;font-variant:normal;font-weight:normal;font-stretch:normal;font-size:2.82222223px;font-family:sans-serif;-inkscape-font-specification:'sans-serif, Normal';font-variant-ligatures:normal;font-variant-caps:normal;font-variant-numeric:normal;font-feature-settings:normal;text-align:start;writing-mode:lr-tb;text-anchor:start;fill:#200000;fill-opacity:1;stroke-width:0.26458332"
         id="path1691"
         inkscape:connector-curvature="0" />
    </g>
    <g
       aria-label="clr"
       transform="matrix(1.000666,0.00868223,0.07236619,0.99996231,-23.161485,-6.7617837)"
       style="font-style:normal;font-weight:normal;font-size:10.58333302px;line-height:1.25;font-family:sans-serif;letter-spacing:0px;word-spacing:0px;fill:#200000;fill-opacity:1;stroke:none;stroke-width:0.26458332"
       id="text1663">
      <path
         d="m 21.863366,287.49247 v 0.26665 q -0.120923,-0.0667 -0.243396,-0.0992 -0.120923,-0.0341 -0.244947,-0.0341 -0.277502,0 -0.430981,0.17673 -0.153479,0.17519 -0.153479,0.493 0,0.31781 0.153479,0.49454 0.153479,0.17518 0.430981,0.17518 0.124024,0 0.244947,-0.0326 0.122473,-0.0341 0.243396,-0.10077 v 0.26355 q -0.119373,0.0558 -0.248047,0.0837 -0.127124,0.0279 -0.271302,0.0279 -0.392224,0 -0.623217,-0.2465 -0.230994,-0.24649 -0.230994,-0.66507 0,-0.42478 0.232544,-0.66818 0.234094,-0.2434 0.640271,-0.2434 0.131775,0 0.257349,0.0279 0.125573,0.0264 0.243396,0.0806 z"
         style="font-style:normal;font-variant:normal;font-weight:normal;font-stretch:normal;font-size:3.17499995px;font-family:sans-serif;-inkscape-font-specification:'sans-serif, Normal';font-variant-ligatures:normal;font-variant-caps:normal;font-variant-numeric:normal;font-feature-settings:normal;text-align:start;writing-mode:lr-tb;text-anchor:start;fill:#200000;fill-opacity:1;stroke-width:0.26458332"
         id="path1682"
         inkscape:connector-curvature="0" />
      <path
         d="m 22.36256,286.74988 h 0.285254 v 2.41226 H 22.36256 Z"
         style="font-style:normal;font-variant:normal;font-weight:normal;font-stretch:normal;font-size:3.17499995px;font-family:sans-serif;-inkscape-font-specification:'sans-serif, Normal';font-variant-ligatures:normal;font-variant-caps:normal;font-variant-numeric:normal;font-feature-settings:normal;text-align:start;writing-mode:lr-tb;text-anchor:start;fill:#200000;fill-opacity:1;stroke-width:0.26458332"
         id="path1684"
         inkscape:connector-curvature="0" />
      <path
         d="m 24.249266,287.69246 q -0.04806,-0.0279 -0.10542,-0.0403 -0.05581,-0.014 -0.124023,-0.014 -0.241846,0 -0.37207,0.15813 -0.128675,0.15658 -0.128675,0.45114 v 0.91467 h -0.286804 v -1.73633 h 0.286804 v 0.26975 q 0.08992,-0.15813 0.234095,-0.23409 0.144177,-0.0775 0.350366,-0.0775 0.02945,0 0.06511,0.005 0.03566,0.003 0.07906,0.0109 z"
         style="font-style:normal;font-variant:normal;font-weight:normal;font-stretch:normal;font-size:3.17499995px;font-family:sans-serif;-inkscape-font-specification:'sans-serif, Normal';font-variant-ligatures:normal;font-variant-caps:normal;font-variant-numeric:normal;font-feature-settings:normal;text-align:start;writing-mode:lr-tb;text-anchor:start;fill:#200000;fill-opacity:1;stroke-width:0.26458332"
         id="path1686"
         inkscape:connector-curvature="0" />
    </g>
    <g
       aria-label="debug"
       transform="matrix(1.0139335,-0.02825079,0.06854811,0.98434808,0,0)"
       style="font-style:normal;font-weight:normal;font-size:10.74719143px;line-height:1.25;font-family:sans-serif;letter-spacing:0px;word-spacing:0px;fill:#000000;fill-opacity:1;stroke:none;stroke-width:0.26867977"
       id="text1667">
      <path
         d="m -8.0187684,202.28597 v -1.48404 H -7.56817 v 3.8105 h -0.4505984 v -0.41142 q -0.1420364,0.24489 -0.3599889,0.36489 -0.2155036,0.11754 -0.5191677,0.11754 -0.4971276,0 -0.8105874,-0.39672 -0.3110106,-0.39672 -0.3110106,-1.04323 0,-0.64651 0.3110106,-1.04323 0.3134598,-0.39673 0.8105874,-0.39673 0.3036641,0 0.5191677,0.12 0.2179525,0.11755 0.3599889,0.36244 z m -1.535463,0.95752 q 0,0.49713 0.2032591,0.7812 0.2057079,0.28162 0.563248,0.28162 0.35754,0 0.563248,-0.28162 0.2057079,-0.28407 0.2057079,-0.7812 0,-0.49713 -0.2057079,-0.77875 -0.205708,-0.28408 -0.563248,-0.28408 -0.3575401,0 -0.563248,0.28408 -0.2032591,0.28162 -0.2032591,0.77875 z"
         style="font-style:normal;font-variant:normal;font-weight:normal;font-stretch:normal;font-size:5.01535606px;font-family:sans-serif;-inkscape-font-specification:'sans-serif, Normal';font-variant-ligatures:normal;font-variant-caps:normal;font-variant-numeric:normal;font-feature-settings:normal;text-align:start;writing-mode:lr-tb;text-anchor:start;stroke-width:0.26867977"
         id="path1671"
         inkscape:connector-curvature="0" />
      <path
         d="m -4.2939849,203.12839 v 0.2204 h -2.071773 q 0.029387,0.46529 0.2791751,0.71018 0.2522371,0.24245 0.7003866,0.24245 0.2595839,0 0.5020254,-0.0637 0.2448904,-0.0637 0.484883,-0.19101 v 0.42611 q -0.2424415,0.10285 -0.4971275,0.15673 -0.2546861,0.0539 -0.5167189,0.0539 -0.6563063,0 -1.0407843,-0.38202 -0.3820291,-0.38203 -0.3820291,-1.03344 0,-0.67345 0.3624379,-1.06772 0.3648867,-0.39673 0.9820106,-0.39673 0.5534524,0 0.8742589,0.35754 0.3232553,0.35509 0.3232553,0.96732 z m -0.4505984,-0.13224 q -0.0049,-0.36978 -0.2081568,-0.59019 -0.2008102,-0.2204 -0.5338612,-0.2204 -0.3771313,0 -0.6048794,0.21306 -0.2252992,0.21305 -0.2595838,0.59998 z"
         style="font-style:normal;font-variant:normal;font-weight:normal;font-stretch:normal;font-size:5.01535606px;font-family:sans-serif;-inkscape-font-specification:'sans-serif, Normal';font-variant-ligatures:normal;font-variant-caps:normal;font-variant-numeric:normal;font-feature-settings:normal;text-align:start;writing-mode:lr-tb;text-anchor:start;stroke-width:0.26867977"
         id="path1673"
         inkscape:connector-curvature="0" />
      <path
         d="m -1.5854967,203.24349 q 0,-0.49713 -0.205708,-0.77875 -0.203259,-0.28408 -0.560799,-0.28408 -0.3575401,0 -0.563248,0.28408 -0.2032591,0.28162 -0.2032591,0.77875 0,0.49713 0.2032591,0.7812 0.2057079,0.28162 0.563248,0.28162 0.35754,0 0.560799,-0.28162 0.205708,-0.28407 0.205708,-0.7812 z m -1.5330141,-0.95752 q 0.1420364,-0.24489 0.35754,-0.36244 0.2179525,-0.12 0.5191677,-0.12 0.4995765,0 0.8105874,0.39673 0.3134597,0.39672 0.3134597,1.04323 0,0.64651 -0.3134597,1.04323 -0.3110109,0.39672 -0.8105874,0.39672 -0.3012152,0 -0.5191677,-0.11754 -0.2155036,-0.12 -0.35754,-0.36489 v 0.41142 h -0.4530473 v -3.8105 h 0.4530473 z"
         style="font-style:normal;font-variant:normal;font-weight:normal;font-stretch:normal;font-size:5.01535606px;font-family:sans-serif;-inkscape-font-specification:'sans-serif, Normal';font-variant-ligatures:normal;font-variant-caps:normal;font-variant-numeric:normal;font-feature-settings:normal;text-align:start;writing-mode:lr-tb;text-anchor:start;stroke-width:0.26867977"
         id="path1675"
         inkscape:connector-curvature="0" />
      <path
         d="m -0.4173698,203.53001 v -1.66036 h 0.45059839 v 1.64322 q 0,0.38937 0.15183207,0.58529 0.15183207,0.19346 0.45549621,0.19346 0.36488673,0 0.57549253,-0.23265 0.2130547,-0.23264 0.2130547,-0.63426 v -1.55506 h 0.4505984 v 2.74278 H 1.4291041 v -0.42121 q -0.1640766,0.24978 -0.3820291,0.37223 -0.2155036,0.11999 -0.5020254,0.11999 -0.47263854,0 -0.71752897,-0.29386 -0.24489043,-0.29387 -0.24489043,-0.85957 z"
         style="font-style:normal;font-variant:normal;font-weight:normal;font-stretch:normal;font-size:5.01535606px;font-family:sans-serif;-inkscape-font-specification:'sans-serif, Normal';font-variant-ligatures:normal;font-variant-caps:normal;font-variant-numeric:normal;font-feature-settings:normal;text-align:start;writing-mode:lr-tb;text-anchor:start;stroke-width:0.26867977"
         id="path1677"
         inkscape:connector-curvature="0" />
      <path
         d="m 4.6175785,203.2092 q 0,-0.48978 -0.2032591,-0.75916 -0.2008102,-0.26938 -0.5656969,-0.26938 -0.3624378,0 -0.5656969,0.26938 -0.2008102,0.26938 -0.2008102,0.75916 0,0.48734 0.2008102,0.75672 0.2032591,0.26938 0.5656969,0.26938 0.3648867,0 0.5656969,-0.26938 0.2032591,-0.26938 0.2032591,-0.75672 z m 0.4505983,1.06283 q 0,0.70039 -0.3110108,1.04078 -0.3110109,0.34285 -0.9526238,0.34285 -0.2375437,0 -0.4481495,-0.0367 -0.2106057,-0.0343 -0.408967,-0.10776 v -0.43835 q 0.1983613,0.10775 0.3918247,0.15918 0.1934634,0.0514 0.3942736,0.0514 0.4432517,0 0.6636531,-0.23265 0.2204014,-0.2302 0.2204014,-0.69794 v -0.22285 q -0.1395876,0.24244 -0.3575401,0.36244 -0.2179525,0.12 -0.5216166,0.12 -0.5044743,0 -0.8130362,-0.38448 -0.308562,-0.38448 -0.308562,-1.01875 0,-0.63671 0.308562,-1.02119 0.3085619,-0.38448 0.8130362,-0.38448 0.3036641,0 0.5216166,0.12 0.2179525,0.12 0.3575401,0.36244 v -0.41632 h 0.4505983 z"
         style="font-style:normal;font-variant:normal;font-weight:normal;font-stretch:normal;font-size:5.01535606px;font-family:sans-serif;-inkscape-font-specification:'sans-serif, Normal';font-variant-ligatures:normal;font-variant-caps:normal;font-variant-numeric:normal;font-feature-settings:normal;text-align:start;writing-mode:lr-tb;text-anchor:start;stroke-width:0.26867977"
         id="path1679"
         inkscape:connector-curvature="0" />
    </g>
  </g>
</svg>
