<?xml version="1.0" encoding="UTF-8" standalone="no"?>
<!-- Created with Inkscape (http://www.inkscape.org/) -->

<svg
   xmlns:dc="http://purl.org/dc/elements/1.1/"
   xmlns:cc="http://creativecommons.org/ns#"
   xmlns:rdf="http://www.w3.org/1999/02/22-rdf-syntax-ns#"
   xmlns:svg="http://www.w3.org/2000/svg"
   xmlns="http://www.w3.org/2000/svg"
   xmlns:sodipodi="http://sodipodi.sourceforge.net/DTD/sodipodi-0.dtd"
   xmlns:inkscape="http://www.inkscape.org/namespaces/inkscape"
   width="200"
   height="380"
   viewBox="0 0 52.916669 100.54167"
   version="1.1"
   id="svg8"
   inkscape:version="0.92.2 5c3e80d, 2017-08-06"
   sodipodi:docname="ComputerscareLaundrySoupPanel.svg"
   style="enable-background:new">
  <defs
     id="defs2">
    <inkscape:perspective
       sodipodi:type="inkscape:persp3d"
       inkscape:vp_x="0 : 50.270835 : 1"
       inkscape:vp_y="0 : 1000 : 0"
       inkscape:vp_z="23.812501 : 50.270835 : 1"
       inkscape:persp3d-origin="11.906251 : 33.51389 : 1"
       id="perspective1881" />
  </defs>
  <sodipodi:namedview
     id="base"
     pagecolor="#ffffff"
     bordercolor="#666666"
     borderopacity="1.0"
     inkscape:pageopacity="0.0"
     inkscape:pageshadow="2"
     inkscape:zoom="8.0000002"
     inkscape:cx="131.75174"
     inkscape:cy="351.54654"
     inkscape:document-units="mm"
     inkscape:current-layer="text984"
     showgrid="false"
     units="px"
     inkscape:snap-bbox="true"
     inkscape:snap-page="true"
     inkscape:bbox-nodes="true"
     inkscape:snap-bbox-edge-midpoints="true"
     inkscape:window-width="1440"
     inkscape:window-height="856"
     inkscape:window-x="0"
     inkscape:window-y="0"
     inkscape:window-maximized="0"
     inkscape:snap-nodes="false"
     inkscape:snap-others="false"
     inkscape:snap-global="false" />
  <metadata
     id="metadata5">
    <rdf:RDF>
      <cc:Work
         rdf:about="">
        <dc:format>image/svg+xml</dc:format>
        <dc:type
           rdf:resource="http://purl.org/dc/dcmitype/StillImage" />
        <dc:title />
      </cc:Work>
    </rdf:RDF>
  </metadata>
  <g
     style="display:inline"
     transform="translate(0,-196.45832)"
     id="g1669"
     inkscape:groupmode="layer"
     inkscape:label="Layer 1 copy">
    <g
       aria-label="computerscare"
       transform="matrix(0.98656289,0.0441007,-0.12576361,1.0079983,50.102321,-2.779225)"
       style="font-style:normal;font-weight:normal;font-size:10.58333302px;line-height:1.25;font-family:sans-serif;letter-spacing:0px;word-spacing:0px;fill:#000000;fill-opacity:1;stroke:none;stroke-width:0.26458332"
       id="text1651">
      <path
         d="m 6.6070221,292.92039 -0.00246,0.37105 q -0.1071193,-0.0808 -0.2159438,-0.11391 -0.1074332,-0.0355 -0.2179805,-0.0233 -0.2472541,0.0274 -0.38563,0.28832 -0.1383657,0.25886 -0.1412982,0.70113 -0.00293,0.44221 0.1321842,0.67304 0.1351305,0.22868 0.3823831,0.20138 0.1105059,-0.0123 0.2185405,-0.0692 0.1094376,-0.0594 0.2177934,-0.1642 l -0.00243,0.36673 q -0.1068806,0.0895 -0.2217798,0.14083 -0.1135211,0.0513 -0.2419848,0.0654 -0.3494689,0.0384 -0.5530034,-0.28169 -0.2035392,-0.32028 -0.1996747,-0.90274 0.00392,-0.59111 0.2133598,-0.95268 0.2108222,-0.3617 0.5727212,-0.40166 0.1174123,-0.0128 0.2290539,0.0148 0.1116476,0.0244 0.2161244,0.0884 z"
         style="font-style:normal;font-variant:normal;font-weight:normal;font-stretch:normal;font-size:2.82222223px;font-family:sans-serif;-inkscape-font-specification:'sans-serif, Normal';font-variant-ligatures:normal;font-variant-caps:normal;font-variant-numeric:normal;font-feature-settings:normal;text-align:start;writing-mode:lr-tb;text-anchor:start;stroke-width:0.33131203"
         id="path1701"
         inkscape:connector-curvature="0" />
      <path
         d="m 7.6500478,292.99062 q -0.2044279,0.0227 -0.3248808,0.28593 -0.1204373,0.26121 -0.1233105,0.69481 -0.00287,0.43362 0.1128778,0.6709 0.1171462,0.23497 0.3229586,0.21226 0.2030374,-0.0225 0.3235011,-0.28579 0.1204496,-0.26337 0.1233101,-0.69482 0.00285,-0.42927 -0.1142857,-0.66643 -0.1171176,-0.23929 -0.3201684,-0.21686 z m 0.00223,-0.33652 q 0.3315101,-0.0365 0.5185139,0.27902 0.1870051,0.31566 0.1830569,0.91106 -0.00393,0.59327 -0.1954191,0.95283 -0.1914688,0.35742 -0.5229779,0.39403 -0.3328997,0.0367 -0.5198978,-0.27887 -0.1856097,-0.31798 -0.1816746,-0.91121 0.00395,-0.59541 0.1940369,-0.95268 0.191469,-0.35743 0.5243617,-0.39418 z"
         style="font-style:normal;font-variant:normal;font-weight:normal;font-stretch:normal;font-size:2.82222223px;font-family:sans-serif;-inkscape-font-specification:'sans-serif, Normal';font-variant-ligatures:normal;font-variant-caps:normal;font-variant-numeric:normal;font-feature-settings:normal;text-align:start;writing-mode:lr-tb;text-anchor:start;stroke-width:0.33131203"
         id="path1703"
         inkscape:connector-curvature="0" />
      <path
         d="m 10.647868,293.19283 q 0.192887,-0.21097 0.37571,-0.30964 0.182814,-0.0986 0.370161,-0.0952 0.252209,0.005 0.296388,0.21855 0.04496,0.21206 -0.125387,0.6 l -0.509512,1.16046 -0.266622,-0.006 0.504994,-1.15016 q 0.121344,-0.27639 0.098,-0.41186 -0.02336,-0.13545 -0.191965,-0.13867 -0.206082,-0.004 -0.39729,0.15688 -0.191212,0.1608 -0.314822,0.44234 l -0.477103,1.08665 -0.2666245,-0.006 0.5049935,-1.15016 q 0.122103,-0.27811 0.09799,-0.41185 -0.02336,-0.13545 -0.194845,-0.13872 -0.2031978,-0.004 -0.3951618,0.15865 -0.191211,0.1608 -0.3140662,0.4406 l -0.4771051,1.08666 -0.2666163,-0.006 0.8441614,-1.92264 0.2666226,0.006 -0.1311408,0.29869 q 0.168419,-0.17508 0.3321682,-0.2568 0.163741,-0.0817 0.338101,-0.0783 0.175813,0.003 0.251604,0.11209 0.07721,0.10874 0.04736,0.31249 z"
         style="font-style:normal;font-variant:normal;font-weight:normal;font-stretch:normal;font-size:2.82222223px;font-family:sans-serif;-inkscape-font-specification:'sans-serif, Normal';font-variant-ligatures:normal;font-variant-caps:normal;font-variant-numeric:normal;font-feature-settings:normal;text-align:start;writing-mode:lr-tb;text-anchor:start;stroke-width:0.30324769"
         id="path1705"
         inkscape:connector-curvature="0" />
      <path
         d="m 12.08524,294.60161 -0.138154,1.12148 -0.252719,0.0641 0.359579,-2.91885 0.25272,-0.0641 -0.03954,0.32095 q 0.102409,-0.20918 0.233654,-0.33074 0.132856,-0.12372 0.300694,-0.16693 0.278184,-0.0723 0.413988,0.1895 0.136996,0.26086 0.07559,0.75932 -0.06141,0.49842 -0.273747,0.84928 -0.210979,0.35049 -0.489344,0.42222 -0.167738,0.0436 -0.278164,-0.0162 -0.108663,-0.0614 -0.164575,-0.22999 z m 0.945152,-0.95828 q 0.04722,-0.38326 -0.04065,-0.57085 -0.08628,-0.18983 -0.28551,-0.13852 -0.199228,0.0513 -0.340824,0.29987 -0.140007,0.24629 -0.187225,0.62956 -0.04722,0.38328 0.03906,0.5731 0.08787,0.18758 0.287104,0.13627 0.19923,-0.0513 0.339232,-0.29761 0.141604,-0.24853 0.188813,-0.63182 z"
         style="font-style:normal;font-variant:normal;font-weight:normal;font-stretch:normal;font-size:2.82222223px;font-family:sans-serif;-inkscape-font-specification:'sans-serif, Normal';font-variant-ligatures:normal;font-variant-caps:normal;font-variant-numeric:normal;font-feature-settings:normal;text-align:start;writing-mode:lr-tb;text-anchor:start;stroke-width:0.30324769"
         id="path1707"
         inkscape:connector-curvature="0" />
      <path
         d="m 13.387976,294.44539 0.498746,-1.26019 0.265371,0.007 -0.493595,1.2472 q -0.116963,0.29552 -0.0864,0.44639 0.03128,0.14901 0.21011,0.15338 0.214874,0.005 0.408773,-0.16835 0.19534,-0.17353 0.315981,-0.47836 l 0.467112,-1.18027 0.265369,0.007 -0.823883,2.08172 -0.265371,-0.007 0.126524,-0.31971 q -0.171651,0.18724 -0.336773,0.27705 -0.162941,0.0879 -0.33165,0.0838 -0.278348,-0.008 -0.334254,-0.23332 -0.05593,-0.22656 0.113986,-0.65588 z"
         style="font-style:normal;font-variant:normal;font-weight:normal;font-stretch:normal;font-size:2.82222223px;font-family:sans-serif;-inkscape-font-specification:'sans-serif, Normal';font-variant-ligatures:normal;font-variant-caps:normal;font-variant-numeric:normal;font-feature-settings:normal;text-align:start;writing-mode:lr-tb;text-anchor:start;stroke-width:0.31584805"
         id="path1709"
         inkscape:connector-curvature="0" />
      <path
         d="m 15.883103,292.39373 0.01558,0.54312 0.553865,0.0105 0.007,0.24423 -0.553865,-0.0105 0.02978,1.0384 q 0.0067,0.23398 0.06268,0.30161 0.05745,0.0675 0.225497,0.0707 l 0.276178,0.005 0.0075,0.26301 -0.27618,-0.005 q -0.31126,-0.005 -0.433509,-0.14294 -0.122286,-0.13883 -0.132562,-0.4975 l -0.02978,-1.03839 -0.19729,-0.004 -0.007,-0.24424 0.197291,0.004 -0.01558,-0.54312 z"
         style="font-style:normal;font-variant:normal;font-weight:normal;font-stretch:normal;font-size:2.82222223px;font-family:sans-serif;-inkscape-font-specification:'sans-serif, Normal';font-variant-ligatures:normal;font-variant-caps:normal;font-variant-numeric:normal;font-feature-settings:normal;text-align:start;writing-mode:lr-tb;text-anchor:start;stroke-width:0.30324769"
         id="path1711"
         inkscape:connector-curvature="0" />
      <path
         d="m 18.22152,293.76942 0.0061,0.16669 -1.237147,-0.0295 q 0.03034,0.35234 0.186233,0.54112 0.157286,0.18695 0.424897,0.19335 0.155009,0.004 0.298033,-0.0409 0.144485,-0.0447 0.284294,-0.13758 l 0.0117,0.32229 q -0.141943,0.0744 -0.292546,0.11148 -0.150605,0.0371 -0.307075,0.0333 -0.391927,-0.0101 -0.632,-0.30378 -0.23863,-0.29439 -0.256537,-0.78705 -0.0185,-0.50935 0.187075,-0.80239 0.206983,-0.29484 0.575495,-0.28604 0.330483,0.008 0.531887,0.28287 0.202792,0.27317 0.219624,0.73623 z m -0.272709,-0.10651 q -0.01314,-0.27975 -0.140524,-0.44932 -0.125973,-0.16958 -0.324852,-0.17433 -0.225224,-0.006 -0.355342,0.15252 -0.12868,0.15792 -0.138515,0.45008 z"
         style="font-style:normal;font-variant:normal;font-weight:normal;font-stretch:normal;font-size:2.82222223px;font-family:sans-serif;-inkscape-font-specification:'sans-serif, Normal';font-variant-ligatures:normal;font-variant-caps:normal;font-variant-numeric:normal;font-feature-settings:normal;text-align:start;writing-mode:lr-tb;text-anchor:start;stroke-width:0.31584805"
         id="path1713"
         inkscape:connector-curvature="0" />
      <path
         d="m 19.605804,293.29952 q -0.04618,-0.0316 -0.100647,-0.0462 -0.05305,-0.0163 -0.117352,-0.0176 -0.227987,-0.005 -0.345737,0.16766 -0.116352,0.17024 -0.107053,0.49475 l 0.02883,1.00765 -0.270332,-0.004 -0.0548,-1.91286 0.270331,0.004 0.0085,0.29716 q 0.07977,-0.17262 0.213278,-0.25377 0.133462,-0.0828 0.327824,-0.0792 0.02776,5.2e-4 0.06154,0.007 0.03372,0.005 0.0749,0.0143 z"
         style="font-style:normal;font-variant:normal;font-weight:normal;font-stretch:normal;font-size:2.82222223px;font-family:sans-serif;-inkscape-font-specification:'sans-serif, Normal';font-variant-ligatures:normal;font-variant-caps:normal;font-variant-numeric:normal;font-feature-settings:normal;text-align:start;writing-mode:lr-tb;text-anchor:start;stroke-width:0.30324769"
         id="path1715"
         inkscape:connector-curvature="0" />
      <path
         d="m 20.787259,293.43551 -0.01857,0.34476 q -0.110229,-0.10674 -0.231384,-0.17592 -0.121161,-0.0693 -0.253267,-0.101 -0.201096,-0.0483 -0.306854,0.0108 -0.104296,0.0594 -0.113266,0.22573 -0.0069,0.12687 0.06113,0.21736 0.06808,0.0886 0.281797,0.2061 l 0.09098,0.0498 q 0.283211,0.15228 0.395355,0.33364 0.113723,0.1798 0.0991,0.45127 -0.01665,0.30909 -0.208377,0.44573 -0.190257,0.137 -0.507308,0.061 -0.132101,-0.0316 -0.274033,-0.1019 -0.140568,-0.0678 -0.295351,-0.17526 l 0.02027,-0.37647 q 0.144067,0.1409 0.286495,0.22927 0.142545,0.0864 0.284921,0.12048 0.190823,0.0458 0.29826,-0.0167 0.107548,-0.0645 0.116195,-0.22501 0.008,-0.14862 -0.06259,-0.24583 -0.06912,-0.0968 -0.316172,-0.23036 l -0.09233,-0.0522 q -0.247153,-0.13144 -0.350813,-0.3049 -0.103556,-0.17536 -0.08967,-0.43295 0.01686,-0.31305 0.190443,-0.44402 0.173575,-0.13097 0.47595,-0.0584 0.149716,0.0359 0.280221,0.0974 0.130498,0.0614 0.238856,0.14756 z"
         style="font-style:normal;font-variant:normal;font-weight:normal;font-stretch:normal;font-size:2.82222223px;font-family:sans-serif;-inkscape-font-specification:'sans-serif, Normal';font-variant-ligatures:normal;font-variant-caps:normal;font-variant-numeric:normal;font-feature-settings:normal;text-align:start;writing-mode:lr-tb;text-anchor:start;stroke-width:0.32954201"
         id="path1717"
         inkscape:connector-curvature="0" />
      <path
         d="m 22.195041,292.71108 0.01856,0.34598 q -0.119128,-0.0913 -0.237344,-0.13817 -0.116857,-0.0489 -0.234275,-0.0536 -0.262757,-0.0117 -0.395728,0.21262 -0.133111,0.22136 -0.110986,0.63372 0.02214,0.41235 0.179736,0.64761 0.157503,0.23326 0.42023,0.244 0.117399,0.004 0.229639,-0.0327 0.113579,-0.0395 0.223419,-0.12136 l 0.01841,0.34194 q -0.109128,0.0678 -0.22901,0.099 -0.118415,0.0312 -0.254912,0.0258 -0.371355,-0.0157 -0.607195,-0.34398 -0.235853,-0.32876 -0.264994,-0.87187 -0.02954,-0.55117 0.173645,-0.85796 0.204684,-0.30674 0.589233,-0.29099 0.124736,0.004 0.245587,0.0461 0.120724,0.0391 0.236054,0.11417 z"
         style="font-style:normal;font-variant:normal;font-weight:normal;font-stretch:normal;font-size:2.82222223px;font-family:sans-serif;-inkscape-font-specification:'sans-serif, Normal';font-variant-ligatures:normal;font-variant-caps:normal;font-variant-numeric:normal;font-feature-settings:normal;text-align:start;writing-mode:lr-tb;text-anchor:start;stroke-width:0.32954201"
         id="path1719"
         inkscape:connector-curvature="0" />
      <path
         d="m 23.305903,293.91588 q -0.324182,0.0149 -0.435899,0.12568 -0.111691,0.11098 -0.07954,0.36479 0.02567,0.20227 0.133813,0.31774 0.109387,0.11332 0.270755,0.10589 0.222436,-0.0102 0.327956,-0.2391 0.106711,-0.23111 0.05966,-0.6026 l -0.01075,-0.0847 z m 0.513686,-0.18111 0.167027,1.31882 -0.267332,0.0137 -0.04442,-0.35088 q -0.06493,0.21469 -0.188777,0.32204 -0.124115,0.10522 -0.321829,0.1143 -0.250088,0.0113 -0.42344,-0.18003 -0.172192,-0.19352 -0.214536,-0.52785 -0.04945,-0.39009 0.108682,-0.59655 0.159543,-0.20651 0.524449,-0.22312 l 0.375087,-0.0171 -0.0047,-0.0371 q -0.03318,-0.26211 -0.173355,-0.39896 -0.138967,-0.13902 -0.358502,-0.12911 -0.139623,0.006 -0.265854,0.0598 -0.126284,0.0535 -0.236369,0.15407 l -0.04442,-0.35086 q 0.136648,-0.0871 0.269792,-0.13263 0.132883,-0.0476 0.263718,-0.0536 0.353325,-0.0156 0.560671,0.23606 0.207395,0.25212 0.274312,0.78048 z"
         style="font-style:normal;font-variant:normal;font-weight:normal;font-stretch:normal;font-size:2.82222223px;font-family:sans-serif;-inkscape-font-specification:'sans-serif, Normal';font-variant-ligatures:normal;font-variant-caps:normal;font-variant-numeric:normal;font-feature-settings:normal;text-align:start;writing-mode:lr-tb;text-anchor:start;stroke-width:0.33353889"
         id="path1721"
         inkscape:connector-curvature="0" />
      <path
         d="m 25.217141,292.90688 q -0.05013,-0.0375 -0.106177,-0.0527 -0.05486,-0.0174 -0.118862,-0.0147 -0.2269,0.01 -0.320441,0.2389 -0.0924,0.22683 -0.03915,0.64375 l 0.165399,1.29468 -0.269129,0.0108 -0.313919,-2.45767 0.26913,-0.0108 0.0488,0.38179 q 0.05577,-0.22747 0.17728,-0.34083 0.121221,-0.11567 0.314665,-0.12384 0.02762,-0.001 0.06196,0.004 0.03409,0.003 0.07621,0.0128 z"
         style="font-style:normal;font-variant:normal;font-weight:normal;font-stretch:normal;font-size:2.82222223px;font-family:sans-serif;-inkscape-font-specification:'sans-serif, Normal';font-variant-ligatures:normal;font-variant-caps:normal;font-variant-numeric:normal;font-feature-settings:normal;text-align:start;writing-mode:lr-tb;text-anchor:start;stroke-width:0.34393439"
         id="path1723"
         inkscape:connector-curvature="0" />
      <path
         d="m 26.939385,293.66143 0.02353,0.18575 -1.229926,0.0559 q 0.06712,0.39135 0.241541,0.591 0.175622,0.19751 0.441671,0.18543 0.154117,-0.007 0.291251,-0.0671 0.13858,-0.0603 0.267465,-0.17408 l 0.04547,0.35911 q -0.132941,0.0933 -0.27839,0.14555 -0.14545,0.0523 -0.301011,0.0593 -0.389724,0.0168 -0.658647,-0.29385 -0.267575,-0.31167 -0.337104,-0.86065 -0.07187,-0.56756 0.101194,-0.90965 0.174272,-0.3442 0.540635,-0.36085 0.328539,-0.0151 0.557174,0.27771 0.22981,0.29056 0.295158,0.80653 z m -0.281627,-0.0994 q -0.04243,-0.3115 -0.18657,-0.49176 -0.14274,-0.18034 -0.34046,-0.17136 -0.223994,0.009 -0.33635,0.1959 -0.11101,0.18563 -0.09006,0.51266 z"
         style="font-style:normal;font-variant:normal;font-weight:normal;font-stretch:normal;font-size:2.82222223px;font-family:sans-serif;-inkscape-font-specification:'sans-serif, Normal';font-variant-ligatures:normal;font-variant-caps:normal;font-variant-numeric:normal;font-feature-settings:normal;text-align:start;writing-mode:lr-tb;text-anchor:start;stroke-width:0.33353889"
         id="path1725"
         inkscape:connector-curvature="0" />
      <g
         aria-label="Laundry Soup"
         transform="matrix(0.90202646,-0.03946435,0.10737602,0.84231979,9.6830795,28.3576)"
         style="font-style:normal;font-weight:normal;font-size:5.44763088px;line-height:1.25;font-family:sans-serif;letter-spacing:0px;word-spacing:0px;fill:#000000;fill-opacity:1;stroke:none;stroke-width:0.03603381"
         id="text917">
        <path
           d="m -43.477761,201.13438 0.943721,-0.1 -0.09642,7.48641 3.396484,-0.36172 -0.01251,0.96203 -4.340215,0.4625 z"
           style="stroke-width:0.06960488"
           id="path919"
           inkscape:connector-curvature="0" />
        <path
           d="m -39.020817,204.38995 q -0.639226,0 -0.930621,0.2574 -0.291394,0.25739 -0.399627,0.87817 -0.08624,0.49463 0.04618,0.78733 0.136167,0.28767 0.454346,0.28767 0.438572,0 0.797321,-0.54506 0.362497,-0.55012 0.520887,-1.45858 l 0.03608,-0.20693 z m 1.118876,-0.38356 -0.562281,3.22501 h -0.527435 l 0.149591,-0.85799 q -0.270342,0.51479 -0.582914,0.76212 -0.311686,0.24225 -0.701529,0.24225 -0.493035,0 -0.700943,-0.48451 -0.204161,-0.48956 -0.06161,-1.30717 0.166311,-0.95389 0.611965,-1.43841 0.448514,-0.48449 1.168003,-0.48449 h 0.739554 l 0.01587,-0.091 q 0.111752,-0.64096 -0.06832,-0.9892 -0.176321,-0.3533 -0.60916,-0.3533 -0.275183,0 -0.556284,0.11615 -0.2811,0.11614 -0.562354,0.34826 l 0.149589,-0.85798 q 0.323834,-0.19684 0.612871,-0.29274 0.289922,-0.10099 0.547907,-0.10099 0.696556,0 0.92966,0.63593 0.233109,0.63591 0.0078,1.92795 z"
           style="stroke-width:0.05152563"
           id="path921"
           inkscape:connector-curvature="0" />
        <path
           d="m -36.944252,205.60455 0.03032,-2.28277 0.527487,6.2e-4 -0.03001,2.25922 q -0.0071,0.53532 0.167055,0.80477 0.174209,0.26605 0.529695,0.26622 0.427157,2.2e-4 0.677951,-0.31959 0.253663,-0.31976 0.260998,-0.87193 l 0.02839,-2.13801 0.527487,6.1e-4 -0.05009,3.77099 -0.527487,-6.1e-4 0.0076,-0.57912 q -0.196638,0.34337 -0.454022,0.5116 -0.254471,0.16487 -0.58989,0.16474 -0.553299,-2e-5 -0.834611,-0.4044 -0.281315,-0.40416 -0.270984,-1.18192 z"
           style="stroke-width:0.04208743"
           id="path923"
           inkscape:connector-curvature="0" />
        <path
           d="m -30.487927,205.12433 v 2.72685 h -0.527434 v -2.70265 q 0,-0.64139 -0.177722,-0.96004 -0.177722,-0.31868 -0.533167,-0.31868 -0.427106,0 -0.673624,0.38321 -0.246518,0.38323 -0.246518,1.04478 v 2.55338 h -0.530301 v -4.51787 h 0.530301 v 0.70188 q 0.189187,-0.4074 0.444306,-0.60909 0.257983,-0.2017 0.593362,-0.2017 0.553232,0 0.837015,0.48406 0.283782,0.48003 0.283782,1.41587 z"
           style="stroke-width:0.04606442"
           id="path925"
           inkscape:connector-curvature="0" />
        <path
           d="m -27.448553,202.5477 0.02967,-2.76424 0.57738,0.001 -0.07617,7.0976 -0.577379,-0.001 0.0083,-0.76634 q -0.186896,0.45604 -0.468576,0.67941 -0.27849,0.21881 -0.6676,0.21862 -0.637004,-7.3e-4 -1.030739,-0.73951 -0.390593,-0.73916 -0.377668,-1.94337 0.01293,-1.20422 0.419376,-1.94297 0.409592,-0.73875 1.046599,-0.7384 0.389109,2.4e-4 0.662853,0.22386 0.27693,0.2191 0.454037,0.67533 z m -1.986651,1.78245 q -0.0099,0.926 0.244836,1.45529 0.257961,0.52467 0.716106,0.52492 0.458145,9e-5 0.727362,-0.52417 0.269268,-0.52901 0.279206,-1.45498 0.0099,-0.92598 -0.248023,-1.45068 -0.257912,-0.52926 -0.716055,-0.5295 -0.458146,-1.1e-4 -0.727413,0.52874 -0.266082,0.52445 -0.276019,1.45038 z"
           style="stroke-width:0.05125185"
           id="path927"
           inkscape:connector-curvature="0" />
        <path
           d="m -23.920049,202.6936 q -0.07646,-0.0535 -0.172648,-0.0772 -0.09315,-0.0267 -0.210996,-0.0267 -0.417822,0 -0.679988,0.30295 -0.259124,0.29999 -0.328385,0.86429 l -0.215085,1.75235 h -0.495494 l 0.408294,-3.32648 h 0.495494 l -0.06343,0.51679 q 0.192529,-0.30294 0.459479,-0.44848 0.267312,-0.1485 0.623533,-0.1485 0.05089,0 0.111356,0.009 0.0609,0.006 0.134046,0.0208 z"
           style="stroke-width:0.0382076"
           id="path929"
           inkscape:connector-curvature="0" />
        <path
           d="m -21.439933,204.59163 c -0.250887,0.38598 -0.482948,0.63782 -0.696184,0.75551 -0.213236,0.11769 -0.488671,0.1765 -0.826305,0.17641 l -0.600396,-1.1e-4 0.04446,-0.44588 0.441063,5.2e-4 c 0.206931,1.2e-4 0.371047,-0.0346 0.492349,-0.10418 0.121286,-0.0694 0.264261,-0.23341 0.42893,-0.49209 l 0.159047,-0.24317 -1.531933,-3.19111 0.796445,1e-4 0.875692,2.37232 1.983307,-2.37158 0.796446,1e-4 z"
           style="stroke-width:0.04658474"
           id="path931"
           inkscape:connector-curvature="0"
           sodipodi:nodetypes="csccccccccccccc" />
        <path
           d="m -16.106914,200.37344 -0.235202,0.38438 c -0.20534,-0.1633 -0.163872,0.20799 -0.345999,0.12782 -0.182128,-0.0802 -0.358007,-0.12027 -0.527636,-0.12027 -0.294618,0 -0.522278,0.095 -0.682979,0.28506 -0.158915,0.19003 -0.238372,0.46024 -0.238372,0.81062 0,0.29395 0.05267,0.51665 0.158022,0.66808 0.107134,0.14846 0.308903,0.26871 0.605307,0.36076 l 0.326759,0.11137 c 0.403537,0.12767 0.700834,0.35334 0.89189,0.677 0.192841,0.32067 0.289261,0.75121 0.289261,1.29163 0,0.64433 -0.130346,1.13277 -0.391038,1.46532 -0.258907,0.33257 -0.639233,0.49885 -1.140977,0.49885 -0.18927,0 -0.391039,-0.0356 -0.605308,-0.10677 -0.212482,-0.0712 -0.432999,-0.1766 -0.661552,-0.31623 v -0.92641 c 0.219625,0.20488 0.434786,0.35928 0.645483,0.46321 0.210697,0.10392 0.417822,0.15588 0.621377,0.15588 0.308903,0 0.547276,-0.10095 0.715119,-0.30286 0.167843,-0.20191 0.251764,-0.48993 0.251764,-0.86406 0,-0.32663 -0.06071,-0.58199 -0.182127,-0.76608 -0.119633,-0.18409 -0.316938,-0.32216 -0.591915,-0.41419 l -0.329437,-0.10678 c -0.403538,-0.13362 -0.695478,-0.34296 -0.87582,-0.62801 -0.180343,-0.28505 -0.270514,-0.68145 -0.270514,-1.18919 0,-0.58793 0.124097,-1.05114 0.372291,-1.38964 0.249979,-0.33849 0.593701,-0.50773 1.031165,-0.50773 0.187484,0 0.378539,0.0282 0.573166,0.0845 0.194627,0.0563 0.393717,0.14095 0.597272,0.25386 z"
           style="stroke-width:0.04678828"
           id="path933"
           inkscape:connector-curvature="0"
           sodipodi:nodetypes="cccscsccccscsccccscsccccscsscc" />
        <path
           d="m -13.861952,201.8379 c -0.264295,-1.7e-4 -0.55269,0.76262 -0.710054,1.13718 -0.156224,0.37184 -0.15957,0.30698 -0.165169,0.9566 -0.0056,0.64963 0.06588,1.16195 0.214439,1.53696 0.150373,0.37178 0.358599,0.55775 0.624679,0.55792 0.262509,1.2e-4 0.472168,-0.1872 0.628976,-0.56196 0.156809,-0.37481 0.159598,-0.3102 0.165169,-0.9566 0.0056,-0.64315 -0.0668,-1.15223 -0.217202,-1.52725 -0.150317,-0.37826 -0.278329,-1.14268 -0.540838,-1.14285 z m 0.0065,-0.75626 c 0.428589,-5e-5 0.763034,0.25226 1.003336,0.75693 0.240305,0.50435 0.356613,1.20254 0.348924,2.09457 -0.0077,0.88879 -0.136003,1.58681 -0.385028,2.09407 -0.248997,0.50403 -0.587788,0.7559 -1.016374,0.75561 -0.430374,0 -0.765712,-0.25231 -1.006014,-0.75692 -0.238492,-0.50758 -0.353907,-1.20577 -0.346246,-2.09458 0.0077,-0.89202 0.135137,-1.59004 0.38235,-2.09406 0.248996,-0.50402 0.58868,-0.75589 1.019052,-0.75562 z"
           style="stroke-width:0.04881711"
           id="path935"
           inkscape:connector-curvature="0"
           sodipodi:nodetypes="cssccccccscccccccs" />
        <path
           d="m -11.933519,202.89764 v -2.26061 h 0.489436 v 2.23727 q 0,0.53015 0.164918,0.79689 0.164919,0.2634 0.494756,0.2634 0.396336,0 0.625094,-0.31675 0.2314181,-0.31675 0.2314181,-0.86357 v -2.11724 h 0.4894356 v 3.73435 h -0.4894356 v -0.5735 q -0.1782181,0.3401 -0.4149561,0.50681 -0.234078,0.16338 -0.545295,0.16338 -0.513376,0 -0.779373,-0.40011 -0.265998,-0.4001 -0.265998,-1.17032 z"
           style="stroke-width:0.04034315"
           id="path937"
           inkscape:connector-curvature="0" />
        <path
           d="m -7.8811797,203.76845 -0.028691,2.07096 -0.5727988,4.2e-4 0.074672,-5.39006 0.5727806,8.5e-4 -0.00821,0.59271 q 0.1844073,-0.34856 0.4591879,-0.5158 0.2779251,-0.17073 0.6587527,-0.17057 0.6316119,6.1e-4 1.0170047,0.56523 0.3884838,0.56497 0.3757324,1.48539 -0.012751,0.92043 -0.4168846,1.48508 -0.4010372,0.56465 -1.0326539,0.5644 -0.380828,-1.3e-4 -0.6540676,-0.16763 -0.2700954,-0.17095 -0.4448426,-0.51967 z m 1.9570822,-1.36244 q 0.0098,-0.70774 -0.2447181,-1.10879 -0.2513784,-0.40455 -0.7034179,-0.40473 -0.4520409,-8e-5 -0.71772,0.40416 -0.2625358,0.40084 -0.2723407,1.10858 -0.0098,0.70777 0.2415732,1.11231 0.2545232,0.40103 0.7065627,0.40121 0.4520409,9e-5 0.7145751,-0.40063 0.2656806,-0.40433 0.2754857,-1.11211 z"
           style="stroke-width:0.04450807"
           id="path939"
           inkscape:connector-curvature="0" />
      </g>
      <text
         xml:space="preserve"
         style="font-style:normal;font-weight:normal;font-size:3.52777767px;line-height:1.25;font-family:sans-serif;letter-spacing:0px;word-spacing:0px;fill:#000000;fill-opacity:1;stroke:none;stroke-width:0.07000434"
         x="-18.08774"
         y="188.72037"
         id="text876"
         transform="matrix(1.0079983,-0.0441007,0.12576363,0.98656289,0,0)"><tspan
           sodipodi:role="line"
           id="tspan874"
           x="-18.08774"
           y="191.84163"
           style="stroke-width:0.07000434" /></text>
      <g
         aria-label="out"
         transform="matrix(1.0468606,0.36920082,-0.20179075,0.85789222,74.65304,42.604405)"
         style="font-style:normal;font-weight:normal;font-size:3.52777767px;line-height:1.25;font-family:sans-serif;letter-spacing:0px;word-spacing:0px;fill:#000000;fill-opacity:1;stroke:none;stroke-width:0.07000434"
         id="text888">
        <path
           d="m -13.369682,192.47237 q -0.273983,0 -0.433189,0.22592 -0.159206,0.22396 -0.159206,0.61541 0,0.39146 0.157354,0.61737 0.159207,0.22397 0.435041,0.22397 0.272131,0 0.431338,-0.22591 0.159207,-0.22592 0.159207,-0.61543 0,-0.38755 -0.159207,-0.61347 -0.159207,-0.22786 -0.431338,-0.22786 z m 0,-0.30381 q 0.444296,0 0.697916,0.30381 0.253619,0.30382 0.253619,0.84133 0,0.53557 -0.253619,0.84134 -0.25362,0.30381 -0.697916,0.30381 -0.446148,0 -0.699767,-0.30381 -0.251769,-0.30577 -0.251769,-0.84134 0,-0.53751 0.251769,-0.84133 0.253619,-0.30381 0.699767,-0.30381 z"
           style="stroke-width:0.07716621"
           id="path901"
           inkscape:connector-curvature="0" />
        <path
           d="m -11.925778,193.38936 -0.0093,-1.16785 0.316938,-0.003 0.0092,1.15579 q 0.0022,0.27389 0.110065,0.41083 0.107876,0.13523 0.321465,0.13353 0.256652,-0.002 0.403486,-0.16685 0.148558,-0.16482 0.146313,-0.44731 l -0.0087,-1.09379 0.316938,-0.003 0.01533,1.9292 -0.316938,0.003 -0.0024,-0.29627 q -0.114012,0.17661 -0.26663,0.26396 -0.150909,0.0856 -0.35244,0.0872 -0.332442,0.003 -0.506333,-0.20269 -0.173891,-0.20533 -0.177052,-0.60323 z"
           style="stroke-width:0.07000434"
           id="path903"
           inkscape:connector-curvature="0" />
        <path
           d="m -9.2205509,191.66729 v 0.65016 h 0.7963034 v 0.29238 h -0.7963034 v 1.24307 q 0,0.28011 0.077739,0.35984 0.079841,0.0798 0.3214628,0.0798 h 0.3971013 v 0.31485 h -0.3971013 q -0.4475267,0 -0.617713,-0.16152 -0.1701861,-0.16357 -0.1701861,-0.59291 v -1.24308 H -9.892892 v -0.29237 h 0.2836438 v -0.65017 z"
           style="stroke-width:0.08423072"
           id="path905"
           inkscape:connector-curvature="0" />
      </g>
      <g
         aria-label="EOC"
         transform="matrix(0.92850116,-0.04062264,0.07072241,0.55478753,21.059925,105.24758)"
         style="font-style:normal;font-weight:normal;font-size:4.51245451px;line-height:1.25;font-family:sans-serif;letter-spacing:0px;word-spacing:0px;fill:#000000;fill-opacity:1;stroke:none;stroke-width:0.029848"
         id="text984">
        <path
           d="m -27.470714,176.45352 1.520041,0.0298 0.06553,0.6033 -1.09868,-0.0615 0.09506,0.81721 1.261873,-0.0214 0.01859,0.37334 -1.308601,0.17481 0.05915,1.18807 0.802684,-0.34312 0.596104,0.15624 0.01859,0.37332 -1.77057,0.23654 z"
           style="stroke-width:0.02732515"
           id="path986"
           inkscape:connector-curvature="0"
           sodipodi:nodetypes="cccccccccccccc" />
        <path
           d="m -24.039054,174.92144 c -0.25267,-0.0244 -0.450128,0.095 -0.592375,0.35824 -0.141099,0.26338 -0.205558,0.63469 -0.193376,1.11392 0.01214,0.47753 0.09582,0.86232 0.251027,1.15437 0.156365,0.29215 0.360881,0.45045 0.613549,0.4749 0.25267,0.0244 0.44898,-0.0951 0.588929,-0.35859 0.141099,-0.26337 0.05325,-0.63383 0.04111,-1.11137 -0.01218,-0.47923 0.05645,-0.86487 -0.09876,-1.15691 -0.154066,-0.29194 -0.357434,-0.45013 -0.610104,-0.47457 z m -0.01059,-0.41657 c 0.360629,0.0349 0.653443,0.2414 0.878442,0.6196 0.224956,0.3765 0.192723,0.73972 0.207963,1.33917 0.01519,0.59777 0.0717,1.18962 -0.135134,1.52605 -0.206881,0.33473 -0.490637,0.48463 -0.851269,0.44972 -0.361777,-0.035 -0.655717,-0.2408 -0.88182,-0.61739 -0.224958,-0.37649 -0.345053,-0.86447 -0.360284,-1.46394 -0.01523,-0.59946 0.08059,-1.06655 0.287464,-1.40128 0.207985,-0.33631 0.492868,-0.48695 0.854649,-0.45192 z"
           style="stroke-width:0.028303"
           id="path988"
           inkscape:connector-curvature="0"
           sodipodi:nodetypes="cccccccccccccccccccc" />
        <path
           d="m -20.699289,174.39827 0.07068,0.50696 c -0.121464,-0.0822 -0.244513,-0.12167 -0.369145,-0.11832 -0.123648,0.003 -0.249483,0.048 -0.377504,0.135 -0.252105,0.17197 -0.257734,0.24015 -0.356934,0.58061 -0.09942,0.33889 -0.286415,0.93119 -0.220936,1.40085 0.06526,0.46808 0.18222,0.78099 0.350882,0.93873 0.168443,0.15618 0.378715,0.14827 0.63082,-0.0237 0.128023,-0.0874 0.24346,-0.20691 0.346312,-0.35873 0.103838,-0.1525 0.195473,-0.33837 0.274905,-0.55763 l 0.07002,0.50219 c -0.08846,0.18544 -0.187303,0.34669 -0.296529,0.48375 -0.108242,0.13638 -0.22736,0.2489 -0.357352,0.33757 -0.333841,0.22772 -0.917214,0.28988 -1.15504,0.0925 -0.238046,-0.19904 -0.09924,-0.63039 -0.178655,-1.2 -0.07963,-0.5712 -0.04633,-1.08652 0.0999,-1.54596 0.146021,-0.46102 0.385952,-0.80539 0.719793,-1.03311 0.131962,-0.09 0.260027,-0.1461 0.384193,-0.16825 0.124929,-0.0244 0.246457,-0.0153 0.364583,0.0276 z"
           style="stroke-width:0.02658074"
           id="path990"
           inkscape:connector-curvature="0"
           sodipodi:nodetypes="cccccccccccccccccccc" />
      </g>
    </g>
    <text
       id="text983"
       y="224.61163"
       x="31.011026"
       style="font-style:normal;font-weight:normal;font-size:10.58333302px;line-height:1.25;font-family:sans-serif;letter-spacing:0px;word-spacing:0px;fill:#000000;fill-opacity:1;stroke:none;stroke-width:0.26458332"
       xml:space="preserve"><tspan
         style="stroke-width:0.26458332"
         y="233.9754"
         x="31.011026"
         id="tspan981"
         sodipodi:role="line" /></text>
    <g
       aria-label="father &amp; son"
       transform="matrix(1.0190173,0,0,0.9813376,0.5291667,0.52916667)"
       style="font-style:normal;font-weight:normal;font-size:8.01353455px;line-height:1.25;font-family:sans-serif;letter-spacing:0px;word-spacing:0px;fill:#000000;fill-opacity:1;stroke:none;stroke-width:0.20033836"
       id="text1057" />
    <g
       id="g8072"
       transform="matrix(0.3595681,0,0,0.26458333,6.2653251,289.45955)">
      <g
         style="display:inline"
         inkscape:label="Layer 1"
         id="layer4" />
      <path
         id="rect5872"
         d="m 11.987289,9.3234482 h 7.991524 v 3.9957608 h -7.991524 z"
         style="opacity:1;fill:#000000;fill-opacity:1;stroke:#000000;stroke-width:0;stroke-miterlimit:4;stroke-dasharray:none;stroke-opacity:1"
         inkscape:connector-curvature="0" />
      <path
         id="rect5874"
         d="m 14.667374,10.662096 h 3.995763 v 1.331921 h -3.995763 z"
         style="opacity:1;fill:#ffffff;fill-opacity:0.98571424;stroke:#000000;stroke-width:0;stroke-miterlimit:4;stroke-dasharray:none;stroke-opacity:1"
         inkscape:connector-curvature="0" />
      <path
         id="rect5878"
         d="m -29.323654,9.3234482 h 7.989551 v 3.9957608 h -7.989551 z"
         style="opacity:1;fill:#000000;fill-opacity:1;stroke:#000000;stroke-width:0;stroke-miterlimit:4;stroke-dasharray:none;stroke-opacity:1"
         transform="scale(-1,1)"
         inkscape:connector-curvature="0" />
      <path
         id="rect5880"
         d="m -26.64423,10.662096 h 3.994777 v 1.331921 h -3.994777 z"
         style="opacity:1;fill:#ffffff;fill-opacity:0.98571424;stroke:#000000;stroke-width:0;stroke-miterlimit:4;stroke-dasharray:none;stroke-opacity:1"
         transform="scale(-1,1)"
         inkscape:connector-curvature="0" />
      <path
         id="rect5882"
         d="m 19.995058,14.667374 h 1.331921 v 3.995762 h -1.331921 z"
         style="opacity:1;fill:#000000;fill-opacity:1;stroke:#000000;stroke-width:0;stroke-miterlimit:4;stroke-dasharray:none;stroke-opacity:1"
         inkscape:connector-curvature="0" />
      <path
         id="rect5884"
         d="m 21.326979,17.331215 h 1.315677 v 1.33192 h -1.315677 z"
         style="opacity:1;fill:#000000;fill-opacity:1;stroke:#000000;stroke-width:0;stroke-miterlimit:4;stroke-dasharray:none;stroke-opacity:1"
         inkscape:connector-curvature="0" />
      <path
         id="rect5886"
         d="m 11.954803,20.011301 h 2.696328 v 2.663842 h -2.696328 z"
         style="opacity:1;fill:#001800;fill-opacity:1;stroke:#000000;stroke-width:0;stroke-miterlimit:4;stroke-dasharray:none;stroke-opacity:1"
         inkscape:connector-curvature="0" />
      <path
         id="rect5888"
         d="m 27.970341,20.011301 h 2.696327 v 2.663842 h -2.696327 z"
         style="opacity:1;fill:#001800;fill-opacity:1;stroke:#000000;stroke-width:0;stroke-miterlimit:4;stroke-dasharray:none;stroke-opacity:1"
         inkscape:connector-curvature="0" />
      <path
         id="rect5890"
         d="m 14.651131,20.011301 h 13.351695 v 1.33192 H 14.651131 Z"
         style="opacity:1;fill:#001800;fill-opacity:1;stroke:#000000;stroke-width:0;stroke-miterlimit:4;stroke-dasharray:none;stroke-opacity:1"
         inkscape:connector-curvature="0" />
    </g>
  </g>
</svg>
