<?xml version="1.0" encoding="UTF-8" standalone="no"?>
<!-- Created with Inkscape (http://www.inkscape.org/) -->

<svg
   xmlns:dc="http://purl.org/dc/elements/1.1/"
   xmlns:cc="http://creativecommons.org/ns#"
   xmlns:rdf="http://www.w3.org/1999/02/22-rdf-syntax-ns#"
   xmlns:svg="http://www.w3.org/2000/svg"
   xmlns="http://www.w3.org/2000/svg"
   xmlns:sodipodi="http://sodipodi.sourceforge.net/DTD/sodipodi-0.dtd"
   xmlns:inkscape="http://www.inkscape.org/namespaces/inkscape"
   width="60"
   height="380"
   viewBox="0 0 15.875 100.54167"
   version="1.1"
   id="svg8"
   inkscape:version="0.92.2 5c3e80d, 2017-08-06"
   sodipodi:docname="ComputerscareHorseADoodleDooPanel.svg"
   style="enable-background:new">
  <defs
     id="defs2" />
  <sodipodi:namedview
     id="base"
     pagecolor="#ffffff"
     bordercolor="#666666"
     borderopacity="1.0"
     inkscape:pageopacity="0.0"
     inkscape:pageshadow="2"
     inkscape:zoom="2.0000001"
     inkscape:cx="25.174513"
     inkscape:cy="87.058115"
     inkscape:document-units="mm"
     inkscape:current-layer="g1669"
     showgrid="false"
     units="px"
     inkscape:snap-bbox="true"
     inkscape:snap-page="true"
     inkscape:bbox-nodes="true"
     inkscape:snap-bbox-edge-midpoints="true"
     inkscape:window-width="1440"
     inkscape:window-height="856"
     inkscape:window-x="0"
     inkscape:window-y="0"
     inkscape:window-maximized="0"
     inkscape:snap-global="false"
     showguides="false"
     inkscape:lockguides="false" />
  <metadata
     id="metadata5">
    <rdf:RDF>
      <cc:Work
         rdf:about="">
        <dc:format>image/svg+xml</dc:format>
        <dc:type
           rdf:resource="http://purl.org/dc/dcmitype/StillImage" />
        <dc:title></dc:title>
      </cc:Work>
    </rdf:RDF>
  </metadata>
  <g
     inkscape:label="Layer 1"
     inkscape:groupmode="layer"
     id="layer1"
     transform="translate(0,-196.45832)"
     style="display:none">
    <path
       style="opacity:1;vector-effect:none;fill:#f0f0f0;fill-opacity:1;fill-rule:evenodd;stroke:none;stroke-width:0.48607069;stroke-linecap:butt;stroke-linejoin:round;stroke-miterlimit:4;stroke-dasharray:none;stroke-dashoffset:0;stroke-opacity:1;paint-order:normal"
       d="M 0,196.45831 H 23.8125 V 296.99999 H 0 Z"
       id="rect817"
       inkscape:connector-curvature="0" />
    <text
       xml:space="preserve"
       style="font-style:normal;font-weight:normal;font-size:10.58333302px;line-height:1.25;font-family:sans-serif;letter-spacing:0px;word-spacing:0px;fill:#000000;fill-opacity:1;stroke:none;stroke-width:0.26458332"
       x="8.2147436"
       y="295.57718"
       id="text1490"
       transform="rotate(1.4468834)"><tspan
         sodipodi:role="line"
         id="tspan1488"
         x="8.2147436"
         y="295.57718"
         style="font-style:normal;font-variant:normal;font-weight:normal;font-stretch:normal;font-size:2.82222223px;font-family:sans-serif;-inkscape-font-specification:'sans-serif, Normal';font-variant-ligatures:normal;font-variant-caps:normal;font-variant-numeric:normal;font-feature-settings:normal;text-align:start;writing-mode:lr-tb;text-anchor:start;stroke-width:0.26458332">computerscare</tspan></text>
    <text
       transform="rotate(-5.9989835)"
       id="text1494"
       y="288.0314"
       x="-28.710276"
       style="font-style:normal;font-weight:normal;font-size:10.58333302px;line-height:1.25;font-family:sans-serif;letter-spacing:0px;word-spacing:0px;fill:#000000;fill-opacity:1;stroke:none;stroke-width:0.26458332"
       xml:space="preserve"><tspan
         style="font-style:normal;font-variant:normal;font-weight:normal;font-stretch:normal;font-size:2.82222223px;font-family:sans-serif;-inkscape-font-specification:'sans-serif, Normal';font-variant-ligatures:normal;font-variant-caps:normal;font-variant-numeric:normal;font-feature-settings:normal;text-align:start;writing-mode:lr-tb;text-anchor:start;stroke-width:0.26458332"
         y="288.0314"
         x="-28.710276"
         id="tspan1492"
         sodipodi:role="line">trg</tspan></text>
    <text
       xml:space="preserve"
       style="font-style:normal;font-weight:normal;font-size:10.58333302px;line-height:1.25;font-family:sans-serif;letter-spacing:0px;word-spacing:0px;fill:#000000;fill-opacity:1;stroke:none;stroke-width:0.26458332"
       x="20.711658"
       y="288.87244"
       id="text1498"
       transform="rotate(1.9714728)"><tspan
         sodipodi:role="line"
         id="tspan1496"
         x="20.711658"
         y="288.87244"
         style="font-style:normal;font-variant:normal;font-weight:normal;font-stretch:normal;font-size:2.82222223px;font-family:sans-serif;-inkscape-font-specification:'sans-serif, Normal';font-variant-ligatures:normal;font-variant-caps:normal;font-variant-numeric:normal;font-feature-settings:normal;text-align:start;writing-mode:lr-tb;text-anchor:start;stroke-width:0.26458332">in</tspan></text>
    <text
       transform="rotate(0.49746114)"
       id="text1521"
       y="289.16214"
       x="20.314623"
       style="font-style:normal;font-weight:normal;font-size:10.58333302px;line-height:1.25;font-family:sans-serif;letter-spacing:0px;word-spacing:0px;fill:#000000;fill-opacity:1;stroke:none;stroke-width:0.26458332"
       xml:space="preserve"><tspan
         style="font-style:normal;font-variant:normal;font-weight:normal;font-stretch:normal;font-size:3.17499995px;font-family:sans-serif;-inkscape-font-specification:'sans-serif, Normal';font-variant-ligatures:normal;font-variant-caps:normal;font-variant-numeric:normal;font-feature-settings:normal;text-align:start;writing-mode:lr-tb;text-anchor:start;stroke-width:0.26458332"
         y="289.16214"
         x="20.314623"
         id="tspan1519"
         sodipodi:role="line">clr</tspan></text>
    <text
       transform="matrix(1.0139335,-0.02825079,0.06854811,0.98434808,0,0)"
       id="text1645"
       y="204.61243"
       x="-10.296249"
       style="font-style:normal;font-weight:normal;font-size:10.74719143px;line-height:1.25;font-family:sans-serif;letter-spacing:0px;word-spacing:0px;fill:#000000;fill-opacity:1;stroke:none;stroke-width:0.26867977"
       xml:space="preserve"><tspan
         style="font-style:normal;font-variant:normal;font-weight:normal;font-stretch:normal;font-size:5.01535606px;font-family:sans-serif;-inkscape-font-specification:'sans-serif, Normal';font-variant-ligatures:normal;font-variant-caps:normal;font-variant-numeric:normal;font-feature-settings:normal;text-align:start;writing-mode:lr-tb;text-anchor:start;stroke-width:0.26867977"
         y="204.61243"
         x="-10.296249"
         id="tspan1643"
         sodipodi:role="line">debug</tspan></text>
  </g>
  <g
     inkscape:groupmode="layer"
     id="layer3"
     inkscape:label="bg" />
  <g
     style="display:inline"
     transform="translate(0,-196.45832)"
     id="g1669"
     inkscape:groupmode="layer"
     inkscape:label="Layer 1 copy">
    <path
       style="fill:#fcfcfc;fill-opacity:1;stroke:#666666;stroke-width:0.92207193;stroke-linecap:round;stroke-linejoin:round;stroke-miterlimit:4;stroke-dasharray:none;stroke-opacity:1;paint-order:stroke fill markers"
       d="m 1.4662713,254.0889 -0.2318916,-36.24253 1.3491347,0.65764 12.6271306,0.20928 0.218116,34.43767 z"
       id="rect1127"
       inkscape:connector-curvature="0"
       sodipodi:nodetypes="cccccc" />
    <rect
       style="fill:#fcfcfc;fill-opacity:1;stroke:#666666;stroke-width:0.26300001;stroke-linecap:round;stroke-linejoin:round;stroke-miterlimit:4;stroke-dasharray:none;stroke-opacity:1;paint-order:stroke fill markers"
       id="rect4821"
       width="15.668674"
       height="13.6107"
       x="0.093544334"
       y="283.3425" />
    <rect
       style="fill:#fcfcfc;fill-opacity:1;stroke:#666666;stroke-width:0.29740328;stroke-linecap:round;stroke-linejoin:round;stroke-miterlimit:4;stroke-dasharray:none;stroke-opacity:1;paint-order:stroke fill markers"
       id="rect1125"
       width="12.070284"
       height="46.313881"
       x="2.3323057"
       y="238.41199" />
    <rect
       style="fill:#fcfcfc;fill-opacity:1;stroke:#666666;stroke-width:0.22220333;stroke-linecap:round;stroke-linejoin:round;stroke-miterlimit:4;stroke-dasharray:none;stroke-opacity:1;paint-order:stroke fill markers"
       id="rect1123"
       width="14.857461"
       height="29.14496"
       x="0.83949763"
       y="257.75513" />
    <g
       aria-label="computerscare"
       transform="matrix(0.60064444,-0.07085766,0.25618802,1.4708996,-78.364238,-142.16422)"
       style="font-style:normal;font-weight:normal;font-size:10.58333302px;line-height:1.25;font-family:sans-serif;letter-spacing:0px;word-spacing:0px;fill:#000000;fill-opacity:1;stroke:none;stroke-width:0.26458332"
       id="text1651">
      <path
         d="m 7.6735411,295.17124 0.1069513,0.46705 q -0.2597552,-0.0977 -0.5087927,-0.13532 -0.2466773,-0.0405 -0.4855917,-0.0206 -0.5342976,0.0423 -0.7596009,0.37717 -0.2254922,0.33092 -0.098013,0.88761 0.1274724,0.55659 0.4941078,0.84208 0.3660168,0.28276 0.9007598,0.2392 0.2393458,-0.0213 0.4590497,-0.0954 0.2223135,-0.0788 0.4286028,-0.21486 l 0.10571,0.4616 q -0.207646,0.11663 -0.44443,0.18539 -0.2337461,0.0687 -0.5116054,0.0914 -0.7559008,0.0625 -1.2997943,-0.33395 -0.5439888,-0.39548 -0.7118791,-1.12863 -0.1703859,-0.74401 0.1800961,-1.20683 0.3534704,-0.46303 1.1361666,-0.52677 0.2541475,-0.0203 0.5070851,0.009 0.2525697,0.0263 0.5013415,0.10333 z"
         style="font-style:normal;font-variant:normal;font-weight:normal;font-stretch:normal;font-size:2.82222223px;font-family:sans-serif;-inkscape-font-specification:'sans-serif, Normal';font-variant-ligatures:normal;font-variant-caps:normal;font-variant-numeric:normal;font-feature-settings:normal;text-align:start;writing-mode:lr-tb;text-anchor:start;stroke-width:0.55191374"
         id="path1701"
         inkscape:connector-curvature="0" />
      <path
         d="m 9.9464593,293.50838 q -0.2237141,0.0309 -0.3927104,0.27281 -0.1686789,0.24008 -0.2362989,0.62842 -0.067621,0.38834 0.021828,0.59476 0.091297,0.20429 0.3165043,0.17329 0.2221783,-0.0306 0.3912017,-0.27261 0.169014,-0.24201 0.236299,-0.62841 0.06695,-0.38447 -0.02401,-0.5907 -0.09062,-0.20816 -0.3128137,-0.17756 z m 0.052484,-0.30139 q 0.3627417,-0.0499 0.5173437,0.22293 0.154584,0.27291 0.06173,0.80614 -0.09252,0.53132 -0.352413,0.86314 -0.2595559,0.3299 -0.6223088,0.37984 -0.3642764,0.0502 -0.5188573,-0.22272 -0.1527376,-0.27503 -0.060218,-0.80634 0.092858,-0.53324 0.3509019,-0.86294 0.2595555,-0.3299 0.6238215,-0.38005 z"
         style="font-style:normal;font-variant:normal;font-weight:normal;font-stretch:normal;font-size:2.82222223px;font-family:sans-serif;-inkscape-font-specification:'sans-serif, Normal';font-variant-ligatures:normal;font-variant-caps:normal;font-variant-numeric:normal;font-feature-settings:normal;text-align:start;writing-mode:lr-tb;text-anchor:start;stroke-width:0.32414466"
         id="path1703"
         inkscape:connector-curvature="0" />
      <path
         d="m 12.62032,294.09674 q 0.269845,-0.58799 0.491885,-0.87667 0.222032,-0.28866 0.414744,-0.30705 0.259371,-0.0246 0.233905,0.53581 -0.02408,0.55572 -0.329578,1.60978 l -0.913728,3.15294 -0.274088,0.0256 0.905618,-3.12498 q 0.217604,-0.75089 0.23857,-1.10673 0.02098,-0.3558 -0.152457,-0.33938 -0.211807,0.0195 -0.46334,0.47475 -0.251421,0.45476 -0.47309,1.21966 l -0.855629,2.9524 -0.274085,0.0256 0.905618,-3.12499 q 0.218967,-0.75557 0.23857,-1.10674 0.02098,-0.35576 -0.155424,-0.33909 -0.208868,0.0194 -0.461729,0.47915 -0.251423,0.45475 -0.471742,1.21501 l -0.855615,2.95235 -0.274081,0.0256 1.513833,-5.22381 0.274084,-0.0256 -0.235173,0.8115 q 0.232571,-0.48916 0.429232,-0.7301 0.196581,-0.24063 0.37594,-0.25771 0.180928,-0.0176 0.223028,0.25999 0.04373,0.27685 -0.05507,0.8217 z"
         style="font-style:normal;font-variant:normal;font-weight:normal;font-stretch:normal;font-size:2.82222223px;font-family:sans-serif;-inkscape-font-specification:'sans-serif, Normal';font-variant-ligatures:normal;font-variant-caps:normal;font-variant-numeric:normal;font-feature-settings:normal;text-align:start;writing-mode:lr-tb;text-anchor:start;stroke-width:0.49782816"
         id="path1705"
         inkscape:connector-curvature="0" />
      <path
         d="m 14.194053,294.39558 -0.116432,1.14614 -0.273689,0.004 0.303039,-2.98303 0.273689,-0.004 -0.03332,0.32801 q 0.105411,-0.19423 0.245004,-0.2888 0.141267,-0.0965 0.323234,-0.0992 0.301797,-0.005 0.457926,0.30525 0.157609,0.30975 0.10586,0.81916 -0.05175,0.50939 -0.272866,0.8248 -0.219637,0.31539 -0.521434,0.31991 -0.181967,0.003 -0.304231,-0.0879 -0.120586,-0.0926 -0.186786,-0.28427 z m 1.002747,-0.76829 q 0.03979,-0.39171 -0.06194,-0.61174 -0.100053,-0.22198 -0.316046,-0.21875 -0.215991,0.003 -0.362999,0.22891 -0.145331,0.22373 -0.185124,0.61543 -0.03979,0.3917 0.06026,0.61368 0.101729,0.22003 0.317721,0.2168 0.215993,-0.003 0.361324,-0.22696 0.147007,-0.22568 0.186798,-0.61737 z"
         style="font-style:normal;font-variant:normal;font-weight:normal;font-stretch:normal;font-size:2.82222223px;font-family:sans-serif;-inkscape-font-specification:'sans-serif, Normal';font-variant-ligatures:normal;font-variant-caps:normal;font-variant-numeric:normal;font-feature-settings:normal;text-align:start;writing-mode:lr-tb;text-anchor:start;stroke-width:0.32414466"
         id="path1707"
         inkscape:connector-curvature="0" />
      <path
         d="m 15.817295,294.59929 0.133589,-1.31662 0.279679,-0.0948 -0.13221,1.30302 q -0.03133,0.30876 0.04714,0.43231 0.07867,0.12157 0.267104,0.0581 0.226411,-0.0761 0.375861,-0.305 0.150937,-0.22909 0.183252,-0.54758 l 0.125112,-1.23308 0.27968,-0.0948 -0.220678,2.17493 -0.279678,0.0948 0.03389,-0.33401 q -0.121926,0.23241 -0.26703,0.37515 -0.143377,0.14014 -0.321206,0.2003 -0.293335,0.0992 -0.421647,-0.0827 -0.128329,-0.18177 -0.08282,-0.63032 z"
         style="font-style:normal;font-variant:normal;font-weight:normal;font-stretch:normal;font-size:2.82222223px;font-family:sans-serif;-inkscape-font-specification:'sans-serif, Normal';font-variant-ligatures:normal;font-variant-caps:normal;font-variant-numeric:normal;font-feature-settings:normal;text-align:start;writing-mode:lr-tb;text-anchor:start;stroke-width:0.32414466"
         id="path1709"
         inkscape:connector-curvature="0" />
      <path
         d="m 18.344702,293.59556 v 0.43822 h 0.522277 v 0.19706 h -0.522277 v 0.83784 q 0,0.18879 0.05099,0.24254 0.05237,0.0537 0.21084,0.0537 h 0.260449 v 0.21222 H 18.60653 q -0.293522,0 -0.405144,-0.10887 -0.111621,-0.11024 -0.111621,-0.39963 V 294.2308 H 17.90373 v -0.19706 h 0.186035 v -0.43822 z"
         style="font-style:normal;font-variant:normal;font-weight:normal;font-stretch:normal;font-size:2.82222223px;font-family:sans-serif;-inkscape-font-specification:'sans-serif, Normal';font-variant-ligatures:normal;font-variant-caps:normal;font-variant-numeric:normal;font-feature-settings:normal;text-align:start;writing-mode:lr-tb;text-anchor:start;stroke-width:0.26458332"
         id="path1711"
         inkscape:connector-curvature="0" />
      <path
         d="m 20.508346,294.20141 2.1e-5,0.12482 -1.158332,0.29657 q 0.01648,0.25929 0.156153,0.36223 0.141049,0.1012 0.391609,0.037 0.145134,-0.0376 0.280676,-0.10793 0.136913,-0.0711 0.271081,-0.17758 l 4e-5,0.24133 q -0.135541,0.093 -0.277931,0.15998 -0.14239,0.0669 -0.288893,0.10441 -0.366941,0.094 -0.581938,-0.0673 -0.213628,-0.16169 -0.213688,-0.53061 -6.1e-5,-0.38138 0.202543,-0.65655 0.203972,-0.2769 0.549007,-0.36523 0.309435,-0.0789 0.488832,0.0774 0.180765,0.15485 0.18082,0.50156 z m -0.251942,-0.0103 q -0.0028,-0.2087 -0.116435,-0.30445 -0.112293,-0.0961 -0.298502,-0.0484 -0.210854,0.0537 -0.338169,0.20723 -0.125945,0.15291 -0.145079,0.37694 z"
         style="font-style:normal;font-variant:normal;font-weight:normal;font-stretch:normal;font-size:2.82222223px;font-family:sans-serif;-inkscape-font-specification:'sans-serif, Normal';font-variant-ligatures:normal;font-variant-caps:normal;font-variant-numeric:normal;font-feature-settings:normal;text-align:start;writing-mode:lr-tb;text-anchor:start;stroke-width:0.26458332"
         id="path1713"
         inkscape:connector-curvature="0" />
      <path
         d="m 21.832517,294.2708 q -0.04272,-0.0248 -0.09371,-0.0358 -0.04961,-0.0124 -0.110243,-0.0124 -0.214974,0 -0.330729,0.14056 -0.114377,0.13918 -0.114377,0.40101 v 0.81304 h -0.254937 v -1.5434 h 0.254937 v 0.23977 q 0.07993,-0.14056 0.208084,-0.20808 0.128157,-0.0689 0.311436,-0.0689 0.02618,0 0.05788,0.004 0.03169,0.003 0.07028,0.01 z"
         style="font-style:normal;font-variant:normal;font-weight:normal;font-stretch:normal;font-size:2.82222223px;font-family:sans-serif;-inkscape-font-specification:'sans-serif, Normal';font-variant-ligatures:normal;font-variant-caps:normal;font-variant-numeric:normal;font-feature-settings:normal;text-align:start;writing-mode:lr-tb;text-anchor:start;stroke-width:0.26458332"
         id="path1715"
         inkscape:connector-curvature="0" />
      <path
         d="m 21.917438,292.35903 -0.03488,0.23723 q -0.09833,-0.0702 -0.208837,-0.11429 -0.110508,-0.0442 -0.233212,-0.0622 -0.186783,-0.0275 -0.289279,0.016 -0.101136,0.0437 -0.117973,0.15816 -0.01283,0.0873 0.04655,0.14753 0.05959,0.0589 0.254751,0.13358 l 0.08309,0.0317 q 0.258799,0.0966 0.355164,0.21797 0.09793,0.12025 0.07046,0.30705 -0.03127,0.21268 -0.218575,0.31189 -0.185938,0.0994 -0.480428,0.0561 -0.122703,-0.018 -0.252707,-0.0622 -0.128844,-0.0426 -0.269062,-0.11204 l 0.03809,-0.25904 q 0.128445,0.0927 0.258001,0.14937 0.129765,0.0553 0.262013,0.0747 0.17724,0.0261 0.281492,-0.0199 0.104454,-0.0473 0.120693,-0.15775 0.01504,-0.10226 -0.04648,-0.16702 -0.06015,-0.0645 -0.285871,-0.14928 l -0.08424,-0.0333 q -0.225922,-0.0833 -0.314703,-0.19949 -0.08858,-0.11748 -0.06252,-0.29473 0.03167,-0.21541 0.201614,-0.31021 0.169938,-0.0948 0.450794,-0.0535 0.139065,0.0204 0.258757,0.059 0.119693,0.0385 0.217301,0.0946 z"
         style="font-style:normal;font-variant:normal;font-weight:normal;font-stretch:normal;font-size:2.82222223px;font-family:sans-serif;-inkscape-font-specification:'sans-serif, Normal';font-variant-ligatures:normal;font-variant-caps:normal;font-variant-numeric:normal;font-feature-settings:normal;text-align:start;writing-mode:lr-tb;text-anchor:start;stroke-width:0.26458332"
         id="path1717"
         inkscape:connector-curvature="0" />
      <path
         d="m 23.75281,292.59831 c -0.08645,0.15984 -0.310959,-0.0317 -0.546114,0.002 -0.163883,0.0136 -0.286821,0.0763 -0.368812,0.1882 -0.08207,0.11097 -0.115323,0.2603 -0.09977,0.44799 0.01555,0.18768 0.07297,0.32995 0.172262,0.42682 0.09921,0.096 0.230762,0.13713 0.394645,0.12355 0.07324,-0.006 0.144777,-0.0216 0.2146,-0.0468 0.07066,-0.0261 0.140065,-0.0618 0.208213,-0.10716 l 0.01935,0.23346 c -0.06777,0.0388 -0.138962,0.0696 -0.213589,0.0923 -0.07371,0.0227 -0.153138,0.0376 -0.238284,0.0446 -0.231635,0.0192 -0.421693,-0.0383 -0.570174,-0.17261 -0.14848,-0.13426 -0.232962,-0.32499 -0.253446,-0.57219 -0.02079,-0.25087 0.03153,-0.45386 0.15695,-0.60898 0.126338,-0.1552 0.309444,-0.24274 0.549319,-0.26262 0.07782,-0.007 0.154496,-0.005 0.230021,0.006 0.07545,0.009 0.411602,0.13108 0.483843,0.15738 z"
         style="font-style:normal;font-variant:normal;font-weight:normal;font-stretch:normal;font-size:2.82222223px;font-family:sans-serif;-inkscape-font-specification:'sans-serif, Normal';font-variant-ligatures:normal;font-variant-caps:normal;font-variant-numeric:normal;font-feature-settings:normal;text-align:start;writing-mode:lr-tb;text-anchor:start;stroke-width:0.26458332"
         id="path1719"
         inkscape:connector-curvature="0"
         sodipodi:nodetypes="cccccccccccccccccc" />
      <path
         d="m 25.018614,294.15331 c -0.322925,0.0369 -0.560556,0.10695 -0.712911,0.21046 -0.152364,0.1035 -0.26206,0.2629 -0.329076,0.4781 -0.05348,0.17155 -0.04966,0.30279 0.01143,0.39373 0.06308,0.089 0.174996,0.12418 0.335714,0.10598 0.221572,-0.0253 0.428408,-0.14007 0.620489,-0.34422 0.194095,-0.20613 0.340205,-0.46672 0.438328,-0.78176 l 0.03345,-0.1076 z m 0.859326,-0.29042 -0.5225,1.67759 -0.399634,0.0454 0.138993,-0.4463 c -0.146847,0.18892 -0.301683,0.33404 -0.46451,0.43533 -0.162271,0.0995 -0.341892,0.16049 -0.538852,0.18299 -0.249106,0.0285 -0.421324,-0.033 -0.516673,-0.18416 -0.09338,-0.15309 -0.09591,-0.37142 -0.0076,-0.65497 0.103022,-0.33078 0.27193,-0.59058 0.506724,-0.7794 0.236244,-0.18899 0.536104,-0.30422 0.89958,-0.34567 l 0.560447,-0.064 0.01464,-0.0471 c 0.06923,-0.22228 0.06183,-0.38687 -0.02219,-0.49376 -0.08203,-0.1088 -0.23238,-0.15075 -0.451042,-0.12579 -0.139039,0.0161 -0.280695,0.0515 -0.425026,0.10674 -0.144306,0.0553 -0.247216,0.029 -0.393955,0.12347 l 0.09638,-0.34521 c 0.167501,-0.0848 0.325212,-0.15172 0.473149,-0.20074 0.148467,-0.0507 0.287872,-0.0834 0.418243,-0.0984 0.351917,-0.0402 0.580402,0.0401 0.685466,0.24088 0.105088,0.20071 0.08785,0.5251 -0.0517,0.97315 z"
         style="font-style:normal;font-variant:normal;font-weight:normal;font-stretch:normal;font-size:2.82222223px;font-family:sans-serif;-inkscape-font-specification:'sans-serif, Normal';font-variant-ligatures:normal;font-variant-caps:normal;font-variant-numeric:normal;font-feature-settings:normal;text-align:start;writing-mode:lr-tb;text-anchor:start;stroke-width:0.45028558"
         id="path1721"
         inkscape:connector-curvature="0"
         sodipodi:nodetypes="ccccccccccccccccccccccccccccccc" />
      <path
         d="m 27.811045,294.03187 q -0.04765,-0.0359 -0.114148,-0.0521 -0.06379,-0.0182 -0.149723,-0.0183 -0.304614,-6.2e-4 -0.541819,0.20246 -0.234523,0.20105 -0.370837,0.57993 l -0.423324,1.17649 -0.361236,-7.4e-4 0.803473,-2.23334 0.361237,7.5e-4 -0.124848,0.34694 q 0.186434,-0.20316 0.403183,-0.30051 0.217505,-0.0995 0.47719,-0.0989 0.0371,8e-5 0.07992,0.006 0.04318,0.005 0.09438,0.0146 z"
         style="font-style:normal;font-variant:normal;font-weight:normal;font-stretch:normal;font-size:2.82222223px;font-family:sans-serif;-inkscape-font-specification:'sans-serif, Normal';font-variant-ligatures:normal;font-variant-caps:normal;font-variant-numeric:normal;font-feature-settings:normal;text-align:start;writing-mode:lr-tb;text-anchor:start;stroke-width:0.37900135"
         id="path1723"
         inkscape:connector-curvature="0" />
      <path
         d="m 29.712571,294.7854 -0.06094,0.16877 -1.603439,0.13193 c -0.07023,0.23754 -0.110719,0.28611 -0.02315,0.41121 0.08941,0.12391 0.253311,0.18583 0.491653,0.18595 0.138059,6e-5 0.277401,-0.016 0.418108,-0.0485 0.14201,-0.0325 0.508333,-0.14208 0.659478,-0.20707 l -0.117939,0.32633 c -0.147934,0.0525 -0.514377,0.15339 -0.659762,0.18081 -0.145379,0.0275 -0.287764,0.0411 -0.427099,0.041 -0.349049,-1.8e-4 -0.590562,-0.0978 -0.724584,-0.29298 -0.132697,-0.19514 -0.138963,-0.459 -0.01879,-0.79157 0.12432,-0.34382 0.319099,-0.61634 0.584612,-0.81755 0.267249,-0.20244 0.56498,-0.30358 0.893191,-0.30341 0.29435,1.4e-4 0.493835,0.0916 0.598514,0.27415 0.106411,0.18138 0.103144,0.42835 -0.0098,0.74092 z m -0.322894,-0.1014 c 0.06552,-0.18878 0.06466,-0.33947 -0.0028,-0.45204 -0.06612,-0.1126 -0.187772,-0.16891 -0.364898,-0.16901 -0.200575,-10e-5 -0.381115,0.0543 -0.541512,0.16293 -0.159132,0.1087 -0.116464,0.24257 -0.206093,0.4401 z"
         style="font-style:normal;font-variant:normal;font-weight:normal;font-stretch:normal;font-size:2.82222223px;font-family:sans-serif;-inkscape-font-specification:'sans-serif, Normal';font-variant-ligatures:normal;font-variant-caps:normal;font-variant-numeric:normal;font-feature-settings:normal;text-align:start;writing-mode:lr-tb;text-anchor:start;stroke-width:0.36754596"
         id="path1725"
         inkscape:connector-curvature="0"
         sodipodi:nodetypes="ccccscccsscscscccccsccc" />
    </g>
    <g
       id="g9547"
       transform="matrix(0.44104141,-0.10884571,0.03918652,0.32688517,1.1120098,290.63287)">
      <g
         style="display:inline"
         inkscape:label="Layer 1"
         id="layer4" />
      <path
         id="rect5872"
         d="m 11.987289,9.3234482 h 7.991524 v 3.9957608 h -7.991524 z"
         style="opacity:1;fill:#0f0f00;fill-opacity:1;stroke:#000000;stroke-width:0;stroke-miterlimit:4;stroke-dasharray:none;stroke-opacity:1"
         inkscape:connector-curvature="0" />
      <path
         id="rect5874"
         d="m 14.667374,10.662096 h 3.995763 v 1.331921 h -3.995763 z"
         style="opacity:1;fill:#ffffff;fill-opacity:0.98571424;stroke:#000000;stroke-width:0;stroke-miterlimit:4;stroke-dasharray:none;stroke-opacity:1"
         inkscape:connector-curvature="0" />
      <path
         id="rect5878"
         d="m -29.323654,9.3234482 h 7.989551 v 3.9957608 h -7.989551 z"
         style="opacity:1;fill:#0c0c00;fill-opacity:1;stroke:#000000;stroke-width:0;stroke-miterlimit:4;stroke-dasharray:none;stroke-opacity:1"
         transform="scale(-1,1)"
         inkscape:connector-curvature="0" />
      <path
         id="rect5880"
         d="m 26.64423,10.662096 -3.171232,0.209056 v 1.331921 l 3.171232,-0.209056 z"
         style="opacity:1;fill:#ffffff;fill-opacity:0.98571424;stroke:#000000;stroke-width:0;stroke-miterlimit:4;stroke-dasharray:none;stroke-opacity:1"
         inkscape:connector-curvature="0" />
      <path
         id="rect5882"
         d="m 19.995058,14.667374 h 1.331921 v 3.995762 h -1.331921 z"
         style="opacity:1;fill:#000000;fill-opacity:1;stroke:#000000;stroke-width:0;stroke-miterlimit:4;stroke-dasharray:none;stroke-opacity:1"
         inkscape:connector-curvature="0" />
      <path
         id="rect5884"
         d="m 20.888507,17.21991 2.579094,0.32072 v 1.33192 l -2.579094,-0.32072 z"
         style="opacity:1;fill:#000000;fill-opacity:1;stroke:#000000;stroke-width:0;stroke-miterlimit:4;stroke-dasharray:none;stroke-opacity:1"
         inkscape:connector-curvature="0" />
      <path
         id="rect5886"
         d="m 11.954803,20.011301 h 2.696328 v 2.663842 h -2.696328 z"
         style="opacity:1;fill:#000200;fill-opacity:1;stroke:#000000;stroke-width:0;stroke-miterlimit:4;stroke-dasharray:none;stroke-opacity:1"
         inkscape:connector-curvature="0" />
      <path
         id="rect5888"
         d="m 27.970341,20.011301 h 2.696327 v 2.663842 h -2.696327 z"
         style="opacity:1;fill:#000200;fill-opacity:1;stroke:#000000;stroke-width:0;stroke-miterlimit:4;stroke-dasharray:none;stroke-opacity:1"
         inkscape:connector-curvature="0" />
      <path
         id="rect5890"
         d="m 14.651131,20.011301 h 13.351695 v 1.33192 H 14.651131 Z"
         style="opacity:1;fill:#000200;fill-opacity:1;stroke:#000000;stroke-width:0;stroke-miterlimit:4;stroke-dasharray:none;stroke-opacity:1"
         inkscape:connector-curvature="0" />
    </g>
    <path
       style="fill:#272727;fill-opacity:1;stroke:#666666;stroke-width:0.31103274;stroke-linecap:round;stroke-linejoin:round;stroke-miterlimit:4;stroke-dasharray:none;stroke-opacity:1;paint-order:stroke fill markers"
       d="M 0.11756066,196.46386 H 15.784975 v 21.93488 H 0.11756066 Z"
       id="rect1087"
       inkscape:connector-curvature="0" />
    <g
       aria-label="goly
penerator"
       style="font-style:normal;font-weight:normal;font-size:10.58333302px;line-height:1.25;font-family:sans-serif;letter-spacing:0px;word-spacing:0px;fill:#fcfcfc;fill-opacity:1;stroke:none;stroke-width:0.26458332"
       id="text1092"
       transform="matrix(0.14769597,0,0,0.32814931,12.761234,127.74167)">
      <g
         aria-label="horse-a
doodle
doo"
         transform="scale(1.0880441,0.91908035)"
         style="font-style:normal;font-weight:normal;font-size:23.50690651px;line-height:1.25;font-family:sans-serif;letter-spacing:0px;word-spacing:0px;fill:#f3f3f3;fill-opacity:1;stroke:none;stroke-width:0.15548837"
         id="text4844">
        <path
           d="m -63.244951,238.82665 v 7.75912 h -2.111948 v -7.69025 q 0,-1.825 -0.711635,-2.73176 -0.711635,-0.90676 -2.134905,-0.90676 -1.710219,0 -2.697325,1.09041 -0.987107,1.09041 -0.987107,2.9728 v 7.26556 h -2.123426 v -17.85974 h 2.123426 v 7.00157 q 0.757547,-1.15928 1.779087,-1.73318 1.033019,-0.5739 2.375942,-0.5739 2.215251,0 3.351571,1.37736 1.13632,1.36588 1.13632,4.02877 z"
           style="fill:#f3f3f3;fill-opacity:1;stroke-width:0.15548837"
           id="path4858"
           inkscape:connector-curvature="0" />
        <path
           d="m -52.863918,235.52125 q -1.698742,0 -2.685848,1.33145 -0.987106,1.31996 -0.987106,3.62704 0,2.30707 0.975628,3.63852 0.987106,1.31997 2.697326,1.31997 1.687263,0 2.674369,-1.33145 0.987107,-1.33145 0.987107,-3.62704 0,-2.28412 -0.987107,-3.61557 -0.987106,-1.34292 -2.674369,-1.34292 z m 0,-1.79057 q 2.754715,0 4.327199,1.79057 1.572483,1.79056 1.572483,4.95849 0,3.15644 -1.572483,4.95849 -1.572484,1.79056 -4.327199,1.79056 -2.766194,0 -4.338677,-1.79056 -1.561006,-1.80205 -1.561006,-4.95849 0,-3.16793 1.561006,-4.95849 1.572483,-1.79057 4.338677,-1.79057 z"
           style="fill:#f3f3f3;fill-opacity:1;stroke-width:0.15548837"
           id="path4860"
           inkscape:connector-curvature="0" />
        <path
           d="m -37.189932,235.70464 q -0.355818,-0.2066 -0.780503,-0.29842 -0.413208,-0.10331 -0.918239,-0.10331 -1.790565,0 -2.754715,1.17076 -0.952673,1.15927 -0.952673,3.34009 v 6.77201 h -2.123426 v -12.85534 h 2.123426 v 1.99717 q 0.665723,-1.17076 1.733175,-1.73318 1.067453,-0.5739 2.594024,-0.5739 0.218082,0 0.482076,0.0344 0.263993,0.023 0.585377,0.0803 z"
           style="fill:#f3f3f3;fill-opacity:1;stroke-width:0.15548837"
           id="path4862"
           inkscape:connector-curvature="0" />
        <path
           d="m -25.592235,234.41936 v 1.99717 q -0.895282,-0.45912 -1.859433,-0.68868 -0.96415,-0.22956 -1.997168,-0.22956 -1.572484,0 -2.364465,0.48208 -0.780502,0.48207 -0.780502,1.44622 0,0.7346 0.562421,1.15928 0.562421,0.41321 2.261162,0.79198 l 0.723113,0.16069 q 2.249684,0.48208 3.190879,1.36588 0.952672,0.87233 0.952672,2.44481 0,1.79057 -1.423269,2.83506 -1.411792,1.0445 -3.891036,1.0445 -1.033019,0 -2.157861,-0.2066 -1.113364,-0.19513 -2.352986,-0.59686 v -2.18081 q 1.170754,0.60833 2.307074,0.91823 1.136321,0.29843 2.249685,0.29843 1.492137,0 2.295596,-0.50503 0.803459,-0.51651 0.803459,-1.44622 0,-0.86085 -0.585377,-1.31997 -0.573899,-0.45912 -2.536634,-0.88381 l -0.734591,-0.17217 q -1.962735,-0.4132 -2.835061,-1.26258 -0.872327,-0.86084 -0.872327,-2.35298 0,-1.81352 1.285534,-2.80063 1.285534,-0.98711 3.649998,-0.98711 1.170754,0 2.203773,0.17217 1.033018,0.17217 1.905344,0.51651 z"
           style="fill:#f3f3f3;fill-opacity:1;stroke-width:0.15548837"
           id="path4864"
           inkscape:connector-curvature="0" />
        <path
           d="m -10.533123,239.94027 v 1.03302 h -9.710373 q 0.137736,2.18082 1.30849,3.32862 1.182232,1.13632 3.282703,1.13632 1.216666,0 2.352986,-0.29843 1.147798,-0.29843 2.272641,-0.89528 v 1.99716 q -1.136321,0.48208 -2.330031,0.7346 -1.19371,0.25251 -2.421854,0.25251 -3.076099,0 -4.878142,-1.79056 -1.790565,-1.79057 -1.790565,-4.84371 0,-3.15645 1.698741,-5.0044 1.710219,-1.85944 4.602671,-1.85944 2.594024,0 4.097639,1.67579 1.515094,1.66431 1.515094,4.5338 z m -2.111949,-0.61981 q -0.02296,-1.73317 -0.975628,-2.76619 -0.941195,-1.03302 -2.5022,-1.03302 -1.767609,0 -2.835062,0.99858 -1.055974,0.99859 -1.216666,2.81211 z"
           style="fill:#f3f3f3;fill-opacity:1;stroke-width:0.15548837"
           id="path4866"
           inkscape:connector-curvature="0" />
        <path
           d="m 6.1050132,240.12367 q -2.5595899,0 -3.5466963,0.58537 -0.9871064,0.58538 -0.9871064,1.99717 0,1.12484 0.7345908,1.79057 0.7460688,0.65424 2.0201248,0.65424 1.7561312,0 2.8121055,-1.23962 1.0674523,-1.2511 1.0674523,-3.31714 v -0.47059 z m 4.2124198,-0.87233 v 7.33443 H 8.2054839 v -1.95126 q -0.7231129,1.17076 -1.8020431,1.73318 -1.0789303,0.55094 -2.6399358,0.55094 -1.9742129,0 -3.14496701,-1.10189 -1.15927615,-1.11336 -1.15927615,-2.97279 0,-2.16934 1.44622569,-3.27123 1.45770367,-1.10188 4.33867707,-1.10188 h 2.9613193 v -0.20661 q 0,-1.4577 -0.9641505,-2.24968 -0.9526725,-0.80346 -2.6858477,-0.80346 -1.1018862,0 -2.1463826,0.26399 -1.0444963,0.264 -2.00864676,0.79198 v -1.95125 q 1.15927616,-0.44764 2.24968446,-0.66573 1.0904082,-0.22956 2.1234266,-0.22956 2.7891495,0 4.1665073,1.44623 1.3773583,1.44623 1.3773583,4.38459 z"
           style="fill:#f3f3f3;fill-opacity:1;stroke-width:0.15548837"
           id="path4870"
           inkscape:connector-curvature="0" />
        <path
           d="m -64.124852,257.33821 1.677879,-8.33086 2.419062,0.13832 -4.308216,21.3908 -2.419062,-0.13832 0.465155,-2.30955 q -1.039408,1.33113 -2.345166,1.93784 -1.289845,0.59371 -2.920081,0.50049 -2.668855,-0.1526 -3.903137,-2.47589 -1.221138,-2.32253 -0.49018,-5.95182 0.730958,-3.62929 2.849177,-5.76088 2.131364,-2.13083 4.800219,-1.97822 1.630236,0.0932 2.651511,0.83299 1.037187,0.72677 1.522839,2.1451 z m -9.325804,4.90385 q -0.56206,2.79069 0.207968,4.44778 0.785943,1.64409 2.705416,1.75385 1.919471,0.10976 3.342234,-1.40804 1.425534,-1.53154 1.987594,-4.32224 0.562063,-2.79071 -0.223881,-4.4348 -0.783178,-1.65782 -2.70265,-1.76758 -1.919472,-0.10975 -3.345001,1.42177 -1.409617,1.51855 -1.97168,4.30926 z"
           style="fill:#f3f3f3;fill-opacity:1;stroke-width:0.18316481"
           id="path4872"
           inkscape:connector-curvature="0" />
        <path
           d="m -54.858032,256.44607 q -1.698742,0 -2.499983,1.58894 -0.802844,1.57524 -0.480788,4.32847 0.322058,2.75325 1.48355,4.34218 1.171368,1.57524 2.881588,1.57524 1.687263,0 2.488504,-1.58894 0.801244,-1.58893 0.480788,-4.32848 -0.318852,-2.72584 -1.491823,-4.31477 -1.174573,-1.60264 -2.861836,-1.60264 z m -0.249954,-2.13684 q 2.754715,0 4.577153,2.13684 1.822439,2.13685 2.264666,5.91741 0.440626,3.76688 -0.880299,5.91742 -1.32253,2.13684 -4.077245,2.13684 -2.766194,0 -4.588631,-2.13684 -1.812564,-2.15054 -2.25319,-5.91742 -0.442227,-3.78056 0.868823,-5.91741 1.322529,-2.13684 4.088723,-2.13684 z"
           style="fill:#f3f3f3;fill-opacity:1;stroke-width:0.16985925"
           id="path4874"
           inkscape:connector-curvature="0" />
        <path
           d="m -40.487599,256.44607 q -1.698742,0 -2.499983,1.58894 -0.802845,1.57524 -0.480789,4.32847 0.322058,2.75325 1.483551,4.34218 1.171368,1.57524 2.881588,1.57524 1.687263,0 2.488504,-1.58894 0.801244,-1.58893 0.480788,-4.32848 -0.318852,-2.72584 -1.491823,-4.31477 -1.174573,-1.60264 -2.861836,-1.60264 z m -0.249954,-2.13684 q 2.754715,0 4.577153,2.13684 1.822439,2.13685 2.264666,5.91741 0.440626,3.76688 -0.880299,5.91742 -1.32253,2.13684 -4.077245,2.13684 -2.766194,0 -4.588632,-2.13684 -1.812563,-2.15054 -2.253189,-5.91742 -0.442227,-3.78056 0.868822,-5.91741 1.32253,-2.13684 4.088724,-2.13684 z"
           style="fill:#f3f3f3;fill-opacity:1;stroke-width:0.16985925"
           id="path4876"
           inkscape:connector-curvature="0" />
        <path
           d="m -22.573643,257.00768 -0.97098,-8.30082 h 2.111948 l 2.49314,21.31364 h -2.111948 l -0.269181,-2.30121 q -0.505496,1.36977 -1.448525,2.04096 -0.933153,0.65749 -2.356423,0.65749 -2.33003,0 -4.058781,-2.21903 -1.717271,-2.21903 -2.140272,-5.83523 -0.423001,-3.6162 0.775134,-5.83522 1.209614,-2.21903 3.539644,-2.21903 1.42327,0 2.511843,0.67119 1.098449,0.65748 1.924401,2.02726 z m -6.570206,5.3558 q 0.325262,2.78064 1.4638,4.36958 1.148412,1.57524 2.824198,1.57524 1.675785,0 2.455673,-1.57524 0.778286,-1.58894 0.453024,-4.36958 -0.325261,-2.78063 -1.473674,-4.35587 -1.150014,-1.58893 -2.825799,-1.58893 -1.675786,0 -2.454072,1.58893 -0.768411,1.57524 -0.44315,4.35587 z"
           style="fill:#f3f3f3;fill-opacity:1;stroke-width:0.16985925"
           id="path4878"
           inkscape:connector-curvature="0" />
        <path
           d="m -14.171988,248.70686 h 3.305151 v 21.81811 h -3.305151 z"
           style="fill:#f3f3f3;fill-opacity:1;stroke-width:0.21499233"
           id="path4880"
           inkscape:connector-curvature="0" />
        <path
           d="m 13.239219,262.02769 v 1.26197 H -1.957296 q 0.2155534,2.66416 2.04775732,4.06636 1.85016668,1.38817 5.13735618,1.38817 1.9040551,0 3.6823707,-0.36457 1.7962788,-0.36458 3.5566308,-1.09371 v 2.43981 q -1.778315,0.58892 -3.6464447,0.89741 -1.8681295,0.30847 -3.7901474,0.30847 -4.81402605,0 -7.6341831,-2.18741 -2.8021943,-2.18743 -2.8021943,-5.91725 0,-3.85603 2.658492,-6.11356 2.67645482,-2.27155 7.2030764,-2.27155 4.0595891,0 6.4127141,2.0472 2.371087,2.03318 2.371087,5.53866 z M 9.9340669,261.2705 q -0.035926,-2.11731 -1.5268366,-3.37928 -1.4729483,-1.26197 -3.915887,-1.26197 -2.7662687,0 -4.43680761,1.21991 -1.65257609,1.2199 -1.90405499,3.43536 z"
           style="fill:#f3f3f3;fill-opacity:1;stroke-width:0.21499233"
           id="path4882"
           inkscape:connector-curvature="0" />
        <path
           d="m -52.347174,285.06057 -0.970978,-8.30081 h 4.23615 l 2.49314,21.31364 h -4.23615 l -0.269181,-2.30121 q -1.175082,1.36976 -3.145577,2.04095 -1.949075,0.65749 -4.803872,0.65749 -4.673577,0 -7.880031,-2.21903 -3.183433,-2.21903 -3.606434,-5.83523 -0.423,-3.61619 2.241295,-5.83523 2.687317,-2.21902 7.360894,-2.21902 2.854797,0 4.959294,0.67119 2.125915,0.65749 3.62145,2.02726 z m -13.80865,5.3558 q 0.325263,2.78064 2.422,4.36958 2.118155,1.57524 5.479448,1.57524 3.361292,0 5.110923,-1.57524 1.748031,-1.58894 1.422768,-4.36958 -0.325262,-2.78064 -2.443417,-4.35586 -2.119757,-1.58894 -5.481049,-1.58894 -3.361293,0 -5.109322,1.58894 -1.726613,1.57522 -1.401351,4.35586 z"
           style="fill:#f3f3f3;fill-opacity:1;stroke-width:0.24056539"
           id="path4884"
           inkscape:connector-curvature="0" />
        <path
           d="m -29.459384,284.49897 q -3.407339,0 -5.201414,1.58893 -1.795676,1.57524 -1.47362,4.32847 0.322059,2.75325 2.464837,4.34218 2.164201,1.57524 5.594562,1.57524 3.384314,0 5.178389,-1.58893 1.794076,-1.58894 1.47362,-4.32849 -0.318851,-2.72583 -2.484656,-4.31477 -2.167404,-1.60263 -5.551718,-1.60263 z m -0.249956,-2.13685 q 5.52541,0 8.929457,2.13685 3.404041,2.13683 3.846269,5.9174 0.440627,3.76688 -2.461904,5.91742 -2.904136,2.13684 -8.429546,2.13684 -5.548435,0 -8.952478,-2.13684 -3.382625,-2.15054 -3.823252,-5.91742 -0.442228,-3.78057 2.438887,-5.9174 2.904132,-2.13685 8.452567,-2.13685 z"
           style="fill:#f3f3f3;fill-opacity:1;stroke-width:0.24056539"
           id="path4886"
           inkscape:connector-curvature="0" />
        <path
           d="m -0.63515339,284.49897 q -3.40733861,0 -5.20141361,1.58893 -1.7956783,1.57524 -1.4736222,4.32847 0.3220584,2.75325 2.4648395,4.34218 2.1642004,1.57524 5.59456161,1.57524 3.38431409,0 5.17838899,-1.58893 1.7940758,-1.58894 1.4736199,-4.32849 -0.318851,-2.72583 -2.4846559,-4.31477 -2.1674042,-1.60263 -5.55171829,-1.60263 z m -0.24995573,-2.13685 q 5.52541052,0 8.92945642,2.13685 3.4040417,2.13683 3.8462697,5.9174 0.440627,3.76688 -2.4619044,5.91742 -2.9041356,2.13684 -8.42954613,2.13684 -5.54843507,0 -8.95247937,-2.13684 -3.3826231,-2.15054 -3.8232501,-5.91742 -0.442228,-3.78057 2.4388848,-5.9174 2.904134,-2.13685 8.45256908,-2.13685 z"
           style="fill:#f3f3f3;fill-opacity:1;stroke-width:0.24056539"
           id="path4888"
           inkscape:connector-curvature="0" />
      </g>
    </g>
  </g>
</svg>
