<?xml version="1.0" encoding="UTF-8" standalone="no"?>
<!-- Created with Inkscape (http://www.inkscape.org/) -->

<svg
   xmlns:dc="http://purl.org/dc/elements/1.1/"
   xmlns:cc="http://creativecommons.org/ns#"
   xmlns:rdf="http://www.w3.org/1999/02/22-rdf-syntax-ns#"
   xmlns:svg="http://www.w3.org/2000/svg"
   xmlns="http://www.w3.org/2000/svg"
   xmlns:sodipodi="http://sodipodi.sourceforge.net/DTD/sodipodi-0.dtd"
   xmlns:inkscape="http://www.inkscape.org/namespaces/inkscape"
   width="60"
   height="380"
   viewBox="0 0 15.875 100.54167"
   version="1.1"
   id="svg8"
   inkscape:version="0.92.2 5c3e80d, 2017-08-06"
   sodipodi:docname="ComputerscareSolyPequencerPanel.svg"
   style="enable-background:new">
  <defs
     id="defs2" />
  <sodipodi:namedview
     id="base"
     pagecolor="#ffffff"
     bordercolor="#666666"
     borderopacity="1.0"
     inkscape:pageopacity="0.0"
     inkscape:pageshadow="2"
     inkscape:zoom="7.9999999"
     inkscape:cx="50.536891"
     inkscape:cy="133.17232"
     inkscape:document-units="mm"
     inkscape:current-layer="g1669"
     showgrid="false"
     units="px"
     inkscape:snap-bbox="true"
     inkscape:snap-page="true"
     inkscape:bbox-nodes="true"
     inkscape:snap-bbox-edge-midpoints="true"
     inkscape:window-width="1440"
     inkscape:window-height="856"
     inkscape:window-x="0"
     inkscape:window-y="0"
     inkscape:window-maximized="0"
     inkscape:snap-global="false"
     showguides="true"
     inkscape:lockguides="false" />
  <metadata
     id="metadata5">
    <rdf:RDF>
      <cc:Work
         rdf:about="">
        <dc:format>image/svg+xml</dc:format>
        <dc:type
           rdf:resource="http://purl.org/dc/dcmitype/StillImage" />
        <dc:title />
      </cc:Work>
    </rdf:RDF>
  </metadata>
  <g
     inkscape:label="Layer 1"
     inkscape:groupmode="layer"
     id="layer1"
     transform="translate(0,-196.45832)"
     style="display:none">
    <path
       style="opacity:1;vector-effect:none;fill:#f0f0f0;fill-opacity:1;fill-rule:evenodd;stroke:none;stroke-width:0.48607069;stroke-linecap:butt;stroke-linejoin:round;stroke-miterlimit:4;stroke-dasharray:none;stroke-dashoffset:0;stroke-opacity:1;paint-order:normal"
       d="M 0,196.45831 H 23.8125 V 296.99999 H 0 Z"
       id="rect817"
       inkscape:connector-curvature="0" />
    <text
       xml:space="preserve"
       style="font-style:normal;font-weight:normal;font-size:10.58333302px;line-height:1.25;font-family:sans-serif;letter-spacing:0px;word-spacing:0px;fill:#000000;fill-opacity:1;stroke:none;stroke-width:0.26458332"
       x="8.2147436"
       y="295.57718"
       id="text1490"
       transform="rotate(1.4468834)"><tspan
         sodipodi:role="line"
         id="tspan1488"
         x="8.2147436"
         y="295.57718"
         style="font-style:normal;font-variant:normal;font-weight:normal;font-stretch:normal;font-size:2.82222223px;font-family:sans-serif;-inkscape-font-specification:'sans-serif, Normal';font-variant-ligatures:normal;font-variant-caps:normal;font-variant-numeric:normal;font-feature-settings:normal;text-align:start;writing-mode:lr-tb;text-anchor:start;stroke-width:0.26458332">computerscare</tspan></text>
    <text
       transform="rotate(-5.9989835)"
       id="text1494"
       y="288.0314"
       x="-28.710276"
       style="font-style:normal;font-weight:normal;font-size:10.58333302px;line-height:1.25;font-family:sans-serif;letter-spacing:0px;word-spacing:0px;fill:#000000;fill-opacity:1;stroke:none;stroke-width:0.26458332"
       xml:space="preserve"><tspan
         style="font-style:normal;font-variant:normal;font-weight:normal;font-stretch:normal;font-size:2.82222223px;font-family:sans-serif;-inkscape-font-specification:'sans-serif, Normal';font-variant-ligatures:normal;font-variant-caps:normal;font-variant-numeric:normal;font-feature-settings:normal;text-align:start;writing-mode:lr-tb;text-anchor:start;stroke-width:0.26458332"
         y="288.0314"
         x="-28.710276"
         id="tspan1492"
         sodipodi:role="line">trg</tspan></text>
    <text
       xml:space="preserve"
       style="font-style:normal;font-weight:normal;font-size:10.58333302px;line-height:1.25;font-family:sans-serif;letter-spacing:0px;word-spacing:0px;fill:#000000;fill-opacity:1;stroke:none;stroke-width:0.26458332"
       x="20.711658"
       y="288.87244"
       id="text1498"
       transform="rotate(1.9714728)"><tspan
         sodipodi:role="line"
         id="tspan1496"
         x="20.711658"
         y="288.87244"
         style="font-style:normal;font-variant:normal;font-weight:normal;font-stretch:normal;font-size:2.82222223px;font-family:sans-serif;-inkscape-font-specification:'sans-serif, Normal';font-variant-ligatures:normal;font-variant-caps:normal;font-variant-numeric:normal;font-feature-settings:normal;text-align:start;writing-mode:lr-tb;text-anchor:start;stroke-width:0.26458332">in</tspan></text>
    <text
       transform="rotate(0.49746114)"
       id="text1521"
       y="289.16214"
       x="20.314623"
       style="font-style:normal;font-weight:normal;font-size:10.58333302px;line-height:1.25;font-family:sans-serif;letter-spacing:0px;word-spacing:0px;fill:#000000;fill-opacity:1;stroke:none;stroke-width:0.26458332"
       xml:space="preserve"><tspan
         style="font-style:normal;font-variant:normal;font-weight:normal;font-stretch:normal;font-size:3.17499995px;font-family:sans-serif;-inkscape-font-specification:'sans-serif, Normal';font-variant-ligatures:normal;font-variant-caps:normal;font-variant-numeric:normal;font-feature-settings:normal;text-align:start;writing-mode:lr-tb;text-anchor:start;stroke-width:0.26458332"
         y="289.16214"
         x="20.314623"
         id="tspan1519"
         sodipodi:role="line">clr</tspan></text>
    <text
       transform="matrix(1.0139335,-0.02825079,0.06854811,0.98434808,0,0)"
       id="text1645"
       y="204.61243"
       x="-10.296249"
       style="font-style:normal;font-weight:normal;font-size:10.74719143px;line-height:1.25;font-family:sans-serif;letter-spacing:0px;word-spacing:0px;fill:#000000;fill-opacity:1;stroke:none;stroke-width:0.26867977"
       xml:space="preserve"><tspan
         style="font-style:normal;font-variant:normal;font-weight:normal;font-stretch:normal;font-size:5.01535606px;font-family:sans-serif;-inkscape-font-specification:'sans-serif, Normal';font-variant-ligatures:normal;font-variant-caps:normal;font-variant-numeric:normal;font-feature-settings:normal;text-align:start;writing-mode:lr-tb;text-anchor:start;stroke-width:0.26867977"
         y="204.61243"
         x="-10.296249"
         id="tspan1643"
         sodipodi:role="line">debug</tspan></text>
  </g>
  <g
     inkscape:groupmode="layer"
     id="layer3"
     inkscape:label="bg" />
  <g
     style="display:inline"
     transform="translate(0,-196.45832)"
     id="g1669"
     inkscape:groupmode="layer"
     inkscape:label="Layer 1 copy">
    <path
       inkscape:connector-curvature="0"
       id="path1647"
       d="m 8.8786219,205.72349 -7.3856972,-7.67753 0.738749,15.65303 -0.93662,65.71451 -0.76588703,10.38104 0.308947,5.56858 1.45447203,1.27054 13.5938013,0.37061 0.01249,-88.38133 z"
       style="opacity:1;vector-effect:none;fill:#ececec;fill-opacity:1;fill-rule:evenodd;stroke:none;stroke-width:0.26300001;stroke-linecap:butt;stroke-linejoin:round;stroke-miterlimit:4;stroke-dasharray:none;stroke-dashoffset:0;stroke-opacity:1;paint-order:normal"
       sodipodi:nodetypes="cccccccccc" />
    <g
       aria-label="computerscare"
       transform="matrix(0.579664,-0.0209809,0.12827949,1.4870391,-39.63278,-143.10683)"
       style="font-style:normal;font-weight:normal;font-size:10.58333302px;line-height:1.25;font-family:sans-serif;letter-spacing:0px;word-spacing:0px;fill:#000000;fill-opacity:1;stroke:none;stroke-width:0.26458332"
       id="text1651">
      <path
         d="m 9.6564066,294.11837 -0.022491,0.23707 q -0.1028223,-0.0489 -0.2099211,-0.0673 -0.1055806,-0.0199 -0.2168506,-0.009 -0.2488775,0.0238 -0.4014201,0.19401 -0.1524199,0.16888 -0.1792271,0.45145 -0.026804,0.28254 0.095932,0.42654 0.1228661,0.14262 0.371738,0.11887 0.1112317,-0.0106 0.2224055,-0.0498 0.1127112,-0.0408 0.2267849,-0.11044 l -0.022229,0.23431 q -0.111772,0.0599 -0.2295122,0.0956 -0.1163563,0.0357 -0.2456588,0.048 -0.3517468,0.0335 -0.5381239,-0.16582 -0.1863704,-0.19938 -0.1510635,-0.57153 0.035829,-0.37767 0.2649098,-0.61397 0.2304697,-0.23642 0.5947391,-0.27118 0.1181718,-0.0112 0.2283935,0.003 0.110394,0.0127 0.2114822,0.0509 z"
         style="font-style:normal;font-variant:normal;font-weight:normal;font-stretch:normal;font-size:2.82222223px;font-family:sans-serif;-inkscape-font-specification:'sans-serif, Normal';font-variant-ligatures:normal;font-variant-caps:normal;font-variant-numeric:normal;font-feature-settings:normal;text-align:start;writing-mode:lr-tb;text-anchor:start;stroke-width:0.26458332"
         id="path1701"
         inkscape:connector-curvature="0" />
      <path
         d="m 10.696255,294.13661 q -0.205776,0.0197 -0.340506,0.19093 -0.134608,0.16992 -0.160888,0.44696 -0.02628,0.27705 0.07673,0.42565 0.104532,0.1471 0.311691,0.12734 0.204372,-0.0195 0.339118,-0.1908 0.134737,-0.1713 0.160888,-0.44696 0.02602,-0.27428 -0.07838,-0.42277 -0.10427,-0.14986 -0.308651,-0.13035 z m 0.0204,-0.21501 q 0.333675,-0.0318 0.503758,0.16499 0.170076,0.19686 0.133987,0.57727 -0.03596,0.37905 -0.246966,0.61361 -0.210875,0.23319 -0.544555,0.26503 -0.335078,0.032 -0.505151,-0.16486 -0.1685548,-0.19836 -0.1325956,-0.5774 0.036091,-0.38042 0.2455756,-0.61348 0.210875,-0.23319 0.545947,-0.26516 z"
         style="font-style:normal;font-variant:normal;font-weight:normal;font-stretch:normal;font-size:2.82222223px;font-family:sans-serif;-inkscape-font-specification:'sans-serif, Normal';font-variant-ligatures:normal;font-variant-caps:normal;font-variant-numeric:normal;font-feature-settings:normal;text-align:start;writing-mode:lr-tb;text-anchor:start;stroke-width:0.26458332"
         id="path1703"
         inkscape:connector-curvature="0" />
      <path
         d="m 13.143759,294.1394 q 0.109103,-0.20599 0.261143,-0.30389 0.152033,-0.0979 0.358066,-0.0977 0.277351,3.4e-4 0.428154,0.205 0.150801,0.203 0.151243,0.57869 l 0.0013,1.12376 -0.2932,-3.3e-4 -0.0013,-1.1138 q -3.15e-4,-0.26763 -0.0908,-0.39742 -0.0905,-0.12977 -0.275921,-0.13 -0.226635,-2.7e-4 -0.357993,0.15747 -0.131357,0.15777 -0.131036,0.4304 l 0.0012,1.05229 -0.2932,-3.4e-4 -0.0013,-1.1138 q -3.17e-4,-0.2693 -0.0908,-0.39742 -0.0905,-0.12976 -0.279091,-0.13 -0.223465,-2.8e-4 -0.354821,0.15914 -0.131357,0.15777 -0.131039,0.42874 l 0.0012,1.05227 -0.293194,-3.3e-4 -0.0022,-1.86186 0.293199,3.4e-4 3.42e-4,0.28924 q 0.09965,-0.17108 0.239016,-0.25238 0.139373,-0.0812 0.331141,-0.081 0.193354,2.3e-4 0.328188,0.10342 0.136421,0.10314 0.201631,0.29946 z"
         style="font-style:normal;font-variant:normal;font-weight:normal;font-stretch:normal;font-size:2.82222223px;font-family:sans-serif;-inkscape-font-specification:'sans-serif, Normal';font-variant-ligatures:normal;font-variant-caps:normal;font-variant-numeric:normal;font-feature-settings:normal;text-align:start;writing-mode:lr-tb;text-anchor:start;stroke-width:0.31164581"
         id="path1705"
         inkscape:connector-curvature="0" />
      <path
         d="m 14.742929,294.81667 v 0.81855 h -0.254937 v -2.13044 h 0.254937 v 0.23426 q 0.07993,-0.1378 0.201194,-0.20395 0.122645,-0.0675 0.292144,-0.0675 0.28112,0 0.45613,0.22324 0.176389,0.22324 0.176389,0.58705 0,0.3638 -0.176389,0.58704 -0.17501,0.22324 -0.45613,0.22324 -0.169499,0 -0.292144,-0.0661 -0.121268,-0.0675 -0.201194,-0.20533 z m 0.862652,-0.53881 q 0,-0.27975 -0.115755,-0.43822 -0.114377,-0.15985 -0.315571,-0.15985 -0.201193,0 -0.316949,0.15985 -0.114377,0.15847 -0.114377,0.43822 0,0.27974 0.114377,0.43959 0.115756,0.15847 0.316949,0.15847 0.201194,0 0.315571,-0.15847 0.115755,-0.15985 0.115755,-0.43959 z"
         style="font-style:normal;font-variant:normal;font-weight:normal;font-stretch:normal;font-size:2.82222223px;font-family:sans-serif;-inkscape-font-specification:'sans-serif, Normal';font-variant-ligatures:normal;font-variant-caps:normal;font-variant-numeric:normal;font-feature-settings:normal;text-align:start;writing-mode:lr-tb;text-anchor:start;stroke-width:0.26458332"
         id="path1707"
         inkscape:connector-curvature="0" />
      <path
         d="m 16.276561,294.97975 -1.52e-4,-0.94031 0.251931,-0.0648 1.5e-4,0.9306 q 3.6e-5,0.22051 0.08495,0.30972 0.08491,0.0878 0.254686,0.0444 0.204008,-0.052 0.321737,-0.21413 0.119098,-0.16225 0.119061,-0.38971 l -1.43e-4,-0.88065 0.251931,-0.0648 2.51e-4,1.55331 -0.25193,0.0648 -3.9e-5,-0.23855 q -0.09172,0.16493 -0.213559,0.26548 -0.120476,0.0987 -0.280672,0.13983 -0.264253,0.0678 -0.401197,-0.0637 -0.136946,-0.13139 -0.136998,-0.45174 z"
         style="font-style:normal;font-variant:normal;font-weight:normal;font-stretch:normal;font-size:2.82222223px;font-family:sans-serif;-inkscape-font-specification:'sans-serif, Normal';font-variant-ligatures:normal;font-variant-caps:normal;font-variant-numeric:normal;font-feature-settings:normal;text-align:start;writing-mode:lr-tb;text-anchor:start;stroke-width:0.26458332"
         id="path1709"
         inkscape:connector-curvature="0" />
      <path
         d="m 18.344702,293.59556 v 0.43822 h 0.522277 v 0.19706 h -0.522277 v 0.83784 q 0,0.18879 0.05099,0.24254 0.05237,0.0537 0.21084,0.0537 h 0.260449 v 0.21222 H 18.60653 q -0.293522,0 -0.405144,-0.10887 -0.111621,-0.11024 -0.111621,-0.39963 V 294.2308 H 17.90373 v -0.19706 h 0.186035 v -0.43822 z"
         style="font-style:normal;font-variant:normal;font-weight:normal;font-stretch:normal;font-size:2.82222223px;font-family:sans-serif;-inkscape-font-specification:'sans-serif, Normal';font-variant-ligatures:normal;font-variant-caps:normal;font-variant-numeric:normal;font-feature-settings:normal;text-align:start;writing-mode:lr-tb;text-anchor:start;stroke-width:0.26458332"
         id="path1711"
         inkscape:connector-curvature="0" />
      <path
         d="m 20.508346,294.20141 2.1e-5,0.12482 -1.158332,0.29657 q 0.01648,0.25929 0.156153,0.36223 0.141049,0.1012 0.391609,0.037 0.145134,-0.0376 0.280676,-0.10793 0.136913,-0.0711 0.271081,-0.17758 l 4e-5,0.24133 q -0.135541,0.093 -0.277931,0.15998 -0.14239,0.0669 -0.288893,0.10441 -0.366941,0.094 -0.581938,-0.0673 -0.213628,-0.16169 -0.213688,-0.53061 -6.1e-5,-0.38138 0.202543,-0.65655 0.203972,-0.2769 0.549007,-0.36523 0.309435,-0.0789 0.488832,0.0774 0.180765,0.15485 0.18082,0.50156 z m -0.251942,-0.0103 q -0.0028,-0.2087 -0.116435,-0.30445 -0.112293,-0.0961 -0.298502,-0.0484 -0.210854,0.0537 -0.338169,0.20723 -0.125945,0.15291 -0.145079,0.37694 z"
         style="font-style:normal;font-variant:normal;font-weight:normal;font-stretch:normal;font-size:2.82222223px;font-family:sans-serif;-inkscape-font-specification:'sans-serif, Normal';font-variant-ligatures:normal;font-variant-caps:normal;font-variant-numeric:normal;font-feature-settings:normal;text-align:start;writing-mode:lr-tb;text-anchor:start;stroke-width:0.26458332"
         id="path1713"
         inkscape:connector-curvature="0" />
      <path
         d="m 21.832517,294.2708 q -0.04272,-0.0248 -0.09371,-0.0358 -0.04961,-0.0124 -0.110243,-0.0124 -0.214974,0 -0.330729,0.14056 -0.114377,0.13918 -0.114377,0.40101 v 0.81304 h -0.254937 v -1.5434 h 0.254937 v 0.23977 q 0.07993,-0.14056 0.208084,-0.20808 0.128157,-0.0689 0.311436,-0.0689 0.02618,0 0.05788,0.004 0.03169,0.003 0.07028,0.01 z"
         style="font-style:normal;font-variant:normal;font-weight:normal;font-stretch:normal;font-size:2.82222223px;font-family:sans-serif;-inkscape-font-specification:'sans-serif, Normal';font-variant-ligatures:normal;font-variant-caps:normal;font-variant-numeric:normal;font-feature-settings:normal;text-align:start;writing-mode:lr-tb;text-anchor:start;stroke-width:0.26458332"
         id="path1715"
         inkscape:connector-curvature="0" />
      <path
         d="m 23.185447,294.16269 -0.03488,0.23723 q -0.09833,-0.0702 -0.208837,-0.11429 -0.110508,-0.0442 -0.233212,-0.0622 -0.186783,-0.0275 -0.289279,0.016 -0.101136,0.0437 -0.117973,0.15816 -0.01283,0.0873 0.04655,0.14753 0.05959,0.0589 0.254751,0.13358 l 0.08309,0.0317 q 0.258799,0.0966 0.355164,0.21797 0.09793,0.12025 0.07046,0.30705 -0.03127,0.21268 -0.218575,0.31189 -0.185938,0.0994 -0.480428,0.0561 -0.122703,-0.018 -0.252707,-0.0622 -0.128844,-0.0426 -0.269062,-0.11204 l 0.03809,-0.25904 q 0.128445,0.0927 0.258001,0.14937 0.129765,0.0553 0.262013,0.0747 0.17724,0.0261 0.281492,-0.0199 0.104454,-0.0473 0.120693,-0.15775 0.01504,-0.10226 -0.04648,-0.16702 -0.06015,-0.0645 -0.285871,-0.14928 l -0.08424,-0.0333 q -0.225922,-0.0833 -0.314703,-0.19949 -0.08858,-0.11748 -0.06252,-0.29473 0.03167,-0.21541 0.201614,-0.31021 0.169938,-0.0948 0.450794,-0.0535 0.139065,0.0204 0.258757,0.059 0.119693,0.0385 0.217301,0.0946 z"
         style="font-style:normal;font-variant:normal;font-weight:normal;font-stretch:normal;font-size:2.82222223px;font-family:sans-serif;-inkscape-font-specification:'sans-serif, Normal';font-variant-ligatures:normal;font-variant-caps:normal;font-variant-numeric:normal;font-feature-settings:normal;text-align:start;writing-mode:lr-tb;text-anchor:start;stroke-width:0.26458332"
         id="path1717"
         inkscape:connector-curvature="0" />
      <path
         d="m 24.74878,294.2652 c -0.08645,0.15984 -0.310959,-0.0317 -0.546114,0.002 -0.163883,0.0136 -0.286821,0.0763 -0.368812,0.1882 -0.08207,0.11097 -0.115323,0.2603 -0.09977,0.44799 0.01555,0.18768 0.07297,0.32995 0.172262,0.42682 0.09921,0.096 0.230762,0.13713 0.394645,0.12355 0.07324,-0.006 0.144777,-0.0216 0.2146,-0.0468 0.07066,-0.0261 0.140065,-0.0618 0.208213,-0.10716 l 0.01935,0.23346 c -0.06777,0.0388 -0.138962,0.0696 -0.213589,0.0923 -0.07371,0.0227 -0.153138,0.0376 -0.238284,0.0446 -0.231635,0.0192 -0.421693,-0.0383 -0.570174,-0.17261 -0.14848,-0.13426 -0.232962,-0.32499 -0.253446,-0.57219 -0.02079,-0.25087 0.03153,-0.45386 0.15695,-0.60898 0.126338,-0.1552 0.309444,-0.24274 0.549319,-0.26262 0.07782,-0.007 0.154496,-0.005 0.230021,0.006 0.07545,0.009 0.411602,0.13108 0.483843,0.15738 z"
         style="font-style:normal;font-variant:normal;font-weight:normal;font-stretch:normal;font-size:2.82222223px;font-family:sans-serif;-inkscape-font-specification:'sans-serif, Normal';font-variant-ligatures:normal;font-variant-caps:normal;font-variant-numeric:normal;font-feature-settings:normal;text-align:start;writing-mode:lr-tb;text-anchor:start;stroke-width:0.26458332"
         id="path1719"
         inkscape:connector-curvature="0"
         sodipodi:nodetypes="cccccccccccccccccc" />
      <path
         d="m 25.665212,295.10899 c -0.1941,0.054 -0.312257,0.10596 -0.354462,0.15585 -0.04207,0.05 -0.02372,0.11001 0.05509,0.18011 0.06276,0.0559 0.140714,0.0927 0.233657,0.11026 0.09311,0.0168 0.18799,0.0117 0.284636,-0.0152 0.133445,-0.0369 0.205259,-0.0975 0.21601,-0.18141 0.01103,-0.0847 -0.04114,-0.17838 -0.156584,-0.28106 l -0.03944,-0.035 z m 0.406057,-0.19835 0.614749,0.54678 -0.240351,0.0668 -0.163556,-0.14546 c 0.01051,0.0734 -0.0093,0.13552 -0.05974,0.18624 -0.05105,0.0501 -0.135772,0.0917 -0.254165,0.1246 -0.149858,0.0416 -0.299712,0.0475 -0.450085,0.0174 -0.150056,-0.0308 -0.277153,-0.0925 -0.381061,-0.18495 -0.121229,-0.10781 -0.157762,-0.20435 -0.109641,-0.28962 0.04893,-0.0856 0.182741,-0.15865 0.401246,-0.21942 l 0.336894,-0.0937 -0.01733,-0.0154 c -0.08144,-0.0724 -0.180861,-0.11817 -0.298242,-0.1372 -0.117126,-0.0198 -0.241477,-0.0115 -0.372793,0.0251 -0.08293,0.0236 -0.157582,0.0524 -0.221976,0.0876 -0.06451,0.0351 -0.14856,0.0413 -0.191765,0.0881 l -0.133931,-0.11101 c 0.06296,-0.0467 0.129627,-0.087 0.200137,-0.12081 0.06977,-0.0345 0.143999,-0.0625 0.222273,-0.0844 0.21158,-0.0588 0.409919,-0.0669 0.595275,-0.024 0.185233,0.0428 0.360001,0.13725 0.52419,0.28329 z"
         style="font-style:normal;font-variant:normal;font-weight:normal;font-stretch:normal;font-size:2.82222223px;font-family:sans-serif;-inkscape-font-specification:'sans-serif, Normal';font-variant-ligatures:normal;font-variant-caps:normal;font-variant-numeric:normal;font-feature-settings:normal;text-align:start;writing-mode:lr-tb;text-anchor:start;stroke-width:0.23253006"
         id="path1721"
         inkscape:connector-curvature="0"
         sodipodi:nodetypes="ccccccccccccccccccccccccccccccc" />
      <path
         d="m 27.514831,294.15303 q -0.07262,-0.008 -0.14589,-0.003 -0.07244,0.003 -0.149744,0.0196 -0.273897,0.0573 -0.318248,0.19812 -0.04345,0.13941 0.149185,0.34445 l 0.598123,0.63668 -0.325616,0.0675 -1.135528,-1.20858 0.325618,-0.0675 0.176372,0.18775 q -0.0015,-0.13134 0.112216,-0.21833 0.112555,-0.0882 0.346309,-0.13692 0.03338,-0.007 0.07681,-0.0122 0.04272,-0.006 0.09681,-0.011 z"
         style="font-style:normal;font-variant:normal;font-weight:normal;font-stretch:normal;font-size:2.82222223px;font-family:sans-serif;-inkscape-font-specification:'sans-serif, Normal';font-variant-ligatures:normal;font-variant-caps:normal;font-variant-numeric:normal;font-feature-settings:normal;text-align:start;writing-mode:lr-tb;text-anchor:start;stroke-width:0.28914016"
         id="path1723"
         inkscape:connector-curvature="0" />
      <path
         d="m 29.829991,294.7366 -0.03251,0.15157 -1.417574,0.51715 c -0.03183,0.20931 -0.06171,0.2588 0.03299,0.33709 0.09614,0.0769 0.250962,0.0847 0.4644,0.0235 0.123539,-0.0353 0.246115,-0.0844 0.367797,-0.14616 0.122862,-0.0626 0.436317,-0.24472 0.563082,-0.33579 l -0.06292,0.29303 c -0.125473,0.08 -0.440245,0.25527 -0.566758,0.31469 -0.126529,0.0595 -0.252137,0.10689 -0.376829,0.14248 -0.312299,0.0895 -0.541189,0.0726 -0.68673,-0.05 -0.144224,-0.12314 -0.184296,-0.33401 -0.120205,-0.63263 0.06633,-0.30874 0.205047,-0.57813 0.416353,-0.80822 0.2127,-0.23151 0.465908,-0.38927 0.759628,-0.47325 0.263361,-0.075 0.453823,-0.0528 0.571414,0.0673 0.118947,0.11873 0.148245,0.31851 0.088,0.59916 z m -0.302126,9.4e-4 c 0.03399,-0.16883 0.01353,-0.28996 -0.06155,-0.36331 -0.07392,-0.0737 -0.190046,-0.0879 -0.348571,-0.0426 -0.179422,0.0516 -0.333913,0.14131 -0.463289,0.26992 -0.12818,0.12834 -0.07254,0.22521 -0.12693,0.40723 z"
         style="font-style:normal;font-variant:normal;font-weight:normal;font-stretch:normal;font-size:2.82222223px;font-family:sans-serif;-inkscape-font-specification:'sans-serif, Normal';font-variant-ligatures:normal;font-variant-caps:normal;font-variant-numeric:normal;font-feature-settings:normal;text-align:start;writing-mode:lr-tb;text-anchor:start;stroke-width:0.31916848"
         id="path1725"
         inkscape:connector-curvature="0"
         sodipodi:nodetypes="ccccscccsscscscccccsccc"
         inkscape:transform-center-x="0.23386084"
         inkscape:transform-center-y="0.14031651" />
    </g>
    <g
       id="g9547"
       transform="matrix(0.08836158,-0.05917659,0,0.23311691,0.11674111,292.05958)">
      <g
         style="display:inline"
         inkscape:label="Layer 1"
         id="layer4" />
      <path
         id="rect5872"
         d="M 10.9608,0.03415352 26.864657,2.0426947 V 6.0384555 L 10.9608,4.0299144 Z"
         style="opacity:1;fill:#0f0f00;fill-opacity:1;stroke:#000000;stroke-width:0;stroke-miterlimit:4;stroke-dasharray:none;stroke-opacity:1"
         inkscape:connector-curvature="0" />
      <path
         id="rect5874"
         d="m 16.294412,2.0463977 7.95193,1.0042708 v 1.331921 l -7.95193,-1.0042708 z"
         style="opacity:1;fill:#ffffff;fill-opacity:0.98571424;stroke:#000000;stroke-width:0;stroke-miterlimit:4;stroke-dasharray:none;stroke-opacity:1"
         inkscape:connector-curvature="0" />
      <path
         id="rect5878"
         d="M 45.461738,4.3913703 29.561807,2.383325 v 3.9957609 l 15.899931,2.0080452 z"
         style="opacity:1;fill:#0c0c00;fill-opacity:1;stroke:#000000;stroke-width:0;stroke-miterlimit:4;stroke-dasharray:none;stroke-opacity:1"
         inkscape:connector-curvature="0" />
      <path
         id="rect5880"
         d="M 40.129441,5.056588 33.818402,4.4686058 v 1.331921 l 6.311039,0.5879822 z"
         style="opacity:1;fill:#ffffff;fill-opacity:0.98571424;stroke:#000000;stroke-width:0;stroke-miterlimit:4;stroke-dasharray:none;stroke-opacity:1"
         inkscape:connector-curvature="0" />
      <path
         id="rect5882"
         d="m 26.896986,7.3907034 2.650644,0.334757 v 3.9957616 l -2.650644,-0.334757 z"
         style="opacity:1;fill:#000000;fill-opacity:1;stroke:#000000;stroke-width:0;stroke-miterlimit:4;stroke-dasharray:none;stroke-opacity:1"
         inkscape:connector-curvature="0" />
      <path
         id="rect5884"
         d="m 28.67503,10.167793 5.132631,0.968934 v 1.33192 L 28.67503,11.499713 Z"
         style="opacity:1;fill:#000000;fill-opacity:1;stroke:#000000;stroke-width:0;stroke-miterlimit:4;stroke-dasharray:none;stroke-opacity:1"
         inkscape:connector-curvature="0" />
      <path
         id="rect5886"
         d="m 10.896149,10.713841 5.365938,0.677679 v 2.663842 l -5.365938,-0.677679 z"
         style="opacity:1;fill:#000200;fill-opacity:1;stroke:#000000;stroke-width:0;stroke-miterlimit:4;stroke-dasharray:none;stroke-opacity:1"
         inkscape:connector-curvature="0" />
      <path
         id="rect5888"
         d="m 42.768522,14.739089 5.365935,0.677679 v 2.663842 l -5.365935,-0.677679 z"
         style="opacity:1;fill:#000200;fill-opacity:1;stroke:#000000;stroke-width:0;stroke-miterlimit:4;stroke-dasharray:none;stroke-opacity:1"
         inkscape:connector-curvature="0" />
      <path
         id="rect5890"
         d="m 16.262087,11.39152 26.571083,3.355734 v 1.33192 L 16.262087,12.72344 Z"
         style="opacity:1;fill:#000200;fill-opacity:1;stroke:#000000;stroke-width:0;stroke-miterlimit:4;stroke-dasharray:none;stroke-opacity:1"
         inkscape:connector-curvature="0" />
    </g>
    <path
       style="fill:#232224;fill-opacity:1;stroke:none;stroke-width:0.45396167;stroke-linecap:butt;stroke-linejoin:round;stroke-miterlimit:4;stroke-dasharray:none;stroke-opacity:1"
       d="m 15.875695,208.46838 -2.140959,-1.27492 0.05706,3.66931 -0.03904,5.83331 2.157977,1.62419 z"
       id="path890"
       inkscape:connector-curvature="0"
       sodipodi:nodetypes="cccccc" />
    <path
       style="fill:#626262;fill-opacity:1;stroke:none;stroke-width:0.53296405;stroke-linecap:butt;stroke-linejoin:round;stroke-miterlimit:4;stroke-dasharray:none;stroke-opacity:1"
       d="m 2.1729618,218.74555 -2.18157457,-2.10375 13.79446877,0.0312 2.125859,1.65541 c -4.541363,0.0382 -9.1972793,0.39611 -13.7387532,0.41714 z"
       id="path892"
       inkscape:connector-curvature="0"
       sodipodi:nodetypes="ccccc" />
    <path
       sodipodi:nodetypes="cccccc"
       inkscape:connector-curvature="0"
       id="path873"
       d="m 1.1094411,206.11319 1.0068811,-0.0793 4.8564349,0.67614 -1.3820584,1.89778 -5.58532408,-1.42243 z"
       style="fill:#626262;fill-opacity:1;stroke:none;stroke-width:0.53296405;stroke-linecap:butt;stroke-linejoin:round;stroke-miterlimit:4;stroke-dasharray:none;stroke-opacity:1" />
    <path
       sodipodi:nodetypes="cccccc"
       inkscape:connector-curvature="0"
       id="path875"
       d="m 12.21722,200.01556 -1.378965,-2.08751 2.256069,12.63711 0.90751,-1.44959 -1.20706,-1.83862 z"
       style="fill:#232224;fill-opacity:1;stroke:none;stroke-width:0.45396167;stroke-linecap:butt;stroke-linejoin:round;stroke-miterlimit:4;stroke-dasharray:none;stroke-opacity:1" />
    <path
       style="fill:#fafafa;fill-opacity:1;stroke:none;stroke-width:0.40790954;stroke-linejoin:round;stroke-miterlimit:4;stroke-dasharray:none;stroke-opacity:1"
       d="m 13.7771,216.68913 -13.74179493,-0.0661 -0.03307292,-20.16465 10.87037685,1.97236 1.879558,8.49006 1.011234,0.29029 z"
       id="rect888"
       inkscape:connector-curvature="0"
       sodipodi:nodetypes="ccccccc" />
    <path
       style="fill:none;stroke:#000000;stroke-width:0.60415155;stroke-linecap:butt;stroke-linejoin:miter;stroke-miterlimit:4;stroke-dasharray:none;stroke-opacity:1"
       d="m 2.8116181,197.81318 c -0.8455277,0.54568 -2.15847778,1.86463 -2.00648426,3.45767 0.65450846,-0.004 2.46770036,-1.78722 2.24591896,0.20337 -0.666147,1.02785 -1.43313,1.92052 -1.9286598,3.21733"
       id="path1627"
       inkscape:connector-curvature="0" />
    <path
       style="fill:none;stroke:#000000;stroke-width:0.60415155;stroke-linecap:butt;stroke-linejoin:miter;stroke-miterlimit:4;stroke-dasharray:none;stroke-opacity:1"
       d="m 5.1344262,199.93749 c -1.1759835,-0.58652 -1.3074991,3.46943 -0.3776831,4.1823 1.1475244,0.95584 1.6993175,-1.34544 1.3585994,-2.87017 0.00623,-1.06059 -1.3249033,-2.8149 -1.3730611,-0.90638"
       id="path1629"
       inkscape:connector-curvature="0"
       sodipodi:nodetypes="cccc" />
    <path
       style="fill:none;stroke:#000000;stroke-width:0.60415155;stroke-linecap:butt;stroke-linejoin:miter;stroke-miterlimit:4;stroke-dasharray:none;stroke-opacity:1"
       d="m 7.0496386,197.86547 c 0,2.12694 0,4.25386 0,6.38081"
       id="path1631"
       inkscape:connector-curvature="0" />
    <path
       style="fill:none;stroke:#000000;stroke-width:0.6756435;stroke-linecap:butt;stroke-linejoin:miter;stroke-miterlimit:4;stroke-dasharray:none;stroke-opacity:1"
       d="m 8.7163688,198.98001 c -0.7974259,1.80914 1.6179202,3.67489 1.5707702,1.10609 -0.04253,-1.17889 -0.29068,-1.55006 -0.08831,-0.20433 0.226936,1.45165 0.487174,3.68658 -0.7643191,4.3504 -0.4498329,0.23654 -1.020826,0.2271 -1.3812147,-0.27926"
       id="path1633"
       inkscape:connector-curvature="0" />
    <path
       style="fill:none;stroke:#000000;stroke-width:0.35499159px;stroke-linecap:butt;stroke-linejoin:miter;stroke-opacity:1"
       d="m 0.71211567,206.18569 c -0.19802439,2.21138 0.39257783,4.70592 0.44016793,6.87993 l -0.039546,0.19239 -0.078329,0.10208"
       id="path1635"
       inkscape:connector-curvature="0"
       sodipodi:nodetypes="cccc" />
    <path
       style="fill:none;stroke:#000000;stroke-width:0.35499159px;stroke-linecap:butt;stroke-linejoin:miter;stroke-opacity:1"
       d="m 0.3155751,205.65794 c 0.934824,-0.76178 1.9529619,1.90445 1.0064443,2.68391 -0.1168725,0.11132 -0.2624111,0.11804 -0.37909283,9e-5"
       id="path1637"
       inkscape:connector-curvature="0"
       sodipodi:nodetypes="ccc" />
    <path
       style="fill:none;stroke:#000000;stroke-width:0.29588765px;stroke-linecap:butt;stroke-linejoin:miter;stroke-opacity:1"
       d="m 2.6300384,209.08037 c 1.5418737,0.49796 1.3904683,-0.82278 -0.3484038,-0.82977 0.037873,0.46368 0.4186778,2.18135 1.465247,1.58792"
       id="path1639"
       inkscape:connector-curvature="0"
       sodipodi:nodetypes="ccc" />
    <path
       style="fill:none;stroke:#000000;stroke-width:0.33277225px;stroke-linecap:butt;stroke-linejoin:miter;stroke-opacity:1"
       d="m 3.8820896,205.82544 c -0.826469,0.69564 -0.149961,3.24171 0.456413,1.6421 0.381007,-0.87559 -1.066161,-2.44843 -0.193667,-1.08204 0.357469,0.91404 0.358927,3.10915 0.625949,3.38408 0.159718,-0.42731 0.180628,-0.9558 0.374105,-1.35458"
       id="path1641"
       inkscape:connector-curvature="0"
       sodipodi:nodetypes="ccccc" />
    <path
       style="fill:none;stroke:#000000;stroke-width:0.25685027;stroke-linecap:butt;stroke-linejoin:miter;stroke-miterlimit:4;stroke-dasharray:none;stroke-opacity:1"
       d="m 5.2537713,205.95542 c -0.2940821,2.56689 1.2401421,3.41123 0.7649684,0.28878 l -0.014692,-0.31661 -0.00637,-0.31493"
       id="path1643"
       inkscape:connector-curvature="0" />
    <path
       style="fill:none;stroke:#000000;stroke-width:0.23246273;stroke-linecap:butt;stroke-linejoin:miter;stroke-miterlimit:4;stroke-dasharray:none;stroke-opacity:1"
       d="m 6.7109315,206.6077 c 1.5829777,6.4e-4 -0.2147854,-2.80223 -0.1281081,-0.51064 -8.09e-5,0.91101 0.1729474,2.29723 0.8218351,1.96305"
       id="path1645"
       inkscape:connector-curvature="0"
       sodipodi:nodetypes="ccc" />
    <path
       style="fill:none;stroke:#000000;stroke-width:0.2962372;stroke-linecap:butt;stroke-linejoin:miter;stroke-miterlimit:4;stroke-dasharray:none;stroke-opacity:1"
       d="m 8.0097387,205.59601 c 0.042729,1.18707 -0.054676,5.37041 -0.00833,2.22833 0.179647,-2.65929 1.2399712,-1.72224 0.9781552,0.98487 -0.00601,0.40209 0.036219,1.30448 -0.1541278,1.30053"
       id="path1648"
       inkscape:connector-curvature="0" />
    <path
       style="fill:none;stroke:#000000;stroke-width:0.33577365;stroke-linecap:butt;stroke-linejoin:miter;stroke-miterlimit:4;stroke-dasharray:none;stroke-opacity:1"
       d="m 10.729728,206.00221 c -1.4925921,-0.61676 -1.627078,3.60382 -0.01589,2.99222 l 0.259195,-0.0906"
       id="path1650"
       inkscape:connector-curvature="0" />
    <path
       style="fill:none;stroke:#000000;stroke-width:0.39676842px;stroke-linecap:butt;stroke-linejoin:miter;stroke-opacity:1"
       d="m 11.252094,207.89596 c 0.576519,0.91086 1.176054,-1.33663 0.355682,-1.49446 -0.683905,0.56373 -0.251284,3.80213 0.475209,3.06977"
       id="path1654"
       inkscape:connector-curvature="0" />
    <path
       style="fill:none;stroke:#000000;stroke-width:0.27500001;stroke-linecap:butt;stroke-linejoin:miter;stroke-miterlimit:4;stroke-dasharray:none;stroke-opacity:1"
       d="m 12.495165,207.68536 c 0.08155,1.77706 0.217194,5.94542 0.27671,1.85978 -0.03845,-1.23262 0.665576,-2.46324 0.644736,-0.70153"
       id="path1656"
       inkscape:connector-curvature="0" />
    <path
       style="fill:none;stroke:#000000;stroke-width:0.28861994px;stroke-linecap:butt;stroke-linejoin:miter;stroke-opacity:1"
       d="m 3.0836878,220.27173 c -0.0814,0.52459 -0.060991,1.04971 -0.059031,1.57513 0.1564184,0.0683 0.3039006,0.32754 0.6521662,0.22316"
       id="path878"
       inkscape:connector-curvature="0" />
    <path
       style="fill:none;stroke:#000000;stroke-width:0.66578078px;stroke-linecap:butt;stroke-linejoin:miter;stroke-opacity:1"
       d="m 3.4287563,219.92988 c -0.071878,-0.0983 -0.1437514,-0.1965 -0.2156277,-0.29475"
       id="path880"
       inkscape:connector-curvature="0" />
    <path
       style="fill:none;stroke:#000000;stroke-width:0.33870441px;stroke-linecap:butt;stroke-linejoin:miter;stroke-opacity:1"
       d="m 5.0082081,219.94329 c -0.036028,0.65341 0.044072,1.3072 0.1782408,1.95529 0.00522,0.0728 -0.010421,0.35039 -0.026556,0.14689 -0.072506,-0.25278 -0.1735132,-0.50353 -0.1962996,-0.76093 -0.04263,-0.2971 -0.021933,-0.59585 0.01802,-0.89217 0.00443,-0.23047 -0.1117492,-0.47801 0.054518,-0.69597 0.1694239,-0.13388 0.4803815,-0.0664 0.6921305,-0.0146 0.4013802,0.10402 0.5003542,0.39355 0.5487257,0.62911 0.032613,0.22884 0.099401,0.45521 0.088449,0.6855 0.00617,0.37747 0.096748,0.75125 0.1723549,1.12492 0.00774,0.0339 -0.00406,0.0678 -0.00558,0.10174"
       id="path882"
       inkscape:connector-curvature="0" />
    <path
       style="fill:none;stroke:#000000;stroke-width:0.33870441px;stroke-linecap:butt;stroke-linejoin:miter;stroke-opacity:1"
       d="m 8.382739,223.21153 c 0.047823,-0.61032 -0.4166338,-1.18137 -0.4437309,-1.78962 -0.1562586,-0.61478 -0.4313906,-1.26478 -0.2973855,-1.87031 0.7290356,0.27312 1.5385827,0.582 1.9306415,1.08123 0.6108979,0.37408 -0.1134002,0.81899 -0.8180991,0.60632 -0.2668374,0.0146 -0.5439416,0.0869 -0.8068549,0.0181"
       id="path884"
       inkscape:connector-curvature="0" />
    <path
       style="fill:none;stroke:#000000;stroke-width:0.3623476px;stroke-linecap:butt;stroke-linejoin:miter;stroke-opacity:1"
       d="m 10.573535,219.65318 c 0.0024,0.45072 -0.0046,0.90145 0.003,1.35216 0.18021,0.23021 0.403964,0.44675 0.558954,0.68217 0.112119,0.18963 0.425715,0.12429 0.368139,-0.0656 0.195838,-0.23747 0.131491,-0.51343 0.142698,-0.7718 0.0037,-0.34219 0.09668,-0.68261 0.04718,-1.02713 -0.04899,-0.26698 -0.07205,0.15913 0.04682,0.24756 0.07978,0.53184 0.15333,1.06577 0.287924,1.59446 0.07478,0.16006 0.188929,0.31588 0.205143,0.48386"
       id="path886"
       inkscape:connector-curvature="0" />
    <path
       style="fill:none;stroke:#000000;stroke-width:0.30707172px;stroke-linecap:butt;stroke-linejoin:miter;stroke-opacity:1"
       d="m 13.384908,219.20166 c 0.203265,1.01892 1.074412,1.97363 0.948718,3.01822 l -0.07075,0.11513"
       id="path888"
       inkscape:connector-curvature="0" />
    <path
       style="fill:none;stroke:#000000;stroke-width:0.30707172px;stroke-linecap:butt;stroke-linejoin:miter;stroke-opacity:1"
       d="m 12.67147,219.81284 c 0.823667,0.0157 1.674547,-0.0614 2.469754,0.10794"
       id="path891"
       inkscape:connector-curvature="0" />
    <path
       style="fill:none;stroke:#000000;stroke-width:0.30504221px;stroke-linecap:butt;stroke-linejoin:miter;stroke-opacity:1"
       d="m 2.621624,252.55505 c -0.065409,0.47474 -0.022356,1.33557 0.6400775,1.47216 0.162629,-0.20355 0.1130047,-0.90165 0.5104206,-0.40316 0.1702045,0.28356 0.9320486,0.63113 0.7615895,0.0439 -0.063023,-0.46165 -0.4395936,-0.85648 -0.5454651,-1.3101"
       id="path933"
       inkscape:connector-curvature="0" />
    <path
       style="fill:none;stroke:#000000;stroke-width:0.30504221px;stroke-linecap:butt;stroke-linejoin:miter;stroke-opacity:1"
       d="m 5.3989459,252.06034 c 0.152493,0.49868 -0.2688132,1.16754 0.1615141,1.56479 0.25561,-0.16213 0.4569186,-0.21879 0.3927241,0.0999 0.022162,0.24743 -0.010504,0.49585 0.01886,0.74306"
       id="path935"
       inkscape:connector-curvature="0" />
    <path
       style="fill:none;stroke:#000000;stroke-width:0.30504221px;stroke-linecap:butt;stroke-linejoin:miter;stroke-opacity:1"
       d="m 7.4268317,253.44551 c -0.6857631,-0.36163 -0.9347316,0.62862 -0.3223544,0.77766 0.3479304,-0.0347 0.1983259,-0.94541 0.5891504,-0.45478 0.081982,0.1476 0.1544488,0.30645 0.1299677,0.46874"
       id="path937"
       inkscape:connector-curvature="0" />
    <path
       style="fill:none;stroke:#000000;stroke-width:0.30504221px;stroke-linecap:butt;stroke-linejoin:miter;stroke-opacity:1"
       d="m 8.925704,251.99439 c 0.011876,0.75986 -0.082318,1.51742 -0.1322538,2.27566"
       id="path939"
       inkscape:connector-curvature="0" />
    <path
       style="fill:none;stroke:#000000;stroke-width:0.30504221px;stroke-linecap:butt;stroke-linejoin:miter;stroke-opacity:1"
       d="m 8.1321834,252.85187 c 0.5736132,-0.0234 1.1460005,0.03 1.7192965,0.033"
       id="path941"
       inkscape:connector-curvature="0" />
    <path
       style="fill:none;stroke:#000000;stroke-width:0.36812016px;stroke-linecap:butt;stroke-linejoin:miter;stroke-opacity:1"
       d="m 11.529772,252.43643 c -0.451331,-0.4463 -1.126724,0.12446 -1.045907,0.82423 0.101079,0.42342 0.681047,0.90512 0.0192,0.98372 -0.07664,0.0266 -0.154174,0.0484 -0.231771,0.0697"
       id="path943"
       inkscape:connector-curvature="0" />
    <path
       style="fill:none;stroke:#000000;stroke-width:0.30504221px;stroke-linecap:butt;stroke-linejoin:miter;stroke-opacity:1"
       d="m 12.276124,252.58803 c 0,0.56066 0,1.12133 0,1.68199"
       id="path945"
       inkscape:connector-curvature="0" />
    <path
       style="fill:none;stroke:#000000;stroke-width:0.30504221px;stroke-linecap:butt;stroke-linejoin:miter;stroke-opacity:1"
       d="m 11.570772,253.34658 c 0.48493,0 0.969859,0 1.454789,0"
       id="path947"
       inkscape:connector-curvature="0" />
    <path
       style="fill:none;stroke:#000000;stroke-width:0.36740503px;stroke-linecap:butt;stroke-linejoin:miter;stroke-opacity:1"
       d="m 13.483745,253.50664 c 0.734015,0.31023 0.315102,-1.48666 -0.0508,-0.67167 -0.02035,0.52544 0.137977,1.43168 0.709033,1.28722"
       id="path949"
       inkscape:connector-curvature="0" />
    <path
       style="fill:none;stroke:#000000;stroke-width:0.36429957px;stroke-linecap:butt;stroke-linejoin:miter;stroke-opacity:1"
       d="m 14.79555,254.45133 c -0.504086,-0.577 -0.309243,-1.92546 0.302655,-2.21867 0.368049,0.31408 0.0293,1.07258 -0.384569,1.00441"
       id="path951"
       inkscape:connector-curvature="0" />
    <path
       style="fill:none;stroke:#000000;stroke-width:0.30504221px;stroke-linecap:butt;stroke-linejoin:miter;stroke-opacity:1"
       d="m 5.2666927,255.49029 c -6e-5,0.41771 9.08e-5,0.83541 0,1.25311"
       id="path953"
       inkscape:connector-curvature="0" />
    <path
       style="fill:none;stroke:#000000;stroke-width:0.30504221px;stroke-linecap:butt;stroke-linejoin:miter;stroke-opacity:1"
       d="m 4.9734244,255.13919 c 0.1585893,0.0781 0.2775687,-0.16985 0.4255221,-0.14362"
       id="path957"
       inkscape:connector-curvature="0"
       sodipodi:nodetypes="cc" />
    <path
       style="fill:none;stroke:#000000;stroke-width:0.30504221px;stroke-linecap:butt;stroke-linejoin:miter;stroke-opacity:1"
       d="m 6.3688046,254.7977 c 0.2229155,0.54551 -0.3395449,1.16102 0.135265,1.6646 0.1039566,0.088 0.246037,0.146 0.3937594,0.1821"
       id="path959"
       inkscape:connector-curvature="0" />
    <path
       style="fill:none;stroke:#000000;stroke-width:0.30504221px;stroke-linecap:butt;stroke-linejoin:miter;stroke-opacity:1"
       d="m 5.9279598,255.55625 c 0.4555396,0 0.9110791,0 1.3666187,0"
       id="path961"
       inkscape:connector-curvature="0" />
    <path
       style="fill:none;stroke:#000000;stroke-width:0.30504221px;stroke-linecap:butt;stroke-linejoin:miter;stroke-opacity:1"
       d="m 8.7052817,255.65519 c -0.7959951,-0.25723 -0.7158936,0.5229 -0.5494473,0.85345 -0.1138271,0.16086 -0.4090092,0.09 -0.5967554,0.07"
       id="path963"
       inkscape:connector-curvature="0" />
    <path
       style="fill:none;stroke:#000000;stroke-width:0.44280794px;stroke-linecap:butt;stroke-linejoin:miter;stroke-opacity:1"
       d="m 10.757822,255.24076 c -1.1291446,-0.33089 -0.534985,1.70389 0.128701,0.93518 0.07346,-0.31357 0.0115,-0.64403 -0.128701,-0.93518 z"
       id="path965"
       inkscape:connector-curvature="0" />
    <path
       style="fill:none;stroke:#000000;stroke-width:0.42866045px;stroke-linecap:butt;stroke-linejoin:miter;stroke-opacity:1"
       d="m 11.845576,255.02273 c -0.217659,0.28593 -0.212537,2.38973 0.361024,0.54333 0.636876,-0.50558 0.840328,1.00834 0.292072,1.24519"
       id="path967"
       inkscape:connector-curvature="0"
       sodipodi:nodetypes="ccc" />
    <path
       style="fill:none;stroke:#000000;stroke-width:0.45176771px;stroke-linecap:butt;stroke-linejoin:miter;stroke-opacity:1"
       d="m 2.8905938,257.7988 c 0,0.60557 0,1.21115 0,1.81672"
       id="path969"
       inkscape:connector-curvature="0" />
    <path
       style="fill:none;stroke:#000000;stroke-width:0.27024093px;stroke-linecap:butt;stroke-linejoin:miter;stroke-opacity:1"
       d="m 4.1246763,258.09747 c 0.3897109,-10e-6 0.7794214,-10e-6 1.169132,0"
       id="path971"
       inkscape:connector-curvature="0" />
    <path
       style="fill:none;stroke:#000000;stroke-width:0.252;stroke-linecap:butt;stroke-linejoin:miter;stroke-opacity:1;stroke-miterlimit:4;stroke-dasharray:none"
       d="m 7.5447786,257.87132 c -0.9654836,-0.17879 -1.2100077,0.47158 -0.5515295,0.73354 0.4462201,0.16845 1.0804473,0.82094 0.00939,0.63895 -0.946081,-0.31247 0.09619,-0.7317 0.6546603,-0.93264 0.2439913,-0.13505 0.2083943,-0.34833 -0.1125159,-0.43985 z"
       id="path973"
       inkscape:connector-curvature="0" />
    <path
       style="fill:none;stroke:#000000;stroke-width:0.29085138px;stroke-linecap:butt;stroke-linejoin:miter;stroke-opacity:1"
       d="m 10.381016,257.46129 c -0.30176,-0.85354 -1.2367587,1.982 0.234546,0.57278 -0.6846658,-1.41323 0.535507,0.39935 0.473859,0.55274 0.155046,0.3485 -0.24995,0.66457 -0.763448,0.50445"
       id="path977"
       inkscape:connector-curvature="0"
       sodipodi:nodetypes="cccc" />
    <path
       style="fill:none;stroke:#000000;stroke-width:0.24730319px;stroke-linecap:butt;stroke-linejoin:miter;stroke-opacity:1"
       d="m 11.94493,258.19202 c 0.285628,0 0.571257,0 0.856884,0"
       id="path979"
       inkscape:connector-curvature="0" />
    <path
       style="fill:none;stroke:#000000;stroke-width:0.34039551px;stroke-linecap:butt;stroke-linejoin:miter;stroke-opacity:1"
       d="m 13.418529,256.40315 c -0.05385,0.58148 0.110282,1.94477 -0.08702,2.51206"
       id="path981"
       inkscape:connector-curvature="0"
       sodipodi:nodetypes="cc" />
    <path
       style="fill:none;stroke:#000000;stroke-width:0.34039551px;stroke-linecap:butt;stroke-linejoin:miter;stroke-opacity:1"
       d="m 15.071771,257.20914 c -0.65677,-0.19168 -1.043095,0.57137 -0.936417,1.10001 -0.18685,0.73063 1.035432,1.0452 1.012765,0.25482 -0.203001,-0.28931 -0.587313,-0.44638 -0.946448,-0.39759"
       id="path983"
       inkscape:connector-curvature="0" />
  </g>
</svg>
