<?xml version="1.0" encoding="UTF-8" standalone="no"?>
<!-- Created with Inkscape (http://www.inkscape.org/) -->

<svg
   xmlns:dc="http://purl.org/dc/elements/1.1/"
   xmlns:cc="http://creativecommons.org/ns#"
   xmlns:rdf="http://www.w3.org/1999/02/22-rdf-syntax-ns#"
   xmlns:svg="http://www.w3.org/2000/svg"
   xmlns="http://www.w3.org/2000/svg"
   xmlns:sodipodi="http://sodipodi.sourceforge.net/DTD/sodipodi-0.dtd"
   xmlns:inkscape="http://www.inkscape.org/namespaces/inkscape"
   width="10mm"
   height="5mm"
   viewBox="0 0 10 5"
   version="1.1"
   id="svg890"
   inkscape:version="0.92.2 5c3e80d, 2017-08-06"
   sodipodi:docname="computerscare-rst-text-red.svg">
  <defs
     id="defs884" />
  <sodipodi:namedview
     id="base"
     pagecolor="#ffffff"
     bordercolor="#666666"
     borderopacity="1.0"
     inkscape:pageopacity="0.0"
     inkscape:pageshadow="2"
     inkscape:zoom="11.2"
     inkscape:cx="31.428572"
     inkscape:cy="16.512059"
     inkscape:document-units="mm"
     inkscape:current-layer="text1460"
     showgrid="false"
     units="mm"
     inkscape:window-width="1440"
     inkscape:window-height="855"
     inkscape:window-x="0"
     inkscape:window-y="1"
     inkscape:window-maximized="1" />
  <metadata
     id="metadata887">
    <rdf:RDF>
      <cc:Work
         rdf:about="">
        <dc:format>image/svg+xml</dc:format>
        <dc:type
           rdf:resource="http://purl.org/dc/dcmitype/StillImage" />
        <dc:title></dc:title>
      </cc:Work>
    </rdf:RDF>
  </metadata>
  <g
     inkscape:label="Layer 1"
     inkscape:groupmode="layer"
     id="layer1"
     transform="translate(0,-292)">
    <g
       aria-label="rst"
       style="font-style:normal;font-weight:normal;font-size:6.29599571px;line-height:1.25;font-family:sans-serif;letter-spacing:0px;word-spacing:0px;fill:#000000;fill-opacity:1;stroke:none;stroke-width:0.15739989"
       id="text1460">
      <path
         d="m 3.1741321,293.87751 q -0.09872,-0.0559 -0.2142721,-0.084 -0.1126317,-0.0309 -0.2484227,-0.037 -0.4814513,-0.0219 -0.7234135,0.25827 -0.2390457,0.27745 -0.2068562,0.82132 l 0.099956,1.68886 -0.5709549,-0.026 -0.1897489,-3.20597 0.5709551,0.026 0.029479,0.49807 q 0.1617211,-0.28382 0.4404383,-0.41103 0.2785477,-0.13006 0.6890162,-0.11138 0.058653,0.003 0.1301158,0.0143 0.071266,0.008 0.158587,0.0272 z"
         style="fill:#b63900;fill-opacity:1;stroke-width:0.15197389"
         id="path1462"
         inkscape:connector-curvature="0" />
      <path
         d="m 5.9131608,293.30639 0.036975,0.51822 q -0.2482889,-0.11913 -0.5107727,-0.17869 -0.2624845,-0.0596 -0.539164,-0.0596 -0.4211677,0 -0.6243636,0.12509 -0.2001212,0.12509 -0.1822718,0.37526 0.013603,0.19061 0.172099,0.30081 0.1582865,0.10721 0.6202832,0.2055 l 0.1966489,0.0417 q 0.6114707,0.12508 0.8799193,0.35441 0.2713097,0.22635 0.300422,0.63438 0.033149,0.4646 -0.3287158,0.73563 -0.3587914,0.27102 -1.0228222,0.27102 -0.2766795,0 -0.5817774,-0.0536 -0.3018108,-0.0506 -0.6412646,-0.15488 l -0.040375,-0.56587 q 0.3248324,0.15785 0.6349175,0.23826 0.3098682,0.0774 0.6080672,0.0774 0.3996482,0 0.6054941,-0.13104 0.2056321,-0.13402 0.1884201,-0.37526 -0.015937,-0.22338 -0.1812227,-0.34251 -0.1622107,-0.11913 -0.6957639,-0.22932 l -0.199936,-0.0446 q -0.5333408,-0.10722 -0.7827061,-0.32761 -0.2495781,-0.22338 -0.2772031,-0.61056 -0.033574,-0.47056 0.2924631,-0.72669 0.3260373,-0.25613 0.9593259,-0.25613 0.3135701,0 0.5934356,0.0446 0.2798656,0.0447 0.5198822,0.13402 z"
         style="fill:#b63900;fill-opacity:1;stroke-width:0.15492441"
         id="path1464"
         inkscape:connector-curvature="0" />
      <path
         d="m 7.1675079,292.41989 0.1355192,0.91257 1.3146089,0.031 0.060941,0.41037 -1.3146088,-0.031 0.2591037,1.74479 q 0.058385,0.39316 0.2033443,0.5081 0.1484277,0.11502 0.5473191,0.12441 l 0.6555643,0.0154 0.065629,0.44194 -0.6555642,-0.0154 q -0.7388215,-0.0174 -1.0534413,-0.25071 -0.3150515,-0.23619 -0.4045461,-0.83884 l -0.2591058,-1.7448 -0.4682615,-0.011 -0.060941,-0.41037 0.4682617,0.011 -0.1355192,-0.91257 z"
         style="fill:#b63900;fill-opacity:1;stroke-width:0.16125326"
         id="path1466"
         inkscape:connector-curvature="0" />
    </g>
  </g>
</svg>
