<?xml version="1.0" encoding="UTF-8" standalone="no"?>
<!-- Created with Inkscape (http://www.inkscape.org/) -->

<svg
   xmlns:dc="http://purl.org/dc/elements/1.1/"
   xmlns:cc="http://creativecommons.org/ns#"
   xmlns:rdf="http://www.w3.org/1999/02/22-rdf-syntax-ns#"
   xmlns:svg="http://www.w3.org/2000/svg"
   xmlns="http://www.w3.org/2000/svg"
   xmlns:sodipodi="http://sodipodi.sourceforge.net/DTD/sodipodi-0.dtd"
   xmlns:inkscape="http://www.inkscape.org/namespaces/inkscape"
   width="90mm"
   height="20mm"
   viewBox="0 0 90 20"
   version="1.1"
   id="svg875"
   inkscape:version="0.92.2 5c3e80d, 2017-08-06"
   sodipodi:docname="debug-clock-selector-4way-template.svg">
  <defs
     id="defs869" />
  <sodipodi:namedview
     id="base"
     pagecolor="#ffffff"
     bordercolor="#666666"
     borderopacity="1.0"
     inkscape:pageopacity="0.0"
     inkscape:pageshadow="2"
     inkscape:zoom="1.979899"
     inkscape:cx="180.98042"
     inkscape:cy="19.895486"
     inkscape:document-units="mm"
     inkscape:current-layer="layer1"
     showgrid="false"
     inkscape:window-width="1440"
     inkscape:window-height="855"
     inkscape:window-x="0"
     inkscape:window-y="1"
     inkscape:window-maximized="1"
     inkscape:snap-global="false" />
  <metadata
     id="metadata872">
    <rdf:RDF>
      <cc:Work
         rdf:about="">
        <dc:format>image/svg+xml</dc:format>
        <dc:type
           rdf:resource="http://purl.org/dc/dcmitype/StillImage" />
        <dc:title></dc:title>
      </cc:Work>
    </rdf:RDF>
  </metadata>
  <g
     inkscape:label="Layer 1"
     inkscape:groupmode="layer"
     id="layer1"
     transform="translate(0,-277)">
    <path
       style="fill:none;fill-opacity:1;stroke:#000000;stroke-width:0.11972128;stroke-linecap:round;stroke-linejoin:round;stroke-miterlimit:4;stroke-dasharray:none;stroke-opacity:1;paint-order:stroke fill markers"
       d="M 0.46118526,277.62933 H 28.244261 l -0.170303,2.96926 H 0.29088276 Z"
       id="rect1439"
       inkscape:connector-curvature="0"
       sodipodi:nodetypes="ccccc" />
    <path
       style="fill:#24c9a6;fill-opacity:1;stroke:#000000;stroke-width:0.10233776px;stroke-linecap:butt;stroke-linejoin:miter;stroke-opacity:1"
       d="m 0.46950006,277.6377 v 3.12328 l 7.68074424,0.17113 -0.2497801,-3.37998 z"
       id="path1441"
       inkscape:connector-curvature="0" />
    <g
       aria-label="clock
mode"
       transform="matrix(0.42567632,0,0,0.24331969,-0.18393281,188.36236)"
       style="font-style:normal;font-weight:normal;font-size:8.4089632px;line-height:1.25;font-family:sans-serif;letter-spacing:0px;word-spacing:0px;fill:#000000;fill-opacity:1;stroke:none;stroke-width:0.21022408"
       id="text2004">
      <path
         d="m 4.6977589,369.31719 v 0.52261 q -0.2445013,-0.13066 -0.4921373,-0.19446 -0.2445013,-0.0668 -0.495272,-0.0668 -0.5610992,0 -0.8714278,0.34637 -0.3103287,0.34334 -0.3103287,0.96621 0,0.62288 0.3103287,0.96926 0.3103286,0.34334 0.8714278,0.34334 0.2507707,0 0.495272,-0.0638 0.247636,-0.0668 0.4921373,-0.19749 v 0.51653 q -0.2413667,0.10938 -0.5015412,0.16407 -0.2570399,0.0547 -0.5485607,0.0547 -0.7930621,0 -1.2601223,-0.48311 -0.4670604,-0.4831 -0.4670604,-1.30347 0,-0.83253 0.470195,-1.30956 0.4733295,-0.47703 1.2946033,-0.47703 0.2664438,0 0.520349,0.0547 0.2539053,0.0516 0.4921373,0.158 z"
         style="stroke-width:0.15801062"
         id="path2008"
         inkscape:connector-curvature="0" />
      <path
         d="m 5.7071108,367.86179 h 0.5767723 v 4.72776 H 5.7071108 Z"
         style="stroke-width:0.15801062"
         id="path2010"
         inkscape:connector-curvature="0" />
      <path
         d="m 8.8480127,369.57849 q -0.463926,0 -0.733504,0.35246 -0.269578,0.34941 -0.269578,0.96013 0,0.61073 0.266444,0.96317 0.269577,0.34943 0.736638,0.34943 0.460791,0 0.730369,-0.35246 0.269579,-0.35246 0.269579,-0.96014 0,-0.60464 -0.269579,-0.9571 -0.269578,-0.35549 -0.730369,-0.35549 z m 0,-0.47399 q 0.752312,0 1.1817563,0.47399 0.429445,0.47399 0.429445,1.31259 0,0.83557 -0.429445,1.3126 -0.4294443,0.47398 -1.1817563,0.47398 -0.755446,0 -1.184891,-0.47398 -0.4263099,-0.47703 -0.4263099,-1.3126 0,-0.8386 0.4263099,-1.31259 0.429445,-0.47399 1.184891,-0.47399 z"
         style="stroke-width:0.15801062"
         id="path2012"
         inkscape:connector-curvature="0" />
      <path
         d="m 13.938656,369.31719 v 0.52261 q -0.244501,-0.13066 -0.492137,-0.19446 -0.244502,-0.0668 -0.495272,-0.0668 -0.561099,0 -0.871428,0.34637 -0.310329,0.34334 -0.310329,0.96621 0,0.62288 0.310329,0.96926 0.310329,0.34334 0.871428,0.34334 0.25077,0 0.495272,-0.0638 0.247636,-0.0668 0.492137,-0.19749 v 0.51653 q -0.241366,0.10938 -0.501541,0.16407 -0.25704,0.0547 -0.548561,0.0547 -0.793062,0 -1.260122,-0.48311 -0.46706,-0.4831 -0.46706,-1.30347 0,-0.83253 0.470195,-1.30956 0.473329,-0.47703 1.294603,-0.47703 0.266444,0 0.520349,0.0547 0.253906,0.0516 0.492137,0.158 z"
         style="stroke-width:0.15801062"
         id="path2014"
         inkscape:connector-curvature="0" />
      <path
         d="m 14.926066,367.86179 h 0.579907 v 2.7923 l 1.720913,-1.46755 h 0.736639 l -1.861972,1.59212 1.940337,1.81089 h -0.752311 l -1.783606,-1.66201 v 1.66201 h -0.579907 z"
         style="stroke-width:0.15801062"
         id="path2016"
         inkscape:connector-curvature="0" />
      <path
         d="m 4.5911814,375.08548 q 0.2162896,-0.37676 0.5172144,-0.55603 0.3009247,-0.17926 0.7084269,-0.17926 0.5485605,0 0.8463512,0.37372 0.29779,0.37069 0.29779,1.05737 v 2.05397 H 6.3810566 v -2.03574 q 0,-0.48918 -0.1786737,-0.72618 -0.1786744,-0.237 -0.5454264,-0.237 -0.4482525,0 -0.708427,0.28866 -0.2601745,0.28864 -0.2601745,0.78695 v 1.92331 H 4.1084479 v -2.03574 q 0,-0.49222 -0.178674,-0.72618 -0.1786741,-0.237 -0.5516954,-0.237 -0.4419832,0 -0.7021577,0.29169 -0.2601746,0.28865 -0.2601746,0.78392 v 1.92331 h -0.579907 v -3.40302 h 0.579907 v 0.52868 q 0.1974819,-0.31295 0.4733296,-0.46183 0.2758477,-0.14889 0.6551383,-0.14889 0.3824251,0 0.6488689,0.18838 0.2695784,0.18838 0.3980984,0.54691 z"
         style="stroke-width:0.15801062"
         id="path2018"
         inkscape:connector-curvature="0" />
      <path
         d="m 9.4749397,374.82418 q -0.463926,0 -0.733505,0.35246 -0.269578,0.34941 -0.269578,0.96014 0,0.61071 0.266444,0.96317 0.269578,0.34942 0.736639,0.34942 0.460791,0 0.7303693,-0.35246 0.269579,-0.35246 0.269579,-0.96013 0,-0.60465 -0.269579,-0.9571 -0.2695783,-0.3555 -0.7303693,-0.3555 z m 0,-0.47399 q 0.7523123,0 1.1817563,0.47399 0.429445,0.474 0.429445,1.3126 0,0.83556 -0.429445,1.31259 -0.429444,0.47399 -1.1817563,0.47399 -0.755447,0 -1.184892,-0.47399 -0.426309,-0.47703 -0.426309,-1.31259 0,-0.8386 0.426309,-1.3126 0.429445,-0.47399 1.184892,-0.47399 z"
         style="stroke-width:0.15801062"
         id="path2020"
         inkscape:connector-curvature="0" />
      <path
         d="m 14.349293,374.94875 v -1.84126 h 0.576773 v 4.72776 h -0.576773 v -0.51046 q -0.181808,0.30384 -0.460791,0.45272 -0.275847,0.14585 -0.664542,0.14585 -0.636331,0 -1.037563,-0.49222 -0.398099,-0.49223 -0.398099,-1.29436 0,-0.80214 0.398099,-1.29436 0.401232,-0.49223 1.037563,-0.49223 0.388695,0 0.664542,0.14889 0.278983,0.14584 0.460791,0.44967 z m -1.965415,1.18803 q 0,0.61679 0.260175,0.96925 0.263309,0.34941 0.720965,0.34941 0.457657,0 0.720966,-0.34941 0.263309,-0.35246 0.263309,-0.96925 0,-0.6168 -0.263309,-0.96622 -0.263309,-0.35245 -0.720966,-0.35245 -0.457656,0 -0.720965,0.35245 -0.260175,0.34942 -0.260175,0.96622 z"
         style="stroke-width:0.15801062"
         id="path2022"
         inkscape:connector-curvature="0" />
      <path
         d="m 19.11707,375.99397 v 0.27346 h -2.6519 q 0.03761,0.57729 0.357349,0.88113 0.322867,0.30081 0.896505,0.30081 0.332271,0 0.642599,-0.079 0.313464,-0.079 0.620658,-0.237 v 0.52869 q -0.310329,0.12761 -0.63633,0.19445 -0.326003,0.0668 -0.661409,0.0668 -0.840081,0 -1.332218,-0.474 -0.489003,-0.47398 -0.489003,-1.2822 0,-0.83557 0.463926,-1.32475 0.46706,-0.49222 1.256987,-0.49222 0.708428,0 1.119065,0.44361 0.413771,0.44056 0.413771,1.20017 z m -0.576772,-0.16407 q -0.0063,-0.4588 -0.266444,-0.73226 -0.25704,-0.27346 -0.68335,-0.27346 -0.482733,0 -0.774255,0.26435 -0.288386,0.26433 -0.33227,0.7444 z"
         style="stroke-width:0.15801062"
         id="path2024"
         inkscape:connector-curvature="0" />
    </g>
    <g
       aria-label="sing"
       style="font-style:normal;font-weight:normal;font-size:10.58333302px;line-height:1.25;font-family:sans-serif;letter-spacing:0px;word-spacing:0px;fill:#000000;fill-opacity:1;stroke:none;stroke-width:0.26458332"
       id="text2029"
       transform="matrix(0.24788152,0,0,0.19166054,-0.30011791,231.82204)">
      <path
         d="m 9.4979038,260.24587 v 0.89917 q -0.4030761,-0.20671 -0.8371581,-0.31006 -0.4340821,-0.10335 -0.8991699,-0.10335 -0.7079671,0 -1.0645345,0.21704 -0.3513997,0.21704 -0.3513997,0.65112 0,0.33073 0.2532145,0.52193 0.2532145,0.18604 1.0180257,0.35657 l 0.3255615,0.0723 q 1.012858,0.21704 1.4366048,0.61495 0.4289143,0.39274 0.4289143,1.10071 0,0.80615 -0.6407877,1.2764 -0.6356201,0.47026 -1.751831,0.47026 -0.4650879,0 -0.9715169,-0.093 -0.5012614,-0.0879 -1.0593668,-0.26872 v -0.98185 q 0.5270995,0.27389 1.0386962,0.41341 0.5115967,0.13436 1.0128581,0.13436 0.6717936,0 1.0335286,-0.22737 0.361735,-0.23255 0.361735,-0.65113 0,-0.38757 -0.2635498,-0.59428 -0.2583822,-0.2067 -1.1420491,-0.3979 l -0.3307292,-0.0775 q -0.883667,-0.18603 -1.2764078,-0.56844 -0.3927409,-0.38757 -0.3927409,-1.05937 0,-0.81648 0.578776,-1.2609 0.578776,-0.44442 1.6433105,-0.44442 0.5270996,0 0.9921875,0.0775 0.4650879,0.0775 0.8578287,0.23254 z"
         style="stroke-width:0.26458332"
         id="path2043"
         inkscape:connector-curvature="0" />
      <path
         d="m 11.32725,260.07534 h 0.950846 v 5.78776 H 11.32725 Z m 0,-2.25309 h 0.950846 v 1.20406 H 11.32725 Z"
         style="stroke-width:0.26458332"
         id="path2045"
         inkscape:connector-curvature="0" />
      <path
         d="m 19.073546,262.36977 v 3.49333 H 18.1227 v -3.46232 q 0,-0.82166 -0.320394,-1.2299 -0.320394,-0.40825 -0.961182,-0.40825 -0.769979,0 -1.214396,0.49093 -0.444417,0.49093 -0.444417,1.33842 v 3.27112 h -0.956014 v -5.78776 h 0.956014 v 0.89917 q 0.341064,-0.52193 0.800985,-0.78032 0.465087,-0.25838 1.069702,-0.25838 0.997355,0 1.508951,0.62012 0.511597,0.61495 0.511597,1.81384 z"
         style="stroke-width:0.26458332"
         id="path2047"
         inkscape:connector-curvature="0" />
      <path
         d="m 24.78896,262.90204 q 0,-1.03353 -0.428915,-1.60197 -0.423746,-0.56844 -1.193725,-0.56844 -0.764811,0 -1.193726,0.56844 -0.423746,0.56844 -0.423746,1.60197 0,1.02836 0.423746,1.5968 0.428915,0.56844 1.193726,0.56844 0.769979,0 1.193725,-0.56844 0.428915,-0.56844 0.428915,-1.5968 z m 0.950846,2.24276 q 0,1.47794 -0.656291,2.19624 -0.65629,0.72347 -2.010213,0.72347 -0.501261,0 -0.945678,-0.0775 -0.444418,-0.0724 -0.862997,-0.22738 v -0.925 q 0.418579,0.22737 0.826823,0.33589 0.408244,0.10852 0.831991,0.10852 0.935343,0 1.400431,-0.49092 0.465088,-0.48576 0.465088,-1.47278 v -0.47026 q -0.294556,0.5116 -0.754476,0.76481 -0.45992,0.25322 -1.100708,0.25322 -1.064535,0 -1.715658,-0.81132 -0.651123,-0.81132 -0.651123,-2.14974 0,-1.34359 0.651123,-2.15491 0.651123,-0.81132 1.715658,-0.81132 0.640788,0 1.100708,0.25322 0.45992,0.25321 0.754476,0.76481 v -0.8785 h 0.950846 z"
         style="stroke-width:0.26458332"
         id="path2049"
         inkscape:connector-curvature="0" />
    </g>
    <g
       aria-label="int"
       style="font-style:normal;font-weight:normal;font-size:10.58333302px;line-height:1.25;font-family:sans-serif;letter-spacing:0px;word-spacing:0px;fill:#000000;fill-opacity:1;stroke:none;stroke-width:0.26458332"
       id="text2033"
       transform="matrix(0.32041122,-0.03020076,0.01966042,0.20858479,-8.1685374,228.88505)">
      <path
         d="m 35.876029,258.739 h 0.950846 v 5.78776 h -0.950846 z m 0,-2.25309 h 0.950846 v 1.20406 h -0.950846 z"
         style="stroke-width:0.26458332"
         id="path2068"
         inkscape:connector-curvature="0" />
      <path
         d="m 43.622326,261.03344 v 3.49332 h -0.950847 v -3.46232 q 0,-0.82165 -0.320394,-1.2299 -0.320394,-0.40824 -0.961181,-0.40824 -0.769979,0 -1.214396,0.49093 -0.444418,0.49092 -0.444418,1.33842 v 3.27111 H 38.775076 V 258.739 h 0.956014 v 0.89917 q 0.341065,-0.52193 0.800985,-0.78031 0.465088,-0.25838 1.069702,-0.25838 0.997355,0 1.508952,0.62011 0.511597,0.61495 0.511597,1.81385 z"
         style="stroke-width:0.26458332"
         id="path2070"
         inkscape:connector-curvature="0" />
      <path
         d="m 46.469697,257.09569 v 1.64331 h 1.958537 v 0.73898 h -1.958537 v 3.14192 q 0,0.70797 0.191203,0.90951 0.19637,0.20154 0.790649,0.20154 h 0.976685 v 0.79581 h -0.976685 q -1.100708,0 -1.519287,-0.40824 -0.418579,-0.41341 -0.418579,-1.49862 v -3.14192 H 44.816051 V 258.739 h 0.697632 v -1.64331 z"
         style="stroke-width:0.26458332"
         id="path2072"
         inkscape:connector-curvature="0" />
    </g>
    <g
       aria-label="poly"
       style="font-style:normal;font-weight:normal;font-size:10.58333302px;line-height:1.25;font-family:sans-serif;letter-spacing:0px;word-spacing:0px;fill:#000000;fill-opacity:1;stroke:none;stroke-width:0.26458332"
       id="text2037"
       transform="matrix(0.25663654,0,0,0.21265583,-0.6642181,226.54879)">
      <path
         d="m 59.620352,262.38469 v 3.29869 l -1.234482,-0.29872 v -8.58548 l 1.234482,0.29872 v 0.94407 q 0.387028,-0.46168 0.974241,-0.58614 0.593887,-0.12841 1.414651,0.0702 1.361266,0.3294 2.208721,1.4341 0.854129,1.10634 0.854129,2.57242 0,1.46608 -0.854129,2.15904 -0.847455,0.69458 -2.208721,0.36518 -0.820764,-0.19861 -1.414651,-0.60888 -0.587213,-0.4142 -0.974241,-1.0632 z m 4.177222,-1.16055 q 0,-1.12734 -0.560521,-1.9016 -0.553849,-0.77822 -1.528089,-1.01396 -0.97424,-0.23575 -1.534762,0.27281 -0.55385,0.5046 -0.55385,1.63194 0,1.12733 0.55385,1.90554 0.560522,0.77427 1.534762,1.01002 0.97424,0.23574 1.528089,-0.26887 0.560521,-0.50855 0.560521,-1.63588 z"
         style="stroke-width:0.31167662"
         id="path2059"
         inkscape:connector-curvature="0" />
      <path
         d="m 68.890982,258.87108 q -0.764811,0 -1.209228,0.59945 -0.444418,0.59428 -0.444418,1.63298 0,1.03869 0.43925,1.63814 0.444417,0.59428 1.214396,0.59428 0.759644,0 1.204061,-0.59945 0.444417,-0.59945 0.444417,-1.63297 0,-1.02837 -0.444417,-1.62781 -0.444417,-0.60462 -1.204061,-0.60462 z m 0,-0.80615 q 1.240234,0 1.948201,0.80615 0.707968,0.80616 0.707968,2.23243 0,1.4211 -0.707968,2.23242 -0.707967,0.80615 -1.948201,0.80615 -1.245402,0 -1.953369,-0.80615 -0.702799,-0.81132 -0.702799,-2.23242 0,-1.42627 0.702799,-2.23243 0.707967,-0.80615 1.953369,-0.80615 z"
         style="stroke-width:0.26458332"
         id="path2061"
         inkscape:connector-curvature="0" />
      <path
         d="m 73.118114,255.95137 h 0.950846 v 8.04085 h -0.950846 z"
         style="stroke-width:0.26458332"
         id="path2063"
         inkscape:connector-curvature="0" />
      <path
         d="m 78.461457,264.52965 q -0.403076,1.03353 -0.785481,1.34876 -0.382406,0.31522 -1.023194,0.31522 h -0.759643 v -0.79581 h 0.558105 q 0.392741,0 0.609782,-0.18604 0.217041,-0.18603 0.480591,-0.8785 l 0.170532,-0.43408 -2.340942,-5.69474 h 1.00769 l 1.808675,4.52685 1.808675,-4.52685 h 1.007691 z"
         style="stroke-width:0.26458332"
         id="path2065"
         inkscape:connector-curvature="0" />
    </g>
    <g
       aria-label="off"
       style="font-style:normal;font-weight:normal;font-size:10.58333302px;line-height:1.25;font-family:sans-serif;letter-spacing:0px;word-spacing:0px;fill:#000000;fill-opacity:1;stroke:none;stroke-width:0.26458332"
       id="text2041"
       transform="matrix(0.38538639,0,0,0.2273168,-0.53266411,220.80402)">
      <path
         d="m 62.306679,267.82461 q -0.764812,0 -1.209229,0.59944 -0.444417,0.59428 -0.444417,1.63298 0,1.03869 0.43925,1.63814 0.444417,0.59428 1.214396,0.59428 0.759643,0 1.204061,-0.59945 0.444417,-0.59944 0.444417,-1.63297 0,-1.02836 -0.444417,-1.62781 -0.444418,-0.60461 -1.204061,-0.60461 z m 0,-0.80616 q 1.240234,0 1.948201,0.80616 0.707967,0.80615 0.707967,2.23242 0,1.4211 -0.707967,2.23242 -0.707967,0.80615 -1.948201,0.80615 -1.245402,0 -1.953369,-0.80615 -0.7028,-0.81132 -0.7028,-2.23242 0,-1.42627 0.7028,-2.23242 0.707967,-0.80616 1.953369,-0.80616 z"
         style="stroke-width:0.26458332"
         id="path2052"
         inkscape:connector-curvature="0" />
      <path
         d="m 69.463864,264.90489 v 0.79065 h -0.909505 q -0.511596,0 -0.713135,0.2067 -0.19637,0.20671 -0.19637,0.74414 v 0.5116 h 1.565796 v 0.73897 h -1.565796 v 5.04879 H 66.68884 v -5.04879 h -0.909505 v -0.73897 h 0.909505 v -0.40308 q 0,-0.96635 0.449585,-1.4056 0.449585,-0.44441 1.426269,-0.44441 z"
         style="stroke-width:0.26458332"
         id="path2054"
         inkscape:connector-curvature="0" />
      <path
         d="m 73.184567,264.90489 v 0.79065 h -0.909505 q -0.511597,0 -0.713135,0.2067 -0.19637,0.20671 -0.19637,0.74414 v 0.5116 h 1.565796 v 0.73897 h -1.565796 v 5.04879 h -0.956014 v -5.04879 h -0.909505 v -0.73897 h 0.909505 v -0.40308 q 0,-0.96635 0.449585,-1.4056 0.449585,-0.44441 1.426269,-0.44441 z"
         style="stroke-width:0.26458332"
         id="path2056"
         inkscape:connector-curvature="0" />
    </g>
  </g>
</svg>
