<?xml version="1.0" encoding="UTF-8" standalone="no"?>
<!-- Created with Inkscape (http://www.inkscape.org/) -->

<svg
   width="21.966238mm"
   height="19.291162mm"
   viewBox="0 0 21.966238 19.291162"
   version="1.1"
   id="svg1"
   inkscape:version="1.3.2 (091e20e, 2023-11-25)"
   sodipodi:docname="fz.svg"
   xmlns:inkscape="http://www.inkscape.org/namespaces/inkscape"
   xmlns:sodipodi="http://sodipodi.sourceforge.net/DTD/sodipodi-0.dtd"
   xmlns="http://www.w3.org/2000/svg"
   xmlns:svg="http://www.w3.org/2000/svg">
  <sodipodi:namedview
     id="namedview1"
     pagecolor="#ffffff"
     bordercolor="#000000"
     borderopacity="0.25"
     inkscape:showpageshadow="2"
     inkscape:pageopacity="0.0"
     inkscape:pagecheckerboard="0"
     inkscape:deskcolor="#d1d1d1"
     inkscape:document-units="mm"
     inkscape:zoom="4.7572176"
     inkscape:cx="42.461795"
     inkscape:cy="59.068141"
     inkscape:window-width="1920"
     inkscape:window-height="1027"
     inkscape:window-x="1728"
     inkscape:window-y="25"
     inkscape:window-maximized="1"
     inkscape:current-layer="layer1" />
  <defs
     id="defs1" />
  <g
     inkscape:label="Layer 1"
     inkscape:groupmode="layer"
     id="layer1"
     transform="translate(-93.397917,-138.90625)">
    <path
       d="m 97.867487,157.44207 c 0.260263,0.52211 -1.167597,0.0839 -1.339266,-0.38827 -0.368463,-1.02968 -2.222873,-7.78159 -2.329832,-8.23382 -0.06018,-0.25425 -0.246702,-0.92099 -0.497041,-1.77634 -0.46376,-1.58457 -0.383603,-3.95341 0.156277,-4.61851 0.06803,-0.0837 0.218279,-0.31214 0.334023,-0.50753 0.115756,-0.1954 0.276257,-0.3918 0.356701,-0.43644 0.08049,-0.0446 0.146284,-0.1277 0.146284,-0.18473 0,-0.13359 0.542795,-0.85332 0.980575,-1.30034 0.187552,-0.19149 0.341001,-0.38379 0.341001,-0.42729 0,-0.80109 3.289333,-0.8614 4.285861,-0.25851 0.87973,0.53224 -0.0326,0.35802 0.40671,1.467 l -2.781984,-0.45076 -0.423825,-0.0519 -0.405744,0.44086 c -0.821171,0.89224 -1.514724,3.44546 -1.936482,4.17996 -0.17034,0.29665 4.620691,0.63855 5.350505,0.58927 0.46089,-0.0311 0.18342,0.74697 0.0674,0.98324 -0.16936,0.3449 -4.853235,0.0596 -5.363123,0.0445 0.246128,1.12407 0.747374,2.43975 1.001776,3.033 0.06342,0.14779 0.112192,0.27945 0.08316,0.30614 -0.02891,0.0267 0.0015,0.23659 0.0929,0.45291 0.09133,0.21634 0.26432,0.72645 0.384362,1.1336 0.119993,0.40716 0.295172,0.88237 0.38916,1.05604 0.09395,0.17365 0.995102,2.57454 0.995102,2.68129 0,0.1068 0.328048,1.44608 0.195701,2.09981 z"
       style="display:inline;fill:#000000;stroke-width:1.29213;enable-background:new"
       id="path1"
       sodipodi:nodetypes="cccscscscsscccssssccccccscc" />
    <path
       d="m 110.24614,156.63813 c -0.21691,-0.0678 -0.95642,-0.0988 -2.4748,-0.10365 -3.70296,-0.0118 -4.22078,-0.61345 -2.65733,-3.08751 l 0.25512,-0.40371 -0.1484,-0.0681 c -0.0816,-0.0374 -0.29843,-0.0922 -0.48179,-0.12168 l -0.33338,-0.0536 -0.17467,-0.29345 -0.17467,-0.29345 0.13199,-0.27076 c 0.0873,-0.17915 0.18502,-0.2661 0.28872,-0.25698 0.27839,0.0245 0.38936,-0.002 0.33349,-0.0794 -0.0819,-0.11357 0.34941,-0.092 0.8989,0.0449 0.2663,0.0663 0.49345,0.10896 0.50478,0.0947 0.0113,-0.0143 0.13763,-0.16244 0.2807,-0.32926 0.14306,-0.16683 0.29988,-0.35935 0.34849,-0.42784 0.0486,-0.0685 0.21765,-0.28312 0.37564,-0.47696 0.15799,-0.19384 0.28726,-0.37443 0.28726,-0.40131 0,-0.0269 0.0942,-0.13596 0.2094,-0.2424 0.3267,-0.30192 1.20477,-1.44007 1.20477,-1.5616 0,-0.12957 -0.11223,-0.13242 -0.92806,-0.0236 -0.85645,0.11421 -0.86753,0.11595 -1.01643,0.15937 -2.12132,0.61862 -3.4125,0.84451 -3.61744,0.63286 -0.47433,-0.48985 -0.0715,-0.96378 0.93476,-1.09976 0.3817,-0.0516 1.03208,-0.17475 1.44528,-0.2737 2.38792,-0.57185 4.57734,-0.61677 4.943,-0.10141 l 0.16469,0.2321 -0.0872,0.27085 c -0.0844,0.2621 -0.39952,0.71178 -0.53486,0.76333 -0.0365,0.0139 -0.0663,0.0735 -0.0663,0.13257 0,0.059 -0.0734,0.17025 -0.16317,0.24716 -0.0897,0.0769 -0.29666,0.30702 -0.45982,0.51134 -0.16316,0.20432 -0.33832,0.40957 -0.38925,0.45611 -0.22581,0.20637 -0.49032,0.48785 -0.49032,0.52178 0,0.0204 -0.17898,0.24547 -0.39774,0.50016 -0.5691,0.66259 -0.59221,0.64656 1.02498,0.71067 1.39191,0.0552 1.85859,0.10809 2.09335,0.23734 l 0.20161,0.11099 -0.15652,0.22709 c -0.0861,0.12491 -0.23647,0.24296 -0.33418,0.26234 -0.62105,0.1232 -1.59346,0.20501 -2.78433,0.23426 -0.75309,0.0185 -1.39384,0.0578 -1.42389,0.0873 -0.18488,0.18156 -0.81289,1.35547 -0.94142,1.75977 -0.21003,0.66062 -0.13023,0.67967 2.80652,0.67001 2.55326,-0.008 2.97597,0.0488 3.12129,0.42244 0.12108,0.31134 -0.0469,0.57247 -0.36832,0.57247 -0.14077,0 -0.41009,0.0461 -0.5985,0.10251 l -0.34256,0.10252 z"
       style="display:inline;fill:#000000;enable-background:new"
       id="path1-3" />
    <path
       style="display:inline;fill:none;fill-opacity:1;stroke:#072820;stroke-width:0.737;enable-background:new;stroke-dasharray:none"
       d="m 105.74224,145.22551 c -0.90831,0.55043 -2.00716,0.81971 -2.72113,1.65756 -0.60394,0.48117 -0.7876,1.20746 -0.95049,1.91596 -0.51125,1.20487 -0.6503,2.52016 -0.83781,3.80143 -0.0264,0.84336 0.25922,1.73327 0.94231,2.26754 0.65451,0.56343 1.05762,1.32362 1.28509,2.143 0.0611,0.13703 0.13448,0.26999 0.23151,0.38516"
       id="path2" />
    <path
       style="display:inline;fill:none;fill-opacity:1;stroke:#072820;stroke-width:0.737;enable-background:new;stroke-dasharray:none"
       d="m 111.10005,144.89478 c 0.69525,0.73454 1.11002,1.67974 1.74107,2.46229 0.48922,0.80084 1.04276,1.56209 1.4234,2.42503 0.52115,0.90543 0.89363,1.90903 0.90068,2.96448 1.2e-4,0.83854 0.1369,1.70329 -0.19163,2.50491 -0.30366,0.9323 -0.87977,1.72806 -1.43282,2.52297 -0.0691,0.11354 -0.13379,0.22985 -0.19175,0.34949"
       id="path3" />
  </g>
</svg>
