<?xml version="1.0" encoding="UTF-8" standalone="no"?>
<!-- Created with Inkscape (http://www.inkscape.org/) -->

<svg
   xmlns:dc="http://purl.org/dc/elements/1.1/"
   xmlns:cc="http://creativecommons.org/ns#"
   xmlns:rdf="http://www.w3.org/1999/02/22-rdf-syntax-ns#"
   xmlns:svg="http://www.w3.org/2000/svg"
   xmlns="http://www.w3.org/2000/svg"
   xmlns:sodipodi="http://sodipodi.sourceforge.net/DTD/sodipodi-0.dtd"
   xmlns:inkscape="http://www.inkscape.org/namespaces/inkscape"
   width="10mm"
   height="10mm"
   viewBox="0 0 10 10"
   version="1.1"
   id="svg837"
   inkscape:version="0.92.2 5c3e80d, 2017-08-06"
   sodipodi:docname="iso-3way-template.svg">
  <defs
     id="defs831">
    <inkscape:perspective
       sodipodi:type="inkscape:persp3d"
       inkscape:vp_x="-15.502741 : -0.68761461 : 1"
       inkscape:vp_y="0 : 1935.9757 : 0"
       inkscape:vp_z="25.090656 : 9.2983744 : 1"
       inkscape:persp3d-origin="19.059341 : -5.6235546 : 1"
       id="perspective1382" />
  </defs>
  <sodipodi:namedview
     id="base"
     pagecolor="#ffffff"
     bordercolor="#666666"
     borderopacity="1.0"
     inkscape:pageopacity="0.0"
     inkscape:pageshadow="2"
     inkscape:zoom="15.839192"
     inkscape:cx="16.282209"
     inkscape:cy="18.522341"
     inkscape:document-units="mm"
     inkscape:current-layer="layer1"
     showgrid="false"
     inkscape:window-width="1440"
     inkscape:window-height="855"
     inkscape:window-x="0"
     inkscape:window-y="1"
     inkscape:window-maximized="1" />
  <metadata
     id="metadata834">
    <rdf:RDF>
      <cc:Work
         rdf:about="">
        <dc:format>image/svg+xml</dc:format>
        <dc:type
           rdf:resource="http://purl.org/dc/dcmitype/StillImage" />
        <dc:title></dc:title>
      </cc:Work>
    </rdf:RDF>
  </metadata>
  <g
     inkscape:label="Layer 1"
     inkscape:groupmode="layer"
     id="layer1"
     transform="translate(0,-287)">
    <path
       style="fill:none;stroke:#000000;stroke-width:0.26458332px;stroke-linecap:butt;stroke-linejoin:miter;stroke-opacity:1"
       d="m 0.918739,287.56204 c -0.0835217,0 -0.16704347,0 -0.25056518,0 -0.0111363,0 -0.0222724,0 -0.0334087,0 -0.0111363,0 -0.023069,-0.004 -0.0334087,0 -0.0186402,0.007 -0.0304268,0.0295 -0.050113,0.0334 -0.0122089,0.002 -0.0213296,-0.0197 -0.0334087,-0.0167 -0.0152789,0.004 -0.01813,0.0296 -0.0334087,0.0334 -0.012079,0.003 -0.0213297,-0.0197 -0.0334087,-0.0167 -0.0152789,0.004 -0.0184679,0.0284 -0.0334087,0.0334 -0.007471,0.002 -0.009234,-0.0192 -0.0167045,-0.0167 -0.050113,0.0167 -0.0167045,0.0334 -0.050113,0.0501 -0.00996,0.005 -0.0255341,-0.008 -0.0334087,0 -0.0668174,0.0668 0.0222724,0 0,0.0668 -0.0222724,0.0668 -0.050113,-0.039 -0.050113,0.0501 0,0.006 0.018465,-0.005 0.0167045,0 -0.006349,0.019 -0.0259526,0.0315 -0.0334087,0.0501 -0.004136,0.0103 0.001831,0.0224 0,0.0334 -0.003774,0.0226 -0.0129301,0.0442 -0.0167043,0.0668 -0.001831,0.011 0,0.0223 0,0.0334 0,0.0334 0,0.0668 0,0.10023 0,0.0223 -0.004368,0.045 0,0.0668 0.001544,0.008 0.0119797,0.0104 0.0167043,0.0167 0.0120457,0.0161 0.0244304,0.0322 0.0334087,0.0501 0.00249,0.005 -0.003341,0.0122 0,0.0167 0.014174,0.0189 0.0359389,0.0312 0.050113,0.0501 0.003341,0.004 -0.00249,0.0117 0,0.0167 0.003522,0.007 0.0111363,0.0111 0.0167042,0.0167 0.0111363,0.0111 0.0253058,0.0199 0.0334087,0.0334 0.009059,0.0151 0.00614,0.036 0.0167045,0.0501 0.007471,0.01 0.0230492,0.01 0.0334087,0.0167 0.0222258,0.0148 0.034452,0.0512 0.050113,0.0668 0.008804,0.009 0.0230492,0.01 0.0334087,0.0167 0.006552,0.004 0.0111363,0.0111 0.0167042,0.0167 0.0167045,0.0111 0.0328979,0.0231 0.050113,0.0334 0.0391747,0.0235 0.0357151,0.0143 0.0835217,0.0334 0.0321033,0.0128 0.0541081,0.0305 0.0835217,0.0501 0.0167045,0.0111 0.0310672,0.0271 0.050113,0.0334 0.0158472,0.005 0.033636,-0.003 0.050113,0 0.0583833,0.01 0.0560769,0.0298 0.11693043,0.0501 0.0105648,0.004 0.0224888,-0.002 0.0334086,0 0.017266,0.003 0.033183,0.0119 0.050113,0.0167 0.022075,0.006 0.046283,0.006 0.066817,0.0167 0.014086,0.007 0.01813,0.0296 0.033409,0.0334 0.012079,0.003 0.020958,-0.0167 0.033409,-0.0167 0.012451,0 0.0212,0.0143 0.033409,0.0167 0.019532,0.004 0.074461,0 0.1002259,0 0.00752,0 0.045029,0.003 0.050113,0 0.058383,-0.0292 -0.031102,-0.002 0.016704,-0.0501 0.00557,-0.006 0.00883,0.0167 0.016705,0.0167 0.011136,0 -0.011136,-0.0334 0,-0.0334 0.020641,0 0.016704,0.0392 0.016704,0"
       id="path887"
       inkscape:connector-curvature="0" />
    <path
       style="fill:none;stroke:#000000;stroke-width:0.26458332px;stroke-linecap:butt;stroke-linejoin:miter;stroke-opacity:1"
       d="m 2.0713388,287.52864 c 0.010432,0.0699 -0.00799,0.16195 0,0.23386 0.00314,0.0282 0.013879,0.0553 0.016704,0.0835 0.00277,0.0277 -0.00277,0.0558 0,0.0835 0.00282,0.0283 0.012037,0.0555 0.016704,0.0835 0.00647,0.0388 0.010718,0.078 0.016704,0.11693 0.0103,0.0669 0.027276,0.13299 0.033409,0.20045 0.00252,0.0277 0,0.0557 0,0.0835 0,0.039 0,0.0779 0,0.11693 0,0.078 0,0.1559 0,0.23386 0,0.0105 -8.995e-4,0.0993 0,0.10022 0.00557,0.006 0.011136,-0.0223 0.016704,-0.0167 0.00787,0.008 0,0.0223 0,0.0334 0,0.006 0,-0.0223 0,-0.0167 0,0.0111 0,0.0223 0,0.0334"
       id="path889"
       inkscape:connector-curvature="0" />
    <path
       style="fill:none;stroke:#000000;stroke-width:0.26458332px;stroke-linecap:butt;stroke-linejoin:miter;stroke-opacity:1"
       d="m 3.2740518,288.49749 c -0.066817,0 -0.133635,0 -0.2004523,0 -0.00557,0 -0.013615,-0.005 -0.016703,0 -0.00977,0.0146 -0.00694,0.0355 -0.016706,0.0501 -0.00618,0.009 -0.023447,-0.005 -0.033409,0 -0.06952,0.0348 0.017857,-0.001 -0.016703,0.0334 -0.00394,0.004 -0.014213,-0.005 -0.016703,0 -0.00498,0.01 0.00498,0.0235 0,0.0334 -0.00249,0.005 -0.014213,-0.005 -0.016703,0 -0.00276,0.006 0,0.0707 0,0.0835 0,0.039 0,0.0779 0,0.11693 0,0.0111 0,0.0223 0,0.0334 0,0.006 -0.00177,0.0114 0,0.0167 0.020185,0.0606 0.00792,0.0119 0.033409,0.0501 0.00691,0.0104 0.0079,0.0246 0.016703,0.0334 0.0088,0.009 0.024604,0.008 0.033409,0.0167 0.0088,0.009 0.0079,0.0246 0.016706,0.0334 0.00394,0.004 0.011303,-10e-4 0.016703,0 0.017081,0.004 0.033765,0.0102 0.050113,0.0167 0.0023,9.3e-4 0.066029,0.0333 0.066817,0.0334 0.01638,0.003 0.033636,-0.003 0.050113,0 0.017367,0.003 0.032745,0.0138 0.050113,0.0167 0.016478,0.003 0.033409,0 0.050113,0 0.016703,0 0.033409,0 0.050113,0 0.050113,0 0.1002262,0 0.1503391,0 0.017373,0 0.087086,0.003 0.100226,0 0.012078,-0.003 0.022273,-0.0111 0.033409,-0.0167 0.011136,-0.006 0.023048,-0.01 0.033409,-0.0167 0.00655,-0.004 0.010152,-0.0123 0.016703,-0.0167 0.010358,-0.007 0.02784,-0.006 0.033409,-0.0167 0.00352,-0.007 -0.020225,-0.01 -0.016703,-0.0167 0.00557,-0.0111 0.026502,-0.006 0.033409,-0.0167 0.00618,-0.009 -0.0027,-0.0226 0,-0.0334 0.00302,-0.0121 0.012766,-0.0216 0.016703,-0.0334 0.00177,-0.005 0,-0.0111 0,-0.0167 0,-0.0334 0,-0.0668 0,-0.10023 0,-0.0111 0,-0.0223 0,-0.0334 0,-0.0111 0.00498,-0.0234 0,-0.0334 -9.26e-4,-0.002 -0.075138,-0.0793 -0.083521,-0.0835 -0.00498,-0.002 -0.011724,0.002 -0.016706,0 -0.00704,-0.004 -0.00966,-0.0132 -0.016703,-0.0167 -0.00498,-0.002 -0.011724,0.002 -0.016703,0 -0.00704,-0.004 -0.00966,-0.0132 -0.016706,-0.0167 -0.00498,-0.002 -0.011724,0.002 -0.016703,0 -0.057032,-0.0285 0.051662,-0.0167 -0.066817,-0.0167 -0.00557,0 0.022273,0 0.016703,0 -0.011136,0 -0.022273,0 -0.033409,0 -0.00557,0 -0.011724,0.002 -0.016703,0 -0.00704,-0.004 -0.00966,-0.0132 -0.016703,-0.0167 -0.00996,-0.005 -0.022844,0.004 -0.033409,0 -0.011811,-0.004 -0.021331,-0.0137 -0.033409,-0.0167 -0.010803,-0.003 -0.022273,0 -0.033409,0 -0.038977,0 -0.077954,0 -0.1169305,0 -0.00557,0 0.022273,0 0.016706,0 -0.031553,0 -0.048257,0 -0.016706,0"
       id="path891"
       inkscape:connector-curvature="0" />
    <path
       style="fill:none;stroke:#000000;stroke-width:0.26458332px;stroke-linecap:butt;stroke-linejoin:miter;stroke-opacity:1"
       d="m 4.7440341,288.36385 c -0.038977,0 -0.077954,0 -0.1169304,0 -0.016703,0 -0.035172,-0.007 -0.050113,0 -0.011136,0.006 -0.0098,0.0231 -0.016703,0.0334 -0.00437,0.007 -0.010152,0.0123 -0.016706,0.0167 -0.010359,0.007 -0.023048,0.01 -0.033409,0.0167 -0.00655,0.004 -0.010152,0.0123 -0.016703,0.0167 -0.010361,0.007 -0.026502,0.006 -0.033409,0.0167 -0.023998,0.036 0.031812,0.0345 -0.016703,0.0668 -0.00927,0.006 -0.029887,-0.0106 -0.033409,0 -0.00557,0.0167 0.016703,0.0325 0.016703,0.0501 0,0.008 -0.014795,0.009 -0.016703,0.0167 -0.00329,0.0131 0,0.11654 0,0.13364 0,0.0334 0,0.0668 0,0.10023 0,0.0111 -0.00573,0.0239 0,0.0334 0.012155,0.0203 0.035355,0.0317 0.050113,0.0501 0.00778,0.01 0.00634,0.0265 0.016703,0.0334 0.00927,0.006 0.0245,-0.007 0.033409,0 0.051306,0.0385 0.00723,0.0668 0.083522,0.0668 0.017608,0 0.032847,-0.0202 0.050113,-0.0167 0.015444,0.003 0.018267,0.0291 0.033409,0.0334 0.026769,0.008 0.055896,-0.003 0.083522,0 0.017473,0.002 0.032745,0.0138 0.050113,0.0167 0.016476,0.003 0.033409,0 0.050113,0 0.027841,0 0.055681,0 0.083522,0 0.050113,0 0.1002261,0 0.1503392,0 0.02784,0 0.055681,0 0.083522,0 0.016703,0 0.033409,0 0.050113,0 0.00557,0 0.011724,0.002 0.016703,0 0.00704,-0.004 0.011136,-0.0111 0.016703,-0.0167 0.00557,-0.006 0.013184,-0.01 0.016706,-0.0167 0.00249,-0.005 0,-0.0111 0,-0.0167 0,-0.0111 0.00498,-0.0235 0,-0.0334 -0.00249,-0.005 -0.011136,0 -0.016706,0"
       id="path893"
       inkscape:connector-curvature="0" />
    <path
       style="fill:none;stroke:#000000;stroke-width:0.26458332px;stroke-linecap:butt;stroke-linejoin:miter;stroke-opacity:1"
       d="m 5.5792512,287.54534 c 0,0.0779 0,0.15591 0,0.23386 0,0.039 -0.00299,0.0781 0,0.11693 0.015356,0.19962 0.00982,9.5e-4 0.066818,0.20045 0.046928,0.16425 -0.019272,0.10537 0.050113,0.26727 0.1563894,0.36491 -0.032193,-0.25785 0.1336347,0.26727 0.01546,0.049 0.012166,0.10361 0.033409,0.15034 0.00831,0.0183 0.0405,0.0158 0.050113,0.0334 0.025294,0.0464 0.033409,0.10023 0.050113,0.15034 0.011136,0.0334 0.024868,0.0661 0.033409,0.10023 0.0027,0.0108 -0.00414,0.0231 0,0.0334 0.00675,0.0169 0.045249,0.0592 0.050113,0.0835 0.00328,0.0164 -0.00528,0.0343 0,0.0501 0.00177,0.005 0.014213,-0.005 0.016706,0 0.00498,0.01 -0.00498,0.0234 0,0.0334 0.00249,0.005 0.016703,-0.006 0.016703,0 0,0.0554 -0.0313,0 -0.016703,0 0.00557,0 0.00557,0.0167 0,0.0167 -0.00557,0 0,-0.0111 0,-0.0167 0,-0.006 0,-0.0111 0,-0.0167"
       id="path895"
       inkscape:connector-curvature="0" />
    <path
       style="fill:none;stroke:#000000;stroke-width:0.26458332px;stroke-linecap:butt;stroke-linejoin:miter;stroke-opacity:1"
       d="m 6.2808339,287.82931 c -0.00681,0.0422 0.018063,0.11558 -0.016703,0.15034 -0.00394,0.004 -0.014213,-0.005 -0.016703,0 -0.010266,0.0205 -0.00397,0.0477 -0.016703,0.0668 -0.011136,0.0167 -0.039784,0.0162 -0.050113,0.0334 -0.00859,0.0143 0.00859,0.0358 0,0.0501 -0.010329,0.0172 -0.035917,0.0192 -0.050113,0.0334 -0.0088,0.009 -0.010298,0.0227 -0.016703,0.0334 -0.010329,0.0172 -0.019211,0.0359 -0.033409,0.0501 -0.0088,0.009 -0.028785,0.005 -0.033409,0.0167 -0.00827,0.0207 0,0.0445 0,0.0668 0,0.0111 0.00573,0.0239 0,0.0334 -0.012155,0.0203 -0.037009,0.0305 -0.050113,0.0501 -0.00977,0.0147 -0.010165,0.0338 -0.016703,0.0501 -0.00462,0.0116 -0.011136,0.0223 -0.016703,0.0334 -0.00557,0.0111 -0.0079,0.0246 -0.016703,0.0334 -0.00394,0.004 -0.016703,-0.006 -0.016703,0 0,0.008 0.020225,0.01 0.016703,0.0167 -0.00557,0.0111 -0.029471,0.005 -0.033409,0.0167 -0.00394,0.0118 0.022273,0.0223 0.016703,0.0334 -0.00498,0.01 -0.022273,0 -0.033409,0 -0.00557,0 0.019196,-0.005 0.016703,0 -0.00704,0.0141 -0.022273,0.0223 -0.033409,0.0334 -0.00557,0.006 0.016706,-0.0246 0.016706,-0.0167 0,0.0125 -0.0079,0.0246 -0.016706,0.0334 -0.00394,0.004 0.00557,-0.0167 0,-0.0167 -0.00787,0 -0.016703,0.009 -0.016703,0.0167 0,0.008 0.00883,0.0167 0.016703,0.0167 0.00557,0 -0.00394,-0.0128 0,-0.0167 0.00394,-0.004 0.011724,0.002 0.016706,0 0.078436,-0.0392 0.021016,-0.0251 0.083521,-0.0501 0.016349,-0.007 0.032682,-0.0142 0.050113,-0.0167 0.022048,-0.003 0.044545,0 0.066817,0 0.050113,0 0.100226,0 0.1503392,0 0.044545,0 0.08909,0 0.1336347,0 0.02784,0 0.056752,-0.008 0.083522,0 0.015142,0.004 0.022273,0.0223 0.033409,0.0334 0.011136,0.0111 0.022273,0.0223 0.033409,0.0334 0.033409,0.0334 0.066817,0.0668 0.100226,0.10022 0.011136,0.0111 0.026366,0.0193 0.033409,0.0334 0.00498,0.01 -0.00498,0.0235 0,0.0334 0.00249,0.005 0.014944,-0.005 0.016703,0 0.00528,0.0159 -0.00747,0.0352 0,0.0501 0.00557,0.0111 0.02784,0.006 0.033409,0.0167 0.00352,0.007 -0.020225,0.01 -0.016703,0.0167 0.00557,0.0111 0.024604,0.008 0.033409,0.0167 0.00394,0.004 -0.012766,-0.004 -0.016703,0 -0.00394,0.004 -0.00394,0.0128 0,0.0167 0.0088,0.009 0.022273,0.0111 0.033409,0.0167 0.022273,0.0111 0.049209,0.0158 0.066817,0.0334 0.012451,0.0125 0.00614,0.036 0.016703,0.0501 0.00747,0.01 0.024606,0.008 0.033409,0.0167 0.019685,0.0197 0.030427,0.0471 0.050113,0.0668 0.040571,0.0406 0.024529,-0.005 0.050113,0.0334 0.00691,0.0104 0.00674,0.0259 0.016703,0.0334 0.014086,0.0106 0.034364,0.009 0.050113,0.0167 0.00498,0.002 -0.019196,-0.005 -0.016703,0 0.00704,0.0141 0.028428,0.0185 0.033409,0.0334 0.00249,0.007 -0.02458,0.0167 -0.016703,0.0167 0.012451,0 0.024604,-0.0255 0.033409,-0.0167 0.042194,0.0422 -0.044158,0.0442 -0.016706,0.0167 0.012806,-0.0128 0.033409,0.0133 0.033409,0.0334 0,0.008 -0.011136,-0.0111 -0.016703,-0.0167"
       id="path897"
       inkscape:connector-curvature="0" />
    <path
       style="fill:none;stroke:#000000;stroke-width:0.26458332px;stroke-linecap:butt;stroke-linejoin:miter;stroke-opacity:1"
       d="m 1.0356694,289.54986 c 0,0.15034 0,0.30068 0,0.45102 0,0.41761 0,0.83522 0,1.25283 0,0.12249 0,0.24499 0,0.36749 0,0.0334 0,0.0668 0,0.10023 0,0.006 0,-0.0111 0,-0.0167"
       id="path899"
       inkscape:connector-curvature="0" />
    <path
       style="fill:none;stroke:#000000;stroke-width:0.26458332px;stroke-linecap:butt;stroke-linejoin:miter;stroke-opacity:1"
       d="m 1.0356694,289.54986 c 0.072385,0.1225 0.1317843,0.25367 0.2171565,0.3675 0.033409,0.0445 0.092832,0.0623 0.1336347,0.10022 0.037618,0.0349 0.065199,0.0794 0.1002261,0.11693 0.042983,0.0461 0.090906,0.0874 0.1336348,0.13364 0.024183,0.0262 0.042725,0.0572 0.066817,0.0835 0.05321,0.058 0.1147281,0.10819 0.1670434,0.16704 0.028892,0.0325 0.054268,0.0681 0.083522,0.10023 0.026485,0.0291 0.055681,0.0557 0.083522,0.0835 0.00557,0.006 0.011785,0.0106 0.016704,0.0167 0.017392,0.0217 0.032721,0.0451 0.050113,0.0668 0.051168,0.064 -0.03091,-0.0476 0.050113,0.0334 0.00394,0.004 -0.00394,0.0128 0,0.0167 0.00394,0.004 0.012767,-0.004 0.016704,0 0.0088,0.009 0.0079,0.0246 0.016704,0.0334 0.00394,0.004 0,-0.0111 0,-0.0167 0,-0.0278 0,-0.0557 0,-0.0835 0,-0.0278 0,-0.0557 0,-0.0835 0,-0.0167 0.00236,-0.0336 0,-0.0501 -0.024807,-0.17365 -0.016704,0.0644 -0.016704,-0.16704 0,-0.0947 0,-0.18932 0,-0.28397 0,-0.0279 -0.00604,-0.0564 0,-0.0835 -0.039107,-0.0627 0.039846,-0.0527 0.050113,-0.0835 0.00898,-0.0269 0.00773,-0.0566 0.016705,-0.0835 0.00249,-0.007 0.01378,-0.009 0.016704,-0.0167 0.00853,-0.0213 0.00944,-0.045 0.016704,-0.0668 0.00394,-0.0118 0.011136,-0.0223 0.016704,-0.0334 0.011136,-0.0223 0.022272,-0.0446 0.033409,-0.0668 0.00557,-0.0111 0.013685,-0.0213 0.016704,-0.0334 0.0027,-0.0108 -0.00787,-0.0255 0,-0.0334 0.00557,-0.006 0.011136,0.0223 0.016705,0.0167 0.00787,-0.008 -0.00498,-0.0234 0,-0.0334 0.00138,-0.003 0.045669,0 0.050113,0 0.00557,0 0.012767,-0.004 0.016705,0 0.01421,0.0142 0.044421,0.0999 0.050113,0.11693 0.011136,0.0334 0.023734,0.0664 0.033409,0.10023 0.00631,0.0221 0.010664,0.0447 0.016704,0.0668 0.021332,0.0782 0.042975,0.15638 0.066817,0.23386 0.010357,0.0337 0.024143,0.0663 0.033409,0.10023 0.00747,0.0274 0.00773,0.0566 0.016704,0.0835 0.01341,0.0402 0.037642,0.0764 0.050113,0.11693 0.00996,0.0324 0.012504,0.0666 0.016703,0.10023 0.00138,0.0111 -0.0038,0.0229 0,0.0334 0.018741,0.0515 0.048076,0.0988 0.066817,0.15034 0.0038,0.0105 -0.00183,0.0224 0,0.0334 0.00377,0.0226 0.013457,0.0441 0.016703,0.0668 0.00235,0.0165 -0.00275,0.0336 0,0.0501 0.00289,0.0174 0.01325,0.0328 0.016703,0.0501 0.0022,0.0109 -0.0027,0.0226 0,0.0334 0.00302,0.0121 0.013684,0.0213 0.016706,0.0334 0.00355,0.0142 -0.00479,0.0739 0,0.0835 0.00352,0.007 0.013181,0.01 0.016703,0.0167 0.00225,0.005 0,0.093 0,0.10023 0,0.011 -0.00332,0.0952 0,0.10022 0.00691,0.0104 0.030389,0.005 0.033409,0.0167 0.00427,0.0171 -0.016703,0.0325 -0.016703,0.0501 0,0.008 0.013182,0.01 0.016703,0.0167 0.00249,0.005 0,0.0111 0,0.0167 0,0.0111 -0.00352,0.0229 0,0.0334 0.00249,0.007 0.00966,0.0132 0.016706,0.0167 0.00498,0.002 0.016703,-0.006 0.016703,0 0,0.0125 -0.016703,0.021 -0.016703,0.0334 0,0.0125 0.012766,0.0216 0.016703,0.0334 0.00352,0.0106 -0.00352,0.0229 0,0.0334 0.00394,0.0118 0.012766,0.0216 0.016706,0.0334 0.00177,0.005 -0.00249,0.0117 0,0.0167 0.00352,0.007 0.013184,0.01 0.016703,0.0167 0.00525,0.0105 -0.00525,0.0563 0,0.0668 0.00352,0.007 0.014213,0.009 0.016703,0.0167 0.00704,0.0211 -0.00437,0.045 0,0.0668 0.00345,0.0173 0.01325,0.0328 0.016706,0.0501 0.00464,0.0232 -0.00696,0.0626 0,0.0835 0.00635,0.019 0.029471,0.0304 0.033409,0.0501 0.00243,0.0122 -0.012766,0.0216 -0.016703,0.0334 -0.00352,0.0106 0,0.0223 0,0.0334"
       id="path901"
       inkscape:connector-curvature="0" />
    <path
       style="fill:none;stroke:#000000;stroke-width:0.26458332px;stroke-linecap:butt;stroke-linejoin:miter;stroke-opacity:1"
       d="m 3.6582516,290.86951 c -0.038977,0 -0.077954,0 -0.1169305,0 -0.00557,0 -0.011136,0 -0.016703,0 -0.00557,0 -0.011724,-0.002 -0.016703,0 -0.028516,0.0143 -0.016703,0.0391 -0.016703,0.0668 0,0.0111 0,0.0223 0,0.0334 0,0.0557 0,0.11136 0,0.16704 0,0.0501 0,0.10023 0,0.15034 0,0.0278 -0.00307,0.0559 0,0.0835 0.00903,0.0812 0.021315,0.0568 0.050113,0.13363 0.00806,0.0215 0.00864,0.0453 0.016706,0.0668 0.026424,0.0705 0.047432,0.0735 0.083522,0.13363 0.040904,0.0682 -0.017968,-0.001 0.066818,0.0835 0.00557,0.006 0.00966,0.0132 0.016703,0.0167 0.015748,0.008 0.034364,0.009 0.050113,0.0167 0.011245,0.006 0.062686,0.046 0.083522,0.0501 0.01638,0.003 0.033636,-0.003 0.050113,0 0.017367,0.003 0.032505,0.0167 0.050113,0.0167 0.00787,0 0.00883,-0.0167 0.016703,-0.0167 0.017608,0 0.032847,0.0133 0.050113,0.0167 0.021839,0.004 0.044545,0 0.066817,0 0.022918,0 0.081204,0.009 0.100226,-0.0167 0.033032,-0.044 0.0086,-0.043 0.016703,-0.0835 0.00691,-0.0345 0.027619,-0.0655 0.033409,-0.10022 0.00275,-0.0165 0,-0.0334 0,-0.0501 0,-0.039 0,-0.0779 0,-0.11693 0,-0.0724 0,-0.14477 0,-0.21715 0,-0.0278 0.01034,-0.0577 0,-0.0835 -0.00414,-0.0103 -0.026727,0.009 -0.033409,0 -0.013774,-0.0184 -0.00945,-0.045 -0.016703,-0.0668 -0.00394,-0.0118 -0.011136,-0.0223 -0.016703,-0.0334 -0.011136,-0.0223 -0.024162,-0.0437 -0.033409,-0.0668 -0.00206,-0.005 0.00309,-0.0121 0,-0.0167 -0.00874,-0.0131 -0.024672,-0.0203 -0.033409,-0.0334 -0.00309,-0.005 0.00249,-0.0117 0,-0.0167 -0.00352,-0.007 -0.011136,-0.0111 -0.016703,-0.0167 -0.00557,-0.006 -0.00966,-0.0132 -0.016706,-0.0167 -0.00498,-0.002 -0.012766,0.004 -0.016703,0 -0.0088,-0.009 -0.00557,-0.0278 -0.016706,-0.0334 -0.00704,-0.004 -0.00966,0.0202 -0.016703,0.0167 -0.011136,-0.006 -0.00557,-0.0278 -0.016703,-0.0334 -0.00704,-0.004 -0.00883,0.0167 -0.016703,0.0167 -0.012451,0 -0.021598,-0.0128 -0.033409,-0.0167 -0.00904,-0.003 -0.061127,0 -0.066818,0 -0.00557,0 0.022273,0 0.016706,0 -0.1095062,0 0.059393,0 -0.050113,0 -0.00873,0 -0.062425,-0.002 -0.066817,0 -0.00704,0.004 -0.00966,0.0132 -0.016703,0.0167 -0.00498,0.002 -0.012766,-0.004 -0.016703,0 -0.00394,0.004 0.00557,0.0167 0,0.0167 -0.122776,0 0.00433,-0.0377 -0.033409,0 -0.00394,0.004 -0.011136,0 -0.016703,0 -0.011136,0 -0.022273,0 -0.033409,0 -0.00557,0 0.020643,-0.004 0.016703,0 -0.0088,0.009 -0.020958,0.0167 -0.033409,0.0167 -0.00787,0 0.022273,-0.0111 0.016703,-0.0167 -0.00787,-0.008 -0.022273,0 -0.033409,0 -0.00557,0 0.011136,0 0.016706,0"
       id="path903"
       inkscape:connector-curvature="0" />
    <path
       style="fill:none;stroke:#000000;stroke-width:0.26458332px;stroke-linecap:butt;stroke-linejoin:miter;stroke-opacity:1"
       d="m 4.9110775,290.38508 c 0.045134,0.079 0.061896,0.11954 0.1169305,0.18375 0.015375,0.0179 0.037959,0.0299 0.050113,0.0501 0.1500846,0.25014 -0.053092,-0.01 0.1169305,0.21716 0.026093,0.0348 0.062904,0.0619 0.083522,0.10022 0.019219,0.0357 0.013996,0.0813 0.033409,0.11693 0.015084,0.0276 0.052731,0.0387 0.066817,0.0668 0.015147,0.0303 0.00849,0.0674 0.016703,0.10023 0.00739,0.0295 0.057906,0.0877 0.066818,0.10022 0.011668,0.0163 0.029471,0.0304 0.033409,0.0501 0.00243,0.0122 -0.019145,0.0212 -0.016703,0.0334 0.00394,0.0197 0.025953,0.0315 0.033409,0.0501 0.00414,0.0103 -0.00352,0.0228 0,0.0334 0.00249,0.007 0.016703,0.009 0.016703,0.0167 0,0.008 -0.016703,0.009 -0.016703,0.0167 0,0.006 0.011724,-0.002 0.016703,0 0.00704,0.004 0.016703,0.009 0.016703,0.0167 0,0.006 -0.012766,-0.004 -0.016703,0 -0.00394,0.004 0.00557,0.0167 0,0.0167 -0.00557,0 -0.00394,-0.0128 0,-0.0167 0.00394,-0.004 0.012766,-0.004 0.016703,0 0.00787,0.008 -0.011136,0.0334 0,0.0334 0.00787,0 0.016706,-0.0246 0.016706,-0.0167 0,0.0125 -0.016706,0.0209 -0.016706,0.0334 0,0.008 0.00966,-0.0202 0.016706,-0.0167 0.022273,0.0111 0.011136,0.0557 0.033409,0.0668 0.00704,0.004 0.016703,-0.0246 0.016703,-0.0167 0,0.0125 -0.016703,0.021 -0.016703,0.0334 0,0.008 0.00883,0.0167 0.016703,0.0167 0.00787,0 0.016703,-0.0246 0.016703,-0.0167 0,0.0125 -0.016703,0.021 -0.016703,0.0334 0,0.008 0.00883,-0.0167 0.016703,-0.0167 0.00557,0 0,0.0111 0,0.0167"
       id="path905"
       inkscape:connector-curvature="0" />
    <path
       style="fill:none;stroke:#000000;stroke-width:0.26458332px;stroke-linecap:butt;stroke-linejoin:miter;stroke-opacity:1"
       d="m 5.2785732,291.13677 c -0.1224987,0 -0.2449971,0 -0.3674957,0 -0.00557,0 0.022273,0 0.016703,0 -0.016703,0 -0.033409,0 -0.050113,0 -0.00557,0 -0.012766,0.004 -0.016703,0 -0.00394,-0.004 0.00557,-0.0167 0,-0.0167 -0.012451,0 -0.021598,0.0128 -0.033409,0.0167 -0.00528,0.002 -0.016703,-0.006 -0.016703,0 0,0.0125 0.02064,0.0216 0.016703,0.0334 -0.00394,0.0118 -0.024604,0.008 -0.033409,0.0167 -0.00394,0.004 0.019196,-0.005 0.016706,0 -0.00704,0.0141 -0.029589,0.0181 -0.033409,0.0334 -0.00302,0.0121 0.016703,0.0209 0.016703,0.0334 0,0.008 -0.012335,0.0102 -0.016703,0.0167 -0.00691,0.0104 -0.016706,0.0209 -0.016706,0.0334 0,0.0125 0.013684,0.0213 0.016706,0.0334 0.0027,0.0108 0,0.0223 0,0.0334 0,0.0111 0,0.0223 0,0.0334 0,0.0334 0,0.0668 0,0.10023 0,0.0167 -0.011811,0.0383 0,0.0501 0.0088,0.009 0.023048,-0.0236 0.033409,-0.0167 0.01465,0.01 0.00883,0.0344 0.016703,0.0501 0.00249,0.005 -0.00463,-0.0198 0,-0.0167 0.019656,0.0131 0.028983,0.0395 0.050113,0.0501 0.00704,0.004 0.011136,-0.0223 0.016703,-0.0167 0.00787,0.008 -0.00787,0.0255 0,0.0334 0.012451,0.0125 0.035462,0.007 0.050113,0.0167 0.00463,0.003 -0.00463,0.0136 0,0.0167 0.01465,0.01 0.033765,0.0102 0.050113,0.0167 0.011136,0.006 0.022273,0.0111 0.033409,0.0167 0,0.006 -0.00463,0.0136 0,0.0167 0.1085048,0.0723 0.015711,-3.4e-4 0.066817,0.0167 0.011811,0.004 0.021598,0.0128 0.033409,0.0167 0.062641,0.0209 -0.083522,-0.0835 0.083522,0 0.00996,0.005 -0.010565,0.0299 0,0.0334 0.016703,0.006 0.032847,-0.0132 0.050113,-0.0167 0.014277,-0.003 0.131172,0 0.1336347,0 0.00557,0 0.011303,10e-4 0.016703,0 0.145914,-0.0365 -0.034661,0.009 0.083522,-0.0501 0.016703,-0.008 -0.038977,0.0891 0.033409,0.0167 0.012716,-0.0127 -0.084186,-0.0334 0.016703,-0.0334 0.00787,0 -0.022273,0.0111 -0.016703,0.0167 0.00787,0.008 0.025535,0.008 0.033409,0 0.00557,-0.006 -0.013184,-0.01 -0.016706,-0.0167 -0.00249,-0.005 -0.00557,-0.0167 0,-0.0167 0.00787,0 0.00966,0.0132 0.016706,0.0167 0.00498,0.002 0.016703,-0.006 0.016703,0 0,0.006 -0.014213,0.005 -0.016703,0 -0.00498,-0.01 -0.00787,-0.0255 0,-0.0334 0.00557,-0.006 0.00966,0.0132 0.016703,0.0167 0.00498,0.002 0.016703,0.006 0.016703,0 0,-0.008 -0.013182,-0.01 -0.016703,-0.0167 -0.00249,-0.005 -0.00557,-0.0167 0,-0.0167 0.00787,0 0.00966,0.0132 0.016703,0.0167 0.00498,0.002 0.016703,0.006 0.016703,0 0,-0.008 -0.022273,-0.0111 -0.016703,-0.0167 0.00787,-0.008 0.025535,0.008 0.033409,0 0.00557,-0.006 -0.00883,-0.0167 -0.016703,-0.0167 -0.00557,0 -0.00177,0.0114 0,0.0167 0.00393,0.0118 0.011136,0.0222 0.016703,0.0333"
       id="path907"
       inkscape:connector-curvature="0" />
    <path
       style="fill:none;stroke:#000000;stroke-width:0.26458332px;stroke-linecap:butt;stroke-linejoin:miter;stroke-opacity:1"
       d="m 6.2975381,291.40404 c 0.144771,0 0.289542,0 0.434313,0 0.1113623,0 0.2227246,0 0.334087,0 0.013933,0 0.079961,0.002 0.083522,0 0.013105,-0.009 0.028428,-0.0185 0.033409,-0.0334 0.00249,-0.007 -0.014795,-0.009 -0.016703,-0.0167 -0.00405,-0.0162 0,-0.0334 0,-0.0501 0,-0.0167 0,-0.0334 0,-0.0501 0,-0.0613 0,-0.1225 0,-0.18375 0,-0.0278 0.00394,-0.056 0,-0.0835 -0.0027,-0.0189 -0.046852,-0.0754 -0.050113,-0.0835 -0.028225,-0.0706 0.036537,0.004 -0.016703,-0.0668 -0.00945,-0.0126 -0.02756,-0.0188 -0.033409,-0.0334 -0.0062,-0.0155 0.00927,-0.0362 0,-0.0501 -0.00618,-0.009 -0.024143,0.006 -0.033409,0 -0.047035,-10e-4 -0.00425,-0.0377 -0.016703,-0.0501 -0.026665,-0.0267 -0.068657,-0.0167 -0.100226,-0.0167 -0.022273,0 -0.044545,0 -0.066817,0 -0.011136,0 -0.022606,0.003 -0.033409,0 -0.012078,-0.003 -0.021331,-0.0137 -0.033409,-0.0167 -0.010803,-0.003 -0.022273,0 -0.033409,0 -0.02784,0 -0.055681,0 -0.083522,0 -0.011136,0 -0.022273,0 -0.033409,0 -0.016703,0 -0.034266,-0.005 -0.050113,0 -0.1363305,0.0454 0.00591,0.0123 -0.066817,0.0668 -0.014086,0.0106 -0.036586,0.005 -0.050113,0.0167 -0.021389,0.0178 -0.030427,0.0471 -0.050113,0.0668 -0.0088,0.009 -0.024604,0.008 -0.033409,0.0167 -0.014195,0.0142 -0.021741,0.0338 -0.033409,0.0501 -0.035358,0.0495 -0.053996,0.0677 -0.083522,0.11693 -0.07237,0.0237 0.00747,0.0352 0,0.0501 -0.00557,0.0111 -0.027841,0.006 -0.033409,0.0167 -0.00747,0.0149 0,0.0334 0,0.0501 0,0.0111 0,0.0223 0,0.0334 0,0.0501 0,0.10022 0,0.15034 0,0.0334 0,0.0668 0,0.10022 0,0.006 -0.00557,0.0167 0,0.0167 0.022958,0 0.053043,-0.0351 0.066817,-0.0167 0.017037,0.0227 -0.016703,0.0551 -0.016703,0.0835 0,0.0202 0.020693,0.0374 0.033409,0.0501 0.016703,0.0167 0.033409,0.0334 0.050113,0.0501 0.00557,0.006 0.010152,0.0123 0.016703,0.0167 0.010358,0.007 0.022733,0.0103 0.033409,0.0167 0.017216,0.0103 0.031067,0.0271 0.050113,0.0334 0.031694,0.0106 0.069207,-0.0124 0.100226,0 0.014623,0.006 0.017965,0.0303 0.033409,0.0334 0.017267,0.003 0.032505,-0.0167 0.050113,-0.0167 0.022958,0 0.044305,0.0122 0.066817,0.0167 0.029681,0.006 0.071721,-0.007 0.100226,0 0.00764,0.002 0.013182,0.01 0.016703,0.0167 0.00249,0.005 -0.00557,0.0167 0,0.0167 0.017608,0 0.034364,-0.009 0.050113,-0.0167 0.00498,-0.002 -0.016703,0.006 -0.016703,0 0,-0.006 0.011136,0 0.016703,0 0.00557,0 0.011136,0 0.016706,0 0.096231,0 0.1117288,0 0.1503389,0 0.00557,0 -0.011136,0 -0.016703,0"
       id="path909"
       inkscape:connector-curvature="0" />
    <path
       style="fill:none;stroke:#000000;stroke-width:0.26458332px;stroke-linecap:butt;stroke-linejoin:miter;stroke-opacity:1"
       d="m 1.2862346,292.15574 c 0.100226,0 0.2004521,0 0.3006782,0 0.050113,0 0.1004518,-0.005 0.1503391,0 0.067434,0.006 0.1334775,0.0233 0.2004521,0.0334 0.1167847,0.0177 0.2346282,0.0287 0.3507913,0.0501 0.095634,0.0176 0.1878617,0.052 0.2839739,0.0668 0.04953,0.008 0.1006329,-0.006 0.1503391,0 0.1679728,0.0215 0.3339097,0.0568 0.5011303,0.0835 0.1111938,0.0178 0.223011,0.0316 0.334087,0.0501 0.4780153,0.0797 -0.2868242,-0.0229 0.5011304,0.0835 0.094452,0.0128 0.1895692,0.0203 0.2839738,0.0334 0.1060865,0.0147 0.2109703,0.038 0.3173825,0.0501 0.088687,0.0101 0.1787398,0.005 0.2672697,0.0167 0.084475,0.0109 0.1663316,0.0375 0.2505651,0.0501 0.027533,0.004 0.05588,-0.003 0.083522,0 0.111806,0.0134 0.2224048,0.0357 0.334087,0.0501 0.060996,0.008 0.1227209,0.009 0.1837478,0.0167 0.028173,0.004 0.05546,0.0124 0.083522,0.0167 0.414797,0.0638 -0.1947582,-0.0428 0.3006783,0.0501 0.033289,0.006 0.066618,0.0125 0.100226,0.0167 0.09184,0.0115 -0.050526,-0.0264 0.100226,0.0167 0.016931,0.005 0.032745,0.0138 0.050113,0.0167 0.027462,0.005 0.055681,0 0.083522,0 0.011136,0 0.02386,0.006 0.033409,0 0.020256,-0.0122 0.028984,-0.0396 0.050113,-0.0501 0.014941,-0.007 0.034759,0.007 0.050113,0 0.02559,-0.011 0.040406,-0.0413 0.066817,-0.0501 0.026411,-0.009 0.05613,0.005 0.083522,0 0.2034826,-0.037 -0.00292,-0.0345 0.2004521,-0.0501 0.038862,-0.003 0.077954,0 0.1169304,0 0.033409,0 0.066817,0 0.1002261,0 0.1113623,0 0.2227246,0 0.3340869,0 0.00405,0 0.049576,5.3e-4 0.050113,0 0.00394,-0.004 0,-0.0111 0,-0.0167"
       id="path911"
       inkscape:connector-curvature="0" />
    <path
       style="fill:none;stroke:#000000;stroke-width:0.26458332px;stroke-linecap:butt;stroke-linejoin:miter;stroke-opacity:1"
       d="m 0.71828686,293.32504 c -0.0779536,0 -0.15590724,0 -0.23386084,0 -0.004051,0 -0.0495758,-5.3e-4 -0.050113,0 -0.003937,0.004 0.00249,0.0117 0,0.0167 -0.003522,0.007 -0.0111363,0.0111 -0.0167045,0.0167 0,0.0111 0.003522,0.0228 0,0.0334 -0.0127164,0.0381 -0.0334087,-0.0103 -0.0334087,0.0501 0,0.0125 0.0222724,0.0223 0.0167045,0.0334 -0.00498,0.01 -0.0284284,-0.01 -0.0334087,0 -0.005568,0.0111 0.0167045,0.021 0.0167045,0.0334 0,0.0158 -0.0334087,0.0177 -0.0334087,0.0334 0,0.008 0.0167045,0.009 0.0167045,0.0167 0,0.0125 -0.0127669,0.0216 -0.0167045,0.0334 -0.003522,0.0106 0,0.0223 0,0.0334 0,0.039 0,0.0779 0,0.11693 0,0.0334 0,0.0668 0,0.10023 0,0.0111 0,0.0223 0,0.0334 0,0.0111 -0.003522,0.0229 0,0.0334 0.00249,0.007 0.0111363,0.0111 0.0167045,0.0167 0.0167045,0.0167 0.0379589,0.0299 0.0501131,0.0501 0.00573,0.01 0,0.0223 0,0.0334 0.0111363,0.0167 0.0192127,0.0359 0.0334087,0.0501 0.008804,0.009 0.0238437,0.009 0.0334087,0.0167 0.0241975,0.0202 0.0401071,0.0501 0.0668174,0.0668 0.0194683,0.0122 0.0477152,0.004 0.0668174,0.0167 0.0167042,0.0111 0.0163841,0.0395 0.0334087,0.0501 0.029863,0.0187 0.0687281,0.0177 0.10022607,0.0334 0.0249013,0.0125 0.041916,0.0377 0.0668174,0.0501 0.0205343,0.0103 0.0450376,0.009 0.0668174,0.0167 0.0284465,0.009 0.0554457,0.0229 0.0835217,0.0334 0.0164867,0.006 0.034825,0.008 0.050113,0.0167 0.024172,0.0138 0.040048,0.0425 0.066817,0.0501 0.01693,0.005 0.032745,-0.0196 0.050113,-0.0167 0.019803,0.003 0.032156,0.0244 0.050113,0.0334 0.015749,0.008 0.034364,0.009 0.050113,0.0167 0.00704,0.004 0.00883,0.0167 0.016704,0.0167 0.017608,0 0.032505,-0.0167 0.050113,-0.0167 0.00557,0 -0.00498,0.0142 0,0.0167 0.00482,0.002 0.08955,0 0.1002261,0 0.00557,0 -0.012767,0.004 -0.016704,0 -0.00394,-0.004 -0.00394,-0.0128 0,-0.0167 0.0088,-0.009 0.024605,-0.008 0.033409,-0.0167 0.00394,-0.004 -0.012767,0.004 -0.016704,0 -0.00394,-0.004 0,-0.0111 0,-0.0167 0,-0.006 0,-0.0111 0,-0.0167 0,-0.006 -0.00557,-0.0167 0,-0.0167 0.00557,0 0.00557,0.0167 0,0.0167 -0.00557,0 0,-0.0111 0,-0.0167 0,-0.006 0,-0.0111 0,-0.0167"
       id="path913"
       inkscape:connector-curvature="0" />
    <path
       style="fill:none;stroke:#000000;stroke-width:0.26458332px;stroke-linecap:butt;stroke-linejoin:miter;stroke-opacity:1"
       d="m 1.5200954,293.40857 c 0.00557,0.0334 0.00413,0.0688 0.016705,0.10022 0.01034,0.0259 0.038806,0.0414 0.050113,0.0668 0.011531,0.0259 0.00923,0.0561 0.016705,0.0835 0.00927,0.034 0.022272,0.0668 0.033409,0.10023 0.063869,0.1916 2.175e-4,0.005 0.083522,0.23386 0.019867,0.0546 0.029245,0.11278 0.050113,0.16704 0.013409,0.0349 0.03755,0.065 0.050113,0.10023 0.015443,0.0432 0.019905,0.0897 0.033409,0.13363 0.00882,0.0287 0.019999,0.0567 0.033409,0.0835 0.01452,0.029 0.041194,0.0523 0.050113,0.0835 0.00342,0.012 -0.021328,0.0218 -0.016704,0.0334 0.00877,0.0219 0.040807,0.0284 0.050113,0.0501 0.00877,0.0205 0,0.0445 0,0.0668 0,0.0392 -0.00394,-0.008 0.016705,0.0334 0.00249,0.005 0,0.0111 0,0.0167 0.011136,0.0111 0.022272,0.0223 0.033409,0.0334 0.00557,0.006 -0.013183,-0.01 -0.016704,-0.0167 -0.00249,-0.005 0,-0.0111 0,-0.0167 0,-0.0334 0,-0.0668 0,-0.10023 0,-0.0223 0,-0.0445 0,-0.0668 0,-0.0111 0.00157,-0.0224 0,-0.0334 -0.00402,-0.0281 -0.014134,-0.0553 -0.016704,-0.0835 -0.00302,-0.0333 0,-0.0668 0,-0.10022 0,-0.0334 0,-0.0668 0,-0.10023 0,-0.007 -0.00226,-0.0957 0,-0.10022 0.012792,-0.0256 0.029767,-0.0131 0.050113,-0.0334 0.00998,-0.01 -0.018055,-0.0334 0.016704,-0.0334 0.00787,0 0.00883,0.0167 0.016704,0.0167 0.022049,0 0.01136,-0.0334 0.033409,-0.0334 0.047807,0 -0.010379,0.0313 0.033409,0.0167 0.011812,-0.004 0.02133,-0.0137 0.033409,-0.0167 0.010804,-0.003 0.022272,0 0.033409,0 0.011136,0 0.023069,-0.004 0.033409,0 0.2211397,0.0884 0.00226,-0.0139 0.066817,0.0668 0.017392,0.0217 0.047131,0.0304 0.066817,0.0501 0.0088,0.009 0.010299,0.0227 0.016704,0.0334 0.010329,0.0172 0.022272,0.0334 0.033409,0.0501 0.011136,0.0223 0.021054,0.0452 0.033409,0.0668 0.00996,0.0174 0.021363,0.034 0.033409,0.0501 0.00472,0.006 0.01378,0.009 0.016704,0.0167 0.00853,0.0213 0.00818,0.0455 0.016704,0.0668 0.00292,0.007 0.011136,0.0111 0.016704,0.0167 0.00557,0.0111 0.012767,0.0216 0.016704,0.0334 0.00176,0.005 -0.00394,0.0128 0,0.0167 0.0088,0.009 0.02784,0.006 0.033409,0.0167 0.00352,0.007 -0.016705,0.009 -0.016705,0.0167 0,0.0125 0.0079,0.0246 0.016705,0.0334 0.00394,0.004 0,-0.0223 0,-0.0167 0,0.0316 0,0.0483 0,0.0167"
       id="path915"
       inkscape:connector-curvature="0" />
    <path
       style="fill:none;stroke:#000000;stroke-width:0.26458332px;stroke-linecap:butt;stroke-linejoin:miter;stroke-opacity:1"
       d="m 3.6582516,293.49209 c 0,0.0947 0,0.18931 0,0.28397 0,0.0446 -0.00296,0.0892 0,0.13364 0.00262,0.0393 0.016703,0.0776 0.016703,0.11693 0,0.0504 -0.016703,0.0999 -0.016703,0.15034 0,0.0176 0.013809,0.0327 0.016703,0.0501 0.00829,0.0497 0.010813,0.10026 0.016703,0.15034 0.023659,0.2011 0.00725,0.0638 0.033409,0.23386 0.00599,0.0389 0.00785,0.0786 0.016706,0.11693 0.092277,0.27683 -0.00617,-0.0537 0.033409,0.18375 0.0013,0.008 0.014795,0.009 0.016703,0.0167 0.00675,0.027 -0.00675,0.0565 0,0.0835 0.00302,0.0121 0.012766,0.0216 0.016706,0.0334 0.00352,0.0106 0,0.0223 0,0.0334"
       id="path917"
       inkscape:connector-curvature="0" />
    <path
       style="fill:none;stroke:#000000;stroke-width:0.26458332px;stroke-linecap:butt;stroke-linejoin:miter;stroke-opacity:1"
       d="m 3.3742778,295.079 c 0.072385,0 0.144771,0 0.2171565,0 0.016703,0 0.033409,0 0.050113,0 0.016706,0 0.033636,0.003 0.050113,0 0.017367,-0.003 0.032847,-0.0133 0.050113,-0.0167 0.010919,-0.002 0.022273,0 0.033409,0 0.044545,0 0.08909,0 0.1336347,0 0.022273,0 0.044545,0 0.066817,0 0.00557,0 0.016706,-0.006 0.016706,0 0,0.006 -0.022273,0 -0.016706,0 0.011136,0 0.022273,0 0.033409,0 0.00557,0 -0.016703,0.006 -0.016703,0 0,-0.0111 0.025535,0.008 0.033409,0 0.00394,-0.004 -0.00394,-0.0128 0,-0.0167 0.00394,-0.004 0.022209,-8.4e-4 0.016703,0 -0.07783,0.012 -0.1559073,0.0222 -0.233861,0.0334"
       id="path919"
       inkscape:connector-curvature="0" />
    <path
       style="fill:none;stroke:#000000;stroke-width:0.26458332px;stroke-linecap:butt;stroke-linejoin:miter;stroke-opacity:1"
       d="m 3.6582516,293.49209 c 0.016703,0.0223 0.045536,0.0393 0.050113,0.0668 0.00429,0.0258 -0.056087,0.0394 -0.066818,0.0501 -0.014195,0.0142 -0.020868,0.0344 -0.033409,0.0501 -0.00984,0.0123 -0.022273,0.0223 -0.033409,0.0334 -0.033409,0.0334 -0.066817,0.0668 -0.100226,0.10023 -0.00557,0.006 -0.011136,0.0111 -0.016703,0.0167 -0.00557,0.006 -0.013184,0.01 -0.016706,0.0167 -0.00249,0.005 0.00394,0.0128 0,0.0167 -0.00394,0.004 -0.012766,-0.004 -0.016703,0 -0.00394,0.004 0.00557,0.0167 0,0.0167 -0.012451,0 -0.020958,-0.0167 -0.033409,-0.0167 -0.00787,0 0.020225,0.01 0.016706,0.0167 -0.00557,0.0111 -0.020958,0.0167 -0.033409,0.0167 -0.00787,0 0.02458,-0.0167 0.016703,-0.0167 -0.012451,0 -0.02784,0.006 -0.033409,0.0167 -0.00352,0.007 0.00883,0.0167 0.016703,0.0167 0.00557,0 0.00557,-0.0167 0,-0.0167 -0.012451,0 -0.024604,0.008 -0.033409,0.0167 -0.00394,0.004 0.022273,0 0.016703,0 -0.011136,0 -0.023447,-0.005 -0.033409,0 -0.00498,0.002 0.00557,0.0167 0,0.0167 -0.00787,0 -0.011136,-0.0223 -0.016703,-0.0167 -0.00787,0.008 0.00787,0.0255 0,0.0334 -0.00557,0.006 -0.00883,-0.0167 -0.016706,-0.0167 -0.00557,0 0.00249,0.0117 0,0.0167 -0.032318,0.0646 -0.00108,-0.0479 -0.033409,0.0167 -0.00249,0.005 0.00557,0.0167 0,0.0167 -0.00557,0 0,-0.0111 0,-0.0167"
       id="path921"
       inkscape:connector-curvature="0" />
    <path
       style="fill:none;stroke:#000000;stroke-width:0.26458332px;stroke-linecap:butt;stroke-linejoin:miter;stroke-opacity:1"
       d="m 5.7295904,294.26049 c 0,0.0278 0,0.0557 0,0.0835 0,0.039 0,0.0779 0,0.11693 0,0.0278 -0.00675,0.0565 0,0.0835 0.00487,0.0195 0.022273,0.0334 0.033409,0.0501 0.011136,0.039 0.026745,0.077 0.033409,0.11693 0.00458,0.0275 0,0.0557 0,0.0835 0,0.0111 -0.00414,0.0231 0,0.0334 0.00746,0.0186 0.03057,0.0302 0.033409,0.0501 0.00325,0.0227 -0.01293,0.0442 -0.016703,0.0668 -0.00951,0.057 -0.00116,0.0144 0.016703,0.0501 0.00249,0.005 0.00557,0.0167 0,0.0167 -0.00557,0 0,-0.0111 0,-0.0167"
       id="path923"
       inkscape:connector-curvature="0" />
    <path
       style="fill:none;stroke:#000000;stroke-width:0.26458332px;stroke-linecap:butt;stroke-linejoin:miter;stroke-opacity:1"
       d="m 5.5792512,293.57561 c 0,0.0947 0,0.18932 0,0.28397 0,0.006 0,-0.0223 0,-0.0167 0,0.0111 0,0.0223 0,0.0334 0,0.006 -0.00394,-0.0128 0,-0.0167 0.00394,-0.004 0.011136,0 0.016703,0 0.011136,0 0.022273,0 0.033409,0 0.00557,0 -0.019195,0.005 -0.016703,0 0.00704,-0.0141 0.022273,-0.0223 0.033409,-0.0334 0.00557,-0.006 -0.00883,0.0167 -0.016706,0.0167 -0.00557,0 -0.00394,-0.0128 0,-0.0167 0.00787,-0.008 0.033409,0.0111 0.033409,0 0,-0.008 -0.016703,-0.009 -0.016703,-0.0167 0,-0.006 0.012766,0.004 0.016703,0 0.037739,-0.0377 -0.089367,0 0.033409,0 0.00787,0 -0.013182,-0.01 -0.016703,-0.0167 -0.00254,-0.005 0,-0.0426 0,-0.0501 0,-0.006 -0.00557,-0.0167 0,-0.0167 0.00557,0 0,0.0223 0,0.0167 0,-0.0223 0,-0.0445 0,-0.0668 0,-0.006 0,-0.0111 0,-0.0167 0,-0.006 -0.00557,-0.0167 0,-0.0167 0.00557,0 0.00394,0.0206 0,0.0167 -0.0088,-0.009 -0.0079,-0.0246 -0.016703,-0.0334 -0.00394,-0.004 0.00394,0.0206 0,0.0167 -0.0088,-0.009 -0.016703,-0.021 -0.016703,-0.0334 0,-0.008 0.00883,0.0167 0.016703,0.0167 0.00557,0 0.00394,-0.0128 0,-0.0167 -0.00394,-0.004 -0.011533,0.002 -0.016703,0 -0.023119,-0.009 -0.077954,-0.0111 -0.066818,-0.0334 0.011136,-0.0223 0.044545,0.0223 0,0 z"
       id="path925"
       inkscape:connector-curvature="0" />
    <path
       style="fill:none;stroke:#000000;stroke-width:0.26458332px;stroke-linecap:butt;stroke-linejoin:miter;stroke-opacity:1"
       d="m 6.097086,294.2939 c 0,0.0501 0,0.10022 0,0.15034 0,0.0478 0.00369,0.0351 0.016703,0.10022 0.00108,0.005 -0.00249,0.0117 0,0.0167 0.00898,0.018 0.029472,0.0304 0.033409,0.0501 0.00243,0.0122 -0.022273,0.0223 -0.016706,0.0334 0.00498,0.01 0.025535,-0.008 0.033409,0 0.00557,0.006 -0.016703,0.009 -0.016703,0.0167 0,0.008 0.00966,0.0132 0.016703,0.0167 0.00498,0.002 0.016703,-0.006 0.016703,0 0,0.008 -0.00883,0.0167 -0.016703,0.0167 -0.00557,0 0,-0.0111 0,-0.0167 0,-0.0111 0,-0.0223 0,-0.0334 0,-0.0724 0,-0.14477 0,-0.21716 0,-0.0446 0,-0.0891 0,-0.13364 0,-0.0223 -0.00704,-0.0457 0,-0.0668 0.00498,-0.0149 0.02756,-0.0188 0.033409,-0.0334 0.0062,-0.0155 -0.00927,-0.0362 0,-0.0501 0.00618,-0.009 0.027231,0.009 0.033409,0 0.00927,-0.0139 -0.00859,-0.0358 0,-0.0501 0.010329,-0.0172 0.038977,-0.0167 0.050113,-0.0334 0.00437,-0.007 -0.022273,-0.0111 -0.016703,-0.0167 0.012451,-0.0125 0.035462,-0.007 0.050113,-0.0167 0.00463,-0.003 0,-0.0111 0,-0.0167 0,-0.0402 -0.00528,0 0.050113,0 0.00557,0 -0.00528,-0.0149 0,-0.0167 0.015848,-0.005 0.033409,0 0.050113,0 0.00557,0 -0.022273,0 -0.016703,0 0.011136,0 0.022273,0 0.033409,0 0.00557,0 0.012766,-0.004 0.016703,0 0.00394,0.004 -0.00334,0.0122 0,0.0167 0.014174,0.0189 0.035939,0.0312 0.050113,0.0501 0.00334,0.004 -0.00135,0.0113 0,0.0167 0.00427,0.0171 0.00883,0.0344 0.016703,0.0501 0.029022,0.0581 0.081837,0.10269 0.100226,0.16705 0.00459,0.0161 -0.00528,0.0343 0,0.0501 0.011811,0.0354 0.036998,0.0652 0.050113,0.10023 0.00391,0.0104 -0.00498,0.0234 0,0.0334 0.00704,0.0141 0.02756,0.0188 0.033409,0.0334 0.0062,0.0155 -0.00328,0.0337 0,0.0501 0.00243,0.0122 0.013684,0.0213 0.016703,0.0334 0.0027,0.0108 -0.0027,0.0226 0,0.0334 0.016687,0.0668 0.016833,2.6e-4 0.050113,0.0668 0.00249,0.005 -0.014213,-0.005 -0.016703,0 -0.00498,0.01 0,0.0223 0,0.0334 0,0.006 0,-0.0111 0,-0.0167 0,-0.0167 0,-0.0334 0,-0.0501"
       id="path927"
       inkscape:connector-curvature="0" />
    <path
       style="fill:none;stroke:#000000;stroke-width:0.26458332px;stroke-linecap:butt;stroke-linejoin:miter;stroke-opacity:1"
       d="m 7.3165032,293.50879 c 0,0.0446 -0.00466,0.0893 0,0.13364 0.00652,0.0619 0.029956,0.12159 0.033409,0.18374 0.022273,0.40091 -0.082962,-0.24608 -0.016706,0.28398 0.00437,0.0349 0.029041,0.0653 0.033409,0.10022 0.00691,0.0553 0,0.11137 0,0.16705 0,0.12806 0,0.25613 0,0.3842 0,0.0668 0,0.13363 0,0.20045 0,0.006 0,-0.0223 0,-0.0167 0,0.0167 0,0.0334 0,0.0501 0,0.006 -0.00394,0.0128 0,0.0167 0.00998,0.01 0.033409,-0.0181 0.033409,0.0167 0,0.008 -0.013184,0.01 -0.016706,0.0167 -0.00755,0.0151 0.014388,0.0432 0.016706,0.0501 0.00314,0.009 0,0.0391 0,0.0501"
       id="path929"
       inkscape:connector-curvature="0" />
    <path
       style="fill:none;stroke:#000000;stroke-width:0.26458332px;stroke-linecap:butt;stroke-linejoin:miter;stroke-opacity:1"
       d="m 7.0158249,294.3273 c 0.022273,0 0.044545,0 0.066817,0 0.00557,0 -0.022273,0 -0.016703,0 0.1095063,0 -0.059393,0 0.050113,0 0.00557,0 -0.022273,0 -0.016703,0 0.022273,0 0.044545,0 0.066817,0 0.00557,0 0.011303,-10e-4 0.016703,0 0.017081,0.004 0.032847,0.0133 0.050113,0.0167 0.010919,0.002 0.022606,-0.003 0.033409,0 0.012078,0.003 0.021331,0.0137 0.033409,0.0167 0.010803,0.003 0.022273,0 0.033409,0 0.038977,0 0.077954,0 0.1169305,0 0.011136,0 0.02249,-0.002 0.033409,0 0.017267,0.003 0.033031,0.0124 0.050113,0.0167 0.0054,10e-4 0.011136,0 0.016703,0 0.016703,0 0.033409,0 0.050113,0 0.022273,0 0.044545,0 0.066817,0 0.055681,0 0.1113624,0 0.1670434,0 0.00557,0 -0.011136,0 -0.016703,0"
       id="path931"
       inkscape:connector-curvature="0" />
    <path
       style="fill:none;stroke:#000000;stroke-width:0.26458332px;stroke-linecap:butt;stroke-linejoin:miter;stroke-opacity:1"
       d="m 2.2216779,295.8307 c 0.021995,0.0461 -0.017596,0.10341 0,0.15033 0.00978,0.0261 0.038593,0.0415 0.050113,0.0668 0.1363333,0.29994 -0.011479,-0.0135 0.016704,0.18375 0.00284,0.0199 0.027893,0.0308 0.033409,0.0501 0.00612,0.0214 -0.00315,0.0448 0,0.0668 0.00249,0.0174 0.014214,0.0327 0.016705,0.0501 0.00315,0.022 0,0.0446 0,0.0668 0,0.0278 0,0.0557 0,0.0835 0,0.006 0,-0.0111 0,-0.0167 0,-0.0221 0,-0.0114 0,-0.0334"
       id="path933"
       inkscape:connector-curvature="0" />
    <path
       style="fill:none;stroke:#000000;stroke-width:0.26458332px;stroke-linecap:butt;stroke-linejoin:miter;stroke-opacity:1"
       d="m 2.2216779,295.8307 c 0.080548,0.018 0.1541646,0.0167 0.2338609,0.0167 0.016704,0 0.034266,0.005 0.050113,0 0.019046,-0.006 0.030239,-0.0306 0.050113,-0.0334 0.022727,-0.003 0.044037,0.0139 0.066817,0.0167 0.0221,0.003 0.044545,0 0.066817,0 0.022273,0 0.044545,0 0.066817,0 0.061249,0 0.1224987,0 0.1837479,0 0.062576,0 0.066622,0 0.100226,0 0.00557,0 -0.022273,0 -0.016703,0 0.011136,0 0.022273,0 0.033409,0 0.00557,0 0.014213,-0.005 0.016703,0 0.00498,0.01 -0.00352,0.0229 0,0.0334 0.00249,0.007 0.013184,0.01 0.016703,0.0167 0.00498,0.01 -0.00498,0.0234 0,0.0334 0.00352,0.007 0.013182,0.01 0.016703,0.0167 0.00249,0.005 -0.00249,0.0117 0,0.0167 0.00352,0.007 0.016703,0.009 0.016703,0.0167 0,0.008 -0.016703,0.009 -0.016703,0.0167 0,0.008 0.014213,0.009 0.016703,0.0167 0.00352,0.0106 0,0.0223 0,0.0334 0,0.0111 0,0.0223 0,0.0334 0,0.0111 0,0.0223 0,0.0334 0,0.006 0.00498,0.0142 0,0.0167 -0.00996,0.005 -0.025535,-0.008 -0.033409,0 -0.012451,0.0125 -0.00425,0.0377 -0.016703,0.0501 -0.012451,0.0125 -0.035014,0.008 -0.050113,0.0167 -0.013504,0.008 -0.022273,0.0223 -0.033409,0.0334 -0.011136,0.0111 -0.022273,0.0223 -0.033409,0.0334 -0.00557,0.006 -0.00883,0.0167 -0.016706,0.0167 -0.00787,0 -0.00923,-0.0192 -0.016703,-0.0167 -0.014941,0.005 -0.022273,0.0223 -0.033409,0.0334 -0.00557,0.006 -0.00883,0.0167 -0.016703,0.0167 -0.017608,0 -0.033409,-0.0223 -0.050113,-0.0167 -0.010565,0.004 0.00787,0.0255 0,0.0334 -0.00557,0.006 -0.00883,-0.0167 -0.016703,-0.0167 -0.017608,0 -0.033031,0.0124 -0.050113,0.0167 -0.0054,10e-4 -0.011136,0 -0.016703,0 -0.033409,0 -0.066818,0 -0.1002262,0 -0.011136,0 -0.022844,0.004 -0.033409,0 -0.00747,-0.002 -0.00966,-0.0132 -0.016704,-0.0167 -0.00498,-0.002 -0.011136,0 -0.016704,0 -0.011136,-0.0111 -0.022272,-0.0223 -0.033409,-0.0334 -0.00557,-0.006 -0.00883,-0.0167 -0.016705,-0.0167 -0.00787,0 -0.00966,0.0202 -0.016704,0.0167 -0.011136,-0.006 -0.00557,-0.0278 -0.016704,-0.0334 -0.00704,-0.004 -0.00966,0.0132 -0.016704,0.0167 -0.00498,0.002 -0.011422,0.002 -0.016704,0 -0.011812,-0.004 -0.027841,-0.006 -0.033409,-0.0167 -0.00352,-0.007 0.00883,-0.0167 0.016704,-0.0167 0.00557,0 0.00498,0.0142 0,0.0167 -0.00996,0.005 -0.022272,0 -0.033409,0 -0.00557,0 0.022272,0 0.016705,0 -0.011136,0 -0.022272,0 -0.033409,0 -0.00557,0 0.017731,-0.005 0.016704,0 -0.016923,0.0902 -0.044545,0.17812 -0.066817,0.26718"
       id="path935"
       inkscape:connector-curvature="0" />
    <path
       style="fill:none;stroke:#000000;stroke-width:0.26458332px;stroke-linecap:butt;stroke-linejoin:miter;stroke-opacity:1"
       d="m 3.9589299,295.94763 c -0.072385,0 -0.144771,0 -0.2171565,0 -0.011136,0 -0.022844,0.004 -0.033409,0 -0.00747,-0.002 -0.00883,-0.0167 -0.016706,-0.0167 -0.00787,0 -0.010152,0.0123 -0.016703,0.0167 -0.010358,0.007 -0.024604,0.008 -0.033409,0.0167 -0.0088,0.009 -0.00634,0.0265 -0.016703,0.0334 -0.00927,0.006 -0.025535,-0.008 -0.033409,0 -0.012451,0.0125 -0.012433,0.033 -0.016703,0.0501 -0.00135,0.005 0.00394,0.0128 0,0.0167 -0.0088,0.009 -0.029471,0.005 -0.033409,0.0167 -0.00394,0.0118 0.019145,0.0212 0.016706,0.0334 -0.00394,0.0197 -0.029471,0.0304 -0.033409,0.0501 -0.00243,0.0122 0.014264,0.0212 0.016703,0.0334 0.0028,0.014 0,0.13902 0,0.15034 0,0.0111 -0.00498,0.0235 0,0.0334 0.00704,0.0141 0.026366,0.0193 0.033409,0.0334 0.00498,0.01 -0.00414,0.0231 0,0.0334 0.00746,0.0186 0.019214,0.0359 0.033409,0.0501 0.00394,0.004 0.011724,-0.002 0.016703,0 0.00704,0.004 0.011136,0.0111 0.016703,0.0167 0.00557,0.006 0.013184,0.01 0.016706,0.0167 0.00249,0.005 -0.00394,0.0128 0,0.0167 0.023744,0.0724 0.035172,-0.007 0.050113,0 0.011136,0.006 0.00489,0.0295 0.016703,0.0334 0.011811,0.004 0.021331,-0.0137 0.033409,-0.0167 0.011306,-0.003 0.106181,0 0.1169305,0 0.04645,0 0.1441944,0.01 0.1837478,-0.0167 0.00463,-0.003 -0.00463,-0.0136 0,-0.0167 0.00327,-0.002 0.075838,-0.0219 0.083521,-0.0334 0.00618,-0.009 -0.00787,-0.0255 0,-0.0334 0.012451,-0.0125 0.033765,-0.0102 0.050113,-0.0167 0.01156,-0.005 0.023447,-0.009 0.033409,-0.0167 0.0126,-0.009 0.02081,-0.024 0.033409,-0.0334 0.00996,-0.007 0.026502,-0.006 0.033409,-0.0167 0.00618,-0.009 -0.00787,-0.0255 0,-0.0334 0.012451,-0.0125 0.034364,-0.009 0.050113,-0.0167 0.00704,-0.004 0.011136,-0.0111 0.016703,-0.0167 0.011136,-0.0111 0.026366,-0.0193 0.033409,-0.0334 0.00498,-0.01 -0.00618,-0.0241 0,-0.0334 0.00691,-0.0104 0.027841,-0.006 0.033409,-0.0167 0.00352,-0.007 -0.020225,-0.01 -0.016703,-0.0167 0.00557,-0.0111 0.029472,-0.005 0.033409,-0.0167 0.00394,-0.0118 -0.016703,-0.021 -0.016703,-0.0334 0,-0.006 0.014213,0.005 0.016703,0 0.00498,-0.01 0,-0.0223 0,-0.0334 0,-0.0111 0,-0.0223 0,-0.0334 0,-0.0111 0.00787,-0.0255 0,-0.0334 -0.00787,-0.008 -0.02386,0.006 -0.033409,0 -0.013827,-0.008 -0.079977,-0.08 -0.100226,-0.10023 -0.00557,-0.006 -0.00966,-0.0132 -0.016703,-0.0167 -0.016703,-0.006 -0.033409,-0.0111 -0.050113,-0.0167 0,0.006 0.00557,0.0167 0,0.0167 -0.00787,0 -0.00966,-0.0132 -0.016706,-0.0167 -0.015748,-0.008 -0.032505,-0.0167 -0.050113,-0.0167 -0.00557,0 0.00557,0.0167 0,0.0167 -0.035216,0 -0.06501,-0.0334 -0.1002262,-0.0334 -0.00557,0 0.00394,0.0128 0,0.0167 -0.00394,0.004 -0.011351,-0.002 -0.016703,0 -0.033861,0.01 -0.066817,0.0223 -0.100226,0.0334 z"
       id="path937"
       inkscape:connector-curvature="0" />
    <path
       style="fill:none;stroke:#000000;stroke-width:0.26458332px;stroke-linecap:butt;stroke-linejoin:miter;stroke-opacity:1"
       d="m 4.9778948,295.96433 c 0,0.0947 0,0.18932 0,0.28397 0,0.0278 -0.00277,0.0558 0,0.0835 0.00283,0.0282 0.014346,0.0552 0.016703,0.0835 0.00324,0.0388 0,0.0779 0,0.11693 0,0.0835 0,0.16704 0,0.25056 0,0.006 -0.00498,-0.0142 0,-0.0167 0.00996,-0.005 0.028428,0.01 0.033409,0 0.00557,-0.0111 -0.025508,-0.0246 -0.016706,-0.0334 0.00881,-0.009 0.021598,0.0206 0.033409,0.0167 3.705e-4,-1.2e-4 0.020466,-0.0501 0.033409,-0.0501 0.00787,0 0.00906,0.0186 0.016703,0.0167 0.063686,0.0901 0.047633,-0.0485 0.050113,-0.0501 0.01465,-0.01 0.033183,-0.0119 0.050113,-0.0167 0.022074,-0.006 0.044743,-0.0104 0.066817,-0.0167 0.016931,-0.005 0.032745,-0.0138 0.050113,-0.0167 0.016476,-0.003 0.033907,0.004 0.050113,0 0.00764,-0.002 0.00883,-0.0167 0.016703,-0.0167 0.044545,0 -0.019407,0.0515 0.050113,0.0167 0.00498,-0.002 -0.00394,-0.0128 0,-0.0167 0.0088,-0.009 0.020958,-0.0167 0.033409,-0.0167 0.00787,0 -0.022273,0.0111 -0.016703,0.0167 0.00787,0.008 0.025535,0.008 0.033409,0 0.00557,-0.006 -0.016703,-0.009 -0.016703,-0.0167 0,-0.006 0.011136,0 0.016703,0 0.00557,0 0.016703,-0.006 0.016703,0 0,0.006 -0.016703,0.006 -0.016703,0 0,-0.008 0.00883,-0.0167 0.016703,-0.0167 0.00557,0 0,0.0111 0,0.0167"
       id="path939"
       inkscape:connector-curvature="0" />
    <path
       style="fill:none;stroke:#000000;stroke-width:0.26458332px;stroke-linecap:butt;stroke-linejoin:miter;stroke-opacity:1"
       d="m 5.7797035,295.94763 c 0.02784,0.0167 0.055681,0.0334 0.083522,0.0501 0.00557,0.0111 0.00698,0.0256 0.016703,0.0334 0.019444,0.0155 0.045465,0.0206 0.066817,0.0334 0.00675,0.004 0.010152,0.0123 0.016703,0.0167 0.010358,0.007 0.023048,0.01 0.033409,0.0167 0.030564,0.0204 0.00167,0.0213 0.050113,0.0334 0.010803,0.003 0.024143,-0.006 0.033409,0 0.010361,0.007 0.00557,0.0278 0.016703,0.0334 0.013047,0.007 0.0142,-0.0359 0.033409,-0.0167 0.00394,0.004 -0.00498,0.0142 0,0.0167 0.00996,0.005 0.022273,0 0.033409,0 0.00557,0 -0.022273,0 -0.016703,0 0.011136,0 0.022273,0 0.033409,0 0.00557,0 -0.022273,0 -0.016703,0 0.1095063,0 -0.059393,0 0.050113,0 0.00557,0 -0.022273,0 -0.016703,0 0.011136,0 0.022273,0 0.033409,0 0.022273,0 -0.061249,0.006 -0.016703,-0.0167 0.00996,-0.005 0.025535,0.008 0.033409,0 0.00557,-0.006 -0.013182,-0.01 -0.016703,-0.0167 -0.00249,-0.005 -0.00249,-0.0117 0,-0.0167 0.012716,-0.0254 0.033409,-0.01 0.033409,-0.0501 0,-0.006 -0.016703,0.006 -0.016703,0 0,-0.0176 0.012433,-0.033 0.016703,-0.0501 0.00135,-0.005 -0.00249,-0.0117 0,-0.0167 0.017957,-0.0359 0.051905,-0.0629 0.066817,-0.10022 0.00414,-0.0103 -0.00352,-0.0229 0,-0.0334 0.00787,-0.0236 0.023601,-0.0439 0.033409,-0.0668 0.040159,-0.0937 -0.013203,-0.006 0.050113,-0.11693 0.00996,-0.0174 0.0255,-0.0317 0.033409,-0.0501 0.00904,-0.0211 0.00818,-0.0455 0.016703,-0.0668 0.00292,-0.007 0.012338,-0.0102 0.016703,-0.0167 0.013814,-0.0207 0.019595,-0.0461 0.033409,-0.0668 0.00437,-0.007 0.013182,-0.01 0.016703,-0.0167 0.00249,-0.005 -0.00498,-0.0142 0,-0.0167 0.027522,-0.0138 0.051014,0.0176 0.016703,-0.0167"
       id="path941"
       inkscape:connector-curvature="0" />
    <path
       style="fill:none;stroke:#000000;stroke-width:0.26458332px;stroke-linecap:butt;stroke-linejoin:miter;stroke-opacity:1"
       d="m 5.8632253,295.99773 c 0.094658,0.0557 0.1917719,0.10739 0.2839739,0.16705 0.00468,0.003 0,0.0111 0,0.0167 0,0.0167 -0.0062,0.0346 0,0.0501 0.00746,0.0186 0.02308,0.0329 0.033409,0.0501 0.00641,0.0107 0.00923,0.0235 0.016703,0.0334 0.00945,0.0126 0.025305,0.0199 0.033409,0.0334 0.050933,0.0118 0.00644,0.0463 0.016703,0.0668 0.038225,0.0765 -0.00692,-0.0709 0.033409,0.0501 0.00177,0.005 -0.00249,0.0117 0,0.0167 0.00352,0.007 0.013181,0.01 0.016703,0.0167 0.00249,0.005 -0.00394,0.0128 0,0.0167 0.00394,0.004 0.012766,-0.004 0.016706,0 0.00394,0.004 -0.00394,0.0128 0,0.0167 0.00787,0.008 0.033409,-0.0111 0.033409,0 0,0.008 -0.022273,0.0111 -0.016706,0.0167 0.00787,0.008 0.022273,0 0.033409,0 0.00557,0 -0.022273,0 -0.016703,0 0.011136,0 0.022273,0 0.033409,0 0.00557,0 -0.012766,-0.004 -0.016703,0 -0.00394,0.004 -0.00394,0.0128 0,0.0167 0.00394,0.004 0.011724,-0.002 0.016703,0 0.00704,0.004 0.011136,0.0111 0.016706,0.0167 0.00557,0.006 0.013181,0.01 0.016703,0.0167 0.00249,0.005 -0.00394,0.0128 0,0.0167 0.00394,0.004 0.012766,-0.004 0.016703,0 0.00835,0.008 -0.00835,0.0418 0,0.0501 0.022273,0.0223 0.016703,-0.0278 0.016703,0.0167"
       id="path943"
       inkscape:connector-curvature="0" />
  </g>
</svg>
