<?xml version="1.0" encoding="UTF-8" standalone="no"?>
<svg
   xmlns:dc="http://purl.org/dc/elements/1.1/"
   xmlns:cc="http://creativecommons.org/ns#"
   xmlns:rdf="http://www.w3.org/1999/02/22-rdf-syntax-ns#"
   xmlns:svg="http://www.w3.org/2000/svg"
   xmlns="http://www.w3.org/2000/svg"
   xmlns:sodipodi="http://sodipodi.sourceforge.net/DTD/sodipodi-0.dtd"
   xmlns:inkscape="http://www.inkscape.org/namespaces/inkscape"
   width="10mm"
   height="5mm"
   viewBox="0 0 10 5"
   version="1.1"
   id="svg890"
   inkscape:version="1.0.1 (c497b03c, 2020-09-10)"
   sodipodi:docname="blank-clock-mode-frame.svg">
  <defs
     id="defs884" />
  <sodipodi:namedview
     id="base"
     pagecolor="#ffffff"
     bordercolor="#666666"
     borderopacity="1.0"
     inkscape:pageopacity="0.0"
     inkscape:pageshadow="2"
     inkscape:zoom="7.919596"
     inkscape:cx="21.273995"
     inkscape:cy="-3.2245175"
     inkscape:document-units="mm"
     inkscape:current-layer="text1460"
     showgrid="false"
     units="mm"
     inkscape:window-width="1440"
     inkscape:window-height="855"
     inkscape:window-x="0"
     inkscape:window-y="23"
     inkscape:window-maximized="1"
     inkscape:snap-global="false"
     inkscape:document-rotation="0" />
  <metadata
     id="metadata887">
    <rdf:RDF>
      <cc:Work
         rdf:about="">
        <dc:format>image/svg+xml</dc:format>
        <dc:type
           rdf:resource="http://purl.org/dc/dcmitype/StillImage" />
        <dc:title />
      </cc:Work>
    </rdf:RDF>
  </metadata>
  <g
     inkscape:label="Layer 1"
     inkscape:groupmode="layer"
     id="layer1"
     transform="translate(0,-292)">
    <g
       aria-label="rst"
       style="font-style:normal;font-weight:normal;font-size:6.29599571px;line-height:1.25;font-family:sans-serif;letter-spacing:0px;word-spacing:0px;fill:#000000;fill-opacity:1;stroke:none;stroke-width:0.15739989"
       id="text1460">
      <rect
         style="fill:#dedede;fill-opacity:1;stroke:#000000;stroke-width:0.0405524;stroke-opacity:1"
         id="rect2390"
         width="8.3529882"
         height="3.7808547"
         x="0.21206512"
         y="292.08575" />
      <path
         style="fill:#adadad;fill-opacity:1;stroke:#000000;stroke-width:0.123364;stroke-linecap:butt;stroke-linejoin:bevel;stroke-miterlimit:4;stroke-dasharray:none;stroke-opacity:1"
         d="m 8.6010514,292.15224 0.9606512,0.5907 0.04803,4.14751 -1.0086822,-1.00279 z"
         id="path2394"
         inkscape:connector-curvature="0"
         sodipodi:nodetypes="ccccc" />
      <path
         style="fill:#848484;fill-opacity:1;stroke:#000000;stroke-width:0.151541;stroke-linecap:butt;stroke-linejoin:round;stroke-miterlimit:4;stroke-dasharray:none;stroke-opacity:1"
         d="m 0.30028176,295.89921 0.60080928,0.7815 8.62675976,0.15764 -0.9800881,-1.01884 z"
         id="path2396"
         inkscape:connector-curvature="0"
         sodipodi:nodetypes="ccccc" />
      <g
         aria-label="frame"
         transform="matrix(0.76262226,0,0,1.1336577,0.34345586,13.029411)"
         id="text1621"
         style="font-style:normal;font-weight:normal;font-size:3.56971px;line-height:1.25;font-family:sans-serif;fill:#000000;fill-opacity:1;stroke:none;stroke-width:0.0140468">
        <path
           d="m 1.344079,246.7035 -0.01743,0.003 q -0.054034,-0.007 -0.1411848,-0.009 -0.087151,-0.004 -0.153386,0.007 -0.21090568,0.0332 -0.30677191,0.14233 -0.0941232,0.1072 -0.0941232,0.3512 v 0.0662 l 0.59088431,-0.0929 v 0.27539 l -0.58042649,0.0913 v 1.67156 l -0.32768823,0.0515 v -1.67156 l -0.22136385,0.0348 v -0.27539 l 0.22136385,-0.0348 v -0.0645 q 0,-0.34686 0.17255923,-0.55875 0.17255922,-0.21363 0.49850442,-0.26488 0.10981037,-0.0173 0.19696157,-0.0205 0.088894,-0.003 0.1621011,-10e-4 z"
           style="stroke-width:0.0140468"
           id="path1728" />
        <path
           d="m 2.7663853,247.49925 h -0.01743 q -0.073207,-0.0174 -0.1429278,-0.0244 -0.067978,-0.009 -0.1621011,-0.009 -0.1516429,0 -0.2928278,0.068 -0.1411848,0.0662 -0.2719115,0.17256 v 1.38221 H 1.5514986 v -1.94695 h 0.3276882 v 0.2876 q 0.1952186,-0.15688 0.3433755,-0.22137 0.1498999,-0.0662 0.3050289,-0.0662 0.085408,0 0.1237546,0.005 0.038346,0.003 0.1150395,0.0157 z"
           style="stroke-width:0.0140468"
           id="path1730" />
        <path
           d="m 4.5913297,248.58789 -0.3259453,0.0512 v -0.20742 q -0.043576,0.0365 -0.1185255,0.10233 -0.073207,0.0638 -0.1429278,0.10617 -0.081922,0.053 -0.1882464,0.0958 -0.1063244,0.0446 -0.2492523,0.0671 -0.2631964,0.0414 -0.4462137,-0.10416 -0.1830174,-0.14552 -0.1830174,-0.41569 0,-0.22136 0.094123,-0.37212 0.095866,-0.15277 0.2719115,-0.25888 0.1777883,-0.10635 0.4270406,-0.17347 0.2492522,-0.0671 0.5351078,-0.12592 v -0.0505 q 0,-0.11155 -0.04009,-0.17846 -0.038346,-0.0672 -0.1115534,-0.0975 -0.069721,-0.0291 -0.1673302,-0.0277 -0.097609,0.001 -0.2039336,0.0182 -0.1289837,0.0203 -0.2875987,0.0801 -0.158615,0.058 -0.3276882,0.14912 l -0.01743,0.003 v -0.33292 q 0.095866,-0.0413 0.2771405,-0.10107 0.1812744,-0.0599 0.3573196,-0.0876 0.2056767,-0.0323 0.3573196,-0.0213 0.153386,0.009 0.2649395,0.0734 0.1098104,0.0629 0.1673301,0.18112 0.05752,0.11819 0.05752,0.30644 z m -0.3259453,-0.42808 v -0.54208 q -0.1498999,0.0326 -0.3538335,0.0818 -0.2021906,0.0492 -0.3207161,0.10093 -0.1411849,0.0623 -0.228336,0.16139 -0.087151,0.0974 -0.087151,0.24553 0,0.16733 0.1010953,0.23684 0.1010953,0.0678 0.308515,0.0352 0.1725592,-0.0271 0.315487,-0.1158 0.1429279,-0.0905 0.2649394,-0.20375 z"
           style="stroke-width:0.0140468"
           id="path1732" />
        <path
           d="M 8.0669165,249.07843 H 7.7392283 v -1.36396 q 0,-0.15442 -0.012201,-0.2981 -0.010458,-0.14369 -0.047062,-0.22947 -0.040089,-0.0923 -0.1150395,-0.13941 -0.07495,-0.0472 -0.2161348,-0.0472 -0.1376987,0 -0.2753975,0.0858 -0.1376988,0.0837 -0.2753976,0.21446 0.00523,0.0493 0.00872,0.11578 0.00349,0.0644 0.00349,0.12868 v 1.53339 H 6.4825091 v -1.36397 q 0,-0.15869 -0.012201,-0.30024 -0.010458,-0.14369 -0.047062,-0.22948 -0.040089,-0.0923 -0.1150395,-0.13725 -0.07495,-0.0472 -0.2161348,-0.0472 -0.1342127,0 -0.2701685,0.0815 -0.1342127,0.0814 -0.2684254,0.20802 v 1.7886 h -0.327688 v -2.39552 h 0.3276882 v 0.26593 q 0.153386,-0.15656 0.3050289,-0.24448 0.153386,-0.088 0.3259452,-0.088 0.1987046,0 0.3364034,0.10298 0.1394418,0.10299 0.2074196,0.28523 0.1987046,-0.20588 0.3625487,-0.29596 0.1638441,-0.0923 0.3503475,-0.0923 0.3207162,0 0.4723591,0.2402 0.153386,0.23806 0.153386,0.66697 z"
           style="stroke-width:0.0155811"
           id="path1734" />
        <path
           d="M 10.327617,247.92249 H 8.8931091 q 0,0.22089 0.054034,0.38603 0.054034,0.16299 0.1481569,0.26808 0.090637,0.10299 0.2143918,0.1544 0.1254976,0.0514 0.2753975,0.0514 0.1987046,0 0.3991522,-0.0965 0.2021905,-0.0987 0.2875985,-0.19301 h 0.01743 v 0.43964 q -0.165587,0.0858 -0.3381459,0.14369 -0.1725593,0.058 -0.3625487,0.058 -0.4845603,0 -0.7564718,-0.32169 -0.2719115,-0.32384 -0.2719115,-0.91789 0,-0.58761 0.2597104,-0.9329 0.2614533,-0.34528 0.6867508,-0.34528 0.3939231,0 0.6065717,0.28308 0.214392,0.28309 0.214392,0.80424 z m -0.318974,-0.30882 q -0.0017,-0.3174 -0.1307262,-0.49111 -0.1272406,-0.17372 -0.388694,-0.17372 -0.2631964,0 -0.4200684,0.19087 -0.155129,0.19087 -0.1760453,0.47396 z"
           style="stroke-width:0.0155811"
           id="path1736" />
      </g>
      <g
         aria-label="scan"
         transform="scale(0.86291641,1.1588608)"
         id="text1665"
         style="font-style:normal;font-weight:normal;font-size:4.11687px;line-height:1.25;font-family:sans-serif;fill:#000000;fill-opacity:1;stroke:none;stroke-width:0.0161999" />
    </g>
  </g>
</svg>
