<?xml version="1.0" encoding="UTF-8" standalone="no"?>
<svg
   xmlns:dc="http://purl.org/dc/elements/1.1/"
   xmlns:cc="http://creativecommons.org/ns#"
   xmlns:rdf="http://www.w3.org/1999/02/22-rdf-syntax-ns#"
   xmlns:svg="http://www.w3.org/2000/svg"
   xmlns="http://www.w3.org/2000/svg"
   xmlns:sodipodi="http://sodipodi.sourceforge.net/DTD/sodipodi-0.dtd"
   xmlns:inkscape="http://www.inkscape.org/namespaces/inkscape"
   id="Layer_1"
   data-name="Layer 1"
   viewBox="0 0 21 21"
   version="1.1"
   sodipodi:docname="computerscare-scramble-knob.svg"
   inkscape:version="0.92.2 5c3e80d, 2017-08-06"
   width="21"
   height="21">
  <metadata
     id="metadata1289">
    <rdf:RDF>
      <cc:Work
         rdf:about="">
        <dc:format>image/svg+xml</dc:format>
        <dc:type
           rdf:resource="http://purl.org/dc/dcmitype/StillImage" />
        <dc:title>01 Big Knob</dc:title>
      </cc:Work>
    </rdf:RDF>
  </metadata>
  <sodipodi:namedview
     pagecolor="#ffffff"
     bordercolor="#666666"
     borderopacity="1"
     objecttolerance="10"
     gridtolerance="10"
     guidetolerance="10"
     inkscape:pageopacity="0"
     inkscape:pageshadow="2"
     inkscape:window-width="1398"
     inkscape:window-height="834"
     id="namedview1287"
     showgrid="false"
     inkscape:zoom="22.378007"
     inkscape:cx="6.2282666"
     inkscape:cy="7.7846079"
     inkscape:window-x="0"
     inkscape:window-y="0"
     inkscape:window-maximized="0"
     inkscape:current-layer="Big_Knob" />
  <defs
     id="defs1279">
    <style
       id="style1277">.cls-1{fill:#245559;}.cls-2{fill:none;stroke:#24c9a6;stroke-miterlimit:10;stroke-width:3px;}</style>
  </defs>
  <title
     id="title1281">01 Big Knob</title>
  <g
     id="Big_Knob"
     data-name="Big Knob"
     transform="translate(0,-39)">
    <path
       style="opacity:0.98000004;fill:#c77926;fill-opacity:1;stroke:#000000;stroke-width:0.79400003;stroke-miterlimit:4;stroke-dasharray:none;stroke-opacity:1"
       d="m 19.004252,49.00727 c 0.547144,6.492783 -3.659986,9.087337 -8.518874,8.849665 C 2.098491,57.446692 2.5460592,53.829397 2.3591869,49.048619 2.071787,41.696029 3.2347866,45.340261 7.50319,45.021783 c 0.2710372,-0.02022 -1.1305484,-0.951575 1.5111874,-2.221306 12.3023876,-5.913053 0.6738741,2.594949 6.6875526,3.444852 0,0 3.302322,-1.769882 3.302322,2.761999 z"
       id="Big_Button_Circle"
       inkscape:connector-curvature="0"
       sodipodi:nodetypes="cssssssc" />
    <path
       sodipodi:nodetypes="cssssssc"
       inkscape:connector-curvature="0"
       id="path944"
       d="m 19.004252,49.007328 c 0.547144,6.492783 -3.65462,8.783968 -8.518874,8.849665 C 7.7737048,57.893613 9.3969578,56.02146 9.2856298,51.238327 9.2663498,50.41 8.8206268,49.317438 7.5031895,45.021841 c -0.079693,-0.259844 -1.130549,-0.951575 1.5111873,-2.221306 12.3023882,-5.913053 0.673874,2.594949 6.6875532,3.444852 0,0 3.302322,-1.769882 3.302322,2.761999 z"
       style="opacity:0.98000004;fill:#266fc7;fill-opacity:1;stroke:none;stroke-width:0.79400003;stroke-miterlimit:4;stroke-dasharray:none;stroke-opacity:1" />
    <path
       style="fill:none;stroke:#17df97;stroke-width:1px;stroke-linecap:butt;stroke-linejoin:miter;stroke-opacity:1"
       d="m 8.8032862,53.788545 3.1727578,-3.753686 -2.9046374,-2.18965 2.7258904,-3.619625 -1.564035,-3.843059 v 0"
       id="path940"
       inkscape:connector-curvature="0"
       sodipodi:nodetypes="cccccc" />
    <path
       sodipodi:nodetypes="cccccc"
       inkscape:connector-curvature="0"
       id="path942"
       d="m 11.920455,53.788544 0.893734,-3.485565 -2.9046374,-2.18965 2.7258904,-3.619625 -1.564035,-3.843059 -0.223434,-0.625614"
       style="fill:none;stroke:#75bba2;stroke-width:0.88818896;stroke-linecap:round;stroke-linejoin:round;stroke-miterlimit:4;stroke-dasharray:none;stroke-opacity:1" />
    <path
       sodipodi:nodetypes="cssssssc"
       inkscape:connector-curvature="0"
       id="path946"
       d="m 19.004252,49.00727 c 0.547144,6.492783 -3.659986,9.087337 -8.518874,8.849665 C 2.098491,57.446692 2.5460592,53.829397 2.3591869,49.048619 2.071787,41.696029 3.2347866,45.340261 7.50319,45.021783 c 0.2710372,-0.02022 -1.1305484,-0.951575 1.5111874,-2.221306 12.3023876,-5.913053 0.6738741,2.594949 6.6875526,3.444852 0,0 3.302322,-1.769882 3.302322,2.761999 z"
       style="opacity:0.98000004;fill:none;fill-opacity:1;stroke:#000000;stroke-width:0.79400003;stroke-miterlimit:4;stroke-dasharray:none;stroke-opacity:1" />
    <path
       sodipodi:nodetypes="cc"
       inkscape:connector-curvature="0"
       id="path948"
       d="M 10.925906,42.4437 10.115959,40.432798"
       style="fill:none;stroke:#17df97;stroke-width:0.73700786;stroke-linecap:butt;stroke-linejoin:miter;stroke-miterlimit:4;stroke-dasharray:none;stroke-opacity:1" />
  </g>
</svg>
