<?xml version="1.0" encoding="UTF-8" standalone="no"?>
<svg
   id="Layer_1"
   data-name="Layer 1"
   viewBox="0 0 18 18"
   version="1.1"
   sodipodi:docname="compoly-lane-count-empty.svg"
   inkscape:version="1.3.2 (091e20e, 2023-11-25)"
   width="18"
   height="18"
   xmlns:inkscape="http://www.inkscape.org/namespaces/inkscape"
   xmlns:sodipodi="http://sodipodi.sourceforge.net/DTD/sodipodi-0.dtd"
   xmlns="http://www.w3.org/2000/svg"
   xmlns:svg="http://www.w3.org/2000/svg"
   xmlns:rdf="http://www.w3.org/1999/02/22-rdf-syntax-ns#"
   xmlns:cc="http://creativecommons.org/ns#"
   xmlns:dc="http://purl.org/dc/elements/1.1/">
  <metadata
     id="metadata1289">
    <rdf:RDF>
      <cc:Work
         rdf:about="">
        <dc:format>image/svg+xml</dc:format>
        <dc:type
           rdf:resource="http://purl.org/dc/dcmitype/StillImage" />
        <dc:title>01 Big Knob</dc:title>
      </cc:Work>
    </rdf:RDF>
  </metadata>
  <sodipodi:namedview
     pagecolor="#ffffff"
     bordercolor="#666666"
     borderopacity="1"
     objecttolerance="10"
     gridtolerance="10"
     guidetolerance="10"
     inkscape:pageopacity="0"
     inkscape:pageshadow="2"
     inkscape:window-width="1920"
     inkscape:window-height="1022"
     id="namedview1287"
     showgrid="false"
     inkscape:zoom="31.647281"
     inkscape:cx="10.332641"
     inkscape:cy="6.1774659"
     inkscape:window-x="1728"
     inkscape:window-y="30"
     inkscape:window-maximized="1"
     inkscape:current-layer="Big_Knob"
     inkscape:snap-global="false"
     inkscape:showpageshadow="2"
     inkscape:pagecheckerboard="0"
     inkscape:deskcolor="#d1d1d1" />
  <defs
     id="defs1279">
    <marker
       inkscape:stockid="Arrow1Lstart"
       orient="auto"
       refY="0.0"
       refX="0.0"
       id="marker1120"
       style="overflow:visible"
       inkscape:isstock="true">
      <path
         id="path1118"
         d="M 0.0,0.0 L 5.0,-5.0 L -12.5,0.0 L 5.0,5.0 L 0.0,0.0 z "
         style="fill-rule:evenodd;stroke:#fb2020;stroke-width:1pt;stroke-opacity:1;fill:#bfbfbf;fill-opacity:1"
         transform="scale(0.8) translate(12.5,0)" />
    </marker>
    <marker
       inkscape:stockid="Arrow1Lend"
       orient="auto"
       refY="0.0"
       refX="0.0"
       id="Arrow1Lend"
       style="overflow:visible;"
       inkscape:isstock="true">
      <path
         id="path837"
         d="M 0.0,0.0 L 5.0,-5.0 L -12.5,0.0 L 5.0,5.0 L 0.0,0.0 z "
         style="fill-rule:evenodd;stroke:#fb2020;stroke-width:1pt;stroke-opacity:1;fill:#bfbfbf;fill-opacity:1"
         transform="scale(0.8) rotate(180) translate(12.5,0)" />
    </marker>
    <marker
       inkscape:stockid="Arrow1Lstart"
       orient="auto"
       refY="0.0"
       refX="0.0"
       id="Arrow1Lstart"
       style="overflow:visible"
       inkscape:isstock="true">
      <path
         id="path834"
         d="M 0.0,0.0 L 5.0,-5.0 L -12.5,0.0 L 5.0,5.0 L 0.0,0.0 z "
         style="fill-rule:evenodd;stroke:#fb2020;stroke-width:1pt;stroke-opacity:1;fill:#bfbfbf;fill-opacity:1"
         transform="scale(0.8) translate(12.5,0)" />
    </marker>
    <style
       id="style1277">.cls-1{fill:#245559;}.cls-2{fill:none;stroke:#24c9a6;stroke-miterlimit:10;stroke-width:3px;}</style>
  </defs>
  <title
     id="title1281">01 Big Knob</title>
  <g
     id="Big_Knob"
     data-name="Big Knob"
     transform="translate(0,-42)">
    <path
       style="fill:#ebebeb;fill-opacity:0.985714;stroke-width:3.672"
       d="m 7.0148206,50.310351 0.7899573,3.918188"
       id="path1" />
    <path
       style="fill:#ebebeb;fill-opacity:0.985714;stroke-width:3.672"
       d="M 9.7954703,54.544522 5.8456839,50.752727"
       id="path2" />
    <path
       style="fill:#ebebeb;fill-opacity:0.985714;stroke-width:3.672"
       d="m 4.5185556,52.838214 -0.221188,1.643111"
       id="path3" />
    <path
       style="fill:#ebebeb;fill-opacity:0.985714;stroke-width:3.672"
       d="m 2.8122479,55.050094 2.8438462,1.29553"
       id="path4" />
    <path
       style="fill:#ebebeb;fill-opacity:0.985714;stroke-width:3.672"
       d="M 5.4981027,56.124436 3.1914274,52.743419"
       id="path5" />
    <path
       style="font-size:19.6515px;font-family:Futura;-inkscape-font-specification:'Futura, Normal';fill:#cacaca;fill-opacity:1;stroke:#000000;stroke-width:0.692426;stroke-linecap:round"
       d="m -44.755485,3.1065699 -0.270918,3.573304 c -1.292189,-1.0810885 -3.516381,-2.1821242 -4.898127,-2.1821242 -1.522479,0 -2.805072,0.5469412 -3.847779,1.6408236 -1.049103,1.0874854 -1.573655,2.4180556 -1.573655,3.9917107 0,1.554465 0.524552,2.865844 1.573655,3.934139 1.049103,1.068294 2.334895,1.602441 3.857374,1.602441 0.786828,0 1.455312,-0.127939 2.005451,-0.383818 0.307055,-0.127939 0.623706,-0.300658 0.949951,-0.518155 0.332643,-0.217497 0.681278,-0.479772 1.045905,-0.786827 l 1.290395,2.838544 c -1.279395,0.722858 -3.913154,0.942067 -5.320488,0.942067 -2.117398,0 -3.924543,-0.738851 -5.421434,-2.216552 -1.490495,-1.490495 -2.235742,-3.288044 -2.235742,-5.392648 0,-1.8871068 0.623705,-3.5695106 1.871114,-5.0472113 1.535273,-1.8103433 3.521533,-2.715515 5.95878,-2.715515 1.330571,0 3.774505,-0.00304 5.015518,0.7198212 z"
       id="text6"
       transform="matrix(0.0128336,-1.0054096,0.99445389,0.01297499,0,0)"
       aria-label="C"
       sodipodi:nodetypes="ccscsssccccscscsc" />
    <path
       style="fill:none;fill-opacity:0.985714;stroke:#000000;stroke-width:0.572;stroke-linecap:square;stroke-dasharray:none;stroke-opacity:1"
       d="m 0.88475215,44.433069 7.10961555,1.200735 v 0"
       id="path7" />
    <path
       style="fill:none;fill-opacity:0.985714;stroke:#000000;stroke-width:0.489139;stroke-linecap:square;stroke-dasharray:none;stroke-opacity:1"
       d="m 12.407738,46.518086 4.966391,-2.007031 v 0"
       id="path7-5"
       sodipodi:nodetypes="ccc" />
    <path
       style="fill:#cacaca;fill-opacity:1;stroke:#000000;stroke-width:0.572;stroke-linecap:square;stroke-dasharray:none;stroke-opacity:1"
       d="m 5.3401111,54.007351 7.2360089,0.72676"
       id="path8"
       sodipodi:nodetypes="cc" />
    <path
       style="fill:#1bd28b;fill-opacity:1;stroke:#000000;stroke-width:0.428509;stroke-linecap:square;stroke-dasharray:none;stroke-opacity:1"
       d="m 8.92105,46.04233 1.656151,-3.342747 0.727284,3.50337 z"
       id="path9"
       sodipodi:nodetypes="cccc" />
  </g>
</svg>
