<?xml version="1.0" encoding="UTF-8" standalone="no"?>
<!-- Created with Inkscape (http://www.inkscape.org/) -->

<svg
   xmlns:dc="http://purl.org/dc/elements/1.1/"
   xmlns:cc="http://creativecommons.org/ns#"
   xmlns:rdf="http://www.w3.org/1999/02/22-rdf-syntax-ns#"
   xmlns:svg="http://www.w3.org/2000/svg"
   xmlns="http://www.w3.org/2000/svg"
   xmlns:sodipodi="http://sodipodi.sourceforge.net/DTD/sodipodi-0.dtd"
   xmlns:inkscape="http://www.inkscape.org/namespaces/inkscape"
   width="10mm"
   height="5mm"
   viewBox="0 0 10 5"
   version="1.1"
   id="svg890"
   inkscape:version="0.92.2 5c3e80d, 2017-08-06"
   sodipodi:docname="computerscare-clk-text-red.svg">
  <defs
     id="defs884" />
  <sodipodi:namedview
     id="base"
     pagecolor="#ffffff"
     bordercolor="#666666"
     borderopacity="1.0"
     inkscape:pageopacity="0.0"
     inkscape:pageshadow="2"
     inkscape:zoom="11.2"
     inkscape:cx="15.446429"
     inkscape:cy="6.3727779"
     inkscape:document-units="mm"
     inkscape:current-layer="text1588"
     showgrid="false"
     units="mm"
     inkscape:window-width="1440"
     inkscape:window-height="855"
     inkscape:window-x="0"
     inkscape:window-y="1"
     inkscape:window-maximized="1" />
  <metadata
     id="metadata887">
    <rdf:RDF>
      <cc:Work
         rdf:about="">
        <dc:format>image/svg+xml</dc:format>
        <dc:type
           rdf:resource="http://purl.org/dc/dcmitype/StillImage" />
        <dc:title></dc:title>
      </cc:Work>
    </rdf:RDF>
  </metadata>
  <g
     inkscape:label="Layer 1"
     inkscape:groupmode="layer"
     id="layer1"
     transform="translate(0,-292)">
    <g
       aria-label="rst"
       style="font-style:normal;font-weight:normal;font-size:6.29599571px;line-height:1.25;font-family:sans-serif;letter-spacing:0px;word-spacing:0px;fill:#000000;fill-opacity:1;stroke:none;stroke-width:0.15739989"
       id="text1460">
      <g
         aria-label="clk"
         style="font-style:normal;font-weight:normal;font-size:5.05844212px;line-height:1.25;font-family:sans-serif;letter-spacing:0px;word-spacing:0px;fill:#000000;fill-opacity:1;stroke:none;stroke-width:0.01990495"
         id="text1588">
        <path
           d="m 2.9257701,293.36171 0.034763,0.45704 q -0.2390654,-0.13829 -0.4766353,-0.21845 -0.2348181,-0.0824 -0.4710995,-0.10709 -0.5286357,-0.0556 -0.798035,0.21727 -0.26955915,0.26976 -0.2281263,0.81448 0.0414319,0.54473 0.35687,0.87815 0.3152359,0.33076 0.8439147,0.38591 0.2362638,0.0248 0.4624051,-0.007 0.2288802,-0.034 0.450566,-0.12435 l 0.034358,0.45172 q -0.2201398,0.0718 -0.4616486,0.0942 -0.2385579,0.0225 -0.5132366,-0.006 -0.7472412,-0.0779 -1.21944741,-0.54634 -0.4722083,-0.46841 -0.52677688,-1.18585 -0.0553776,-0.72809 0.35591746,-1.09904 0.41424933,-0.37066 1.18807023,-0.28994 0.2510522,0.0261 0.493921,0.0991 0.2426765,0.0701 0.47421,0.18657 z"
           style="stroke-width:0.02248672;fill:#ea0000;fill-opacity:1"
           id="path1590"
           inkscape:connector-curvature="0" />
        <path
           d="m 3.6089628,293.07208 0.7058223,-0.18901 0.7372309,3.31648 -0.7058213,0.189 z"
           style="stroke-width:0.02371932;fill:#ea0000;fill-opacity:1"
           id="path1592"
           inkscape:connector-curvature="0" />
        <path
           d="m 6.8029782,292.75972 0.5463818,0.0572 -0.7653993,2.23004 2.0237512,-1.0029 0.6940731,0.0724 -2.170958,1.18675 1.5893239,1.30322 -0.986179,0.16156 -1.2249727,-1.50264 -0.4555763,1.32734 -0.5463819,-0.0572 z"
           style="stroke-width:0.02195736;fill:#ea0000;fill-opacity:1"
           id="path1594"
           inkscape:connector-curvature="0"
           sodipodi:nodetypes="cccccccccccc" />
      </g>
    </g>
  </g>
</svg>
