<?xml version="1.0" encoding="UTF-8" standalone="no"?>
<svg
   xmlns:dc="http://purl.org/dc/elements/1.1/"
   xmlns:cc="http://creativecommons.org/ns#"
   xmlns:rdf="http://www.w3.org/1999/02/22-rdf-syntax-ns#"
   xmlns:svg="http://www.w3.org/2000/svg"
   xmlns="http://www.w3.org/2000/svg"
   xmlns:sodipodi="http://sodipodi.sourceforge.net/DTD/sodipodi-0.dtd"
   xmlns:inkscape="http://www.inkscape.org/namespaces/inkscape"
   width="10mm"
   height="5mm"
   viewBox="0 0 10 5"
   version="1.1"
   id="svg890"
   inkscape:version="1.0.1 (c497b03c, 2020-09-10)"
   sodipodi:docname="computerscare-next-button.svg">
  <defs
     id="defs884" />
  <sodipodi:namedview
     id="base"
     pagecolor="#ffffff"
     bordercolor="#666666"
     borderopacity="1.0"
     inkscape:pageopacity="0.0"
     inkscape:pageshadow="2"
     inkscape:zoom="7.919596"
     inkscape:cx="39.790474"
     inkscape:cy="-4.8818861"
     inkscape:document-units="mm"
     inkscape:current-layer="text1567"
     showgrid="false"
     units="mm"
     inkscape:window-width="1440"
     inkscape:window-height="855"
     inkscape:window-x="0"
     inkscape:window-y="23"
     inkscape:window-maximized="1"
     inkscape:snap-global="false"
     inkscape:document-rotation="0" />
  <metadata
     id="metadata887">
    <rdf:RDF>
      <cc:Work
         rdf:about="">
        <dc:format>image/svg+xml</dc:format>
        <dc:type
           rdf:resource="http://purl.org/dc/dcmitype/StillImage" />
        <dc:title></dc:title>
      </cc:Work>
    </rdf:RDF>
  </metadata>
  <g
     inkscape:label="Layer 1"
     inkscape:groupmode="layer"
     id="layer1"
     transform="translate(0,-292)">
    <g
       aria-label="rst"
       style="font-style:normal;font-weight:normal;font-size:6.29599571px;line-height:1.25;font-family:sans-serif;letter-spacing:0px;word-spacing:0px;fill:#000000;fill-opacity:1;stroke:none;stroke-width:0.15739989"
       id="text1460">
      <rect
         style="fill:#dedede;fill-opacity:1;stroke:#000000;stroke-width:0.0391602;stroke-opacity:1"
         id="rect2390"
         width="7.7864323"
         height="3.7822468"
         x="0.21136901"
         y="292.08505" />
      <path
         style="fill:#adadad;fill-opacity:1;stroke:#000000;stroke-width:0.13618915;stroke-linecap:butt;stroke-linejoin:miter;stroke-miterlimit:4;stroke-dasharray:none;stroke-opacity:1"
         d="m 7.9731123,292.09119 1.1703757,0.58926 0.058516,4.13739 -1.2288925,-1.00035 z"
         id="path2394"
         inkscape:connector-curvature="0"
         sodipodi:nodetypes="ccccc" />
      <path
         style="fill:#848484;fill-opacity:1;stroke:#000000;stroke-width:0.1530488;stroke-linecap:butt;stroke-linejoin:miter;stroke-miterlimit:4;stroke-dasharray:none;stroke-opacity:1"
         d="m 0.3010355,295.89989 0.61376262,0.78031 8.14457738,0.19081 -1.1050461,-1.01734 z"
         id="path2396"
         inkscape:connector-curvature="0"
         sodipodi:nodetypes="ccccc" />
      <g
         aria-label="next"
         transform="matrix(0.89982262,0,0,1.1113301,0.10022607,4.1760864)"
         id="text1567"
         style="font-style:normal;font-weight:normal;font-size:3.67761px;line-height:1.25;font-family:sans-serif;fill:#000000;fill-opacity:1;stroke:none;stroke-width:0.0144715">
        <path
           d="m 2.1121646,261.98606 -0.3370925,-0.0181 0.07679,-1.38657 q 0.0093,-0.16788 0.00125,-0.31481 -0.00793,-0.14912 -0.046372,-0.23427 -0.039757,-0.094 -0.1216131,-0.1421 -0.081738,-0.0503 -0.2162165,-0.0575 -0.1380646,-0.007 -0.2932659,0.0672 -0.1552014,0.0747 -0.30039165,0.19598 l -0.10069626,1.81824 -0.33709313,-0.0181 0.13486502,-2.43522 0.33709244,0.0181 -0.0149711,0.27033 q 0.16660148,-0.15068 0.34009828,-0.23102 0.173495,-0.0804 0.3510065,-0.0708 0.324541,0.0174 0.48172,0.26419 0.1571788,0.24678 0.1324273,0.69372 z"
           style="stroke-width:0.0159573"
           id="path1569" />
        <path
           d="M 4.511746,260.85253 H 2.8530711 q 0,0.20868 0.062477,0.3647 0.062477,0.154 0.1713091,0.25328 0.104801,0.0973 0.2478943,0.14588 0.1451089,0.0486 0.3184334,0.0486 0.2297557,0 0.4615267,-0.0912 0.2337865,-0.0932 0.3325411,-0.18236 h 0.020154 v 0.41536 q -0.1914632,0.081 -0.3909879,0.13577 -0.1995246,0.0547 -0.4192033,0.0547 -0.5602814,0 -0.8746839,-0.30393 -0.3144025,-0.30595 -0.3144025,-0.86719 0,-0.55517 0.3002947,-0.88138 0.3023101,-0.32622 0.7940679,-0.32622 0.4554806,0 0.7013595,0.26745 0.2478943,0.26746 0.2478943,0.75981 z m -0.3688184,-0.29178 q -0.00202,-0.29987 -0.1511551,-0.46398 -0.1471242,-0.16413 -0.4494343,-0.16413 -0.3043256,0 -0.4857116,0.18033 -0.1793707,0.18033 -0.2035555,0.44778 z"
           style="stroke-width:0.0162853"
           id="path1571" />
        <path
           d="M 6.7599726,261.95062 H 6.3343898 l -0.5692395,-0.70109 -0.5728308,0.70109 h -0.39326 l 0.7829286,-0.91027 -0.7757458,-0.91516 h 0.4255828 l 0.565648,0.68965 0.5674437,-0.68965 h 0.3950558 l -0.7883158,0.89883 z"
           style="stroke-width:0.0138055"
           id="path1573" />
        <path
           d="m 8.4270718,261.93135 q -0.1091687,0.0257 -0.2389342,0.0422 -0.127706,0.0166 -0.2286351,0.0166 -0.3522219,0 -0.535542,-0.169 -0.1833202,-0.16899 -0.1833202,-0.54188 v -1.09111 H 6.9790487 v -0.29022 h 0.2615916 v -0.58965 h 0.3872381 v 0.58965 h 0.7991934 v 0.29022 H 7.6278784 v 0.93497 q 0,0.16166 0.00824,0.2535 0.00824,0.09 0.057674,0.16899 0.045316,0.0735 0.1235866,0.10837 0.080332,0.033 0.2430538,0.033 0.09475,0 0.1977385,-0.0239 0.1029884,-0.0257 0.148304,-0.0422 h 0.020598 z"
           style="stroke-width:0.0156758"
           id="path1575" />
      </g>
    </g>
  </g>
</svg>
