<?xml version="1.0" encoding="UTF-8" standalone="no"?>
<svg
   xmlns:dc="http://purl.org/dc/elements/1.1/"
   xmlns:cc="http://creativecommons.org/ns#"
   xmlns:rdf="http://www.w3.org/1999/02/22-rdf-syntax-ns#"
   xmlns:svg="http://www.w3.org/2000/svg"
   xmlns="http://www.w3.org/2000/svg"
   xmlns:sodipodi="http://sodipodi.sourceforge.net/DTD/sodipodi-0.dtd"
   xmlns:inkscape="http://www.inkscape.org/namespaces/inkscape"
   width="10mm"
   height="5mm"
   viewBox="0 0 10 5"
   version="1.1"
   id="svg890"
   inkscape:version="1.0.1 (c497b03c, 2020-09-10)"
   sodipodi:docname="computerscare-next-button-down.svg">
  <defs
     id="defs884" />
  <sodipodi:namedview
     id="base"
     pagecolor="#ffffff"
     bordercolor="#666666"
     borderopacity="1.0"
     inkscape:pageopacity="0.0"
     inkscape:pageshadow="2"
     inkscape:zoom="15.839192"
     inkscape:cx="21.741072"
     inkscape:cy="6.1409295"
     inkscape:document-units="mm"
     inkscape:current-layer="text1460"
     showgrid="false"
     units="mm"
     inkscape:window-width="1440"
     inkscape:window-height="855"
     inkscape:window-x="0"
     inkscape:window-y="23"
     inkscape:window-maximized="1"
     inkscape:snap-global="false"
     inkscape:document-rotation="0" />
  <metadata
     id="metadata887">
    <rdf:RDF>
      <cc:Work
         rdf:about="">
        <dc:format>image/svg+xml</dc:format>
        <dc:type
           rdf:resource="http://purl.org/dc/dcmitype/StillImage" />
        <dc:title></dc:title>
      </cc:Work>
    </rdf:RDF>
  </metadata>
  <g
     inkscape:label="Layer 1"
     inkscape:groupmode="layer"
     id="layer1"
     transform="translate(0,-292)">
    <g
       aria-label="rst"
       style="font-style:normal;font-weight:normal;font-size:6.29599571px;line-height:1.25;font-family:sans-serif;letter-spacing:0px;word-spacing:0px;fill:#000000;fill-opacity:1;stroke:none;stroke-width:0.15739989"
       id="text1460">
      <path
         sodipodi:nodetypes="ccccc"
         inkscape:connector-curvature="0"
         id="path2434"
         d="m 0.95659426,292.68898 -0.0111558,3.91358 8.14423548,0.19878 -0.034522,-4.03983 z"
         style="fill:#848484;fill-opacity:1;stroke:#000000;stroke-width:0.25272471;stroke-linecap:butt;stroke-linejoin:miter;stroke-miterlimit:4;stroke-dasharray:none;stroke-opacity:1" />
      <path
         style="fill:#dedede;fill-opacity:1;stroke:#000000;stroke-width:0.03266888;stroke-opacity:1"
         d="m 1.6845928,293.59372 7.2968297,0.2008 -0.011812,2.89105 -7.285018,-0.18899 z"
         id="rect2390"
         inkscape:connector-curvature="0"
         sodipodi:nodetypes="ccccc" />
      <path
         style="fill:#adadad;fill-opacity:1;stroke:#000000;stroke-width:0.13618915;stroke-linecap:butt;stroke-linejoin:miter;stroke-miterlimit:4;stroke-dasharray:none;stroke-opacity:1"
         d="m 0.90968224,292.76446 0.73334076,0.86093 0.011269,2.93259 -0.70917519,-0.02 z"
         id="path2394"
         inkscape:connector-curvature="0"
         sodipodi:nodetypes="ccccc" />
      <path
         style="fill:#848484;fill-opacity:1;stroke:#000000;stroke-width:0.1530488;stroke-linecap:butt;stroke-linejoin:miter;stroke-miterlimit:4;stroke-dasharray:none;stroke-opacity:1"
         d="m 1.0451761,292.78158 0.6137626,0.78031 7.388625,0.179 -0.030176,-1.00553 z"
         id="path2396"
         inkscape:connector-curvature="0"
         sodipodi:nodetypes="ccccc" />
      <path
         d="m 3.3746397,296.75578 -0.3033235,-0.0201 0.069097,-1.54094 q 0.00837,-0.18657 0.00112,-0.34985 -0.00714,-0.16573 -0.041727,-0.26035 -0.035774,-0.10447 -0.1094302,-0.15792 -0.07355,-0.0559 -0.1945565,-0.0639 -0.1242337,-0.008 -0.2638873,0.0747 -0.1396537,0.083 -0.2702992,0.21779 l -0.090603,2.02063 -0.303324,-0.0201 0.1213546,-2.70633 0.3033234,0.0201 -0.013471,0.30042 q 0.1499118,-0.16745 0.3060282,-0.25674 0.1561147,-0.0893 0.3158435,-0.0787 0.2920293,0.0193 0.4334625,0.2936 0.1414331,0.27426 0.1191611,0.77095 z"
         style="font-style:normal;font-weight:normal;font-size:3.67761px;line-height:1.25;font-family:sans-serif;letter-spacing:0px;word-spacing:0px;fill:#000000;fill-opacity:1;stroke:none;stroke-width:0.0159573"
         id="path1569" />
      <path
         d="M 5.5338373,295.49605 H 4.0413241 q 0,0.23191 0.056218,0.4053 0.056218,0.17115 0.1541478,0.28148 0.094302,0.10813 0.2230609,0.16212 0.1305724,0.054 0.2865336,0.054 0.2067394,0 0.4152922,-0.10135 0.2103665,-0.10358 0.2992281,-0.20266 h 0.018134 v 0.4616 q -0.1722829,0.09 -0.3518196,0.15088 -0.1795367,0.0608 -0.3772085,0.0608 -0.504154,0 -0.7870605,-0.33776 -0.2829065,-0.34001 -0.2829065,-0.96374 0,-0.61697 0.270212,-0.9795 0.2720255,-0.36254 0.7145203,-0.36254 0.4098517,0 0.6310992,0.29723 0.2230607,0.29723 0.2230607,0.8444 z m -0.3318711,-0.32426 q -0.00182,-0.33326 -0.1360128,-0.51564 -0.1323856,-0.1824 -0.4044111,-0.1824 -0.2738391,0 -0.4370543,0.20041 -0.1614019,0.2004 -0.1831639,0.49763 z"
         style="font-style:normal;font-weight:normal;font-size:3.67761px;line-height:1.25;font-family:sans-serif;letter-spacing:0px;word-spacing:0px;fill:#000000;fill-opacity:1;stroke:none;stroke-width:0.0162853"
         id="path1571" />
      <path
         d="M 7.5568425,296.71639 H 7.1738933 l -0.5122145,-0.77914 -0.5154462,0.77914 H 5.7923685 l 0.7044968,-1.01161 -0.6980335,-1.01704 h 0.3829489 l 0.5089829,0.76642 0.5105988,-0.76642 h 0.3554801 l -0.7093445,0.99889 z"
         style="font-style:normal;font-weight:normal;font-size:3.67761px;line-height:1.25;font-family:sans-serif;letter-spacing:0px;word-spacing:0px;fill:#000000;fill-opacity:1;stroke:none;stroke-width:0.0138055"
         id="path1573" />
      <path
         d="m 9.0569361,296.70194 q -0.098232,0.0256 -0.2149986,0.0419 -0.1149125,0.0165 -0.205731,0.0165 -0.3169372,0 -0.4818928,-0.16781 -0.1649555,-0.16781 -0.1649555,-0.53808 v -1.08346 h -0.235386 v -0.28818 h 0.235386 v -0.58558 h 0.3484454 v 0.58552 h 0.7191325 v 0.28819 H 8.3378036 v 0.92841 q 0,0.16052 0.00741,0.25172 0.00741,0.0894 0.051896,0.1678 0.040776,0.073 0.1112059,0.10762 0.072285,0.0328 0.2187054,0.0328 0.085258,0 0.1779294,-0.0238 0.092672,-0.0255 0.1334484,-0.0419 h 0.018534 z"
         style="font-style:normal;font-weight:normal;font-size:3.67761px;line-height:1.25;font-family:sans-serif;letter-spacing:0px;word-spacing:0px;fill:#000000;fill-opacity:1;stroke:none;stroke-width:0.0148177"
         id="path1575" />
    </g>
  </g>
</svg>
