<?xml version="1.0" encoding="UTF-8" standalone="no"?>
<!-- Created with Inkscape (http://www.inkscape.org/) -->

<svg
   xmlns:dc="http://purl.org/dc/elements/1.1/"
   xmlns:cc="http://creativecommons.org/ns#"
   xmlns:rdf="http://www.w3.org/1999/02/22-rdf-syntax-ns#"
   xmlns:svg="http://www.w3.org/2000/svg"
   xmlns="http://www.w3.org/2000/svg"
   xmlns:sodipodi="http://sodipodi.sourceforge.net/DTD/sodipodi-0.dtd"
   xmlns:inkscape="http://www.inkscape.org/namespaces/inkscape"
   width="10mm"
   height="5mm"
   viewBox="0 0 10 5"
   version="1.1"
   id="svg890"
   inkscape:version="0.92.2 5c3e80d, 2017-08-06"
   sodipodi:docname="computerscare-rst-text-red.svg">
  <defs
     id="defs884" />
  <sodipodi:namedview
     id="base"
     pagecolor="#ffffff"
     bordercolor="#666666"
     borderopacity="1.0"
     inkscape:pageopacity="0.0"
     inkscape:pageshadow="2"
     inkscape:zoom="22.4"
     inkscape:cx="21.607143"
     inkscape:cy="3.4177152"
     inkscape:document-units="mm"
     inkscape:current-layer="text1460"
     showgrid="false"
     units="mm"
     inkscape:window-width="1440"
     inkscape:window-height="855"
     inkscape:window-x="0"
     inkscape:window-y="1"
     inkscape:window-maximized="1"
     inkscape:snap-global="false" />
  <metadata
     id="metadata887">
    <rdf:RDF>
      <cc:Work
         rdf:about="">
        <dc:format>image/svg+xml</dc:format>
        <dc:type
           rdf:resource="http://purl.org/dc/dcmitype/StillImage" />
        <dc:title></dc:title>
      </cc:Work>
    </rdf:RDF>
  </metadata>
  <g
     inkscape:label="Layer 1"
     inkscape:groupmode="layer"
     id="layer1"
     transform="translate(0,-292)">
    <g
       aria-label="rst"
       style="font-style:normal;font-weight:normal;font-size:6.29599571px;line-height:1.25;font-family:sans-serif;letter-spacing:0px;word-spacing:0px;fill:#000000;fill-opacity:1;stroke:none;stroke-width:0.15739989"
       id="text1460">
      <path
         sodipodi:nodetypes="ccccc"
         inkscape:connector-curvature="0"
         id="path2434"
         d="m 0.95659426,292.68898 -0.0111558,3.91358 8.14423548,0.19878 -0.034522,-4.03983 z"
         style="fill:#848484;fill-opacity:1;stroke:#000000;stroke-width:0.25272471;stroke-linecap:butt;stroke-linejoin:miter;stroke-miterlimit:4;stroke-dasharray:none;stroke-opacity:1" />
      <path
         style="fill:#dedede;fill-opacity:1;stroke:#000000;stroke-width:0.03266888;stroke-opacity:1"
         d="m 1.6845928,293.59372 7.2968297,0.2008 -0.011812,2.89105 -7.285018,-0.18899 z"
         id="rect2390"
         inkscape:connector-curvature="0"
         sodipodi:nodetypes="ccccc" />
      <path
         style="fill:#adadad;fill-opacity:1;stroke:#000000;stroke-width:0.13618915;stroke-linecap:butt;stroke-linejoin:miter;stroke-miterlimit:4;stroke-dasharray:none;stroke-opacity:1"
         d="m 0.90968224,292.76446 0.73334076,0.86093 0.011269,2.93259 -0.70917519,-0.02 z"
         id="path2394"
         inkscape:connector-curvature="0"
         sodipodi:nodetypes="ccccc" />
      <path
         style="fill:#848484;fill-opacity:1;stroke:#000000;stroke-width:0.1530488;stroke-linecap:butt;stroke-linejoin:miter;stroke-miterlimit:4;stroke-dasharray:none;stroke-opacity:1"
         d="m 1.0451761,292.78158 0.6137626,0.78031 7.388625,0.179 -0.030176,-1.00553 z"
         id="path2396"
         inkscape:connector-curvature="0"
         sodipodi:nodetypes="ccccc" />
      <path
         d="m 3.932639,294.47602 q -0.078403,-0.0382 -0.1701734,-0.0574 -0.089452,-0.021 -0.1972956,-0.0253 -0.3823651,-0.015 -0.5745297,0.17642 -0.1898484,0.18952 -0.1642838,0.56104 l 0.079384,1.15365 -0.4534483,-0.0178 -0.1506973,-2.18997 0.4534485,0.0178 0.023412,0.34022 q 0.1284376,-0.19387 0.3497929,-0.28077 0.2212206,-0.0888 0.5472118,-0.0761 0.046582,0.002 0.1033369,0.01 0.056599,0.006 0.1259487,0.0185 z"
         style="fill:#000000;fill-opacity:1;stroke-width:0.11193644"
         id="path1462"
         inkscape:connector-curvature="0" />
      <path
         d="m 6.299147,294.20189 0.029365,0.35399 q -0.1971891,-0.0814 -0.4056519,-0.12206 -0.2084634,-0.0407 -0.4282002,-0.0407 -0.3344884,0 -0.4958652,0.0855 -0.1589347,0.0855 -0.1447589,0.25634 0.010803,0.1302 0.1366798,0.20548 0.12571,0.0732 0.4926246,0.14037 l 0.1561771,0.0285 q 0.4856255,0.0855 0.6988256,0.2421 0.2154722,0.15461 0.238593,0.43333 0.026326,0.31737 -0.2610638,0.5025 -0.2849496,0.18514 -0.812318,0.18514 -0.2197369,0 -0.4620435,-0.0366 -0.2396959,-0.0346 -0.5092877,-0.1058 l -0.032066,-0.38655 q 0.2579795,0.10783 0.5042468,0.16276 0.2460951,0.0528 0.4829226,0.0528 0.3173978,0 0.4808791,-0.0895 0.1633116,-0.0915 0.149642,-0.25633 -0.012657,-0.15259 -0.1439258,-0.23397 -0.1288266,-0.0814 -0.5525707,-0.15664 l -0.1587877,-0.0304 q -0.4235755,-0.0732 -0.6216196,-0.22378 -0.1982132,-0.1526 -0.2201528,-0.41707 -0.026664,-0.32144 0.2322722,-0.4964 0.2589365,-0.17496 0.7618896,-0.17496 0.2490352,0 0.4713024,0.0304 0.2222672,0.0305 0.4128867,0.0916 z"
         style="fill:#000000;fill-opacity:1;stroke-width:0.11410964"
         id="path1464"
         inkscape:connector-curvature="0" />
      <path
         d="m 7.3515732,293.89157 0.1076284,0.62337 1.0440529,0.0211 0.048399,0.28032 -1.0440529,-0.0211 0.2057783,1.19185 q 0.046369,0.26856 0.1614946,0.34708 0.1178803,0.0785 0.4346769,0.085 l 0.5206447,0.0106 0.052121,0.30189 -0.5206446,-0.0106 q -0.5867649,-0.0119 -0.8366336,-0.17126 -0.2502117,-0.16134 -0.3212877,-0.573 l -0.2057799,-1.19186 -0.37189,-0.007 -0.048399,-0.28033 0.3718901,0.007 -0.1076284,-0.62337 z"
         style="fill:#000000;fill-opacity:1;stroke-width:0.11877116"
         id="path1466"
         inkscape:connector-curvature="0" />
    </g>
  </g>
</svg>
