<?xml version="1.0" encoding="UTF-8" standalone="no"?>
<!-- Created with Inkscape (http://www.inkscape.org/) -->

<svg
   width="10mm"
   height="5mm"
   viewBox="0 0 10 5"
   version="1.1"
   id="svg890"
   inkscape:version="1.3.2 (091e20e, 2023-11-25)"
   sodipodi:docname="computerscare-clk-btn-pressed.svg"
   xmlns:inkscape="http://www.inkscape.org/namespaces/inkscape"
   xmlns:sodipodi="http://sodipodi.sourceforge.net/DTD/sodipodi-0.dtd"
   xmlns="http://www.w3.org/2000/svg"
   xmlns:svg="http://www.w3.org/2000/svg"
   xmlns:rdf="http://www.w3.org/1999/02/22-rdf-syntax-ns#"
   xmlns:cc="http://creativecommons.org/ns#"
   xmlns:dc="http://purl.org/dc/elements/1.1/">
  <defs
     id="defs884" />
  <sodipodi:namedview
     id="base"
     pagecolor="#ffffff"
     bordercolor="#666666"
     borderopacity="1.0"
     inkscape:pageopacity="0.0"
     inkscape:pageshadow="2"
     inkscape:zoom="31.678384"
     inkscape:cx="18.814091"
     inkscape:cy="11.885076"
     inkscape:document-units="mm"
     inkscape:current-layer="text1460"
     showgrid="false"
     units="mm"
     inkscape:window-width="1728"
     inkscape:window-height="1056"
     inkscape:window-x="0"
     inkscape:window-y="33"
     inkscape:window-maximized="0"
     inkscape:snap-global="false"
     inkscape:showpageshadow="2"
     inkscape:pagecheckerboard="0"
     inkscape:deskcolor="#d1d1d1" />
  <metadata
     id="metadata887">
    <rdf:RDF>
      <cc:Work
         rdf:about="">
        <dc:format>image/svg+xml</dc:format>
        <dc:type
           rdf:resource="http://purl.org/dc/dcmitype/StillImage" />
        <dc:title />
      </cc:Work>
    </rdf:RDF>
  </metadata>
  <g
     inkscape:label="Layer 1"
     inkscape:groupmode="layer"
     id="layer1"
     transform="translate(0,-292)">
    <g
       aria-label="rst"
       style="font-style:normal;font-weight:normal;font-size:6.29599571px;line-height:1.25;font-family:sans-serif;letter-spacing:0px;word-spacing:0px;fill:#000000;fill-opacity:1;stroke:none;stroke-width:0.15739989"
       id="text1460">
      <path
         style="fill:#c3c3c3;fill-opacity:1;stroke:#000000;stroke-width:0.03266888;stroke-opacity:1"
         d="m 1.6845928,293.59372 7.2968297,0.2008 -0.011812,2.89105 -7.285018,-0.18899 z"
         id="rect2390"
         inkscape:connector-curvature="0"
         sodipodi:nodetypes="ccccc" />
      <g
         id="g2"
         style="font-style:normal;font-weight:normal;font-size:6.296px;line-height:1.25;font-family:sans-serif;letter-spacing:0px;word-spacing:0px;display:inline;fill:#000000;fill-opacity:1;stroke:none;stroke-width:0.1574"
         transform="matrix(1,0.09045118,0,1,1.675561,1.0817368)">
        <path
           d="m 2.9973436,292.84516 0.4709155,0.0405 0.7575114,2.30004 -0.5924918,0.0933 z"
           style="font-style:normal;font-weight:normal;font-size:5.05844px;line-height:1.25;font-family:sans-serif;letter-spacing:0px;word-spacing:0px;fill:#000000;fill-opacity:1;stroke:none;stroke-width:0.019497"
           id="path1592"
           inkscape:connector-curvature="0"
           sodipodi:nodetypes="ccccc" />
        <path
           d="m 5.716311,292.28336 0.4651181,-0.008 -0.651561,1.84524 1.8253577,-1.28644 0.087338,0.45075 -1.4471657,0.98538 1.169195,0.7779 -0.8478562,0.0756 -0.7798113,-0.7161 -0.3250537,0.66252 -0.4400617,0.0224 z"
           style="font-style:normal;font-weight:normal;font-size:5.05844px;line-height:1.25;font-family:sans-serif;letter-spacing:0px;word-spacing:0px;fill:#212121;fill-opacity:1;stroke:none;stroke-width:0.0180488"
           id="path1594"
           inkscape:connector-curvature="0"
           sodipodi:nodetypes="cccccccccccc" />
        <path
           d="m 2.5100288,292.63964 0.051189,0.46466 c -0.1356726,-0.0312 -0.2925179,-0.0793 -0.4273419,-0.0735 -0.1332623,0.003 -0.2669398,0.0262 -0.4010326,0.0677 -0.3000075,0.0919 -0.505104,0.24348 -0.6579915,0.48444 -0.15297828,0.23916 -0.30325898,0.57753 -0.27974528,0.91851 0.023513,0.34097 0.07145,0.59489 0.25046558,0.73333 0.1789006,0.13679 0.5358908,0.1119 0.8359228,0.0194 0.1340827,-0.0421 0.2652932,-0.0998 0.3936313,-0.17407 0.1298925,-0.0774 0.232687,-0.27679 0.3584965,-0.38863 l 0.1211219,0.66226 c -0.1249322,0.0996 -0.2392237,-0.0469 -0.376283,0.0261 -0.1353847,0.0722 -0.3561884,0.0472 -0.5120721,0.0953 -0.4574777,4.4e-4 -0.8285602,0.1161 -1.09654332,-0.0713 -0.26798429,-0.18743 -0.36734759,-0.33484 -0.39831597,-0.78393 -0.0314277,-0.45576 0.0695662,-0.85297 0.30298166,-1.19167 0.23509185,-0.33919 0.57221433,-0.57652 1.01136763,-0.71199 0.1424753,-0.0444 0.2826286,-0.0725 0.4204597,-0.0837 0.1377221,-0.0134 0.2889866,-0.22925 0.4203849,-0.21037 z"
           style="font-style:normal;font-weight:normal;font-size:5.05844px;line-height:1.25;font-family:sans-serif;letter-spacing:0px;word-spacing:0px;fill:#000000;fill-opacity:1;stroke:none;stroke-width:0.0203975"
           id="path1590"
           inkscape:connector-curvature="0"
           sodipodi:nodetypes="ccccccccccccccsccccc" />
      </g>
      <path
         sodipodi:nodetypes="ccccc"
         inkscape:connector-curvature="0"
         id="path2434"
         d="m 0.95659426,292.68898 -0.0111558,3.91358 8.14423544,0.19878 -0.034522,-4.03983 z"
         style="font-style:normal;font-weight:normal;font-size:6.29599571px;line-height:1.25;font-family:sans-serif;letter-spacing:0px;word-spacing:0px;fill:none;fill-opacity:1;stroke:#000000;stroke-width:0.252725;display:inline;stroke-linecap:butt;stroke-linejoin:miter;stroke-miterlimit:4;stroke-dasharray:none;stroke-opacity:1"
         transform="translate(0,1.25e-5)" />
      <path
         style="fill:#9d9d9d;fill-opacity:1;stroke:#000000;stroke-width:0.13618915;stroke-linecap:butt;stroke-linejoin:miter;stroke-miterlimit:4;stroke-dasharray:none;stroke-opacity:1"
         d="m 0.90968224,292.76446 0.73334076,0.86093 0.011269,2.93259 -0.70917519,-0.02 z"
         id="path2394"
         inkscape:connector-curvature="0"
         sodipodi:nodetypes="ccccc" />
      <path
         style="fill:#848484;fill-opacity:1;stroke:#000000;stroke-width:0.1530488;stroke-linecap:butt;stroke-linejoin:miter;stroke-miterlimit:4;stroke-dasharray:none;stroke-opacity:1"
         d="m 1.0451761,292.78158 0.6137626,0.78031 7.388625,0.179 -0.030176,-1.00553 z"
         id="path2396"
         inkscape:connector-curvature="0"
         sodipodi:nodetypes="ccccc" />
    </g>
  </g>
</svg>
