<?xml version="1.0" encoding="UTF-8" standalone="no"?>
<!-- Created with Inkscape (http://www.inkscape.org/) -->

<svg
   width="10mm"
   height="5mm"
   viewBox="0 0 10 5"
   version="1.1"
   id="svg890"
   inkscape:version="1.3.2 (091e20e, 2023-11-25)"
   sodipodi:docname="computerscare-clk-btn-up.svg"
   xmlns:inkscape="http://www.inkscape.org/namespaces/inkscape"
   xmlns:sodipodi="http://sodipodi.sourceforge.net/DTD/sodipodi-0.dtd"
   xmlns="http://www.w3.org/2000/svg"
   xmlns:svg="http://www.w3.org/2000/svg"
   xmlns:rdf="http://www.w3.org/1999/02/22-rdf-syntax-ns#"
   xmlns:cc="http://creativecommons.org/ns#"
   xmlns:dc="http://purl.org/dc/elements/1.1/">
  <defs
     id="defs884" />
  <sodipodi:namedview
     id="base"
     pagecolor="#ffffff"
     bordercolor="#666666"
     borderopacity="1.0"
     inkscape:pageopacity="0.0"
     inkscape:pageshadow="2"
     inkscape:zoom="31.678384"
     inkscape:cx="12.184965"
     inkscape:cy="12.611123"
     inkscape:document-units="mm"
     inkscape:current-layer="g1"
     showgrid="false"
     units="mm"
     inkscape:window-width="1728"
     inkscape:window-height="1056"
     inkscape:window-x="0"
     inkscape:window-y="33"
     inkscape:window-maximized="0"
     inkscape:snap-global="false"
     inkscape:showpageshadow="2"
     inkscape:pagecheckerboard="0"
     inkscape:deskcolor="#d1d1d1" />
  <metadata
     id="metadata887">
    <rdf:RDF>
      <cc:Work
         rdf:about="">
        <dc:format>image/svg+xml</dc:format>
        <dc:type
           rdf:resource="http://purl.org/dc/dcmitype/StillImage" />
        <dc:title />
      </cc:Work>
    </rdf:RDF>
  </metadata>
  <g
     inkscape:label="Layer 1"
     inkscape:groupmode="layer"
     id="layer1"
     transform="translate(0,-292)">
    <g
       aria-label="rst"
       style="font-style:normal;font-weight:normal;font-size:6.29599571px;line-height:1.25;font-family:sans-serif;letter-spacing:0px;word-spacing:0px;fill:#000000;fill-opacity:1;stroke:none;stroke-width:0.15739989"
       id="text1460">
      <path
         id="rect2390"
         style="fill:#cccccc;stroke:#000000;stroke-width:0.0391602;fill-opacity:1"
         d="m 0.21136901,292.08505 7.79060839,0.0793 -0.00418,3.7029 H 0.21136901 Z"
         sodipodi:nodetypes="ccccc" />
      <path
         style="fill:#adadad;fill-opacity:1;stroke:#000000;stroke-width:0.1;stroke-linecap:butt;stroke-linejoin:round;stroke-miterlimit:4;stroke-dasharray:none;stroke-opacity:1"
         d="m 8.0315775,292.19559 1.1119105,0.48486 0.058516,4.13739 -1.2288925,-1.00035 z"
         id="path2394"
         inkscape:connector-curvature="0"
         sodipodi:nodetypes="ccccc" />
      <path
         style="fill:#979797;fill-opacity:1;stroke:#000000;stroke-width:0.153049;stroke-linecap:butt;stroke-linejoin:round;stroke-miterlimit:4;stroke-dasharray:none;stroke-opacity:1"
         d="m 0.27597898,295.88319 0.63881914,0.79701 8.24480348,0.1574 -1.2052722,-0.98393 z"
         id="path2396"
         inkscape:connector-curvature="0"
         sodipodi:nodetypes="ccccc" />
      <g
         id="g1">
        <path
           d="m 2.7999625,292.53586 0.051189,0.46929 c -0.1356726,-0.0435 -0.2925179,-0.1058 -0.4273419,-0.11215 -0.1332623,-0.009 -0.2669398,0.002 -0.4010326,0.0314 -0.3000075,0.0648 -0.505104,0.1978 -0.6579915,0.42493 -0.1529783,0.22532 -0.303259,0.5501 -0.2797453,0.89321 0.023513,0.34309 0.07145,0.60135 0.2504656,0.75598 0.1789006,0.15297 0.5358908,0.16037 0.8359228,0.095 0.1340827,-0.03 0.2652932,-0.0758 0.3936313,-0.13847 0.1298925,-0.0657 0.232687,-0.25574 0.3584965,-0.3562 l 0.1211219,0.67322 c -0.1249322,0.0883 -0.3227454,0.0233 -0.4598047,0.0839 -0.1353847,0.06 -0.2810189,0.10689 -0.4369026,0.14086 -0.424069,0.0927 -0.770095,0.0328 -1.0380781,-0.17883 -0.26798429,-0.21167 -0.41746063,-0.54346 -0.44842901,-0.99535 -0.0314277,-0.4586 0.0695662,-0.84668 0.30298166,-1.16426 0.23509185,-0.31793 0.57221435,-0.52477 1.01136765,-0.62051 0.1424753,-0.0315 0.2826286,-0.0469 0.4204597,-0.0457 0.1377221,-0.001 0.2889866,-0.20311 0.4203849,-0.17235 z"
           style="font-style:normal;font-weight:normal;font-size:5.05844px;line-height:1.25;font-family:sans-serif;letter-spacing:0px;word-spacing:0px;fill:#000000;fill-opacity:1;stroke:none;stroke-width:0.0203975"
           id="path1590"
           inkscape:connector-curvature="0"
           sodipodi:nodetypes="ccccccccccccccsccccc" />
        <path
           d="m 2.9973436,292.84516 0.4709155,0.0405 0.7575114,2.30004 -0.600844,0.21938 z"
           style="font-style:normal;font-weight:normal;font-size:5.05844px;line-height:1.25;font-family:sans-serif;letter-spacing:0px;word-spacing:0px;fill:#000000;fill-opacity:1;stroke:none;stroke-width:0.019497"
           id="path1592"
           inkscape:connector-curvature="0"
           sodipodi:nodetypes="ccccc" />
        <path
           d="m 5.716311,292.28336 0.4651181,-0.008 -0.651561,1.84524 1.9589925,-1.29018 0.354608,0.28459 -1.84807,1.15528 1.3529428,0.87821 -0.839504,0.22514 -0.9719113,-0.96599 -0.4586885,0.99199 -0.4651182,0.008 z"
           style="font-style:normal;font-weight:normal;font-size:5.05844px;line-height:1.25;font-family:sans-serif;letter-spacing:0px;word-spacing:0px;fill:#212121;fill-opacity:1;stroke:none;stroke-width:0.0180488"
           id="path1594"
           inkscape:connector-curvature="0"
           sodipodi:nodetypes="cccccccccccc" />
      </g>
    </g>
  </g>
</svg>
