<?xml version="1.0" encoding="UTF-8" standalone="no"?>
<!-- Created with Inkscape (http://www.inkscape.org/) -->

<svg
   xmlns:dc="http://purl.org/dc/elements/1.1/"
   xmlns:cc="http://creativecommons.org/ns#"
   xmlns:rdf="http://www.w3.org/1999/02/22-rdf-syntax-ns#"
   xmlns:svg="http://www.w3.org/2000/svg"
   xmlns="http://www.w3.org/2000/svg"
   xmlns:sodipodi="http://sodipodi.sourceforge.net/DTD/sodipodi-0.dtd"
   xmlns:inkscape="http://www.inkscape.org/namespaces/inkscape"
   width="10mm"
   height="10mm"
   viewBox="0 0 10 10"
   version="1.1"
   id="svg837"
   inkscape:version="0.92.2 5c3e80d, 2017-08-06"
   sodipodi:docname="iso-3way-3.svg">
  <defs
     id="defs831">
    <inkscape:perspective
       sodipodi:type="inkscape:persp3d"
       inkscape:vp_x="-15.502741 : -0.68761461 : 1"
       inkscape:vp_y="0 : 1935.9757 : 0"
       inkscape:vp_z="25.090656 : 9.2983744 : 1"
       inkscape:persp3d-origin="19.059341 : -5.6235546 : 1"
       id="perspective1382" />
  </defs>
  <sodipodi:namedview
     id="base"
     pagecolor="#ffffff"
     bordercolor="#666666"
     borderopacity="1.0"
     inkscape:pageopacity="0.0"
     inkscape:pageshadow="2"
     inkscape:zoom="15.839192"
     inkscape:cx="12.557272"
     inkscape:cy="24.060133"
     inkscape:document-units="mm"
     inkscape:current-layer="layer1"
     showgrid="false"
     inkscape:window-width="1440"
     inkscape:window-height="855"
     inkscape:window-x="0"
     inkscape:window-y="1"
     inkscape:window-maximized="1"
     inkscape:snap-global="false" />
  <metadata
     id="metadata834">
    <rdf:RDF>
      <cc:Work
         rdf:about="">
        <dc:format>image/svg+xml</dc:format>
        <dc:type
           rdf:resource="http://purl.org/dc/dcmitype/StillImage" />
        <dc:title></dc:title>
      </cc:Work>
    </rdf:RDF>
  </metadata>
  <g
     inkscape:label="Layer 1"
     inkscape:groupmode="layer"
     id="layer1"
     transform="translate(0,-287)">
    <path
       style="fill:none;stroke:#000000;stroke-width:0.4250713px;stroke-linecap:butt;stroke-linejoin:miter;stroke-opacity:1"
       d="m 0.80159682,287.69162 c -0.0763161,0 -0.15263226,0 -0.22894836,0 -0.003966,0 -0.0485344,-10e-4 -0.0490603,0 -0.003854,0.0106 0.002438,0.0308 0,0.044 -0.003448,0.0185 -0.0109024,0.0293 -0.0163536,0.044 0,0.0293 0.003448,0.0601 0,0.0881 -0.0124493,0.10044 -0.0327069,-0.0272 -0.0327069,0.13208 0,0.033 0.0218045,0.0588 0.0163536,0.0881 -0.004875,0.0264 -0.0278312,-0.0264 -0.0327069,0 -0.005451,0.0293 0.0163536,0.0554 0.0163536,0.0881 0,0.0416 -0.0327069,0.0467 -0.0327069,0.088 0,0.0211 0.0163536,0.0237 0.0163536,0.044 0,0.033 -0.0124987,0.057 -0.0163536,0.0881 -0.003448,0.028 0,0.0588 0,0.0881 0,0.10282 0,0.20538 0,0.30828 0,0.0881 0,0.17611 0,0.26425 0,0.0293 0,0.0588 0,0.0881 0,0.0293 -0.003448,0.0604 0,0.0881 0.002438,0.0185 0.0109024,0.0293 0.0163536,0.044 0.0163536,0.044 0.0371615,0.0788 0.0490604,0.13209 0.00561,0.0264 0,0.0588 0,0.0881 0.0109024,0.044 0.0188091,0.0947 0.0327069,0.13209 0.008619,0.0237 0.0233428,0.0237 0.0327069,0.044 0.0236892,0.0532 0.0392646,0.13208 0.0654138,0.17611 0.0190594,0.0322 0.0467129,0.0106 0.0654138,0.044 0.0163533,0.0293 0.0160399,0.10414 0.0327069,0.13209 0.0292357,0.0493 0.0672844,0.0467 0.0981207,0.0881 0.0243782,0.033 0.0410355,0.0994 0.0654138,0.13209 0.020103,0.0272 0.0440915,0.0237 0.0654138,0.044 0.0278489,0.0237 0.054281,0.0604 0.0817673,0.0881 0.01614,0.0158 0.034093,0.0211 0.04906,0.044 0.023664,0.0364 0.039207,0.11205 0.065413,0.13209 0.016574,0.0132 0.032057,-0.0517 0.04906,-0.044 0.019387,0.008 0.031481,0.0643 0.04906,0.0881 0.015418,0.0211 0.033642,0.0237 0.04906,0.044 0.00689,0.0105 0.00864,0.044 0.016353,0.044 0.017238,0 0.031822,-0.044 0.04906,-0.044 0.00545,0 -0.00488,0.0374 0,0.044 0.00472,0.005 0.087669,0 0.098121,0 0.00545,0 -0.012499,0.0105 -0.016353,0 -0.00386,-0.0105 -0.00386,-0.0337 0,-0.044 0.00862,-0.0237 0.024088,-0.0211 0.032707,-0.044 0.00386,-0.0105 -0.012499,0.0105 -0.016353,0 -0.00386,-0.0105 0,-0.0293 0,-0.044 0,-0.0158 0,-0.0293 0,-0.044 0,-0.0158 -0.00545,-0.044 0,-0.044 0.00545,0 0.00545,0.044 0,0.044 -0.00545,0 0,-0.0293 0,-0.044 0,-0.0158 0,-0.0293 0,-0.044"
       id="path913"
       inkscape:connector-curvature="0" />
    <path
       style="fill:none;stroke:#000000;stroke-width:0.4250713px;stroke-linecap:butt;stroke-linejoin:miter;stroke-opacity:1"
       d="m 1.5865626,287.91184 c 0.00545,0.0881 0.00404,0.18139 0.016354,0.26423 0.010123,0.0683 0.037991,0.10915 0.04906,0.17611 0.011289,0.0683 0.00904,0.14791 0.016354,0.22015 0.00908,0.0896 0.021804,0.17611 0.032707,0.26425 0.062527,0.50514 2.129e-4,0.0132 0.081768,0.61656 0.01945,0.14395 0.028631,0.29733 0.04906,0.44039 0.013127,0.092 0.036761,0.17137 0.04906,0.26425 0.015119,0.11389 0.019487,0.23649 0.032707,0.35231 0.00863,0.0757 0.019579,0.14948 0.032707,0.22014 0.014215,0.0765 0.040329,0.13789 0.04906,0.22014 0.00335,0.0316 -0.02088,0.0575 -0.016353,0.0881 0.00859,0.0577 0.03995,0.0749 0.04906,0.13209 0.00859,0.054 0,0.11732 0,0.17611 0,0.10335 -0.00386,-0.0211 0.016354,0.0881 0.00244,0.0132 0,0.0293 0,0.044 0.010902,0.0293 0.021804,0.0588 0.032707,0.0881 0.00545,0.0158 -0.012906,-0.0264 -0.016353,-0.044 -0.00244,-0.0132 0,-0.0293 0,-0.044 0,-0.0881 0,-0.17612 0,-0.26425 0,-0.0588 0,-0.11733 0,-0.17612 0,-0.0293 0.00154,-0.0591 0,-0.0881 -0.00394,-0.0741 -0.013837,-0.14579 -0.016353,-0.22014 -0.00296,-0.0878 0,-0.17611 0,-0.26422 0,-0.0881 0,-0.17612 0,-0.26425 0,-0.0185 -0.00221,-0.25231 0,-0.26423 0.012523,-0.0675 0.029142,-0.0345 0.04906,-0.0881 0.00977,-0.0264 -0.017676,-0.0881 0.016353,-0.0881 0.0077,0 0.00864,0.044 0.016353,0.044 0.021586,0 0.011121,-0.0881 0.032707,-0.0881 0.046803,0 -0.010161,0.0825 0.032707,0.044 0.011564,-0.0106 0.020882,-0.0361 0.032707,-0.044 0.010577,-0.008 0.021804,0 0.032707,0 0.010902,0 0.022584,-0.0106 0.032707,0 0.2164945,0.23306 0.00221,-0.0367 0.065414,0.17611 0.017027,0.0572 0.046141,0.0802 0.065413,0.13209 0.00862,0.0237 0.010083,0.0598 0.016353,0.0881 0.010112,0.0453 0.021804,0.0881 0.032707,0.13208 0.010902,0.0588 0.020612,0.11917 0.032707,0.17612 0.00975,0.0459 0.020914,0.0896 0.032707,0.13208 0.00462,0.0158 0.01349,0.0237 0.016353,0.044 0.00835,0.0562 0.00801,0.11996 0.016353,0.17611 0.00286,0.0185 0.010902,0.0293 0.016353,0.044 0.00545,0.0293 0.012499,0.057 0.016353,0.0881 0.00172,0.0132 -0.00386,0.0337 0,0.044 0.00862,0.0237 0.027255,0.0158 0.032707,0.044 0.00345,0.0184 -0.016354,0.0237 -0.016354,0.044 0,0.033 0.00773,0.0649 0.016354,0.0881 0.00386,0.0106 0,-0.0588 0,-0.044 0,0.0833 0,0.12735 0,0.044"
       id="path915"
       inkscape:connector-curvature="0" />
    <path
       style="fill:none;stroke:#000000;stroke-width:0.4250713px;stroke-linecap:butt;stroke-linejoin:miter;stroke-opacity:1"
       d="m 3.6798047,288.13204 c 0,0.24967 0,0.49911 0,0.74867 0,0.11759 -0.0029,0.23517 0,0.35234 0.00257,0.10361 0.016352,0.20458 0.016352,0.30827 0,0.13288 -0.016352,0.26339 -0.016352,0.39637 0,0.0464 0.013519,0.0862 0.016352,0.13208 0.00812,0.13104 0.010586,0.26433 0.016352,0.39637 0.023162,0.53019 0.0071,0.1682 0.032707,0.61656 0.00586,0.10255 0.00769,0.20722 0.016355,0.30828 0.090339,0.72984 -0.00604,-0.14158 0.032707,0.48444 0.00127,0.0211 0.014484,0.0237 0.016352,0.044 0.00661,0.0712 -0.00661,0.14896 0,0.22014 0.00296,0.0319 0.012498,0.057 0.016355,0.0881 0.00345,0.028 0,0.0588 0,0.0881"
       id="path917"
       inkscape:connector-curvature="0" />
    <path
       style="fill:none;stroke:#000000;stroke-width:0.4250713px;stroke-linecap:butt;stroke-linejoin:miter;stroke-opacity:1"
       d="m 3.401796,292.31584 c 0.070864,0 0.14173,0 0.212595,0 0.016352,0 0.032707,0 0.04906,0 0.016355,0 0.032929,0.008 0.04906,0 0.017002,-0.008 0.032157,-0.0351 0.04906,-0.044 0.01069,-0.005 0.021805,0 0.032707,0 0.043609,0 0.087219,0 0.1308276,0 0.021805,0 0.043609,0 0.065414,0 0.00545,0 0.016355,-0.0158 0.016355,0 0,0.0158 -0.021805,0 -0.016355,0 0.010902,0 0.021805,0 0.032707,0 0.00545,0 -0.016352,0.0158 -0.016352,0 0,-0.0293 0.024999,0.0211 0.032707,0 0.00386,-0.0105 -0.00386,-0.0337 0,-0.044 0.00386,-0.0105 0.021743,-0.002 0.016352,0 -0.076195,0.0316 -0.1526323,0.0585 -0.2289485,0.0881"
       id="path919"
       inkscape:connector-curvature="0" />
    <path
       style="fill:none;stroke:#000000;stroke-width:0.4250713px;stroke-linecap:butt;stroke-linejoin:miter;stroke-opacity:1"
       d="m 3.6798047,288.13204 c 0.016352,0.0588 0.044579,0.10361 0.04906,0.17611 0.0042,0.068 -0.054909,0.10388 -0.065414,0.13209 -0.013897,0.0374 -0.02043,0.0907 -0.032707,0.13209 -0.00963,0.0324 -0.021805,0.0588 -0.032707,0.088 -0.032707,0.0881 -0.065414,0.17612 -0.098121,0.26425 -0.00545,0.0158 -0.010902,0.0293 -0.016352,0.044 -0.00545,0.0158 -0.012907,0.0264 -0.016355,0.044 -0.00244,0.0132 0.00386,0.0337 0,0.044 -0.00386,0.0106 -0.012498,-0.0105 -0.016352,0 -0.00386,0.0106 0.00545,0.044 0,0.044 -0.012189,0 -0.020518,-0.044 -0.032707,-0.044 -0.0077,0 0.0198,0.0264 0.016355,0.044 -0.00545,0.0293 -0.020518,0.044 -0.032707,0.044 -0.0077,0 0.024064,-0.044 0.016352,-0.044 -0.01219,0 -0.027255,0.0158 -0.032707,0.044 -0.00345,0.0184 0.00864,0.044 0.016352,0.044 0.00545,0 0.00545,-0.044 0,-0.044 -0.012189,0 -0.024087,0.0211 -0.032707,0.044 -0.00386,0.0105 0.021805,0 0.016352,0 -0.010902,0 -0.022954,-0.0132 -0.032707,0 -0.00488,0.005 0.00545,0.044 0,0.044 -0.0077,0 -0.010902,-0.0588 -0.016352,-0.044 -0.0077,0.0211 0.0077,0.0672 0,0.0881 -0.00545,0.0158 -0.00864,-0.044 -0.016355,-0.044 -0.00545,0 0.00244,0.0309 0,0.044 -0.031639,0.17032 -0.00106,-0.12628 -0.032707,0.044 -0.00244,0.0132 0.00545,0.044 0,0.044 -0.00545,0 0,-0.0293 0,-0.044"
       id="path921"
       inkscape:connector-curvature="0" />
    <path
       style="fill:none;stroke:#000000;stroke-width:0.372;stroke-linecap:butt;stroke-linejoin:miter;stroke-opacity:1;stroke-miterlimit:4;stroke-dasharray:none"
       d="m 5.9067434,289.5764 c 0,0.0758 0,0.15193 0,0.22776 0,0.10638 0,0.21248 0,0.31894 0,0.0758 -0.011556,0.15411 0,0.22776 0.00834,0.0532 0.038121,0.0911 0.057181,0.13665 0.01906,0.10638 0.045775,0.21002 0.057181,0.31893 0.00783,0.075 0,0.15193 0,0.22777 0,0.0303 -0.00708,0.063 0,0.0912 0.012763,0.0507 0.052323,0.0824 0.057181,0.13664 0.00556,0.0619 -0.02213,0.12056 -0.028588,0.18221 -0.016277,0.15547 -0.00199,0.0393 0.028588,0.13665 0.00427,0.0137 0.00953,0.0455 0,0.0455 -0.00953,0 0,-0.0303 0,-0.0455"
       id="path923"
       inkscape:connector-curvature="0" />
    <path
       style="fill:none;stroke:#000000;stroke-width:0.372;stroke-linecap:butt;stroke-linejoin:miter;stroke-opacity:1;stroke-miterlimit:4;stroke-dasharray:none"
       d="m 5.649429,287.70831 c 0,0.25831 0,0.51639 0,0.77456 0,0.0163 0,-0.0608 0,-0.0455 0,0.0303 0,0.0608 0,0.0912 0,0.0163 -0.00675,-0.0349 0,-0.0455 0.00675,-0.011 0.01906,0 0.028588,0 0.01906,0 0.038121,0 0.057181,0 0.00953,0 -0.032854,0.0136 -0.028588,0 0.012046,-0.0385 0.038121,-0.0608 0.057181,-0.0911 0.00953,-0.0164 -0.015105,0.0455 -0.028593,0.0455 -0.00953,0 -0.00675,-0.0349 0,-0.0455 0.013462,-0.0218 0.057181,0.0303 0.057181,0 0,-0.0218 -0.028588,-0.0245 -0.028588,-0.0455 0,-0.0163 0.02185,0.011 0.028588,0 0.064592,-0.10284 -0.1529573,0 0.057181,0 0.013462,0 -0.022562,-0.0273 -0.028588,-0.0455 -0.00435,-0.0137 0,-0.1162 0,-0.13665 0,-0.0163 -0.00953,-0.0455 0,-0.0455 0.00953,0 0,0.0608 0,0.0455 0,-0.0608 0,-0.12139 0,-0.18221 0,-0.0163 0,-0.0303 0,-0.0455 0,-0.0164 -0.00953,-0.0455 0,-0.0455 0.00953,0 0.00675,0.0562 0,0.0455 -0.01507,-0.0245 -0.013514,-0.0672 -0.028588,-0.0912 -0.00675,-0.011 0.00675,0.0562 0,0.0455 -0.01507,-0.0245 -0.028588,-0.0573 -0.028588,-0.0912 0,-0.0218 0.015105,0.0455 0.028588,0.0455 0.00953,0 0.00675,-0.0349 0,-0.0455 -0.00675,-0.0109 -0.01974,0.005 -0.028588,0 -0.039569,-0.0245 -0.1334237,-0.0303 -0.1143639,-0.0911 0.01906,-0.0608 0.076241,0.0608 0,0 z"
       id="path925"
       inkscape:connector-curvature="0" />
    <path
       style="fill:none;stroke:#000000;stroke-width:0.372;stroke-linecap:butt;stroke-linejoin:miter;stroke-opacity:1;stroke-miterlimit:4;stroke-dasharray:none"
       d="m 6.5357338,289.66753 c 0,0.13665 0,0.27336 0,0.41007 0,0.13038 0.00631,0.0957 0.028588,0.27336 0.00185,0.0137 -0.00427,0.032 0,0.0455 0.015367,0.0491 0.050443,0.083 0.057181,0.13666 0.00416,0.0333 -0.038121,0.0608 -0.028593,0.0911 0.00853,0.0273 0.043705,-0.0218 0.057181,0 0.00953,0.0163 -0.028588,0.0245 -0.028588,0.0455 0,0.0218 0.016539,0.036 0.028588,0.0455 0.00853,0.005 0.028588,-0.0163 0.028588,0 0,0.0218 -0.015105,0.0455 -0.028588,0.0455 -0.00953,0 0,-0.0303 0,-0.0455 0,-0.0303 0,-0.0608 0,-0.0911 0,-0.19748 0,-0.39488 0,-0.59233 0,-0.12165 0,-0.24303 0,-0.36452 0,-0.0608 -0.012046,-0.12465 0,-0.1822 0.00853,-0.0407 0.047171,-0.0513 0.057181,-0.0912 0.010612,-0.0423 -0.015874,-0.0987 0,-0.13666 0.010577,-0.0245 0.046608,0.0245 0.057181,0 0.015874,-0.0379 -0.014703,-0.0977 0,-0.13665 0.017679,-0.0469 0.066711,-0.0455 0.085771,-0.0911 0.00748,-0.019 -0.038121,-0.0303 -0.028588,-0.0455 0.02131,-0.034 0.060695,-0.019 0.085771,-0.0455 0.00792,-0.008 0,-0.0303 0,-0.0455 0,-0.10965 -0.00904,0 0.085771,0 0.00953,0 -0.00904,-0.0407 0,-0.0455 0.027125,-0.0137 0.057181,0 0.085771,0 0.00953,0 -0.038121,0 -0.028588,0 0.01906,0 0.038121,0 0.057181,0 0.00953,0 0.02185,-0.011 0.028588,0 0.00675,0.0109 -0.00572,0.0333 0,0.0455 0.024259,0.0515 0.061512,0.085 0.085771,0.13665 0.00572,0.011 -0.00231,0.0308 0,0.0455 0.00731,0.0467 0.015105,0.0938 0.028588,0.13666 0.049672,0.15847 0.140069,0.28009 0.1715433,0.45564 0.00785,0.0439 -0.00904,0.0935 0,0.13666 0.020215,0.0965 0.063325,0.17784 0.085771,0.27339 0.0067,0.0283 -0.00853,0.0638 0,0.0911 0.012046,0.0385 0.04717,0.0513 0.057181,0.0912 0.010612,0.0423 -0.00561,0.0919 0,0.13666 0.00416,0.0333 0.023422,0.0581 0.028588,0.0911 0.00462,0.0295 -0.00462,0.0617 0,0.0911 0.02856,0.1822 0.02881,7.1e-4 0.085771,0.1822 0.00427,0.0137 -0.024327,-0.0136 -0.028588,0 -0.00853,0.0273 0,0.0608 0,0.0912 0,0.0163 0,-0.0303 0,-0.0455 0,-0.0455 0,-0.0912 0,-0.13666"
       id="path927"
       inkscape:connector-curvature="0" />
    <path
       style="fill:none;stroke:#000000;stroke-width:0.372;stroke-linecap:butt;stroke-linejoin:miter;stroke-opacity:1;stroke-miterlimit:4;stroke-dasharray:none"
       d="m 8.622838,287.52605 c 0,0.12165 -0.00797,0.24357 0,0.36451 0.011154,0.16885 0.051272,0.33166 0.057181,0.50118 0.038121,1.09353 -0.1419938,-0.67121 -0.028593,0.77459 0.00748,0.0952 0.049705,0.17811 0.057181,0.27337 0.011818,0.15083 0,0.30377 0,0.45564 0,0.34931 0,0.69863 0,1.04796 0,0.1822 0,0.36448 0,0.54675 0,0.0163 0,-0.0608 0,-0.0455 0,0.0455 0,0.0911 0,0.13666 0,0.0163 -0.00675,0.0349 0,0.0455 0.017081,0.0273 0.057181,-0.0494 0.057181,0.0455 0,0.0218 -0.022565,0.0273 -0.028593,0.0455 -0.01292,0.0412 0.024626,0.11784 0.028593,0.13666 0.00537,0.0245 0,0.10664 0,0.13665"
       id="path929"
       inkscape:connector-curvature="0" />
    <path
       style="fill:none;stroke:#000000;stroke-width:0.372;stroke-linecap:butt;stroke-linejoin:miter;stroke-opacity:1;stroke-miterlimit:4;stroke-dasharray:none"
       d="m 8.1082095,289.75863 c 0.038121,0 0.076241,0 0.1143604,0 0.00953,0 -0.038121,0 -0.028588,0 0.1874265,0 -0.1016539,0 0.085771,0 0.00953,0 -0.038121,0 -0.028588,0 0.038121,0 0.076241,0 0.1143622,0 0.00953,0 0.019347,-0.003 0.028588,0 0.029235,0.0109 0.05622,0.0363 0.085771,0.0455 0.018689,0.005 0.038691,-0.008 0.057181,0 0.020672,0.008 0.036509,0.0374 0.057181,0.0455 0.01849,0.008 0.038121,0 0.057181,0 0.066711,0 0.1334219,0 0.2001333,0 0.01906,0 0.038494,-0.005 0.057181,0 0.029553,0.008 0.056534,0.0338 0.085771,0.0455 0.00925,0.003 0.01906,0 0.028588,0 0.028588,0 0.057181,0 0.085771,0 0.038121,0 0.076241,0 0.1143622,0 0.095301,0 0.1906032,0 0.2859046,0 0.00953,0 -0.01906,0 -0.028588,0"
       id="path931"
       inkscape:connector-curvature="0" />
    <path
       style="fill:none;stroke:#274f9d;stroke-width:0.49161002;stroke-linecap:round;stroke-linejoin:round;stroke-miterlimit:3.79999995;stroke-dasharray:none;stroke-opacity:1;paint-order:stroke fill markers"
       d="m 0.88714177,293.64595 c 0.0406351,0.14527 -0.0325083,0.32605 0,0.47417 0.0180676,0.0825 0.0712991,0.13076 0.0925813,0.21065 0.25187023,0.94606 -0.0212076,-0.0424 0.03086,0.57957 0.00525,0.0627 0.051531,0.097 0.061721,0.15818 0.01131,0.0675 -0.00582,0.14132 0,0.21066 0.00461,0.0548 0.02626,0.10335 0.030861,0.15792 0.00582,0.0693 0,0.14052 0,0.21065 0,0.0878 0,0.17559 0,0.26312 0,0.0211 0,-0.0351 0,-0.0527 0,-0.0699 0,-0.0361 0,-0.10546"
       id="path933"
       inkscape:connector-curvature="0" />
    <path
       style="fill:none;stroke:#274f9d;stroke-width:0.49161002;stroke-linecap:round;stroke-linejoin:round;stroke-miterlimit:3.79999995;stroke-dasharray:none;stroke-opacity:1;paint-order:stroke fill markers"
       d="m 0.88714177,293.64595 c 0.14880913,0.0564 0.28481283,0.0527 0.43204843,0.0527 0.030859,0 0.063306,0.0158 0.09258,0 0.035186,-0.0211 0.055865,-0.0965 0.092581,-0.10546 0.041987,-0.0105 0.081356,0.0435 0.1234412,0.0527 0.040829,0.0105 0.082295,0 0.1234413,0 0.041149,0 0.082295,0 0.1234412,0 0.1131553,0 0.2263113,0 0.3394667,0 0.1156068,0 0.1230821,0 0.1851634,0 0.01028,0 -0.041149,0 -0.030858,0 0.020574,0 0.041149,0 0.061722,0 0.01028,0 0.026258,-0.0158 0.030857,0 0.0092,0.0335 -0.0065,0.0725 0,0.10546 0.0046,0.0237 0.024355,0.0335 0.030859,0.0527 0.0092,0.0332 -0.0092,0.0738 0,0.10546 0.0065,0.0237 0.024353,0.0332 0.030857,0.0527 0.0046,0.0158 -0.0046,0.0369 0,0.0527 0.0065,0.0237 0.030858,0.0301 0.030858,0.0527 0,0.0266 -0.030858,0.0301 -0.030858,0.0527 0,0.0266 0.026259,0.0301 0.030858,0.0527 0.0065,0.0337 0,0.0704 0,0.10546 0,0.0351 0,0.0704 0,0.10546 0,0.0348 0,0.0704 0,0.10545 0,0.0211 0.0092,0.0446 0,0.0527 -0.0184,0.0158 -0.047175,-0.0266 -0.061722,0 -0.023003,0.0395 -0.00785,0.11891 -0.030858,0.15819 -0.023003,0.0395 -0.064686,0.0266 -0.09258,0.0527 -0.024948,0.0266 -0.041149,0.0704 -0.061722,0.10546 -0.020574,0.0348 -0.041149,0.0704 -0.061722,0.10545 -0.01028,0.0211 -0.016314,0.0527 -0.030865,0.0527 -0.01454,0 -0.017051,-0.0604 -0.030857,-0.0527 -0.027602,0.0158 -0.041149,0.0704 -0.061722,0.10546 -0.01028,0.0211 -0.016314,0.0527 -0.030858,0.0527 -0.03253,0 -0.061722,-0.0704 -0.092581,-0.0527 -0.019518,0.0132 0.01454,0.0804 0,0.10546 -0.01028,0.0211 -0.016313,-0.0527 -0.030857,-0.0527 -0.03253,0 -0.061023,0.039 -0.09258,0.0527 -0.00998,0.003 -0.020574,0 -0.030857,0 -0.061722,0 -0.1234439,0 -0.1851639,0 -0.020574,0 -0.042204,0.0132 -0.061722,0 -0.0138,-0.008 -0.017847,-0.0414 -0.03086,-0.0527 -0.0092,-0.008 -0.020574,0 -0.03086,0 -0.020574,-0.0353 -0.041146,-0.0704 -0.061722,-0.10546 -0.01028,-0.0211 -0.016313,-0.0527 -0.030862,-0.0527 -0.014539,0 -0.017847,0.0638 -0.030859,0.0527 -0.020574,-0.0211 -0.01028,-0.0878 -0.030859,-0.10545 -0.013007,-0.0132 -0.017847,0.0417 -0.030859,0.0527 -0.0092,0.008 -0.021101,0.008 -0.030859,0 -0.021823,-0.0132 -0.051434,-0.0211 -0.061722,-0.0527 -0.0065,-0.0237 0.016313,-0.0527 0.030859,-0.0527 0.01028,0 0.0092,0.0443 0,0.0527 -0.0184,0.0158 -0.041146,0 -0.061722,0 -0.01028,0 0.041146,0 0.030862,0 -0.020574,0 -0.041146,0 -0.061722,0 -0.01028,0 0.032758,-0.0158 0.030859,0 -0.031265,0.28449 -0.082295,0.5618 -0.1234412,0.84271"
       id="path935"
       inkscape:connector-curvature="0" />
    <path
       style="fill:none;stroke:#274f9d;stroke-width:0.49161002;stroke-linecap:round;stroke-linejoin:round;stroke-miterlimit:3.79999995;stroke-dasharray:none;stroke-opacity:1;paint-order:stroke fill markers"
       d="m 4.0966432,294.01476 c -0.1337284,0 -0.2674586,0 -0.4011877,0 -0.020574,0 -0.042204,0.0132 -0.061722,0 -0.013801,-0.008 -0.016313,-0.0527 -0.030865,-0.0527 -0.014539,0 -0.018755,0.039 -0.030858,0.0527 -0.019136,0.0237 -0.045456,0.0266 -0.061722,0.0527 -0.016258,0.0301 -0.011715,0.0833 -0.030858,0.10546 -0.017126,0.0211 -0.047174,-0.0266 -0.061722,0 -0.023003,0.0395 -0.02297,0.10414 -0.030858,0.15819 -0.00249,0.0158 0.00728,0.0406 0,0.0527 -0.016258,0.0301 -0.054446,0.0158 -0.061722,0.0527 -0.00728,0.0374 0.035371,0.0667 0.030864,0.10545 -0.00728,0.062 -0.054446,0.0957 -0.061722,0.15819 -0.00449,0.0388 0.026353,0.0667 0.030857,0.10546 0.00518,0.0443 0,0.43846 0,0.47416 0,0.0351 -0.0092,0.0738 0,0.10546 0.013007,0.044 0.04871,0.0606 0.061722,0.10546 0.0092,0.0335 -0.00765,0.073 0,0.10546 0.013781,0.0588 0.035497,0.11284 0.061722,0.15818 0.00728,0.0132 0.021659,-0.008 0.030858,0 0.013007,0.0132 0.020573,0.0348 0.030858,0.0527 0.01028,0.0211 0.024356,0.0335 0.030863,0.0527 0.0046,0.0158 -0.00728,0.0403 0,0.0527 0.043866,0.22832 0.064979,-0.0237 0.092581,0 0.020574,0.0211 0.00904,0.0931 0.030858,0.10546 0.02182,0.0132 0.039408,-0.0432 0.061722,-0.0527 0.020888,-0.0106 0.1961652,0 0.2160243,0 0.085815,0 0.2663932,0.0335 0.3394664,-0.0527 0.00855,-0.0105 -0.00855,-0.043 0,-0.0527 0.00605,-0.008 0.1401078,-0.0691 0.1543017,-0.10546 0.011424,-0.03 -0.01454,-0.0804 0,-0.10546 0.023003,-0.0398 0.06238,-0.0335 0.092581,-0.0527 0.021357,-0.0158 0.043318,-0.0301 0.061722,-0.0527 0.023277,-0.0301 0.038444,-0.0754 0.061722,-0.10546 0.0184,-0.0237 0.048961,-0.0211 0.061722,-0.0527 0.011424,-0.0301 -0.014539,-0.0804 0,-0.10546 0.023003,-0.0398 0.063486,-0.03 0.092581,-0.0527 0.013007,-0.0132 0.020574,-0.0353 0.030857,-0.0527 0.020574,-0.0351 0.048711,-0.0606 0.061722,-0.10545 0.0092,-0.033 -0.011424,-0.0757 0,-0.10546 0.012766,-0.0335 0.051434,-0.0211 0.061722,-0.0527 0.0065,-0.0237 -0.037364,-0.0335 -0.030858,-0.0527 0.01028,-0.0353 0.054449,-0.0158 0.061722,-0.0527 0.00728,-0.0374 -0.030858,-0.0662 -0.030858,-0.10546 0,-0.0211 0.026259,0.0158 0.030858,0 0.0092,-0.0329 0,-0.0704 0,-0.10545 0,-0.0351 0,-0.0704 0,-0.10546 0,-0.0353 0.014539,-0.0804 0,-0.10546 -0.01454,-0.0266 -0.04408,0.0211 -0.061722,0 -0.025545,-0.0266 -0.1477543,-0.25231 -0.1851635,-0.31608 -0.010281,-0.0211 -0.017846,-0.0414 -0.030857,-0.0527 -0.030858,-0.0211 -0.061722,-0.0351 -0.092581,-0.0527 0,0.0211 0.01028,0.0527 0,0.0527 -0.014539,0 -0.017846,-0.0414 -0.030864,-0.0527 -0.029095,-0.0266 -0.060053,-0.0527 -0.092581,-0.0527 -0.01028,0 0.01028,0.0527 0,0.0527 -0.065061,0 -0.1201028,-0.10546 -0.1851638,-0.10546 -0.01028,0 0.00728,0.0403 0,0.0527 -0.00728,0.0132 -0.020971,-0.008 -0.030857,0 -0.062558,0.0335 -0.1234413,0.0704 -0.1851632,0.10546 z"
       id="path937"
       inkscape:connector-curvature="0" />
    <path
       style="fill:none;stroke:#994f9d;stroke-width:0.58393598;stroke-linecap:butt;stroke-linejoin:miter;stroke-miterlimit:3.79999995;stroke-dasharray:none;stroke-opacity:1"
       d="m 5.7355182,292.7552 c 0.053824,0.4381 0.1075613,0.87549 0.161334,1.31316 0.015807,0.12866 0.026754,0.25785 0.047391,0.38574 0.021098,0.13077 0.056892,0.25547 0.077091,0.38577 0.02788,0.18007 0.044259,0.36024 0.066421,0.54063 0.047395,0.38576 0.094907,0.77247 0.1423529,1.15866 0.00379,0.0309 -0.016828,-0.0649 -0.00949,-0.0772 0.014792,-0.0237 0.056533,0.0488 0.059397,0 0.00357,-0.0514 -0.059309,-0.11363 -0.048715,-0.15476 0.010255,-0.044 0.050092,0.0952 0.068887,0.0773 5.939e-4,-5.3e-4 0.00795,-0.23148 0.030958,-0.23148 0.013993,0 0.026667,0.086 0.039186,0.0772 0.1644139,0.41664 0.057153,-0.2241 0.060589,-0.23201 0.02002,-0.049 0.052258,-0.0548 0.079603,-0.0772 0.035455,-0.0308 0.073523,-0.049 0.1093016,-0.0772 0.027185,-0.0237 0.050378,-0.0638 0.079603,-0.0772 0.027348,-0.0158 0.062551,0.0185 0.089093,0 0.012288,-0.0105 0.00621,-0.0772 0.020205,-0.0772 0.079196,0 -0.00526,0.23807 0.098584,0.0772 0.00757,-0.0105 -0.01433,-0.0596 -0.00949,-0.0772 0.010236,-0.044 0.02777,-0.0772 0.049906,-0.0772 0.013993,0 -0.033283,0.0514 -0.020205,0.0772 0.018787,0.039 0.050193,0.039 0.059397,0 0.0061,-0.0308 -0.035106,-0.044 -0.039187,-0.0772 -0.00379,-0.0308 0.019799,0 0.029697,0 0.00989,0 0.025906,-0.0308 0.029696,0 0.00379,0.0308 -0.025906,0.0308 -0.029696,0 -0.0048,-0.039 0.00621,-0.0772 0.020206,-0.0772 0.00989,0 0.00626,0.0509 0.00949,0.0772"
       id="path939"
       inkscape:connector-curvature="0" />
    <path
       style="fill:none;stroke:#274f9d;stroke-width:0.49161002;stroke-linecap:butt;stroke-linejoin:miter;stroke-miterlimit:3.79999995;stroke-dasharray:none;stroke-opacity:1"
       d="m 7.4604468,294.01476 c 0.051433,0.0527 0.1028683,0.10546 0.1543034,0.15819 0.01028,0.0351 0.012894,0.0807 0.030858,0.10546 0.035921,0.0488 0.083994,0.0649 0.1234415,0.10546 0.012473,0.0132 0.018756,0.0387 0.030858,0.0527 0.019135,0.0237 0.042579,0.0335 0.061722,0.0527 0.056466,0.0641 0.00309,0.067 0.092581,0.10546 0.019957,0.0105 0.044604,-0.0211 0.061722,0 0.019142,0.0237 0.01028,0.0878 0.030858,0.10546 0.024104,0.0237 0.026233,-0.11337 0.061722,-0.0527 0.00728,0.0132 -0.0092,0.0443 0,0.0527 0.0184,0.0158 0.041149,0 0.061722,0 0.01028,0 -0.041149,0 -0.030858,0 0.020574,0 0.041149,0 0.061722,0 0.01028,0 -0.041149,0 -0.030857,0 0.2023085,0 -0.1097267,0 0.092581,0 0.01028,0 -0.041149,0 -0.030857,0 0.020573,0 0.041149,0 0.061722,0 0.041149,0 -0.1131549,0.0211 -0.030857,-0.0527 0.0184,-0.0158 0.047174,0.0266 0.061722,0 0.01028,-0.0211 -0.024351,-0.0335 -0.030857,-0.0527 -0.0046,-0.0158 -0.0046,-0.0369 0,-0.0527 0.023493,-0.0801 0.061722,-0.0335 0.061722,-0.15818 0,-0.0211 -0.030857,0.0211 -0.030857,0 0,-0.0554 0.02297,-0.10414 0.030857,-0.15819 0.00249,-0.0158 -0.0046,-0.0369 0,-0.0527 0.033176,-0.1131 0.095892,-0.19852 0.1234413,-0.31606 0.00765,-0.0335 -0.0065,-0.0725 0,-0.10545 0.01454,-0.0741 0.043602,-0.13842 0.061722,-0.21066 0.074192,-0.29546 -0.024391,-0.0211 0.092581,-0.36878 0.0184,-0.0548 0.04711,-0.10019 0.061722,-0.15819 0.016702,-0.0664 0.015113,-0.14342 0.030857,-0.21065 0.00539,-0.0237 0.022795,-0.0335 0.030858,-0.0527 0.02552,-0.0651 0.036202,-0.14527 0.061722,-0.21065 0.00807,-0.0237 0.024353,-0.0332 0.030858,-0.0527 0.0046,-0.0158 -0.0092,-0.0448 0,-0.0527 0.050846,-0.0435 0.094247,0.0554 0.030857,-0.0527"
       id="path941"
       inkscape:connector-curvature="0" />
    <path
       style="fill:none;stroke:#274f9d;stroke-width:0.49161002;stroke-linecap:round;stroke-linejoin:round;stroke-miterlimit:3.79999995;stroke-dasharray:none;stroke-opacity:1;paint-order:stroke fill markers"
       d="m 7.6147502,294.17279 c 0.1748767,0.17559 0.3542906,0.33871 0.5246301,0.52684 0.00864,0.0105 0,0.0351 0,0.0527 0,0.0527 -0.011448,0.10915 0,0.15819 0.013781,0.0588 0.042639,0.10414 0.061722,0.15819 0.011841,0.034 0.017051,0.0741 0.030858,0.10545 0.017457,0.0401 0.046751,0.0627 0.061722,0.10546 0.094096,0.0374 0.011892,0.1458 0.030858,0.21065 0.07062,0.24097 -0.012785,-0.22357 0.061722,0.15793 0.00326,0.0158 -0.0046,0.0369 0,0.0527 0.0065,0.0237 0.024351,0.0335 0.030858,0.0527 0.0046,0.0158 -0.00728,0.0406 0,0.0527 0.00728,0.0132 0.023585,-0.0132 0.030864,0 0.00728,0.0132 -0.00728,0.0403 0,0.0527 0.014539,0.0266 0.061722,-0.0353 0.061722,0 0,0.0266 -0.041149,0.0348 -0.030864,0.0527 0.01454,0.0266 0.041149,0 0.061722,0 0.010281,0 -0.041149,0 -0.030857,0 0.020574,0 0.041149,0 0.061722,0 0.01028,0 -0.023585,-0.0132 -0.030858,0 -0.00728,0.0132 -0.00728,0.0406 0,0.0527 0.00728,0.0132 0.021659,-0.008 0.030858,0 0.013006,0.0132 0.020573,0.0351 0.030864,0.0527 0.01028,0.0211 0.02435,0.0335 0.030858,0.0527 0.0046,0.0158 -0.00728,0.0401 0,0.0527 0.00728,0.0132 0.023585,-0.0132 0.030858,0 0.015427,0.0266 -0.015426,0.13182 0,0.15818 0.041149,0.0704 0.030857,-0.0878 0.030857,0.0527"
       id="path943"
       inkscape:connector-curvature="0" />
  </g>
</svg>
