<?xml version="1.0" encoding="UTF-8" standalone="no"?>
<!-- Created with Inkscape (http://www.inkscape.org/) -->

<svg
   xmlns:dc="http://purl.org/dc/elements/1.1/"
   xmlns:cc="http://creativecommons.org/ns#"
   xmlns:rdf="http://www.w3.org/1999/02/22-rdf-syntax-ns#"
   xmlns:svg="http://www.w3.org/2000/svg"
   xmlns="http://www.w3.org/2000/svg"
   xmlns:sodipodi="http://sodipodi.sourceforge.net/DTD/sodipodi-0.dtd"
   xmlns:inkscape="http://www.inkscape.org/namespaces/inkscape"
   width="10mm"
   height="10mm"
   viewBox="0 0 10 10"
   version="1.1"
   id="svg837"
   inkscape:version="0.92.2 5c3e80d, 2017-08-06"
   sodipodi:docname="iso-3way-1.svg">
  <defs
     id="defs831">
    <inkscape:perspective
       sodipodi:type="inkscape:persp3d"
       inkscape:vp_x="-15.502741 : -0.68761461 : 1"
       inkscape:vp_y="0 : 1935.9757 : 0"
       inkscape:vp_z="25.090656 : 9.2983744 : 1"
       inkscape:persp3d-origin="19.059341 : -5.6235546 : 1"
       id="perspective1382" />
  </defs>
  <sodipodi:namedview
     id="base"
     pagecolor="#ffffff"
     bordercolor="#666666"
     borderopacity="1.0"
     inkscape:pageopacity="0.0"
     inkscape:pageshadow="2"
     inkscape:zoom="15.839192"
     inkscape:cx="16.408478"
     inkscape:cy="18.26861"
     inkscape:document-units="mm"
     inkscape:current-layer="layer1"
     showgrid="false"
     inkscape:window-width="1440"
     inkscape:window-height="855"
     inkscape:window-x="0"
     inkscape:window-y="1"
     inkscape:window-maximized="1" />
  <metadata
     id="metadata834">
    <rdf:RDF>
      <cc:Work
         rdf:about="">
        <dc:format>image/svg+xml</dc:format>
        <dc:type
           rdf:resource="http://purl.org/dc/dcmitype/StillImage" />
        <dc:title />
      </cc:Work>
    </rdf:RDF>
  </metadata>
  <g
     inkscape:label="Layer 1"
     inkscape:groupmode="layer"
     id="layer1"
     transform="translate(0,-287)">
    <path
       style="fill:none;fill-opacity:1;stroke:#ed8aab;stroke-width:0.81471747;stroke-linecap:butt;stroke-linejoin:bevel;stroke-miterlimit:4;stroke-dasharray:none;stroke-opacity:1"
       d="m 1.413643,288.09371 -0.6863742,0.41182 c 0,0 -0.0617287,-0.001 -0.0623976,0 -0.004902,0.01 0.0031,0.0288 0,0.0412 -0.004385,0.0172 -0.0138662,0.0274 -0.0207994,0.0412 0,0.0274 0.004385,0.0562 0,0.0823 -0.0158337,0.0939 -0.0415984,-0.0254 -0.0415984,0.12352 0,0.0308 0.0277322,0.055 0.0207994,0.0823 -0.006201,0.0247 -0.0353973,-0.0247 -0.0415985,0 -0.006933,0.0274 0.0207994,0.0518 0.0207994,0.0824 0,0.0389 -0.0415985,0.0436 -0.0415985,0.0823 0,0.0197 0.0207994,0.0222 0.0207994,0.0412 0,0.0308 -0.0158965,0.0532 -0.0207994,0.0823 -0.004385,0.0261 0,0.055 0,0.0824 v 0.28828 0.24711 0.0823 c 0,0.0274 -0.004385,0.0565 0,0.0824 0.0031,0.0173 0.0138662,0.0274 0.0207994,0.0412 0.0207994,0.0412 0.0472641,0.0737 0.0623977,0.12352 0.007135,0.0247 0,0.055 0,0.0823 0.0138662,0.0412 0.0239225,0.0885 0.0415984,0.12352 0.0109622,0.0222 0.0296887,0.0222 0.0415984,0.0412 0.0301292,0.0498 0.0499389,0.12352 0.0831969,0.16469 0.0242407,0.0301 0.059412,0.01 0.0831969,0.0412 0.020799,0.0274 0.0204005,0.0974 0.0415984,0.12352 0.0371836,0.0461 0.085576,0.0436 0.1247954,0.0824 0.031006,0.0308 0.052191,0.0929 0.083197,0.12351 0.025568,0.0254 0.056078,0.0222 0.083197,0.0412 0.035421,0.0222 0.069038,0.0565 0.1039965,0.0823 0.020529,0.0148 0.043362,0.0197 0.062398,0.0412 0.030098,0.034 0.049865,0.10478 0.083196,0.12352 0.02108,0.0123 0.040772,-0.0483 0.062398,-0.0412 0.024657,0.007 0.040039,0.0602 0.062398,0.0823 0.01961,0.0197 0.042788,0.0222 0.062398,0.0412 0.00877,0.01 0.010995,0.0412 0.020799,0.0412 0.021924,0 0.040473,-0.0412 0.062398,-0.0412 0.00694,0 -0.0062,0.035 0,0.0412 0.006,0.005 0.1115021,0 0.1247954,0 0.00694,0 -0.015897,0.01 -0.020799,0 -0.00491,-0.01 -0.00491,-0.0316 0,-0.0412 0.010957,-0.0222 0.030637,-0.0197 0.041599,-0.0412 0.00491,-0.01 -0.015897,0.01 -0.020799,0 -0.00491,-0.01 0,-0.0274 0,-0.0412 v -0.0412 c 0,-0.0148 -0.00694,-0.0412 0,-0.0412 0.00694,0 0.00694,0.0412 0,0.0412 -0.00694,0 0.00696,-0.0422 0,-0.0412 l -0.3327882,0.0412"
       id="path913"
       inkscape:connector-curvature="0"
       sodipodi:nodetypes="csccccsccssscsccsccccccccccccccccccsscsccccsssssc" />
    <path
       style="fill:none;fill-opacity:1;stroke:#ed8aab;stroke-width:0.81471747;stroke-linecap:butt;stroke-linejoin:bevel;stroke-miterlimit:4;stroke-dasharray:none;stroke-opacity:1"
       d="m 2.0584188,287.22889 c 0.00694,0.0823 0.025941,1.15801 0.041599,1.23547 0.012875,0.0639 0.048319,0.10207 0.062398,0.16469 0.014358,0.0639 0.011493,0.13831 0.0208,0.20586 0.011542,0.0838 0.027732,0.16469 0.041599,0.24711 0.079526,0.47238 2.708e-4,0.0123 0.1039964,0.57656 0.024737,0.13462 0.036414,0.27805 0.062398,0.41183 0.016696,0.086 0.046755,0.16025 0.062398,0.24711 0.019229,0.1065 0.024785,0.22114 0.041599,0.32945 0.010982,0.0708 0.024901,0.13979 0.041599,0.20586 0.018079,0.0715 0.051292,0.12894 0.062398,0.20586 0.00426,0.0296 -0.026556,0.0537 -0.020799,0.0823 0.01092,0.054 0.05081,0.07 0.062398,0.12352 0.01092,0.0505 0,0.10971 0,0.16469 0,0.0966 -0.00491,-0.0197 0.0208,0.0823 0.0031,0.0123 0,0.0274 0,0.0412 0.013866,0.0274 0.027732,0.055 0.041599,0.0824 0.00694,0.0148 -0.016415,-0.0247 -0.020799,-0.0412 -0.0031,-0.0123 0,-0.0274 0,-0.0412 v -0.2471 -0.16469 c 0,-0.0274 0.00195,-0.0552 0,-0.0823 -0.00501,-0.0693 -0.017599,-0.13634 -0.020799,-0.20586 -0.00376,-0.0821 0,-0.16469 0,-0.24709 v -0.2471 c 0,-0.0173 -0.00281,-0.23594 0,-0.24709 0.015928,-0.0631 0.037064,-0.0323 0.062398,-0.0823 0.012426,-0.0247 -0.022481,-0.0823 0.020799,-0.0823 0.0098,0 0.010995,0.0412 0.020799,0.0412 0.027454,0 0.014145,-0.0823 0.041599,-0.0823 0.059526,0 -0.012923,0.0772 0.041599,0.0412 0.014708,-0.01 0.026559,-0.0338 0.041599,-0.0412 0.013453,-0.007 0.027732,0 0.041599,0 0.013866,0 0.028724,-0.01 0.041599,0 0.2753495,0.21794 0.00281,-0.0343 0.083196,0.16469 0.021655,0.0535 0.058685,0.075 0.083196,0.12352 0.010957,0.0222 0.012824,0.056 0.020799,0.0823 0.012861,0.0424 0.027732,0.0824 0.041599,0.12352 0.013866,0.055 0.026215,0.11144 0.041599,0.16469 0.012402,0.0429 0.0266,0.0838 0.041599,0.12352 0.00588,0.0148 0.017158,0.0222 0.020799,0.0412 0.010621,0.0525 0.010185,0.11218 0.020799,0.16469 0.00364,0.0173 0.013866,0.0274 0.020799,0.0412 0.00694,0.0274 0.015897,0.0532 0.020799,0.0824 0.00219,0.0123 -0.00491,0.0315 0,0.0412 0.010957,0.0222 0.034665,0.0148 0.041599,0.0412 0.00438,0.0173 -0.0208,0.0222 -0.0208,0.0412 0,0.0308 0.00984,0.0607 0.0208,0.0824 0.00491,0.01 0,-0.055 0,-0.0412 v 0.0412"
       id="path915"
       inkscape:connector-curvature="0"
       sodipodi:nodetypes="cccccccccccccsccccscsccssccsssccscccccccccccccscsc" />
    <path
       style="fill:none;fill-opacity:1;stroke:#ed8aab;stroke-width:0.81471747;stroke-linecap:butt;stroke-linejoin:bevel;stroke-miterlimit:4;stroke-dasharray:none;stroke-opacity:1"
       d="m 4.7415179,288.42319 c 0,0.23347 0,0.46673 0,0.7001 0,0.10996 -0.00369,0.21992 0,0.32948 0.00326,0.0969 0.020798,0.19132 0.020798,0.28828 0,0.12426 -0.020798,0.2463 -0.020798,0.37065 0,0.0434 0.017194,0.0806 0.020798,0.12352 0.010322,0.12253 0.013464,0.24718 0.020798,0.37065 0.029459,0.4958 0.00903,0.1573 0.041599,0.57656 0.00746,0.0959 0.00977,0.19379 0.020801,0.28829 0.1148976,0.6825 -0.00768,-0.1324 0.041599,0.45302 0.00162,0.0197 0.018422,0.0222 0.020798,0.0412 0.0084,0.0666 -0.0084,0.13929 0,0.20586 0.00376,0.0298 0.015895,0.0532 0.020801,0.0824 0.00438,0.0261 0,0.055 0,0.0823"
       id="path917"
       inkscape:connector-curvature="0" />
    <path
       style="fill:none;fill-opacity:1;stroke:#ed8aab;stroke-width:0.81471747;stroke-linecap:butt;stroke-linejoin:bevel;stroke-miterlimit:4;stroke-dasharray:none;stroke-opacity:1"
       d="m 4.3879313,292.33558 c 0.090129,0 0.1802599,0 0.2703898,0 0.020798,0 0.041599,0 0.062398,0 0.020801,0 0.041881,0.007 0.062398,0 0.021624,-0.007 0.040899,-0.0328 0.062398,-0.0412 0.013596,-0.005 0.027733,0 0.041599,0 0.055465,0 0.1109294,0 0.1663937,0 0.027733,0 0.055465,0 0.083196,0 0.00694,0 0.020801,-0.0148 0.020801,0 0,0.0148 -0.027733,0 -0.020801,0 0.013866,0 0.027733,0 0.041599,0 0.00694,0 -0.020798,0.0148 -0.020798,0 0,-0.0274 0.031795,0.0197 0.041599,0 0.00491,-0.01 -0.00491,-0.0316 0,-0.0412 0.00491,-0.01 0.027653,-0.002 0.020797,0 -0.096909,0.0296 -0.1941261,0.0547 -0.2911893,0.0823"
       id="path919"
       inkscape:connector-curvature="0" />
    <path
       style="fill:none;fill-opacity:1;stroke:#ed8aab;stroke-width:0.81471747;stroke-linecap:butt;stroke-linejoin:bevel;stroke-miterlimit:4;stroke-dasharray:none;stroke-opacity:1"
       d="m 4.7415179,288.42319 c 0.020798,0.055 0.056699,0.0969 0.062398,0.16469 0.00534,0.0636 -0.069836,0.0971 -0.083198,0.12351 -0.017675,0.035 -0.025984,0.0848 -0.041599,0.12352 -0.012252,0.0303 -0.027733,0.055 -0.041599,0.0824 -0.041599,0.0823 -0.083196,0.16469 -0.1247952,0.24711 -0.00694,0.0148 -0.013866,0.0274 -0.020797,0.0412 -0.00694,0.0148 -0.016416,0.0247 -0.020801,0.0412 -0.0031,0.0123 0.00491,0.0316 0,0.0412 -0.00491,0.01 -0.015895,-0.01 -0.020798,0 -0.00491,0.01 0.00694,0.0412 0,0.0412 -0.015503,0 -0.026096,-0.0412 -0.041599,-0.0412 -0.0098,0 0.025183,0.0247 0.020801,0.0412 -0.00694,0.0274 -0.026096,0.0412 -0.041599,0.0412 -0.0098,0 0.030606,-0.0412 0.020797,-0.0412 -0.015503,0 -0.034665,0.0148 -0.041599,0.0412 -0.00438,0.0173 0.010995,0.0412 0.020798,0.0412 0.00694,0 0.00694,-0.0412 0,-0.0412 -0.015503,0 -0.030635,0.0197 -0.041599,0.0412 -0.00491,0.01 0.027733,0 0.020798,0 -0.013866,0 -0.029195,-0.0123 -0.041599,0 -0.0062,0.005 0.00694,0.0412 0,0.0412 -0.0098,0 -0.013866,-0.055 -0.020797,-0.0412 -0.0098,0.0197 0.0098,0.0629 0,0.0823 -0.00694,0.0148 -0.010995,-0.0412 -0.020801,-0.0412 -0.00694,0 0.0031,0.0289 0,0.0412 -0.04024,0.15926 -0.00134,-0.1181 -0.041599,0.0412 -0.0031,0.0123 0.00694,0.0412 0,0.0412 -0.00694,0 0,-0.0274 0,-0.0412"
       id="path921"
       inkscape:connector-curvature="0"
       sodipodi:nodetypes="ccccccccccsscsscsscscsccsccsc" />
    <path
       style="fill:none;stroke:#000000;stroke-width:0.46357131px;stroke-linecap:butt;stroke-linejoin:miter;stroke-opacity:1"
       d="m 7.133428,290.44116 c 0,0.0685 0,0.13732 0,0.20586 0,0.0962 0,0.19206 0,0.28828 0,0.0685 -0.0084,0.1393 0,0.20586 0.00606,0.0481 0.027733,0.0823 0.041599,0.12352 0.013866,0.0962 0.033301,0.18984 0.041599,0.28828 0.0057,0.0678 0,0.13733 0,0.20586 0,0.0274 -0.00515,0.057 0,0.0823 0.00929,0.0459 0.038064,0.0745 0.041599,0.12352 0.00405,0.056 -0.0161,0.10897 -0.020798,0.16469 -0.011841,0.14053 -0.00144,0.0355 0.020798,0.12351 0.0031,0.0123 0.00694,0.0412 0,0.0412 -0.00694,0 0,-0.0274 0,-0.0412"
       id="path923"
       inkscape:connector-curvature="0" />
    <path
       style="fill:none;stroke:#000000;stroke-width:0.46357131px;stroke-linecap:butt;stroke-linejoin:miter;stroke-opacity:1"
       d="m 6.9462349,288.75264 c 0,0.23348 0,0.46675 0,0.70011 0,0.0148 0,-0.055 0,-0.0412 0,0.0274 0,0.055 0,0.0824 0,0.0148 -0.00491,-0.0316 0,-0.0412 0.00491,-0.01 0.013866,0 0.020798,0 0.013866,0 0.027733,0 0.041599,0 0.00694,0 -0.0239,0.0123 -0.020798,0 0.00877,-0.0348 0.027733,-0.055 0.041599,-0.0823 0.00694,-0.0148 -0.010995,0.0412 -0.020801,0.0412 -0.00694,0 -0.00491,-0.0315 0,-0.0412 0.0098,-0.0197 0.041599,0.0274 0.041599,0 0,-0.0197 -0.020798,-0.0222 -0.020798,-0.0412 0,-0.0148 0.015895,0.01 0.020798,0 0.04699,-0.0929 -0.1112742,0 0.041599,0 0.0098,0 -0.016413,-0.0247 -0.020798,-0.0412 -0.00316,-0.0123 0,-0.10503 0,-0.12352 0,-0.0148 -0.00694,-0.0412 0,-0.0412 0.00694,0 0,0.055 0,0.0412 0,-0.055 0,-0.10971 0,-0.16469 0,-0.0148 0,-0.0274 0,-0.0412 0,-0.0148 -0.00694,-0.0412 0,-0.0412 0.00694,0 0.00491,0.0508 0,0.0412 -0.010957,-0.0222 -0.00984,-0.0607 -0.020797,-0.0824 -0.00491,-0.01 0.00491,0.0508 0,0.0412 -0.010957,-0.0222 -0.020798,-0.0518 -0.020798,-0.0823 0,-0.0197 0.010995,0.0412 0.020798,0.0412 0.00694,0 0.00491,-0.0316 0,-0.0412 -0.00491,-0.01 -0.01436,0.005 -0.020798,0 -0.028786,-0.0222 -0.097064,-0.0274 -0.083198,-0.0823 0.013866,-0.055 0.055465,0.055 0,0 z"
       id="path925"
       inkscape:connector-curvature="0" />
    <path
       style="fill:none;stroke:#000000;stroke-width:0.46357131px;stroke-linecap:butt;stroke-linejoin:miter;stroke-opacity:1"
       d="m 7.5910108,290.52353 c 0,0.12351 0,0.24708 0,0.37065 0,0.11784 0.00459,0.0865 0.020798,0.24708 0.00134,0.0123 -0.0031,0.0289 0,0.0412 0.011181,0.0444 0.036697,0.075 0.041599,0.12352 0.00303,0.0301 -0.027733,0.055 -0.020801,0.0824 0.0062,0.0247 0.031795,-0.0197 0.041599,0 0.00694,0.0148 -0.020797,0.0222 -0.020797,0.0412 0,0.0197 0.012028,0.0325 0.020797,0.0412 0.0062,0.005 0.020798,-0.0148 0.020798,0 0,0.0197 -0.010995,0.0412 -0.020798,0.0412 -0.00694,0 0,-0.0274 0,-0.0412 0,-0.0274 0,-0.055 0,-0.0823 0,-0.1785 0,-0.35692 0,-0.53539 0,-0.10996 0,-0.21967 0,-0.32948 0,-0.055 -0.00877,-0.11267 0,-0.16469 0.0062,-0.0367 0.034316,-0.0464 0.041599,-0.0824 0.00772,-0.0382 -0.011543,-0.0892 0,-0.12351 0.00769,-0.0222 0.033906,0.0222 0.041599,0 0.011542,-0.0343 -0.010696,-0.0883 0,-0.12352 0.012861,-0.0424 0.048532,-0.0412 0.062398,-0.0824 0.00544,-0.0172 -0.027733,-0.0274 -0.020798,-0.0412 0.015503,-0.0308 0.044155,-0.0173 0.062398,-0.0412 0.00576,-0.007 0,-0.0274 0,-0.0412 0,-0.0991 -0.00657,0 0.062398,0 0.00694,0 -0.00657,-0.0367 0,-0.0412 0.019733,-0.0123 0.041599,0 0.062398,0 0.00694,0 -0.027733,0 -0.020798,0 0.013866,0 0.027733,0 0.041599,0 0.00694,0 0.015895,-0.01 0.020797,0 0.00491,0.01 -0.00416,0.0301 0,0.0412 0.017649,0.0466 0.044749,0.0769 0.062398,0.12351 0.00416,0.01 -0.00168,0.0279 0,0.0412 0.00532,0.0422 0.010995,0.0848 0.020798,0.12351 0.036136,0.14324 0.1018983,0.25318 0.1247952,0.41185 0.00572,0.0397 -0.00657,0.0846 0,0.12352 0.014706,0.0873 0.046068,0.16074 0.062398,0.24711 0.00487,0.0256 -0.0062,0.0577 0,0.0823 0.00877,0.0348 0.034316,0.0464 0.041599,0.0824 0.00772,0.0382 -0.00408,0.0831 0,0.12352 0.00303,0.0301 0.017038,0.0525 0.020798,0.0823 0.00336,0.0266 -0.00336,0.0557 0,0.0823 0.020778,0.16469 0.02096,6.5e-4 0.062398,0.16469 0.0031,0.0123 -0.017697,-0.0123 -0.020798,0 -0.0062,0.0247 0,0.055 0,0.0824 0,0.0148 0,-0.0274 0,-0.0412 0,-0.0412 0,-0.0823 0,-0.12352"
       id="path927"
       inkscape:connector-curvature="0" />
    <path
       style="fill:none;stroke:#000000;stroke-width:0.46357131px;stroke-linecap:butt;stroke-linejoin:miter;stroke-opacity:1"
       d="m 9.1093538,288.5879 c 0,0.10996 -0.0058,0.22016 0,0.32948 0.00812,0.15261 0.037299,0.29977 0.041599,0.453 0.027733,0.98841 -0.1032992,-0.60669 -0.020801,0.70013 0.00544,0.086 0.03616,0.16099 0.041599,0.24708 0.0086,0.13634 0,0.27457 0,0.41185 0,0.31572 0,0.63147 0,0.94721 0,0.16469 0,0.32946 0,0.4942 0,0.0148 0,-0.055 0,-0.0412 0,0.0412 0,0.0824 0,0.12352 0,0.0148 -0.00491,0.0316 0,0.0412 0.012427,0.0247 0.041599,-0.0446 0.041599,0.0412 0,0.0197 -0.016416,0.0247 -0.020801,0.0412 -0.0094,0.0372 0.017915,0.1065 0.020801,0.12351 0.00391,0.0222 0,0.0964 0,0.12352"
       id="path929"
       inkscape:connector-curvature="0" />
    <path
       style="fill:none;stroke:#000000;stroke-width:0.46357131px;stroke-linecap:butt;stroke-linejoin:miter;stroke-opacity:1"
       d="m 8.7349677,290.60587 c 0.027733,0 0.055465,0 0.083196,0 0.00694,0 -0.027733,0 -0.020798,0 0.1363505,0 -0.073953,0 0.062398,0 0.00694,0 -0.027733,0 -0.020798,0 0.027733,0 0.055465,0 0.083196,0 0.00694,0 0.014074,-0.002 0.020798,0 0.021268,0.01 0.040899,0.0328 0.062398,0.0412 0.013596,0.005 0.028148,-0.007 0.041599,0 0.015039,0.007 0.02656,0.0338 0.041599,0.0412 0.013451,0.007 0.027733,0 0.041599,0 0.048532,0 0.097063,0 0.1455946,0 0.013866,0 0.028003,-0.005 0.041599,0 0.0215,0.007 0.041128,0.0306 0.062398,0.0412 0.00672,0.002 0.013866,0 0.020798,0 0.020797,0 0.041599,0 0.062398,0 0.027733,0 0.055465,0 0.083196,0 0.06933,0 0.1386616,0 0.2079921,0 0.00694,0 -0.013866,0 -0.020798,0"
       id="path931"
       inkscape:connector-curvature="0" />
    <path
       style="fill:none;stroke:#000000;stroke-width:0.46357131px;stroke-linecap:butt;stroke-linejoin:miter;stroke-opacity:1"
       d="m 2.7655922,294.31238 c 0.027387,0.11366 -0.02191,0.25495 0,0.37063 0.012177,0.0643 0.048054,0.10231 0.062398,0.16469 0.1697538,0.73948 -0.014293,-0.0333 0.020799,0.45302 0.00354,0.0491 0.034731,0.0759 0.041599,0.12352 0.00762,0.0528 -0.00392,0.11045 0,0.16469 0.0031,0.0429 0.017698,0.0806 0.0208,0.12351 0.00392,0.0542 0,0.10996 0,0.16469 0,0.0685 0,0.13733 0,0.20587 0,0.0148 0,-0.0274 0,-0.0412 0,-0.0545 0,-0.0281 0,-0.0823"
       id="path933"
       inkscape:connector-curvature="0" />
    <path
       style="fill:none;stroke:#000000;stroke-width:0.46357131px;stroke-linecap:butt;stroke-linejoin:miter;stroke-opacity:1"
       d="m 2.7655922,294.31238 c 0.1002934,0.0444 0.1919562,0.0412 0.2911891,0.0412 0.020799,0 0.042666,0.0123 0.062398,0 0.023715,-0.0148 0.037652,-0.0754 0.062398,-0.0823 0.028298,-0.007 0.054832,0.0343 0.083196,0.0412 0.027518,0.007 0.055465,0 0.083196,0 0.027733,0 0.055465,0 0.083196,0 0.076263,0 0.1525278,0 0.2287916,0 0.077916,0 0.082954,0 0.1247952,0 0.00694,0 -0.027733,0 -0.020798,0 0.013866,0 0.027733,0 0.041599,0 0.00694,0 0.017697,-0.0123 0.020797,0 0.0062,0.0247 -0.00438,0.0565 0,0.0823 0.0031,0.0173 0.016416,0.0247 0.020798,0.0412 0.0062,0.0247 -0.0062,0.0577 0,0.0823 0.00438,0.0173 0.016414,0.0247 0.020798,0.0412 0.0031,0.0123 -0.0031,0.0288 0,0.0412 0.00438,0.0173 0.020798,0.0222 0.020798,0.0412 0,0.0197 -0.020798,0.0222 -0.020798,0.0412 0,0.0197 0.017697,0.0222 0.020798,0.0412 0.00438,0.0261 0,0.055 0,0.0823 0,0.0274 0,0.055 0,0.0824 0,0.0274 0,0.055 0,0.0823 0,0.0148 0.0062,0.035 0,0.0412 -0.012402,0.0123 -0.031795,-0.0197 -0.041599,0 -0.015503,0.0308 -0.00529,0.0929 -0.020798,0.12352 -0.015503,0.0308 -0.043597,0.0197 -0.062398,0.0412 -0.016814,0.0197 -0.027733,0.055 -0.041599,0.0823 -0.013866,0.0274 -0.027733,0.055 -0.041599,0.0823 -0.00694,0.0148 -0.010995,0.0412 -0.020801,0.0412 -0.0098,0 -0.011493,-0.0473 -0.020798,-0.0412 -0.018604,0.0123 -0.027733,0.055 -0.041599,0.0823 -0.00694,0.0148 -0.010995,0.0412 -0.020798,0.0412 -0.021924,0 -0.041599,-0.055 -0.062398,-0.0412 -0.013155,0.01 0.0098,0.0629 0,0.0823 -0.00694,0.0148 -0.010995,-0.0412 -0.020798,-0.0412 -0.021924,0 -0.041128,0.0306 -0.062398,0.0412 -0.00672,0.002 -0.013866,0 -0.020798,0 -0.041599,0 -0.083198,0 -0.1247955,0 -0.013866,0 -0.028444,0.01 -0.041599,0 -0.0093,-0.005 -0.012028,-0.0325 -0.020799,-0.0412 -0.0062,-0.005 -0.013866,0 -0.020799,0 -0.013866,-0.0274 -0.027732,-0.055 -0.041599,-0.0823 -0.00694,-0.0148 -0.010995,-0.0412 -0.0208,-0.0412 -0.0098,0 -0.012028,0.0498 -0.020799,0.0412 -0.013866,-0.0148 -0.00694,-0.0685 -0.020799,-0.0824 -0.00877,-0.01 -0.012028,0.0325 -0.020799,0.0412 -0.0062,0.005 -0.014222,0.005 -0.020799,0 -0.014708,-0.01 -0.034666,-0.0148 -0.041599,-0.0412 -0.00438,-0.0173 0.010995,-0.0412 0.020799,-0.0412 0.00694,0 0.0062,0.035 0,0.0412 -0.012402,0.0123 -0.027732,0 -0.041599,0 -0.00694,0 0.027732,0 0.0208,0 -0.013866,0 -0.027732,0 -0.041599,0 -0.00694,0 0.022077,-0.0123 0.020799,0 -0.021072,0.22238 -0.055465,0.43914 -0.083196,0.65871"
       id="path935"
       inkscape:connector-curvature="0" />
    <path
       style="fill:none;stroke:#000000;stroke-width:0.46357131px;stroke-linecap:butt;stroke-linejoin:miter;stroke-opacity:1"
       d="m 4.928711,294.60066 c -0.090129,0 -0.1802599,0 -0.2703899,0 -0.013866,0 -0.028444,0.01 -0.041599,0 -0.0093,-0.005 -0.010995,-0.0412 -0.020801,-0.0412 -0.0098,0 -0.012641,0.0303 -0.020797,0.0412 -0.012897,0.0173 -0.030635,0.0197 -0.041599,0.0412 -0.010957,0.0222 -0.00789,0.0653 -0.020798,0.0823 -0.011542,0.0148 -0.031795,-0.0197 -0.041599,0 -0.015503,0.0308 -0.015481,0.0814 -0.020798,0.12352 -0.00168,0.0123 0.00491,0.0316 0,0.0412 -0.010957,0.0222 -0.036695,0.0123 -0.041599,0.0412 -0.00491,0.0291 0.023838,0.0523 0.020801,0.0823 -0.00491,0.0486 -0.036695,0.075 -0.041599,0.12351 -0.00303,0.0301 0.017761,0.0523 0.020798,0.0824 0.00349,0.0345 0,0.34274 0,0.37065 0,0.0274 -0.0062,0.0579 0,0.0823 0.00877,0.0348 0.032829,0.0476 0.041599,0.0823 0.0062,0.0247 -0.00515,0.057 0,0.0824 0.00929,0.0459 0.023924,0.0885 0.041599,0.12351 0.00491,0.01 0.014598,-0.005 0.020798,0 0.00877,0.01 0.013866,0.0274 0.020798,0.0412 0.00694,0.0148 0.016416,0.0247 0.020801,0.0412 0.0031,0.0123 -0.00491,0.0316 0,0.0412 0.029565,0.1785 0.043794,-0.0173 0.062398,0 0.013866,0.0148 0.00609,0.0727 0.020797,0.0824 0.014706,0.01 0.02656,-0.0338 0.041599,-0.0412 0.014078,-0.007 0.13221,0 0.1455947,0 0.057837,0 0.1795419,0.0247 0.2287914,-0.0412 0.00577,-0.007 -0.00576,-0.0335 0,-0.0412 0.00407,-0.005 0.094429,-0.054 0.1039952,-0.0824 0.00769,-0.0222 -0.0098,-0.0629 0,-0.0823 0.015503,-0.0308 0.042042,-0.0251 0.062398,-0.0412 0.014394,-0.0123 0.029195,-0.0222 0.041599,-0.0412 0.015689,-0.0222 0.025911,-0.0592 0.041599,-0.0823 0.012402,-0.0173 0.032999,-0.0148 0.041599,-0.0412 0.0077,-0.0222 -0.0098,-0.0629 0,-0.0823 0.015503,-0.0308 0.042788,-0.0222 0.062398,-0.0412 0.00877,-0.01 0.013866,-0.0274 0.020798,-0.0412 0.013866,-0.0274 0.032829,-0.0476 0.041599,-0.0823 0.0062,-0.0247 -0.00769,-0.0594 0,-0.0823 0.0086,-0.0256 0.034666,-0.0148 0.041599,-0.0412 0.00438,-0.0172 -0.025183,-0.0246 -0.020797,-0.0412 0.00694,-0.0274 0.036697,-0.0123 0.041599,-0.0412 0.00491,-0.0291 -0.020797,-0.0518 -0.020797,-0.0823 0,-0.0148 0.017697,0.0123 0.020797,0 0.0062,-0.0247 0,-0.055 0,-0.0823 0,-0.0274 0,-0.055 0,-0.0823 0,-0.0274 0.0098,-0.0629 0,-0.0823 -0.0098,-0.0197 -0.029709,0.0148 -0.041599,0 -0.017216,-0.0197 -0.099582,-0.19723 -0.1247952,-0.24711 -0.00694,-0.0148 -0.012028,-0.0325 -0.020798,-0.0412 -0.020798,-0.0148 -0.041599,-0.0274 -0.062398,-0.0412 0,0.0148 0.00694,0.0412 0,0.0412 -0.0098,0 -0.012028,-0.0325 -0.020801,-0.0412 -0.019608,-0.0197 -0.040473,-0.0412 -0.062398,-0.0412 -0.00694,0 0.00694,0.0412 0,0.0412 -0.043849,0 -0.080946,-0.0823 -0.1247955,-0.0823 -0.00694,0 0.00491,0.0316 0,0.0412 -0.00491,0.01 -0.014133,-0.005 -0.020798,0 -0.042162,0.0247 -0.083196,0.055 -0.1247952,0.0823 z"
       id="path937"
       inkscape:connector-curvature="0" />
    <path
       style="fill:none;stroke:#000000;stroke-width:0.46357131px;stroke-linecap:butt;stroke-linejoin:miter;stroke-opacity:1"
       d="m 6.1974631,294.64184 c 0,0.23347 0,0.46675 0,0.7001 0,0.0685 -0.00345,0.13757 0,0.20586 0.00352,0.0695 0.017863,0.13609 0.020798,0.20586 0.00403,0.0957 0,0.19206 0,0.28829 0,0.20586 0,0.41182 0,0.61773 0,0.0148 -0.0062,-0.035 0,-0.0412 0.012402,-0.0123 0.035397,0.0247 0.041599,0 0.00694,-0.0274 -0.031761,-0.0607 -0.020801,-0.0824 0.01097,-0.0222 0.026893,0.0508 0.041599,0.0412 4.613e-4,-3e-4 0.025483,-0.12352 0.041599,-0.12352 0.0098,0 0.011281,0.0459 0.020798,0.0412 0.079298,0.22214 0.05931,-0.11957 0.062398,-0.12352 0.018241,-0.0247 0.041317,-0.0293 0.062398,-0.0412 0.027485,-0.0148 0.055711,-0.0256 0.083196,-0.0412 0.021081,-0.0123 0.040772,-0.034 0.062398,-0.0412 0.020515,-0.007 0.042219,0.01 0.062398,0 0.00951,-0.005 0.010995,-0.0412 0.020798,-0.0412 0.055465,0 -0.024164,0.12697 0.062398,0.0412 0.0062,-0.005 -0.00491,-0.0316 0,-0.0412 0.010957,-0.0222 0.026096,-0.0412 0.041599,-0.0412 0.0098,0 -0.027733,0.0274 -0.020798,0.0412 0.0098,0.0197 0.031795,0.0197 0.041599,0 0.00694,-0.0148 -0.020798,-0.0222 -0.020798,-0.0412 0,-0.0148 0.013866,0 0.020798,0 0.00694,0 0.020798,-0.0148 0.020798,0 0,0.0148 -0.020798,0.0148 -0.020798,0 0,-0.0197 0.010995,-0.0412 0.020798,-0.0412 0.00694,0 0,0.0274 0,0.0412"
       id="path939"
       inkscape:connector-curvature="0" />
    <path
       style="fill:none;stroke:#000000;stroke-width:0.46357131px;stroke-linecap:butt;stroke-linejoin:miter;stroke-opacity:1"
       d="m 7.1958257,294.60066 c 0.034665,0.0412 0.069331,0.0824 0.1039965,0.12352 0.00694,0.0274 0.00869,0.0631 0.020797,0.0824 0.02421,0.0382 0.05661,0.0508 0.083196,0.0823 0.0084,0.01 0.012641,0.0303 0.020798,0.0412 0.012897,0.0173 0.028698,0.0247 0.041599,0.0412 0.038056,0.0503 0.00208,0.0525 0.062398,0.0823 0.013451,0.007 0.030061,-0.0148 0.041599,0 0.012901,0.0173 0.00694,0.0685 0.020798,0.0823 0.016245,0.0173 0.017681,-0.0885 0.041599,-0.0412 0.00491,0.01 -0.0062,0.035 0,0.0412 0.012402,0.0123 0.027733,0 0.041599,0 0.00694,0 -0.027733,0 -0.020797,0 0.013866,0 0.027733,0 0.041599,0 0.00694,0 -0.027733,0 -0.020798,0 0.1363505,0 -0.073952,0 0.062398,0 0.00694,0 -0.027733,0 -0.020798,0 0.013866,0 0.027733,0 0.041599,0 0.027733,0 -0.076263,0.0148 -0.020797,-0.0412 0.012402,-0.0123 0.031795,0.0197 0.041599,0 0.00694,-0.0148 -0.016413,-0.0247 -0.020798,-0.0412 -0.0031,-0.0123 -0.0031,-0.0288 0,-0.0412 0.015833,-0.0626 0.041599,-0.0247 0.041599,-0.12352 0,-0.0148 -0.020798,0.0148 -0.020798,0 0,-0.0434 0.015481,-0.0814 0.020798,-0.12352 0.00168,-0.0123 -0.0031,-0.0288 0,-0.0412 0.022359,-0.0885 0.064629,-0.15507 0.083196,-0.24708 0.00515,-0.0254 -0.00438,-0.0565 0,-0.0824 0.0098,-0.0582 0.029387,-0.10823 0.041599,-0.16469 0.050003,-0.23101 -0.016439,-0.0148 0.062398,-0.28828 0.012402,-0.0429 0.031751,-0.0781 0.041599,-0.12352 0.011256,-0.052 0.010185,-0.11217 0.020798,-0.16469 0.00364,-0.0173 0.015363,-0.0251 0.020797,-0.0412 0.0172,-0.051 0.024399,-0.11366 0.041599,-0.16469 0.00544,-0.0173 0.016413,-0.0246 0.020798,-0.0412 0.0031,-0.0123 -0.0062,-0.035 0,-0.0412 0.034269,-0.034 0.063519,0.0434 0.020798,-0.0412"
       id="path941"
       inkscape:connector-curvature="0" />
    <path
       style="fill:none;stroke:#000000;stroke-width:0.46357131px;stroke-linecap:butt;stroke-linejoin:miter;stroke-opacity:1"
       d="m 7.2998219,294.72418 c 0.1178623,0.13732 0.2387826,0.26476 0.3535868,0.41185 0.00583,0.007 0,0.0274 0,0.0412 0,0.0412 -0.00772,0.0853 0,0.12352 0.00929,0.0458 0.028738,0.0811 0.041599,0.12352 0.00798,0.0264 0.011493,0.0579 0.020797,0.0823 0.011767,0.0311 0.031508,0.0491 0.041599,0.0824 0.063419,0.0291 0.00802,0.11414 0.020798,0.16469 0.047595,0.1886 -0.00862,-0.1748 0.041599,0.12351 0.0022,0.0123 -0.0031,0.0288 0,0.0412 0.00438,0.0172 0.016412,0.0247 0.020798,0.0412 0.0031,0.0123 -0.00491,0.0316 0,0.0412 0.00491,0.01 0.015895,-0.01 0.020801,0 0.00491,0.01 -0.00491,0.0316 0,0.0412 0.0098,0.0197 0.041599,-0.0274 0.041599,0 0,0.0197 -0.027733,0.0274 -0.020801,0.0412 0.0098,0.0197 0.027733,0 0.041599,0 0.00694,0 -0.027733,0 -0.020798,0 0.013866,0 0.027733,0 0.041599,0 0.00694,0 -0.015895,-0.01 -0.020797,0 -0.00491,0.01 -0.00491,0.0315 0,0.0412 0.00491,0.01 0.014598,-0.005 0.020797,0 0.00877,0.01 0.013866,0.0274 0.020801,0.0412 0.00694,0.0148 0.016412,0.0247 0.020797,0.0412 0.0031,0.0123 -0.00491,0.0316 0,0.0412 0.00491,0.01 0.015896,-0.01 0.020798,0 0.010397,0.0197 -0.010397,0.10305 0,0.12351 0.027733,0.055 0.020797,-0.0685 0.020797,0.0412"
       id="path943"
       inkscape:connector-curvature="0" />
  </g>
</svg>
