<?xml version="1.0" encoding="UTF-8" standalone="no"?>
<!-- Created with Inkscape (http://www.inkscape.org/) -->

<svg
   xmlns:dc="http://purl.org/dc/elements/1.1/"
   xmlns:cc="http://creativecommons.org/ns#"
   xmlns:rdf="http://www.w3.org/1999/02/22-rdf-syntax-ns#"
   xmlns:svg="http://www.w3.org/2000/svg"
   xmlns="http://www.w3.org/2000/svg"
   xmlns:sodipodi="http://sodipodi.sourceforge.net/DTD/sodipodi-0.dtd"
   xmlns:inkscape="http://www.inkscape.org/namespaces/inkscape"
   width="10mm"
   height="10mm"
   viewBox="0 0 10 10"
   version="1.1"
   id="svg837"
   inkscape:version="0.92.2 5c3e80d, 2017-08-06"
   sodipodi:docname="iso-3way-2.svg">
  <defs
     id="defs831">
    <inkscape:perspective
       sodipodi:type="inkscape:persp3d"
       inkscape:vp_x="-15.502741 : -0.68761461 : 1"
       inkscape:vp_y="0 : 1935.9757 : 0"
       inkscape:vp_z="25.090656 : 9.2983744 : 1"
       inkscape:persp3d-origin="19.059341 : -5.6235546 : 1"
       id="perspective1382" />
  </defs>
  <sodipodi:namedview
     id="base"
     pagecolor="#ffffff"
     bordercolor="#666666"
     borderopacity="1.0"
     inkscape:pageopacity="0.0"
     inkscape:pageshadow="2"
     inkscape:zoom="15.839192"
     inkscape:cx="17.49466"
     inkscape:cy="18.522341"
     inkscape:document-units="mm"
     inkscape:current-layer="layer1"
     showgrid="false"
     inkscape:window-width="1440"
     inkscape:window-height="855"
     inkscape:window-x="0"
     inkscape:window-y="1"
     inkscape:window-maximized="1"
     inkscape:snap-global="false" />
  <metadata
     id="metadata834">
    <rdf:RDF>
      <cc:Work
         rdf:about="">
        <dc:format>image/svg+xml</dc:format>
        <dc:type
           rdf:resource="http://purl.org/dc/dcmitype/StillImage" />
        <dc:title />
      </cc:Work>
    </rdf:RDF>
  </metadata>
  <g
     inkscape:label="Layer 1"
     inkscape:groupmode="layer"
     id="layer1"
     transform="translate(0,-287)">
    <path
       style="fill:none;stroke:#000000;stroke-width:0.41766325px;stroke-linecap:butt;stroke-linejoin:miter;stroke-opacity:1"
       d="m 0.76094934,287.95497 c -0.0771761,0 -0.15435228,0 -0.2315284,0 -0.004011,0 -0.0490813,-10e-4 -0.0496132,0 -0.003898,0.0102 0.002465,0.0294 0,0.0421 -0.003487,0.0176 -0.0110253,0.028 -0.0165379,0.0421 0,0.028 0.003487,0.0574 0,0.084 -0.0125895,0.0959 -0.0330755,-0.0259 -0.0330755,0.12611 0,0.0315 0.0220502,0.0562 0.0165379,0.084 -0.004931,0.0251 -0.0281449,-0.0252 -0.0330755,0 -0.005512,0.028 0.0165379,0.0528 0.0165379,0.084 0,0.0397 -0.0330755,0.0445 -0.0330755,0.084 0,0.0201 0.0165379,0.0227 0.0165379,0.0421 0,0.0315 -0.0126396,0.0543 -0.0165379,0.084 -0.003487,0.0267 0,0.0562 0,0.084 0,0.0981 0,0.19608 0,0.29431 0,0.084 0,0.16814 0,0.25228 0,0.028 0,0.0562 0,0.084 0,0.028 -0.003487,0.0576 0,0.084 0.002465,0.0176 0.0110253,0.028 0.0165379,0.0421 0.0165379,0.0421 0.0375803,0.0753 0.0496133,0.1261 0.005672,0.0251 0,0.0562 0,0.084 0.0110253,0.0421 0.0190211,0.0904 0.0330755,0.1261 0.008717,0.0227 0.0236059,0.0227 0.0330755,0.0421 0.0239562,0.0509 0.0397071,0.1261 0.066151,0.16812 0.0192741,0.0307 0.0472392,0.0102 0.066151,0.0421 0.0165376,0.028 0.0162207,0.0995 0.0330755,0.1261 0.0295652,0.0471 0.0680426,0.0445 0.0992265,0.084 0.024653,0.0315 0.041498,0.0949 0.066151,0.1261 0.0203295,0.0259 0.0445884,0.0227 0.066151,0.0421 0.0281628,0.0227 0.0548927,0.0576 0.0826886,0.084 0.016322,0.0151 0.034478,0.0201 0.049613,0.0421 0.023931,0.0347 0.039649,0.10697 0.06615,0.1261 0.016761,0.0126 0.032419,-0.0493 0.049613,-0.0421 0.019606,0.007 0.031835,0.0614 0.049613,0.084 0.015592,0.0201 0.034021,0.0227 0.049613,0.0421 0.00697,0.0102 0.00874,0.0421 0.016537,0.0421 0.017432,0 0.032181,-0.0421 0.049613,-0.0421 0.00552,0 -0.00493,0.0357 0,0.0421 0.00477,0.005 0.088657,0 0.099227,0 0.00552,0 -0.012639,0.0102 -0.016537,0 -0.0039,-0.0102 -0.0039,-0.0322 0,-0.0421 0.00871,-0.0227 0.024359,-0.0201 0.033076,-0.0421 0.0039,-0.0102 -0.012639,0.0102 -0.016537,0 -0.0039,-0.0102 0,-0.028 0,-0.0421 0,-0.0151 0,-0.028 0,-0.0421 0,-0.0151 -0.00552,-0.0421 0,-0.0421 0.00552,0 0.00552,0.0421 0,0.0421 -0.00552,0 0,-0.028 0,-0.0421 0,-0.0151 0,-0.028 0,-0.0421"
       id="path913"
       inkscape:connector-curvature="0" />
    <path
       style="fill:none;stroke:#000000;stroke-width:0.41766325px;stroke-linecap:butt;stroke-linejoin:miter;stroke-opacity:1"
       d="m 1.5547609,288.16522 c 0.00552,0.084 0.00409,0.17317 0.016538,0.25225 0.010237,0.0652 0.038419,0.1042 0.049613,0.16814 0.011416,0.0652 0.00914,0.1412 0.016538,0.21016 0.00918,0.0856 0.02205,0.16814 0.033076,0.25229 0.063232,0.48225 2.153e-4,0.0126 0.08269,0.58862 0.019668,0.13743 0.028954,0.28386 0.049613,0.42043 0.013275,0.0878 0.037176,0.1636 0.049613,0.25228 0.015289,0.10873 0.019706,0.22577 0.033076,0.33634 0.00873,0.0722 0.019799,0.14272 0.033076,0.21017 0.014375,0.073 0.040783,0.13164 0.049613,0.21018 0.00339,0.0302 -0.021115,0.0548 -0.016537,0.084 0.00868,0.0551 0.0404,0.0715 0.049613,0.1261 0.00869,0.0516 0,0.112 0,0.16813 0,0.0987 -0.0039,-0.0201 0.016538,0.084 0.00247,0.0126 0,0.028 0,0.0421 0.011025,0.028 0.02205,0.0562 0.033076,0.084 0.00552,0.0151 -0.013051,-0.0252 -0.016537,-0.0421 -0.00247,-0.0126 0,-0.028 0,-0.0421 0,-0.0841 0,-0.16813 0,-0.25227 0,-0.0562 0,-0.11201 0,-0.16814 0,-0.028 0.00155,-0.0564 0,-0.0841 -0.00398,-0.0708 -0.013993,-0.13918 -0.016537,-0.21017 -0.00299,-0.0838 0,-0.16813 0,-0.25224 0,-0.084 0,-0.16814 0,-0.25228 0,-0.0177 -0.00224,-0.24088 0,-0.25226 0.012664,-0.0644 0.029471,-0.033 0.049613,-0.084 0.00988,-0.0251 -0.017875,-0.084 0.016537,-0.084 0.00779,0 0.00874,0.0421 0.016537,0.0421 0.021829,0 0.011247,-0.084 0.033076,-0.084 0.047331,0 -0.010276,0.0788 0.033076,0.0421 0.011695,-0.0102 0.021117,-0.0345 0.033076,-0.0421 0.010696,-0.007 0.02205,0 0.033075,0 0.011025,0 0.022839,-0.0102 0.033076,0 0.2189341,0.22251 0.00224,-0.035 0.06615,0.16814 0.017218,0.0546 0.046661,0.0765 0.06615,0.1261 0.00871,0.0227 0.010196,0.0571 0.016537,0.084 0.010226,0.0433 0.02205,0.084 0.033076,0.1261 0.011025,0.0562 0.020844,0.11377 0.033075,0.16814 0.00986,0.0438 0.02115,0.0856 0.033076,0.12609 0.00467,0.0151 0.013642,0.0227 0.016537,0.0421 0.00845,0.0536 0.0081,0.11452 0.016537,0.16813 0.00289,0.0176 0.011025,0.028 0.016537,0.0421 0.00552,0.028 0.012639,0.0543 0.016537,0.084 0.00174,0.0126 -0.0039,0.0322 0,0.0421 0.00871,0.0227 0.027562,0.0151 0.033076,0.0421 0.00349,0.0177 -0.016538,0.0227 -0.016538,0.0421 0,0.0315 0.00782,0.0619 0.016538,0.084 0.0039,0.0102 0,-0.0562 0,-0.0421 0,0.0796 0,0.12157 0,0.0421"
       id="path915"
       inkscape:connector-curvature="0" />
    <path
       style="fill:none;stroke:#000000;stroke-width:0.41766325px;stroke-linecap:butt;stroke-linejoin:miter;stroke-opacity:1"
       d="m 3.671592,288.37544 c 0,0.23836 0,0.47649 0,0.71474 0,0.11227 -0.00293,0.22452 0,0.33638 0.00259,0.099 0.016536,0.19531 0.016536,0.29431 0,0.12686 -0.016536,0.25145 -0.016536,0.3784 0,0.0443 0.013671,0.0823 0.016536,0.1261 0.00821,0.12509 0.010705,0.25236 0.016536,0.37841 0.023423,0.50616 0.00718,0.16058 0.033076,0.58862 0.00593,0.0979 0.00777,0.19784 0.016539,0.29431 0.091357,0.69677 -0.00611,-0.13516 0.033076,0.46249 0.00129,0.0201 0.014648,0.0227 0.016536,0.0421 0.00668,0.068 -0.00668,0.14221 0,0.21017 0.00299,0.0304 0.012638,0.0543 0.016539,0.084 0.00349,0.0267 0,0.0562 0,0.084"
       id="path917"
       inkscape:connector-curvature="0" />
    <path
       style="fill:none;stroke:#000000;stroke-width:0.41766325px;stroke-linecap:butt;stroke-linejoin:miter;stroke-opacity:1"
       d="m 3.3904505,292.36967 c 0.071663,0 0.1433271,0 0.2149906,0 0.016536,0 0.033076,0 0.049613,0 0.016539,0 0.033301,0.007 0.049613,0 0.017194,-0.007 0.03252,-0.0335 0.049613,-0.0421 0.01081,-0.005 0.022051,0 0.033076,0 0.0441,0 0.088202,0 0.1323018,0 0.022051,0 0.0441,0 0.06615,0 0.00552,0 0.016539,-0.0151 0.016539,0 0,0.0151 -0.022051,0 -0.016539,0 0.011025,0 0.022051,0 0.033076,0 0.00552,0 -0.016536,0.0151 -0.016536,0 0,-0.0279 0.025281,0.0201 0.033075,0 0.0039,-0.0102 -0.0039,-0.0322 0,-0.0421 0.0039,-0.0102 0.021988,-0.002 0.016536,0 -0.077054,0.0302 -0.1543523,0.0559 -0.2315286,0.084"
       id="path919"
       inkscape:connector-curvature="0" />
    <path
       style="fill:none;stroke:#000000;stroke-width:0.41766325px;stroke-linecap:butt;stroke-linejoin:miter;stroke-opacity:1"
       d="m 3.671592,288.37544 c 0.016536,0.0562 0.045082,0.099 0.049613,0.16814 0.00425,0.0649 -0.055528,0.0992 -0.066152,0.1261 -0.014053,0.0357 -0.02066,0.0866 -0.033076,0.12609 -0.00974,0.0309 -0.022051,0.0562 -0.033076,0.084 -0.033075,0.084 -0.06615,0.16814 -0.099227,0.25227 -0.00552,0.0151 -0.011025,0.028 -0.016536,0.0421 -0.00552,0.0151 -0.013052,0.0252 -0.016539,0.0421 -0.00247,0.0126 0.0039,0.0323 0,0.0421 -0.0039,0.0102 -0.012638,-0.0102 -0.016536,0 -0.0039,0.0102 0.00552,0.0421 0,0.0421 -0.012326,0 -0.020749,-0.0421 -0.033076,-0.0421 -0.00779,0 0.020023,0.0251 0.016539,0.0421 -0.00552,0.028 -0.020749,0.0421 -0.033076,0.0421 -0.00779,0 0.024335,-0.0421 0.016536,-0.0421 -0.012326,0 -0.027562,0.0151 -0.033076,0.0421 -0.00349,0.0176 0.00874,0.0421 0.016536,0.0421 0.00552,0 0.00552,-0.0421 0,-0.0421 -0.012326,0 -0.024359,0.0201 -0.033076,0.0421 -0.0039,0.0102 0.022051,0 0.016536,0 -0.011025,0 -0.023213,-0.0126 -0.033075,0 -0.00493,0.005 0.00552,0.0421 0,0.0421 -0.00779,0 -0.011025,-0.0562 -0.016536,-0.0421 -0.00779,0.0201 0.00779,0.0642 0,0.084 -0.00552,0.0151 -0.00874,-0.0421 -0.016539,-0.0421 -0.00552,0 0.00247,0.0294 0,0.0421 -0.031996,0.1626 -0.00107,-0.12056 -0.033076,0.0421 -0.00247,0.0126 0.00552,0.0421 0,0.0421 -0.00552,0 0,-0.028 0,-0.0421"
       id="path921"
       inkscape:connector-curvature="0" />
    <path
       style="fill:none;stroke:#68b9a5;stroke-width:0.16502094;stroke-linecap:round;stroke-linejoin:miter;stroke-miterlimit:4;stroke-dasharray:none;stroke-opacity:1;paint-order:stroke fill markers"
       d="m 5.0630632,289.73852 c 0,0.0876 0,0.17568 0,0.26334 0,0.12308 0,0.24566 0,0.36886 0,0.0876 -0.0098,0.17821 0,0.26336 0.00707,0.0617 0.032352,0.10546 0.048527,0.15807 0.016175,0.12308 0.038848,0.24289 0.048527,0.36884 0.00665,0.0868 0,0.17568 0,0.26338 0,0.035 -0.00601,0.073 0,0.1052 0.010833,0.0586 0.044402,0.0952 0.048527,0.15807 0.00473,0.0715 -0.01878,0.13944 -0.02426,0.21067 -0.013814,0.17972 -0.00167,0.0454 0.02426,0.15807 0.00361,0.0151 0.00809,0.0526 0,0.0526 -0.00809,0 0,-0.035 0,-0.0526"
       id="path923"
       inkscape:connector-curvature="0" />
    <path
       style="fill:none;stroke:#68b9a5;stroke-width:0.16502094;stroke-linecap:round;stroke-linejoin:miter;stroke-miterlimit:4;stroke-dasharray:none;stroke-opacity:1;paint-order:stroke fill markers"
       d="m 4.845328,288.27537 c 0,0.25683 0,0.51346 0,0.77016 0,0.0151 0,-0.0603 0,-0.0453 0,0.0302 0,0.0604 0,0.0906 0,0.0151 -0.00526,-0.0347 0,-0.0453 0.00526,-0.0102 0.014858,0 0.022284,0 0.014858,0 0.029714,0 0.044571,0 0.00744,0 -0.025608,0.0126 -0.022284,0 0.0094,-0.0383 0.029715,-0.0604 0.044571,-0.0906 0.00744,-0.0151 -0.011781,0.0453 -0.022288,0.0453 -0.00744,0 -0.00526,-0.0347 0,-0.0453 0.010494,-0.0227 0.04457,0.0302 0.04457,0 0,-0.0227 -0.022284,-0.0251 -0.022284,-0.0453 0,-0.0151 0.01703,0.0102 0.022284,0 0.050348,-0.10219 -0.1192242,0 0.044571,0 0.010494,0 -0.017586,-0.0272 -0.022284,-0.0453 -0.00339,-0.0126 0,-0.11553 0,-0.13591 0,-0.0151 -0.00743,-0.0453 0,-0.0453 0.00744,0 0,0.0604 0,0.0453 0,-0.0605 0,-0.12083 0,-0.18123 0,-0.0151 0,-0.0302 0,-0.0453 0,-0.0151 -0.00743,-0.0453 0,-0.0453 0.00744,0 0.00526,0.0559 0,0.0453 -0.011741,-0.0252 -0.010538,-0.0667 -0.022284,-0.0906 -0.00526,-0.0102 0.00526,0.0559 0,0.0453 -0.011741,-0.0251 -0.022284,-0.0569 -0.022284,-0.0906 0,-0.0227 0.011781,0.0453 0.022284,0.0453 0.00743,0 0.00526,-0.0347 0,-0.0453 -0.00526,-0.0102 -0.015386,0.005 -0.022284,0 -0.030842,-0.0252 -0.1039982,-0.0302 -0.089142,-0.0906 0.014858,-0.0604 0.059426,0.0604 0,0 z"
       id="path925"
       inkscape:connector-curvature="0" />
    <path
       style="fill:none;stroke:#68b9a5;stroke-width:0.51303518;stroke-linecap:round;stroke-linejoin:miter;stroke-miterlimit:4;stroke-dasharray:none;stroke-opacity:1;paint-order:stroke fill markers"
       d="m 5.6033849,289.77873 c 0,0.24566 0,0.49104 0,0.7366 0,0.23408 0.00493,0.17216 0.022281,0.49106 0.00146,0.0252 -0.00332,0.0574 0,0.0818 0.011982,0.0881 0.039315,0.14875 0.044567,0.24565 0.00326,0.06 -0.029712,0.10924 -0.022286,0.16361 0.00664,0.0491 0.034062,-0.039 0.044567,0 0.00743,0.0315 -0.022281,0.0443 -0.022281,0.0818 0,0.039 0.012885,0.0646 0.022281,0.0818 0.00664,0.0102 0.02228,-0.0315 0.02228,0 0,0.039 -0.011776,0.0818 -0.02228,0.0818 -0.00743,0 0,-0.0543 0,-0.0818 0,-0.0543 0,-0.10923 0,-0.16335 0,-0.35462 0,-0.70931 0,-1.06399 0,-0.21847 0,-0.43656 0,-0.65481 0,-0.10924 -0.00939,-0.22376 0,-0.32723 0.00664,-0.0732 0.036765,-0.0921 0.044567,-0.16336 0.00827,-0.076 -0.012366,-0.17745 0,-0.24565 0.00825,-0.0443 0.036325,0.0443 0.044567,0 0.012366,-0.0684 -0.011456,-0.17519 0,-0.24566 0.013778,-0.084 0.051993,-0.0815 0.066849,-0.16361 0.00583,-0.035 -0.029712,-0.0543 -0.022281,-0.0816 0.016609,-0.0612 0.047305,-0.035 0.066849,-0.0818 0.00617,-0.0126 0,-0.0541 0,-0.0816 0,-0.19658 -0.00704,0 0.066849,0 0.00743,0 -0.00704,-0.073 0,-0.0818 0.02114,-0.0252 0.044566,0 0.066849,0 0.00743,0 -0.029712,0 -0.022281,0 0.014856,0 0.029712,0 0.044567,0 0.00743,0 0.017029,-0.0176 0.022281,0 0.00526,0.0176 -0.00446,0.0599 0,0.0818 0.018908,0.0926 0.047941,0.15278 0.066849,0.24566 0.00446,0.0176 -0.0018,0.0551 0,0.0818 0.00569,0.0838 0.011775,0.16839 0.02228,0.24566 0.038715,0.28462 0.1091675,0.50314 0.1336972,0.81852 0.00613,0.079 -0.00704,0.16814 0,0.24566 0.015756,0.17367 0.049354,0.31943 0.066848,0.49114 0.00521,0.0509 -0.00664,0.11452 0,0.16335 0.00939,0.0692 0.036764,0.0923 0.044566,0.16336 0.00827,0.076 -0.00437,0.16486 0,0.24565 0.00326,0.0599 0.018253,0.10446 0.022281,0.16361 0.0036,0.0531 -0.0036,0.11074 0,0.16335 0.02226,0.32723 0.022455,10e-4 0.066848,0.32723 0.00332,0.0252 -0.01896,-0.0252 -0.02228,0 -0.00665,0.0491 0,0.10924 0,0.16335 0,0.0312 0,-0.0543 0,-0.0818 0,-0.0818 0,-0.16385 0,-0.24566"
       id="path927"
       inkscape:connector-curvature="0" />
    <path
       style="fill:none;stroke:#68b9a5;stroke-width:0.16502094;stroke-linecap:round;stroke-linejoin:miter;stroke-miterlimit:4;stroke-dasharray:none;stroke-opacity:1;paint-order:stroke fill markers"
       d="m 7.3680402,287.36728 c 0,0.14071 -0.00676,0.2817 0,0.42157 0.00947,0.19532 0.043512,0.38355 0.048527,0.57959 0.032352,1.26466 -0.1205009,-0.77626 -0.024266,0.89582 0.00636,0.10999 0.042181,0.2059 0.048527,0.31614 0.010032,0.17443 0,0.35129 0,0.52693 0,0.404 0,0.80797 0,1.21195 0,0.21067 0,0.42152 0,0.63232 0,0.0201 0,-0.0703 0,-0.0526 0,0.0526 0,0.10521 0,0.15805 0,0.0201 -0.00572,0.0405 0,0.0526 0.014497,0.0315 0.048527,-0.0571 0.048527,0.0526 0,0.0251 -0.019151,0.0315 -0.024265,0.0526 -0.010967,0.0478 0.020898,0.13616 0.024265,0.15806 0.00457,0.0285 0,0.12333 0,0.15807"
       id="path929"
       inkscape:connector-curvature="0" />
    <path
       style="fill:none;stroke:#68b9a5;stroke-width:0.16502094;stroke-linecap:round;stroke-linejoin:miter;stroke-miterlimit:4;stroke-dasharray:none;stroke-opacity:1;paint-order:stroke fill markers"
       d="m 6.9313078,289.94924 c 0.032352,0 0.064701,0 0.097052,0 0.00809,0 -0.032352,0 -0.02426,0 0.159057,0 -0.086269,0 0.072788,0 0.00809,0 -0.032352,0 -0.024259,0 0.032352,0 0.064702,0 0.097052,0 0.00809,0 0.016417,-0.002 0.02426,0 0.024811,0.0126 0.047709,0.042 0.072788,0.0526 0.01586,0.005 0.032835,-0.007 0.048527,0 0.017544,0.007 0.030983,0.043 0.048527,0.0526 0.015693,0.007 0.032352,0 0.048527,0 0.056614,0 0.1132276,0 0.1698406,0 0.016175,0 0.032667,-0.005 0.048527,0 0.02508,0.007 0.047976,0.039 0.072788,0.0526 0.00784,0.002 0.016175,0 0.02426,0 0.02426,0 0.048527,0 0.072788,0 0.032352,0 0.064702,0 0.097052,0 0.080876,0 0.161753,0 0.2426291,0 0.00809,0 -0.016175,0 -0.024259,0"
       id="path931"
       inkscape:connector-curvature="0" />
    <path
       style="fill:none;stroke:#000000;stroke-width:0.41766325px;stroke-linecap:butt;stroke-linejoin:miter;stroke-opacity:1"
       d="m 2.2493461,294.26168 c 0.021776,0.11604 -0.01742,0.26029 0,0.37838 0.00969,0.0657 0.038208,0.10446 0.049613,0.16814 0.1349736,0.75495 -0.011365,-0.034 0.016537,0.4625 0.00281,0.0501 0.027615,0.0775 0.033076,0.1261 0.00606,0.0538 -0.00312,0.11275 0,0.16814 0.00247,0.0438 0.014072,0.0823 0.016538,0.12609 0.00312,0.0553 0,0.11226 0,0.16814 0,0.07 0,0.14019 0,0.21017 0,0.0151 0,-0.028 0,-0.0421 0,-0.0557 0,-0.0287 0,-0.084"
       id="path933"
       inkscape:connector-curvature="0" />
    <path
       style="fill:none;stroke:#000000;stroke-width:0.41766325px;stroke-linecap:butt;stroke-linejoin:miter;stroke-opacity:1"
       d="m 2.2493461,294.26168 c 0.079744,0.0453 0.1526271,0.0421 0.2315285,0.0421 0.016537,0 0.033924,0.0126 0.049613,0 0.018856,-0.0151 0.029937,-0.077 0.049613,-0.084 0.022501,-0.007 0.043598,0.035 0.06615,0.0421 0.02188,0.007 0.0441,0 0.06615,0 0.022051,0 0.044101,0 0.06615,0 0.060638,0 0.121277,0 0.1819152,0 0.061952,0 0.065957,0 0.099227,0 0.00552,0 -0.022051,0 -0.016536,0 0.011025,0 0.022051,0 0.033076,0 0.00552,0 0.014071,-0.0126 0.016536,0 0.00493,0.0252 -0.00349,0.0576 0,0.084 0.00247,0.0177 0.013052,0.0252 0.016536,0.0421 0.00493,0.0252 -0.00493,0.0589 0,0.0841 0.00349,0.0176 0.01305,0.0251 0.016536,0.0421 0.00247,0.0126 -0.00247,0.0294 0,0.0421 0.00349,0.0176 0.016536,0.0227 0.016536,0.0421 0,0.0201 -0.016536,0.0227 -0.016536,0.0421 0,0.0201 0.014071,0.0227 0.016536,0.0421 0.00349,0.0267 0,0.0562 0,0.0841 0,0.028 0,0.0562 0,0.084 0,0.028 0,0.0562 0,0.084 0,0.0151 0.00493,0.0358 0,0.0421 -0.00986,0.0126 -0.025281,-0.0201 -0.033076,0 -0.012326,0.0315 -0.00421,0.0949 -0.016536,0.12609 -0.012326,0.0315 -0.034665,0.0201 -0.049613,0.0421 -0.013369,0.0201 -0.022051,0.0562 -0.033076,0.084 -0.011025,0.028 -0.022051,0.0562 -0.033076,0.084 -0.00552,0.0151 -0.00874,0.0421 -0.016539,0.0421 -0.00779,0 -0.00914,-0.0483 -0.016536,-0.0421 -0.014792,0.0126 -0.022051,0.0562 -0.033076,0.084 -0.00552,0.0151 -0.00874,0.0421 -0.016536,0.0421 -0.017432,0 -0.033076,-0.0562 -0.049613,-0.0421 -0.01046,0.0102 0.00779,0.0641 0,0.084 -0.00552,0.0151 -0.00874,-0.0421 -0.016536,-0.0421 -0.017432,0 -0.032702,0.0312 -0.049613,0.0421 -0.00535,0.002 -0.011025,0 -0.016536,0 -0.033076,0 -0.066151,0 -0.099227,0 -0.011025,0 -0.022617,0.0102 -0.033076,0 -0.0074,-0.005 -0.00957,-0.0332 -0.016537,-0.0421 -0.00493,-0.005 -0.011025,0 -0.016537,0 -0.011025,-0.028 -0.02205,-0.0562 -0.033076,-0.084 -0.00552,-0.0151 -0.00874,-0.0421 -0.016538,-0.0421 -0.00779,0 -0.00957,0.0509 -0.016537,0.0421 -0.011025,-0.0151 -0.00552,-0.07 -0.016537,-0.084 -0.00697,-0.0102 -0.00957,0.0332 -0.016537,0.0421 -0.00493,0.005 -0.011308,0.005 -0.016537,0 -0.011695,-0.0102 -0.027563,-0.0151 -0.033076,-0.0421 -0.00349,-0.0176 0.00874,-0.0421 0.016537,-0.0421 0.00552,0 0.00493,0.0358 0,0.0421 -0.00986,0.0126 -0.02205,0 -0.033075,0 -0.00552,0 0.02205,0 0.016538,0 -0.011025,0 -0.02205,0 -0.033076,0 -0.00552,0 0.017554,-0.0126 0.016537,0 -0.016754,0.22703 -0.044101,0.44832 -0.06615,0.67248"
       id="path935"
       inkscape:connector-curvature="0" />
    <path
       style="fill:none;stroke:#000000;stroke-width:0.41766325px;stroke-linecap:butt;stroke-linejoin:miter;stroke-opacity:1"
       d="m 3.9692715,294.55599 c -0.071663,0 -0.1433271,0 -0.2149906,0 -0.011025,0 -0.022617,0.0102 -0.033076,0 -0.0074,-0.005 -0.00874,-0.0421 -0.016539,-0.0421 -0.00779,0 -0.010051,0.0309 -0.016536,0.0421 -0.010255,0.0177 -0.024359,0.0201 -0.033076,0.0421 -0.00871,0.0227 -0.00628,0.0667 -0.016536,0.084 -0.00918,0.0151 -0.02528,-0.0201 -0.033076,0 -0.012327,0.0315 -0.012309,0.083 -0.016536,0.1261 -0.00134,0.0126 0.0039,0.0322 0,0.0421 -0.00871,0.0227 -0.029177,0.0126 -0.033075,0.0421 -0.0039,0.0297 0.018954,0.0534 0.016539,0.084 -0.0039,0.0495 -0.029177,0.0765 -0.033076,0.1261 -0.00241,0.0307 0.014122,0.0534 0.016536,0.084 0.00277,0.0352 0,0.3499 0,0.3784 0,0.028 -0.00493,0.0591 0,0.084 0.00697,0.0355 0.026104,0.0486 0.033075,0.0841 0.00493,0.0251 -0.0041,0.0581 0,0.084 0.00739,0.0468 0.019023,0.0904 0.033076,0.1261 0.0039,0.0102 0.011607,-0.005 0.016536,0 0.00697,0.0102 0.011025,0.028 0.016536,0.0421 0.00552,0.0151 0.013052,0.0251 0.016539,0.0421 0.00247,0.0126 -0.0039,0.0322 0,0.0421 0.023507,0.18223 0.034821,-0.0177 0.049613,0 0.011025,0.0151 0.00484,0.0742 0.016536,0.084 0.011693,0.0102 0.021118,-0.0345 0.033076,-0.0421 0.011193,-0.007 0.1051219,0 0.1157642,0 0.045987,0 0.1427563,0.0251 0.1819152,-0.0421 0.00459,-0.007 -0.00459,-0.0342 0,-0.0421 0.00324,-0.005 0.075082,-0.0552 0.082689,-0.084 0.00612,-0.0227 -0.00779,-0.0641 0,-0.084 0.012326,-0.0315 0.033428,-0.0256 0.049613,-0.0421 0.011445,-0.0126 0.023213,-0.0227 0.033076,-0.0421 0.012474,-0.0227 0.020602,-0.0605 0.033075,-0.084 0.00986,-0.0176 0.026238,-0.0151 0.033076,-0.0421 0.00612,-0.0227 -0.00779,-0.0641 0,-0.084 0.012327,-0.0315 0.034021,-0.0227 0.049613,-0.0421 0.00697,-0.0102 0.011025,-0.028 0.016536,-0.0421 0.011025,-0.028 0.026103,-0.0486 0.033076,-0.084 0.00493,-0.0251 -0.00612,-0.0607 0,-0.0841 0.00684,-0.0261 0.027563,-0.0151 0.033076,-0.0421 0.00349,-0.0176 -0.020023,-0.0251 -0.016536,-0.0421 0.00552,-0.028 0.029178,-0.0126 0.033076,-0.0421 0.0039,-0.0297 -0.016536,-0.0529 -0.016536,-0.084 0,-0.0151 0.014071,0.0126 0.016536,0 0.00493,-0.0252 0,-0.0562 0,-0.084 0,-0.028 0,-0.0562 0,-0.084 0,-0.028 0.00779,-0.0642 0,-0.084 -0.00779,-0.0201 -0.023622,0.0151 -0.033076,0 -0.013689,-0.0201 -0.079179,-0.20136 -0.099227,-0.25227 -0.00552,-0.0151 -0.00957,-0.0332 -0.016536,-0.0421 -0.016536,-0.0151 -0.033076,-0.028 -0.049613,-0.0421 0,0.0151 0.00552,0.0421 0,0.0421 -0.00779,0 -0.00957,-0.0332 -0.016539,-0.0421 -0.015591,-0.0201 -0.032181,-0.0421 -0.049613,-0.0421 -0.00552,0 0.00552,0.0421 0,0.0421 -0.034865,0 -0.064362,-0.084 -0.099227,-0.084 -0.00552,0 0.0039,0.0322 0,0.0421 -0.0039,0.0102 -0.011238,-0.005 -0.016536,0 -0.033523,0.0252 -0.06615,0.0562 -0.099227,0.084 z"
       id="path937"
       inkscape:connector-curvature="0" />
    <path
       style="fill:none;stroke:#000000;stroke-width:0.41766325px;stroke-linecap:butt;stroke-linejoin:miter;stroke-opacity:1"
       d="m 4.9780736,294.59803 c 0,0.23837 0,0.47652 0,0.71475 0,0.07 -0.00274,0.14044 0,0.21017 0.0028,0.071 0.014203,0.13893 0.016536,0.21016 0.00321,0.0976 0,0.19608 0,0.29431 0,0.21018 0,0.42045 0,0.63066 0,0.0151 -0.00493,-0.0357 0,-0.0421 0.00986,-0.0126 0.028144,0.0252 0.033076,0 0.00552,-0.0279 -0.025254,-0.0619 -0.016539,-0.084 0.00872,-0.0227 0.021383,0.0519 0.033076,0.0421 3.668e-4,-3e-4 0.020262,-0.1261 0.033076,-0.1261 0.00779,0 0.00897,0.0468 0.016536,0.0421 0.063051,0.22678 0.047158,-0.12207 0.049613,-0.1261 0.014504,-0.0252 0.032852,-0.0299 0.049613,-0.0421 0.021854,-0.0151 0.044296,-0.0261 0.06615,-0.0421 0.016762,-0.0126 0.032419,-0.0347 0.049613,-0.0421 0.016311,-0.007 0.033568,0.0102 0.049613,0 0.00757,-0.005 0.00874,-0.0421 0.016536,-0.0421 0.0441,0 -0.019214,0.12963 0.049613,0.0421 0.00493,-0.005 -0.0039,-0.0322 0,-0.0421 0.00871,-0.0227 0.020749,-0.0421 0.033076,-0.0421 0.00779,0 -0.022051,0.028 -0.016536,0.0421 0.00779,0.0201 0.025281,0.0201 0.033076,0 0.00552,-0.0151 -0.016536,-0.0227 -0.016536,-0.0421 0,-0.0151 0.011025,0 0.016536,0 0.00552,0 0.016536,-0.0151 0.016536,0 0,0.0151 -0.016536,0.0151 -0.016536,0 0,-0.0201 0.00874,-0.0421 0.016536,-0.0421 0.00552,0 0,0.028 0,0.0421"
       id="path939"
       inkscape:connector-curvature="0" />
    <path
       style="fill:none;stroke:#000000;stroke-width:0.41766325px;stroke-linecap:butt;stroke-linejoin:miter;stroke-opacity:1"
       d="m 5.7718855,294.55599 c 0.027562,0.0421 0.055125,0.084 0.082689,0.12611 0.00552,0.028 0.00691,0.0644 0.016536,0.084 0.019251,0.039 0.045011,0.0519 0.06615,0.084 0.00668,0.0102 0.010051,0.031 0.016536,0.0421 0.010255,0.0176 0.022818,0.0252 0.033076,0.0421 0.030259,0.0514 0.00165,0.0536 0.049613,0.084 0.010695,0.007 0.023902,-0.0151 0.033076,0 0.010258,0.0176 0.00552,0.07 0.016536,0.084 0.012916,0.0176 0.014058,-0.0904 0.033076,-0.0421 0.0039,0.0102 -0.00493,0.0358 0,0.0421 0.00986,0.0126 0.022051,0 0.033076,0 0.00552,0 -0.022051,0 -0.016536,0 0.011025,0 0.022051,0 0.033076,0 0.00552,0 -0.022051,0 -0.016536,0 0.1084141,0 -0.0588,0 0.049613,0 0.00552,0 -0.022051,0 -0.016536,0 0.011025,0 0.022051,0 0.033076,0 0.022051,0 -0.060638,0.0151 -0.016536,-0.0421 0.00986,-0.0126 0.025281,0.0201 0.033076,0 0.00552,-0.0151 -0.01305,-0.0252 -0.016536,-0.0421 -0.00247,-0.0126 -0.00247,-0.0294 0,-0.0421 0.012589,-0.0639 0.033076,-0.0252 0.033076,-0.1261 0,-0.0151 -0.016536,0.0151 -0.016536,0 0,-0.0443 0.012309,-0.083 0.016536,-0.1261 0.00134,-0.0126 -0.00247,-0.0294 0,-0.0421 0.017778,-0.0904 0.051387,-0.15831 0.06615,-0.25224 0.0041,-0.0259 -0.00349,-0.0576 0,-0.084 0.00779,-0.0594 0.023365,-0.1105 0.033076,-0.16814 0.039759,-0.23584 -0.013071,-0.0151 0.049613,-0.29431 0.00986,-0.0438 0.025246,-0.0798 0.033076,-0.1261 0.00895,-0.0531 0.0081,-0.11452 0.016536,-0.16814 0.00289,-0.0176 0.012215,-0.0256 0.016536,-0.0421 0.013676,-0.0521 0.019399,-0.11604 0.033076,-0.16814 0.00433,-0.0177 0.01305,-0.0251 0.016536,-0.0421 0.00247,-0.0126 -0.00493,-0.0358 0,-0.0421 0.027247,-0.0347 0.050506,0.0443 0.016536,-0.0421"
       id="path941"
       inkscape:connector-curvature="0" />
    <path
       style="fill:none;stroke:#000000;stroke-width:0.41766325px;stroke-linecap:butt;stroke-linejoin:miter;stroke-opacity:1"
       d="m 5.8545742,294.6821 c 0.093714,0.14019 0.1898593,0.2703 0.2811417,0.42046 0.00463,0.007 0,0.028 0,0.0421 0,0.0421 -0.00614,0.0871 0,0.1261 0.00739,0.0468 0.022849,0.0828 0.033076,0.1261 0.00635,0.027 0.00914,0.0591 0.016536,0.084 0.00936,0.0317 0.025053,0.05 0.033076,0.084 0.050425,0.0297 0.00638,0.11653 0.016536,0.16812 0.037844,0.19256 -0.00685,-0.17845 0.033076,0.12611 0.00175,0.0126 -0.00247,0.0294 0,0.0421 0.00349,0.0176 0.013049,0.0252 0.016536,0.0421 0.00247,0.0126 -0.0039,0.0323 0,0.0421 0.0039,0.0102 0.012638,-0.0102 0.016539,0 0.0039,0.0102 -0.0039,0.0323 0,0.0421 0.00779,0.0201 0.033076,-0.028 0.033076,0 0,0.0201 -0.022051,0.028 -0.016539,0.0421 0.00779,0.0201 0.022051,0 0.033076,0 0.00552,0 -0.022051,0 -0.016536,0 0.011025,0 0.022051,0 0.033076,0 0.00552,0 -0.012638,-0.0102 -0.016536,0 -0.0039,0.0102 -0.0039,0.0322 0,0.0421 0.0039,0.0102 0.011607,-0.005 0.016536,0 0.00697,0.0102 0.011025,0.028 0.016539,0.0421 0.00552,0.0151 0.013049,0.0252 0.016536,0.0421 0.00247,0.0126 -0.0039,0.0323 0,0.0421 0.0039,0.0102 0.012638,-0.0102 0.016536,0 0.00827,0.0201 -0.00827,0.10521 0,0.1261 0.022051,0.0562 0.016536,-0.07 0.016536,0.0421"
       id="path943"
       inkscape:connector-curvature="0" />
    <path
       style="fill:none;stroke:#68b9a5;stroke-width:0.10260703;stroke-linecap:butt;stroke-linejoin:miter;stroke-miterlimit:4;stroke-dasharray:none;stroke-opacity:1"
       d="m 7.7894901,287.61863 c 0.0441,0 0.088202,0 0.1323018,0 0.00552,0 -0.021469,0.005 -0.016536,0 0.015591,-0.0201 0.034021,-0.0227 0.049613,-0.0421 0.00493,-0.005 -0.020437,0.0102 -0.016536,0 0.021469,-0.0546 0.039951,-0.0421 0.06615,-0.0421 0.00552,0 -0.020437,0.0102 -0.016536,0 0.00871,-0.0227 0.021118,-0.0345 0.033076,-0.0421 0.010695,-0.007 0.02528,0.0201 0.033076,0 0.00552,-0.0151 -0.01305,-0.0251 -0.016536,-0.0421 -0.00247,-0.0126 0,-0.0279 0,-0.0421 0,-0.0102 0.00273,-0.12256 0,-0.1261 -0.00986,-0.0126 -0.02528,0.0201 -0.033076,0 -0.00552,-0.0151 0.022051,-0.028 0.016536,-0.0421 -0.00518,-0.0126 -0.077529,0.0126 -0.08269,0 -0.0039,-0.0102 0.00493,-0.0357 0,-0.0421 -0.014792,-0.0177 -0.034821,0.0176 -0.049613,0 -0.00697,-0.0102 -0.00957,-0.0332 -0.016536,-0.0421 -0.00503,-0.007 -0.042165,0 -0.049613,0 -0.062475,0 0.073502,0 -0.033076,0 -0.00552,0 0.022051,0 0.016536,0 -0.011025,0 -0.022051,0 -0.033076,0 -0.00552,0 0.016536,-0.0151 0.016536,0 0,0.0151 -0.011607,-0.005 -0.016536,0 -0.00697,0.0102 -0.00957,0.0332 -0.016536,0.0421 -0.00493,0.005 -0.012638,-0.0102 -0.016536,0 -0.0039,0.0102 0.0039,0.0322 0,0.0421 -0.0039,0.0102 -0.012638,-0.0102 -0.016536,0 -0.0039,0.0102 0.0039,0.0322 0,0.0421 -0.0039,0.0102 -0.012638,-0.0102 -0.016536,0 -0.0039,0.0102 0.00247,0.0294 0,0.0421 -0.00349,0.0177 -0.013052,0.0252 -0.016536,0.0421 -0.00299,0.0151 0,0.18098 0,0.21017 0,0.0227 -0.00218,0.15707 0,0.16814 0.034413,0.17493 -0.00115,-0.045 0.033076,0.0421 0.0039,0.0102 -0.0039,0.0322 0,0.0421 0.0039,0.0102 0.011607,-0.005 0.016536,0 0.013945,0.0176 0.01913,0.0665 0.033076,0.084 0.00492,0.005 0.09227,0 0.099227,0 0.00552,0 -0.011025,0 -0.016536,0"
       id="path2324"
       inkscape:connector-curvature="0" />
    <path
       style="fill:none;stroke:#68b9a5;stroke-width:0.16306625;stroke-linecap:butt;stroke-linejoin:miter;stroke-miterlimit:4;stroke-dasharray:none;stroke-opacity:1"
       d="m 7.8860091,288.2182 c 0.424086,1.04015 0.2584225,0.35321 0.1972476,1.12223 l 0.00487,-0.0612 -0.00975,0.12257 c -0.00176,0.0227 -0.00432,-0.066 0.00487,-0.0612 0.00918,0.005 -0.00652,0.0818 -0.00487,0.0612 l 0.034131,-0.42905 0.00975,-0.12258 c 0.00324,-0.0407 -0.00138,-0.0901 0.00975,-0.12257 0.00548,-0.0151 0.019859,0.0256 0.027524,0.0151 0.00767,-0.0126 -6.898e-4,-0.045 0.00487,-0.0612 0.00784,-0.0227 0.030154,-0.0201 0.032391,-0.0471 0.00176,-0.0227 -0.018351,-0.0102 -0.027524,-0.0151 0.014047,-0.0564 0.018017,-0.13491 0.042145,-0.16965 0.010946,-0.0176 0.020341,0.10446 0.022657,0.0753 0.00365,-0.0457 -0.027717,-0.0966 -0.01777,-0.13667 0.00993,-0.0397 0.039403,-0.0435 0.05992,-0.033 0.00918,0.005 -0.012497,0.0722 -0.00487,0.0612 0.017131,-0.0256 0.024867,-0.0725 0.037277,-0.10848 0.029295,-0.007 0.060478,0.005 0.087446,-0.0176 0.00842,-0.005 -0.00432,-0.066 0.00487,-0.0612 0.012969,0.007 0.00969,0.0687 0.022657,0.0753 0.012968,0.007 0.02032,-0.0365 0.032391,-0.0471 0.019111,-0.0177 0.039403,-0.0433 0.05992,-0.033 0.012969,0.007 0.00969,0.0687 0.022657,0.0753 0.012968,0.007 0.019764,-0.0402 0.032391,-0.0471 0.0088,-0.002 0.018351,0.0102 0.027529,0.0151 0.00918,0.005 0.02929,-0.007 0.027524,0.0151 -0.00176,0.0227 -0.02929,0.007 -0.027524,-0.0151 0.00176,-0.0227 0.018351,0.0102 0.027524,0.0151 l 0.027529,0.0151"
       id="path2326"
       inkscape:connector-curvature="0"
       sodipodi:nodetypes="cccssscssccsccssscccsscsscssssc" />
    <path
       style="fill:none;stroke:#68b9a5;stroke-width:0.10260703;stroke-linecap:butt;stroke-linejoin:miter;stroke-miterlimit:4;stroke-dasharray:none;stroke-opacity:1"
       d="m 8.3683109,289.25837 c 0,0.22426 0,0.44848 0,0.67272 0,0.0421 0,0.084 0,0.12609 0,0.0151 0,0.0562 0,0.0421 0,-0.0421 0,-0.084 0,-0.1261 0.00552,-0.0151 0.014071,-0.0227 0.016536,-0.0421 0.00349,-0.0267 -0.00567,-0.0602 0,-0.084 0.012034,-0.0511 0.035002,-0.0798 0.049613,-0.1261 0.0077,-0.0252 0.010195,-0.0572 0.016539,-0.084 0.010226,-0.0433 0.022849,-0.0828 0.033076,-0.1261 0.00635,-0.027 0.00667,-0.0652 0.016536,-0.084 0.013946,-0.0267 0.037286,-0.0102 0.049613,-0.0421 0.00779,-0.0201 0,-0.0562 0,-0.084 0.022051,-0.0421 0.04056,-0.10018 0.06615,-0.1261 0.00724,-0.007 0.00957,0.0509 0.016536,0.0421 2.367e-4,-2.9e-4 0.020337,-0.12609 0.033076,-0.12609 0.00779,0 0.00874,0.042 0.016536,0.042 0.00779,0 0.00914,-0.0357 0.016539,-0.042 0.01046,-0.0102 0.022051,0 0.033076,0 0.00552,0 -0.022051,0 -0.016539,0 0.011025,0 0.022051,0 0.033076,0 0.00552,0 -0.016536,-0.0151 -0.016536,0 0,0.0315 0.012638,0.0543 0.016536,0.084 0.00331,0.0252 0,0.17669 0,0.21017 0,0.14019 0,0.28029 0,0.42044 0,0.0421 0.00401,0.0854 0,0.12609 -0.00189,0.0201 -0.011025,0.028 -0.016536,0.0421 -0.00552,0.0562 -0.013323,0.111 -0.016539,0.16814 -0.00233,0.0416 0.00523,0.0863 0,0.1261 -0.00629,0.0478 -0.025695,0.0793 -0.033076,0.1261 -0.0041,0.0259 0.00267,0.0569 0,0.084 -0.00299,0.0304 -0.013547,0.0536 -0.016536,0.084 -0.00535,0.0543 0.00433,0.11326 0,0.16812 -0.00342,0.0435 -0.01231,0.083 -0.016539,0.12611 -0.00134,0.0126 0.0039,0.0323 0,0.0421 -0.027562,0.07 -0.016536,-0.15429 -0.016536,0.084"
       id="path2328"
       inkscape:connector-curvature="0" />
    <path
       style="fill:none;stroke:#68b9a5;stroke-width:0.10260703;stroke-linecap:butt;stroke-linejoin:miter;stroke-miterlimit:4;stroke-dasharray:none;stroke-opacity:1"
       d="m 9.0298207,290.30949 c -0.038588,0 -0.077176,0 -0.1157642,0 -0.00552,0 0.022051,0 0.016536,0 -0.011025,0 -0.022051,0 -0.033076,0 -0.00552,0 -0.016536,0.0151 -0.016536,0 0,-0.0151 0.018281,-0.0126 0.016536,0 -0.00629,0.0478 -0.02679,0.0782 -0.033076,0.1261 -0.00175,0.0126 0.019005,-0.0126 0.016539,0 -0.00697,0.0355 -0.030018,0.0453 -0.033076,0.084 -0.00342,0.0435 0.016536,0.0818 0.016536,0.1261 0,0.0885 -0.033076,0.16361 -0.033076,0.25225 0,0.11653 0.03574,0.0461 0.016539,0.16814 -0.00739,0.0468 -0.029177,0.0765 -0.033076,0.1261 -0.00241,0.0307 0.013547,0.0536 0.016536,0.084 0.00267,0.0272 0,0.0562 0,0.084 0,0.0562 0,0.11226 0,0.16813 0,0.028 -0.00493,0.0591 0,0.084 0.00247,0.0126 0.011607,-0.005 0.016539,0 0.00697,0.0102 0.00897,0.0373 0.016536,0.0421 0.016044,0.0102 0.033924,-0.0126 0.049613,0 0.00523,0.005 -0.00493,0.0358 0,0.0421 0.00986,0.0126 0.022051,0 0.033076,0 0.038588,0 0.077176,0 0.1157642,0 0.00162,0 0.09752,0.002 0.099227,0 0.00493,-0.005 -0.0039,-0.0322 0,-0.0421 0.00871,-0.0227 0.027563,-0.0151 0.033075,-0.0421 0.033354,-0.16964 -0.054571,0.061 -0.016536,-0.084 0.011025,-0.028 0.022051,-0.0562 0.033076,-0.0841 -0.00552,-0.0151 -0.020023,-0.0252 -0.016536,-0.0421 0.00552,-0.028 0.027562,-0.0151 0.033076,-0.0421 0.00349,-0.0177 -0.014071,-0.0227 -0.016536,-0.0421 -0.00349,-0.0267 0,-0.0562 0,-0.084 0,-0.0102 -5.238e-4,-0.12485 0,-0.1261 0.0039,-0.0102 0.012638,0.0102 0.016536,0 0.0039,-0.0102 0,-0.028 0,-0.0421 0,-0.0337 0.00347,-0.1417 0,-0.16813 -0.0039,-0.0297 -0.012638,-0.0543 -0.016536,-0.0841 -0.00523,-0.04 0.00523,-0.0863 0,-0.1261 -0.00247,-0.0176 -0.013049,-0.0251 -0.016536,-0.0421 -0.00513,-0.0261 0.00507,-0.18449 0,-0.21016 -0.00247,-0.0126 -0.012638,0.0102 -0.016536,0 -0.0039,-0.0102 0.0039,-0.0323 0,-0.0421 -0.0039,-0.0102 -0.016536,0.0151 -0.016536,0 0,-0.0201 0.022051,-0.028 0.016536,-0.0421 -0.00779,-0.0201 -0.02528,0.0201 -0.033076,0 -0.00552,-0.0151 0.016539,-0.0227 0.016539,-0.0421 0,-0.028 -0.033076,0.028 -0.033076,0 0,-0.0201 0.022051,-0.028 0.016536,-0.0421 -0.00779,-0.0201 -0.022051,0 -0.033076,0 -0.00552,0 0.022051,0 0.016539,0 -0.011025,0 -0.022051,0 -0.033076,0 -0.00552,0 0.016536,-0.0151 0.016536,0 0,0.0151 -0.014071,-0.0126 -0.016536,0 -0.021273,0.10823 0.046515,0.17745 0.06615,0.25226 0.075606,0.28833 -0.07463,-0.18979 0.06615,0.16812 0.0039,0.0102 -0.00247,0.0294 0,0.0421 0.00349,0.0177 0.012215,0.0256 0.016539,0.0421 0.00684,0.0262 0.00782,0.0619 0.016536,0.084 0.00872,0.0227 0.022822,0.0252 0.033076,0.0421 0.00649,0.0102 0.011025,0.028 0.016539,0.0421 0.00552,0.0151 0.01305,0.0252 0.016536,0.0421 0.00493,0.0252 -0.00493,0.0589 0,0.084 0.012665,0.0644 0.029471,0.033 0.049613,0.084 0.00871,0.0227 0.00971,0.0581 0.016536,0.084 0.00433,0.0177 0.01305,0.0251 0.016539,0.0421 0.00247,0.0126 -0.0039,0.0322 0,0.0421 0.00871,0.0227 0.024359,0.0201 0.033076,0.0421 0.00779,0.0201 -0.00779,0.0641 0,0.084 0.0039,0.0102 0.012638,-0.0102 0.016536,0 0.0039,0.0102 -0.0039,0.0322 0,0.0421 0.022051,0.0562 0.016536,-0.07 0.016536,0.0421"
       id="path2330"
       inkscape:connector-curvature="0" />
    <path
       style="fill:none;stroke:#68b9a5;stroke-width:0.10260703;stroke-linecap:butt;stroke-linejoin:miter;stroke-miterlimit:4;stroke-dasharray:none;stroke-opacity:1"
       d="m 9.1290472,294.00941 c 0.033076,0 0.066483,0.0126 0.099227,0 0.00771,-0.002 0.011025,-0.028 0.016536,-0.0421 0.011025,-0.0279 0.020602,-0.0604 0.033076,-0.084 0.00986,-0.0176 0.02436,-0.0201 0.033076,-0.0421 0.00871,-0.0227 0.00971,-0.0579 0.016536,-0.084 0.049727,-0.18953 -0.036777,0.30226 0.049613,-0.21017 0.044975,-0.036 0.0081,-0.11452 0.016536,-0.16814 0.00916,-0.0581 0.020392,-0.11452 0.033075,-0.16813 0.00401,-0.0176 0.014071,-0.0227 0.016539,-0.0421 0.00349,-0.0266 0,-0.0562 0,-0.084 0,-0.0368 -0.00218,-0.23559 0,-0.25227 0.00175,-0.0126 0.012638,0.0102 0.016536,0 0.0039,-0.0102 0,-0.0279 0,-0.0421 0,-0.0201 0.00267,-0.27395 0,-0.29431 -0.0039,-0.0297 -0.00782,-0.0619 -0.016536,-0.084 -0.0039,-0.0102 0,0.0562 0,0.0421 0,-0.028 0.00986,-0.0715 0,-0.084 -0.011025,-0.0151 -0.022051,0.0562 -0.033076,0.0421 -0.00986,-0.0126 0.00779,-0.0641 0,-0.084 -0.00552,-0.0151 -0.00957,0.0332 -0.016539,0.0421 -0.00503,0.007 -0.042165,0 -0.049613,0 -0.00401,0 -0.049082,-0.001 -0.049613,0 -0.00872,0.0227 -0.00552,0.07 -0.016539,0.0841 -0.00697,0.0102 -0.00957,-0.0509 -0.016536,-0.0421 -0.011025,0.0151 -0.00971,0.0581 -0.016539,0.084 -0.00433,0.0177 -0.016536,0.0227 -0.016536,0.0421 0,0.0201 0.022051,0.028 0.016536,0.0421 -0.012589,0.032 -0.033076,-0.21192 -0.033076,0.0421 0,0.0201 0.016539,-0.0619 0.016539,-0.0421 0,0.0315 -0.00782,0.0619 -0.016539,0.084 -0.0039,0.0102 0.0039,-0.0519 0,-0.0421 -0.00871,0.0227 -0.016536,0.0529 -0.016536,0.084 0,0.0201 0.011025,-0.0562 0.016536,-0.0421 0.00779,0.0201 0,0.0562 0,0.084 0,0.0151 0.00247,0.0294 0,0.0421 -0.00349,0.0176 -0.00874,0.0421 -0.016536,0.0421 -0.00552,0 0,-0.0562 0,-0.0421 0,0.0227 -0.00202,0.28749 0,0.29431 -0.026315,0.17795 0.052067,0.0601 0.06615,0.084 0.012974,0.0227 0.022051,0.0562 0.033076,0.084 0.025309,0.0644 0.047918,0.13289 0.08269,0.16814 0.010237,0.0102 0.023902,-0.0151 0.033076,0 0.010255,0.0176 0.00628,0.0667 0.016536,0.084 0.00918,0.0151 0.023213,-0.0126 0.033076,0 0.013946,0.0177 0.020602,0.0605 0.033076,0.084 0.019721,0.0375 0.045638,0.0493 0.066151,0.084 0.00649,0.0102 0.00957,0.0332 0.016536,0.0421 0.00986,0.0126 0.023213,-0.0126 0.033076,0 0.017778,0.0227 0.031835,0.0614 0.049613,0.084 0.00697,0.0102 -0.016539,-0.0619 -0.016539,-0.0421 0,0.20337 0.020486,0.0421 0.033075,0.0421 0.011025,0 -0.011025,0.084 0,0.084 0.00779,0 0.00874,-0.0421 0.016539,-0.0421 0.011025,0 -0.011025,0.084 0,0.084 0.00779,0 0.011025,-0.028 0.016536,-0.0421"
       id="path2332"
       inkscape:connector-curvature="0" />
  </g>
</svg>
