<?xml version="1.0" encoding="UTF-8" standalone="no"?>
<svg
   width="5mm"
   height="3mm"
   viewBox="0 0 10 6"
   version="1.1"
   id="svg5"
   sodipodi:docname="single.svg"
   inkscape:version="1.4.4 (dcaf3e7, 2026-05-05)"
   xmlns:inkscape="http://www.inkscape.org/namespaces/inkscape"
   xmlns:sodipodi="http://sodipodi.sourceforge.net/DTD/sodipodi-0.dtd"
   xmlns="http://www.w3.org/2000/svg"
   xmlns:svg="http://www.w3.org/2000/svg">
  <defs
     id="defs5" />
  <sodipodi:namedview
     id="namedview5"
     pagecolor="#ffffff"
     bordercolor="#000000"
     borderopacity="0.25"
     inkscape:showpageshadow="2"
     inkscape:pageopacity="0.0"
     inkscape:pagecheckerboard="0"
     inkscape:deskcolor="#d1d1d1"
     inkscape:document-units="mm"
     inkscape:zoom="41.627778"
     inkscape:cx="8.7681836"
     inkscape:cy="8.2997464"
     inkscape:window-width="1728"
     inkscape:window-height="1056"
     inkscape:window-x="0"
     inkscape:window-y="33"
     inkscape:window-maximized="0"
     inkscape:current-layer="g5" />
  <g
     fill="none"
     stroke="#000"
     stroke-width="0.55"
     stroke-linecap="round"
     stroke-linejoin="round"
     id="g3">
    <path
       d="M 1.2,3 C 2.035019,2.958249 2.6290624,2.5014427 3.3956726,2.1614005 4.4652126,1.6869888 5.8104905,1.2834472 8.0822034,1.1669491"
       id="path1"
       sodipodi:nodetypes="csc"
       style="stroke-width:0.34999999;stroke-dasharray:none" />
    <path
       d="M 1.2,3 C 3.6,2.9475315 6,2.626196 8.4,3"
       id="path2"
       sodipodi:nodetypes="cc"
       style="stroke-width:0.39999999;stroke-dasharray:none" />
    <path
       d="M 1.2,3 C 2.4537232,3.1319709 2.8868798,3.8026466 4.5662225,4.3789236 5.4319001,4.6759863 5.8190784,4.8667167 7.1796611,4.9347458"
       id="path3"
       sodipodi:nodetypes="csc" />
  </g>
  <g
     fill="#000000"
     id="g5"
     transform="translate(0.50847456,-0.03813559)">
    <path
       id="polygon3"
       d="M 7.15,0.2 C 6.8846291,0.98383383 7.2476064,1.2021542 7.3,1.7 L 8.9152542,0.74745763 C 8.5423321,0.45722375 7.855505,0.32394242 7.15,0.2 Z"
       sodipodi:nodetypes="cccc" />
    <path
       id="polygon4"
       d="m 7.2627119,2.2127119 v 1.6 C 7.7663842,3.4454798 8.7276837,2.9675807 9.231356,2.8983052 L 8.0042108,2.5433985 Z"
       sodipodi:nodetypes="ccccc" />
    <path
       id="polygon5"
       d="M 6.3367256,4.2581581 6.2074608,5.6181003 7.9082063,5.221282 6.6666246,4.6558513 Z"
       sodipodi:nodetypes="ccccc" />
  </g>
</svg>
