<?xml version="1.0" encoding="UTF-8" standalone="no"?>
<!-- Created with Inkscape (http://www.inkscape.org/) -->

<svg
   width="7.3551292mm"
   height="5.5204988mm"
   viewBox="0 0 7.3551292 5.5204988"
   version="1.1"
   id="svg1"
   inkscape:version="1.3.2 (091e20e, 2023-11-25)"
   sodipodi:docname="0.svg"
   xmlns:inkscape="http://www.inkscape.org/namespaces/inkscape"
   xmlns:sodipodi="http://sodipodi.sourceforge.net/DTD/sodipodi-0.dtd"
   xmlns="http://www.w3.org/2000/svg"
   xmlns:svg="http://www.w3.org/2000/svg">
  <sodipodi:namedview
     id="namedview1"
     pagecolor="#ffffff"
     bordercolor="#000000"
     borderopacity="0.25"
     inkscape:showpageshadow="2"
     inkscape:pageopacity="0.0"
     inkscape:pagecheckerboard="0"
     inkscape:deskcolor="#d1d1d1"
     inkscape:document-units="mm"
     inkscape:zoom="0.2102413"
     inkscape:cx="14.269318"
     inkscape:cy="9.5128787"
     inkscape:window-width="1312"
     inkscape:window-height="449"
     inkscape:window-x="0"
     inkscape:window-y="38"
     inkscape:window-maximized="0"
     inkscape:current-layer="layer1" />
  <defs
     id="defs1" />
  <g
     inkscape:label="Layer 1"
     inkscape:groupmode="layer"
     id="layer1"
     transform="translate(-100.83377,-145.77466)">
    <path
       d="m 102.38174,151.16751 c -0.61708,-0.16939 -1.00233,-0.44668 -1.3018,-0.93697 l -0.24617,-0.40304 0.0108,-0.51321 c 0.0213,-1.00885 0.39704,-1.78754 1.18565,-2.45712 0.45426,-0.38569 1.78346,-1.08251 2.06492,-1.08251 0.30795,0 0.65294,0.16033 0.65294,0.30344 0,0.17972 0.28337,0.37835 0.53977,0.37835 0.43194,0 1.49411,0.51504 2.02976,0.98423 0.84736,0.74221 1.05341,1.25502 0.7189,1.78917 -0.23278,0.37171 -1.9255,1.46882 -2.26622,1.46882 -0.0642,0 -0.16088,0.0456 -0.21487,0.10137 -0.0717,0.0741 -0.85153,0.33766 -0.85153,0.28783 0,-0.004 -0.19525,0.0434 -0.43388,0.10491 -0.56278,0.14517 -1.3035,0.13526 -1.88831,-0.0253 z m 2.86725,-1.39033 c 1.66,-0.71234 1.75225,-1.11505 0.43056,-1.87945 -1.50091,-0.86806 -2.60146,-0.78544 -3.18302,0.23894 -0.96472,1.69928 0.53398,2.59252 2.75246,1.64051 z"
       style="fill:#000000"
       id="path1" />
  </g>
</svg>
