<?xml version="1.0" encoding="UTF-8" standalone="no"?>
<!-- Created with Inkscape (http://www.inkscape.org/) -->

<svg
   width="2.0903797mm"
   height="6.3588037mm"
   viewBox="0 0 2.0903797 6.3588037"
   version="1.1"
   id="svg1"
   sodipodi:docname="1.svg"
   inkscape:version="1.3.2 (091e20e, 2023-11-25)"
   xmlns:inkscape="http://www.inkscape.org/namespaces/inkscape"
   xmlns:sodipodi="http://sodipodi.sourceforge.net/DTD/sodipodi-0.dtd"
   xmlns="http://www.w3.org/2000/svg"
   xmlns:svg="http://www.w3.org/2000/svg">
  <sodipodi:namedview
     id="namedview1"
     pagecolor="#ffffff"
     bordercolor="#000000"
     borderopacity="0.25"
     inkscape:showpageshadow="2"
     inkscape:pageopacity="0.0"
     inkscape:pagecheckerboard="0"
     inkscape:deskcolor="#d1d1d1"
     inkscape:document-units="mm"
     inkscape:zoom="6.7277216"
     inkscape:cx="5.6482717"
     inkscape:cy="21.552616"
     inkscape:window-width="1312"
     inkscape:window-height="449"
     inkscape:window-x="0"
     inkscape:window-y="38"
     inkscape:window-maximized="0"
     inkscape:current-layer="layer1" />
  <defs
     id="defs1" />
  <g
     inkscape:label="Layer 1"
     inkscape:groupmode="layer"
     id="layer1"
     transform="translate(-103.33219,-145.27523)">
    <path
       d="m 104.1057,151.49913 c -0.031,-0.28242 -0.0816,-1.2801 -0.0759,-1.49614 0.006,-0.22319 -0.17519,-1.60834 -0.36656,-2.80289 -0.0534,-0.33332 -0.15139,-0.69809 -0.21777,-0.8106 -0.14871,-0.25205 -0.1513,-0.58793 -0.006,-0.75173 0.49969,-0.56256 1.59193,-0.44321 1.55692,0.17013 -0.0159,0.27782 0.1617,1.79168 0.21965,1.87273 0.4607,0.64435 0.0785,3.76796 -0.44014,3.59737 -0.0761,-0.025 -0.15639,0.0347 -0.21048,0.15662 -0.10118,0.22808 -0.43676,0.27516 -0.45992,0.0645 z"
       style="fill:#000000"
       id="path1" />
  </g>
</svg>
