<?xml version="1.0" encoding="UTF-8" standalone="no"?>
<!-- Created with Inkscape (http://www.inkscape.org/) -->

<svg
   width="11.611818mm"
   height="11.660497mm"
   viewBox="0 0 11.611818 11.660497"
   version="1.1"
   id="svg1"
   inkscape:version="1.3.2 (091e20e, 2023-11-25)"
   sodipodi:docname="1overz.svg"
   xmlns:inkscape="http://www.inkscape.org/namespaces/inkscape"
   xmlns:sodipodi="http://sodipodi.sourceforge.net/DTD/sodipodi-0.dtd"
   xmlns="http://www.w3.org/2000/svg"
   xmlns:svg="http://www.w3.org/2000/svg">
  <sodipodi:namedview
     id="namedview1"
     pagecolor="#ffffff"
     bordercolor="#000000"
     borderopacity="0.25"
     inkscape:showpageshadow="2"
     inkscape:pageopacity="0.0"
     inkscape:pagecheckerboard="0"
     inkscape:deskcolor="#d1d1d1"
     inkscape:document-units="mm"
     inkscape:zoom="0.2102413"
     inkscape:cx="23.782197"
     inkscape:cy="23.782197"
     inkscape:window-width="1312"
     inkscape:window-height="449"
     inkscape:window-x="0"
     inkscape:window-y="38"
     inkscape:window-maximized="0"
     inkscape:current-layer="layer1" />
  <defs
     id="defs1" />
  <g
     inkscape:label="Layer 1"
     inkscape:groupmode="layer"
     id="layer1"
     transform="translate(-98.63073,-142.66088)">
    <path
       d="m 106.74541,154.2807 c -1.66084,-0.31859 -2.2264,-1.04963 -1.71096,-2.21158 l 0.0853,-0.1922 -0.20359,-0.13425 c -0.11197,-0.0738 -0.25046,-0.13502 -0.30775,-0.13595 -0.1655,-0.003 -0.38195,-0.22558 -0.38195,-0.39335 0,-0.39572 0.67327,-1.031 0.99089,-0.93497 0.0627,0.0189 0.21336,0.0494 0.3349,0.0677 0.12153,0.0183 0.2844,0.055 0.36194,0.0815 0.097,0.0332 0.22055,-0.0415 0.39605,-0.23944 0.14029,-0.15822 0.46411,-0.47517 0.7196,-0.70433 0.2555,-0.22915 0.46507,-0.46412 0.46571,-0.52216 l 0.001,-0.10552 -0.7161,0.0421 c -0.69466,0.0408 -1.14199,-0.0255 -1.37999,-0.2047 -0.0591,-0.0445 -0.17164,-0.12735 -0.25012,-0.18418 -0.27392,-0.19835 -0.0736,-0.50859 0.64877,-1.00462 0.0721,-0.0495 0.38317,-0.0602 0.83967,-0.029 0.39885,0.0273 0.99,0.0616 1.31365,0.0764 0.5233,0.0238 0.82283,0.10497 1.20774,0.32709 0.0643,0.0371 0.14983,0.19268 0.19011,0.34574 l 0.0732,0.2783 -0.25722,0.45512 c -0.14148,0.25032 -0.50544,0.68402 -0.80881,0.96379 l -0.55158,0.50866 0.96298,0.0216 0.96298,0.0216 0.25232,0.15399 c 0.23952,0.14618 0.35095,0.44669 0.16562,0.44669 -0.0477,0 -0.11113,0.0834 -0.14099,0.1854 -0.10729,0.3664 -0.46612,0.44421 -2.51226,0.54482 -0.94222,0.0463 -0.90036,0.0284 -1.05524,0.45207 -0.22961,0.62814 0.0891,0.79734 1.3204,0.70107 0.87673,-0.0686 1.25548,0.007 1.40086,0.28086 l 0.10113,0.19023 -0.15212,0.20529 c -0.18448,0.24897 -0.45826,0.46904 -0.59002,0.47427 -0.34442,0.0137 -0.91562,0.0993 -1.0413,0.15613 -0.15335,0.0693 -0.42552,0.0752 -0.73499,0.0158 z m -6.49635,-2.57004 c 0,-0.20975 0.27209,-1.0328 0.49817,-1.50689 0.31016,-0.65043 0.32802,-0.68625 0.71753,-1.43951 0.1939,-0.37498 0.50018,-1.02267 0.6806,-1.43932 0.18043,-0.41665 0.3832,-0.87685 0.4506,-1.02268 0.0674,-0.14583 0.2087,-0.50377 0.314,-0.79542 0.1053,-0.29165 0.34514,-0.78852 0.53299,-1.10416 0.18785,-0.31564 0.34154,-0.65202 0.34154,-0.74752 0,-0.265 0.62334,-0.76183 0.95583,-0.76183 0.7833,0 0.78182,0.67723 -0.004,1.96367 -0.13804,0.2259 -0.3518,0.63497 -0.47504,0.90905 -0.26699,0.5938 -0.38191,0.8319 -0.48681,1.00864 -0.0429,0.0724 -0.0781,0.16797 -0.0781,0.21248 0,0.0784 -0.1049,0.29106 -0.61543,1.24748 -0.13364,0.25035 -0.27412,0.54011 -0.31217,0.64391 -0.038,0.10379 -0.25673,0.52961 -0.48596,0.94626 -0.22922,0.41665 -0.465,0.88426 -0.52394,1.03915 -0.21752,0.57154 -1.50954,1.29623 -1.50954,0.84669 z m -0.83967,-4.28943 c -0.36642,-0.11212 -0.39484,-0.17037 -0.39638,-0.81246 -0.002,-0.73182 -0.1601,-2.1539 -0.28297,-2.54125 -0.22319,-0.70361 -0.0805,-1.05261 0.53314,-1.30431 0.79786,-0.32724 1.03426,0.0805 1.13168,1.95192 0.13563,2.60521 -0.01,3.00462 -0.98547,2.7061 z"
       style="fill:#000000"
       id="path1" />
  </g>
</svg>
