<?xml version="1.0" encoding="UTF-8" standalone="no"?>
<!-- Created with Inkscape (http://www.inkscape.org/) -->

<svg
   width="7.1451588mm"
   height="13.023002mm"
   viewBox="0 0 7.1451588 13.023002"
   version="1.1"
   id="svg1"
   inkscape:version="1.3.2 (091e20e, 2023-11-25)"
   sodipodi:docname="1overN.svg"
   xmlns:inkscape="http://www.inkscape.org/namespaces/inkscape"
   xmlns:sodipodi="http://sodipodi.sourceforge.net/DTD/sodipodi-0.dtd"
   xmlns="http://www.w3.org/2000/svg"
   xmlns:svg="http://www.w3.org/2000/svg">
  <sodipodi:namedview
     id="namedview1"
     pagecolor="#ffffff"
     bordercolor="#000000"
     borderopacity="0.25"
     inkscape:showpageshadow="2"
     inkscape:pageopacity="0.0"
     inkscape:pagecheckerboard="0"
     inkscape:deskcolor="#d1d1d1"
     inkscape:document-units="mm"
     inkscape:zoom="0.2102413"
     inkscape:cx="14.269318"
     inkscape:cy="23.782197"
     inkscape:window-width="1312"
     inkscape:window-height="449"
     inkscape:window-x="0"
     inkscape:window-y="38"
     inkscape:window-maximized="0"
     inkscape:current-layer="layer1" />
  <defs
     id="defs1" />
  <g
     inkscape:label="Layer 1"
     inkscape:groupmode="layer"
     id="layer1"
     transform="translate(-100.95992,-142.10456)">
    <path
       d="m 101.54238,155.06849 c -0.35586,-0.0724 -0.57508,-0.22199 -0.51664,-0.35251 0.0244,-0.0545 0.006,-0.11914 -0.0399,-0.14367 -0.0498,-0.0264 -0.0263,-0.14051 0.0573,-0.27917 0.19598,-0.32481 0.22182,-0.49208 0.2448,-1.58438 0.0159,-0.75596 0.052,-0.99804 0.17215,-1.15525 l 0.15204,-0.19887 h 0.44222 0.44221 l 0.37332,0.33018 c 0.20532,0.1816 0.4593,0.42875 0.56441,0.54921 0.82297,0.9433 1.69058,1.59099 1.89571,1.41518 0.0881,-0.0755 0.12132,-1.94684 0.0366,-2.0643 -0.0964,-0.13366 0.22965,-0.46715 0.43073,-0.4406 0.10219,0.0135 0.17585,0.0663 0.1637,0.11743 -0.0122,0.0511 0.008,0.0873 0.0442,0.0805 0.61687,-0.11564 0.766,0.22164 0.80267,1.81527 0.0416,1.80602 -0.007,1.91448 -0.86006,1.90712 -0.40627,-0.004 -2.19866,-0.923 -2.83875,-1.45628 -0.33674,-0.28054 -0.32914,-0.28783 -0.39466,0.37877 -0.1058,1.07657 -0.30277,1.25829 -1.17214,1.0814 z m 0.9938,-5.37994 c -0.0972,-0.0296 -0.26441,-0.0794 -0.37153,-0.1108 -0.10711,-0.0314 -0.25697,-0.13842 -0.33301,-0.23789 l -0.13826,-0.18085 0.23123,-0.31395 0.23124,-0.31395 0.72048,0.053 c 0.39626,0.0292 0.85968,0.0648 1.02982,0.0792 0.40313,0.0341 1.24242,0.10197 2.34342,0.18957 1.53664,0.12225 2.50101,0.68761 1.34669,0.78949 -0.75855,0.0669 -4.86852,0.10447 -5.06008,0.0462 z m 1.9105,-2.58226 -0.21075,-0.0723 0.0612,-0.92666 c 0.13951,-2.11108 0.13917,-2.33582 -0.004,-2.57294 -0.18312,-0.30352 -0.0887,-1.07151 0.15771,-1.2827 l 0.17166,-0.14713 0.41513,0.049 c 0.49935,0.0589 0.68539,0.22062 0.75587,0.6571 0.0566,0.3508 0.0104,2.10265 -0.0673,2.55022 -0.0262,0.15089 -0.0721,0.4585 -0.1019,0.68356 -0.1017,0.76713 -0.21151,0.99224 -0.48397,0.99224 -0.0955,0 -0.17366,0.0341 -0.17366,0.0758 0,0.0932 -0.23862,0.0904 -0.5201,-0.006 z"
       style="fill:#000000"
       id="path1" />
  </g>
</svg>
