<?xml version="1.0" encoding="UTF-8" standalone="no"?>
<!-- Created with Inkscape (http://www.inkscape.org/) -->

<svg
   width="11.626754mm"
   height="6.4515972mm"
   viewBox="0 0 11.626754 6.4515972"
   version="1.1"
   id="svg1"
   inkscape:version="1.3.2 (091e20e, 2023-11-25)"
   sodipodi:docname="2pi.svg"
   xmlns:inkscape="http://www.inkscape.org/namespaces/inkscape"
   xmlns:sodipodi="http://sodipodi.sourceforge.net/DTD/sodipodi-0.dtd"
   xmlns="http://www.w3.org/2000/svg"
   xmlns:svg="http://www.w3.org/2000/svg">
  <sodipodi:namedview
     id="namedview1"
     pagecolor="#ffffff"
     bordercolor="#000000"
     borderopacity="0.25"
     inkscape:showpageshadow="2"
     inkscape:pageopacity="0.0"
     inkscape:pagecheckerboard="0"
     inkscape:deskcolor="#d1d1d1"
     inkscape:document-units="mm"
     inkscape:zoom="0.2102413"
     inkscape:cx="23.782197"
     inkscape:cy="14.269318"
     inkscape:window-width="1312"
     inkscape:window-height="449"
     inkscape:window-x="0"
     inkscape:window-y="38"
     inkscape:window-maximized="0"
     inkscape:current-layer="layer1" />
  <defs
     id="defs1" />
  <g
     inkscape:label="Layer 1"
     inkscape:groupmode="layer"
     id="layer1"
     transform="translate(-98.752626,-145.15017)">
    <path
       d="m 100.32771,151.51455 c -2.080804,-0.53442 -2.099117,-1.51432 -0.0598,-3.20255 1.28733,-1.06573 1.86182,-1.86747 1.4677,-2.04826 -0.21549,-0.0988 -1.00083,-0.053 -1.17415,0.0686 -0.1426,0.10001 -1.226759,0.18062 -1.363753,0.1014 -0.368721,-0.21323 -0.124639,-0.99276 0.31248,-0.99799 0.109377,-0.001 0.19887,-0.0292 0.19887,-0.0619 0,-0.0327 0.0696,-0.0636 0.154675,-0.0686 0.08507,-0.005 0.433088,-0.0505 0.773378,-0.10113 0.66965,-0.0997 1.83456,-0.0534 1.88443,0.0748 0.0168,0.0433 0.0842,0.0786 0.14979,0.0786 0.60585,0 0.61102,1.19669 0.008,1.77088 -0.15079,0.14349 -0.35371,0.35509 -0.45093,0.47022 -0.28499,0.33747 -0.51236,0.57092 -0.79902,0.82037 -0.59348,0.51645 -1.17121,1.15815 -1.28223,1.42421 l -0.1174,0.28133 0.15377,0.14563 c 0.29223,0.27676 2.33298,0.40712 3.70732,0.23681 0.76199,-0.0944 1.03332,-0.0424 1.03332,0.19798 0,0.12989 -0.0631,0.19329 -0.22741,0.22865 -0.12507,0.0269 -0.26329,0.12982 -0.30716,0.2287 -0.0439,0.0989 -0.14039,0.17979 -0.21452,0.17979 -0.0741,0 -0.13476,0.0341 -0.13476,0.0757 0,0.0417 -0.0298,0.0717 -0.0663,0.0668 -0.0365,-0.005 -0.0862,-5.8e-4 -0.11049,0.01 -0.30935,0.13117 -3.04244,0.1467 -3.53542,0.0201 z m 5.42942,-0.22921 c -0.0382,-0.0729 -0.0793,-0.38824 -0.0913,-0.70072 -0.019,-0.49291 -0.12037,-1.43992 -0.17226,-1.60977 -0.01,-0.0312 -0.0229,-0.15057 -0.0298,-0.26514 -0.007,-0.11458 -0.0485,-0.25728 -0.0927,-0.31712 l -0.0803,-0.10879 -0.33816,0.12947 c -0.97932,0.37496 -1.57344,-0.53859 -0.63035,-0.96925 0.11209,-0.0512 0.36291,-0.17272 0.55735,-0.27006 2.6816,-1.34248 3.7077,-1.37943 4.15926,-0.14978 0.2082,0.56696 0.24313,0.58761 0.65687,0.38831 0.19494,-0.0939 0.35444,-0.13447 0.35444,-0.0901 0,0.0443 0.055,0.0806 0.12227,0.0806 0.0673,0 0.14134,0.0855 0.16463,0.18988 l 0.0423,0.18988 -0.49607,0.42259 c -0.27284,0.23242 -0.62137,0.46765 -0.77451,0.52275 -0.35998,0.12951 -0.4165,0.35267 -0.33595,1.32646 0.0466,0.56351 0.0358,0.75737 -0.0421,0.75737 -0.0576,0 -0.21499,0.10344 -0.34973,0.22988 -0.51302,0.48141 -0.85697,-0.0662 -0.95503,-1.52055 l -0.0436,-0.64675 0.22452,-0.5892 0.22453,-0.5892 -0.098,-0.18444 c -0.10932,-0.20565 -0.30571,-0.23065 -0.74425,-0.0947 l -0.2894,0.0897 0.0483,0.61104 c 0.2086,2.6395 0.21285,2.58306 -0.22472,2.98928 -0.35439,0.32902 -0.65116,0.39814 -0.76617,0.17844 z"
       style="fill:#000000"
       id="path1" />
  </g>
</svg>
