<?xml version="1.0" encoding="UTF-8" standalone="no"?>
<!-- Created with Inkscape (http://www.inkscape.org/) -->

<svg
   width="17.250397mm"
   height="6.8129907mm"
   viewBox="0 0 17.250397 6.8129907"
   version="1.1"
   id="svg1"
   inkscape:version="1.3.2 (091e20e, 2023-11-25)"
   sodipodi:docname="2pii.svg"
   xmlns:inkscape="http://www.inkscape.org/namespaces/inkscape"
   xmlns:sodipodi="http://sodipodi.sourceforge.net/DTD/sodipodi-0.dtd"
   xmlns="http://www.w3.org/2000/svg"
   xmlns:svg="http://www.w3.org/2000/svg">
  <sodipodi:namedview
     id="namedview1"
     pagecolor="#ffffff"
     bordercolor="#000000"
     borderopacity="0.25"
     inkscape:showpageshadow="2"
     inkscape:pageopacity="0.0"
     inkscape:pagecheckerboard="0"
     inkscape:deskcolor="#d1d1d1"
     inkscape:document-units="mm"
     inkscape:zoom="0.2102413"
     inkscape:cx="33.295075"
     inkscape:cy="14.269318"
     inkscape:window-width="1312"
     inkscape:window-height="449"
     inkscape:window-x="0"
     inkscape:window-y="38"
     inkscape:window-maximized="0"
     inkscape:current-layer="layer1" />
  <defs
     id="defs1" />
  <g
     inkscape:label="Layer 1"
     inkscape:groupmode="layer"
     id="layer1"
     transform="translate(-95.937444,-145.15768)">
    <path
       d="m 105.80359,151.72826 -0.21695,-0.18594 -0.0154,-0.55266 c -0.0245,-0.87924 0.0234,-1.50824 0.14584,-1.91623 0.13839,-0.46116 0.0534,-0.64391 -0.29929,-0.64391 h -0.25099 l -10e-4,0.17045 c -0.01,1.41988 -0.42791,2.44444 -1.02961,2.52177 l -0.39332,0.0506 -0.1967,-0.15706 -0.19671,-0.15707 0.0801,-0.94927 0.0801,-0.94927 -0.14945,9e-5 c -0.0822,5e-5 -0.17423,0.0344 -0.20449,0.0764 -0.10383,0.14398 -0.78998,0.38061 -1.13749,0.39228 l -0.34762,0.0117 -0.25158,-0.24133 c -0.37265,-0.35746 -0.16314,-0.99648 0.32669,-0.99648 0.0517,0 0.42994,-0.13981 0.84057,-0.3107 1.17833,-0.49035 2.11693,-0.74986 2.71217,-0.74986 0.82545,0 1.86829,0.32254 1.87644,0.58036 0.0115,0.36346 0.72885,0.55003 1.38301,0.35968 0.27614,-0.0804 0.54226,-0.10405 0.79856,-0.0711 l 0.38439,0.0494 v 0.18475 c 0,0.10201 -0.052,0.18474 -0.11604,0.18474 -0.0638,0 -0.22777,0.1 -0.36431,0.2221 -0.26473,0.23683 -1.15362,0.63309 -1.61493,0.71993 -0.41815,0.0787 -0.45682,0.16385 -0.52036,1.14583 -0.0835,1.2903 -0.63708,1.79752 -1.32154,1.21088 z m 5.13039,-0.15399 c -1.05014,-0.42274 -1.18197,-1.58438 -0.36048,-3.17645 0.23574,-0.45686 0.24786,-0.46652 0.67051,-0.5344 l 0.30867,-0.0496 0.29752,0.22775 0.29751,0.22776 -0.0551,0.2884 c -0.0882,0.46144 -0.10254,0.50577 -0.22702,0.70219 -0.17605,0.2778 -0.23908,1.21501 -0.0817,1.21465 0.14165,-2.9e-4 0.71431,-0.2858 0.79725,-0.39742 0.0582,-0.0783 0.6067,0.15458 0.6067,0.2576 0,0.36078 -0.55579,0.9197 -1.18046,1.18709 -0.44404,0.19007 -0.70031,0.20258 -1.07337,0.0524 z m -11.004022,-0.38093 c -0.461816,-0.0585 -1.237401,-0.14502 -1.723522,-0.19227 -2.246508,-0.21832 -2.575422,-0.83869 -0.884284,-1.66784 2.629666,-1.28931 2.697668,-3.54021 0.08881,-2.93985 -1.176112,0.27065 -1.868436,-0.15813 -1.231292,-0.76258 0.695268,-0.65959 2.914449,-0.62246 4.01544,0.0672 0.54812,0.34334 0.67628,0.54076 0.73368,1.13021 l 0.0322,0.33041 -0.32774,0.53888 c -0.31889,0.52433 -1.697325,1.92447 -1.907748,1.93779 -0.05481,0.004 -0.149174,0.0574 -0.209691,0.11994 l -0.11003,0.11363 0.121304,0.006 c 0.121763,0.006 0.372847,0.0399 0.784198,0.10703 0.12153,0.0198 0.340285,0.0555 0.486122,0.0793 1.419365,0.23143 2.430605,0.55889 2.430605,0.7871 0,0.34491 -1.05291,0.50319 -2.298027,0.34545 z m 11.771052,-4.72097 c -0.81528,-0.64509 0.17485,-1.44499 1.07209,-0.86611 0.68379,0.44116 0.49435,0.846 -0.51968,1.11054 -0.1353,0.0353 -0.27958,-0.0285 -0.55241,-0.24443 z"
       style="fill:#000000"
       id="path1" />
  </g>
</svg>
