<?xml version="1.0" encoding="UTF-8" standalone="no"?>
<!-- Created with Inkscape (http://www.inkscape.org/) -->

<svg
   width="6.7674465mm"
   height="6.910543mm"
   viewBox="0 0 6.7674465 6.910543"
   version="1.1"
   id="svg1"
   inkscape:version="1.3.2 (091e20e, 2023-11-25)"
   sodipodi:docname="3.svg"
   xmlns:inkscape="http://www.inkscape.org/namespaces/inkscape"
   xmlns:sodipodi="http://sodipodi.sourceforge.net/DTD/sodipodi-0.dtd"
   xmlns="http://www.w3.org/2000/svg"
   xmlns:svg="http://www.w3.org/2000/svg">
  <sodipodi:namedview
     id="namedview1"
     pagecolor="#ffffff"
     bordercolor="#000000"
     borderopacity="0.25"
     inkscape:showpageshadow="2"
     inkscape:pageopacity="0.0"
     inkscape:pagecheckerboard="0"
     inkscape:deskcolor="#d1d1d1"
     inkscape:document-units="mm"
     inkscape:zoom="9.0357107"
     inkscape:cx="12.83795"
     inkscape:cy="13.059294"
     inkscape:window-width="1312"
     inkscape:window-height="449"
     inkscape:window-x="0"
     inkscape:window-y="38"
     inkscape:window-maximized="0"
     inkscape:current-layer="layer1" />
  <defs
     id="defs1" />
  <g
     inkscape:label="Layer 1"
     inkscape:groupmode="layer"
     id="layer1"
     transform="translate(-101.05738,-145.04292)">
    <path
       d="m 101.58233,151.94143 c -0.0486,-0.0157 -0.19939,-0.0496 -0.33506,-0.0753 -0.24317,-0.0461 -0.25675,-0.19378 -0.0178,-0.19378 0.0675,0 0.22576,-0.0818 0.3516,-0.18174 0.12583,-0.1 0.49579,-0.24335 0.82212,-0.31866 0.98315,-0.22688 2.79207,-0.76132 2.70634,-0.79957 -0.0441,-0.0197 -0.33866,-0.0443 -0.65464,-0.0548 -1.4318,-0.0474 -2.66761,-0.73241 -2.43831,-1.35161 0.0883,-0.23859 0.67933,-0.71964 1.41467,-1.15153 2.0839,-1.22395 1.82526,-2.31634 -0.33141,-1.39974 -0.13762,0.0585 -0.38518,0.10634 -0.55014,0.10634 h -0.29992 l -0.13484,-0.22349 c -0.0742,-0.12293 -0.13485,-0.27356 -0.13485,-0.33474 0,-0.11155 0.55118,-0.6048 0.65411,-0.58536 0.0302,0.006 0.17853,-0.0445 0.32972,-0.11148 0.46384,-0.20558 1.89824,-0.29579 2.46321,-0.15491 0.81182,0.20242 1.11097,1.27821 0.47472,1.70715 -0.11526,0.0777 -0.20956,0.16942 -0.20956,0.20381 0,0.0712 -1.15341,1.01411 -1.24049,1.01411 -0.10996,0 -1.05896,0.79647 -1.05825,0.88816 0.002,0.27125 1.27143,0.51543 3.06977,0.59053 l 1.12926,0.0472 0.15468,0.15451 c 0.35846,0.35809 -0.58913,1.21467 -1.53584,1.38834 -0.16399,0.0301 -0.33794,0.0799 -0.38656,0.11062 -0.0486,0.0307 -0.24747,0.092 -0.44192,0.13608 -0.19445,0.0441 -0.63196,0.14843 -0.97225,0.23187 -0.34028,0.0834 -0.73802,0.16185 -0.88385,0.17426 -0.14584,0.0124 -0.30573,0.0471 -0.35531,0.0771 -0.1006,0.0608 -1.45068,0.15144 -1.58918,0.10668 z"
       style="fill:#000000"
       id="path1" />
  </g>
</svg>
