<?xml version="1.0" encoding="UTF-8" standalone="no"?>
<!-- Created with Inkscape (http://www.inkscape.org/) -->

<svg
   width="6.3782096mm"
   height="6.2006068mm"
   viewBox="0 0 6.3782096 6.2006068"
   version="1.1"
   id="svg1"
   inkscape:version="1.3.2 (091e20e, 2023-11-25)"
   sodipodi:docname="6.svg"
   xmlns:inkscape="http://www.inkscape.org/namespaces/inkscape"
   xmlns:sodipodi="http://sodipodi.sourceforge.net/DTD/sodipodi-0.dtd"
   xmlns="http://www.w3.org/2000/svg"
   xmlns:svg="http://www.w3.org/2000/svg">
  <sodipodi:namedview
     id="namedview1"
     pagecolor="#ffffff"
     bordercolor="#000000"
     borderopacity="0.25"
     inkscape:showpageshadow="2"
     inkscape:pageopacity="0.0"
     inkscape:pagecheckerboard="0"
     inkscape:deskcolor="#d1d1d1"
     inkscape:document-units="mm"
     inkscape:zoom="0.2102413"
     inkscape:cx="14.269318"
     inkscape:cy="9.5128787"
     inkscape:window-width="1312"
     inkscape:window-height="449"
     inkscape:window-x="0"
     inkscape:window-y="38"
     inkscape:window-maximized="0"
     inkscape:current-layer="layer1" />
  <defs
     id="defs1" />
  <g
     inkscape:label="Layer 1"
     inkscape:groupmode="layer"
     id="layer1"
     transform="translate(-101.24347,-145.3745)">
    <path
       d="m 101.70734,151.41253 c -0.61568,-0.34946 -0.61829,-0.74882 -0.009,-1.31111 0.27899,-0.25731 0.36395,-0.40366 0.41108,-0.70819 0.33322,-2.15292 5.06284,-5.20477 5.48898,-3.54184 0.11432,0.4461 -0.18965,0.69211 -0.97448,0.78871 -0.71721,0.0883 -1.17591,0.31452 -1.8921,0.93325 -0.88248,0.7624 -1.32777,1.47009 -0.78144,1.24192 1.847,-0.77136 4.23871,-0.20916 3.5353,0.83102 -0.16986,0.25118 -0.66633,0.74158 -0.75076,0.74158 -0.0293,0 -0.16796,0.0937 -0.3082,0.20832 -0.92805,0.75821 -2.06785,1.03466 -3.08779,0.74893 -0.5628,-0.15766 -0.86914,-0.11235 -0.86914,0.12856 0,0.15955 -0.43555,0.12464 -0.76286,-0.0611 z m 3.75595,-1.31318 c 0.23644,-0.10971 0.46013,-0.26865 0.49707,-0.35319 l 0.0672,-0.15371 -0.26414,-0.0612 c -0.46518,-0.10783 -2.09999,0.30076 -2.09999,0.52486 0,0.36007 1.06211,0.3856 1.79989,0.0433 z"
       style="fill:#000000"
       id="path1" />
  </g>
</svg>
