<?xml version="1.0" encoding="UTF-8" standalone="no"?>
<!-- Created with Inkscape (http://www.inkscape.org/) -->

<svg
   width="6.2546024mm"
   height="7.003149mm"
   viewBox="0 0 6.2546024 7.003149"
   version="1.1"
   id="svg1"
   inkscape:version="1.3.2 (091e20e, 2023-11-25)"
   sodipodi:docname="7.svg"
   xmlns:inkscape="http://www.inkscape.org/namespaces/inkscape"
   xmlns:sodipodi="http://sodipodi.sourceforge.net/DTD/sodipodi-0.dtd"
   xmlns="http://www.w3.org/2000/svg"
   xmlns:svg="http://www.w3.org/2000/svg">
  <sodipodi:namedview
     id="namedview1"
     pagecolor="#ffffff"
     bordercolor="#000000"
     borderopacity="0.25"
     inkscape:showpageshadow="2"
     inkscape:pageopacity="0.0"
     inkscape:pagecheckerboard="0"
     inkscape:deskcolor="#d1d1d1"
     inkscape:document-units="mm"
     inkscape:zoom="0.2102413"
     inkscape:cx="9.5128787"
     inkscape:cy="14.269318"
     inkscape:window-width="1312"
     inkscape:window-height="449"
     inkscape:window-x="0"
     inkscape:window-y="38"
     inkscape:window-maximized="0"
     inkscape:current-layer="layer1" />
  <defs
     id="defs1" />
  <g
     inkscape:label="Layer 1"
     inkscape:groupmode="layer"
     id="layer1"
     transform="translate(-101.31583,-145.12954)">
    <path
       d="m 103.23494,152.05391 c -0.0813,-0.0407 -0.23591,-0.1961 -0.34359,-0.34544 l -0.1958,-0.27152 0.0499,-0.50964 c 0.0274,-0.2803 0.13258,-0.71186 0.23368,-0.95901 0.2458,-0.60087 0.24649,-0.60506 0.0943,-0.57262 -0.21509,0.0459 -1.1124,0.0298 -1.30802,-0.0234 -0.11226,-0.0305 -0.23131,-0.17701 -0.31502,-0.38757 l -0.13456,-0.33847 0.19381,-0.17191 c 0.30318,-0.26892 0.6765,-0.3742 1.29059,-0.36394 0.86262,0.0144 1.14221,-0.0515 1.2955,-0.30562 0.0727,-0.12051 0.37686,-0.46275 0.67589,-0.76053 l 0.54368,-0.54142 -1.19722,0.043 c -1.32495,0.0476 -1.50807,0.0102 -1.76058,-0.36007 -0.46325,-0.67919 0.21946,-1.17413 1.42302,-1.03165 0.36459,0.0432 1.10022,0.0986 1.63474,0.12307 2.32278,0.10659 2.53219,0.47636 1.00942,1.78241 -1.0266,0.8805 -1.03348,0.91129 -0.21099,0.94446 0.79552,0.0321 1.31384,0.1873 1.35146,0.40473 0.0207,0.11972 -0.0178,0.16323 -0.14451,0.16323 -0.095,0 -0.23706,0.0841 -0.31567,0.18695 -0.0957,0.12522 -0.19143,0.171 -0.28982,0.13864 -0.0943,-0.031 -0.12543,-0.0185 -0.0869,0.0349 0.0742,0.10297 -0.21613,0.18845 -0.54092,0.15925 -0.13279,-0.0119 -0.28119,-0.002 -0.32978,0.0229 -0.0486,0.0245 -0.31807,0.0684 -0.59887,0.0976 -0.54975,0.0571 -0.70048,0.169 -0.82145,0.60979 -0.0343,0.12499 -0.10152,0.26987 -0.14938,0.32196 -0.0479,0.0521 -0.0665,0.0947 -0.0413,0.0947 0.0251,0 0.0108,0.12783 -0.0319,0.28408 -0.0496,0.18158 -0.0411,0.42773 0.0235,0.68225 0.11988,0.47211 0.085,0.51565 -0.43549,0.54295 -0.0608,0.003 -0.11048,0.091 -0.11048,0.19518 0,0.20315 -0.1836,0.24767 -0.45715,0.11086 z"
       style="fill:#000000"
       id="path1" />
  </g>
</svg>
