<?xml version="1.0" encoding="UTF-8" standalone="no"?>
<!-- Created with Inkscape (http://www.inkscape.org/) -->

<svg
   width="6.5955319mm"
   height="6.7325602mm"
   viewBox="0 0 6.5955319 6.7325602"
   version="1.1"
   id="svg1"
   inkscape:version="1.3.2 (091e20e, 2023-11-25)"
   sodipodi:docname="8.svg"
   xmlns:inkscape="http://www.inkscape.org/namespaces/inkscape"
   xmlns:sodipodi="http://sodipodi.sourceforge.net/DTD/sodipodi-0.dtd"
   xmlns="http://www.w3.org/2000/svg"
   xmlns:svg="http://www.w3.org/2000/svg">
  <sodipodi:namedview
     id="namedview1"
     pagecolor="#ffffff"
     bordercolor="#000000"
     borderopacity="0.25"
     inkscape:showpageshadow="2"
     inkscape:pageopacity="0.0"
     inkscape:pagecheckerboard="0"
     inkscape:deskcolor="#d1d1d1"
     inkscape:document-units="mm"
     inkscape:zoom="0.2102413"
     inkscape:cx="14.269318"
     inkscape:cy="14.269318"
     inkscape:window-width="1312"
     inkscape:window-height="449"
     inkscape:window-x="0"
     inkscape:window-y="38"
     inkscape:window-maximized="0"
     inkscape:current-layer="layer1" />
  <defs
     id="defs1" />
  <g
     inkscape:label="Layer 1"
     inkscape:groupmode="layer"
     id="layer1"
     transform="translate(-101.23084,-145.08423)">
    <path
       d="m 101.756,151.72659 c -0.90913,-0.42697 -0.62584,-1.50447 0.75626,-2.87643 l 0.21807,-0.21647 -0.43395,-0.73045 c -0.76155,-1.2819 -0.76211,-1.91484 -0.002,-2.3793 0.75887,-0.46376 1.30806,-0.55855 1.70583,-0.29444 0.11593,0.077 0.31541,0.16182 0.44329,0.18855 0.12787,0.0268 0.25293,0.11558 0.27791,0.19745 l 0.0454,0.14884 -0.23372,-0.0366 c -0.15956,-0.025 -0.40199,0.0444 -0.76403,0.21881 l -0.53031,0.25543 -0.0286,0.2491 c -0.033,0.28794 0.28537,1.07414 0.50351,1.24333 l 0.14851,0.1152 0.36454,-0.24265 c 0.2005,-0.13346 0.45795,-0.29941 0.57212,-0.36878 1.63244,-0.99184 1.67668,-1.04186 1.09088,-1.23361 -0.21906,-0.0717 -0.37581,-0.16155 -0.34832,-0.19967 0.0275,-0.0381 0.0178,-0.0719 -0.0215,-0.0751 -0.52622,-0.0427 -0.55581,-0.12199 -0.10726,-0.28763 1.4467,-0.53421 3.14089,0.28648 2.08336,1.00921 -0.12963,0.0886 -0.2357,0.19575 -0.2357,0.23814 0,0.0875 -0.65183,0.57869 -1.13564,0.85584 -0.1775,0.10168 -0.44839,0.27298 -0.60199,0.38068 -0.1536,0.10769 -0.42207,0.2931 -0.5966,0.41202 -0.4033,0.27479 -0.39894,0.31222 0.0893,0.76601 1.53435,1.42614 0.60742,2.61789 -2.13014,2.73872 -0.69037,0.0305 -0.93755,0.0138 -1.12915,-0.0762 z m 1.87655,-1.04176 c 0.27551,-0.008 0.53403,-0.0643 0.64141,-0.13884 l 0.17987,-0.12483 -0.14244,-0.22275 c -0.0784,-0.1225 -0.26127,-0.33974 -0.4065,-0.48275 l -0.26405,-0.26001 -0.20822,0.0955 c -0.55838,0.25614 -0.86762,1.40099 -0.31615,1.17048 0.03,-0.0125 0.26224,-0.0291 0.51608,-0.0368 z"
       style="fill:#000000"
       id="path1" />
  </g>
</svg>
