<?xml version="1.0" encoding="UTF-8" standalone="no"?>
<!-- Created with Inkscape (http://www.inkscape.org/) -->

<svg
   width="13.461886mm"
   height="13.10477mm"
   viewBox="0 0 13.461886 13.10477"
   version="1.1"
   id="svg1"
   inkscape:version="1.3.2 (091e20e, 2023-11-25)"
   sodipodi:docname="absz.svg"
   xmlns:inkscape="http://www.inkscape.org/namespaces/inkscape"
   xmlns:sodipodi="http://sodipodi.sourceforge.net/DTD/sodipodi-0.dtd"
   xmlns="http://www.w3.org/2000/svg"
   xmlns:svg="http://www.w3.org/2000/svg">
  <sodipodi:namedview
     id="namedview1"
     pagecolor="#ffffff"
     bordercolor="#000000"
     borderopacity="0.25"
     inkscape:showpageshadow="2"
     inkscape:pageopacity="0.0"
     inkscape:pagecheckerboard="0"
     inkscape:deskcolor="#d1d1d1"
     inkscape:document-units="mm"
     inkscape:zoom="0.2102413"
     inkscape:cx="23.782197"
     inkscape:cy="23.782197"
     inkscape:window-width="1312"
     inkscape:window-height="449"
     inkscape:window-x="0"
     inkscape:window-y="38"
     inkscape:window-maximized="0"
     inkscape:current-layer="layer1" />
  <defs
     id="defs1" />
  <g
     inkscape:label="Layer 1"
     inkscape:groupmode="layer"
     id="layer1"
     transform="translate(-97.664073,-141.92804)">
    <path
       d="m 108.69075,154.98787 c -0.0698,-0.0598 -0.002,-1.50133 0.10638,-2.26531 0.10868,-0.76526 0.19612,-1.69439 0.3137,-3.33318 0.0299,-0.41664 0.0734,-1.71204 0.0968,-2.87865 0.0381,-1.9037 0.0903,-3.69293 0.11572,-3.96323 0.0115,-0.1222 0.61499,-0.62005 0.75093,-0.61946 0.3956,0.002 0.7663,0.17562 0.90384,0.42405 l 0.14784,0.26702 -0.12324,0.43073 c -0.0678,0.2369 -0.12102,0.50743 -0.11831,0.60118 0.003,0.0937 -0.0172,0.17045 -0.0442,0.17045 -0.027,0 -0.0491,0.26419 -0.0491,0.58709 0,0.88122 -0.1251,4.23419 -0.17735,4.75356 -0.0251,0.24999 -0.0874,0.79542 -0.13827,1.21206 -0.0509,0.41665 -0.11066,0.97912 -0.13281,1.24994 -0.0749,0.91594 -0.41058,2.79253 -0.55899,3.12486 -0.0863,0.1932 -0.36256,0.29781 -0.36256,0.13727 0,-0.10639 -0.3422,-0.0636 -0.39266,0.0491 -0.0452,0.10092 -0.24495,0.13196 -0.33769,0.0525 z m 0.92962,-2.43576 c -0.0613,-0.1401 -0.17248,-0.11494 -0.22294,0.0504 -0.0604,0.19804 0.13164,0.363 0.20829,0.1789 0.0308,-0.074 0.0374,-0.17725 0.0146,-0.22933 z m -11.563294,0.45336 c -0.195746,-0.11487 -0.217172,-0.41665 -0.261343,-3.68085 -0.02489,-1.83929 -0.06743,-3.99186 -0.09455,-4.78349 -0.06405,-1.87035 -0.07722,-1.75602 0.229964,-1.99649 0.7112,-0.55675 1.790926,0.001 1.477803,0.76347 -0.07259,0.17674 -0.102822,1.57888 -0.104988,4.86921 -0.0032,4.87547 5.68e-4,4.82993 -0.393487,4.76239 -0.141587,-0.0243 -0.277222,-0.007 -0.311139,0.0403 -0.06792,0.0942 -0.398664,0.10969 -0.542264,0.0254 z m 4.844704,-1.08667 c -0.82606,-0.35046 -1.06703,-1.10622 -0.68595,-2.15133 l 0.0555,-0.1522 -0.45511,-0.15082 c -1.21783,-0.40359 -0.62191,-1.32138 0.79042,-1.21735 l 0.67165,0.0495 0.46402,-0.39295 c 0.25522,-0.21612 0.46403,-0.4152 0.46403,-0.44241 0,-0.0667 -1.17676,-0.37811 -1.62957,-0.4313 -0.79971,-0.0939 -1.13339,-0.62283 -0.68402,-1.08418 l 0.2496,-0.25625 0.4192,-0.0212 c 0.23056,-0.0116 0.52592,0.0144 0.65635,0.0578 0.13044,0.0434 0.5057,0.14012 0.83392,0.21484 0.32821,0.0747 0.68617,0.18437 0.79547,0.24365 0.10929,0.0593 0.38872,0.1686 0.62094,0.24294 0.32506,0.10405 0.46096,0.20021 0.59049,0.41783 l 0.16826,0.28267 -0.19275,0.32728 c -0.10602,0.18001 -0.3852,0.48916 -0.62041,0.68699 l -0.42764,0.35971 0.29507,0.0813 c 0.16228,0.0447 0.49393,0.11702 0.73699,0.16065 0.24307,0.0436 0.60103,0.1364 0.79548,0.20613 1.62522,0.58284 0.0334,1.07208 -2.50327,0.76936 -0.25124,-0.03 -0.45414,0.0335 -0.49961,0.15624 -0.3134,0.84631 -0.0113,1.16331 1.00565,1.0553 0.26267,-0.0279 0.79452,-0.0623 1.18191,-0.0765 l 0.70433,-0.0258 0.1753,0.19922 c 0.17698,0.20112 0.15579,0.52044 -0.0345,0.52044 -0.05,0 -0.21119,0.0734 -0.35823,0.16316 -0.53855,0.32868 -2.96631,0.4691 -3.58348,0.20727 z"
       style="fill:#000000"
       id="path1" />
  </g>
</svg>
