<?xml version="1.0" encoding="UTF-8" standalone="no"?>
<!-- Created with Inkscape (http://www.inkscape.org/) -->

<svg
   width="18.32176mm"
   height="6.088932mm"
   viewBox="0 0 18.32176 6.088932"
   version="1.1"
   id="svg1"
   inkscape:version="1.3.2 (091e20e, 2023-11-25)"
   sodipodi:docname="az.svg"
   xmlns:inkscape="http://www.inkscape.org/namespaces/inkscape"
   xmlns:sodipodi="http://sodipodi.sourceforge.net/DTD/sodipodi-0.dtd"
   xmlns="http://www.w3.org/2000/svg"
   xmlns:svg="http://www.w3.org/2000/svg">
  <sodipodi:namedview
     id="namedview1"
     pagecolor="#ffffff"
     bordercolor="#000000"
     borderopacity="0.25"
     inkscape:showpageshadow="2"
     inkscape:pageopacity="0.0"
     inkscape:pagecheckerboard="0"
     inkscape:deskcolor="#d1d1d1"
     inkscape:document-units="mm"
     inkscape:zoom="0.2102413"
     inkscape:cx="33.295075"
     inkscape:cy="9.5128787"
     inkscape:window-width="1312"
     inkscape:window-height="449"
     inkscape:window-x="0"
     inkscape:window-y="38"
     inkscape:window-maximized="0"
     inkscape:current-layer="layer1" />
  <defs
     id="defs1" />
  <g
     inkscape:label="Layer 1"
     inkscape:groupmode="layer"
     id="layer1"
     transform="translate(-95.32,-145.43591)">
    <path
       d="m 109.2946,151.51921 c -1.06074,-0.0802 -1.50593,-1.18319 -0.91717,-2.27235 0.21621,-0.39997 0.18243,-0.51858 -0.12397,-0.43523 -0.42038,0.11436 -1.14762,0.0559 -1.42714,-0.11467 l -0.27896,-0.17025 0.0502,-0.26505 c 0.0276,-0.14578 0.13963,-0.34665 0.24895,-0.44639 l 0.19876,-0.18133 1.20326,0.0448 1.20327,0.0448 0.36919,-0.34328 c 0.39252,-0.36498 0.4674,-0.56838 0.21451,-0.58267 -0.0851,-0.005 -0.19445,-0.0149 -0.24306,-0.0224 -0.0486,-0.007 -0.32703,-0.0401 -0.6187,-0.0723 -0.71699,-0.0794 -1.01585,-0.18838 -1.11226,-0.40573 -0.30283,-0.68267 0.444,-1.06252 1.47679,-0.75111 0.1884,0.0568 0.54142,0.12275 0.78448,0.14655 1.82889,0.17903 2.16972,0.76205 1.06761,1.82624 -0.25121,0.24257 -0.28533,0.34524 -0.11746,0.35345 0.41651,0.0204 0.83039,0.0892 0.90154,0.15008 0.0462,0.0395 0.15225,0.0718 0.23573,0.0718 0.33661,0 0.95388,0.29725 1.09173,0.52574 l 0.13986,0.23179 h -0.26743 c -0.14708,0 -0.26743,0.0358 -0.26743,0.0796 0,0.0815 -2.41118,0.0414 -2.67211,-0.0444 -0.1246,-0.041 -0.59816,0.44996 -0.59816,0.62011 0,0.0434 -0.0654,0.19129 -0.14526,0.32855 -0.36401,0.6254 0.0217,0.77656 1.28901,0.50514 1.05736,-0.22644 1.88314,-0.0808 1.7118,0.30188 -0.15488,0.34592 -2.48064,0.94608 -3.39756,0.87674 z m -13.00013,-0.55237 c -0.49221,-0.0995 -0.75406,-0.33607 -0.87197,-0.78763 l -0.1025,-0.39257 0.14244,-0.41995 c 0.55441,-1.63454 4.00739,-3.96774 5.11804,-3.45829 0.13235,0.0607 0.21282,0.0423 0.37045,-0.0846 0.56002,-0.45092 1.43053,-0.0738 1.315,0.56964 -0.0718,0.3997 -0.23273,0.90303 -0.31956,0.99926 -0.10068,0.11156 -0.11006,0.66788 -0.0209,1.23871 0.11272,0.72163 0.66105,1.34604 1.1169,1.27188 0.4156,-0.0676 0.89936,0.24214 0.73473,0.47046 -0.0944,0.13087 -1.28147,0.38285 -1.56313,0.3318 -0.62841,-0.11392 -1.17254,-0.53174 -1.51162,-1.16074 l -0.21846,-0.40523 -0.29534,0.25734 c -1.54423,1.34555 -2.69983,1.81143 -3.89408,1.5699 z m 1.83961,-1.20507 c 0.26817,-0.17353 0.79356,-0.5686 1.16755,-0.87794 0.37398,-0.30933 0.69986,-0.56283 0.72417,-0.56332 0.12739,-0.003 0.34613,-0.63534 0.38609,-1.11687 l 0.0456,-0.54957 -0.19376,0.0332 c -0.10657,0.0183 -0.32751,0.0524 -0.49097,0.0759 -0.28684,0.0412 -1.05408,0.46295 -1.3483,0.74118 -0.0786,0.0743 -0.17805,0.13748 -0.22096,0.14029 -0.0429,0.003 -0.32645,0.25402 -0.63009,0.55821 -1.4086,1.41118 -0.99373,2.56473 0.56065,1.55888 z"
       style="fill:#000000"
       id="path1" />
  </g>
</svg>
