<?xml version="1.0" encoding="UTF-8" standalone="no"?>
<!-- Created with Inkscape (http://www.inkscape.org/) -->

<svg
   width="14.668629mm"
   height="6.0685773mm"
   viewBox="0 0 14.668629 6.0685773"
   version="1.1"
   id="svg1"
   inkscape:version="1.3.2 (091e20e, 2023-11-25)"
   sodipodi:docname="cz.svg"
   xmlns:inkscape="http://www.inkscape.org/namespaces/inkscape"
   xmlns:sodipodi="http://sodipodi.sourceforge.net/DTD/sodipodi-0.dtd"
   xmlns="http://www.w3.org/2000/svg"
   xmlns:svg="http://www.w3.org/2000/svg">
  <sodipodi:namedview
     id="namedview1"
     pagecolor="#ffffff"
     bordercolor="#000000"
     borderopacity="0.25"
     inkscape:showpageshadow="2"
     inkscape:pageopacity="0.0"
     inkscape:pagecheckerboard="0"
     inkscape:deskcolor="#d1d1d1"
     inkscape:document-units="mm"
     inkscape:zoom="0.2102413"
     inkscape:cx="28.538636"
     inkscape:cy="9.5128787"
     inkscape:window-width="1312"
     inkscape:window-height="449"
     inkscape:window-x="0"
     inkscape:window-y="38"
     inkscape:window-maximized="0"
     inkscape:current-layer="layer1" />
  <defs
     id="defs1" />
  <g
     inkscape:label="Layer 1"
     inkscape:groupmode="layer"
     id="layer1"
     transform="translate(-97.040896,-145.57563)">
    <path
       d="m 100.36634,151.62434 c -0.0194,-0.0157 -0.27764,-0.0486 -0.57393,-0.0731 -1.52162,-0.12586 -2.92088,-1.37446 -2.73483,-2.44036 0.10871,-0.62282 0.14875,-0.74481 0.37379,-1.13871 0.7205,-1.26116 3.06868,-2.3624 4.87592,-2.2867 l 0.65039,0.0273 0.16718,0.17696 c 0.41018,0.43415 0.0402,0.70961 -0.97963,0.72945 -2.71785,0.0529 -4.68368,2.58159 -2.84357,3.65782 0.97283,0.56898 2.19553,0.44319 3.85228,-0.39632 1.1382,-0.57676 1.85441,-0.20316 0.91263,0.47604 -0.14503,0.10459 -0.30902,0.228 -0.36443,0.27425 -0.39989,0.33372 -3.14209,1.15037 -3.3358,0.99342 z m 7.77301,-0.0474 c -0.90186,-0.2147 -1.43164,-1.00234 -1.214,-1.80487 0.0411,-0.15146 0.0756,-0.33504 0.0768,-0.40795 l 0.002,-0.13257 h -0.55717 -0.55717 l -0.28249,-0.24981 c -0.60879,-0.53834 -0.11019,-1.17983 0.80333,-1.03356 0.23043,0.0369 0.72015,0.0765 1.08828,0.0881 l 0.66932,0.021 0.14713,-0.15519 c 0.0809,-0.0854 0.21136,-0.17626 0.28986,-0.20201 0.2169,-0.0712 0.8086,-0.72342 0.74113,-0.81699 -0.0386,-0.0535 -0.46059,-0.0774 -1.20848,-0.0684 l -1.14918,0.0138 -0.2247,-0.19259 -0.2247,-0.19259 0.0597,-0.27253 c 0.0328,-0.1499 0.095,-0.27254 0.13808,-0.27254 0.0431,0 0.10531,-0.0726 0.13816,-0.16131 l 0.0597,-0.1613 0.67541,0.0433 c 3.68984,0.23662 4.49438,0.88588 2.75388,2.2224 -0.37421,0.28735 -0.34693,0.32058 0.33045,0.40265 0.72899,0.0883 1.38713,0.60866 0.76985,0.60866 -0.0746,0 -0.22413,0.0497 -0.33221,0.11036 -0.14942,0.0839 -1.65861,0.26779 -2.20233,0.26834 -0.2161,2.2e-4 -0.42327,0.35684 -0.42327,0.7286 0,0.65478 0.27906,0.75307 1.46744,0.51686 0.8854,-0.176 1.71444,-0.0108 1.71444,0.34163 0,0.38793 -2.69057,0.96281 -3.54933,0.75837 z"
       style="fill:#000000"
       id="path1" />
  </g>
</svg>
