<?xml version="1.0" encoding="UTF-8" standalone="no"?>
<!-- Created with Inkscape (http://www.inkscape.org/) -->

<svg
   width="5.84372mm"
   height="9.2644482mm"
   viewBox="0 0 5.84372 9.2644482"
   version="1.1"
   id="svg1"
   inkscape:version="1.3.2 (091e20e, 2023-11-25)"
   sodipodi:docname="d.svg"
   xmlns:inkscape="http://www.inkscape.org/namespaces/inkscape"
   xmlns:sodipodi="http://sodipodi.sourceforge.net/DTD/sodipodi-0.dtd"
   xmlns="http://www.w3.org/2000/svg"
   xmlns:svg="http://www.w3.org/2000/svg">
  <sodipodi:namedview
     id="namedview1"
     pagecolor="#ffffff"
     bordercolor="#000000"
     borderopacity="0.25"
     inkscape:showpageshadow="2"
     inkscape:pageopacity="0.0"
     inkscape:pagecheckerboard="0"
     inkscape:deskcolor="#d1d1d1"
     inkscape:document-units="mm"
     inkscape:zoom="0.2102413"
     inkscape:cx="9.5128787"
     inkscape:cy="19.025757"
     inkscape:window-width="1312"
     inkscape:window-height="449"
     inkscape:window-x="0"
     inkscape:window-y="38"
     inkscape:window-maximized="0"
     inkscape:current-layer="layer1" />
  <defs
     id="defs1" />
  <g
     inkscape:label="Layer 1"
     inkscape:groupmode="layer"
     id="layer1"
     transform="translate(-101.58542,-143.99091)">
    <path
       d="m 103.92524,153.19375 c -1.92223,-0.32756 -2.82386,-1.6103 -2.07975,-2.95885 0.1438,-0.2606 0.29486,-0.49377 0.3357,-0.51814 0.0408,-0.0244 0.15942,-0.14894 0.26352,-0.27683 0.16123,-0.19808 1.17341,-0.86591 1.3124,-0.86591 0.0255,0 0.23032,-0.0719 0.45526,-0.15969 0.57865,-0.22593 1.17845,-0.36892 1.60807,-0.38335 l 0.36907,-0.0124 -0.0516,-1.29418 c -0.0284,-0.7118 -0.0963,-1.54368 -0.15083,-1.84862 l -0.0992,-0.55445 0.17735,-0.152 c 0.12146,-0.1041 0.30986,-0.15617 0.59787,-0.16522 l 0.42053,-0.0132 0.16323,0.18939 0.16322,0.18938 0.0175,2.61352 c 0.0163,2.43615 -0.0949,4.24511 -0.32892,5.34996 -0.0747,0.35253 -0.51352,0.73476 -0.76418,0.66558 -0.26022,-0.0718 -0.27272,-0.0704 -0.99371,0.11393 -0.65396,0.16719 -0.84571,0.17817 -1.41547,0.0811 z m 1.41519,-1.12366 c 0.34161,-0.0952 0.50794,-0.21887 0.5358,-0.39834 0.0155,-0.0997 0.069,-0.43687 0.11907,-0.74936 0.12835,-0.80181 0.11905,-1.45958 -0.023,-1.62607 l -0.1194,-0.13996 -0.39215,0.0461 c -1.01561,0.11931 -2.28314,1.09177 -2.42681,1.86188 l -0.0595,0.31901 0.21077,0.19621 c 0.46562,0.43347 1.50842,0.67082 2.15525,0.49056 z"
       style="fill:#000000"
       id="path1" />
  </g>
</svg>
