<?xml version="1.0" encoding="UTF-8" standalone="no"?>
<!-- Created with Inkscape (http://www.inkscape.org/) -->

<svg
   width="17.377558mm"
   height="13.893578mm"
   viewBox="0 0 17.377558 13.893578"
   version="1.1"
   id="svg1"
   inkscape:version="1.3.2 (091e20e, 2023-11-25)"
   sodipodi:docname="eminusi.svg"
   xmlns:inkscape="http://www.inkscape.org/namespaces/inkscape"
   xmlns:sodipodi="http://sodipodi.sourceforge.net/DTD/sodipodi-0.dtd"
   xmlns="http://www.w3.org/2000/svg"
   xmlns:svg="http://www.w3.org/2000/svg">
  <sodipodi:namedview
     id="namedview1"
     pagecolor="#ffffff"
     bordercolor="#000000"
     borderopacity="0.25"
     inkscape:showpageshadow="2"
     inkscape:pageopacity="0.0"
     inkscape:pagecheckerboard="0"
     inkscape:deskcolor="#d1d1d1"
     inkscape:document-units="mm"
     inkscape:zoom="0.2102413"
     inkscape:cx="33.295075"
     inkscape:cy="28.538636"
     inkscape:window-width="1312"
     inkscape:window-height="449"
     inkscape:window-x="0"
     inkscape:window-y="38"
     inkscape:window-maximized="0"
     inkscape:current-layer="layer1" />
  <defs
     id="defs1" />
  <g
     inkscape:label="Layer 1"
     inkscape:groupmode="layer"
     id="layer1"
     transform="translate(-95.848004,-141.52405)">
    <path
       d="m 99.375544,155.38687 c -1.608545,-0.3255 -2.950546,-1.26089 -3.325444,-2.31788 -0.191956,-0.5412 -0.209524,-0.64676 -0.20012,-1.20238 0.01814,-1.0725 0.745928,-1.931 2.230978,-2.63173 0.114388,-0.054 0.492236,-0.17831 0.839668,-0.2763 4.067474,-1.14719 7.796934,-0.039 5.353074,1.59064 -0.24993,0.16666 -0.50679,0.34563 -0.57081,0.39771 -0.064,0.0521 -0.15041,0.0947 -0.19198,0.0947 -0.0416,0 -0.28366,0.1149 -0.53798,0.25533 -1.16989,0.646 -4.710185,1.17199 -5.29494,0.78668 -0.171331,-0.1129 -0.296646,0.0101 -0.235951,0.23151 0.09091,0.33168 0.402344,0.92335 0.486025,0.92335 0.04263,0 0.0775,0.0494 0.0775,0.10977 0,0.0604 0.14915,0.20507 0.331448,0.32153 0.182294,0.11646 0.35133,0.23275 0.375639,0.25842 0.341506,0.3607 2.140029,0.65292 3.226079,0.52417 0.864,-0.10242 0.99349,-0.1404 1.93591,-0.56785 0.61126,-0.27724 0.94095,-0.38755 1.02511,-0.34298 0.0682,0.0361 0.15577,0.0489 0.19455,0.0284 0.24556,-0.13007 -0.006,0.26087 -0.40532,0.63012 -0.53793,0.49732 -1.09313,0.78023 -2.03337,1.03614 l -0.64663,0.176 -1.22833,0.005 c -0.67558,0.003 -1.307884,-0.0109 -1.405107,-0.0305 z m 1.269426,-4.50506 c 1.39508,-0.1908 3.0757,-1.04084 2.64164,-1.33612 -0.90762,-0.61742 -4.020132,-0.10667 -5.084242,0.83431 l -0.280063,0.24766 0.344516,0.008 c 0.19567,0.004 0.439033,0.0715 0.563282,0.15523 0.273649,0.18449 0.901852,0.21605 1.814867,0.0912 z m 10.57426,-2.69537 c -1.56144,-0.17424 -1.93975,-1.60019 -0.95487,-3.59912 0.14219,-0.28859 0.69798,-0.59082 1.08649,-0.59082 0.4659,0 0.65362,0.48808 0.39319,1.0223 -0.0759,0.15579 -0.15198,0.37301 -0.16896,0.48271 -0.017,0.1097 -0.0742,0.29551 -0.12716,0.41291 -0.0865,0.19169 -0.072,0.5282 0.0437,1.01755 0.0526,0.22264 0.22139,0.21597 0.47888,-0.0189 0.11417,-0.10416 0.24203,-0.18938 0.28414,-0.18938 0.0421,0 0.19583,-0.0756 0.34161,-0.16796 l 0.26505,-0.16795 0.21664,0.22477 c 0.39861,0.41358 -0.0361,1.03043 -0.99,1.40489 -0.31009,0.12173 -0.57275,0.21622 -0.58368,0.20998 -0.0109,-0.006 -0.13921,-0.0247 -0.28504,-0.0409 z m -5.28473,-0.96092 -0.37196,-0.16098 -0.006,-0.2951 c -0.0118,-0.5838 0.29016,-0.72049 1.71772,-0.77768 0.95351,-0.0382 1.29936,0.0232 1.63825,0.29093 l 0.16812,0.1328 -0.21231,0.26646 -0.21232,0.26646 -0.66289,0.11956 c -0.36459,0.0658 -0.75536,0.15198 -0.86838,0.1916 -0.11303,0.0396 -0.24229,0.0525 -0.28726,0.0287 -0.045,-0.0238 -0.0818,-0.0115 -0.0818,0.0275 0,0.12412 -0.4369,0.0761 -0.82125,-0.0902 z m 5.28473,-3.9109 c -0.52219,-0.0498 -0.64928,-0.10711 -0.97231,-0.43874 -0.55865,-0.57351 -0.004,-1.12601 1.30255,-1.29703 l 0.41863,-0.0548 0.22217,0.19876 c 0.24646,0.22048 0.27166,0.35538 0.11976,0.64111 l -0.10241,0.19264 0.1466,0.13884 c 0.38527,0.36488 -0.23765,0.70473 -1.13499,0.61922 z"
       style="fill:#000000"
       id="path1" />
  </g>
</svg>
