<?xml version="1.0" encoding="UTF-8" standalone="no"?>
<!-- Created with Inkscape (http://www.inkscape.org/) -->

<svg
   width="4.0597854mm"
   height="5.4846978mm"
   viewBox="0 0 4.0597854 5.4846978"
   version="1.1"
   id="svg1"
   inkscape:version="1.3.2 (091e20e, 2023-11-25)"
   sodipodi:docname="i.svg"
   xmlns:inkscape="http://www.inkscape.org/namespaces/inkscape"
   xmlns:sodipodi="http://sodipodi.sourceforge.net/DTD/sodipodi-0.dtd"
   xmlns="http://www.w3.org/2000/svg"
   xmlns:svg="http://www.w3.org/2000/svg">
  <sodipodi:namedview
     id="namedview1"
     pagecolor="#ffffff"
     bordercolor="#000000"
     borderopacity="0.25"
     inkscape:showpageshadow="2"
     inkscape:pageopacity="0.0"
     inkscape:pagecheckerboard="0"
     inkscape:deskcolor="#d1d1d1"
     inkscape:document-units="mm"
     inkscape:zoom="1.1893044"
     inkscape:cx="63.9029"
     inkscape:cy="41.620968"
     inkscape:window-width="1920"
     inkscape:window-height="1022"
     inkscape:window-x="1728"
     inkscape:window-y="30"
     inkscape:window-maximized="0"
     inkscape:current-layer="layer1" />
  <defs
     id="defs1" />
  <g
     inkscape:label="Layer 1"
     inkscape:groupmode="layer"
     id="layer1"
     transform="translate(-102.35162,-145.20697)">
    <path
       d="m 103.0712,150.60975 c -0.98907,-0.35064 -0.95096,-2.08852 0.0676,-3.0828 0.29433,-0.28732 0.56325,-0.32291 0.92984,-0.12304 0.47641,0.25973 0.49613,0.49433 0.0712,0.8473 -0.34837,0.2894 -0.46543,0.64188 -0.41462,1.24852 0.0242,0.28874 0.82132,0.10302 1.34954,-0.31443 0.12973,-0.10253 0.27439,-0.16602 0.32147,-0.14108 0.0471,0.0249 0.0801,-0.009 0.0735,-0.0758 -0.007,-0.0666 0.0943,-0.19029 0.22425,-0.27484 l 0.23637,-0.15372 0.26956,0.18095 c 0.99996,0.67128 -1.79817,2.3606 -3.12872,1.88891 z m 0.52898,-4.49759 c -0.39484,-0.48315 0.49982,-1.21442 0.93541,-0.76457 0.0572,0.0591 0.15879,0.10741 0.22576,0.10741 0.067,0 0.12781,0.0597 0.13522,0.13257 0.007,0.0729 0.0195,0.1837 0.0269,0.24619 0.0252,0.21191 -0.292,0.38653 -0.75062,0.41326 l -0.44148,0.0257 z"
       style="fill:#000000"
       id="path1" />
  </g>
</svg>
