<?xml version="1.0" encoding="UTF-8" standalone="no"?>
<!-- Created with Inkscape (http://www.inkscape.org/) -->

<svg
   width="8.7753286mm"
   height="17.849245mm"
   viewBox="0 0 8.7753286 17.849245"
   version="1.1"
   id="svg1"
   inkscape:version="1.3.2 (091e20e, 2023-11-25)"
   sodipodi:docname="integral.svg"
   xmlns:inkscape="http://www.inkscape.org/namespaces/inkscape"
   xmlns:sodipodi="http://sodipodi.sourceforge.net/DTD/sodipodi-0.dtd"
   xmlns="http://www.w3.org/2000/svg"
   xmlns:svg="http://www.w3.org/2000/svg">
  <sodipodi:namedview
     id="namedview1"
     pagecolor="#ffffff"
     bordercolor="#000000"
     borderopacity="0.25"
     inkscape:showpageshadow="2"
     inkscape:pageopacity="0.0"
     inkscape:pagecheckerboard="0"
     inkscape:deskcolor="#d1d1d1"
     inkscape:document-units="mm"
     inkscape:zoom="0.2102413"
     inkscape:cx="19.025757"
     inkscape:cy="33.295075"
     inkscape:window-width="1312"
     inkscape:window-height="449"
     inkscape:window-x="0"
     inkscape:window-y="38"
     inkscape:window-maximized="0"
     inkscape:current-layer="layer1" />
  <defs
     id="defs1" />
  <g
     inkscape:label="Layer 1"
     inkscape:groupmode="layer"
     id="layer1"
     transform="translate(-100.00667,-139.58215)">
    <path
       d="m 101.71948,157.36207 c -0.0486,-0.0178 -0.25561,-0.0693 -0.46,-0.11426 -0.48301,-0.10635 -0.87134,-0.39223 -1.08897,-0.80168 -0.208379,-0.39205 -0.210761,-0.41247 -0.0481,-0.41247 0.0695,0 0.13914,-0.0764 0.15468,-0.16967 0.0377,-0.22643 0.28522,-0.2554 0.56582,-0.0662 2.3111,1.5581 4.77804,-0.7968 3.8298,-3.65586 -0.0985,-0.29692 -0.19314,-0.59099 -0.21037,-0.65348 -0.0172,-0.0625 -0.13627,-0.38635 -0.26454,-0.71967 -0.29571,-0.76845 -1.15558,-3.26081 -1.24142,-3.59831 -0.0483,-0.18975 -0.19799,-0.68734 -0.3989,-1.32569 -0.37219,-1.18257 -0.30786,-2.95044 0.12542,-3.44681 0.0546,-0.0625 0.17518,-0.23295 0.26807,-0.37877 0.0929,-0.14583 0.22171,-0.2924 0.28627,-0.32572 0.0646,-0.0333 0.1174,-0.0953 0.1174,-0.13786 0,-0.0997 0.43562,-0.63684 0.78696,-0.97045 0.15052,-0.14291 0.27367,-0.28642 0.27367,-0.31889 0,-0.59785 1.76342,-0.92398 2.56318,-0.47404 0.70603,0.39721 1.06529,0.81289 1.41781,1.64052 0.11077,0.26004 0.25368,0.52566 0.31759,0.59027 0.23928,0.24188 -0.19359,0.9726 -0.64523,1.08921 -0.10529,0.0272 -0.21701,0.014 -0.24828,-0.0294 -0.0313,-0.0434 -0.12947,-0.0788 -0.21824,-0.0788 -0.23371,0 -0.41487,-0.28319 -0.47187,-0.73762 -0.0961,-0.76623 -0.59128,-1.36742 -1.18162,-1.43464 l -0.34014,-0.0387 -0.32563,0.32901 c -0.65903,0.66588 -1.08335,1.1823 -1.42183,1.73046 -0.21588,0.34961 -0.29894,1.4697 -0.15447,2.08324 0.19753,0.8389 0.66595,2.33342 0.87012,2.77617 0.0509,0.11029 0.0735,0.21682 0.0502,0.23674 -0.0232,0.0199 0.0177,0.1683 0.0911,0.32974 0.0733,0.16145 0.21213,0.54215 0.30847,0.84601 0.0963,0.30386 0.23689,0.65851 0.31232,0.78812 0.0754,0.1296 0.13716,0.30082 0.13716,0.38049 0,0.0797 0.0483,0.21931 0.10745,0.31032 1.25526,1.933 0.85106,4.41255 -0.96017,5.89015 -0.85032,0.6937 -2.24412,1.11064 -2.90367,0.86862 z"
       style="fill:#000000"
       id="path1" />
  </g>
</svg>
