<?xml version="1.0" encoding="UTF-8" standalone="no"?>
<!-- Created with Inkscape (http://www.inkscape.org/) -->

<svg
   width="210mm"
   height="297mm"
   viewBox="0 0 210 297"
   version="1.1"
   id="svg1"
   inkscape:version="1.3.2 (091e20e, 2023-11-25)"
   sodipodi:docname="minus2pi.svg"
   xmlns:inkscape="http://www.inkscape.org/namespaces/inkscape"
   xmlns:sodipodi="http://sodipodi.sourceforge.net/DTD/sodipodi-0.dtd"
   xmlns="http://www.w3.org/2000/svg"
   xmlns:svg="http://www.w3.org/2000/svg">
  <sodipodi:namedview
     id="namedview1"
     pagecolor="#ffffff"
     bordercolor="#000000"
     borderopacity="0.25"
     inkscape:showpageshadow="2"
     inkscape:pageopacity="0.0"
     inkscape:pagecheckerboard="0"
     inkscape:deskcolor="#d1d1d1"
     inkscape:document-units="mm"
     inkscape:zoom="0.2102413"
     inkscape:cx="394.78447"
     inkscape:cy="561.25984"
     inkscape:window-width="1312"
     inkscape:window-height="449"
     inkscape:window-x="0"
     inkscape:window-y="38"
     inkscape:window-maximized="0"
     inkscape:current-layer="layer1" />
  <defs
     id="defs1" />
  <g
     inkscape:label="Layer 1"
     inkscape:groupmode="layer"
     id="layer1">
    <path
       d="m 107.37813,151.42745 c -0.1813,-0.18723 -0.20742,-0.61659 -0.0634,-1.04132 0.0766,-0.22587 0.19369,-0.7018 0.26017,-1.05763 l 0.12087,-0.64694 -0.33461,0.13856 c -0.74408,0.30812 -1.56086,-0.31773 -1.0232,-0.78401 0.0635,-0.0551 0.13982,-0.15537 0.16963,-0.22293 0.0298,-0.0675 0.16296,-0.14621 0.29588,-0.17481 0.13292,-0.0286 0.41703,-0.15539 0.63137,-0.28178 1.80792,-1.06612 3.42148,-1.19159 3.69252,-0.28713 0.17877,0.59654 0.82516,0.7955 1.55869,0.47977 l 0.23234,-0.1 0.13285,0.12975 c 0.25468,0.24875 0.27421,0.46358 0.0492,0.54115 -0.11264,0.0388 -0.35617,0.19227 -0.54117,0.34095 -0.185,0.14869 -0.39092,0.27034 -0.45761,0.27034 -0.2763,0 -0.45973,0.35858 -0.51846,1.01353 -0.066,0.73628 -0.16543,1.01459 -0.38766,1.08547 -0.0858,0.0274 -0.26084,0.11525 -0.38897,0.1953 -0.59284,0.37034 -0.7139,0.10767 -0.60353,-1.30949 0.047,-0.60414 0.0877,-1.16094 0.0903,-1.23734 0.003,-0.0764 -0.0869,-0.21757 -0.19903,-0.31373 -0.11209,-0.0962 -0.26347,-0.24424 -0.33639,-0.32909 -0.10356,-0.1205 -0.17588,-0.13948 -0.33047,-0.0867 l -0.1979,0.0675 0.0768,0.1732 c 0.0799,0.18029 -0.0844,0.88159 -0.44868,1.91553 -0.10277,0.29165 -0.20579,0.67393 -0.22893,0.84951 l -0.0421,0.31923 -0.29902,0.0846 c -0.16645,0.0471 -0.27406,0.11921 -0.2427,0.1627 0.13769,0.19095 -0.48825,0.29027 -0.66686,0.10581 z m -5.13294,-0.74754 c -1.63288,-0.37978 -1.67366,-1.21902 -0.1312,-2.70064 1.01078,-0.9709 0.97224,-1.3521 -0.11646,-1.15198 -0.79721,0.14653 -1.29365,-0.0958 -1.08338,-0.52893 0.44113,-0.90855 2.81719,-0.93469 3.28096,-0.0361 l 0.17389,0.33693 -0.18175,0.39521 c -0.20534,0.44648 -0.60356,1.05497 -0.69094,1.05575 -0.0318,2.8e-4 -0.15732,0.12633 -0.27885,0.28009 -0.12154,0.15377 -0.33181,0.38364 -0.46728,0.51082 -0.67882,0.63731 -0.22264,0.93648 1.21247,0.79516 0.82816,-0.0816 1.21616,-0.0375 1.42668,0.16183 l 0.15055,0.14259 -0.11475,0.1185 c -0.0631,0.0652 -0.17171,0.0998 -0.24133,0.0769 -0.0782,-0.0257 -0.14472,0.0178 -0.17397,0.11361 -0.12224,0.40063 -1.78167,0.6589 -2.76464,0.43029 z m -5.442848,-1.90151 c -0.90528,-0.11048 -1.009288,-0.14701 -1.009288,-0.35446 0,-0.0809 -0.03978,-0.14704 -0.08839,-0.14704 -0.04861,0 -0.08839,-0.13041 -0.08839,-0.28981 0,-0.65545 0.645828,-0.78758 2.16545,-0.44302 0.486122,0.11022 0.970127,0.20088 1.075562,0.20148 0.509706,0.003 0.990039,0.48993 0.537479,0.54502 -0.10938,0.0133 -0.19887,0.0753 -0.19887,0.13784 0,0.39995 -0.90266,0.53194 -2.39356,0.34999 z"
       style="fill:#000000"
       id="path1" />
  </g>
</svg>
