<?xml version="1.0" encoding="UTF-8" standalone="no"?>
<!-- Created with Inkscape (http://www.inkscape.org/) -->

<svg
   width="5.994482mm"
   height="1.6653751mm"
   viewBox="0 0 5.994482 1.6653751"
   version="1.1"
   id="svg1"
   inkscape:version="1.3.2 (091e20e, 2023-11-25)"
   sodipodi:docname="minus.svg"
   xmlns:inkscape="http://www.inkscape.org/namespaces/inkscape"
   xmlns:sodipodi="http://sodipodi.sourceforge.net/DTD/sodipodi-0.dtd"
   xmlns="http://www.w3.org/2000/svg"
   xmlns:svg="http://www.w3.org/2000/svg">
  <sodipodi:namedview
     id="namedview1"
     pagecolor="#ffffff"
     bordercolor="#000000"
     borderopacity="0.25"
     inkscape:showpageshadow="2"
     inkscape:pageopacity="0.0"
     inkscape:pagecheckerboard="0"
     inkscape:deskcolor="#d1d1d1"
     inkscape:document-units="mm"
     inkscape:zoom="0.2102413"
     inkscape:cx="9.5128787"
     inkscape:cy="4.7564393"
     inkscape:window-width="1312"
     inkscape:window-height="449"
     inkscape:window-x="0"
     inkscape:window-y="38"
     inkscape:window-maximized="0"
     inkscape:current-layer="layer1" />
  <defs
     id="defs1" />
  <g
     inkscape:label="Layer 1"
     inkscape:groupmode="layer"
     id="layer1"
     transform="translate(-101.37596,-147.67519)">
    <path
       d="m 105.71176,149.27351 c -0.6642,-0.096 -1.6677,-0.15504 -2.78415,-0.16379 l -1.06063,-0.008 -0.19428,-0.15095 c -0.4674,-0.36313 -0.367,-0.96685 0.19116,-1.14955 l 0.38505,-0.12603 0.69289,0.11262 c 0.38109,0.0619 1.09063,0.134 1.57675,0.16014 0.48612,0.0261 1.26168,0.10495 1.72347,0.17514 l 0.83961,0.12761 0.17683,0.28324 c 0.21932,0.35133 0.11728,0.5387 -0.31308,0.57488 -0.16241,0.0136 -0.37606,0.0733 -0.47477,0.13257 -0.0987,0.0593 -0.22035,0.10374 -0.2703,0.0988 -0.0499,-0.005 -0.2698,-0.0348 -0.48855,-0.0664 z"
       style="fill:#000000"
       id="path1" />
  </g>
</svg>
