<?xml version="1.0" encoding="UTF-8" standalone="no"?>
<!-- Created with Inkscape (http://www.inkscape.org/) -->

<svg
   width="7.5168533mm"
   height="8.4011192mm"
   viewBox="0 0 7.5168533 8.4011192"
   version="1.1"
   id="svg1"
   inkscape:version="1.3.2 (091e20e, 2023-11-25)"
   sodipodi:docname="partial.svg"
   xmlns:inkscape="http://www.inkscape.org/namespaces/inkscape"
   xmlns:sodipodi="http://sodipodi.sourceforge.net/DTD/sodipodi-0.dtd"
   xmlns="http://www.w3.org/2000/svg"
   xmlns:svg="http://www.w3.org/2000/svg">
  <sodipodi:namedview
     id="namedview1"
     pagecolor="#ffffff"
     bordercolor="#000000"
     borderopacity="0.25"
     inkscape:showpageshadow="2"
     inkscape:pageopacity="0.0"
     inkscape:pagecheckerboard="0"
     inkscape:deskcolor="#d1d1d1"
     inkscape:document-units="mm"
     inkscape:zoom="0.2102413"
     inkscape:cx="14.269318"
     inkscape:cy="14.269318"
     inkscape:window-width="1312"
     inkscape:window-height="449"
     inkscape:window-x="0"
     inkscape:window-y="38"
     inkscape:window-maximized="0"
     inkscape:current-layer="layer1" />
  <defs
     id="defs1" />
  <g
     inkscape:label="Layer 1"
     inkscape:groupmode="layer"
     id="layer1"
     transform="translate(-100.78579,-144.4166)">
    <path
       d="m 101.46983,152.7653 c -0.34917,-0.0859 -0.6383,-0.2778 -0.56721,-0.37638 0.026,-0.0361 6.7e-4,-0.0656 -0.0566,-0.0656 -0.12497,0 -0.0448,-0.80248 0.14237,-1.42492 0.3689,-1.22687 2.08639,-2.55725 3.49076,-2.70395 l 0.49036,-0.0512 0.26204,0.21514 c 0.14412,0.11833 0.32735,0.30036 0.40717,0.40452 0.19817,0.25862 0.27555,0.17292 0.60415,-0.66912 0.65497,-1.67839 0.7152,-2.20185 0.27519,-2.39157 -1.0476,-0.4517 -2.65043,0.12007 -3.13753,1.11924 -0.14191,0.2911 -0.46838,0.45687 -0.73885,0.37517 -2.25538,-0.68128 1.18118,-3.10871 3.88286,-2.74267 1.28046,0.17348 2.17598,1.54671 1.59966,2.45298 -0.053,0.0833 -0.11689,0.25378 -0.142,0.37877 -0.0554,0.27585 -0.41129,1.21475 -0.67027,1.76833 -0.14038,0.30008 -0.17629,0.496 -0.13883,0.75754 0.0383,0.26775 0.0122,0.40081 -0.10853,0.55206 -0.0875,0.1096 -0.30382,0.38231 -0.48076,0.60603 -0.84662,1.07041 -1.39025,1.37142 -2.79552,1.54787 -0.1814,0.0228 -0.44913,0.0708 -0.59497,0.10662 -0.14584,0.0359 -0.42425,0.0863 -0.6187,0.11205 -0.19445,0.0258 -0.45298,0.06 -0.57451,0.0761 -0.12153,0.0161 -0.36017,-0.005 -0.53031,-0.0469 z m 2.4085,-1.42542 c 0.37675,-0.0526 0.685,-0.11864 0.685,-0.14684 0,-0.0282 0.15909,-0.1932 0.35354,-0.36664 0.42935,-0.38296 0.43061,-0.40193 0.0495,-0.73832 -0.16725,-0.14761 -0.32785,-0.33257 -0.35691,-0.41103 -0.0581,-0.15696 -0.31159,-0.27198 -0.39257,-0.17816 -0.0282,0.0327 -0.24185,0.14158 -0.47479,0.24203 -0.51621,0.22263 -1.08103,0.78266 -1.27081,1.26005 l -0.1408,0.35415 0.1221,0.0698 c 0.13257,0.0758 0.37723,0.0612 1.42578,-0.0851 z"
       style="fill:#000000"
       id="path1" />
  </g>
</svg>
