<?xml version="1.0" encoding="UTF-8" standalone="no"?>
<!-- Created with Inkscape (http://www.inkscape.org/) -->

<svg
   width="8.3520832mm"
   height="8.9746599mm"
   viewBox="0 0 8.3520832 8.9746599"
   version="1.1"
   id="svg1"
   inkscape:version="1.3.2 (091e20e, 2023-11-25)"
   sodipodi:docname="phi.svg"
   xmlns:inkscape="http://www.inkscape.org/namespaces/inkscape"
   xmlns:sodipodi="http://sodipodi.sourceforge.net/DTD/sodipodi-0.dtd"
   xmlns="http://www.w3.org/2000/svg"
   xmlns:svg="http://www.w3.org/2000/svg">
  <sodipodi:namedview
     id="namedview1"
     pagecolor="#ffffff"
     bordercolor="#000000"
     borderopacity="0.25"
     inkscape:showpageshadow="2"
     inkscape:pageopacity="0.0"
     inkscape:pagecheckerboard="0"
     inkscape:deskcolor="#d1d1d1"
     inkscape:document-units="mm"
     inkscape:zoom="0.2102413"
     inkscape:cx="14.269318"
     inkscape:cy="19.025757"
     inkscape:window-width="1312"
     inkscape:window-height="449"
     inkscape:window-x="0"
     inkscape:window-y="38"
     inkscape:window-maximized="0"
     inkscape:current-layer="layer1" />
  <defs
     id="defs1" />
  <g
     inkscape:label="Layer 1"
     inkscape:groupmode="layer"
     id="layer1"
     transform="translate(-100.2532,-143.94171)">
    <path
       d="m 102.29531,152.75698 -0.003,-0.15933 -0.0978,0.14433 -0.0978,0.14432 -0.10471,-0.21957 c -0.066,-0.13845 -0.0799,-0.33169 -0.0374,-0.52309 l 0.0673,-0.30353 -0.14935,-0.0935 c -2.61991,-1.63976 -1.94565,-5.52807 1.1922,-6.87524 l 0.66165,-0.28406 0.35314,0.0406 c 0.46973,0.054 0.71012,0.24655 0.67564,0.54119 -0.0385,0.32899 0.21054,0.34345 0.47885,0.0278 0.71572,-0.84203 0.9016,-1.03185 1.11393,-1.13751 l 0.23645,-0.11768 0.42984,0.0951 c 0.65005,0.1439 0.75894,0.512 0.27867,0.94199 -0.90011,0.80587 -1.02754,1.10685 -0.61348,1.44893 1.49174,1.2324 2.21989,2.55213 1.81523,3.28997 -0.1027,0.18727 -0.18673,0.3722 -0.18673,0.41097 0,0.73521 -2.78781,1.99855 -4.39269,1.99062 l -0.55777,-0.003 -0.11006,0.16478 c -0.0605,0.0906 -0.15341,0.26705 -0.2064,0.39204 l -0.0963,0.22726 -0.32349,0.008 -0.32349,0.008 z m 3.14454,-1.94638 c 0.77265,-0.22369 1.37569,-0.70637 1.52731,-1.22248 l 0.10189,-0.34679 -0.12301,-0.29881 c -0.25908,-0.62938 -1.07282,-1.68533 -1.29887,-1.68548 -0.0295,-3e-5 -0.23666,0.36642 -0.46031,0.81432 -0.22365,0.44789 -0.50774,0.99315 -0.63131,1.21169 -0.12357,0.21853 -0.22468,0.41978 -0.22468,0.44721 0,0.0274 -0.1003,0.2316 -0.22289,0.4537 -0.1226,0.22211 -0.24811,0.51185 -0.27891,0.64387 l -0.056,0.24005 0.53184,-0.0413 c 0.29251,-0.0227 0.80324,-0.11991 1.13496,-0.21595 z m -2.83666,-0.51287 c 0.053,-0.13497 0.13532,-0.26927 0.18286,-0.29844 0.0476,-0.0292 0.0975,-0.13825 0.11103,-0.24241 0.0135,-0.10416 0.14278,-0.40627 0.28725,-0.67135 0.14448,-0.26509 0.26268,-0.52852 0.26268,-0.58542 0,-0.0569 0.0958,-0.28317 0.21289,-0.50283 0.8165,-1.53178 0.81429,-1.74937 -0.0182,-1.78774 l -0.53758,-0.0248 -0.20421,0.2011 c -1.0651,1.0489 -1.42632,3.14206 -0.69568,4.0313 0.17734,0.21584 0.27921,0.18534 0.39893,-0.11943 z"
       style="fill:#000000"
       id="path1" />
  </g>
</svg>
