<?xml version="1.0" encoding="UTF-8" standalone="no"?>
<!-- Created with Inkscape (http://www.inkscape.org/) -->

<svg
   width="39.213566mm"
   height="37.964619mm"
   viewBox="0 0 39.213566 37.964619"
   version="1.1"
   id="svg1"
   inkscape:version="1.3.2 (091e20e, 2023-11-25)"
   sodipodi:docname="pi.svg"
   xmlns:inkscape="http://www.inkscape.org/namespaces/inkscape"
   xmlns:sodipodi="http://sodipodi.sourceforge.net/DTD/sodipodi-0.dtd"
   xmlns="http://www.w3.org/2000/svg"
   xmlns:svg="http://www.w3.org/2000/svg">
  <sodipodi:namedview
     id="namedview1"
     pagecolor="#ffffff"
     bordercolor="#000000"
     borderopacity="0.25"
     inkscape:showpageshadow="2"
     inkscape:pageopacity="0.0"
     inkscape:pagecheckerboard="0"
     inkscape:deskcolor="#d1d1d1"
     inkscape:document-units="mm"
     inkscape:zoom="0.84096521"
     inkscape:cx="91.561457"
     inkscape:cy="107.61444"
     inkscape:window-width="1520"
     inkscape:window-height="780"
     inkscape:window-x="1883"
     inkscape:window-y="88"
     inkscape:window-maximized="0"
     inkscape:current-layer="layer1" />
  <defs
     id="defs1" />
  <g
     inkscape:label="Layer 1"
     inkscape:groupmode="layer"
     id="layer1"
     transform="translate(-84.903954,-129.43655)">
    <path
       d="m 97.14427,166.92927 c -0.52551,-1.01044 -0.85746,-4.27759 -0.83538,-8.2221 0.0128,-2.28094 0.0178,-8.64178 0.0112,-14.13519 l -0.012,-9.98802 -0.46302,0.003 c -0.25466,0.002 -1.18212,0.2289 -2.06102,0.50451 -0.87889,0.2756 -1.97292,0.56018 -2.43117,0.6324 -0.45826,0.0722 -0.96262,0.21131 -1.12082,0.30908 -0.72542,0.44834 -3.67892,0.19878 -4.491,-0.37947 -1.67162,-1.1903 -0.68304,-3.32016 1.58081,-3.40579 0.65016,-0.0246 1.59858,-0.16848 2.1076,-0.31976 0.50902,-0.15128 1.81847,-0.39238 2.90987,-0.53577 1.09141,-0.1434 2.57969,-0.37337 3.30729,-0.51104 1.63089,-0.30858 4.84585,-0.75114 6.61459,-0.91054 0.7276,-0.0656 2.21588,-0.21314 3.30729,-0.32792 2.52747,-0.26581 7.07574,-0.27631 9.12812,-0.0211 1.78115,0.22151 3.47544,0.45406 3.93054,0.53948 0.16654,0.0313 0.39027,0.1759 0.49718,0.32142 0.11708,0.15936 0.196,0.12017 0.19844,-0.0985 0.003,-0.25332 0.10406,-0.28413 0.33478,-0.10188 0.1819,0.14369 0.81987,0.32327 1.41771,0.39907 5.26428,0.66745 3.24649,2.10436 -2.60833,1.85744 l -3.37344,-0.14227 -0.0463,0.69674 c -0.16962,2.55228 -0.48347,6.00571 -0.61637,6.78215 -0.14133,0.82563 -0.33176,4.88044 -0.55918,11.90625 -0.25836,7.98147 -0.27345,8.2867 -0.43842,8.86354 -0.0832,0.29104 -0.16044,0.75026 -0.17157,1.02049 -0.0134,0.32427 -0.15519,0.43955 -0.41712,0.33904 -0.21828,-0.0838 -0.39687,-0.0499 -0.39687,0.0753 0,0.31267 -1.26336,0.60411 -1.83386,0.42304 -0.87712,-0.27839 -1.69562,-14.29329 -0.83476,-14.29329 0.0132,0 0.0841,-2.44078 0.15765,-5.42396 0.0735,-2.98317 0.22431,-6.31692 0.33507,-7.40833 0.11076,-1.09141 0.15868,-2.20307 0.10648,-2.47037 l -0.0949,-0.48599 -2.01598,0.17391 c -1.10879,0.0956 -2.08033,0.21257 -2.15899,0.25984 -0.0786,0.0473 -1.03598,0.1666 -2.12738,0.26519 -3.93179,0.35515 -3.69728,-0.32852 -3.70126,10.79023 -0.002,6.32863 -0.0764,8.13684 -0.33364,8.13999 -0.20482,0.002 -0.23,0.078 -0.0661,0.19844 0.15219,0.11181 0.27815,1.79705 0.29653,3.96714 0.0176,2.07501 0.12089,4.93251 0.22959,6.35 0.1087,1.41748 0.18206,2.75584 0.16301,2.97412 -0.019,0.21828 -0.04,0.61083 -0.0467,0.87234 -0.024,0.95015 -2.92223,1.39345 -3.37821,0.51672 z"
       style="fill:#000000"
       id="path1" />
  </g>
</svg>
