<?xml version="1.0" encoding="UTF-8" standalone="no"?>
<!-- Created with Inkscape (http://www.inkscape.org/) -->

<svg
   width="5.065918mm"
   height="7.4062533mm"
   viewBox="0 0 5.065918 7.4062533"
   version="1.1"
   id="svg1"
   inkscape:version="1.3.2 (091e20e, 2023-11-25)"
   sodipodi:docname="r.svg"
   xmlns:inkscape="http://www.inkscape.org/namespaces/inkscape"
   xmlns:sodipodi="http://sodipodi.sourceforge.net/DTD/sodipodi-0.dtd"
   xmlns="http://www.w3.org/2000/svg"
   xmlns:svg="http://www.w3.org/2000/svg">
  <sodipodi:namedview
     id="namedview1"
     pagecolor="#ffffff"
     bordercolor="#000000"
     borderopacity="0.25"
     inkscape:showpageshadow="2"
     inkscape:pageopacity="0.0"
     inkscape:pagecheckerboard="0"
     inkscape:deskcolor="#d1d1d1"
     inkscape:document-units="mm"
     inkscape:zoom="0.2102413"
     inkscape:cx="9.5128787"
     inkscape:cy="14.269318"
     inkscape:window-width="1312"
     inkscape:window-height="449"
     inkscape:window-x="0"
     inkscape:window-y="38"
     inkscape:window-maximized="0"
     inkscape:current-layer="layer1" />
  <defs
     id="defs1" />
  <g
     inkscape:label="Layer 1"
     inkscape:groupmode="layer"
     id="layer1"
     transform="translate(-101.9412,-144.66825)">
    <path
       d="m 102.7646,151.98231 c -0.40948,-0.185 -0.42316,-0.2135 -0.40509,-0.8442 0.0196,-0.68284 -0.22217,-2.89783 -0.3561,-3.26297 -0.23237,-0.63351 0.21773,-1.43399 0.82775,-1.47213 l 0.37089,-0.0232 0.19669,-0.30302 c 0.32496,-0.50064 1.00578,-1.10876 1.41498,-1.2639 l 0.38149,-0.14464 0.39848,0.15108 c 0.74752,0.28341 1.41343,1.05351 1.41343,1.6346 v 0.36822 l -0.41008,0.0151 -0.41008,0.0151 -0.41643,-0.3736 -0.41644,-0.37359 -0.16803,0.13033 c -0.34027,0.26393 -0.77586,1.0796 -0.96711,1.811 -0.0545,0.20832 -0.12065,0.44694 -0.14705,0.53027 -0.0264,0.0833 -0.0574,0.79164 -0.0688,1.57401 -0.0114,0.78237 -0.0462,1.44427 -0.0772,1.47089 -0.0311,0.0266 -0.0565,0.10888 -0.0565,0.1828 0,0.25128 -0.69481,0.36318 -1.10482,0.17794 z"
       style="fill:#000000"
       id="path1" />
  </g>
</svg>
