<?xml version="1.0" encoding="UTF-8" standalone="no"?>
<!-- Created with Inkscape (http://www.inkscape.org/) -->

<svg
   width="7.2046285mm"
   height="11.533294mm"
   viewBox="0 0 7.2046285 11.533294"
   version="1.1"
   id="svg1"
   inkscape:version="1.3.2 (091e20e, 2023-11-25)"
   sodipodi:docname="rho.svg"
   xmlns:inkscape="http://www.inkscape.org/namespaces/inkscape"
   xmlns:sodipodi="http://sodipodi.sourceforge.net/DTD/sodipodi-0.dtd"
   xmlns="http://www.w3.org/2000/svg"
   xmlns:svg="http://www.w3.org/2000/svg">
  <sodipodi:namedview
     id="namedview1"
     pagecolor="#ffffff"
     bordercolor="#000000"
     borderopacity="0.25"
     inkscape:showpageshadow="2"
     inkscape:pageopacity="0.0"
     inkscape:pagecheckerboard="0"
     inkscape:deskcolor="#d1d1d1"
     inkscape:document-units="mm"
     inkscape:zoom="0.2102413"
     inkscape:cx="14.269318"
     inkscape:cy="23.782197"
     inkscape:window-width="1312"
     inkscape:window-height="449"
     inkscape:window-x="0"
     inkscape:window-y="38"
     inkscape:window-maximized="0"
     inkscape:current-layer="layer1" />
  <defs
     id="defs1" />
  <g
     inkscape:label="Layer 1"
     inkscape:groupmode="layer"
     id="layer1"
     transform="translate(-100.8246,-142.64322)">
    <path
       d="m 101.29043,154.04053 c -0.12455,-0.0566 -0.28031,-0.18916 -0.34614,-0.29458 l -0.11969,-0.19168 0.23175,-0.39811 c 0.30026,-0.5158 0.85215,-1.97936 0.9928,-2.63285 0.0824,-0.3826 0.3805,-1.50378 0.49009,-1.84297 l 0.0937,-0.29002 -0.1382,-0.18078 c -0.33071,-0.43258 -0.0636,-1.25067 0.43518,-1.33301 0.12822,-0.0212 0.21566,-0.15614 0.33711,-0.52033 0.58085,-1.74189 1.06875,-2.6681 1.70588,-3.23844 l 0.43293,-0.38754 0.45091,-0.0435 0.4509,-0.0435 0.23704,0.1598 c 0.30193,0.20356 1.0468,1.53076 1.32075,2.35328 0.47585,1.42872 -0.11494,2.86986 -1.38582,3.38052 -0.95013,0.38177 -1.37923,0.49256 -1.95763,0.50547 l -0.61871,0.0138 -0.1115,0.37375 c -0.0613,0.20556 -0.17158,0.6976 -0.24499,1.09341 -0.0734,0.39581 -0.16762,0.78784 -0.20936,0.87117 -0.0417,0.0833 -0.16351,0.4924 -0.27063,0.90905 -0.4328,1.68352 -0.89642,2.13687 -1.77637,1.737 z m 4.03777,-6.2812 c 0.94313,-0.33775 1.55122,-1.62794 0.99843,-2.11836 -0.0446,-0.0396 -0.0811,-0.1139 -0.0811,-0.16516 0,-0.11619 -0.52085,-1.08857 -0.58309,-1.08857 -0.0251,0 -0.12777,0.16193 -0.22825,0.35983 -0.10049,0.19791 -0.25609,0.50048 -0.34578,0.67237 -0.33722,0.64629 -0.83336,2.25166 -0.73712,2.38513 0.0757,0.10492 0.62921,0.0793 0.97693,-0.0452 z"
       style="fill:#000000"
       id="path1" />
  </g>
</svg>
