<?xml version="1.0" encoding="UTF-8" standalone="no"?>
<!-- Created with Inkscape (http://www.inkscape.org/) -->

<svg
   width="16.507454mm"
   height="13.13259mm"
   viewBox="0 0 16.507454 13.13259"
   version="1.1"
   id="svg1"
   inkscape:version="1.3.2 (091e20e, 2023-11-25)"
   sodipodi:docname="rhophi.svg"
   xmlns:inkscape="http://www.inkscape.org/namespaces/inkscape"
   xmlns:sodipodi="http://sodipodi.sourceforge.net/DTD/sodipodi-0.dtd"
   xmlns="http://www.w3.org/2000/svg"
   xmlns:svg="http://www.w3.org/2000/svg">
  <sodipodi:namedview
     id="namedview1"
     pagecolor="#ffffff"
     bordercolor="#000000"
     borderopacity="0.25"
     inkscape:showpageshadow="2"
     inkscape:pageopacity="0.0"
     inkscape:pagecheckerboard="0"
     inkscape:deskcolor="#d1d1d1"
     inkscape:document-units="mm"
     inkscape:zoom="0.2102413"
     inkscape:cx="33.295075"
     inkscape:cy="23.782197"
     inkscape:window-width="1312"
     inkscape:window-height="449"
     inkscape:window-x="0"
     inkscape:window-y="38"
     inkscape:window-maximized="0"
     inkscape:current-layer="layer1" />
  <defs
     id="defs1" />
  <g
     inkscape:label="Layer 1"
     inkscape:groupmode="layer"
     id="layer1"
     transform="translate(-96.144559,-141.82338)">
    <path
       d="m 96.78929,154.90681 c -0.0317,-0.0272 -0.17347,-0.0466 -0.31498,-0.0432 l -0.25729,0.006 -0.0551,-0.31666 c -0.0303,-0.17417 -0.0199,-0.47751 0.0231,-0.6741 0.043,-0.19659 0.0595,-0.37351 0.0365,-0.39317 -0.0229,-0.0196 0.0774,-0.45537 0.22288,-0.96826 0.1455,-0.51289 0.31121,-1.15411 0.36823,-1.42493 0.057,-0.27082 0.1393,-0.59467 0.18283,-0.71966 0.18425,-0.52909 0.3307,-1.44016 0.25788,-1.60431 -0.0575,-0.12966 -0.037,-0.19475 0.0847,-0.26825 0.0883,-0.0534 0.1828,-0.19931 0.2099,-0.32431 0.22265,-1.02648 0.66371,-2.14997 1.05974,-2.6994 0.70834,-0.98271 0.9188,-1.12617 1.65213,-1.12617 h 0.44607 l 0.34092,0.26398 c 1.78221,1.38001 0.36273,4.96304 -1.96619,4.96304 -0.39186,0 -0.41712,0.043 -0.66719,1.13631 -0.29977,1.31058 -0.34852,1.51538 -0.57925,2.43325 -0.12171,0.48416 -0.22128,0.95458 -0.22128,1.04538 0,0.42275 -0.57849,0.92431 -0.82369,0.71416 z m 2.64465,-6.61801 c 0.69856,-0.51958 1.24156,-1.86445 0.8389,-2.07774 -0.044,-0.0233 -0.0605,-0.10672 -0.0365,-0.18531 0.024,-0.0786 0.002,-0.16508 -0.0495,-0.1922 -0.16591,-0.0879 -0.80994,1.15457 -1.05729,2.0397 -0.23267,0.83261 -0.24102,0.82122 0.30439,0.41555 z m 6.76998,2.98332 c -0.14102,-0.12939 -0.13393,-0.18378 0.0175,-0.13398 0.1374,0.0452 0.4069,-0.23851 0.4069,-0.42835 0,-0.0671 -0.0597,-0.12203 -0.13258,-0.12203 -0.0729,0 -0.13257,0.0455 -0.13257,0.10101 0,0.0555 -0.0347,0.10101 -0.0771,0.10101 -0.0424,0 0.0375,-0.29245 0.17768,-0.64988 0.28623,-0.73004 0.28791,-0.7224 -0.21848,-0.99061 -0.74232,-0.39318 -1.05417,-0.92065 -1.10295,-1.86561 -0.12481,-2.41791 2.54644,-5.28945 4.06078,-4.36526 l 0.25981,0.15857 0.12947,-0.0921 c 0.0712,-0.0506 0.12946,-0.13905 0.12946,-0.19644 0,-0.0574 0.0331,-0.10436 0.0735,-0.10436 0.0404,0 0.12239,-0.0784 0.1822,-0.17414 0.53254,-0.85287 2.50697,-0.94167 2.09382,-0.0942 -0.068,0.13942 -0.24548,0.33073 -0.39447,0.42515 -0.149,0.0944 -0.43358,0.37042 -0.6324,0.61336 l -0.36149,0.44169 0.29282,0.2334 c 0.16105,0.12837 0.46073,0.33391 0.66595,0.45677 1.09587,0.65606 1.31455,1.61466 0.58558,2.56698 -0.31387,0.41003 -1.65792,1.59129 -1.81059,1.59129 -0.0429,0 -0.2665,0.11249 -0.49691,0.24998 -0.5123,0.3057 -0.8573,0.42951 -1.50832,0.54128 l -0.5002,0.0859 -0.39841,0.60809 c -0.21912,0.33445 -0.50665,0.72513 -0.63895,0.86818 l -0.24054,0.2601 0.0487,-0.18938 0.0487,-0.18939 -0.21048,0.19508 -0.21049,0.19507 z m 1.14976,-3.45569 c 0.6802,-1.6599 0.81245,-1.94093 0.8933,-1.8981 0.0484,0.0256 0.0622,0.0109 0.0307,-0.0328 -0.0315,-0.0437 0.10107,-0.4823 0.29458,-0.97473 0.38395,-0.97697 0.37096,-1.07624 -0.11793,-0.90116 -1.18165,0.42317 -2.19206,2.87902 -1.63837,3.98215 0.24341,0.48497 0.27079,0.47604 0.53771,-0.17534 z m 1.8662,0.22027 c 0.6708,-0.36778 1.57949,-1.16661 1.81425,-1.5949 l 0.20329,-0.37089 -0.0578,-0.36004 c -0.0459,-0.28571 -0.14425,-0.4428 -0.47663,-0.76086 l -0.41886,-0.40082 -0.18768,0.33634 c -0.10322,0.18498 -0.2451,0.47269 -0.31528,0.63935 -0.33847,0.80374 -0.77441,1.7885 -0.98024,2.21429 -0.32539,0.67313 -0.29958,0.69146 0.41893,0.29753 z"
       style="fill:#000000"
       id="path1" />
  </g>
</svg>
