<?xml version="1.0" encoding="UTF-8" standalone="no"?>
<!-- Created with Inkscape (http://www.inkscape.org/) -->

<svg
   width="14.320443mm"
   height="7.5736699mm"
   viewBox="0 0 14.320443 7.5736699"
   version="1.1"
   id="svg1"
   inkscape:version="1.3.2 (091e20e, 2023-11-25)"
   sodipodi:docname="rtheta.svg"
   xmlns:inkscape="http://www.inkscape.org/namespaces/inkscape"
   xmlns:sodipodi="http://sodipodi.sourceforge.net/DTD/sodipodi-0.dtd"
   xmlns="http://www.w3.org/2000/svg"
   xmlns:svg="http://www.w3.org/2000/svg">
  <sodipodi:namedview
     id="namedview1"
     pagecolor="#ffffff"
     bordercolor="#000000"
     borderopacity="0.25"
     inkscape:showpageshadow="2"
     inkscape:pageopacity="0.0"
     inkscape:pagecheckerboard="0"
     inkscape:deskcolor="#d1d1d1"
     inkscape:document-units="mm"
     inkscape:zoom="0.2102413"
     inkscape:cx="28.538636"
     inkscape:cy="14.269318"
     inkscape:window-width="1312"
     inkscape:window-height="449"
     inkscape:window-x="0"
     inkscape:window-y="38"
     inkscape:window-maximized="0"
     inkscape:current-layer="layer1" />
  <defs
     id="defs1" />
  <g
     inkscape:label="Layer 1"
     inkscape:groupmode="layer"
     id="layer1"
     transform="translate(-97.367577,-144.6371)">
    <path
       d="m 98.586507,152.11177 c -0.57906,-0.17541 -0.67148,-0.31985 -0.69289,-1.08282 -0.01,-0.35298 -0.0518,-0.8534 -0.0931,-1.11203 -0.0413,-0.25863 -0.11503,-0.83656 -0.16392,-1.28428 -0.0489,-0.44772 -0.1294,-1.08364 -0.17892,-1.41315 l -0.0901,-0.59911 0.13529,-0.17697 c 0.0744,-0.0973 0.28366,-0.23131 0.465,-0.29773 l 0.32972,-0.12075 0.36786,0.11426 0.36786,0.11426 0.10351,-0.21419 c 0.78543,-1.62519 3.224933,-1.15528 3.172923,0.61119 -0.0221,0.7494 -0.50508,0.70704 -1.00111,-0.0878 -0.22979,-0.36822 -0.30113,-0.40816 -0.49205,-0.27549 -0.62582,0.43487 -1.209423,2.7595 -1.130103,4.50143 0.0603,1.32424 -0.17244,1.60418 -1.10007,1.32319 z m 8.131693,-0.81284 c -1.81154,-0.41934 -2.63259,-1.3149 -2.63018,-2.86885 l 0.001,-0.68723 0.26616,-0.68028 c 0.28828,-0.7368 0.51966,-1.06624 1.16699,-1.66163 0.23037,-0.21188 0.44121,-0.44315 0.46855,-0.51393 0.0706,-0.18289 0.32981,-0.23474 1.21417,-0.24291 l 0.77578,-0.007 -0.0263,0.19697 c -0.0144,0.10833 -0.14479,0.28622 -0.28966,0.39531 l -0.2634,0.19835 0.26516,0.003 c 1.46094,0.0137 3.13125,0.77028 3.7514,1.69928 l 0.27015,0.4047 v 0.4664 c 0,0.77863 -1.53339,2.65895 -2.16836,2.65895 -0.0248,0 -0.19342,0.0841 -0.37474,0.18698 -0.72579,0.41166 -1.76574,0.6056 -2.42682,0.45257 z m 0.86634,-1.06797 c 0.77632,-0.2235 2.2011,-1.25364 2.43426,-1.76002 0.11582,-0.25151 0.0728,-0.26138 -0.41835,-0.0961 -1.29683,0.43629 -3.38132,0.12789 -3.65317,-0.54049 -0.19856,-0.48818 -0.39485,0.24874 -0.26894,1.00964 0.19962,1.20638 0.8613,1.68783 1.9062,1.38701 z m 1.67298,-2.92658 c 0.0972,0.003 0.29046,-0.0306 0.42942,-0.0747 l 0.25264,-0.0802 -0.37281,-0.29505 c -0.75251,-0.59554 -1.66281,-0.79363 -2.47175,-0.53789 -0.98997,0.31297 -0.85727,0.66276 0.30591,0.80638 0.45702,0.0564 0.66338,0.11427 0.66338,0.18591 0,0.0827 0.10402,0.0923 0.50822,0.047 0.27952,-0.0314 0.58776,-0.0545 0.68499,-0.0515 z"
       style="fill:#000000"
       id="path1" />
  </g>
</svg>
