<?xml version="1.0" encoding="UTF-8" standalone="no"?>
<!-- Created with Inkscape (http://www.inkscape.org/) -->

<svg
   width="11.331873mm"
   height="15.194633mm"
   viewBox="0 0 11.331873 15.194633"
   version="1.1"
   id="svg1"
   inkscape:version="1.3.2 (091e20e, 2023-11-25)"
   sodipodi:docname="sigma.svg"
   xmlns:inkscape="http://www.inkscape.org/namespaces/inkscape"
   xmlns:sodipodi="http://sodipodi.sourceforge.net/DTD/sodipodi-0.dtd"
   xmlns="http://www.w3.org/2000/svg"
   xmlns:svg="http://www.w3.org/2000/svg">
  <sodipodi:namedview
     id="namedview1"
     pagecolor="#ffffff"
     bordercolor="#000000"
     borderopacity="0.25"
     inkscape:showpageshadow="2"
     inkscape:pageopacity="0.0"
     inkscape:pagecheckerboard="0"
     inkscape:deskcolor="#d1d1d1"
     inkscape:document-units="mm"
     inkscape:zoom="0.2102413"
     inkscape:cx="23.782197"
     inkscape:cy="28.538636"
     inkscape:window-width="1312"
     inkscape:window-height="449"
     inkscape:window-x="0"
     inkscape:window-y="38"
     inkscape:window-maximized="0"
     inkscape:current-layer="layer1" />
  <defs
     id="defs1" />
  <g
     inkscape:label="Layer 1"
     inkscape:groupmode="layer"
     id="layer1"
     transform="translate(-98.687581,-140.98936)">
    <path
       d="m 108.1435,156.10046 c -0.19445,-0.0458 -0.41321,-0.14085 -0.48613,-0.21122 -0.2797,-0.26992 -1.17126,-0.38897 -4.15412,-0.55471 -0.97436,-0.0541 -2.31536,-0.26691 -2.63229,-0.41766 -0.0835,-0.0397 -0.33085,-0.13927 -0.5496,-0.2212 -1.61133,-0.60351 -2.12132,-2.18962 -1.12072,-3.48554 0.42357,-0.54858 2.03129,-1.82509 2.29864,-1.82509 0.0216,0 0.27758,-0.13636 0.56877,-0.30302 0.29119,-0.16666 0.55709,-0.30302 0.59089,-0.30302 0.0338,0 0.11326,-0.0426 0.17656,-0.0947 0.0633,-0.0521 0.30566,-0.23105 0.53858,-0.39771 0.68032,-0.48677 1.15714,-1.02268 0.90993,-1.02268 -0.0492,0 -0.15557,-0.066 -0.23628,-0.14675 -0.0807,-0.0807 -0.50471,-0.30833 -0.94222,-0.50582 -2.08097,-0.93933 -3.27921,-2.25474 -2.64363,-2.90213 0.30424,-0.3099 1.10059,-0.64632 3.08556,-1.30352 0.24306,-0.0805 0.52148,-0.17467 0.6187,-0.20933 0.35818,-0.12768 1.08339,-0.31425 1.93807,-0.49859 l 0.87744,-0.18925 0.25591,-0.26609 c 0.29321,-0.30488 0.36676,-0.3147 1.0012,-0.13367 0.5267,0.15028 0.67456,0.30455 0.70762,0.73832 0.0127,0.16689 0.0396,0.35458 0.0597,0.41707 0.0201,0.0625 0.0659,0.28408 0.10181,0.4924 0.0656,0.38054 0.19521,0.82668 0.62748,2.15899 0.33368,1.02844 0.34322,1.09612 0.18385,1.30459 -0.29174,0.38161 -0.78517,0.39871 -1.36371,0.0472 l -0.20636,-0.12536 -0.029,-0.53238 c -0.016,-0.29282 -0.0749,-0.72169 -0.13092,-0.95305 -0.056,-0.23136 -0.077,-0.45523 -0.0465,-0.4975 0.0305,-0.0423 0.0187,-0.0768 -0.0261,-0.0768 -0.0933,0 -0.33267,-0.6406 -0.41742,-1.11698 -0.0743,-0.41743 -0.0703,-0.41634 -0.88879,-0.24412 -0.38488,0.081 -0.76993,0.14765 -0.85566,0.14814 -0.0857,4.9e-4 -0.22494,0.0332 -0.30935,0.0726 -0.15127,0.0707 -1.06999,0.33577 -1.18464,0.34182 -0.0324,0.002 -0.0888,0.0287 -0.12521,0.0599 -0.0365,0.0312 -0.11701,0.0568 -0.179,0.0568 -0.062,0 -0.57241,0.1887 -1.13428,0.41934 l -1.02158,0.41933 v 0.18936 c 0,0.38807 0.82664,1.05149 1.84178,1.47814 1.00176,0.42102 1.84604,1.09407 1.93024,1.53876 0.0722,0.38151 -0.51432,1.3336 -0.82159,1.3336 -0.0671,0 -0.12209,0.0332 -0.12209,0.0738 0,0.0406 -0.10938,0.12287 -0.24306,0.18283 -0.13368,0.06 -0.38024,0.21481 -0.5479,0.34411 -0.16766,0.1293 -0.52482,0.34151 -0.7937,0.47156 -1.79267,0.86713 -3.0114,2.05003 -3.0114,2.92288 v 0.38692 l 0.24191,0.2464 c 0.48108,0.49003 1.73892,0.88029 3.02837,0.93959 0.31597,0.0145 0.81314,0.0458 1.10482,0.0696 0.29167,0.0237 0.82862,0.0626 1.1932,0.0864 0.3646,0.0238 0.82199,0.0743 1.01644,0.11217 0.19445,0.0379 0.47769,0.0697 0.62943,0.0707 l 0.27588,0.002 0.2258,-1.04162 c 0.35857,-1.654 0.35085,-1.56362 0.15191,-1.78039 -0.22573,-0.24596 -0.2234,-0.31315 0.0207,-0.59737 0.37155,-0.43266 1.00206,-0.53762 1.24302,-0.20692 0.0568,0.0779 0.14846,0.14162 0.20379,0.14162 0.20262,0 0.32431,0.44375 0.26552,0.96825 -0.0811,0.72382 -0.0918,0.78002 -0.35726,1.87252 -0.13159,0.54164 -0.23141,1.12116 -0.22183,1.28782 0.0259,0.4499 0.0141,0.4834 -0.24019,0.6854 -0.25348,0.20134 -0.33637,0.20927 -0.87095,0.0833 z"
       style="fill:#000000"
       id="path1" />
  </g>
</svg>
