<?xml version="1.0" encoding="UTF-8" standalone="no"?>
<!-- Created with Inkscape (http://www.inkscape.org/) -->

<svg
   width="8.592104mm"
   height="4.1048665mm"
   viewBox="0 0 8.592104 4.1048665"
   version="1.1"
   id="svg1"
   inkscape:version="1.3.2 (091e20e, 2023-11-25)"
   sodipodi:docname="squigle.svg"
   xmlns:inkscape="http://www.inkscape.org/namespaces/inkscape"
   xmlns:sodipodi="http://sodipodi.sourceforge.net/DTD/sodipodi-0.dtd"
   xmlns="http://www.w3.org/2000/svg"
   xmlns:svg="http://www.w3.org/2000/svg">
  <sodipodi:namedview
     id="namedview1"
     pagecolor="#ffffff"
     bordercolor="#000000"
     borderopacity="0.25"
     inkscape:showpageshadow="2"
     inkscape:pageopacity="0.0"
     inkscape:pagecheckerboard="0"
     inkscape:deskcolor="#d1d1d1"
     inkscape:document-units="mm"
     inkscape:zoom="0.2102413"
     inkscape:cx="14.269318"
     inkscape:cy="9.5128787"
     inkscape:window-width="1312"
     inkscape:window-height="449"
     inkscape:window-x="0"
     inkscape:window-y="38"
     inkscape:window-maximized="0"
     inkscape:current-layer="layer1" />
  <defs
     id="defs1" />
  <g
     inkscape:label="Layer 1"
     inkscape:groupmode="layer"
     id="layer1"
     transform="translate(-100.24525,-146.40193)">
    <path
       d="m 105.52005,150.44811 c -0.83965,-0.18358 -1.31299,-0.65842 -1.69129,-1.69662 -0.0835,-0.22916 -0.22247,-0.5443 -0.30883,-0.70032 l -0.15701,-0.28368 -0.23457,0.15814 c -0.3665,0.24709 -1.27661,1.4407 -1.28764,1.68873 -0.0105,0.23696 -0.40568,0.72796 -0.58584,0.72796 -1.0098,0 -1.316339,-0.62262 -0.67133,-1.36357 0.0907,-0.10416 0.40001,-0.49293 0.68742,-0.86393 1.82885,-2.36076 2.80476,-2.29178 3.85179,0.27224 0.49117,1.20277 0.87517,1.15437 2.19383,-0.27652 0.15209,-0.16504 0.40891,-0.38079 0.57071,-0.47946 l 0.29419,-0.1794 0.20545,0.10069 c 0.67618,0.33138 0.61559,0.62517 -0.34886,1.69152 -1.01153,1.1184 -1.60733,1.40334 -2.51802,1.20422 z"
       style="fill:#000000"
       id="path1" />
  </g>
</svg>
