<?xml version="1.0" encoding="UTF-8" standalone="no"?>
<!-- Created with Inkscape (http://www.inkscape.org/) -->

<svg
   width="5.8639746mm"
   height="5.7803044mm"
   viewBox="0 0 5.8639746 5.7803044"
   version="1.1"
   id="svg1"
   inkscape:version="1.3.2 (091e20e, 2023-11-25)"
   sodipodi:docname="star.svg"
   xmlns:inkscape="http://www.inkscape.org/namespaces/inkscape"
   xmlns:sodipodi="http://sodipodi.sourceforge.net/DTD/sodipodi-0.dtd"
   xmlns="http://www.w3.org/2000/svg"
   xmlns:svg="http://www.w3.org/2000/svg">
  <sodipodi:namedview
     id="namedview1"
     pagecolor="#ffffff"
     bordercolor="#000000"
     borderopacity="0.25"
     inkscape:showpageshadow="2"
     inkscape:pageopacity="0.0"
     inkscape:pagecheckerboard="0"
     inkscape:deskcolor="#d1d1d1"
     inkscape:document-units="mm"
     inkscape:zoom="0.2102413"
     inkscape:cx="9.5128787"
     inkscape:cy="9.5128787"
     inkscape:window-width="1312"
     inkscape:window-height="449"
     inkscape:window-x="0"
     inkscape:window-y="38"
     inkscape:window-maximized="0"
     inkscape:current-layer="layer1" />
  <defs
     id="defs1" />
  <g
     inkscape:label="Layer 1"
     inkscape:groupmode="layer"
     id="layer1"
     transform="translate(-101.49202,-145.60315)">
    <path
       d="m 103.03093,151.31815 c -0.12153,-0.0371 -0.49487,-0.14438 -0.82963,-0.23835 -0.96076,-0.26968 -0.95147,-0.43407 0.0645,-1.14141 0.84963,-0.59155 0.89542,-0.8616 0.24589,-1.45023 l -0.45298,-0.4105 10e-4,-0.28862 c 0.003,-0.55213 0.61034,-0.82234 1.13762,-0.5058 l 0.20606,0.1237 0.0784,-0.10476 c 0.0431,-0.0576 0.0739,-0.36299 0.0684,-0.67859 -0.0102,-0.58335 0.0923,-0.85177 0.3624,-0.94872 0.21925,-0.0787 0.53221,-0.0975 0.53221,-0.0319 0,0.0335 0.10194,0.0828 0.22653,0.1096 0.28094,0.0604 0.49692,0.45123 0.3867,0.6997 -0.0661,0.14911 -0.34703,1.40813 -0.34778,1.55891 -1.6e-4,0.0309 0.22841,-0.0906 0.50793,-0.26988 1.13618,-0.72892 1.52988,-0.81619 1.91453,-0.42439 0.41083,0.41846 0.27372,0.66987 -0.56987,1.04499 -0.22052,0.0981 -0.57693,0.30691 -0.79202,0.46411 l -0.39106,0.28581 0.57105,0.50664 c 0.82073,0.72815 0.98749,1.04478 0.59316,1.1262 -0.4608,0.0951 -1.35317,-0.19932 -1.82396,-0.60184 -0.3808,-0.32557 -0.57604,-0.2175 -0.8158,0.45154 -0.10689,0.29827 -0.27757,0.60121 -0.37929,0.6732 -0.2059,0.14572 -0.18876,0.14396 -0.49429,0.0506 z"
       style="fill:#000000"
       id="path1" />
  </g>
</svg>
