<?xml version="1.0" encoding="UTF-8" standalone="no"?>
<!-- Created with Inkscape (http://www.inkscape.org/) -->

<svg
   width="7.5978065mm"
   height="7.9968624mm"
   viewBox="0 0 7.5978064 7.9968625"
   version="1.1"
   id="svg1"
   inkscape:version="1.3.2 (091e20e, 2023-11-25)"
   sodipodi:docname="theta.svg"
   xmlns:inkscape="http://www.inkscape.org/namespaces/inkscape"
   xmlns:sodipodi="http://sodipodi.sourceforge.net/DTD/sodipodi-0.dtd"
   xmlns="http://www.w3.org/2000/svg"
   xmlns:svg="http://www.w3.org/2000/svg">
  <sodipodi:namedview
     id="namedview1"
     pagecolor="#ffffff"
     bordercolor="#000000"
     borderopacity="0.25"
     inkscape:showpageshadow="2"
     inkscape:pageopacity="0.0"
     inkscape:pagecheckerboard="0"
     inkscape:deskcolor="#d1d1d1"
     inkscape:document-units="mm"
     inkscape:zoom="19.02887"
     inkscape:cx="3.3107588"
     inkscape:cy="10.878207"
     inkscape:window-width="1920"
     inkscape:window-height="1027"
     inkscape:window-x="1728"
     inkscape:window-y="25"
     inkscape:window-maximized="1"
     inkscape:current-layer="layer1" />
  <defs
     id="defs1" />
  <g
     inkscape:label="Layer 1"
     inkscape:groupmode="layer"
     id="layer1"
     transform="translate(-100.58519,-145.57278)">
    <path
       d="m 103.7459,153.54501 c -1.86401,-0.34194 -2.81744,-1.427 -3.05553,-3.47575 l -0.10518,-0.90608 0.15925,-0.92777 c 0.17248,-1.00485 0.35139,-1.46608 0.90234,-2.32631 1.08628,-0.31655 1.31548,-0.35115 1.79368,-0.33209 l 0.58845,0.0401 c 1.22354,0.0851 2.98115,0.73256 3.74062,1.88505 l 0.33084,0.50205 0.0721,0.61484 c 0.1203,1.02645 -0.81105,2.43045 -1.74282,3.75761 -0.0142,0.0203 -0.17911,0.13338 -0.3433,0.2901 -0.65726,0.62718 -1.66018,1.00388 -2.34041,0.87909 z m 0.69545,-1.50871 c 0.73651,-0.385 1.99246,-1.90885 2.1458,-2.60353 0.0762,-0.34504 0.0319,-0.35304 -0.43036,-0.078 -1.48068,0.0114 -2.62308,-0.23965 -3.31005,-0.5345 -0.64871,-0.27843 -0.86098,0.19142 -0.51291,1.6095 0.38464,1.5671 1.11621,2.12475 2.10753,1.60657 z m 1.20946,-4.05275 c 0.097,-0.007 0.28376,-0.0741 0.41496,-0.14851 l 0.23853,-0.13513 -0.41586,-0.34557 c -0.8394,-0.69742 -1.77412,-0.85266 -2.53805,-0.42136 -0.93489,0.52781 -0.74905,0.97348 0.42841,1.02741 0.70061,0.23492 1.17553,0.16032 1.87199,0.023 z"
       style="fill:#000000;stroke-width:1.15208"
       id="path1"
       sodipodi:nodetypes="cccccccccssccccccsccccccccccc" />
  </g>
</svg>
