<?xml version="1.0" encoding="UTF-8" standalone="no"?>
<!-- Created with Inkscape (http://www.inkscape.org/) -->

<svg
   width="4.7174635mm"
   height="4.8587565mm"
   viewBox="0 0 4.7174635 4.8587565"
   version="1.1"
   id="svg1"
   inkscape:version="1.3.2 (091e20e, 2023-11-25)"
   sodipodi:docname="times.svg"
   xmlns:inkscape="http://www.inkscape.org/namespaces/inkscape"
   xmlns:sodipodi="http://sodipodi.sourceforge.net/DTD/sodipodi-0.dtd"
   xmlns="http://www.w3.org/2000/svg"
   xmlns:svg="http://www.w3.org/2000/svg">
  <sodipodi:namedview
     id="namedview1"
     pagecolor="#ffffff"
     bordercolor="#000000"
     borderopacity="0.25"
     inkscape:showpageshadow="2"
     inkscape:pageopacity="0.0"
     inkscape:pagecheckerboard="0"
     inkscape:deskcolor="#d1d1d1"
     inkscape:document-units="mm"
     inkscape:zoom="0.2102413"
     inkscape:cx="9.5128787"
     inkscape:cy="9.5128787"
     inkscape:window-width="1312"
     inkscape:window-height="449"
     inkscape:window-x="0"
     inkscape:window-y="38"
     inkscape:window-maximized="0"
     inkscape:current-layer="layer1" />
  <defs
     id="defs1" />
  <g
     inkscape:label="Layer 1"
     inkscape:groupmode="layer"
     id="layer1"
     transform="translate(-102.08921,-146.09326)">
    <path
       d="m 102.14562,150.83159 c -0.18961,-0.18977 0.11111,-0.7251 0.71685,-1.27612 0.12831,-0.11672 0.2333,-0.24456 0.2333,-0.28408 0,-0.0395 0.0314,-0.0718 0.0697,-0.0718 0.0384,0 0.18393,-0.18709 0.32351,-0.41575 l 0.25379,-0.41576 -0.43897,-0.43648 c -0.70455,-0.70055 -0.96068,-1.15613 -0.64998,-1.15613 0.0486,0 0.0884,-0.046 0.0884,-0.10214 0,-0.0562 0.16547,-0.15785 0.36771,-0.22594 l 0.3677,-0.1238 0.28339,0.15011 c 0.15586,0.0826 0.38869,0.2865 0.5174,0.4532 0.2984,0.38646 0.32719,0.3827 0.72313,-0.0946 0.551,-0.66423 0.87763,-0.83583 1.31633,-0.69154 0.37601,0.12366 0.5202,0.78226 0.2118,0.9674 -0.10444,0.0627 -0.3797,0.31131 -0.61168,0.55246 l -0.42179,0.43847 0.43099,0.37982 c 0.87776,0.77354 0.96448,0.90009 0.82711,1.20691 -0.033,0.0737 -0.16061,0.12027 -0.33144,0.12098 -0.15279,6.3e-4 -0.3339,0.0316 -0.40247,0.0688 -0.15174,0.0823 -0.35547,-0.008 -0.88102,-0.39192 -0.50454,-0.36828 -0.55922,-0.33721 -1.43332,0.81435 -0.41211,0.54293 -1.26106,0.83324 -1.56045,0.53362 z"
       style="fill:#000000"
       id="path1" />
  </g>
</svg>
