<?xml version="1.0" encoding="UTF-8" standalone="no"?>
<!-- Created with Inkscape (http://www.inkscape.org/) -->

<svg
   width="9.1832571mm"
   height="6.3109994mm"
   viewBox="0 0 9.1832571 6.3109994"
   version="1.1"
   id="svg1"
   inkscape:version="1.3.2 (091e20e, 2023-11-25)"
   sodipodi:docname="u.svg"
   xmlns:inkscape="http://www.inkscape.org/namespaces/inkscape"
   xmlns:sodipodi="http://sodipodi.sourceforge.net/DTD/sodipodi-0.dtd"
   xmlns="http://www.w3.org/2000/svg"
   xmlns:svg="http://www.w3.org/2000/svg">
  <sodipodi:namedview
     id="namedview1"
     pagecolor="#ffffff"
     bordercolor="#000000"
     borderopacity="0.25"
     inkscape:showpageshadow="2"
     inkscape:pageopacity="0.0"
     inkscape:pagecheckerboard="0"
     inkscape:deskcolor="#d1d1d1"
     inkscape:document-units="mm"
     inkscape:zoom="0.2102413"
     inkscape:cx="19.025757"
     inkscape:cy="9.5128787"
     inkscape:window-width="1312"
     inkscape:window-height="449"
     inkscape:window-x="0"
     inkscape:window-y="38"
     inkscape:window-maximized="0"
     inkscape:current-layer="layer1" />
  <defs
     id="defs1" />
  <g
     inkscape:label="Layer 1"
     inkscape:groupmode="layer"
     id="layer1"
     transform="translate(-99.767594,-145.35386)">
    <path
       d="m 101.5776,151.58164 c -0.45573,-0.0945 -1.42785,-0.76172 -1.42785,-0.98001 0,-0.0403 -0.0815,-0.21775 -0.18122,-0.39422 -0.61838,-1.09484 0.30464,-4.75681 1.22186,-4.84757 0.38576,-0.0382 0.89271,0.1116 1.04295,0.30811 l 0.13862,0.18133 -0.11363,0.17553 c -0.0625,0.0965 -0.11671,0.19257 -0.12047,0.2134 -0.004,0.0208 -0.0706,0.14014 -0.14854,0.26514 -0.0779,0.12499 -0.22812,0.44884 -0.33375,0.71966 -0.53761,1.3784 -0.44925,2.58629 0.22605,3.09014 l 0.3452,0.25756 0.41978,-0.0416 c 0.76293,-0.0755 1.86608,-0.72763 2.26811,-1.34072 l 0.20803,-0.31724 -0.0573,-0.50213 c -0.0315,-0.27618 -0.0768,-0.62145 -0.1006,-0.76727 -0.1132,-0.69261 -0.11491,-0.80288 -0.0141,-0.90905 0.17793,-0.18738 0.46178,-0.29321 0.92886,-0.34632 l 0.44217,-0.0503 0.18344,0.14648 c 0.23636,0.18873 0.34431,0.69059 0.40429,1.87959 l 0.048,0.95206 0.21632,0.2937 c 0.29843,0.40519 0.35033,0.41925 0.85738,0.2323 l 0.44631,-0.16456 0.25537,0.0907 c 0.40974,0.14546 0.23861,0.51898 -0.48635,1.06148 l -0.34397,0.25741 -0.49569,0.0189 c -0.62336,0.0237 -0.93168,-0.0756 -1.38588,-0.44641 l -0.35987,-0.2938 -0.39141,0.29186 c -1.19054,0.88776 -2.46328,1.2207 -3.69219,0.96587 z"
       style="fill:#000000"
       id="path1" />
  </g>
</svg>
