<?xml version="1.0" encoding="UTF-8" standalone="no"?>
<!-- Created with Inkscape (http://www.inkscape.org/) -->

<svg
   width="16.733812mm"
   height="4.9035964mm"
   viewBox="0 0 16.733812 4.9035964"
   version="1.1"
   id="svg1"
   inkscape:version="1.3.2 (091e20e, 2023-11-25)"
   sodipodi:docname="uv.svg"
   xmlns:inkscape="http://www.inkscape.org/namespaces/inkscape"
   xmlns:sodipodi="http://sodipodi.sourceforge.net/DTD/sodipodi-0.dtd"
   xmlns="http://www.w3.org/2000/svg"
   xmlns:svg="http://www.w3.org/2000/svg">
  <sodipodi:namedview
     id="namedview1"
     pagecolor="#ffffff"
     bordercolor="#000000"
     borderopacity="0.25"
     inkscape:showpageshadow="2"
     inkscape:pageopacity="0.0"
     inkscape:pagecheckerboard="0"
     inkscape:deskcolor="#d1d1d1"
     inkscape:document-units="mm"
     inkscape:zoom="0.2102413"
     inkscape:cx="33.295075"
     inkscape:cy="9.5128787"
     inkscape:window-width="1312"
     inkscape:window-height="449"
     inkscape:window-x="0"
     inkscape:window-y="38"
     inkscape:window-maximized="0"
     inkscape:current-layer="layer1" />
  <defs
     id="defs1" />
  <g
     inkscape:label="Layer 1"
     inkscape:groupmode="layer"
     id="layer1"
     transform="translate(-96.150737,-146.08232)">
    <path
       d="m 108.58842,150.92848 c -0.60318,-0.12249 -1.17432,-0.89471 -1.42956,-1.93291 -0.14876,-0.60507 -0.55311,-1.66767 -0.74907,-1.96851 -0.3304,-0.50723 -0.0106,-0.86675 0.8118,-0.91259 0.50958,-0.0284 0.78686,0.1512 0.87039,0.56378 0.10242,0.50594 0.65906,2.34559 0.79262,2.61954 l 0.13266,0.27214 0.12988,-0.11132 c 0.0714,-0.0612 0.12989,-0.12732 0.12989,-0.14687 0,-0.0439 0.5944,-0.8848 1.10075,-1.55718 0.4361,-0.57911 1.06181,-1.13222 1.35126,-1.19449 0.35712,-0.0768 0.9806,0.13204 1.07311,0.3595 l 0.0824,0.20249 -0.2781,0.29285 c -0.15295,0.16107 -0.3094,0.30451 -0.34768,0.31876 -0.0383,0.0143 -0.29487,0.32105 -0.57021,0.68178 -0.27535,0.36073 -0.5229,0.67292 -0.55011,0.69376 -0.0272,0.0208 -0.12677,0.15718 -0.22124,0.30301 -0.93506,1.44338 -1.35171,1.71466 -2.32875,1.51626 z m -6.97321,-0.21418 c -0.25211,-0.0703 -0.62996,-0.25335 -0.83967,-0.40668 l -0.38128,-0.27878 -0.17677,0.13767 c -0.331283,0.25798 -0.934413,0.46398 -1.488243,0.50831 l -0.55285,0.0443 -0.48432,-0.19638 c -0.62067,-0.25166 -0.98813,-0.56295 -1.29115,-1.09379 l -0.24219,-0.42427 -0.004,-0.83782 -0.004,-0.83782 0.2005,-0.36199 c 0.44202,-0.79802 1.12684,-1.08563 1.76608,-0.74171 0.35325,0.19005 0.35551,0.27215 0.0238,0.86227 -0.48718,0.86664 -0.51978,1.73167 -0.085,2.25503 0.51877,0.62442 1.65547,-0.20687 1.83623,-1.34286 0.185013,-1.16276 0.752873,-1.59469 1.672023,-1.27179 l 0.28725,0.10091 v 0.4261 c 0,0.25048 -0.0887,0.65249 -0.21514,0.97541 -0.29271,0.74734 -0.21,1.07723 0.38817,1.54816 l 0.22471,0.17691 0.33054,-0.0451 c 0.66154,-0.0903 0.86454,0.40865 0.29007,0.71295 -0.40566,0.21488 -0.72808,0.23825 -1.25576,0.091 z"
       style="fill:#000000"
       id="path1" />
  </g>
</svg>
