<?xml version="1.0" encoding="UTF-8" standalone="no"?>
<!-- Created with Inkscape (http://www.inkscape.org/) -->

<svg
   width="7.1381598mm"
   height="6.0522323mm"
   viewBox="0 0 7.1381598 6.0522323"
   version="1.1"
   id="svg1"
   inkscape:version="1.3.2 (091e20e, 2023-11-25)"
   sodipodi:docname="v.svg"
   xmlns:inkscape="http://www.inkscape.org/namespaces/inkscape"
   xmlns:sodipodi="http://sodipodi.sourceforge.net/DTD/sodipodi-0.dtd"
   xmlns="http://www.w3.org/2000/svg"
   xmlns:svg="http://www.w3.org/2000/svg">
  <sodipodi:namedview
     id="namedview1"
     pagecolor="#ffffff"
     bordercolor="#000000"
     borderopacity="0.25"
     inkscape:showpageshadow="2"
     inkscape:pageopacity="0.0"
     inkscape:pagecheckerboard="0"
     inkscape:deskcolor="#d1d1d1"
     inkscape:document-units="mm"
     inkscape:zoom="0.2102413"
     inkscape:cx="14.269318"
     inkscape:cy="9.5128787"
     inkscape:window-width="1312"
     inkscape:window-height="449"
     inkscape:window-x="0"
     inkscape:window-y="38"
     inkscape:window-maximized="0"
     inkscape:current-layer="layer1" />
  <defs
     id="defs1" />
  <g
     inkscape:label="Layer 1"
     inkscape:groupmode="layer"
     id="layer1"
     transform="translate(-100.91283,-145.4391)">
    <path
       d="m 104.18048,151.34403 c -1.00108,-0.51479 -2.05883,-1.99364 -2.70334,-3.77957 -0.0827,-0.22915 -0.2435,-0.59552 -0.35733,-0.81414 l -0.20698,-0.39749 0.14819,-0.26634 c 0.45648,-0.82044 1.55891,-0.45503 1.87013,0.61987 0.25754,0.8895 0.82217,2.13031 1.19937,2.6357 l 0.32483,0.43522 0.17192,-0.13335 c 0.0945,-0.0733 0.17191,-0.1669 0.17191,-0.20792 0,-0.041 0.11932,-0.24078 0.26516,-0.44392 0.14583,-0.20314 0.26516,-0.40511 0.26516,-0.44882 0,-0.0437 0.0994,-0.26578 0.22096,-0.4935 0.12153,-0.22772 0.22097,-0.4614 0.22097,-0.51929 0,-0.0579 0.0574,-0.20175 0.12747,-0.31971 0.0701,-0.11795 0.21296,-0.419 0.31742,-0.66898 0.10447,-0.24999 0.25346,-0.58511 0.33109,-0.74471 l 0.14114,-0.29018 0.20166,0.033 c 0.11091,0.0182 0.18062,0.004 0.15492,-0.0318 -0.0856,-0.1187 0.81879,-0.0722 0.93527,0.0481 0.15962,0.16483 0.0396,0.74425 -0.2699,1.30267 -0.14286,0.25777 -0.25975,0.51077 -0.25975,0.56221 0,0.10257 -0.39674,1.01153 -0.53327,1.22175 -0.047,0.0724 -0.0854,0.16626 -0.0854,0.2087 0,0.0424 -0.0994,0.25381 -0.22096,0.46972 -0.12153,0.21592 -0.22097,0.42064 -0.22097,0.45493 0,0.0343 -0.1392,0.2321 -0.30935,0.43957 -0.17014,0.20747 -0.30934,0.40523 -0.30934,0.43947 0,0.13673 -0.63069,0.61278 -0.9985,0.75366 -0.30105,0.11531 -0.22588,0.12355 -0.59245,-0.065 z"
       style="fill:#000000"
       id="path1" />
  </g>
</svg>
