<?xml version="1.0" encoding="UTF-8" standalone="no"?>
<!-- Created with Inkscape (http://www.inkscape.org/) -->

<svg
   width="6.6078639mm"
   height="5.0036373mm"
   viewBox="0 0 6.6078639 5.0036373"
   version="1.1"
   id="svg1"
   inkscape:version="1.3.2 (091e20e, 2023-11-25)"
   sodipodi:docname="w.svg"
   xmlns:inkscape="http://www.inkscape.org/namespaces/inkscape"
   xmlns:sodipodi="http://sodipodi.sourceforge.net/DTD/sodipodi-0.dtd"
   xmlns="http://www.w3.org/2000/svg"
   xmlns:svg="http://www.w3.org/2000/svg">
  <sodipodi:namedview
     id="namedview1"
     pagecolor="#ffffff"
     bordercolor="#000000"
     borderopacity="0.25"
     inkscape:showpageshadow="2"
     inkscape:pageopacity="0.0"
     inkscape:pagecheckerboard="0"
     inkscape:deskcolor="#d1d1d1"
     inkscape:document-units="mm"
     inkscape:zoom="13.455443"
     inkscape:cx="0.74319365"
     inkscape:cy="19.991909"
     inkscape:window-width="1920"
     inkscape:window-height="1027"
     inkscape:window-x="1728"
     inkscape:window-y="25"
     inkscape:window-maximized="1"
     inkscape:current-layer="layer1" />
  <defs
     id="defs1" />
  <g
     inkscape:label="Layer 1"
     inkscape:groupmode="layer"
     id="layer1"
     transform="translate(-96.642456,-109.61859)">
    <path
       d="m 97.875646,114.57749 c -0.49961,-0.15505 -0.80721,-0.36595 -1.01979,-0.69921 l -0.2134,-0.33454 0.007,-0.92536 c 0.007,-1.03978 0.20449,-2.40028 0.39731,-2.74345 l 0.12769,-0.22726 0.39185,-0.024 c 0.53605,-0.0328 0.76127,0.0893 0.88968,0.48238 l 0.10683,0.32703 -0.23081,0.92257 c -0.52866,2.11303 -0.11465,2.54446 0.85296,0.88886 0.18028,-0.30847 0.42729,-0.64097 0.54891,-0.7389 l 0.22112,-0.17805 0.354694,0.0911 0.35469,0.0911 0.10081,0.0601 c 0.0842,0.0502 0.0517,0.18476 0.12757,0.20973 l 0.0476,0.17749 -0.0609,0.52954 -0.0609,0.52955 0.13694,0.045 c 0.52319,0.17207 0.79438,-0.39624 0.83126,-1.742 l 0.0289,-1.0557 0.1451,-0.13742 c 0.22644,-0.21445 0.64802,-0.0624 0.64802,0.23379 0,0.0518 0.0597,0.14527 0.13258,0.20777 0.0729,0.0625 0.13258,0.0866 0.13258,0.0535 0,-0.0331 0.0592,0.0123 0.13159,0.10089 0.0892,0.10921 0.14981,0.45538 0.18818,1.07579 l 0.0566,0.91476 -0.14602,0.19101 c -0.0803,0.10505 -0.1242,0.191 -0.0975,0.191 0.20332,0 -0.52883,0.78629 -0.92828,0.99694 -0.52669,0.27773 -1.50312,0.22142 -2.05539,-0.11854 l -0.243484,-0.14988 -0.28683,0.22518 c -0.55485,0.43558 -0.68252,0.50565 -1.01675,0.55803 -0.18902,0.0296 -0.45278,0.017 -0.60009,-0.0287 z"
       style="fill:#000000"
       id="path1"
       sodipodi:nodetypes="cccccccccccccccsccccccccscsccccscsccccc" />
  </g>
</svg>
