<?xml version="1.0" encoding="UTF-8" standalone="no"?>
<!-- Created with Inkscape (http://www.inkscape.org/) -->

<svg
   width="11.01996mm"
   height="11.157217mm"
   viewBox="0 0 11.01996 11.157217"
   version="1.1"
   id="svg1"
   inkscape:version="1.3.2 (091e20e, 2023-11-25)"
   sodipodi:docname="wj.svg"
   xmlns:inkscape="http://www.inkscape.org/namespaces/inkscape"
   xmlns:sodipodi="http://sodipodi.sourceforge.net/DTD/sodipodi-0.dtd"
   xmlns="http://www.w3.org/2000/svg"
   xmlns:svg="http://www.w3.org/2000/svg">
  <sodipodi:namedview
     id="namedview1"
     pagecolor="#ffffff"
     bordercolor="#000000"
     borderopacity="0.25"
     inkscape:showpageshadow="2"
     inkscape:pageopacity="0.0"
     inkscape:pagecheckerboard="0"
     inkscape:deskcolor="#d1d1d1"
     inkscape:document-units="mm"
     inkscape:zoom="0.2102413"
     inkscape:cx="19.025757"
     inkscape:cy="19.025757"
     inkscape:window-width="1312"
     inkscape:window-height="449"
     inkscape:window-x="0"
     inkscape:window-y="38"
     inkscape:window-maximized="0"
     inkscape:current-layer="layer1" />
  <defs
     id="defs1" />
  <g
     inkscape:label="Layer 1"
     inkscape:groupmode="layer"
     id="layer1"
     transform="translate(-98.869998,-143.01224)">
    <path
       d="m 106.99001,153.89726 c -0.715,-0.3858 -1.18855,-1.26244 -0.64123,-1.18702 0.0954,0.0131 0.26287,0.022 0.37225,0.0198 0.10938,-0.002 0.19887,0.0296 0.19887,0.0708 0,0.0412 0.0417,0.0749 0.0927,0.0749 0.051,0 0.2573,0.0682 0.45853,0.15151 0.77236,0.31983 0.91081,0.14228 0.8397,-1.07686 -0.0274,-0.47018 -0.09,-1.00827 -0.1391,-1.19576 -0.17688,-0.67562 -0.2857,-1.412 -0.29078,-1.96752 l -0.005,-0.56606 0.28549,-0.21864 0.2855,-0.21863 0.30989,0.0431 c 0.17044,0.0237 0.40533,0.11994 0.52198,0.21387 l 0.21209,0.17077 -0.0148,0.64658 c -0.008,0.35562 0.0271,0.85112 0.0783,1.10111 0.53175,2.59672 0.45208,3.38016 -0.38685,3.80424 -0.5295,0.26766 -0.7499,0.33419 -1.23099,0.37161 l -0.44192,0.0344 z m -6.83162,-5.23323 c -0.914198,-0.42992 -1.284022,-1.34346 -1.288378,-3.18255 -0.002,-0.79553 0.211896,-2.01996 0.360066,-2.06229 0.04876,-0.0139 0.08865,-0.0691 0.08865,-0.12261 0,-0.3816 1.238272,-0.21426 1.402502,0.18954 l 0.0955,0.23471 -0.13914,0.18201 c -0.47642,0.62319 -0.39444,3.20229 0.11719,3.68684 0.39463,0.37374 1.46179,-0.41511 1.66232,-1.22879 0.0774,-0.31424 0.16141,-0.61173 0.22451,-0.79542 0.0429,-0.12499 0.0993,-0.31838 0.1253,-0.42974 0.0668,-0.28619 0.46737,-0.66869 0.70035,-0.66869 0.10749,0 0.23669,-0.0353 0.2871,-0.0786 0.14314,-0.12268 0.53508,0.0408 0.68214,0.28458 l 0.12822,0.21251 -0.12265,0.30208 c -0.0675,0.16614 -0.12326,0.39381 -0.12399,0.50593 -6.7e-4,0.11212 -0.0374,0.22295 -0.0814,0.24629 -0.0733,0.0388 -0.22635,0.70906 -0.21287,0.93237 0.003,0.0521 0.0113,0.18844 0.0181,0.30302 0.0304,0.51125 0.39856,0.50936 0.6893,-0.004 0.3955,-0.69772 0.4585,-1.63671 0.20042,-2.98723 -0.0459,-0.2404 -0.0838,-0.47837 -0.084,-0.52883 -6.7e-4,-0.14758 0.36898,-0.40066 0.58545,-0.40066 0.10949,0 0.22366,-0.0341 0.2537,-0.0757 0.6602,-0.91556 1.31741,2.17616 0.76768,3.6114 -0.6441,1.68162 -2.52539,2.54587 -3.51065,1.61277 -0.21072,-0.19957 -0.30699,-0.18914 -0.83089,0.09 l -0.44792,0.23864 -0.64068,0.0283 c -0.4773,0.0211 -0.7083,-0.003 -0.90584,-0.0964 z m 7.91387,-1.9961 -0.1669,-0.20088 0.13561,-0.23998 c 0.14853,-0.26286 0.23418,-0.30004 0.82926,-0.36003 l 0.40092,-0.0404 0.195,0.29737 c 0.30547,0.46583 0.0365,0.71131 -0.8039,0.7336 l -0.4231,0.0112 z"
       style="fill:#000000"
       id="path1" />
  </g>
</svg>
