<?xml version="1.0" encoding="UTF-8" standalone="no"?>
<!-- Created with Inkscape (http://www.inkscape.org/) -->

<svg
   width="26.484505mm"
   height="13.658031mm"
   viewBox="0 0 26.484504 13.65803"
   version="1.1"
   id="svg1"
   inkscape:version="1.3.2 (091e20e, 2023-11-25)"
   sodipodi:docname="wpolar.svg"
   xmlns:inkscape="http://www.inkscape.org/namespaces/inkscape"
   xmlns:sodipodi="http://sodipodi.sourceforge.net/DTD/sodipodi-0.dtd"
   xmlns="http://www.w3.org/2000/svg"
   xmlns:svg="http://www.w3.org/2000/svg">
  <sodipodi:namedview
     id="namedview1"
     pagecolor="#ffffff"
     bordercolor="#000000"
     borderopacity="0.25"
     inkscape:showpageshadow="2"
     inkscape:pageopacity="0.0"
     inkscape:pagecheckerboard="0"
     inkscape:deskcolor="#d1d1d1"
     inkscape:document-units="mm"
     inkscape:zoom="0.2102413"
     inkscape:cx="-214.03977"
     inkscape:cy="23.782197"
     inkscape:window-width="1312"
     inkscape:window-height="449"
     inkscape:window-x="0"
     inkscape:window-y="38"
     inkscape:window-maximized="0"
     inkscape:current-layer="layer1" />
  <defs
     id="defs1" />
  <g
     inkscape:label="Layer 1"
     inkscape:groupmode="layer"
     id="layer1"
     transform="translate(-161.79914,-141.25951)">
    <path
       d="m 162.00754,154.83978 c -0.31534,-0.27027 -0.28448,-0.65717 0.1726,-2.16412 0.12005,-0.39582 0.35244,-1.26509 0.51642,-1.93173 0.52351,-2.12827 0.54657,-2.19569 1.06227,-3.10591 0.64154,-1.13235 1.5676,-1.72296 2.41313,-1.53901 l 0.33826,0.0736 0.25116,0.42969 c 0.13813,0.23633 0.30136,0.5162 0.36273,0.62193 0.13315,0.22941 0.46601,1.63734 0.43811,1.85312 -0.20104,1.55483 -1.36509,2.21313 -3.40299,1.92446 l -0.2161,-0.0306 -0.0787,0.30302 c -0.0433,0.16666 -0.19439,0.71843 -0.33575,1.22615 -0.14135,0.50772 -0.26266,1.13774 -0.26958,1.40003 -0.007,0.26229 -0.0569,0.54571 -0.11105,0.62982 -0.0542,0.0841 -0.10525,0.16443 -0.11356,0.17849 -0.008,0.0141 -0.14751,0.0527 -0.30935,0.086 -0.16184,0.0332 -0.35873,0.0833 -0.43753,0.11136 -0.0822,0.0292 -0.20155,0.001 -0.28003,-0.0662 z m 3.74487,-4.97335 c 0.49261,-0.43944 0.57062,-1.06478 0.21871,-1.75338 -0.0696,-0.13627 -0.14859,-0.33299 -0.17544,-0.43716 -0.0268,-0.10416 -0.0859,-0.23832 -0.13124,-0.29814 l -0.0824,-0.10876 -0.14401,0.10244 c -0.0792,0.0563 -0.29958,0.33072 -0.4897,0.60974 -0.32415,0.4757 -0.42816,0.72501 -0.61672,1.47826 -0.0422,0.16849 -0.0894,0.35319 -0.10485,0.41046 -0.041,0.15168 0.3556,0.30348 0.79633,0.30477 l 0.38257,0.001 z m 4.97674,1.26589 c -3.13726,-0.67251 -2.69893,-3.69574 0.71574,-4.93654 l 0.61739,-0.22435 0.92936,3.2e-4 0.92935,3.1e-4 0.39774,0.21822 c 0.21875,0.12002 0.46734,0.28038 0.55241,0.35636 0.9121,0.81458 -1.62803,2.23919 -4.22042,2.36699 l -0.53032,0.0261 0.01,0.27432 c 0.0137,0.38301 0.22716,0.62387 0.76518,0.86333 l 0.46243,0.20581 1.01644,-10e-4 c 0.55904,-6.5e-4 1.19954,-0.0287 1.42332,-0.0623 0.27617,-0.0415 0.47122,-0.0316 0.60713,0.0307 l 0.20023,0.0918 -0.32244,0.26843 c -0.63999,0.53278 -2.33828,0.78209 -3.55333,0.52163 z m 1.20662,-3.42008 c 0.14292,-0.0633 0.27951,-0.11606 0.30354,-0.11715 0.15927,-0.007 0.57686,-0.17343 0.57686,-0.22962 0,-0.0376 0.0553,-0.0683 0.12279,-0.0683 0.23024,0 0.55163,-0.2822 0.43614,-0.38296 -0.31491,-0.27471 -1.54055,0.0765 -2.31468,0.66336 l -0.32132,0.24357 0.46842,0.003 c 0.25763,0.002 0.58534,-0.0487 0.72825,-0.11201 z m 10.3756,1.01825 c -0.20678,-0.19579 0.13064,-1.2061 0.4028,-1.2061 0.0493,0 0.0896,-0.0614 0.0896,-0.13636 0,-0.075 0.0402,-0.17085 0.0894,-0.21301 0.0492,-0.0422 0.1697,-0.21091 0.2678,-0.37499 l 0.17836,-0.29832 -0.20151,-0.13179 c -0.93853,-0.6138 -1.16374,-1.32174 -0.75769,-2.38187 l 0.19509,-0.50937 0.53409,-0.46243 c 0.87306,-0.75593 1.67364,-0.96499 2.31533,-0.60463 l 0.22775,0.1279 -0.0488,0.25769 c -0.0561,0.2961 0.0814,0.34758 0.20199,0.0757 0.0444,-0.10011 0.11941,-0.20251 0.16668,-0.22754 0.0473,-0.025 0.30716,-0.33344 0.57756,-0.68533 l 0.49163,-0.63981 0.29746,-0.0478 c 0.40792,-0.0656 0.94473,0.12937 0.94473,0.34311 0,0.19102 -0.24356,0.61339 -0.41625,0.72184 -0.0682,0.0428 -0.13318,0.12803 -0.14448,0.18938 -0.0113,0.0614 -0.14828,0.26155 -0.30441,0.44488 -0.3547,0.41649 -0.36668,0.35924 0.16823,0.80398 0.83542,0.69461 0.79462,1.38563 -0.11458,1.94051 -0.16002,0.0977 -0.35894,0.23584 -0.44204,0.30706 -0.23931,0.20511 -1.03715,0.48619 -1.66449,0.58641 l -0.57579,0.092 -0.33016,0.40493 c -0.18159,0.22271 -0.33016,0.43683 -0.33016,0.47582 0,0.039 -0.12308,0.21651 -0.27351,0.3945 -0.15042,0.17798 -0.31284,0.42033 -0.36093,0.53855 -0.13204,0.32464 -0.91734,0.46739 -1.18373,0.21517 z m 1.88459,-3.34615 c 0.0484,-0.0521 0.27515,-0.39822 0.50382,-0.76919 0.22866,-0.37098 0.47911,-0.75739 0.55656,-0.8587 0.0879,-0.11503 0.10783,-0.20311 0.053,-0.23455 -0.0483,-0.0277 -0.11239,-0.10748 -0.1424,-0.17731 l -0.0546,-0.12696 -0.46235,0.20272 c -0.59038,0.25885 -1.05078,0.80044 -1.05078,1.23609 0,0.57517 0.34612,0.99737 0.59673,0.7279 z m 1.85908,-0.0348 c 0.60584,-0.32696 0.89007,-0.79586 0.60522,-0.99848 -0.14555,-0.10353 -0.1653,-0.0852 -0.66336,0.61663 -0.3727,0.52516 -0.36015,0.60759 0.0581,0.38185 z m -9.45829,1.71009 c -1.69952,-0.15052 -1.97538,-1.90157 -0.49719,-3.15596 0.98336,-0.83448 1.94527,-0.23382 1.1071,0.69132 -1.28312,1.41625 -0.20291,2.14931 1.31242,0.89064 l 0.39376,-0.32707 0.39871,0.0512 0.39871,0.0512 v 0.18244 c 0,0.95269 -1.54565,1.75499 -3.11351,1.61614 z m 1.05854,-4.2894 c -0.0851,-0.0162 -0.15468,-0.0633 -0.15468,-0.10476 0,-0.0414 -0.0815,-0.0531 -0.1811,-0.026 -0.45215,0.123 -0.74862,-0.33257 -0.5329,-0.81888 0.16885,-0.38064 1.08792,-0.34104 1.40911,0.0607 l 0.20053,0.25083 -0.17889,0.30055 c -0.18766,0.31527 -0.306,0.38634 -0.56207,0.33759 z"
       style="fill:#000000"
       id="path1" />
  </g>
</svg>
