<?xml version="1.0" encoding="UTF-8" standalone="no"?>
<!-- Created with Inkscape (http://www.inkscape.org/) -->

<svg
   width="29.176462mm"
   height="7.2447486mm"
   viewBox="0 0 29.176462 7.2447486"
   version="1.1"
   id="svg1"
   inkscape:version="1.3.2 (091e20e, 2023-11-25)"
   sodipodi:docname="wrect.svg"
   xmlns:inkscape="http://www.inkscape.org/namespaces/inkscape"
   xmlns:sodipodi="http://sodipodi.sourceforge.net/DTD/sodipodi-0.dtd"
   xmlns="http://www.w3.org/2000/svg"
   xmlns:svg="http://www.w3.org/2000/svg">
  <sodipodi:namedview
     id="namedview1"
     pagecolor="#ffffff"
     bordercolor="#000000"
     borderopacity="0.25"
     inkscape:showpageshadow="2"
     inkscape:pageopacity="0.0"
     inkscape:pagecheckerboard="0"
     inkscape:deskcolor="#d1d1d1"
     inkscape:document-units="mm"
     inkscape:zoom="0.2102413"
     inkscape:cx="175.98826"
     inkscape:cy="-118.91098"
     inkscape:window-width="1312"
     inkscape:window-height="449"
     inkscape:window-x="0"
     inkscape:window-y="38"
     inkscape:window-maximized="0"
     inkscape:current-layer="layer1" />
  <defs
     id="defs1" />
  <g
     inkscape:label="Layer 1"
     inkscape:groupmode="layer"
     id="layer1"
     transform="translate(-309.56721,-61.96864)">
    <path
       d="m 314.80769,69.092692 c -0.54243,-0.195477 -0.98359,-0.714526 -1.17648,-1.384196 -0.12138,-0.421368 -0.19807,-0.426799 -0.68762,-0.04869 -2.16447,1.67174 -3.98018,0.05662 -3.18644,-2.83442 0.0629,-0.229156 0.11733,-0.545002 0.12092,-0.701881 0.006,-0.27041 0.15603,-0.501914 0.53806,-0.831335 0.21,-0.181074 0.82599,-0.181602 0.93678,-8.01e-4 0.13139,0.214434 0.2108,0.756594 0.11801,0.805744 -0.14405,0.07631 -0.214,0.577461 -0.0974,0.697873 l 0.10615,0.109623 -0.13417,-0.04413 c -0.37306,-0.122695 -0.39463,1.973469 -0.0231,2.237792 0.28958,0.205988 1.23356,-0.405537 1.7929,-1.161477 l 0.26135,-0.35321 -0.0264,-0.435915 c -0.0145,-0.239753 -0.0641,-0.577637 -0.11013,-0.750853 -0.0928,-0.348995 0.0689,-0.761945 0.32888,-0.840265 0.0767,-0.02311 0.20817,-0.09256 0.29215,-0.154331 0.2244,-0.165062 0.85379,-0.07613 1.05477,0.149044 l 0.15682,0.175689 -0.0634,0.871171 c -0.0994,1.365071 -0.0788,2.479118 0.0478,2.587647 0.0604,0.05172 0.10973,0.143664 0.10973,0.204311 0,0.180814 0.4117,0.587859 0.69704,0.689162 l 0.26589,0.09439 0.28339,-0.12117 c 0.73159,-0.312807 0.9018,-0.05257 0.35407,0.541339 -0.54473,0.590642 -1.22464,0.76374 -1.95958,0.498886 z m 13.60931,-0.01987 c -0.4362,-0.07307 -0.84939,-0.342582 -1.1518,-0.751281 l -0.25465,-0.344152 6.7e-4,-0.496508 c 3.4e-4,-0.273079 0.0805,-0.769222 0.17807,-1.10254 0.0976,-0.333317 0.19365,-0.662354 0.21353,-0.731193 0.17646,-0.610811 1.00796,-1.559698 1.42333,-1.624254 0.132,-0.02052 0.26471,-0.04134 0.29492,-0.04628 0.0302,-0.0049 0.16429,0.02977 0.29797,0.07713 l 0.24306,0.08611 v 0.261201 c 0,0.170485 -0.0795,0.342149 -0.22882,0.494276 -0.12585,0.128191 -0.19923,0.233074 -0.16307,0.233074 0.0362,0 0.006,0.05966 -0.0659,0.132569 -0.30656,0.308684 -0.69131,1.177362 -0.62073,1.401449 0.01,0.03125 -0.0517,0.05951 -0.13677,0.0628 -0.0924,0.0036 -0.1102,0.02137 -0.0442,0.04419 0.0608,0.02102 0.11444,0.163203 0.11929,0.315974 0.0136,0.427132 0.10633,0.629025 0.36521,0.794684 l 0.23723,0.151808 0.45381,-0.201794 c 0.72636,-0.322991 1.29223,-0.104323 0.83952,0.324417 -0.0753,0.07129 -0.13687,0.162867 -0.13687,0.203494 0,0.147959 -0.58494,0.554622 -0.96159,0.66852 -0.41554,0.12566 -0.42552,0.126172 -0.90224,0.04631 z m 6.54584,-0.514224 c -0.50577,-0.301424 -0.85355,-0.863752 -1.39566,-2.256683 -0.19472,-0.500346 -0.45378,-1.078347 -0.57567,-1.284448 l -0.22163,-0.374728 0.11705,-0.192754 c 0.54285,-0.8939 1.72193,-0.78305 1.83702,0.172706 0.11683,0.97018 1.04529,2.859545 1.28117,2.607116 0.17718,-0.189607 0.4668,-0.743894 0.67684,-1.295377 0.11856,-0.311292 0.32221,-0.759202 0.45256,-0.995357 l 0.237,-0.429374 0.39514,-0.145173 c 0.77417,-0.284418 1.26412,0.213425 0.7911,0.803835 -0.0658,0.08218 -0.25,0.490318 -0.40922,0.906965 -0.15923,0.416646 -0.33449,0.808673 -0.38948,0.87117 -0.0962,0.109389 -0.30791,0.424892 -0.52486,0.782354 -0.47317,0.779607 -1.64016,1.205922 -2.27136,0.829748 z m -15.4089,-0.135457 c -0.0838,-0.07187 -0.11938,-0.205224 -0.0958,-0.359832 0.0206,-0.135103 0.0536,-0.374573 0.0734,-0.532154 l 0.036,-0.286511 -0.64588,0.05016 -0.64587,0.05016 -0.26762,-0.163328 c -0.76225,-0.465202 -0.15393,-1.126635 1.08313,-1.177698 0.32558,-0.01344 0.61776,-0.04654 0.64929,-0.07356 0.0739,-0.06337 0.27414,-1.271005 0.28172,-1.699331 0.011,-0.618784 0.57783,-1.020703 1.19387,-0.846447 0.46784,0.132336 0.48677,0.263038 0.21964,1.516538 -0.1905,0.893922 -0.22067,0.86653 0.83675,0.759669 0.48853,-0.04937 1.05711,-5.73e-4 1.17549,0.100893 0.0755,0.06469 -0.32901,0.578764 -0.45539,0.578764 -0.063,0 -0.16383,0.05089 -0.22406,0.113087 -0.0602,0.0622 -0.27391,0.147967 -0.47484,0.190597 -0.20094,0.04263 -0.57115,0.134281 -0.82267,0.203666 l -0.45733,0.126154 -0.1613,0.533002 c -0.17173,0.567497 -0.3795,0.824049 -0.77056,0.951481 -0.31791,0.103592 -0.36992,0.100113 -0.52793,-0.03531 z m 8.41809,-5.132102 c -0.45678,-0.155534 -0.70562,-0.828955 -0.34277,-0.927658 0.0972,-0.02645 0.17677,-0.09328 0.17677,-0.148508 0,-0.311772 0.90008,-0.333743 1.23022,-0.03003 0.096,0.08829 0.2661,0.199518 0.37808,0.24718 0.86895,0.369847 -0.49433,1.181796 -1.4423,0.859016 z"
       style="fill:#000000"
       id="path1" />
  </g>
</svg>
