<?xml version="1.0" encoding="UTF-8" standalone="no"?>
<!-- Created with Inkscape (http://www.inkscape.org/) -->

<svg
   width="10.768193mm"
   height="12.317202mm"
   viewBox="0 0 10.768193 12.317202"
   version="1.1"
   id="svg1"
   inkscape:version="1.3.2 (091e20e, 2023-11-25)"
   sodipodi:docname="xj.svg"
   xmlns:inkscape="http://www.inkscape.org/namespaces/inkscape"
   xmlns:sodipodi="http://sodipodi.sourceforge.net/DTD/sodipodi-0.dtd"
   xmlns="http://www.w3.org/2000/svg"
   xmlns:svg="http://www.w3.org/2000/svg">
  <sodipodi:namedview
     id="namedview1"
     pagecolor="#ffffff"
     bordercolor="#000000"
     borderopacity="0.25"
     inkscape:showpageshadow="2"
     inkscape:pageopacity="0.0"
     inkscape:pagecheckerboard="0"
     inkscape:deskcolor="#d1d1d1"
     inkscape:document-units="mm"
     inkscape:zoom="0.2102413"
     inkscape:cx="19.025757"
     inkscape:cy="23.782197"
     inkscape:window-width="1312"
     inkscape:window-height="449"
     inkscape:window-x="0"
     inkscape:window-y="38"
     inkscape:window-maximized="0"
     inkscape:current-layer="layer1" />
  <defs
     id="defs1" />
  <g
     inkscape:label="Layer 1"
     inkscape:groupmode="layer"
     id="layer1"
     transform="translate(-98.975507,-142.38012)">
    <path
       d="m 105.67498,154.68056 c -0.10705,-0.0173 -0.31586,-0.14976 -0.46403,-0.2944 l -0.2694,-0.26298 v -0.3747 -0.37469 l 0.23809,-0.0512 c 0.15516,-0.0334 0.32707,-0.007 0.49353,0.0744 0.14049,0.0691 0.40706,0.14643 0.59238,0.17183 l 0.33696,0.0462 0.4078,-0.35454 c 1.02754,-0.89334 1.42456,-2.96337 0.80904,-4.21823 -0.0614,-0.12524 0.45327,-0.72 0.55077,-0.63643 0.0255,0.0219 0.0898,0.01 0.14292,-0.0265 0.52307,-0.35891 0.9559,0.17289 1.11048,1.3644 l 0.12018,0.92628 -0.11234,0.57395 c -0.28335,1.44776 -1.14393,2.58309 -2.34759,3.09709 -0.46448,0.19834 -0.65893,0.25144 -1.2816,0.34993 -0.0729,0.0115 -0.22015,0.007 -0.32719,-0.0104 z m -6.478508,-6.11178 -0.220965,-0.11021 v -0.34659 c 0,-0.19062 0.02983,-0.34665 0.06629,-0.34672 0.03646,-8e-5 0.06629,0.0339 0.06629,0.0756 0,0.12439 0.164436,0.0863 0.363289,-0.0841 0.145736,-0.12491 0.22787,-0.14405 0.37564,-0.0876 0.378184,0.14455 2.227064,-1.16831 2.531014,-1.79724 l 0.11291,-0.23364 -0.65591,-0.58424 c -0.36075,-0.32134 -0.85251,-0.78449 -1.09281,-1.02922 l -0.43691,-0.44497 v -0.29451 c 0,-0.91291 1.17669,-0.89269 1.8809,0.0323 0.37124,0.48765 1.1618,1.26576 1.28601,1.26576 0.18035,0 0.49275,-0.44754 1.11049,-1.59084 0.0563,-0.10416 0.16301,-0.28457 0.23719,-0.40091 l 0.13487,-0.21153 0.62586,0.0222 0.62585,0.0221 0.17495,0.2895 0.17495,0.28949 -0.2053,0.24079 c -0.11292,0.13242 -0.27464,0.28367 -0.35939,0.3361 -0.0847,0.0524 -0.21079,0.18878 -0.28012,0.30301 -0.33701,0.55532 -0.55322,0.893 -0.59376,0.92736 -0.67394,0.57113 -0.63797,0.74532 0.26566,1.28641 0.17015,0.10187 0.34913,0.22335 0.39774,0.26994 0.0486,0.0466 0.29397,0.21064 0.54525,0.36456 0.90008,0.55134 1.2438,1.06192 0.72629,1.07886 -0.12582,0.004 -0.28272,0.0361 -0.34867,0.071 -0.2122,0.1124 -0.54459,0.10608 -0.82569,-0.0157 -0.40574,-0.17578 -1.96126,-1.07043 -2.08709,-1.20038 -0.16932,-0.17486 -0.25501,-0.14169 -0.78514,0.30385 -0.91632,0.77011 -1.37647,1.1057 -1.87366,1.36649 l -0.49458,0.25943 -0.61024,0.0419 c -0.446757,0.0307 -0.669442,0.0124 -0.831209,-0.0683 z m 8.771268,-2.36628 c -0.35203,-0.1308 -0.2577,-0.74764 0.1424,-0.93117 0.72044,-0.33046 1.53325,0.27811 0.97015,0.72637 -0.20339,0.16191 -0.88855,0.28804 -1.11255,0.2048 z"
       style="fill:#000000"
       id="path1" />
  </g>
</svg>
