<?xml version="1.0" encoding="UTF-8" standalone="no"?>
<!-- Created with Inkscape (http://www.inkscape.org/) -->

<svg
   width="17.083359mm"
   height="8.9740105mm"
   viewBox="0 0 17.083359 8.9740105"
   version="1.1"
   id="svg1"
   inkscape:version="1.3.2 (091e20e, 2023-11-25)"
   sodipodi:docname="xy.svg"
   xmlns:inkscape="http://www.inkscape.org/namespaces/inkscape"
   xmlns:sodipodi="http://sodipodi.sourceforge.net/DTD/sodipodi-0.dtd"
   xmlns="http://www.w3.org/2000/svg"
   xmlns:svg="http://www.w3.org/2000/svg">
  <sodipodi:namedview
     id="namedview1"
     pagecolor="#ffffff"
     bordercolor="#000000"
     borderopacity="0.25"
     inkscape:showpageshadow="2"
     inkscape:pageopacity="0.0"
     inkscape:pagecheckerboard="0"
     inkscape:deskcolor="#d1d1d1"
     inkscape:document-units="mm"
     inkscape:zoom="0.2102413"
     inkscape:cx="33.295075"
     inkscape:cy="19.025757"
     inkscape:window-width="1312"
     inkscape:window-height="449"
     inkscape:window-x="0"
     inkscape:window-y="38"
     inkscape:window-maximized="0"
     inkscape:current-layer="layer1" />
  <defs
     id="defs1" />
  <g
     inkscape:label="Layer 1"
     inkscape:groupmode="layer"
     id="layer1"
     transform="translate(-95.819988,-144.02506)">
    <path
       d="m 109.27961,152.89705 c -0.27385,-0.12487 -0.2974,-0.23926 -0.12015,-0.58352 0.41013,-0.79656 0.7797,-1.86037 0.9923,-2.85633 l 0.15099,-0.70737 -0.16799,-0.0798 c -0.88022,-0.41838 -1.63546,-1.69348 -2.02154,-3.41303 -0.0808,-0.35999 0.20946,-0.59733 0.7303,-0.59712 0.72859,2.9e-4 1.07503,0.35152 1.0764,1.09125 4.6e-4,0.25787 0.46137,1.40522 0.61994,1.54325 0.083,0.0722 0.13103,-0.0519 0.26101,-0.67381 0.0435,-0.20832 0.12445,-0.51512 0.17982,-0.68178 0.0554,-0.16666 0.14066,-0.47346 0.18955,-0.68179 0.15723,-0.67002 0.46761,-0.90551 1.08103,-0.8202 0.45248,0.0629 0.70248,0.28966 0.64355,0.58363 -0.0978,0.4879 -0.33174,1.28238 -0.4475,1.51984 -0.066,0.13531 -0.14683,0.4644 -0.17971,0.73131 -0.0329,0.26692 -0.0926,0.57053 -0.13268,0.67469 -0.0401,0.10416 -0.12183,0.42801 -0.18163,0.71966 -0.22207,1.08306 -0.98566,3.41081 -1.2776,3.89468 -0.24181,0.40078 -0.9047,0.56055 -1.39609,0.33648 z m -12.920223,-2.03256 c -0.51884,-0.21779 -0.64813,-0.37141 -0.4532,-0.53848 0.0757,-0.0649 0.13766,-0.18373 0.13766,-0.26408 0,-0.0804 0.0535,-0.1461 0.11888,-0.1461 0.0654,0 0.19087,-0.0682 0.27886,-0.15151 0.088,-0.0833 0.24806,-0.1515 0.35573,-0.1515 0.12308,0 0.30669,-0.11736 0.49452,-0.31608 0.16432,-0.17385 0.38357,-0.38691 0.48724,-0.47347 0.10366,-0.0866 0.37957,-0.396 0.61313,-0.68766 0.23356,-0.29165 0.45699,-0.54164 0.49651,-0.55552 0.2592,-0.0911 0.0238,-0.41829 -0.72361,-1.00573 l -0.79547,-0.62524 v -0.21892 c 0,-0.36363 0.34816,-0.54426 1.00738,-0.52263 0.35515,0.0117 0.36896,0.0209 1.18734,0.79394 0.35278,0.33324 0.39094,0.33771 0.595873,0.0698 0.2572,-0.33624 1.09838,-1.6244 1.09838,-1.68203 0,-0.33645 0.95165,-0.49208 1.45836,-0.2385 l 0.26516,0.1327 0.0272,0.31712 0.0272,0.31711 -0.30147,0.32113 c -0.16581,0.17662 -0.52788,0.61552 -0.80459,0.97533 -0.27671,0.35981 -0.58087,0.71451 -0.6759,0.78822 -0.20006,0.15517 -0.22299,0.35954 -0.0564,0.50283 0.064,0.0551 0.19183,0.20237 0.28406,0.32737 0.0922,0.12499 0.2984,0.36713 0.45814,0.53808 0.20976,0.22447 0.29045,0.38809 0.29045,0.58896 v 0.27816 l -0.2271,0.074 c -0.23576,0.0768 -0.65676,0.0265 -0.65676,-0.0786 0,-0.0331 -0.11932,-0.0958 -0.26515,-0.13935 -0.14584,-0.0436 -0.26516,-0.10933 -0.26516,-0.14612 0,-0.0368 -0.0988,-0.1122 -0.2195,-0.16758 -0.12073,-0.0554 -0.24156,-0.16025 -0.26852,-0.23306 -0.10403,-0.28093 -0.28833,-0.20462 -0.713493,0.29544 -0.23621,0.27781 -0.47827,0.54856 -0.53791,0.60168 -0.0596,0.0531 -0.25944,0.25635 -0.44401,0.45163 -0.18456,0.19528 -0.47171,0.45863 -0.63811,0.58522 -0.16641,0.12658 -0.34539,0.26464 -0.39774,0.30679 -0.35718,0.28757 -0.68683,0.30797 -1.23801,0.0766 z"
       style="fill:#000000"
       id="path1" />
  </g>
</svg>
