<?xml version="1.0" encoding="UTF-8" standalone="no"?>
<!-- Created with Inkscape (http://www.inkscape.org/) -->

<svg
   width="7.0213132mm"
   height="9.9351616mm"
   viewBox="0 0 7.0213132 9.9351616"
   version="1.1"
   id="svg1"
   inkscape:version="1.3.2 (091e20e, 2023-11-25)"
   sodipodi:docname="y.svg"
   xmlns:inkscape="http://www.inkscape.org/namespaces/inkscape"
   xmlns:sodipodi="http://sodipodi.sourceforge.net/DTD/sodipodi-0.dtd"
   xmlns="http://www.w3.org/2000/svg"
   xmlns:svg="http://www.w3.org/2000/svg">
  <sodipodi:namedview
     id="namedview1"
     pagecolor="#ffffff"
     bordercolor="#000000"
     borderopacity="0.25"
     inkscape:showpageshadow="2"
     inkscape:pageopacity="0.0"
     inkscape:pagecheckerboard="0"
     inkscape:deskcolor="#d1d1d1"
     inkscape:document-units="mm"
     inkscape:zoom="0.2102413"
     inkscape:cx="14.269318"
     inkscape:cy="19.025757"
     inkscape:window-width="1312"
     inkscape:window-height="449"
     inkscape:window-x="0"
     inkscape:window-y="38"
     inkscape:window-maximized="0"
     inkscape:current-layer="layer1" />
  <defs
     id="defs1" />
  <g
     inkscape:label="Layer 1"
     inkscape:groupmode="layer"
     id="layer1"
     transform="translate(-101.05084,-143.63539)">
    <path
       d="m 102.60733,153.54032 c -0.74514,-0.0711 -1.04963,-0.18797 -1.3489,-0.51757 -0.39895,-0.43938 -0.20775,-0.74226 0.44363,-0.70273 0.23053,0.014 0.87655,0.0284 1.43559,0.0319 l 1.01643,0.007 0.40086,-0.15627 c 0.94645,-0.36895 1.06511,-0.60498 1.06269,-2.11383 -0.002,-1.32126 -0.0219,-1.39851 -0.35707,-1.39851 -1.80708,0 -3.71676,-1.80731 -3.71251,-3.51349 0.002,-0.66896 0.41655,-1.83615 0.44619,-1.25522 0.003,0.0604 0.0416,0.0331 0.0855,-0.0606 0.29738,-0.63411 1.42851,0.19749 1.23056,0.9047 -0.28627,1.02278 0.31956,2.36658 1.14272,2.53469 0.12724,0.026 0.27591,0.0771 0.33038,0.11368 0.49449,0.33175 0.98416,10e-4 0.61413,-0.41465 -0.2824,-0.31734 -0.28645,-0.52384 -0.0163,-0.83298 0.11589,-0.13263 0.2408,-0.32571 0.27758,-0.42907 0.43463,-1.22125 1.72786,-0.76165 2.29624,0.81605 0.26989,0.74917 0.0679,1.39427 -0.55067,1.75869 l -0.28513,0.16798 0.009,1.57402 0.009,1.57402 -0.236,0.44182 c -0.32521,0.60882 -1.1394,1.24135 -1.59787,1.24135 -0.0777,0 -0.24861,0.0469 -0.37989,0.10429 -0.29777,0.13011 -1.5532,0.19797 -2.31573,0.12518 z"
       style="fill:#000000"
       id="path1" />
  </g>
</svg>
