<?xml version="1.0" encoding="UTF-8" standalone="no"?>
<!-- Created with Inkscape (http://www.inkscape.org/) -->

<svg
   width="8.7440243mm"
   height="9.4939537mm"
   viewBox="0 0 8.7440243 9.4939537"
   version="1.1"
   id="svg1"
   inkscape:version="1.3.2 (091e20e, 2023-11-25)"
   sodipodi:docname="z.svg"
   xmlns:inkscape="http://www.inkscape.org/namespaces/inkscape"
   xmlns:sodipodi="http://sodipodi.sourceforge.net/DTD/sodipodi-0.dtd"
   xmlns="http://www.w3.org/2000/svg"
   xmlns:svg="http://www.w3.org/2000/svg">
  <sodipodi:namedview
     id="namedview1"
     pagecolor="#ffffff"
     bordercolor="#000000"
     borderopacity="0.25"
     inkscape:showpageshadow="2"
     inkscape:pageopacity="0.0"
     inkscape:pagecheckerboard="0"
     inkscape:deskcolor="#d1d1d1"
     inkscape:document-units="mm"
     inkscape:zoom="0.2102413"
     inkscape:cx="14.269318"
     inkscape:cy="19.025757"
     inkscape:window-width="1312"
     inkscape:window-height="449"
     inkscape:window-x="2123"
     inkscape:window-y="230"
     inkscape:window-maximized="0"
     inkscape:current-layer="layer1" />
  <defs
     id="defs1" />
  <g
     inkscape:label="Layer 1"
     inkscape:groupmode="layer"
     id="layer1"
     transform="translate(-100.1342,-143.81984)">
    <path
       d="m 107.22007,153.21698 c -0.21691,-0.0678 -0.95642,-0.0988 -2.4748,-0.10365 -3.70296,-0.0118 -4.22078,-0.61345 -2.65733,-3.08751 l 0.25512,-0.40371 -0.1484,-0.0681 c -0.0816,-0.0374 -0.29843,-0.0922 -0.48179,-0.12168 l -0.33338,-0.0536 -0.17467,-0.29345 -0.17467,-0.29345 0.13199,-0.27076 c 0.0873,-0.17915 0.18502,-0.2661 0.28872,-0.25698 0.27839,0.0245 0.38936,-0.002 0.33349,-0.0794 -0.0819,-0.11357 0.34941,-0.092 0.8989,0.0449 0.2663,0.0663 0.49345,0.10896 0.50478,0.0947 0.0113,-0.0143 0.13763,-0.16244 0.2807,-0.32926 0.14306,-0.16683 0.29988,-0.35935 0.34849,-0.42784 0.0486,-0.0685 0.21765,-0.28312 0.37564,-0.47696 0.15799,-0.19384 0.28726,-0.37443 0.28726,-0.40131 0,-0.0269 0.0942,-0.13596 0.2094,-0.2424 0.3267,-0.30192 1.20477,-1.44007 1.20477,-1.5616 0,-0.12957 -0.11223,-0.13242 -0.92806,-0.0236 -0.85645,0.11421 -0.86753,0.11595 -1.01643,0.15937 -2.12132,0.61862 -3.4125,0.84451 -3.61744,0.63286 -0.474331,-0.48985 -0.0715,-0.96378 0.93476,-1.09976 0.3817,-0.0516 1.03208,-0.17475 1.44528,-0.2737 2.38792,-0.57185 4.57734,-0.61677 4.943,-0.10141 l 0.16469,0.2321 -0.0872,0.27085 c -0.0844,0.2621 -0.39952,0.71178 -0.53486,0.76333 -0.0365,0.0139 -0.0663,0.0735 -0.0663,0.13257 0,0.059 -0.0734,0.17025 -0.16317,0.24716 -0.0897,0.0769 -0.29666,0.30702 -0.45982,0.51134 -0.16316,0.20432 -0.33832,0.40957 -0.38925,0.45611 -0.22581,0.20637 -0.49032,0.48785 -0.49032,0.52178 0,0.0204 -0.17898,0.24547 -0.39774,0.50016 -0.5691,0.66259 -0.59221,0.64656 1.02498,0.71067 1.39191,0.0552 1.85859,0.10809 2.09335,0.23734 l 0.20161,0.11099 -0.15652,0.22709 c -0.0861,0.12491 -0.23647,0.24296 -0.33418,0.26234 -0.62105,0.1232 -1.59346,0.20501 -2.78433,0.23426 -0.75309,0.0185 -1.39384,0.0578 -1.42389,0.0873 -0.18488,0.18156 -0.81289,1.35547 -0.94142,1.75977 -0.21003,0.66062 -0.13023,0.67967 2.80652,0.67001 2.55326,-0.008 2.97597,0.0488 3.12129,0.42244 0.12108,0.31134 -0.0469,0.57247 -0.36832,0.57247 -0.14077,0 -0.41009,0.0461 -0.5985,0.10251 l -0.34256,0.10252 z"
       style="fill:#000000"
       id="path1" />
  </g>
</svg>
