<?xml version="1.0" encoding="UTF-8" standalone="no"?>
<!-- Created with Inkscape (http://www.inkscape.org/) -->

<svg
   width="8.0894489mm"
   height="10.000793mm"
   viewBox="0 0 8.0894489 10.000793"
   version="1.1"
   id="svg1"
   inkscape:version="1.3.2 (091e20e, 2023-11-25)"
   sodipodi:docname="zbar.svg"
   xmlns:inkscape="http://www.inkscape.org/namespaces/inkscape"
   xmlns:sodipodi="http://sodipodi.sourceforge.net/DTD/sodipodi-0.dtd"
   xmlns="http://www.w3.org/2000/svg"
   xmlns:svg="http://www.w3.org/2000/svg">
  <sodipodi:namedview
     id="namedview1"
     pagecolor="#ffffff"
     bordercolor="#000000"
     borderopacity="0.25"
     inkscape:showpageshadow="2"
     inkscape:pageopacity="0.0"
     inkscape:pagecheckerboard="0"
     inkscape:deskcolor="#d1d1d1"
     inkscape:document-units="mm"
     inkscape:zoom="0.2102413"
     inkscape:cx="14.269318"
     inkscape:cy="19.025757"
     inkscape:window-width="1312"
     inkscape:window-height="449"
     inkscape:window-x="0"
     inkscape:window-y="38"
     inkscape:window-maximized="0"
     inkscape:current-layer="layer1" />
  <defs
     id="defs1" />
  <g
     inkscape:label="Layer 1"
     inkscape:groupmode="layer"
     id="layer1"
     transform="translate(-100.51736,-143.5345)">
    <path
       d="m 106.27771,153.51743 c -0.0198,-0.017 -0.87138,-0.0326 -1.89239,-0.0347 -1.91048,-0.004 -2.19787,-0.0394 -2.72208,-0.33601 -0.64818,-0.3667 -0.69022,-0.62947 -0.26573,-1.66099 0.11908,-0.28936 0.2077,-0.52799 0.19693,-0.53028 -0.0108,-0.002 -0.0991,-0.048 -0.19635,-0.1016 -0.0972,-0.0536 -0.2874,-0.13817 -0.4226,-0.18795 -0.49666,-0.18285 -0.47863,-0.83565 0.0294,-1.06327 0.3028,-0.13568 1.05808,-0.14459 1.42494,-0.0168 0.0917,0.0319 0.20917,-0.003 0.30935,-0.0917 0.26752,-0.23721 0.95514,-0.93863 0.98291,-1.00264 0.0391,-0.0901 -0.53437,-0.14534 -0.70674,-0.0681 -0.22719,0.1018 -0.96336,0.0582 -1.01637,-0.0602 -0.0249,-0.0556 -0.099,-0.10108 -0.16461,-0.10108 -0.0656,0 -0.22948,-0.1183 -0.36409,-0.26288 -0.13461,-0.14459 -0.35506,-0.28366 -0.48989,-0.30904 -0.45975,-0.0865 -0.25523,-0.48863 0.24854,-0.48863 0.15487,0 0.39396,-0.05 0.53133,-0.11106 0.13736,-0.0611 0.33083,-0.0954 0.42993,-0.0763 0.0991,0.0191 0.43871,0.0499 0.75469,0.0685 1.17069,0.0689 1.90274,0.14111 1.98868,0.19622 0.0486,0.0312 0.2186,0.0805 0.37776,0.10973 0.15915,0.0292 0.40774,0.13841 0.55241,0.24274 l 0.26304,0.18971 v 0.34219 0.3422 l -0.24306,0.16121 c -1.0851,0.71974 -1.20015,0.93039 -0.54784,1.00311 1.52277,0.16975 2.10121,0.27062 2.46047,0.42908 l 0.4025,0.17753 0.0144,0.24483 c 0.0104,0.17698 -0.0356,0.26776 -0.16601,0.32757 -0.19263,0.0884 -0.32127,0.0912 -2.73311,0.0596 -1.24665,-0.0163 -1.59473,0.001 -1.71571,0.087 -0.19655,0.13916 -0.56512,0.85293 -0.56512,1.09442 v 0.18722 h 1.66626 1.66626 l 0.30032,0.17288 c 0.35864,0.20646 0.4444,0.59668 0.18795,0.85527 -0.14787,0.14911 -0.49908,0.2785 -0.5763,0.21232 z m 0.95384,-8.07339 c -0.72343,-0.13082 -4.38885,-0.41908 -5.34734,-0.42053 -0.90907,-10e-4 -1.46114,-0.39394 -1.35351,-0.96243 l 0.0533,-0.28147 0.29986,-0.12255 0.29985,-0.12256 1.03524,0.12967 c 0.56939,0.0713 1.13019,0.14536 1.24624,0.16454 0.11606,0.0192 0.63311,0.0568 1.14902,0.0837 0.51591,0.0268 0.96742,0.0638 1.00337,0.0821 0.0359,0.0183 0.48147,0.0325 0.99006,0.0316 1.26774,-0.002 1.8183,0.21546 1.93897,0.76672 l 0.0602,0.27487 -0.21724,0.2009 c -0.24162,0.22346 -0.59583,0.27712 -1.15798,0.17546 z"
       style="fill:#000000"
       id="path1" />
  </g>
</svg>
