<?xml version="1.0" encoding="UTF-8" standalone="no"?>
<!-- Created with Inkscape (http://www.inkscape.org/) -->

<svg
   width="18.82666mm"
   height="9.5703812mm"
   viewBox="0 0 18.82666 9.5703812"
   version="1.1"
   id="svg1"
   inkscape:version="1.3.2 (091e20e, 2023-11-25)"
   sodipodi:docname="zdividew.svg"
   xmlns:inkscape="http://www.inkscape.org/namespaces/inkscape"
   xmlns:sodipodi="http://sodipodi.sourceforge.net/DTD/sodipodi-0.dtd"
   xmlns="http://www.w3.org/2000/svg"
   xmlns:svg="http://www.w3.org/2000/svg">
  <sodipodi:namedview
     id="namedview1"
     pagecolor="#ffffff"
     bordercolor="#000000"
     borderopacity="0.25"
     inkscape:showpageshadow="2"
     inkscape:pageopacity="0.0"
     inkscape:pagecheckerboard="0"
     inkscape:deskcolor="#d1d1d1"
     inkscape:document-units="mm"
     inkscape:zoom="0.2102413"
     inkscape:cx="38.051515"
     inkscape:cy="19.025757"
     inkscape:window-width="1312"
     inkscape:window-height="449"
     inkscape:window-x="0"
     inkscape:window-y="38"
     inkscape:window-maximized="0"
     inkscape:current-layer="layer1" />
  <defs
     id="defs1" />
  <g
     inkscape:label="Layer 1"
     inkscape:groupmode="layer"
     id="layer1"
     transform="translate(-94.942079,-143.77105)">
    <path
       d="m 102.57062,153.28745 c 0,-0.036 -0.0773,-0.0444 -0.17185,-0.0187 -0.12035,0.0327 -0.21147,-0.006 -0.30403,-0.12747 l -0.13217,-0.17421 0.12644,-0.56545 c 0.19555,-0.8745 0.37018,-1.27758 1.36319,-3.1465 0.33463,-0.6298 0.47217,-0.90591 0.60376,-1.21206 0.46251,-1.07605 0.97799,-2.16135 1.30492,-2.74739 0.21539,-0.38611 0.39163,-0.72912 0.39163,-0.76225 0,-0.20814 0.38238,-0.69802 0.57764,-0.74003 0.75361,-0.16211 1.33437,0.59142 0.91071,1.18164 -0.32714,0.45573 -1.31158,2.1838 -1.31158,2.3023 0,0.0621 -0.0367,0.13233 -0.0816,0.1561 -0.0449,0.0238 -0.10783,0.15361 -0.13991,0.28855 -0.0321,0.13493 -0.2275,0.55213 -0.43425,0.92711 -0.20676,0.37499 -0.42769,0.8011 -0.49095,0.94693 -0.0633,0.14582 -0.18741,0.32056 -0.27588,0.3883 -0.0885,0.0677 -0.13602,0.14444 -0.10568,0.17045 0.0303,0.026 0.006,0.0473 -0.0539,0.0473 -0.0687,0 -0.0884,0.0558 -0.0533,0.15073 0.0354,0.0955 -0.0423,0.31069 -0.21197,0.58709 -0.34022,0.55437 -0.46971,0.83396 -0.51593,1.11388 -0.0203,0.12265 -0.11325,0.39536 -0.20668,0.60603 -0.0934,0.21067 -0.16988,0.4427 -0.1699,0.51561 -5e-5,0.14227 -0.008,0.14558 -0.37569,0.1648 -0.13368,0.007 -0.24306,-0.0168 -0.24306,-0.0528 z m 7.64537,-0.17659 c -0.24306,-0.10882 -0.56893,-0.30128 -0.72415,-0.42769 l -0.28222,-0.22985 -0.29229,0.11588 c -0.51844,0.20555 -0.67493,0.21888 -1.10612,0.0942 -1.44682,-0.41826 -2.01861,-1.58197 -1.52578,-3.10527 0.10783,-0.33332 0.23475,-0.75342 0.28204,-0.93356 0.15892,-0.60536 0.91756,-0.79351 1.38037,-0.34236 0.2516,0.24527 0.23095,0.59256 -0.0759,1.27592 -0.14548,0.32401 -0.20624,0.62247 -0.21162,1.03943 l -0.008,0.58491 0.19917,0.17078 0.19916,0.17078 0.2913,-0.13445 c 0.37709,-0.17406 0.85656,-1.07494 0.85733,-1.61085 1.1e-4,-0.0797 0.11611,-0.26108 0.25778,-0.40315 l 0.25757,-0.25829 0.38302,0.0694 c 0.24283,0.044 0.38372,0.11084 0.38495,0.18254 10e-4,0.0622 0.0576,0.22807 0.12571,0.36861 l 0.12377,0.25552 -0.113,0.38839 c -0.0621,0.21361 -0.13163,0.6314 -0.15441,0.92841 l -0.0414,0.54003 0.26331,0.16069 c 0.94122,0.57443 1.77449,-0.56388 1.781,-2.433 0.002,-0.4741 0.15315,-0.81523 0.36205,-0.81523 0.1384,0 0.52222,0.38651 0.5766,0.58064 0.0331,0.11813 0.10921,0.3 0.16915,0.40417 0.19127,0.33239 0.25114,0.55584 0.13202,0.49274 -0.0808,-0.0428 -0.084,-0.0201 -0.013,0.0934 0.0515,0.0825 0.0773,0.23146 0.0574,0.3311 -0.0199,0.0996 -0.0539,0.32087 -0.0757,0.49162 -0.0217,0.17075 -0.0761,0.37529 -0.12088,0.45452 -0.47586,0.84239 -0.65406,1.07555 -1.03179,1.34999 l -0.42551,0.30916 -0.72025,0.0193 -0.72025,0.0193 z m -11.578533,-2.86435 c -1.51596,-0.30892 -2.32975,-1.08772 -2.09045,-2.00056 0.0623,-0.23748 0.0577,-0.3336 -0.0168,-0.3523 -0.0563,-0.0141 -0.35266,-0.068 -0.65852,-0.11962 -0.974477,-0.16454 -1.289834,-1.03584 -0.42471,-1.17342 0.54634,-0.0869 0.62888,-0.0899 0.72224,-0.0268 0.0522,0.0353 0.37179,0.0863 0.71015,0.11326 l 0.61519,0.049 0.48729,-0.40707 c 0.268,-0.22389 0.64447,-0.51492 0.83659,-0.64674 0.43381,-0.29763 0.3867,-0.34425 -0.25716,-0.25443 -0.28364,0.0396 -0.5929,0.0425 -0.70164,0.007 -0.78859,-0.26007 -0.93951,-0.33948 -1.03987,-0.54714 l -0.10684,-0.22108 0.16479,-0.26227 0.16479,-0.26226 0.31134,-0.008 c 0.94126,-0.0232 2.48929,0.14242 2.874543,0.30755 0.0972,0.0417 0.28854,0.1105 0.42515,0.15295 0.13661,0.0425 0.22375,0.11133 0.19365,0.15307 -0.0301,0.0417 -0.0126,0.0759 0.0389,0.0759 0.0515,0 0.0936,0.0511 0.0936,0.11363 0,0.0625 0.0398,0.11363 0.0884,0.11363 0.3232,0 -0.27193,0.98132 -0.71393,1.17722 -0.26734,0.11849 -0.700243,0.4381 -0.700243,0.51699 0,0.0265 0.27654,0.0481 0.614543,0.0481 0.76779,0 1.07775,0.1066 1.02567,0.35275 l -0.0376,0.17753 h 0.25409 c 0.31692,0 0.38167,0.0826 0.21991,0.28054 -0.15815,0.19351 -0.54033,0.24728 -2.120843,0.29835 -1.3522,0.0437 -1.36233,0.0469 -1.51128,0.47928 l -0.10257,0.29774 0.12647,0.15475 c 0.34382,0.42072 1.84587,0.54232 2.489253,0.20152 0.18005,-0.0954 0.54488,0.0956 0.54488,0.28521 0,0.13083 0.0615,0.19627 0.21545,0.2294 0.26992,0.0581 0.26663,0.2901 -0.007,0.51063 -0.32424,0.26107 -1.848083,0.36483 -2.727203,0.18568 z"
       style="fill:#000000"
       id="path1" />
  </g>
</svg>
