<?xml version="1.0" encoding="UTF-8" standalone="no"?>
<!-- Created with Inkscape (http://www.inkscape.org/) -->

<svg
   width="12.925094mm"
   height="10.564758mm"
   viewBox="0 0 12.925094 10.564758"
   version="1.1"
   id="svg1"
   inkscape:version="1.3.2 (091e20e, 2023-11-25)"
   sodipodi:docname="zj.svg"
   xmlns:inkscape="http://www.inkscape.org/namespaces/inkscape"
   xmlns:sodipodi="http://sodipodi.sourceforge.net/DTD/sodipodi-0.dtd"
   xmlns="http://www.w3.org/2000/svg"
   xmlns:svg="http://www.w3.org/2000/svg">
  <sodipodi:namedview
     id="namedview1"
     pagecolor="#ffffff"
     bordercolor="#000000"
     borderopacity="0.25"
     inkscape:showpageshadow="2"
     inkscape:pageopacity="0.0"
     inkscape:pagecheckerboard="0"
     inkscape:deskcolor="#d1d1d1"
     inkscape:document-units="mm"
     inkscape:zoom="0.2102413"
     inkscape:cx="23.782197"
     inkscape:cy="19.025757"
     inkscape:window-width="1312"
     inkscape:window-height="449"
     inkscape:window-x="0"
     inkscape:window-y="38"
     inkscape:window-maximized="0"
     inkscape:current-layer="layer1" />
  <defs
     id="defs1" />
  <g
     inkscape:label="Layer 1"
     inkscape:groupmode="layer"
     id="layer1"
     transform="translate(-97.969778,-143.10662)">
    <path
       d="m 108.03766,153.54195 c -0.14161,-0.0495 -0.31246,-0.14683 -0.37965,-0.21622 l -0.12217,-0.12617 0.21661,-0.14268 c 0.11913,-0.0785 0.28664,-0.14343 0.37224,-0.14436 0.0856,-9.2e-4 0.33008,-0.072 0.54329,-0.15786 l 0.38765,-0.15618 0.0975,-0.33189 c 0.12816,-0.4362 0.12171,-0.82343 -0.0214,-1.28748 -0.0643,-0.20833 -0.12588,-0.6174 -0.13695,-0.90905 -0.0111,-0.29165 -0.041,-0.6038 -0.0664,-0.69367 -0.16381,-0.57826 0.87427,-1.02094 1.43123,-0.61033 l 0.23494,0.17321 0.0246,0.80218 c 0.0136,0.44121 0.0709,0.92238 0.12751,1.06927 0.65481,1.70053 -0.97057,3.33922 -2.70904,2.73123 z m -5.99045,-3.11144 c -2.581976,-0.35768 -3.43418,-1.49175 -2.241008,-2.9822 l 0.158209,-0.19763 -0.633601,-0.0897 c -1.239646,-0.17547 -1.71257,-0.72965 -1.083071,-1.26918 0.192069,-0.16462 0.975024,-0.18905 1.321758,-0.0413 0.144235,0.0615 0.603803,0.12849 1.021263,0.14889 l 0.75903,0.0371 0.74645,-0.48357 c 0.41054,-0.26596 0.89403,-0.56833 1.07442,-0.67194 0.94605,-0.54335 0.28039,-0.82506 -1.42196,-0.60179 -1.757514,0.23051 -2.473063,0.16223 -2.801437,-0.26731 l -0.137053,-0.17927 0.184028,-0.30917 c 0.118848,-0.19967 0.244155,-0.30917 0.353786,-0.30917 0.09337,0 0.188191,-0.0256 0.210719,-0.0568 0.0674,-0.0935 4.107637,-0.0479 4.830687,0.0545 0.66778,0.0946 1.14902,0.33994 1.14902,0.58582 0,0.54249 -0.59913,1.18994 -1.80867,1.95454 l -0.35029,0.22144 0.21771,0.052 c 0.11975,0.0286 0.44455,0.0554 0.72178,0.0596 0.96996,0.0145 1.22265,0.26818 0.53448,0.53649 -0.23091,0.09 -0.49031,0.1961 -0.57644,0.2357 -0.0861,0.0396 -0.34466,0.0905 -0.57451,0.11305 -1.9988,0.19632 -2.47922,0.42507 -2.75829,1.31335 l -0.10097,0.32137 0.1388,0.18155 c 0.37886,0.49559 1.61052,0.67147 3.62835,0.51814 0.71381,-0.0542 1.09732,-0.0392 1.29332,0.0507 l 0.16338,0.0749 -0.10966,0.22908 c -0.23015,0.48084 -2.61276,0.95046 -3.91023,0.77071 z m 6.43985,-2.58075 c -0.69427,-0.30812 -0.37857,-1.02934 0.47673,-1.0891 0.82584,-0.0577 1.61864,0.78884 0.85501,0.91298 -0.0937,0.0152 -0.1903,0.0512 -0.21461,0.0798 -0.12073,0.14238 -0.86815,0.20681 -1.11713,0.0963 z"
       style="fill:#000000"
       id="path1" />
  </g>
</svg>
