<?xml version="1.0" encoding="UTF-8" standalone="no"?>
<!-- Created with Inkscape (http://www.inkscape.org/) -->

<svg
   width="22.556938mm"
   height="6.9289603mm"
   viewBox="0 0 22.556938 6.9289603"
   version="1.1"
   id="svg1"
   inkscape:version="1.3.2 (091e20e, 2023-11-25)"
   sodipodi:docname="zplusw.svg"
   xmlns:inkscape="http://www.inkscape.org/namespaces/inkscape"
   xmlns:sodipodi="http://sodipodi.sourceforge.net/DTD/sodipodi-0.dtd"
   xmlns="http://www.w3.org/2000/svg"
   xmlns:svg="http://www.w3.org/2000/svg">
  <sodipodi:namedview
     id="namedview1"
     pagecolor="#ffffff"
     bordercolor="#000000"
     borderopacity="0.25"
     inkscape:showpageshadow="2"
     inkscape:pageopacity="0.0"
     inkscape:pagecheckerboard="0"
     inkscape:deskcolor="#d1d1d1"
     inkscape:document-units="mm"
     inkscape:zoom="0.2102413"
     inkscape:cx="42.807954"
     inkscape:cy="14.269318"
     inkscape:window-width="1312"
     inkscape:window-height="449"
     inkscape:window-x="1574"
     inkscape:window-y="252"
     inkscape:window-maximized="0"
     inkscape:current-layer="layer1" />
  <defs
     id="defs1" />
  <g
     inkscape:label="Layer 1"
     inkscape:groupmode="layer"
     id="layer1"
     transform="translate(-93.047871,-145.05952)">
    <path
       d="m 96.919846,151.97967 c -0.01745,-0.0135 -0.410211,-0.0432 -0.872791,-0.0658 -2.206309,-0.10799 -3.300305,-1.1094 -2.606793,-2.38619 l 0.218434,-0.40215 -0.252747,-0.0755 -0.252748,-0.0755 -0.08416,-0.36482 c -0.101593,-0.44037 0.173273,-0.77001 0.592991,-0.71115 0.02431,0.003 0.272216,0.0296 0.550911,0.0582 l 0.506718,0.052 0.200368,-0.17789 c 0.110202,-0.0978 0.566695,-0.44657 1.014429,-0.77493 0.984572,-0.72208 0.983574,-0.72435 -0.319967,-0.72435 -1.491587,0 -1.865438,-0.13593 -1.86272,-0.67732 0.0022,-0.43232 0.55112,-0.712 1.072758,-0.54655 0.114115,0.0362 0.260675,0.0498 0.32569,0.0303 0.261818,-0.0787 2.300599,0.20585 2.867881,0.40023 0.265599,0.091 0.706151,0.70422 0.641496,0.89292 -0.05335,0.1557 -1.623046,1.41787 -1.84547,1.48392 -0.05653,0.0168 -0.232555,0.13772 -0.391161,0.26876 l -0.288375,0.23824 0.177893,0.16366 c 0.09784,0.09 0.177893,0.19796 0.177893,0.23991 0,0.0419 0.07685,0.1115 0.170785,0.15459 0.256001,0.11743 0.319363,0.37155 0.124484,0.49926 -0.164512,0.10781 -0.37665,0.0996 -1.046548,-0.0403 -0.565268,-0.11807 -0.647439,-0.0976 -0.827082,0.20662 -0.653845,1.10705 0.335243,1.48518 3.174013,1.21343 0.674259,-0.0645 1.019398,0.0612 0.918187,0.3345 l -0.05649,0.15255 0.174709,-0.0475 c 0.253537,-0.069 0.326165,0.30002 0.09761,0.49591 l -0.166482,0.14269 -0.729182,0.004 c -0.401051,0.002 -0.873996,0.0175 -1.050989,0.0335 -0.176993,0.016 -0.336088,0.0181 -0.353543,0.005 z m 6.406534,-1.02643 c -0.45262,-0.17254 -0.4936,-0.27637 -0.38951,-0.98685 0.0967,-0.66037 0.13455,-0.58907 -0.3394,-0.64011 -1.00023,-0.10771 -1.4098,-0.58447 -0.96354,-1.12161 l 0.18266,-0.21987 0.45249,0.045 c 0.24887,0.0248 0.56875,0.0533 0.71086,0.0635 l 0.25837,0.0184 0.11367,-0.37852 c 0.0625,-0.20819 0.11112,-0.56173 0.108,-0.78565 -0.0131,-0.9421 1.0893,-1.26307 1.53675,-0.44742 l 0.15484,0.28226 -0.17732,0.65178 c -0.20918,0.76892 -0.21054,0.76558 0.31524,0.7724 0.37451,0.005 0.74654,0.1859 0.74654,0.3633 0,0.0263 0.0882,0.10905 0.196,0.18387 l 0.19601,0.13603 -0.11125,0.11488 c -0.12667,0.13082 -0.35021,0.19038 -1.16461,0.31029 l -0.57451,0.0846 -0.028,0.20832 c -0.0154,0.11458 -0.0551,0.20833 -0.0884,0.20833 -0.0332,0 -0.0675,0.0937 -0.0761,0.20832 -0.0314,0.41781 -0.14076,0.70065 -0.34333,0.88799 -0.24154,0.22337 -0.2371,0.22312 -0.71553,0.0407 z m 6.90376,-0.26007 c -0.49961,-0.15505 -0.80721,-0.36595 -1.01979,-0.69921 l -0.2134,-0.33454 0.007,-0.92536 c 0.007,-1.03978 0.20449,-2.40028 0.39731,-2.74345 l 0.12769,-0.22726 0.39185,-0.024 c 0.53605,-0.0328 0.76127,0.0893 0.88968,0.48238 l 0.10683,0.32703 -0.23081,0.92257 c -0.52866,2.11303 -0.11465,2.54446 0.85296,0.88886 0.18028,-0.30847 0.42729,-0.64097 0.54891,-0.7389 l 0.22112,-0.17805 0.35469,0.0911 0.35469,0.0911 v 0.17824 c 0,0.098 0.0621,0.19866 0.138,0.22363 l 0.13799,0.0454 -0.0609,0.52954 -0.0609,0.52955 0.13694,0.045 c 0.52319,0.17207 0.79438,-0.39624 0.83126,-1.742 l 0.0289,-1.0557 0.1451,-0.13742 c 0.22644,-0.21445 0.64802,-0.0624 0.64802,0.23379 0,0.0518 0.0597,0.14527 0.13258,0.20777 0.0729,0.0625 0.13258,0.0866 0.13258,0.0535 0,-0.0331 0.0592,0.0123 0.13159,0.10089 0.0892,0.10921 0.14981,0.45538 0.18818,1.07579 l 0.0566,0.91476 -0.14602,0.19101 c -0.0803,0.10505 -0.1242,0.191 -0.0975,0.191 0.20332,0 -0.52883,0.78629 -0.92828,0.99694 -0.52669,0.27773 -1.50312,0.22142 -2.05539,-0.11854 l -0.24348,-0.14988 -0.28683,0.22518 c -0.55485,0.43558 -0.68252,0.50565 -1.01675,0.55803 -0.18902,0.0296 -0.45278,0.017 -0.60009,-0.0287 z"
       style="fill:#000000"
       id="path1" />
  </g>
</svg>
