<?xml version="1.0" encoding="UTF-8" standalone="no"?>
<!-- Created with Inkscape (http://www.inkscape.org/) -->

<svg
   width="24.489159mm"
   height="11.143684mm"
   viewBox="0 0 24.489159 11.143684"
   version="1.1"
   id="svg1"
   inkscape:version="1.3.2 (091e20e, 2023-11-25)"
   sodipodi:docname="zpolar.svg"
   xmlns:inkscape="http://www.inkscape.org/namespaces/inkscape"
   xmlns:sodipodi="http://sodipodi.sourceforge.net/DTD/sodipodi-0.dtd"
   xmlns="http://www.w3.org/2000/svg"
   xmlns:svg="http://www.w3.org/2000/svg">
  <sodipodi:namedview
     id="namedview1"
     pagecolor="#ffffff"
     bordercolor="#000000"
     borderopacity="0.25"
     inkscape:showpageshadow="2"
     inkscape:pageopacity="0.0"
     inkscape:pagecheckerboard="0"
     inkscape:deskcolor="#d1d1d1"
     inkscape:document-units="mm"
     inkscape:zoom="0.2102413"
     inkscape:cx="47.564393"
     inkscape:cy="19.025757"
     inkscape:window-width="1312"
     inkscape:window-height="449"
     inkscape:window-x="0"
     inkscape:window-y="38"
     inkscape:window-maximized="0"
     inkscape:current-layer="layer1" />
  <defs
     id="defs1" />
  <g
     inkscape:label="Layer 1"
     inkscape:groupmode="layer"
     id="layer1"
     transform="translate(-92.138301,-143.04684)">
    <path
       d="m 97.933803,154.1346 c -0.70232,-0.18037 -0.83967,-0.22625 -0.83967,-0.28048 0,-0.035 -0.0595,-0.0636 -0.13232,-0.0636 -1.07751,0 -1.43713,-2.16404 -0.53502,-3.21954 0.10683,-0.125 0.21783,-0.28231 0.24666,-0.3496 0.2761,-0.64426 2.97212,-1.6235 4.558007,-1.65555 0.23144,-0.005 1.05685,0.75104 1.11613,1.0219 0.0816,0.37299 -0.67777,1.39989 -1.03524,1.39989 -0.0417,0 -0.20249,0.081 -0.35724,0.17994 -0.25823,0.16515 -0.45331,0.24867 -1.147277,0.4912 -0.62006,0.21671 -1.60378,0.0805 -1.95641,-0.27084 l -0.20794,-0.2072 -0.15265,0.30116 c -0.61083,1.2051 0.001,1.77843 1.90133,1.78097 0.864777,0.001 1.186657,-0.0393 2.474797,-0.3109 1.05769,-0.22302 1.21639,-0.2451 1.37847,-0.1918 l 0.14324,0.0471 -0.15607,0.20755 c -0.15606,0.20755 -0.35231,0.34619 -0.43191,0.30511 -0.0233,-0.012 -0.0937,0.0345 -0.15655,0.10327 -0.38475,0.42105 -3.820477,0.93998 -4.710337,0.71144 z m 0.28293,-3.40159 c 0.12473,-0.0904 0.36957,-0.1499 0.6823,-0.16589 0.83987,-0.0429 2.084067,-0.63074 2.084067,-0.98461 v -0.18575 h -0.22833 c -0.784617,0 -2.869257,1.11057 -2.863807,1.52567 6.7e-4,0.0622 0.0271,0.073 0.0663,0.0273 0.0357,-0.0417 0.15248,-0.13919 0.25948,-0.21671 z m -5.61561,2.41492 c -0.4322,-0.20411 -0.45482,-0.29865 -0.46261,-1.93307 -0.006,-1.28793 0.11523,-2.0115 0.37227,-2.21935 0.11454,-0.0926 0.32202,-0.32517 0.46105,-0.51678 0.26013,-0.35849 1.09494,-0.90006 1.3874,-0.90006 0.2713,0 1.01715,0.36419 1.11792,0.54587 0.30557,0.55088 0.38537,0.77636 0.42789,1.20894 0.026,0.26396 0.0619,0.58512 0.0799,0.71369 0.0424,0.30306 -0.0328,0.39759 -0.36154,0.45393 l -0.26873,0.0461 -0.0995,-0.21537 c -0.0547,-0.11846 -0.12533,-0.31764 -0.15695,-0.44264 -0.49796,-1.96881 -1.59466,-0.63481 -1.4324,1.74235 l 0.0672,0.9848 -0.14789,0.24049 c -0.22822,0.37113 -0.58878,0.4778 -0.98406,0.29113 z M 110.7294,150.4798 c -0.60507,-0.10016 -0.6908,-0.7306 -0.21167,-1.55643 0.33792,-0.58241 0.33804,-0.58924 0.0134,-0.77569 -0.68726,-0.39465 -0.83159,-1.02382 -0.48844,-2.12918 0.12153,-0.39148 0.22096,-0.72377 0.22096,-0.73844 0,-0.0651 0.7846,-0.73113 1.10483,-0.93786 0.58708,-0.37902 1.8119,-0.59705 1.8119,-0.32253 0,0.0409 0.0466,0.0743 0.10353,0.0743 0.0569,0 0.17589,0.0561 0.26434,0.12474 l 0.16081,0.12474 0.19543,-0.21943 c 0.10748,-0.12069 0.36114,-0.36431 0.56369,-0.54139 l 0.36827,-0.32195 h 0.36218 c 0.19919,0 0.50175,0.057 0.67235,0.12678 l 0.31019,0.12677 -0.0495,0.19518 c -0.0272,0.10735 -0.21638,0.33154 -0.42039,0.49819 -0.20401,0.16666 -0.45971,0.41117 -0.56822,0.54336 l -0.19729,0.24034 0.24901,0.15197 c 0.95083,0.58029 1.42723,1.19965 1.43068,1.86002 l 0.002,0.37156 -0.33685,0.27235 c -0.77958,0.63031 -2.2763,1.06154 -3.70078,1.06625 l -0.45802,0.001 -0.31857,0.53576 c -0.23393,0.39343 -0.31302,0.61615 -0.29772,0.83842 0.0282,0.41009 -0.1459,0.49663 -0.78604,0.39065 z m 3.35316,-3.05131 c 0.32557,-0.0862 0.71126,-0.25685 0.90517,-0.40051 l 0.33788,-0.25033 -0.13566,-0.22446 c -0.46814,-0.77461 -0.88449,-0.86585 -1.30253,-0.28543 -0.17014,0.23623 -0.44012,0.59908 -0.59994,0.80633 -0.15983,0.20725 -0.31133,0.40556 -0.33667,0.44069 -0.0832,0.11537 0.55332,0.0668 1.13175,-0.0863 z m -2.40478,-0.38687 c 0,-0.0729 0.84851,-1.25122 1.04412,-1.44992 l 0.12896,-0.13099 -0.14351,-0.0472 c -0.20966,-0.069 -0.68238,0.0939 -0.84323,0.29048 -0.39644,0.48454 -0.61258,1.10449 -0.4954,1.42094 l 0.0588,0.1587 0.12514,-0.089 c 0.0688,-0.049 0.12515,-0.11781 0.12515,-0.15299 z m -7.88354,1.94006 c -1.29479,-0.70264 -1.24744,-2.06303 0.10779,-3.09735 l 0.28451,-0.21714 0.39607,0.0383 c 0.47456,0.0458 0.63178,0.16436 0.70066,0.52815 l 0.0517,0.27314 -0.36043,0.21401 c -0.41717,0.24769 -0.63279,0.57656 -0.63279,0.96517 v 0.27374 l 0.28726,0.15078 c 0.36923,0.19381 0.98335,0.1471 1.63852,-0.12464 0.52831,-0.21912 0.6876,-0.19931 0.82252,0.10226 l 0.0941,0.21026 -0.36601,0.27959 c -0.57781,0.44137 -1.09643,0.6234 -1.85765,0.652 l -0.66289,0.0249 z m 0.72683,-4.67811 c -0.83942,-0.13014 -1.01194,-0.82665 -0.2846,-1.14902 l 0.24301,-0.10771 0.33448,0.13258 c 0.18396,0.0729 0.42145,0.20501 0.52774,0.29355 0.1063,0.0885 0.33248,0.26469 0.50262,0.39143 l 0.30935,0.23045 -0.17157,0.1132 c -0.0944,0.0623 -0.29992,0.1132 -0.45679,0.1132 -0.15688,0 -0.3382,0.0129 -0.40294,0.0286 -0.0647,0.0158 -0.33533,-0.005 -0.6013,-0.0463 z"
       style="fill:#000000"
       id="path1" />
  </g>
</svg>
