<?xml version="1.0" encoding="UTF-8" standalone="no"?>
<!-- Created with Inkscape (http://www.inkscape.org/) -->

<svg
   width="24.125185mm"
   height="8.8866243mm"
   viewBox="0 0 24.125185 8.8866243"
   version="1.1"
   id="svg1"
   inkscape:version="1.3.2 (091e20e, 2023-11-25)"
   sodipodi:docname="zpolar1.svg"
   xmlns:inkscape="http://www.inkscape.org/namespaces/inkscape"
   xmlns:sodipodi="http://sodipodi.sourceforge.net/DTD/sodipodi-0.dtd"
   xmlns="http://www.w3.org/2000/svg"
   xmlns:svg="http://www.w3.org/2000/svg">
  <sodipodi:namedview
     id="namedview1"
     pagecolor="#ffffff"
     bordercolor="#000000"
     borderopacity="0.25"
     inkscape:showpageshadow="2"
     inkscape:pageopacity="0.0"
     inkscape:pagecheckerboard="0"
     inkscape:deskcolor="#d1d1d1"
     inkscape:document-units="mm"
     inkscape:zoom="0.2102413"
     inkscape:cx="47.564393"
     inkscape:cy="19.025757"
     inkscape:window-width="1312"
     inkscape:window-height="449"
     inkscape:window-x="0"
     inkscape:window-y="38"
     inkscape:window-maximized="0"
     inkscape:current-layer="layer1" />
  <defs
     id="defs1" />
  <g
     inkscape:label="Layer 1"
     inkscape:groupmode="layer"
     id="layer1"
     transform="translate(-92.436815,-143.98261)">
    <path
       d="m 99.417433,152.75818 c -2.62811,-0.62676 -3.050187,-3.40242 -0.75016,-4.93318 0.27845,-0.18532 0.557832,-0.33694 0.62085,-0.33694 0.06302,0 0.127837,-0.0325 0.144041,-0.0723 0.0162,-0.0397 0.320807,-0.11335 0.676896,-0.16356 l 0.64743,-0.0913 0.462,0.12482 c 0.64291,0.1737 0.94721,0.46351 0.96733,0.92128 l 0.0158,0.35847 -0.41188,0.31963 c -0.42431,0.32928 -1.88865,0.85876 -2.143335,0.77499 -0.06533,-0.0215 -0.2872,-0.007 -0.493046,0.033 -0.264687,0.051 -0.410202,0.0465 -0.497004,-0.0152 l -0.122739,-0.0873 -0.01097,0.25547 c -0.05354,1.24733 0.187727,1.63623 1.227083,1.97787 l 0.507411,0.16679 0.79547,-0.0143 c 0.57864,-0.0104 0.96157,-0.064 1.40486,-0.19651 0.64986,-0.19429 0.98351,-0.17962 1.15156,0.0506 l 0.0951,0.13037 -0.30617,0.20586 c -0.88031,0.59192 -2.78916,0.87551 -3.980537,0.59139 z m 0.646287,-4.25801 c 0.54421,-0.1474 0.70621,-0.25827 0.6291,-0.43051 -0.0918,-0.20499 -0.48818,-0.14591 -0.943941,0.14067 -0.655997,0.4125 -0.538249,0.5209 0.314841,0.28984 z m -7.019372,4.08883 c -0.338491,-0.0771 -0.39903,-0.58222 -0.564163,-4.70725 l -0.04337,-1.08352 0.153749,-0.14035 c 0.401915,-0.3669 1.258572,-0.12999 1.258572,0.34806 v 0.19967 l 0.448208,-0.39026 c 1.259067,-1.09628 2.542519,-0.84807 2.911493,0.56306 l 0.09526,0.36431 -0.202825,0.15755 c -0.111553,0.0866 -0.324963,0.16764 -0.474244,0.17997 l -0.27142,0.0224 -0.326086,-0.42093 c -0.450883,-0.58203 -0.791963,-0.48805 -1.221645,0.3366 -0.09769,0.18749 -0.241168,0.46021 -0.318837,0.60603 -0.10793,0.20265 -0.146893,0.5687 -0.165299,1.55296 -0.03614,1.93249 -0.122558,2.25483 -0.624258,2.32843 -0.136443,0.02 -0.307739,0.0542 -0.380657,0.076 -0.07292,0.0218 -0.19643,0.025 -0.274469,0.007 z m 19.041092,-3.06534 c -0.72112,-0.10971 -1.27774,-0.49103 -1.6333,-1.11888 l -0.1974,-0.34857 -0.005,-0.87117 -0.005,-0.87117 0.27501,-0.4924 c 0.15125,-0.27082 0.36423,-0.57763 0.47329,-0.68179 0.10906,-0.10416 0.26883,-0.26541 0.35504,-0.35832 0.0862,-0.0929 0.37039,-0.2622 0.63152,-0.37618 l 0.47479,-0.20723 0.85732,-0.003 c 0.57164,-0.002 0.89415,0.029 0.96783,0.0921 0.0608,0.0521 0.19203,0.0948 0.29168,0.095 0.36517,5.7e-4 1.34569,0.69417 1.68629,1.19284 0.0925,0.13541 0.1922,0.2462 0.22159,0.2462 0.0294,0 0.0601,0.33237 0.0682,0.7386 l 0.0147,0.7386 -0.23959,0.40677 c -0.73406,1.24628 -2.63482,2.06197 -4.23688,1.81822 z m 1.67682,-1.15913 c 0.87371,-0.49376 1.49554,-1.09202 1.4326,-1.37829 -0.0172,-0.0782 -0.0343,-0.16773 -0.038,-0.19906 -0.004,-0.0313 -0.32707,-0.0376 -0.71857,-0.0138 -0.75907,0.046 -2.28191,-0.0786 -2.42147,-0.19817 -0.48819,-0.41817 -0.69045,0.63583 -0.26867,1.39999 0.37827,0.68532 1.20696,0.84552 2.01412,0.38937 z m 0.89111,-2.60411 c 0.0776,-0.10763 -0.5864,-0.60168 -0.87325,-0.64972 -0.3099,-0.0519 -1.06063,0.24095 -1.06063,0.41375 0,0.19795 1.80268,0.41792 1.93388,0.23597 z m -9.80021,3.62497 c -0.98907,-0.35064 -0.95096,-2.08852 0.0676,-3.0828 0.29433,-0.28732 0.56325,-0.32291 0.92984,-0.12304 0.47641,0.25973 0.49613,0.49433 0.0712,0.8473 -0.34837,0.2894 -0.46543,0.64188 -0.41462,1.24852 0.0242,0.28874 0.82132,0.10302 1.34954,-0.31443 0.12973,-0.10253 0.27439,-0.16602 0.32147,-0.14108 0.0471,0.0249 0.0801,-0.009 0.0735,-0.0758 -0.007,-0.0666 0.0943,-0.19029 0.22425,-0.27484 l 0.23637,-0.15372 0.26956,0.18095 c 0.99996,0.67128 -1.79817,2.3606 -3.12872,1.88891 z m 0.52898,-4.49759 c -0.39484,-0.48315 0.49982,-1.21442 0.93541,-0.76457 0.0572,0.0591 0.15879,0.10741 0.22576,0.10741 0.067,0 0.12781,0.0597 0.13522,0.13257 0.007,0.0729 0.0195,0.1837 0.0269,0.24619 0.0252,0.21191 -0.292,0.38653 -0.75062,0.41326 l -0.44148,0.0257 z"
       style="fill:#000000"
       id="path1" />
  </g>
</svg>
