<?xml version="1.0" encoding="UTF-8" standalone="no"?>
<!-- Created with Inkscape (http://www.inkscape.org/) -->

<svg
   width="24.220041mm"
   height="9.9083796mm"
   viewBox="0 0 24.220041 9.9083796"
   version="1.1"
   id="svg1"
   inkscape:version="1.3.2 (091e20e, 2023-11-25)"
   sodipodi:docname="zrect.svg"
   xmlns:inkscape="http://www.inkscape.org/namespaces/inkscape"
   xmlns:sodipodi="http://sodipodi.sourceforge.net/DTD/sodipodi-0.dtd"
   xmlns="http://www.w3.org/2000/svg"
   xmlns:svg="http://www.w3.org/2000/svg">
  <sodipodi:namedview
     id="namedview1"
     pagecolor="#ffffff"
     bordercolor="#000000"
     borderopacity="0.25"
     inkscape:showpageshadow="2"
     inkscape:pageopacity="0.0"
     inkscape:pagecheckerboard="0"
     inkscape:deskcolor="#d1d1d1"
     inkscape:document-units="mm"
     inkscape:zoom="0.2102413"
     inkscape:cx="47.564393"
     inkscape:cy="19.025757"
     inkscape:window-width="1312"
     inkscape:window-height="449"
     inkscape:window-x="0"
     inkscape:window-y="38"
     inkscape:window-maximized="0"
     inkscape:current-layer="layer1" />
  <defs
     id="defs1" />
  <g
     inkscape:label="Layer 1"
     inkscape:groupmode="layer"
     id="layer1"
     transform="translate(-92.405979,-143.46456)">
    <path
       d="m 111.08342,153.28403 -0.15732,-0.0986 0.34888,-0.32495 c 0.19188,-0.17872 0.43192,-0.39584 0.5334,-0.48249 0.10149,-0.0866 0.32846,-0.34503 0.50439,-0.57419 0.17592,-0.22915 0.40321,-0.50941 0.50509,-0.6228 0.65839,-0.73276 1.584,-2.77481 0.97064,-2.14138 -0.0601,0.062 -0.18155,0.1128 -0.26995,0.1128 -0.0884,0 -0.18822,0.0381 -0.2218,0.0847 -0.28422,0.39415 -2.33578,-0.61718 -2.33578,-1.15144 0,-0.075 -0.04,-0.15755 -0.0889,-0.18345 -0.11342,-0.0601 -0.0412,-1.35337 0.10998,-1.96862 l 0.11148,-0.45379 0.25806,-0.10571 c 0.19049,-0.078 0.36351,-0.0881 0.66081,-0.0386 l 0.40274,0.0671 0.19329,0.29643 c 0.1468,0.22515 0.17389,0.34014 0.11267,0.47815 -0.12028,0.27116 -0.20114,1.17691 -0.13289,1.4887 0.0831,0.37965 0.34686,0.42423 1.05185,0.17779 0.30083,-0.10517 0.61539,-0.21019 0.69901,-0.2334 0.0836,-0.0232 0.1694,-0.12036 0.19061,-0.21589 0.31084,-1.39964 0.52884,-1.87177 0.87135,-1.88713 0.54994,-0.0247 0.82949,0.0588 1.03816,0.30998 l 0.18683,0.22488 -0.12463,0.51612 c -0.0686,0.28386 -0.18535,0.61722 -0.25955,0.7408 -0.0742,0.12357 -0.20266,0.51444 -0.28544,0.86859 -0.0828,0.35415 -0.22641,0.79312 -0.31915,0.97549 -0.0927,0.18237 -0.16863,0.38861 -0.16863,0.45831 0,0.0697 -0.0473,0.16729 -0.10517,0.21687 -0.0579,0.0496 -0.11324,0.13729 -0.12311,0.19492 -0.10705,0.62517 -1.80664,2.6041 -2.72674,3.17493 -0.31072,0.19276 -1.18238,0.2512 -1.4302,0.0959 z m -10.49286,-3.50016 c -0.0193,-0.0166 -0.12715,-0.0453 -0.23953,-0.0639 -0.30635,-0.0506 -0.367061,-0.14022 -0.25936,-0.38301 0.11262,-0.25388 0.35139,-1.19451 0.35139,-1.38429 0,-0.0992 -0.13552,-0.15131 -0.582838,-0.22404 -0.320564,-0.0521 -0.641592,-0.14512 -0.713401,-0.20666 -0.0718,-0.0615 -0.166467,-0.1119 -0.210359,-0.1119 -0.128755,0 -0.361345,-0.43931 -0.260787,-0.49257 0.04843,-0.0256 0.08806,-0.10753 0.08806,-0.18194 0,-0.37667 0.79135,-0.53409 1.531565,-0.30468 0.43659,0.13531 0.44763,0.11301 0.45267,-0.91506 l 0.004,-0.90445 0.17807,-0.15261 c 0.0995,-0.0852 0.35606,-0.17352 0.58134,-0.19999 l 0.40328,-0.0474 0.21413,0.17923 c 0.36892,0.30878 0.40821,0.44448 0.39671,1.3701 -0.0115,0.92121 0.005,0.96394 0.37706,0.96994 0.0811,0.001 0.21679,0.0841 0.30154,0.18404 l 0.15409,0.18165 -0.24248,0.16123 c -0.13336,0.0887 -0.40581,0.25819 -0.60544,0.37672 -0.28481,0.1691 -0.37552,0.27826 -0.42128,0.50697 -0.16634,0.83132 -1.16653,1.92742 -1.49887,1.64259 z m 5.23472,-0.20023 c -0.53806,-0.21953 -0.67441,-0.32423 -0.90023,-0.69129 l -0.18954,-0.30808 0.003,-0.76325 0.003,-0.76324 0.31632,-0.53365 c 0.65863,-1.11116 1.38182,-1.38654 2.03403,-0.77451 0.31355,0.29423 0.31211,0.30607 -0.102,0.83758 -0.85345,1.09539 -0.76071,2.56065 0.11458,1.81045 0.0504,-0.0432 0.1831,-0.0785 0.2949,-0.0785 0.11181,0 0.20329,-0.0341 0.20329,-0.0757 0,-0.14878 0.34383,-0.0724 0.51535,0.11453 0.16537,0.18019 0.17209,0.4915 0.0106,0.4915 -0.0397,0 -0.10004,0.0754 -0.13417,0.16757 -0.21607,0.58348 -1.38138,0.88795 -2.16882,0.56667 z m -8.555481,-0.088 -0.300728,-0.0932 -0.514407,-0.86362 c -0.282922,-0.47498 -0.531086,-0.8977 -0.551477,-0.93936 -0.02038,-0.0417 -0.228347,0.11173 -0.462123,0.34089 -1.383177,1.35584 -1.785398,1.59052 -2.447885,1.42823 -0.72248,-0.17698 -0.767648,-0.33329 -0.194053,-0.67154 0.503383,-0.29683 0.679711,-0.45662 1.127647,-1.02183 0.198119,-0.24999 0.388478,-0.47157 0.423026,-0.4924 0.133355,-0.0804 0.613351,-0.84706 0.613351,-0.97964 0,-0.14927 -0.517534,-0.84552 -0.82855,-1.11469 -0.765627,-0.66258 -0.878315,-0.92674 -0.517574,-1.21328 0.653551,-0.51913 1.203054,-0.35702 1.903383,0.56153 0.506115,0.66382 0.484004,0.66224 0.812719,0.0578 0.145836,-0.26817 0.294985,-0.48889 0.331444,-0.49049 0.03646,-0.002 0.06629,-0.0527 0.06629,-0.11358 0,-0.4041 1.092622,-0.58859 1.46785,-0.24784 0.301039,0.27337 0.337481,0.48314 0.124894,0.71892 -1.511638,1.67662 -1.590987,1.85748 -1.152995,2.62805 0.156421,0.27519 0.26211,0.55015 0.234858,0.61102 -0.02726,0.0609 -0.0091,0.10254 0.0404,0.0926 0.123541,-0.0248 0.522831,0.79778 0.605901,1.24817 l 0.06798,0.36856 -0.220243,0.14848 c -0.246447,0.16615 -0.218904,0.16452 -0.629709,0.0372 z m 9.359031,-4.6476 c -1.1048,-0.42513 -0.80751,-1.45143 0.36235,-1.25089 0.29897,0.0512 0.87686,0.50812 0.87493,0.69171 -0.004,0.38945 -0.77404,0.73743 -1.23728,0.55918 z"
       style="fill:#000000"
       id="path1" />
  </g>
</svg>
