<?xml version="1.0" encoding="UTF-8" standalone="no"?>
<!-- Created with Inkscape (http://www.inkscape.org/) -->

<svg
   width="29.128448mm"
   height="13.228547mm"
   viewBox="0 0 29.128448 13.228547"
   version="1.1"
   id="svg1"
   inkscape:version="1.3.2 (091e20e, 2023-11-25)"
   sodipodi:docname="zrotatephi.svg"
   xmlns:inkscape="http://www.inkscape.org/namespaces/inkscape"
   xmlns:sodipodi="http://sodipodi.sourceforge.net/DTD/sodipodi-0.dtd"
   xmlns="http://www.w3.org/2000/svg"
   xmlns:svg="http://www.w3.org/2000/svg">
  <sodipodi:namedview
     id="namedview1"
     pagecolor="#ffffff"
     bordercolor="#000000"
     borderopacity="0.25"
     inkscape:showpageshadow="2"
     inkscape:pageopacity="0.0"
     inkscape:pagecheckerboard="0"
     inkscape:deskcolor="#d1d1d1"
     inkscape:document-units="mm"
     inkscape:zoom="0.2102413"
     inkscape:cx="57.077272"
     inkscape:cy="23.782197"
     inkscape:window-width="1312"
     inkscape:window-height="449"
     inkscape:window-x="0"
     inkscape:window-y="38"
     inkscape:window-maximized="0"
     inkscape:current-layer="layer1" />
  <defs
     id="defs1" />
  <g
     inkscape:label="Layer 1"
     inkscape:groupmode="layer"
     id="layer1"
     transform="translate(-89.954977,-141.88988)">
    <path
       d="m 94.816197,155.05661 c -0.26737,-0.0368 -0.66511,-0.0823 -0.88386,-0.10098 -2.60373,-0.22269 -3.32441,-0.92948 -2.31736,-2.27269 0.12896,-0.17201 0.30546,-0.42353 0.39223,-0.55894 0.17457,-0.27245 0.1852,-0.26689 -0.47362,-0.24776 -0.82354,0.0239 -1.57861,-0.30078 -1.57861,-0.67881 0,-0.23565 0.59794,-0.60216 0.92805,-0.56885 0.0972,0.01 0.60373,0.0592 1.12557,0.10982 l 0.9488,0.092 0.11764,-0.10126 c 0.36118,-0.31091 0.93501,-1.15834 0.83968,-1.24005 -0.0628,-0.0538 -1.37453,-0.056 -1.47559,-0.002 -0.33907,0.17961 -1.51191,-0.30264 -1.51191,-0.62166 0,-0.14109 0.4059,-0.47182 0.57907,-0.47182 0.0704,0 0.12802,-0.033 0.12802,-0.0734 0,-0.13968 3.54419,0.1577 3.79514,0.31844 0.26257,0.16817 0.35898,0.31515 0.35813,0.5459 -0.001,0.24347 -0.35687,0.9736 -0.51567,1.05772 -0.10557,0.0559 -0.65465,0.73639 -0.61454,0.76159 0.0144,0.009 0.20523,0.0753 0.42398,0.14723 1.00356,0.32988 1.59781,0.80142 1.2453,0.98814 -0.15919,0.0843 -1.43805,0.0214 -1.90819,-0.0939 -0.45765,-0.11222 -0.65628,-0.0141 -0.95854,0.47335 -0.15337,0.24736 -0.32533,0.49387 -0.38212,0.54779 -0.56588,0.5373 -0.13859,0.79379 1.55809,0.93529 0.56098,0.0468 1.05776,0.11652 1.10394,0.15497 0.0462,0.0384 0.14123,0.0699 0.21122,0.0699 0.1678,0 0.36137,0.22485 0.36489,0.42385 0.007,0.3768 -0.57369,0.53415 -1.49974,0.40659 z m 5.391533,0.03 c -2.921803,-0.31934 -4.224853,-2.60335 -2.362133,-4.14041 1.4292,-1.17934 3.325003,-1.51079 4.819353,-0.84261 0.1312,0.0587 0.34792,0.10688 0.4816,0.10713 0.13369,2.6e-4 0.24306,0.0306 0.24306,0.0674 0,0.0368 0.0746,0.0836 0.1658,0.10408 0.52111,0.1168 0.19083,0.94246 -0.44775,1.11933 -0.20952,0.058 -0.65936,0.21411 -0.99964,0.34683 -0.34028,0.13273 -0.97666,0.35007 -1.41417,0.48298 l -0.795473,0.24165 -0.47662,-0.0402 c -0.26214,-0.0221 -0.51868,-0.0763 -0.57009,-0.12034 -0.26587,-0.22787 -0.30506,0.0306 -0.0975,0.64263 0.25873,0.7628 0.96617,1.12261 2.204793,1.12137 l 0.79548,-8e-4 0.6187,-0.21471 c 0.34028,-0.1181 0.69715,-0.26013 0.79304,-0.31563 0.22165,-0.12829 0.58598,-0.12946 0.78852,-0.002 l 0.15699,0.0984 -0.19477,0.28293 c -0.50552,0.73434 -2.21959,1.22535 -3.70923,1.06254 z m 0.63568,-4.11596 c 0.20511,-0.0787 0.40001,-0.12876 0.43312,-0.11122 0.0331,0.0175 0.11414,-0.0238 0.18009,-0.0919 l 0.1199,-0.12383 -0.52818,0.0566 c -0.48949,0.0524 -1.295203,0.32948 -1.406343,0.4836 -0.0726,0.10072 0.775653,-0.0498 1.201413,-0.21317 z m 11.2054,0.82969 -0.19075,-0.12332 0.0625,-0.42904 c 0.0351,-0.24074 0.0995,-0.40946 0.14679,-0.38442 0.0463,0.0245 0.0722,-0.001 0.0576,-0.0577 -0.0147,-0.0563 0.0224,-0.21309 0.0825,-0.3485 0.06,-0.13541 0.1535,-0.34803 0.20776,-0.4725 0.0543,-0.12446 0.13334,-0.20791 0.17575,-0.18545 0.0424,0.0225 0.0566,-0.005 0.0314,-0.0611 -0.0251,-0.0561 0.0151,-0.24964 0.0894,-0.4301 0.16671,-0.40498 0.16786,-0.46057 0.01,-0.46057 -0.17842,0 -1.07913,-0.7234 -1.23576,-0.9925 -0.7481,-1.28529 0.44671,-3.84983 2.20512,-4.73306 l 0.37798,-0.18985 1.11835,-0.008 1.11834,-0.008 0.44897,-0.37089 c 0.74103,-0.61216 1.37114,-0.79134 1.952,-0.5551 0.52005,0.21151 0.48278,0.78582 -0.0615,0.94845 -0.66325,0.19817 -1.14745,0.79149 -0.84033,1.02971 0.93202,0.72292 1.65411,3.00173 1.06572,3.36324 -0.0353,0.0217 -0.14217,0.14633 -0.23753,0.277 -0.55654,0.76264 -2.58941,1.60614 -3.89397,1.61573 -0.33208,0.002 -0.65449,0.16734 -0.65449,0.33474 0,0.0302 -0.0773,0.20037 -0.17171,0.37805 -0.18713,0.35206 -0.3687,0.75741 -0.63903,1.4266 -0.11698,0.28959 -0.23459,0.44858 -0.35631,0.48169 -0.34873,0.0949 -0.67908,0.0779 -0.86843,-0.0445 z m 4.02199,-3.9356 c 0.5673,-0.2443 0.80358,-0.40517 1.26166,-0.85895 l 0.28726,-0.28456 -0.001,-0.35719 c -0.002,-0.52716 -0.53343,-1.71951 -0.7402,-1.66044 -0.10834,0.031 -0.21722,0.19603 -0.93455,1.41687 -0.30601,0.52081 -0.63081,1.07088 -0.72177,1.22238 -0.091,0.1515 -0.16538,0.3263 -0.16538,0.38844 0,0.0621 -0.0592,0.1551 -0.13161,0.20659 -0.44717,0.31808 0.35656,0.26679 1.14588,-0.0731 z m -2.56102,-0.30494 c 0.0318,-0.12404 0.0945,-0.24497 0.13938,-0.26874 0.0449,-0.0238 0.0816,-0.0944 0.0816,-0.15687 0,-0.0625 0.15486,-0.39287 0.34413,-0.73413 0.18927,-0.34126 0.41203,-0.75684 0.49502,-0.92349 0.083,-0.16666 0.34559,-0.63539 0.58355,-1.04162 l 0.43266,-0.7386 h -0.21749 c -0.11961,0 -0.25557,0.061 -0.30213,0.13557 -0.0466,0.0746 -0.19711,0.18408 -0.33455,0.24339 -1.44454,0.62326 -2.36324,2.6655 -1.60801,3.57454 0.20657,0.24864 0.30495,0.22568 0.38586,-0.09 z m -7.11505,1.43646 c -1.82184,-0.31291 -2.20136,-2.06252 -0.81277,-3.74696 0.578,-0.70114 1.46005,-0.80829 1.77511,-0.21563 l 0.098,0.18431 -0.17371,0.29184 c -0.0955,0.16051 -0.22473,0.33964 -0.2871,0.39808 -0.92844,0.86996 -0.71724,2.41269 0.24899,1.8188 0.9687,-0.59541 1.61899,-0.44685 1.31219,0.29978 -0.28125,0.68442 -1.26123,1.12426 -2.16069,0.96978 z m 0.57451,-5.55921 c -0.98903,-0.37994 -0.91277,-1.108 0.11541,-1.10175 0.73146,0.004 1.38881,0.76116 0.97173,1.11863 -0.14039,0.12034 -0.75479,0.11079 -1.08714,-0.0169 z"
       style="fill:#000000"
       id="path1" />
  </g>
</svg>
