<?xml version="1.0" encoding="UTF-8" standalone="no"?>
<!-- Created with Inkscape (http://www.inkscape.org/) -->

<svg
   width="8.6180334mm"
   height="12.879172mm"
   viewBox="0 0 8.6180334 12.879172"
   version="1.1"
   id="svg1"
   inkscape:version="1.3.2 (091e20e, 2023-11-25)"
   sodipodi:docname="zsquiggle.svg"
   xmlns:inkscape="http://www.inkscape.org/namespaces/inkscape"
   xmlns:sodipodi="http://sodipodi.sourceforge.net/DTD/sodipodi-0.dtd"
   xmlns="http://www.w3.org/2000/svg"
   xmlns:svg="http://www.w3.org/2000/svg">
  <sodipodi:namedview
     id="namedview1"
     pagecolor="#ffffff"
     bordercolor="#000000"
     borderopacity="0.25"
     inkscape:showpageshadow="2"
     inkscape:pageopacity="0.0"
     inkscape:pagecheckerboard="0"
     inkscape:deskcolor="#d1d1d1"
     inkscape:document-units="mm"
     inkscape:zoom="4.7572176"
     inkscape:cx="-20.600277"
     inkscape:cy="28.377933"
     inkscape:window-width="1920"
     inkscape:window-height="1027"
     inkscape:window-x="1728"
     inkscape:window-y="25"
     inkscape:window-maximized="1"
     inkscape:current-layer="layer1" />
  <defs
     id="defs1" />
  <g
     inkscape:label="Layer 1"
     inkscape:groupmode="layer"
     id="layer1"
     transform="translate(-100.03047,-142.04193)">
    <path
       d="m 106.87865,154.84463 c -0.0313,-0.0434 -0.13496,-0.0576 -0.23042,-0.0316 -0.0955,0.026 -0.22799,0.008 -0.2945,-0.0388 -0.0665,-0.0473 -0.4524,-0.11599 -0.85752,-0.15264 -3.13544,-0.28358 -4.00209,-0.8359 -3.42213,-2.18094 0.30922,-0.71714 0.30904,-0.807 -0.002,-0.99679 l -0.27345,-0.16688 v -0.3649 -0.3649 l 0.2008,-0.11276 c 0.27212,-0.15282 0.91336,-0.24156 0.98887,-0.13684 0.11108,0.15404 0.8636,0.0701 1.08685,-0.12127 0.11303,-0.0969 0.41269,-0.28996 0.66592,-0.42908 0.54203,-0.29779 0.73171,-0.46969 0.59699,-0.54105 -0.14024,-0.0743 -1.63283,-0.19397 -1.96601,-0.15764 -0.75489,0.0823 -1.48503,-0.33432 -1.48503,-0.84738 v -0.28834 l 0.28725,-0.13121 c 0.35018,-0.15996 0.57346,-0.17022 1.2595,-0.0579 0.29167,0.0478 0.84971,0.13332 1.24007,0.19015 1.35132,0.19672 2.51952,0.75333 2.51438,1.19803 -0.005,0.40841 -0.97353,1.49362 -1.3334,1.49362 -0.0434,0 -0.0788,0.0341 -0.0788,0.0758 0,0.0417 0.0801,0.0757 0.17797,0.0757 0.0979,0 0.24703,0.0321 0.33144,0.0712 0.0844,0.0392 0.33538,0.12674 0.5577,0.19457 1.03346,0.31529 1.60039,0.96647 1.04732,1.20295 -0.26714,0.11422 -0.60491,0.08 -1.71302,-0.17344 -0.38688,-0.0885 -0.96359,-0.18101 -1.28159,-0.2056 l -0.57819,-0.0447 -0.22778,0.21609 c -0.12527,0.11885 -0.28019,0.35942 -0.34425,0.53459 l -0.11649,0.31849 0.14292,0.18694 c 0.10354,0.13544 0.2714,0.20826 0.60941,0.26436 1.08962,0.18084 1.46192,0.23563 1.85864,0.27354 0.53697,0.0513 1.04272,0.23938 1.23685,0.45997 l 0.1523,0.17306 -0.13233,0.27145 c -0.0728,0.1493 -0.19146,0.27145 -0.26372,0.27145 -0.0723,0 -0.1314,0.0341 -0.1314,0.0757 0,0.0995 -0.15072,0.0974 -0.22318,-0.003 z m -2.31305,-8.93458 c -0.23699,-0.0715 -0.51528,-0.16877 -0.61844,-0.21608 -0.2812,-0.12899 -1.08784,-0.93255 -1.08784,-1.08369 0,-0.0726 -0.0398,-0.15299 -0.0884,-0.17874 -0.0486,-0.0257 -0.0896,-0.1215 -0.0912,-0.21279 l -0.003,-0.16598 -0.21817,0.21255 c -0.11999,0.1169 -0.21817,0.26406 -0.21817,0.32701 0,0.10766 -0.33187,0.53369 -0.61239,0.78614 -0.19854,0.17867 -0.87553,0.14498 -1.26581,-0.063 -0.435488,-0.23206 -0.441605,-0.47732 -0.0217,-0.86921 0.16991,-0.15856 0.30893,-0.30411 0.30893,-0.32345 0,-0.11525 0.46283,-0.63606 0.53247,-0.59917 0.0463,0.0245 0.0642,-1.5e-4 0.0397,-0.0548 -0.0603,-0.13473 0.88598,-1.2472 1.16902,-1.37431 0.38095,-0.17107 1.55423,0.11088 1.39283,0.3347 -0.0294,0.0408 0.006,0.2183 0.0784,0.39438 0.0725,0.17609 0.23972,0.61667 0.37153,0.97905 0.14351,0.39454 0.32331,0.72624 0.44814,0.82675 l 0.20848,0.16786 0.2897,-0.13371 c 0.53079,-0.245 0.65766,-0.36761 1.45512,-1.40615 0.20795,-0.27083 0.37817,-0.52864 0.37827,-0.57292 3.4e-4,-0.20908 0.54031,-0.52273 0.88631,-0.51495 0.71529,0.0161 0.90597,0.26072 0.62488,0.80176 -0.0926,0.17819 -0.23993,0.47738 -0.32746,0.66488 -0.13642,0.29226 -0.42778,0.69468 -1.00675,1.39056 -0.6467,0.77729 -1.74802,1.14795 -2.62463,0.88336 z"
       style="fill:#000000"
       id="path1" />
  </g>
</svg>
