<?xml version="1.0" encoding="UTF-8" standalone="no"?>
<!-- Created with Inkscape (http://www.inkscape.org/) -->

<svg
   width="13.602451mm"
   height="10.582704mm"
   viewBox="0 0 13.602451 10.582704"
   version="1.1"
   id="svg1"
   inkscape:version="1.3.2 (091e20e, 2023-11-25)"
   sodipodi:docname="zsqured.svg"
   xmlns:inkscape="http://www.inkscape.org/namespaces/inkscape"
   xmlns:sodipodi="http://sodipodi.sourceforge.net/DTD/sodipodi-0.dtd"
   xmlns="http://www.w3.org/2000/svg"
   xmlns:svg="http://www.w3.org/2000/svg">
  <sodipodi:namedview
     id="namedview1"
     pagecolor="#ffffff"
     bordercolor="#000000"
     borderopacity="0.25"
     inkscape:showpageshadow="2"
     inkscape:pageopacity="0.0"
     inkscape:pagecheckerboard="0"
     inkscape:deskcolor="#d1d1d1"
     inkscape:document-units="mm"
     inkscape:zoom="0.2102413"
     inkscape:cx="23.782197"
     inkscape:cy="19.025757"
     inkscape:window-width="1312"
     inkscape:window-height="449"
     inkscape:window-x="0"
     inkscape:window-y="38"
     inkscape:window-maximized="0"
     inkscape:current-layer="layer1" />
  <defs
     id="defs1" />
  <g
     inkscape:label="Layer 1"
     inkscape:groupmode="layer"
     id="layer1"
     transform="translate(-97.630289,-143.14761)">
    <path
       d="m 101.33554,153.60674 c -0.97555,-0.18155 -1.945087,-0.73739 -2.369907,-1.35869 l -0.23792,-0.34796 0.0496,-0.56251 0.0496,-0.5625 -0.16995,-0.009 c -0.0935,-0.005 -0.20973,-0.018 -0.25834,-0.0284 -0.0486,-0.0104 -0.1465,-0.0232 -0.21752,-0.0284 -0.22267,-0.0163 -0.46639,-0.30935 -0.52685,-0.63342 -0.0916,-0.49107 0.033,-0.54878 1.20445,-0.55788 l 0.98416,-0.008 0.13964,-0.14535 c 0.0768,-0.0799 0.378277,-0.30212 0.669947,-0.49372 0.29168,-0.19161 0.64964,-0.43527 0.79548,-0.54147 0.14583,-0.10621 0.38447,-0.27824 0.53031,-0.3823 0.39063,-0.27873 0.26727,-0.30736 -1.2703,-0.29487 l -1.399197,0.0114 -0.1899,-0.15163 c -0.28077,-0.22419 -0.25635,-0.66889 0.0471,-0.8586 l 0.2315,-0.14471 1.025217,0.0125 c 4.2712,0.0522 4.91877,0.77118 2.10802,2.34039 -0.52714,0.2943 -1.12706,0.74121 -1.12691,0.83949 5e-5,0.0283 0.38784,0.0593 0.86176,0.069 1.16515,0.0237 2.09226,0.0871 2.65666,0.18161 l 0.46918,0.0786 -0.0272,0.19439 c -0.015,0.10691 -0.0869,0.22124 -0.15984,0.25405 -0.65666,0.29545 -0.7492,0.30707 -2.78415,0.34969 -2.25188,0.0472 -2.29546,0.0569 -2.22677,0.49579 0.0642,0.41047 0.26133,0.63032 0.86479,0.96461 0.6886,0.38145 0.97823,0.42565 2.46876,0.37669 0.95099,-0.0312 1.39544,0.21051 1.16926,0.63598 -0.21262,0.39995 -1.9865,0.56116 -3.36074,0.30542 z m 8.02298,-6.17935 c -1.86953,-0.33877 -2.63048,-0.78415 -2.66597,-1.56036 -0.0168,-0.36649 0.0333,-0.43664 0.44023,-0.61655 0.17899,-0.0791 0.52431,-0.29815 0.76737,-0.48666 l 0.44193,-0.34274 -0.30514,-0.22062 -0.30515,-0.22062 0.01,-0.29123 c 0.0313,-0.94629 2.13492,-0.54902 2.14423,0.40494 0.005,0.52545 -0.16427,0.74576 -1.08614,1.41247 -0.55195,0.39918 -0.432,0.65401 0.38597,0.81997 1.13528,0.23032 1.74607,0.39514 1.88334,0.50821 l 0.16355,0.13472 -0.0998,0.15984 c -0.0549,0.0879 -0.20804,0.17965 -0.34032,0.20386 -0.13228,0.0242 -0.33188,0.0757 -0.44354,0.11452 -0.23823,0.0827 -0.44763,0.0786 -0.99018,-0.0197 z"
       style="fill:#000000"
       id="path1" />
  </g>
</svg>
