<?xml version="1.0" encoding="UTF-8" standalone="no"?>
<!-- Created with Inkscape (http://www.inkscape.org/) -->

<svg
   width="11.644606mm"
   height="11.493157mm"
   viewBox="0 0 11.644606 11.493157"
   version="1.1"
   id="svg1"
   inkscape:version="1.3.2 (091e20e, 2023-11-25)"
   sodipodi:docname="zstar.svg"
   xmlns:inkscape="http://www.inkscape.org/namespaces/inkscape"
   xmlns:sodipodi="http://sodipodi.sourceforge.net/DTD/sodipodi-0.dtd"
   xmlns="http://www.w3.org/2000/svg"
   xmlns:svg="http://www.w3.org/2000/svg">
  <sodipodi:namedview
     id="namedview1"
     pagecolor="#ffffff"
     bordercolor="#000000"
     borderopacity="0.25"
     inkscape:showpageshadow="2"
     inkscape:pageopacity="0.0"
     inkscape:pagecheckerboard="0"
     inkscape:deskcolor="#d1d1d1"
     inkscape:document-units="mm"
     inkscape:zoom="0.2102413"
     inkscape:cx="23.782197"
     inkscape:cy="23.782197"
     inkscape:window-width="1312"
     inkscape:window-height="449"
     inkscape:window-x="0"
     inkscape:window-y="38"
     inkscape:window-maximized="0"
     inkscape:current-layer="layer1" />
  <defs
     id="defs1" />
  <g
     inkscape:label="Layer 1"
     inkscape:groupmode="layer"
     id="layer1"
     transform="translate(-98.540505,-142.6518)">
    <path
       d="m 103.8106,154.05274 c -0.20061,-0.0542 -0.71767,-0.13501 -1.14901,-0.17949 -1.66056,-0.17125 -2.58351,-0.40145 -3.381264,-0.84338 l -0.530462,-0.29385 -0.10468,-0.29946 -0.104679,-0.29946 0.156602,-0.42672 c 0.08613,-0.2347 0.286901,-0.60385 0.446159,-0.82033 0.323958,-0.44037 0.32205,-0.4741 -0.0302,-0.53448 -0.484645,-0.0831 -0.657166,-0.73584 -0.284369,-1.07595 l 0.206908,-0.18877 h 0.791724 0.791731 l 0.27559,-0.25705 c 0.15157,-0.14138 0.38516,-0.3731 0.51909,-0.51493 0.13392,-0.14183 0.42451,-0.4267 0.64575,-0.63305 0.22124,-0.20635 0.45842,-0.46514 0.52707,-0.57508 l 0.12481,-0.1999 -0.47525,-0.0509 c -0.26138,-0.028 -0.70757,-0.0152 -0.99152,0.0285 -0.83352,0.12826 -1.280292,0.15502 -1.806781,0.10823 l -0.495025,-0.044 -0.155289,-0.22532 c -0.194945,-0.28285 -0.130142,-0.60861 0.168221,-0.8456 l 0.219441,-0.17431 2.146553,0.0156 c 3.56365,0.0259 4.34252,0.34447 3.19553,1.30711 -0.16374,0.13741 -0.2977,0.29622 -0.2977,0.3529 0,0.0567 -0.37851,0.45558 -0.84114,0.88646 -1.01808,0.9482 -1.01807,0.95815 10e-4,1.14457 1.00267,0.18333 1.52505,0.33991 1.73535,0.52015 0.21922,0.18788 0.21305,0.44779 -0.0118,0.49819 -0.0972,0.0218 -0.17677,0.0645 -0.17677,0.095 0,0.0584 -2.13319,0.0387 -3.06964,-0.0283 l -0.55064,-0.0394 -0.13759,0.16776 c -0.46918,0.57209 -0.57893,0.71755 -0.66959,0.88744 -0.14523,0.27215 -0.25124,0.68768 -0.16359,0.64125 0.041,-0.0217 0.11478,0.025 0.164,0.10386 0.13678,0.21905 0.9987,0.4506 2.17321,0.5838 2.88658,0.32739 2.95504,0.34857 2.95962,0.91549 0.003,0.33419 -1.04607,0.50306 -1.82181,0.29335 z m 3.36465,-6.86298 c -0.0329,-0.0456 -0.19322,-0.0696 -0.35623,-0.0533 -0.31724,0.0317 -0.38983,-0.0364 -0.38983,-0.36589 0,-0.10505 -0.0975,-0.25984 -0.22275,-0.35363 l -0.22275,-0.16682 0.0888,-0.26051 0.0888,-0.2605 -0.24168,-0.33537 c -0.13292,-0.18445 -0.29277,-0.40811 -0.35521,-0.49703 -0.23487,-0.33442 0.15547,-1.03239 0.57756,-1.03275 0.0608,-5e-5 0.11048,-0.0314 0.11048,-0.0697 0,-0.0383 0.14099,-0.18315 0.31331,-0.32195 0.21198,-0.17075 0.2992,-0.29918 0.26969,-0.39717 -0.0607,-0.20151 0.0969,-0.42334 0.30078,-0.42334 0.19754,0 0.61878,0.48948 0.61878,0.71903 0,0.0845 0.0795,0.19615 0.17677,0.24819 0.0972,0.052 0.17677,0.16251 0.17677,0.24549 0,0.19966 0.16614,0.19028 0.63008,-0.0356 0.25133,-0.12236 0.45527,-0.17089 0.59331,-0.14119 l 0.21033,0.0452 -0.056,-0.15113 c -0.0324,-0.0876 -0.006,-0.18642 0.062,-0.23502 0.15508,-0.11032 0.75729,0.40663 0.61538,0.52825 -0.062,0.0531 -0.10947,0.0517 -0.15007,-0.005 -0.0327,-0.0453 -0.12363,-0.0824 -0.20215,-0.0824 h -0.14277 l 0.19218,0.17533 c 0.33257,0.30341 0.25246,0.45322 -0.5591,1.0455 -0.92611,0.67588 -0.92201,0.64084 -0.12587,1.07626 0.47248,0.25841 0.87715,0.69143 0.87715,0.93862 v 0.18116 l -0.53054,-0.0164 c -0.29179,-0.009 -0.55635,0.006 -0.5879,0.0328 -0.0315,0.0271 -0.25121,-0.0702 -0.48812,-0.21606 l -0.43075,-0.26524 -0.0554,0.13381 c -0.1417,0.3422 -0.62567,0.53698 -0.78505,0.31595 z"
       style="fill:#000000"
       id="path1" />
  </g>
</svg>
