<?xml version="1.0" encoding="UTF-8" standalone="no"?>
<!-- Created with Inkscape (http://www.inkscape.org/) -->

<svg
   width="17.631382mm"
   height="6.3958788mm"
   viewBox="0 0 17.631382 6.3958788"
   version="1.1"
   id="svg1"
   inkscape:version="1.3.2 (091e20e, 2023-11-25)"
   sodipodi:docname="ztimesw.svg"
   xmlns:inkscape="http://www.inkscape.org/namespaces/inkscape"
   xmlns:sodipodi="http://sodipodi.sourceforge.net/DTD/sodipodi-0.dtd"
   xmlns="http://www.w3.org/2000/svg"
   xmlns:svg="http://www.w3.org/2000/svg">
  <sodipodi:namedview
     id="namedview1"
     pagecolor="#ffffff"
     bordercolor="#000000"
     borderopacity="0.25"
     inkscape:showpageshadow="2"
     inkscape:pageopacity="0.0"
     inkscape:pagecheckerboard="0"
     inkscape:deskcolor="#d1d1d1"
     inkscape:document-units="mm"
     inkscape:zoom="0.2102413"
     inkscape:cx="33.295075"
     inkscape:cy="14.269318"
     inkscape:window-width="1312"
     inkscape:window-height="449"
     inkscape:window-x="0"
     inkscape:window-y="38"
     inkscape:window-maximized="0"
     inkscape:current-layer="layer1" />
  <defs
     id="defs1" />
  <g
     inkscape:label="Layer 1"
     inkscape:groupmode="layer"
     id="layer1"
     transform="translate(-95.627253,-145.31109)">
    <path
       d="m 97.818383,151.59285 c -1.70969,-0.39414 -2.31608,-1.24589 -1.59159,-2.2356 0.31493,-0.43023 0.31747,-0.40497 -0.056,-0.55685 -0.62248,-0.25317 -0.72023,-0.68287 -0.24182,-1.06308 l 0.24127,-0.19174 0.57528,0.0392 c 0.3164,0.0216 0.63511,0.0554 0.70825,0.0751 0.16261,0.0438 1.37323,-0.98885 1.24124,-1.05877 -0.0497,-0.0263 -0.31957,-0.0264 -0.59971,-2.1e-4 l -0.50935,0.0477 -0.39168,-0.17971 c -0.50311,-0.23085 -0.61378,-0.47939 -0.38902,-0.87363 l 0.162,-0.28417 1.076,0.015 c 2.965897,0.0414 3.693437,1.01845 1.70926,2.29549 -0.59812,0.38495 -0.65316,0.50169 -0.35643,0.75601 l 0.17499,0.14998 -0.19166,0.15304 c -0.10541,0.0842 -0.31342,0.1535 -0.46224,0.15407 -0.14883,5.7e-4 -0.35998,0.0216 -0.46923,0.0467 -0.25568,0.0587 -0.90618,0.90698 -0.90618,1.18165 v 0.20794 l 0.32014,0.11465 c 0.3332,0.11932 1.63894,0.14886 2.06627,0.0467 0.404057,-0.0966 0.896187,0.19803 0.663707,0.39728 -0.18209,0.15607 -0.16743,0.22621 0.0377,0.18023 0.34569,-0.0775 0.28306,0.45895 -0.0726,0.6221 -0.25731,0.11802 -2.175917,0.0907 -2.738587,-0.0391 z m 9.339117,-0.44134 c -1.57381,-0.36308 -2.115,-1.65845 -1.52226,-3.6436 0.0746,-0.24999 0.17388,-0.60712 0.22053,-0.79363 0.10306,-0.41203 0.22401,-0.52487 0.61912,-0.57764 l 0.30323,-0.0405 0.30117,0.21827 c 0.36655,0.26565 0.37487,0.43056 0.063,1.2491 -0.55944,1.46809 -0.46337,2.3481 0.27307,2.50145 0.41768,0.087 1.25499,-0.48497 1.2603,-0.86089 0.003,-0.22445 0.50899,-1.11944 0.70988,-1.25603 0.38487,-0.26171 1.06063,-0.15015 1.06063,0.17509 0,0.0991 0.0398,0.1802 0.0884,0.1802 0.0486,0 0.0884,0.10025 0.0884,0.22279 0,0.12253 -0.0398,0.24386 -0.0884,0.26961 -0.0486,0.0257 -0.0884,0.14423 -0.0884,0.2633 0,0.11906 -0.0368,0.22784 -0.0818,0.24172 -0.045,0.0139 -0.11055,0.12432 -0.14563,0.24541 l -0.0638,0.22015 0.40995,-0.0482 c 0.22547,-0.0265 0.56464,-0.1359 0.75371,-0.24314 l 0.34376,-0.19498 0.15609,-0.42533 0.1561,-0.42534 -0.10804,-0.36128 -0.10803,-0.36128 0.20014,-0.23202 c 0.23798,-0.27588 0.16395,-0.26807 0.64448,-0.068 l 0.39393,0.16404 0.17476,0.55101 c 0.53433,1.68474 -1.49147,3.23079 -3.48786,2.66186 l -0.5413,-0.15426 -0.31547,0.20624 c -0.22321,0.14592 -1.25351,0.48786 -1.25351,0.41603 0,-0.002 -0.18724,-0.0474 -0.41609,-0.10021 z m -5.08764,-1.84254 c -0.39366,-0.0418 -0.56839,-0.28767 -0.53375,-0.75115 l 0.0272,-0.36464 0.39774,-0.0591 c 0.79409,-0.11803 1.2374,0.11404 1.2374,0.64778 0,0.5144 -0.23115,0.62236 -1.12864,0.52713 z"
       style="fill:#000000"
       id="path1" />
  </g>
</svg>
