<?xml version="1.0" encoding="UTF-8" standalone="no"?>
<!-- Created with Inkscape (http://www.inkscape.org/) -->

<svg
   xmlns:dc="http://purl.org/dc/elements/1.1/"
   xmlns:cc="http://creativecommons.org/ns#"
   xmlns:rdf="http://www.w3.org/1999/02/22-rdf-syntax-ns#"
   xmlns:svg="http://www.w3.org/2000/svg"
   xmlns="http://www.w3.org/2000/svg"
   xmlns:sodipodi="http://sodipodi.sourceforge.net/DTD/sodipodi-0.dtd"
   xmlns:inkscape="http://www.inkscape.org/namespaces/inkscape"
   width="60"
   height="380"
   viewBox="0 0 15.875 100.54167"
   version="1.1"
   id="svg8"
   inkscape:version="0.92.2 5c3e80d, 2017-08-06"
   sodipodi:docname="ComputerscareRolyPouterPanel.svg"
   style="enable-background:new">
  <defs
     id="defs2" />
  <sodipodi:namedview
     id="base"
     pagecolor="#ffffff"
     bordercolor="#666666"
     borderopacity="1.0"
     inkscape:pageopacity="0.0"
     inkscape:pageshadow="2"
     inkscape:zoom="22.627418"
     inkscape:cx="4.5531417"
     inkscape:cy="10.587699"
     inkscape:document-units="mm"
     inkscape:current-layer="text1651"
     showgrid="false"
     units="px"
     inkscape:snap-bbox="true"
     inkscape:snap-page="true"
     inkscape:bbox-nodes="true"
     inkscape:snap-bbox-edge-midpoints="true"
     inkscape:window-width="1440"
     inkscape:window-height="856"
     inkscape:window-x="0"
     inkscape:window-y="0"
     inkscape:window-maximized="0"
     inkscape:snap-global="false"
     showguides="false"
     inkscape:lockguides="false" />
  <metadata
     id="metadata5">
    <rdf:RDF>
      <cc:Work
         rdf:about="">
        <dc:format>image/svg+xml</dc:format>
        <dc:type
           rdf:resource="http://purl.org/dc/dcmitype/StillImage" />
        <dc:title />
      </cc:Work>
    </rdf:RDF>
  </metadata>
  <g
     inkscape:label="Layer 1"
     inkscape:groupmode="layer"
     id="layer1"
     transform="translate(0,-196.45832)"
     style="display:none">
    <path
       style="opacity:1;vector-effect:none;fill:#f0f0f0;fill-opacity:1;fill-rule:evenodd;stroke:none;stroke-width:0.48607069;stroke-linecap:butt;stroke-linejoin:round;stroke-miterlimit:4;stroke-dasharray:none;stroke-dashoffset:0;stroke-opacity:1;paint-order:normal"
       d="M 0,196.45831 H 23.8125 V 296.99999 H 0 Z"
       id="rect817"
       inkscape:connector-curvature="0" />
    <text
       xml:space="preserve"
       style="font-style:normal;font-weight:normal;font-size:10.58333302px;line-height:1.25;font-family:sans-serif;letter-spacing:0px;word-spacing:0px;fill:#000000;fill-opacity:1;stroke:none;stroke-width:0.26458332"
       x="8.2147436"
       y="295.57718"
       id="text1490"
       transform="rotate(1.4468834)"><tspan
         sodipodi:role="line"
         id="tspan1488"
         x="8.2147436"
         y="295.57718"
         style="font-style:normal;font-variant:normal;font-weight:normal;font-stretch:normal;font-size:2.82222223px;font-family:sans-serif;-inkscape-font-specification:'sans-serif, Normal';font-variant-ligatures:normal;font-variant-caps:normal;font-variant-numeric:normal;font-feature-settings:normal;text-align:start;writing-mode:lr-tb;text-anchor:start;stroke-width:0.26458332">computerscare</tspan></text>
    <text
       transform="rotate(-5.9989835)"
       id="text1494"
       y="288.0314"
       x="-28.710276"
       style="font-style:normal;font-weight:normal;font-size:10.58333302px;line-height:1.25;font-family:sans-serif;letter-spacing:0px;word-spacing:0px;fill:#000000;fill-opacity:1;stroke:none;stroke-width:0.26458332"
       xml:space="preserve"><tspan
         style="font-style:normal;font-variant:normal;font-weight:normal;font-stretch:normal;font-size:2.82222223px;font-family:sans-serif;-inkscape-font-specification:'sans-serif, Normal';font-variant-ligatures:normal;font-variant-caps:normal;font-variant-numeric:normal;font-feature-settings:normal;text-align:start;writing-mode:lr-tb;text-anchor:start;stroke-width:0.26458332"
         y="288.0314"
         x="-28.710276"
         id="tspan1492"
         sodipodi:role="line">trg</tspan></text>
    <text
       xml:space="preserve"
       style="font-style:normal;font-weight:normal;font-size:10.58333302px;line-height:1.25;font-family:sans-serif;letter-spacing:0px;word-spacing:0px;fill:#000000;fill-opacity:1;stroke:none;stroke-width:0.26458332"
       x="20.711658"
       y="288.87244"
       id="text1498"
       transform="rotate(1.9714728)"><tspan
         sodipodi:role="line"
         id="tspan1496"
         x="20.711658"
         y="288.87244"
         style="font-style:normal;font-variant:normal;font-weight:normal;font-stretch:normal;font-size:2.82222223px;font-family:sans-serif;-inkscape-font-specification:'sans-serif, Normal';font-variant-ligatures:normal;font-variant-caps:normal;font-variant-numeric:normal;font-feature-settings:normal;text-align:start;writing-mode:lr-tb;text-anchor:start;stroke-width:0.26458332">in</tspan></text>
    <text
       transform="rotate(0.49746114)"
       id="text1521"
       y="289.16214"
       x="20.314623"
       style="font-style:normal;font-weight:normal;font-size:10.58333302px;line-height:1.25;font-family:sans-serif;letter-spacing:0px;word-spacing:0px;fill:#000000;fill-opacity:1;stroke:none;stroke-width:0.26458332"
       xml:space="preserve"><tspan
         style="font-style:normal;font-variant:normal;font-weight:normal;font-stretch:normal;font-size:3.17499995px;font-family:sans-serif;-inkscape-font-specification:'sans-serif, Normal';font-variant-ligatures:normal;font-variant-caps:normal;font-variant-numeric:normal;font-feature-settings:normal;text-align:start;writing-mode:lr-tb;text-anchor:start;stroke-width:0.26458332"
         y="289.16214"
         x="20.314623"
         id="tspan1519"
         sodipodi:role="line">clr</tspan></text>
    <text
       transform="matrix(1.0139335,-0.02825079,0.06854811,0.98434808,0,0)"
       id="text1645"
       y="204.61243"
       x="-10.296249"
       style="font-style:normal;font-weight:normal;font-size:10.74719143px;line-height:1.25;font-family:sans-serif;letter-spacing:0px;word-spacing:0px;fill:#000000;fill-opacity:1;stroke:none;stroke-width:0.26867977"
       xml:space="preserve"><tspan
         style="font-style:normal;font-variant:normal;font-weight:normal;font-stretch:normal;font-size:5.01535606px;font-family:sans-serif;-inkscape-font-specification:'sans-serif, Normal';font-variant-ligatures:normal;font-variant-caps:normal;font-variant-numeric:normal;font-feature-settings:normal;text-align:start;writing-mode:lr-tb;text-anchor:start;stroke-width:0.26867977"
         y="204.61243"
         x="-10.296249"
         id="tspan1643"
         sodipodi:role="line">debug</tspan></text>
  </g>
  <g
     inkscape:groupmode="layer"
     id="layer3"
     inkscape:label="bg" />
  <g
     style="display:inline"
     transform="translate(0,-196.45832)"
     id="g1669"
     inkscape:groupmode="layer"
     inkscape:label="Layer 1 copy">
    <path
       inkscape:connector-curvature="0"
       id="path1647"
       d="m 0,198.04581 h 14.364523 l -0.738749,15.65303 0.93662,65.71451 0.765887,10.38104 -0.496036,7.11206 L 0,296.99999 Z"
       style="opacity:1;vector-effect:none;fill:#d5d9d5;fill-opacity:1;fill-rule:evenodd;stroke:none;stroke-width:0.26300001;stroke-linecap:butt;stroke-linejoin:round;stroke-miterlimit:4;stroke-dasharray:none;stroke-dashoffset:0;stroke-opacity:1;paint-order:normal"
       sodipodi:nodetypes="cccccccc" />
    <g
       aria-label="computerscare"
       transform="matrix(0.579664,-0.0209809,0.12827949,1.4870391,-42.202497,-143.43424)"
       style="font-style:normal;font-weight:normal;font-size:10.58333302px;line-height:1.25;font-family:sans-serif;letter-spacing:0px;word-spacing:0px;fill:#000000;fill-opacity:1;stroke:none;stroke-width:0.26458332"
       id="text1651">
      <path
         inkscape:connector-curvature="0"
         id="path7239"
         style="font-style:normal;font-variant:normal;font-weight:normal;font-stretch:normal;font-size:2.82222223px;font-family:sans-serif;-inkscape-font-specification:'sans-serif, Normal';font-variant-ligatures:normal;font-variant-caps:normal;font-variant-numeric:normal;font-feature-settings:normal;text-align:start;writing-mode:lr-tb;text-anchor:start;fill:#fafafa;fill-opacity:1;stroke-width:0.39206389"
         d="m 27.958843,294.09324 q -0.04711,-0.0384 -0.113367,-0.0556 -0.06352,-0.0194 -0.149472,-0.0194 -0.304671,-3.6e-4 -0.545069,0.21715 -0.237685,0.21534 -0.379889,0.62083 l -0.441616,1.25915 -0.361303,-4.4e-4 0.838196,-2.39024 0.361304,4.5e-4 -0.130242,0.37131 q 0.189617,-0.21755 0.407919,-0.32191 0.219092,-0.10667 0.478824,-0.10629 0.03711,5e-5 0.07984,0.006 0.04311,0.005 0.09417,0.0155 z" />
      <path
         sodipodi:nodetypes="ccccscccsscscscccccsccc"
         inkscape:connector-curvature="0"
         id="path7241"
         style="font-style:normal;font-variant:normal;font-weight:normal;font-stretch:normal;font-size:2.82222223px;font-family:sans-serif;-inkscape-font-specification:'sans-serif, Normal';font-variant-ligatures:normal;font-variant-caps:normal;font-variant-numeric:normal;font-feature-settings:normal;text-align:start;writing-mode:lr-tb;text-anchor:start;fill:#fafafa;fill-opacity:1;stroke-width:0.39067632"
         d="m 27.902033,294.89389 -0.01521,0.1813 1.620414,0.18826 c -0.03772,0.25472 -0.01802,0.30759 -0.168569,0.43801 -0.15192,0.12911 -0.352921,0.19006 -0.60304,0.18307 -0.144876,-0.004 -0.28354,-0.0253 -0.415922,-0.0641 -0.133752,-0.0388 -0.466696,-0.1663 -0.594793,-0.23994 l -0.02931,0.35058 c 0.130587,0.0602 0.467732,0.17852 0.607407,0.21202 0.13963,0.0336 0.282638,0.0523 0.428872,0.0564 0.366298,0.0103 0.665471,-0.0863 0.897623,-0.28991 0.230744,-0.20357 0.361068,-0.484 0.390961,-0.84127 0.03082,-0.36938 -0.04573,-0.66503 -0.229931,-0.88696 -0.185447,-0.22328 -0.450384,-0.33975 -0.794815,-0.34938 -0.308896,-0.008 -0.561079,0.0826 -0.756522,0.27366 -0.196711,0.18972 -0.309112,0.45248 -0.337209,0.78827 z m 0.386329,-0.0982 c 0.01979,-0.20273 0.09137,-0.36297 0.214944,-0.48067 0.12218,-0.11777 0.276224,-0.17402 0.462108,-0.16883 0.21048,0.006 0.374389,0.0692 0.491726,0.18947 0.115978,0.12036 0.0084,0.26145 0.0098,0.47421 z" />
      <path
         inkscape:connector-curvature="0"
         id="path7233"
         style="font-style:normal;font-variant:normal;font-weight:normal;font-stretch:normal;font-size:2.82222223px;font-family:sans-serif;-inkscape-font-specification:'sans-serif, Normal';font-variant-ligatures:normal;font-variant-caps:normal;font-variant-numeric:normal;font-feature-settings:normal;text-align:start;writing-mode:lr-tb;text-anchor:start;fill:#fafafa;fill-opacity:1;stroke-width:0.28464934"
         d="m 20.722727,294.23998 0.0032,0.12736 -1.306513,0.30073 q 0.02526,0.26459 0.186314,0.36984 0.162571,0.10349 0.445183,0.0384 0.16369,-0.0381 0.315668,-0.10967 0.153515,-0.0723 0.30302,-0.18074 l 0.0062,0.24622 q -0.151405,0.0946 -0.311236,0.16279 -0.159835,0.068 -0.325079,0.10606 -0.413882,0.0953 -0.66186,-0.0696 -0.246437,-0.16531 -0.255848,-0.54173 -0.0097,-0.38914 0.21314,-0.66957 0.224375,-0.2822 0.61355,-0.37177 0.349028,-0.08 0.556495,0.0797 0.208984,0.15829 0.217827,0.51205 z m -0.286066,-0.0109 q -0.0084,-0.21295 -0.139796,-0.31083 -0.129819,-0.0982 -0.339849,-0.0498 -0.237836,0.0544 -0.378374,0.21089 -0.139001,0.15582 -0.155034,0.38437 z" />
      <path
         inkscape:connector-curvature="0"
         id="path7235"
         style="font-style:normal;font-variant:normal;font-weight:normal;font-stretch:normal;font-size:2.82222223px;font-family:sans-serif;-inkscape-font-specification:'sans-serif, Normal';font-variant-ligatures:normal;font-variant-caps:normal;font-variant-numeric:normal;font-feature-settings:normal;text-align:start;writing-mode:lr-tb;text-anchor:start;fill:#fafafa;fill-opacity:1;stroke-width:0.28464934"
         d="m 22.226637,294.31291 q -0.04909,-0.0254 -0.107209,-0.0367 -0.05659,-0.0127 -0.125376,-0.0129 -0.243868,-3.5e-4 -0.371622,0.14288 -0.126226,0.14182 -0.119595,0.40898 l 0.0206,0.82957 -0.289203,-4.1e-4 -0.03909,-1.57478 0.289203,4.1e-4 0.0061,0.24465 q 0.08711,-0.14329 0.230783,-0.21197 0.143637,-0.0701 0.351552,-0.0698 0.0297,4e-5 0.06576,0.004 0.03602,0.003 0.07997,0.0103 z" />
      <path
         inkscape:connector-curvature="0"
         id="path7229"
         style="font-style:normal;font-variant:normal;font-weight:normal;font-stretch:normal;font-size:2.82222223px;font-family:sans-serif;-inkscape-font-specification:'sans-serif, Normal';font-variant-ligatures:normal;font-variant-caps:normal;font-variant-numeric:normal;font-feature-settings:normal;text-align:start;writing-mode:lr-tb;text-anchor:start;fill:#090909;fill-opacity:1;stroke-width:0.32590082"
         d="m 13.240011,294.06907 q 0.113387,-0.22535 0.267492,-0.33258 0.154099,-0.10723 0.360188,-0.10729 0.277424,10e-6 0.424046,0.22356 0.146655,0.22174 0.139341,0.63248 l -0.0219,1.22858 -0.293278,3e-5 0.02169,-1.2177 q 0.0052,-0.2926 -0.08262,-0.43437 -0.08785,-0.14176 -0.273318,-0.14177 -0.226695,1e-5 -0.361348,0.17263 -0.134652,0.17266 -0.139959,0.47072 l -0.02052,1.15045 -0.293278,2e-5 0.02169,-1.2177 q 0.0052,-0.29442 -0.08262,-0.43437 -0.08785,-0.14175 -0.276489,-0.14176 -0.223524,-1e-5 -0.358209,0.17445 -0.134652,0.17266 -0.139928,0.46891 l -0.02052,1.15042 -0.293273,3e-5 0.03623,-2.03554 0.293277,-10e-6 -0.0056,0.31622 q 0.103211,-0.18717 0.244296,-0.27624 0.14109,-0.089 0.33291,-0.089 0.193405,0 0.326148,0.11264 0.134332,0.11258 0.195508,0.32712 z" />
      <path
         inkscape:connector-curvature="0"
         id="path7227"
         style="font-style:normal;font-variant:normal;font-weight:normal;font-stretch:normal;font-size:2.82222223px;font-family:sans-serif;-inkscape-font-specification:'sans-serif, Normal';font-variant-ligatures:normal;font-variant-caps:normal;font-variant-numeric:normal;font-feature-settings:normal;text-align:start;writing-mode:lr-tb;text-anchor:start;fill:#121212;fill-opacity:1;stroke-width:0.26458332"
         d="m 14.841741,294.82593 v 0.81855 h -0.254937 v -2.13044 h 0.254937 v 0.23426 q 0.07993,-0.1378 0.201194,-0.20395 0.122645,-0.0675 0.292144,-0.0675 0.28112,0 0.45613,0.22324 0.176389,0.22324 0.176389,0.58705 0,0.3638 -0.176389,0.58704 -0.17501,0.22324 -0.45613,0.22324 -0.169499,0 -0.292144,-0.0661 -0.121268,-0.0675 -0.201194,-0.20533 z m 0.862652,-0.53881 q 0,-0.27975 -0.115755,-0.43822 -0.114377,-0.15985 -0.315571,-0.15985 -0.201193,0 -0.316949,0.15985 -0.114377,0.15847 -0.114377,0.43822 0,0.27974 0.114377,0.43959 0.115756,0.15847 0.316949,0.15847 0.201194,0 0.315571,-0.15847 0.115755,-0.15985 0.115755,-0.43959 z" />
      <path
         d="m 11.323356,294.14189 0.02189,0.2377 q -0.271111,-0.0513 -0.542836,-0.072 -0.26845,-0.0222 -0.540921,-0.0136 -0.6096253,0.0187 -0.9322797,0.18652 -0.3227858,0.16647 -0.2966893,0.44979 0.026095,0.28329 0.3777732,0.43052 0.351549,0.14584 0.9611768,0.12718 0.272475,-0.008 0.535433,-0.0454 0.266248,-0.0386 0.526425,-0.10621 l 0.02164,0.23492 q -0.257659,0.0578 -0.538054,0.0912 -0.276962,0.0334 -0.59371,0.0431 -0.8616496,0.0263 -1.3893404,-0.17783 -0.5276938,-0.20419 -0.5620602,-0.57733 -0.03488,-0.37867 0.4559951,-0.61127 0.4942813,-0.2327 1.3865845,-0.26001 0.289495,-0.009 0.567591,0.008 0.278031,0.0151 0.541334,0.0556 z"
         style="font-style:normal;font-variant:normal;font-weight:normal;font-stretch:normal;font-size:2.82222223px;font-family:sans-serif;-inkscape-font-specification:'sans-serif, Normal';font-variant-ligatures:normal;font-variant-caps:normal;font-variant-numeric:normal;font-feature-settings:normal;text-align:start;writing-mode:lr-tb;text-anchor:start;stroke-width:0.41712496"
         id="path1701"
         inkscape:connector-curvature="0" />
      <path
         d="m 13.143759,294.1394 q 0.109103,-0.20599 0.261143,-0.30389 0.152033,-0.0979 0.358066,-0.0977 0.277351,3.4e-4 0.428154,0.205 0.150801,0.203 0.151243,0.57869 l 0.0013,1.12376 -0.2932,-3.3e-4 -0.0013,-1.1138 q -3.15e-4,-0.26763 -0.0908,-0.39742 -0.0905,-0.12977 -0.275921,-0.13 -0.226635,-2.7e-4 -0.357993,0.15747 -0.131357,0.15777 -0.131036,0.4304 l 0.0012,1.05229 -0.2932,-3.4e-4 -0.0013,-1.1138 q -3.17e-4,-0.2693 -0.0908,-0.39742 -0.0905,-0.12976 -0.279091,-0.13 -0.223465,-2.8e-4 -0.354821,0.15914 -0.131357,0.15777 -0.131039,0.42874 l 0.0012,1.05227 -0.293194,-3.3e-4 -0.0022,-1.86186 0.293199,3.4e-4 3.42e-4,0.28924 q 0.09965,-0.17108 0.239016,-0.25238 0.139373,-0.0812 0.331141,-0.081 0.193354,2.3e-4 0.328188,0.10342 0.136421,0.10314 0.201631,0.29946 z"
         style="font-style:normal;font-variant:normal;font-weight:normal;font-stretch:normal;font-size:2.82222223px;font-family:sans-serif;-inkscape-font-specification:'sans-serif, Normal';font-variant-ligatures:normal;font-variant-caps:normal;font-variant-numeric:normal;font-feature-settings:normal;text-align:start;writing-mode:lr-tb;text-anchor:start;stroke-width:0.31164581;fill:#f9f9f9;fill-opacity:1"
         id="path1705"
         inkscape:connector-curvature="0" />
      <path
         d="m 14.742929,294.81667 v 0.81855 h -0.254937 v -2.13044 h 0.254937 v 0.23426 q 0.07993,-0.1378 0.201194,-0.20395 0.122645,-0.0675 0.292144,-0.0675 0.28112,0 0.45613,0.22324 0.176389,0.22324 0.176389,0.58705 0,0.3638 -0.176389,0.58704 -0.17501,0.22324 -0.45613,0.22324 -0.169499,0 -0.292144,-0.0661 -0.121268,-0.0675 -0.201194,-0.20533 z m 0.862652,-0.53881 q 0,-0.27975 -0.115755,-0.43822 -0.114377,-0.15985 -0.315571,-0.15985 -0.201193,0 -0.316949,0.15985 -0.114377,0.15847 -0.114377,0.43822 0,0.27974 0.114377,0.43959 0.115756,0.15847 0.316949,0.15847 0.201194,0 0.315571,-0.15847 0.115755,-0.15985 0.115755,-0.43959 z"
         style="font-style:normal;font-variant:normal;font-weight:normal;font-stretch:normal;font-size:2.82222223px;font-family:sans-serif;-inkscape-font-specification:'sans-serif, Normal';font-variant-ligatures:normal;font-variant-caps:normal;font-variant-numeric:normal;font-feature-settings:normal;text-align:start;writing-mode:lr-tb;text-anchor:start;stroke-width:0.26458332;fill:#f9f9f9;fill-opacity:1"
         id="path1707"
         inkscape:connector-curvature="0" />
      <path
         d="m 16.276561,294.97975 -1.52e-4,-0.94031 0.251931,-0.0648 1.5e-4,0.9306 q 3.6e-5,0.22051 0.08495,0.30972 0.08491,0.0878 0.254686,0.0444 0.204008,-0.052 0.321737,-0.21413 0.119098,-0.16225 0.119061,-0.38971 l -1.43e-4,-0.88065 0.251931,-0.0648 2.51e-4,1.55331 -0.25193,0.0648 -3.9e-5,-0.23855 q -0.09172,0.16493 -0.213559,0.26548 -0.120476,0.0987 -0.280672,0.13983 -0.264253,0.0678 -0.401197,-0.0637 -0.136946,-0.13139 -0.136998,-0.45174 z"
         style="font-style:normal;font-variant:normal;font-weight:normal;font-stretch:normal;font-size:2.82222223px;font-family:sans-serif;-inkscape-font-specification:'sans-serif, Normal';font-variant-ligatures:normal;font-variant-caps:normal;font-variant-numeric:normal;font-feature-settings:normal;text-align:start;writing-mode:lr-tb;text-anchor:start;stroke-width:0.26458332"
         id="path1709"
         inkscape:connector-curvature="0" />
      <path
         d="m 18.344702,293.59556 v 0.43822 h 0.522277 v 0.19706 h -0.522277 v 0.83784 q 0,0.18879 0.05099,0.24254 0.05237,0.0537 0.21084,0.0537 h 0.260449 v 0.21222 H 18.60653 q -0.293522,0 -0.405144,-0.10887 -0.111621,-0.11024 -0.111621,-0.39963 V 294.2308 H 17.90373 v -0.19706 h 0.186035 v -0.43822 z"
         style="font-style:normal;font-variant:normal;font-weight:normal;font-stretch:normal;font-size:2.82222223px;font-family:sans-serif;-inkscape-font-specification:'sans-serif, Normal';font-variant-ligatures:normal;font-variant-caps:normal;font-variant-numeric:normal;font-feature-settings:normal;text-align:start;writing-mode:lr-tb;text-anchor:start;stroke-width:0.26458332"
         id="path1711"
         inkscape:connector-curvature="0" />
      <path
         d="m 20.508346,294.20141 2.1e-5,0.12482 -1.158332,0.29657 q 0.01648,0.25929 0.156153,0.36223 0.141049,0.1012 0.391609,0.037 0.145134,-0.0376 0.280676,-0.10793 0.136913,-0.0711 0.271081,-0.17758 l 4e-5,0.24133 q -0.135541,0.093 -0.277931,0.15998 -0.14239,0.0669 -0.288893,0.10441 -0.366941,0.094 -0.581938,-0.0673 -0.213628,-0.16169 -0.213688,-0.53061 -6.1e-5,-0.38138 0.202543,-0.65655 0.203972,-0.2769 0.549007,-0.36523 0.309435,-0.0789 0.488832,0.0774 0.180765,0.15485 0.18082,0.50156 z m -0.251942,-0.0103 q -0.0028,-0.2087 -0.116435,-0.30445 -0.112293,-0.0961 -0.298502,-0.0484 -0.210854,0.0537 -0.338169,0.20723 -0.125945,0.15291 -0.145079,0.37694 z"
         style="font-style:normal;font-variant:normal;font-weight:normal;font-stretch:normal;font-size:2.82222223px;font-family:sans-serif;-inkscape-font-specification:'sans-serif, Normal';font-variant-ligatures:normal;font-variant-caps:normal;font-variant-numeric:normal;font-feature-settings:normal;text-align:start;writing-mode:lr-tb;text-anchor:start;stroke-width:0.26458332;fill:#585858;fill-opacity:1"
         id="path1713"
         inkscape:connector-curvature="0" />
      <path
         d="m 21.832517,294.2708 q -0.04272,-0.0248 -0.09371,-0.0358 -0.04961,-0.0124 -0.110243,-0.0124 -0.214974,0 -0.330729,0.14056 -0.114377,0.13918 -0.114377,0.40101 v 0.81304 h -0.254937 v -1.5434 h 0.254937 v 0.23977 q 0.07993,-0.14056 0.208084,-0.20808 0.128157,-0.0689 0.311436,-0.0689 0.02618,0 0.05788,0.004 0.03169,0.003 0.07028,0.01 z"
         style="font-style:normal;font-variant:normal;font-weight:normal;font-stretch:normal;font-size:2.82222223px;font-family:sans-serif;-inkscape-font-specification:'sans-serif, Normal';font-variant-ligatures:normal;font-variant-caps:normal;font-variant-numeric:normal;font-feature-settings:normal;text-align:start;writing-mode:lr-tb;text-anchor:start;stroke-width:0.26458332;fill:#585858;fill-opacity:1"
         id="path1715"
         inkscape:connector-curvature="0" />
      <path
         d="m 23.185447,294.16269 -0.03488,0.23723 q -0.09833,-0.0702 -0.208837,-0.11429 -0.110508,-0.0442 -0.233212,-0.0622 -0.186783,-0.0275 -0.289279,0.016 -0.101136,0.0437 -0.117973,0.15816 -0.01283,0.0873 0.04655,0.14753 0.05959,0.0589 0.254751,0.13358 l 0.08309,0.0317 q 0.258799,0.0966 0.355164,0.21797 0.09793,0.12025 0.07046,0.30705 -0.03127,0.21268 -0.218575,0.31189 -0.185938,0.0994 -0.480428,0.0561 -0.122703,-0.018 -0.252707,-0.0622 -0.128844,-0.0426 -0.269062,-0.11204 l 0.03809,-0.25904 q 0.128445,0.0927 0.258001,0.14937 0.129765,0.0553 0.262013,0.0747 0.17724,0.0261 0.281492,-0.0199 0.104454,-0.0473 0.120693,-0.15775 0.01504,-0.10226 -0.04648,-0.16702 -0.06015,-0.0645 -0.285871,-0.14928 l -0.08424,-0.0333 q -0.225922,-0.0833 -0.314703,-0.19949 -0.08858,-0.11748 -0.06252,-0.29473 0.03167,-0.21541 0.201614,-0.31021 0.169938,-0.0948 0.450794,-0.0535 0.139065,0.0204 0.258757,0.059 0.119693,0.0385 0.217301,0.0946 z"
         style="font-style:normal;font-variant:normal;font-weight:normal;font-stretch:normal;font-size:2.82222223px;font-family:sans-serif;-inkscape-font-specification:'sans-serif, Normal';font-variant-ligatures:normal;font-variant-caps:normal;font-variant-numeric:normal;font-feature-settings:normal;text-align:start;writing-mode:lr-tb;text-anchor:start;stroke-width:0.26458332;fill:#585858;fill-opacity:1"
         id="path1717"
         inkscape:connector-curvature="0" />
      <path
         d="m 24.74878,294.2652 c -0.08645,0.15984 -0.310959,-0.0317 -0.546114,0.002 -0.163883,0.0136 -0.286821,0.0763 -0.368812,0.1882 -0.08207,0.11097 -0.115323,0.2603 -0.09977,0.44799 0.01555,0.18768 0.07297,0.32995 0.172262,0.42682 0.09921,0.096 0.230762,0.13713 0.394645,0.12355 0.07324,-0.006 0.144777,-0.0216 0.2146,-0.0468 0.07066,-0.0261 0.140065,-0.0618 0.208213,-0.10716 l 0.01935,0.23346 c -0.06777,0.0388 -0.138962,0.0696 -0.213589,0.0923 -0.07371,0.0227 -0.153138,0.0376 -0.238284,0.0446 -0.231635,0.0192 -0.421693,-0.0383 -0.570174,-0.17261 -0.14848,-0.13426 -0.232962,-0.32499 -0.253446,-0.57219 -0.02079,-0.25087 0.03153,-0.45386 0.15695,-0.60898 0.126338,-0.1552 0.309444,-0.24274 0.549319,-0.26262 0.07782,-0.007 0.154496,-0.005 0.230021,0.006 0.07545,0.009 0.411602,0.13108 0.483843,0.15738 z"
         style="font-style:normal;font-variant:normal;font-weight:normal;font-stretch:normal;font-size:2.82222223px;font-family:sans-serif;-inkscape-font-specification:'sans-serif, Normal';font-variant-ligatures:normal;font-variant-caps:normal;font-variant-numeric:normal;font-feature-settings:normal;text-align:start;writing-mode:lr-tb;text-anchor:start;stroke-width:0.26458332"
         id="path1719"
         inkscape:connector-curvature="0"
         sodipodi:nodetypes="cccccccccccccccccc" />
      <path
         d="m 24.81823,294.75924 c -0.297765,0.0229 -0.512808,0.0705 -0.64513,0.14291 -0.132332,0.0724 -0.219561,0.18524 -0.261686,0.33845 -0.03363,0.12213 -0.01763,0.21604 0.04798,0.28174 0.06728,0.0643 0.175023,0.0907 0.323232,0.0794 0.204311,-0.0157 0.386389,-0.0956 0.546234,-0.23957 0.161537,-0.14536 0.273146,-0.33019 0.334829,-0.55448 l 0.02101,-0.0766 z m 0.774145,-0.19853 -0.328455,1.19434 -0.368516,0.0282 0.08737,-0.31774 c -0.119089,0.13356 -0.249784,0.2357 -0.392086,0.30641 -0.141957,0.0694 -0.303742,0.11113 -0.485354,0.12512 -0.229693,0.0177 -0.39618,-0.0281 -0.499459,-0.13726 -0.101626,-0.1105 -0.124676,-0.26669 -0.06915,-0.46856 0.06476,-0.2355 0.197713,-0.41952 0.398859,-0.55206 0.202482,-0.13265 0.471302,-0.21186 0.806461,-0.23762 l 0.516775,-0.0398 0.0092,-0.0335 c 0.04352,-0.15825 0.02102,-0.27605 -0.0675,-0.35341 -0.08684,-0.0787 -0.231074,-0.11031 -0.4327,-0.0948 -0.128187,0.01 -0.256984,0.0338 -0.386391,0.0718 -0.129384,0.038 -0.22788,0.0181 -0.35582,0.0841 l 0.0572,-0.24589 c 0.148221,-0.0589 0.289013,-0.10504 0.422378,-0.13852 0.133697,-0.0347 0.260649,-0.0566 0.380855,-0.0659 0.324493,-0.025 0.54526,0.0349 0.662301,0.17963 0.117059,0.14469 0.131725,0.37653 0.044,0.69552 z"
         style="font-style:normal;font-variant:normal;font-weight:normal;font-stretch:normal;font-size:2.82222223px;font-family:sans-serif;-inkscape-font-specification:'sans-serif, Normal';font-variant-ligatures:normal;font-variant-caps:normal;font-variant-numeric:normal;font-feature-settings:normal;text-align:start;writing-mode:lr-tb;text-anchor:start;stroke-width:0.36754596"
         id="path1721"
         inkscape:connector-curvature="0"
         sodipodi:nodetypes="ccccccccccccccccccccccccccccccc" />
      <path
         d="m 27.811045,294.03187 q -0.04765,-0.0359 -0.114148,-0.0521 -0.06379,-0.0182 -0.149723,-0.0183 -0.304614,-6.2e-4 -0.541819,0.20246 -0.234523,0.20105 -0.370837,0.57993 l -0.423324,1.17649 -0.361236,-7.4e-4 0.803473,-2.23334 0.361237,7.5e-4 -0.124848,0.34694 q 0.186434,-0.20316 0.403183,-0.30051 0.217505,-0.0995 0.47719,-0.0989 0.0371,8e-5 0.07992,0.006 0.04318,0.005 0.09438,0.0146 z"
         style="font-style:normal;font-variant:normal;font-weight:normal;font-stretch:normal;font-size:2.82222223px;font-family:sans-serif;-inkscape-font-specification:'sans-serif, Normal';font-variant-ligatures:normal;font-variant-caps:normal;font-variant-numeric:normal;font-feature-settings:normal;text-align:start;writing-mode:lr-tb;text-anchor:start;stroke-width:0.37900135"
         id="path1723"
         inkscape:connector-curvature="0" />
      <path
         d="m 27.76582,294.78017 -0.01259,0.16945 1.622805,0.17745 c -0.03403,0.23805 -0.01357,0.28748 -0.162203,0.40925 -0.150023,0.12053 -0.350102,0.17732 -0.600271,0.17055 -0.144906,-0.004 -0.283847,-0.0239 -0.416764,-0.0603 -0.134285,-0.0364 -0.469004,-0.15587 -0.59814,-0.22482 l -0.02424,0.32765 c 0.131431,0.0564 0.470217,0.16729 0.610348,0.19873 0.140087,0.0315 0.283337,0.0492 0.4296,0.0531 0.366372,0.01 0.664087,-0.0801 0.893249,-0.27015 0.227754,-0.19006 0.353998,-0.45205 0.37872,-0.78596 0.02547,-0.34522 -0.05533,-0.62163 -0.242705,-0.82923 -0.188637,-0.20887 -0.455204,-0.31797 -0.799704,-0.32729 -0.308952,-0.008 -0.55977,0.0767 -0.752412,0.25509 -0.193928,0.17714 -0.302508,0.42263 -0.325745,0.73646 z m 0.384831,-0.0914 c 0.01686,-0.18947 0.08611,-0.33917 0.207952,-0.44907 0.120453,-0.10997 0.273652,-0.1624 0.459573,-0.15738 0.210527,0.006 0.375313,0.065 0.494365,0.17755 0.117694,0.1126 0.0122,0.24438 0.01667,0.44324 z"
         style="font-style:normal;font-variant:normal;font-weight:normal;font-stretch:normal;font-size:2.82222223px;font-family:sans-serif;-inkscape-font-specification:'sans-serif, Normal';font-variant-ligatures:normal;font-variant-caps:normal;font-variant-numeric:normal;font-feature-settings:normal;text-align:start;writing-mode:lr-tb;text-anchor:start;stroke-width:0.37766001"
         id="path1725"
         inkscape:connector-curvature="0"
         sodipodi:nodetypes="ccccscccsscscscccccsccc" />
      <path
         sodipodi:nodetypes="cccccccccccccccccc"
         inkscape:connector-curvature="0"
         id="path7237"
         style="font-style:normal;font-variant:normal;font-weight:normal;font-stretch:normal;font-size:2.82222223px;font-family:sans-serif;-inkscape-font-specification:'sans-serif, Normal';font-variant-ligatures:normal;font-variant-caps:normal;font-variant-numeric:normal;font-feature-settings:normal;text-align:start;writing-mode:lr-tb;text-anchor:start;stroke-width:0.26458332;fill:#fafafa;fill-opacity:1"
         d="m 24.946404,294.28371 c -0.08645,0.15984 -0.310959,-0.0317 -0.546114,0.002 -0.163883,0.0136 -0.286821,0.0763 -0.368812,0.1882 -0.08207,0.11097 -0.115323,0.2603 -0.09977,0.44799 0.01555,0.18768 0.07297,0.32995 0.172262,0.42682 0.09921,0.096 0.230762,0.13713 0.394645,0.12355 0.07324,-0.006 0.144777,-0.0216 0.2146,-0.0468 0.07066,-0.0261 0.140065,-0.0618 0.208213,-0.10716 l 0.01935,0.23346 c -0.06777,0.0388 -0.138962,0.0696 -0.213589,0.0923 -0.07371,0.0227 -0.153138,0.0376 -0.238284,0.0446 -0.231635,0.0192 -0.421693,-0.0383 -0.570174,-0.17261 -0.14848,-0.13426 -0.232962,-0.32499 -0.253446,-0.57219 -0.02079,-0.25087 0.03153,-0.45386 0.15695,-0.60898 0.126338,-0.1552 0.309444,-0.24274 0.549319,-0.26262 0.07782,-0.007 0.154496,-0.005 0.230021,0.006 0.07545,0.009 0.411602,0.13108 0.483843,0.15738 z" />
    </g>
    <g
       id="g9547"
       transform="matrix(0.21334155,-0.05917659,0,0.23311691,-1.9826542,288.69198)">
      <g
         style="display:inline"
         inkscape:label="Layer 1"
         id="layer4" />
      <path
         id="rect5872"
         d="m 11.987289,9.3234482 h 7.991524 v 3.9957608 h -7.991524 z"
         style="opacity:1;fill:#0f0f00;fill-opacity:1;stroke:#000000;stroke-width:0;stroke-miterlimit:4;stroke-dasharray:none;stroke-opacity:1"
         inkscape:connector-curvature="0" />
      <path
         id="rect5874"
         d="m 14.667374,10.662096 h 3.995763 v 1.331921 h -3.995763 z"
         style="opacity:1;fill:#ffffff;fill-opacity:0.98571424;stroke:#000000;stroke-width:0;stroke-miterlimit:4;stroke-dasharray:none;stroke-opacity:1"
         inkscape:connector-curvature="0" />
      <path
         id="rect5878"
         d="m -29.323654,9.3234482 h 7.989551 v 3.9957608 h -7.989551 z"
         style="opacity:1;fill:#0c0c00;fill-opacity:1;stroke:#000000;stroke-width:0;stroke-miterlimit:4;stroke-dasharray:none;stroke-opacity:1"
         transform="scale(-1,1)"
         inkscape:connector-curvature="0" />
      <path
         id="rect5880"
         d="m 26.64423,10.662096 -3.171232,0.209056 v 1.331921 l 3.171232,-0.209056 z"
         style="opacity:1;fill:#ffffff;fill-opacity:0.98571424;stroke:#000000;stroke-width:0;stroke-miterlimit:4;stroke-dasharray:none;stroke-opacity:1"
         inkscape:connector-curvature="0" />
      <path
         id="rect5882"
         d="m 19.995058,14.667374 h 1.331921 v 3.995762 h -1.331921 z"
         style="opacity:1;fill:#000000;fill-opacity:1;stroke:#000000;stroke-width:0;stroke-miterlimit:4;stroke-dasharray:none;stroke-opacity:1"
         inkscape:connector-curvature="0" />
      <path
         id="rect5884"
         d="m 20.888507,17.21991 2.579094,0.32072 v 1.33192 l -2.579094,-0.32072 z"
         style="opacity:1;fill:#000000;fill-opacity:1;stroke:#000000;stroke-width:0;stroke-miterlimit:4;stroke-dasharray:none;stroke-opacity:1"
         inkscape:connector-curvature="0" />
      <path
         id="rect5886"
         d="m 11.954803,20.011301 h 2.696328 v 2.663842 h -2.696328 z"
         style="opacity:1;fill:#393939;fill-opacity:1;stroke:#000000;stroke-width:0;stroke-miterlimit:4;stroke-dasharray:none;stroke-opacity:1"
         inkscape:connector-curvature="0" />
      <path
         id="rect5888"
         d="m 27.970341,20.011301 h 2.696327 v 2.663842 h -2.696327 z"
         style="opacity:1;fill:#000200;fill-opacity:1;stroke:#000000;stroke-width:0;stroke-miterlimit:4;stroke-dasharray:none;stroke-opacity:1"
         inkscape:connector-curvature="0" />
      <path
         id="rect5890"
         d="m 14.651131,20.011301 h 13.351695 v 1.33192 H 14.651131 Z"
         style="opacity:1;fill:#393939;fill-opacity:1;stroke:#000000;stroke-width:0;stroke-miterlimit:4;stroke-dasharray:none;stroke-opacity:1"
         inkscape:connector-curvature="0" />
    </g>
    <path
       style="fill:#232224;fill-opacity:1;stroke:none;stroke-width:0.36093959;stroke-linecap:butt;stroke-linejoin:round;stroke-miterlimit:4;stroke-dasharray:none;stroke-opacity:1"
       d="m 2.0866913,196.46789 -2.08978901,1.62471 0.01594439,6.94401 1.08114182,-0.64353 1.0170942,-0.0654 z"
       id="path890"
       inkscape:connector-curvature="0"
       sodipodi:nodetypes="cccccc" />
    <path
       style="fill:#626262;fill-opacity:1;stroke:none;stroke-width:0.39441884;stroke-linecap:butt;stroke-linejoin:round;stroke-miterlimit:4;stroke-dasharray:none;stroke-opacity:1"
       d="m 8.5673836,208.57219 0.1883265,-0.41024 7.1220079,0.94478 -2.117161,1.03837 -5.8780638,-1.07324 z"
       id="path892"
       inkscape:connector-curvature="0"
       sodipodi:nodetypes="cccccc" />
    <path
       sodipodi:nodetypes="cccccc"
       inkscape:connector-curvature="0"
       id="path873"
       d="m 1.0929047,204.35757 1.0068811,-0.0434 4.8564349,0.3703 -0.9143368,0.63415 -6.05304574,-0.37381 z"
       style="fill:#626262;fill-opacity:1;stroke:none;stroke-width:0.39441884;stroke-linecap:butt;stroke-linejoin:round;stroke-miterlimit:4;stroke-dasharray:none;stroke-opacity:1" />
    <path
       sodipodi:nodetypes="cccccc"
       inkscape:connector-curvature="0"
       id="path875"
       d="m 6.9572483,204.66167 -0.9027314,0.64957 1.8275387,3.7793 0.6698792,-0.47632 0.1985395,-0.41359 z"
       style="fill:#232224;fill-opacity:1;stroke:none;stroke-width:0.33595333;stroke-linecap:butt;stroke-linejoin:round;stroke-miterlimit:4;stroke-dasharray:none;stroke-opacity:1" />
    <path
       style="fill:#fefefe;fill-opacity:1;stroke:none;stroke-width:0.37162125;stroke-linejoin:round;stroke-miterlimit:4;stroke-dasharray:none;stroke-opacity:1"
       d="M 2.0835936,196.45833 H 15.874998 l 0.132292,12.64884 -7.2344703,-0.90942 -1.8194899,-3.45958 -4.8643051,-0.44029 z"
       id="rect888"
       inkscape:connector-curvature="0"
       sodipodi:nodetypes="ccccccc" />
    <path
       style="fill:none;stroke:#393939;stroke-width:0.44920912;stroke-linecap:butt;stroke-linejoin:miter;stroke-miterlimit:4;stroke-dasharray:none;stroke-opacity:1"
       d="m 2.9352891,199.15641 c -0.251884,-2.19617 -0.1007553,-2.27104 -0.1007553,-2.27104 l 2.518841,0.0748 c 0,0 1.6120584,0.59897 0,0.69878 -1.6120585,0.0998 -2.1662036,0.29949 -2.1662036,0.29949 l 1.9646961,0.99826"
       id="path1604"
       inkscape:connector-curvature="0" />
    <path
       style="fill:none;stroke:#7a7a78;stroke-width:0.44659367;stroke-linecap:butt;stroke-linejoin:miter;stroke-miterlimit:4;stroke-dasharray:none;stroke-opacity:1"
       d="m 8.1151551,197.02695 c 0,0 -1.833925,-0.2503 -0.8711143,0.44349 0.9628105,0.69381 2.6591913,1.08118 2.4757987,0.45987 -0.1833926,-0.6213 -1.6046844,-0.90336 -1.6046844,-0.90336 z"
       id="path1608"
       inkscape:connector-curvature="0" />
    <path
       style="fill:none;stroke:#7a7a78;stroke-width:0.46697637;stroke-linecap:butt;stroke-linejoin:miter;stroke-miterlimit:4;stroke-dasharray:none;stroke-opacity:1"
       d="m 10.902363,196.88698 c -0.214519,1.27304 -0.35753,1.52005 0,1.44403 0.357528,-0.076 0.357528,-0.076 0.357528,-0.076 v 0"
       id="path1610"
       inkscape:connector-curvature="0" />
    <path
       style="fill:none;stroke:#25251f;stroke-width:0.35296175;stroke-linecap:butt;stroke-linejoin:miter;stroke-miterlimit:4;stroke-dasharray:none;stroke-opacity:1"
       d="m 7.6854756,203.3482 c 0,-3.77132 0.1455368,-3.84248 0.1455368,-3.84248 0,0 1.3825999,-0.92503 1.1279105,0.071 -0.2546894,0.99621 0.3274578,0.99621 -0.2546894,0.99621 -0.5821477,0 -1.0551422,0.14222 -1.0551422,0.14222"
       id="path1614"
       inkscape:connector-curvature="0" />
    <path
       style="fill:none;stroke:#25251f;stroke-width:0.35464153;stroke-linecap:butt;stroke-linejoin:miter;stroke-miterlimit:4;stroke-dasharray:none;stroke-opacity:1"
       d="m 9.6299115,200.79798 c -0.050884,0.43314 -0.3081047,0.0794 -0.3715664,0.35606 -0.2258595,0.98341 -0.2527853,1.7679 0.1395874,1.6187 0.2899736,-0.25478 0.7938705,-2.08666 0.231979,-1.97476 z"
       id="path1616"
       inkscape:connector-curvature="0"
       sodipodi:nodetypes="cscc" />
    <path
       style="fill:none;stroke:#393939;stroke-width:0.2695125;stroke-linecap:butt;stroke-linejoin:miter;stroke-miterlimit:4;stroke-dasharray:none;stroke-opacity:1"
       d="m 10.754014,199.61437 c -0.126294,1.94107 -0.8840843,2.42635 -0.126294,1.94107 0.757787,-0.48527 0.808306,0.91663 0.757787,-0.53917 -0.05053,-1.45579 -0.07578,-1.45579 -0.07578,-1.45579 v 0 0 0 l -0.101805,-0.86577"
       id="path1618"
       inkscape:connector-curvature="0"
       sodipodi:nodetypes="cssccccc" />
    <path
       style="fill:none;stroke:#393939;stroke-width:0.27439359;stroke-linecap:butt;stroke-linejoin:miter;stroke-miterlimit:4;stroke-dasharray:none;stroke-opacity:1"
       d="m 13.259043,201.8885 c 1.118136,-0.25142 1.118136,-0.33524 1.118136,-0.41906 -0.734063,-1.13536 0.02363,-3.14584 -0.776483,-0.73692 -0.496949,1.63429 -0.279535,1.91019 -0.279535,1.91019 l 1.149196,-0.33523"
       id="path1624"
       inkscape:connector-curvature="0"
       sodipodi:nodetypes="ccccc" />
    <path
       style="fill:none;stroke:#393939;stroke-width:0.42692769;stroke-linecap:round;stroke-linejoin:miter;stroke-miterlimit:4;stroke-dasharray:none;stroke-opacity:1"
       d="m 15.041846,202.35141 -0.241956,-1.58556 0.346259,-0.0892 c 0,0 0.26884,-0.64365 0.316222,-0.28006 0.40326,1.01419 -0.04879,1.05643 -0.04879,1.05643"
       id="path1626"
       inkscape:connector-curvature="0"
       sodipodi:nodetypes="ccccc" />
    <path
       style="fill:none;stroke:#7a7a78;stroke-width:0.45111504;stroke-linecap:butt;stroke-linejoin:miter;stroke-miterlimit:4;stroke-dasharray:none;stroke-opacity:1"
       d="m 12.986505,197.05253 c 1.339516,0.63891 1.938725,0.61068 1.938725,0.61068 l 0.525984,-0.65801 -2.303967,1.41982"
       id="path1628"
       inkscape:connector-curvature="0"
       sodipodi:nodetypes="cccc" />
    <g
       aria-label="t"
       style="font-style:normal;font-weight:normal;font-size:10.58333302px;line-height:1.25;font-family:sans-serif;letter-spacing:0px;word-spacing:0px;fill:#000000;fill-opacity:1;stroke:none;stroke-width:0.26458332"
       id="text881"
       transform="matrix(0.39294864,0,0,0.43638785,2.5685516,113.74322)">
      <path
         d="m 24.989687,192.92986 v 1.64331 h 1.958537 v 0.73897 h -1.958537 v 3.14193 q 0,0.70797 0.191203,0.90951 0.19637,0.20153 0.790649,0.20153 h 0.976685 v 0.79582 h -0.976685 q -1.100708,0 -1.519287,-0.40824 -0.418579,-0.41341 -0.418579,-1.49862 v -3.14193 h -0.697632 v -0.73897 h 0.697632 v -1.64331 z"
         style="stroke:#393939;stroke-width:0.26386607;stroke-miterlimit:4;stroke-dasharray:none;stroke-opacity:1"
         id="path883"
         inkscape:connector-curvature="0" />
    </g>
    <g
       aria-label="IN"
       transform="matrix(4.732828,0,0,1.1125633,-1.8961408,-180.82875)"
       style="font-style:normal;font-weight:normal;font-size:2.29081178px;line-height:1.25;font-family:sans-serif;letter-spacing:0px;word-spacing:0px;fill:#000000;fill-opacity:1;stroke:none;stroke-width:0.0572703"
       id="text1613">
      <path
         d="m 0.5499252,346.99399 0.1036946,0.12368 0.0146706,0.83336 -0.11836515,0.028 z"
         style="stroke-width:0.04398336"
         id="path1619"
         inkscape:connector-curvature="0"
         sodipodi:nodetypes="ccccc" />
      <path
         d="m 0.88322154,347.09184 0.15570746,0.0337 0.3195521,0.85913 0.059415,-0.77713 0.1121997,0.0243 -0.071023,0.92894 -0.1557074,-0.0337 -0.3195522,-0.85913 -0.0594153,0.77712 -0.078601,-0.0645 z"
         style="stroke-width:0.03080847"
         id="path1621"
         inkscape:connector-curvature="0"
         sodipodi:nodetypes="ccccccccccc" />
    </g>
    <g
       aria-label="CV"
       transform="matrix(1.7748513,0.54320211,-0.36777503,0.63681889,136.6389,-13.459195)"
       style="font-style:normal;font-weight:normal;font-size:2.29081178px;line-height:1.25;font-family:sans-serif;letter-spacing:0px;word-spacing:0px;fill:#000000;fill-opacity:1;stroke:none;stroke-width:0.0572703"
       id="text1617">
      <path
         d="m 2.1094207,349.41128 0.062449,0.25233 c -0.065759,-0.0858 -0.103237,-0.0308 -0.1661177,-0.0804 -0.062421,-0.0495 -0.153729,-0.11711 -0.2139003,-0.13093 -0.1184897,-0.0272 -0.1907271,-0.0729 -0.2230037,0.0364 -0.032459,0.10863 -0.019762,0.27994 0.038102,0.51372 0.057662,0.23296 0.1333123,0.4187 0.226949,0.55718 0.093442,0.13769 0.1994059,0.22017 0.3178962,0.24745 0.060165,0.0139 0.016712,-0.11664 0.060734,-0.1417 0.044556,-0.0243 0.1325179,0.13315 0.1611521,0.0689 l 0.061863,0.24994 c -0.034979,0.0457 -0.032488,-0.002 -0.080461,0.0155 -0.047534,0.016 -0.1019293,0.0168 -0.1630022,0.002 -0.1568964,-0.0362 -0.300726,-0.14634 -0.4314414,-0.33059 -0.1309144,-0.18504 -0.1193767,-0.18737 -0.1895494,-0.47089 -0.070367,-0.2843 -0.1927299,-0.72975 -0.1429344,-0.87243 0.049602,-0.1435 0.1528596,-0.19714 0.3097605,-0.161 0.062025,0.0143 0.1238566,0.0419 0.1855226,0.083 0.061923,0.0403 0.123909,0.0941 0.1859048,0.16121 z"
         style="stroke-width:0.04509026"
         id="path1625"
         inkscape:connector-curvature="0"
         sodipodi:nodetypes="cccscscsccccscscsccc" />
      <path
         d="m 2.6899335,350.90076 -0.469466,-1.20295 0.067903,-0.46706 0.5290791,1.40603 0.1099143,-1.27467 h 0.2348977 l -0.2161775,1.53865 z"
         style="stroke-width:0.0572703"
         id="path1627"
         inkscape:connector-curvature="0"
         sodipodi:nodetypes="cccccccc" />
    </g>
  </g>
</svg>
