<?xml version="1.0" encoding="UTF-8" standalone="no"?>
<!-- Created with Inkscape (http://www.inkscape.org/) -->

<svg
   xmlns:dc="http://purl.org/dc/elements/1.1/"
   xmlns:cc="http://creativecommons.org/ns#"
   xmlns:rdf="http://www.w3.org/1999/02/22-rdf-syntax-ns#"
   xmlns:svg="http://www.w3.org/2000/svg"
   xmlns="http://www.w3.org/2000/svg"
   xmlns:sodipodi="http://sodipodi.sourceforge.net/DTD/sodipodi-0.dtd"
   xmlns:inkscape="http://www.inkscape.org/namespaces/inkscape"
   width="195"
   height="380"
   viewBox="0 0 51.593743 100.54167"
   version="1.1"
   id="svg8"
   inkscape:version="0.92.2 5c3e80d, 2017-08-06"
   sodipodi:docname="ComputerscareDrolyPawPanel.svg"
   style="enable-background:new">
  <defs
     id="defs2" />
  <sodipodi:namedview
     id="base"
     pagecolor="#ffffff"
     bordercolor="#666666"
     borderopacity="1.0"
     inkscape:pageopacity="0.0"
     inkscape:pageshadow="2"
     inkscape:zoom="1.0000001"
     inkscape:cx="81.426915"
     inkscape:cy="327.56905"
     inkscape:document-units="mm"
     inkscape:current-layer="g1669"
     showgrid="false"
     units="px"
     inkscape:snap-bbox="true"
     inkscape:snap-page="true"
     inkscape:bbox-nodes="true"
     inkscape:snap-bbox-edge-midpoints="true"
     inkscape:window-width="1440"
     inkscape:window-height="856"
     inkscape:window-x="0"
     inkscape:window-y="0"
     inkscape:window-maximized="0"
     inkscape:snap-global="false"
     showguides="false"
     inkscape:lockguides="false" />
  <metadata
     id="metadata5">
    <rdf:RDF>
      <cc:Work
         rdf:about="">
        <dc:format>image/svg+xml</dc:format>
        <dc:type
           rdf:resource="http://purl.org/dc/dcmitype/StillImage" />
        <dc:title />
      </cc:Work>
    </rdf:RDF>
  </metadata>
  <g
     inkscape:label="Layer 1"
     inkscape:groupmode="layer"
     id="layer1"
     transform="translate(0,-196.45832)"
     style="display:none">
    <path
       style="opacity:1;vector-effect:none;fill:#f0f0f0;fill-opacity:1;fill-rule:evenodd;stroke:none;stroke-width:0.48607069;stroke-linecap:butt;stroke-linejoin:round;stroke-miterlimit:4;stroke-dasharray:none;stroke-dashoffset:0;stroke-opacity:1;paint-order:normal"
       d="M 0,196.45831 H 23.8125 V 296.99999 H 0 Z"
       id="rect817"
       inkscape:connector-curvature="0" />
    <text
       xml:space="preserve"
       style="font-style:normal;font-weight:normal;font-size:10.58333302px;line-height:1.25;font-family:sans-serif;letter-spacing:0px;word-spacing:0px;fill:#000000;fill-opacity:1;stroke:none;stroke-width:0.26458332"
       x="8.2147436"
       y="295.57718"
       id="text1490"
       transform="rotate(1.4468834)"><tspan
         sodipodi:role="line"
         id="tspan1488"
         x="8.2147436"
         y="295.57718"
         style="font-style:normal;font-variant:normal;font-weight:normal;font-stretch:normal;font-size:2.82222223px;font-family:sans-serif;-inkscape-font-specification:'sans-serif, Normal';font-variant-ligatures:normal;font-variant-caps:normal;font-variant-numeric:normal;font-feature-settings:normal;text-align:start;writing-mode:lr-tb;text-anchor:start;stroke-width:0.26458332">computerscare</tspan></text>
    <text
       transform="rotate(-5.9989835)"
       id="text1494"
       y="288.0314"
       x="-28.710276"
       style="font-style:normal;font-weight:normal;font-size:10.58333302px;line-height:1.25;font-family:sans-serif;letter-spacing:0px;word-spacing:0px;fill:#000000;fill-opacity:1;stroke:none;stroke-width:0.26458332"
       xml:space="preserve"><tspan
         style="font-style:normal;font-variant:normal;font-weight:normal;font-stretch:normal;font-size:2.82222223px;font-family:sans-serif;-inkscape-font-specification:'sans-serif, Normal';font-variant-ligatures:normal;font-variant-caps:normal;font-variant-numeric:normal;font-feature-settings:normal;text-align:start;writing-mode:lr-tb;text-anchor:start;stroke-width:0.26458332"
         y="288.0314"
         x="-28.710276"
         id="tspan1492"
         sodipodi:role="line">trg</tspan></text>
    <text
       xml:space="preserve"
       style="font-style:normal;font-weight:normal;font-size:10.58333302px;line-height:1.25;font-family:sans-serif;letter-spacing:0px;word-spacing:0px;fill:#000000;fill-opacity:1;stroke:none;stroke-width:0.26458332"
       x="20.711658"
       y="288.87244"
       id="text1498"
       transform="rotate(1.9714728)"><tspan
         sodipodi:role="line"
         id="tspan1496"
         x="20.711658"
         y="288.87244"
         style="font-style:normal;font-variant:normal;font-weight:normal;font-stretch:normal;font-size:2.82222223px;font-family:sans-serif;-inkscape-font-specification:'sans-serif, Normal';font-variant-ligatures:normal;font-variant-caps:normal;font-variant-numeric:normal;font-feature-settings:normal;text-align:start;writing-mode:lr-tb;text-anchor:start;stroke-width:0.26458332">in</tspan></text>
    <text
       transform="rotate(0.49746114)"
       id="text1521"
       y="289.16214"
       x="20.314623"
       style="font-style:normal;font-weight:normal;font-size:10.58333302px;line-height:1.25;font-family:sans-serif;letter-spacing:0px;word-spacing:0px;fill:#000000;fill-opacity:1;stroke:none;stroke-width:0.26458332"
       xml:space="preserve"><tspan
         style="font-style:normal;font-variant:normal;font-weight:normal;font-stretch:normal;font-size:3.17499995px;font-family:sans-serif;-inkscape-font-specification:'sans-serif, Normal';font-variant-ligatures:normal;font-variant-caps:normal;font-variant-numeric:normal;font-feature-settings:normal;text-align:start;writing-mode:lr-tb;text-anchor:start;stroke-width:0.26458332"
         y="289.16214"
         x="20.314623"
         id="tspan1519"
         sodipodi:role="line">clr</tspan></text>
    <text
       transform="matrix(1.0139335,-0.02825079,0.06854811,0.98434808,0,0)"
       id="text1645"
       y="204.61243"
       x="-10.296249"
       style="font-style:normal;font-weight:normal;font-size:10.74719143px;line-height:1.25;font-family:sans-serif;letter-spacing:0px;word-spacing:0px;fill:#000000;fill-opacity:1;stroke:none;stroke-width:0.26867977"
       xml:space="preserve"><tspan
         style="font-style:normal;font-variant:normal;font-weight:normal;font-stretch:normal;font-size:5.01535606px;font-family:sans-serif;-inkscape-font-specification:'sans-serif, Normal';font-variant-ligatures:normal;font-variant-caps:normal;font-variant-numeric:normal;font-feature-settings:normal;text-align:start;writing-mode:lr-tb;text-anchor:start;stroke-width:0.26867977"
         y="204.61243"
         x="-10.296249"
         id="tspan1643"
         sodipodi:role="line">debug</tspan></text>
  </g>
  <g
     inkscape:groupmode="layer"
     id="layer3"
     inkscape:label="bg" />
  <g
     style="display:inline"
     transform="translate(0,-196.45832)"
     id="g1669"
     inkscape:groupmode="layer"
     inkscape:label="Layer 1 copy">
    <g
       aria-label="computerscare"
       transform="matrix(0.38338519,-0.00924288,0.08484304,0.65509696,14.227773,102.46845)"
       style="font-style:normal;font-weight:normal;font-size:10.58333302px;line-height:1.25;font-family:sans-serif;letter-spacing:0px;word-spacing:0px;fill:#c0c0c0;fill-opacity:1;stroke:none;stroke-width:0.26458332"
       id="text1651">
      <path
         d="m 9.9760949,292.67378 -0.1009611,0.59165 q -0.087141,-0.11974 -0.1886569,-0.16337 -0.099493,-0.0474 -0.2148881,-0.0179 -0.2578982,0.0645 -0.4674243,0.49227 -0.2089549,0.42435 -0.3292933,1.12957 -0.1203239,0.70513 -0.044615,1.06163 0.076296,0.35306 0.3341787,0.2886 0.115247,-0.0287 0.2399006,-0.12884 0.1267206,-0.10408 0.2643495,-0.28018 L 9.3689,296.23197 q -0.132091,0.1517 -0.2621834,0.24323 -0.1286971,0.0915 -0.2626785,0.12496 -0.3644565,0.0909 -0.4858203,-0.40217 -0.1213337,-0.49327 0.037154,-1.42204 0.1608387,-0.94257 0.469097,-1.53664 0.3096959,-0.59443 0.6871539,-0.68879 0.1224309,-0.0305 0.228451,0.003 0.1067073,0.0294 0.195649,0.12242 z"
         style="font-style:normal;font-variant:normal;font-weight:normal;font-stretch:normal;font-size:2.82222223px;font-family:sans-serif;-inkscape-font-specification:'sans-serif, Normal';font-variant-ligatures:normal;font-variant-caps:normal;font-variant-numeric:normal;font-feature-settings:normal;text-align:start;writing-mode:lr-tb;text-anchor:start;fill:#c0c0c0;fill-opacity:1;stroke-width:0.41820639"
         id="path1701"
         inkscape:connector-curvature="0" />
      <path
         d="m 11.014763,292.69735 q -0.213247,0.0535 -0.405208,0.4833 -0.191403,0.42657 -0.309383,1.11798 -0.117985,0.69142 -0.06362,1.05982 0.0564,0.36461 0.27105,0.31098 0.211771,-0.0529 0.40377,-0.48294 0.191989,-0.43001 0.309385,-1.11799 0.116808,-0.68452 0.061,-1.05261 -0.05521,-0.37151 -0.267003,-0.31854 z m 0.09157,-0.53661 q 0.345737,-0.0863 0.451568,0.40082 0.105796,0.48733 -0.05621,1.43672 -0.161426,0.94599 -0.45095,1.53536 -0.288942,0.58596 -0.634702,0.67239 -0.347213,0.0868 -0.4530116,-0.40047 -0.1037722,-0.49109 0.057649,-1.43707 0.162009,-0.9494 0.449511,-1.53501 0.28894,-0.58594 0.636144,-0.67274 z"
         style="font-style:normal;font-variant:normal;font-weight:normal;font-stretch:normal;font-size:2.82222223px;font-family:sans-serif;-inkscape-font-specification:'sans-serif, Normal';font-variant-ligatures:normal;font-variant-caps:normal;font-variant-numeric:normal;font-feature-settings:normal;text-align:start;writing-mode:lr-tb;text-anchor:start;fill:#c0c0c0;fill-opacity:1;stroke-width:0.41820639"
         id="path1703"
         inkscape:connector-curvature="0" />
      <path
         d="m 13.316001,292.48211 q 0.150555,-0.43119 0.309452,-0.63787 0.158888,-0.20665 0.338446,-0.20975 0.24166,-0.004 0.318075,0.41992 0.07682,0.42052 -0.02391,1.20352 l -0.301335,2.34217 -0.255463,0.004 0.298653,-2.32141 q 0.07177,-0.55779 0.02782,-0.82676 -0.04396,-0.2689 -0.20555,-0.26621 -0.197494,0.003 -0.354471,0.33433 -0.15698,0.33111 -0.230083,0.89933 l -0.282193,2.19319 -0.255465,0.004 0.298654,-2.32141 q 0.07221,-0.56127 0.02781,-0.82676 -0.04396,-0.2689 -0.208313,-0.26616 -0.194731,0.003 -0.352156,0.33776 -0.156978,0.33109 -0.229636,0.89586 l -0.28218,2.19315 -0.255458,0.004 0.49922,-3.88052 0.255462,-0.004 -0.07756,0.60285 q 0.132925,-0.3583 0.2763,-0.53013 0.14336,-0.17166 0.310482,-0.17452 0.168498,-0.003 0.258268,0.20992 0.09117,0.21264 0.09517,0.62069 z"
         style="font-style:normal;font-variant:normal;font-weight:normal;font-stretch:normal;font-size:2.82222223px;font-family:sans-serif;-inkscape-font-specification:'sans-serif, Normal';font-variant-ligatures:normal;font-variant-caps:normal;font-variant-numeric:normal;font-feature-settings:normal;text-align:start;writing-mode:lr-tb;text-anchor:start;fill:#c0c0c0;fill-opacity:1;stroke-width:0.41955003"
         id="path1705"
         inkscape:connector-curvature="0" />
      <path
         d="m 14.734143,294.85637 -0.129038,1.40164 -0.255504,0.003 0.335846,-3.64805 0.255504,-0.003 -0.03693,0.40113 q 0.101831,-0.23676 0.233793,-0.35125 0.133558,-0.11682 0.303434,-0.11852 0.281746,-0.003 0.421953,0.37768 0.141589,0.38049 0.08424,1.00346 -0.05735,0.62295 -0.269324,1.00698 -0.210591,0.38403 -0.492336,0.38685 -0.169876,0.002 -0.282374,-0.11025 -0.110897,-0.11436 -0.169273,-0.34957 z m 0.949509,-0.9313 q 0.0441,-0.47903 -0.04693,-0.74922 -0.08943,-0.27257 -0.291074,-0.27055 -0.201641,0.002 -0.342853,0.2769 -0.139613,0.27251 -0.183713,0.75154 -0.0441,0.47901 0.04533,0.75158 0.09103,0.27019 0.292673,0.26817 0.201641,-0.002 0.341254,-0.27453 0.141212,-0.27488 0.18531,-0.75389 z"
         style="font-style:normal;font-variant:normal;font-weight:normal;font-stretch:normal;font-size:2.82222223px;font-family:sans-serif;-inkscape-font-specification:'sans-serif, Normal';font-variant-ligatures:normal;font-variant-caps:normal;font-variant-numeric:normal;font-feature-settings:normal;text-align:start;writing-mode:lr-tb;text-anchor:start;fill:#c0c0c0;fill-opacity:1;stroke-width:0.34644955"
         id="path1707"
         inkscape:connector-curvature="0" />
      <path
         d="m 16.210004,295.2805 0.09716,-1.38005 0.259005,-0.0968 -0.09616,1.3658 q -0.02278,0.32363 0.05302,0.454 0.07595,0.1283 0.250463,0.0635 0.209688,-0.0777 0.344368,-0.31639 0.136063,-0.23892 0.159566,-0.57275 l 0.091,-1.29249 0.259005,-0.0968 -0.160504,2.27973 -0.259004,0.0968 0.02465,-0.35011 q -0.108923,0.24267 -0.241346,0.39105 -0.130867,0.14565 -0.295553,0.20707 -0.271656,0.10125 -0.395191,-0.0908 -0.123548,-0.19193 -0.09045,-0.6621 z"
         style="font-style:normal;font-variant:normal;font-weight:normal;font-stretch:normal;font-size:2.82222223px;font-family:sans-serif;-inkscape-font-specification:'sans-serif, Normal';font-variant-ligatures:normal;font-variant-caps:normal;font-variant-numeric:normal;font-feature-settings:normal;text-align:start;writing-mode:lr-tb;text-anchor:start;fill:#c0c0c0;fill-opacity:1;stroke-width:0.32069376"
         id="path1709"
         inkscape:connector-curvature="0" />
      <path
         d="m 18.424417,293.23534 -0.04535,0.64316 0.52304,-0.003 -0.02039,0.28922 -0.52304,0.003 -0.08671,1.22966 q -0.01954,0.27708 0.02596,0.35563 0.04689,0.0785 0.20559,0.0774 l 0.260829,-0.002 -0.02196,0.31147 -0.260831,0.002 q -0.293951,0.002 -0.394469,-0.15711 -0.100375,-0.16106 -0.07043,-0.58578 l 0.08671,-1.22967 -0.186307,10e-4 0.02039,-0.28921 0.186307,-10e-4 0.04535,-0.64316 z"
         style="font-style:normal;font-variant:normal;font-weight:normal;font-stretch:normal;font-size:2.82222223px;font-family:sans-serif;-inkscape-font-specification:'sans-serif, Normal';font-variant-ligatures:normal;font-variant-caps:normal;font-variant-numeric:normal;font-feature-settings:normal;text-align:start;writing-mode:lr-tb;text-anchor:start;fill:#c0c0c0;fill-opacity:1;stroke-width:0.32069376"
         id="path1711"
         inkscape:connector-curvature="0" />
      <path
         d="m 20.52852,294.11024 -0.0129,0.18319 -1.190716,0.44291 q -0.01033,0.38044 0.118893,0.5306 0.130782,0.1476 0.388352,0.0517 0.149237,-0.0561 0.292256,-0.16026 0.144471,-0.10525 0.289855,-0.26241 l -0.02494,0.35419 q -0.145364,0.13738 -0.294894,0.23663 -0.149521,0.0991 -0.30012,0.15514 -0.377205,0.14038 -0.575823,-0.0949 -0.197206,-0.2359 -0.159086,-0.77735 0.03941,-0.55973 0.270787,-0.96492 0.232926,-0.40774 0.587607,-0.53966 0.318052,-0.11784 0.481535,0.11037 0.165003,0.22608 0.129177,0.73493 z m -0.251244,-0.0134 q 0.0188,-0.30628 -0.0851,-0.44606 -0.102511,-0.1403 -0.293929,-0.0691 -0.216719,0.0802 -0.360109,0.30638 -0.141954,0.22525 -0.184301,0.55417 z"
         style="font-style:normal;font-variant:normal;font-weight:normal;font-stretch:normal;font-size:2.82222223px;font-family:sans-serif;-inkscape-font-specification:'sans-serif, Normal';font-variant-ligatures:normal;font-variant-caps:normal;font-variant-numeric:normal;font-feature-settings:normal;text-align:start;writing-mode:lr-tb;text-anchor:start;fill:#c0c0c0;fill-opacity:1;stroke-width:0.32069376"
         id="path1713"
         inkscape:connector-curvature="0" />
      <path
         d="m 21.847443,294.20335 q -0.04021,-0.0361 -0.09014,-0.0519 -0.0484,-0.0179 -0.10912,-0.0175 -0.215288,10e-4 -0.345759,0.20848 -0.128948,0.20502 -0.156045,0.5893 l -0.08414,1.19326 -0.255309,0.002 0.15973,-2.26518 0.255309,-0.002 -0.02481,0.3519 q 0.09459,-0.20682 0.229922,-0.30676 0.135475,-0.10197 0.319022,-0.10318 0.02622,-1.7e-4 0.05755,0.005 0.03143,0.004 0.06935,0.0142 z"
         style="font-style:normal;font-variant:normal;font-weight:normal;font-stretch:normal;font-size:2.82222223px;font-family:sans-serif;-inkscape-font-specification:'sans-serif, Normal';font-variant-ligatures:normal;font-variant-caps:normal;font-variant-numeric:normal;font-feature-settings:normal;text-align:start;writing-mode:lr-tb;text-anchor:start;fill:#c0c0c0;fill-opacity:1;stroke-width:0.32069376"
         id="path1715"
         inkscape:connector-curvature="0" />
      <path
         d="m 23.213537,294.03575 -0.05948,0.3484 q -0.09121,-0.10238 -0.197314,-0.16636 -0.106095,-0.0641 -0.227115,-0.0897 -0.18421,-0.0391 -0.291357,0.0254 -0.105807,0.0648 -0.134514,0.23291 -0.02188,0.12821 0.03135,0.21621 0.05358,0.0861 0.241298,0.19437 l 0.07993,0.046 q 0.249179,0.14007 0.333124,0.31756 0.08563,0.17584 0.03879,0.45018 -0.05333,0.31235 -0.251172,0.45919 -0.196497,0.14711 -0.486936,0.0855 -0.121019,-0.0256 -0.246639,-0.0896 -0.124623,-0.0617 -0.257859,-0.16266 l 0.06495,-0.38043 q 0.119039,0.1352 0.242919,0.21752 0.124231,0.0803 0.254665,0.1079 0.174798,0.0371 0.283962,-0.0311 0.109502,-0.0701 0.137195,-0.23232 0.02565,-0.15018 -0.02926,-0.24482 -0.05356,-0.0943 -0.270839,-0.2172 l -0.08092,-0.0483 q -0.217631,-0.12077 -0.294517,-0.29071 -0.07655,-0.17183 -0.03211,-0.43215 0.05401,-0.31635 0.234013,-0.45661 0.179997,-0.14025 0.456989,-0.0815 0.137157,0.029 0.253029,0.0849 0.115883,0.0557 0.207828,0.13741 z"
         style="font-style:normal;font-variant:normal;font-weight:normal;font-stretch:normal;font-size:2.82222223px;font-family:sans-serif;-inkscape-font-specification:'sans-serif, Normal';font-variant-ligatures:normal;font-variant-caps:normal;font-variant-numeric:normal;font-feature-settings:normal;text-align:start;writing-mode:lr-tb;text-anchor:start;fill:#c0c0c0;fill-opacity:1;stroke-width:0.32069376"
         id="path1717"
         inkscape:connector-curvature="0" />
      <path
         d="m 24.768544,294.17588 c -0.103118,0.23516 -0.308132,-0.0445 -0.547118,0.007 -0.16553,0.021 -0.295137,0.11388 -0.388828,0.27865 -0.09367,0.16341 -0.14243,0.38279 -0.146279,0.65815 -0.0039,0.27535 0.03893,0.48377 0.128341,0.62529 0.08942,0.14024 0.216907,0.19974 0.382435,0.17873 0.07397,-0.009 0.147224,-0.0327 0.219756,-0.0701 0.07346,-0.0388 0.146666,-0.0916 0.219608,-0.15864 l -0.0048,0.34251 c -0.07188,0.0574 -0.146368,0.10306 -0.223454,0.13687 -0.07617,0.0338 -0.157252,0.0562 -0.243247,0.067 -0.23396,0.0297 -0.418345,-0.0534 -0.553143,-0.24957 -0.134802,-0.19607 -0.199668,-0.47544 -0.194599,-0.8381 0.0051,-0.36806 0.07855,-0.66632 0.220204,-0.89481 0.142584,-0.22862 0.335017,-0.3583 0.5773,-0.38906 0.07866,-0.0108 0.155239,-0.008 0.229736,0.007 0.07463,0.0127 0.398637,0.18967 0.468262,0.22779 z"
         style="font-style:normal;font-variant:normal;font-weight:normal;font-stretch:normal;font-size:2.82222223px;font-family:sans-serif;-inkscape-font-specification:'sans-serif, Normal';font-variant-ligatures:normal;font-variant-caps:normal;font-variant-numeric:normal;font-feature-settings:normal;text-align:start;writing-mode:lr-tb;text-anchor:start;fill:#c0c0c0;fill-opacity:1;stroke-width:0.32069376"
         id="path1719"
         inkscape:connector-curvature="0"
         sodipodi:nodetypes="cccccccccccccccccc" />
      <path
         d="m 26.091921,294.78039 c -0.264,0.0284 -0.45673,0.0856 -0.578217,0.17187 -0.121489,0.0862 -0.20594,0.22012 -0.253337,0.40159 -0.03782,0.1446 -0.03001,0.25572 0.02341,0.33317 0.055,0.0758 0.148196,0.10656 0.279583,0.0926 0.181145,-0.0195 0.346986,-0.1148 0.497524,-0.28581 0.152124,-0.17269 0.262885,-0.39188 0.332283,-0.65753 l 0.02365,-0.0907 z m 0.695661,-0.23821 -0.369539,1.41463 -0.326708,0.0349 0.0983,-0.37634 c -0.113917,0.15854 -0.235961,0.27996 -0.366129,0.36425 -0.129775,0.0827 -0.275177,0.13281 -0.436192,0.15011 -0.203642,0.0219 -0.347321,-0.0316 -0.431044,-0.16027 -0.08217,-0.13032 -0.09202,-0.31505 -0.02955,-0.55415 0.07286,-0.27894 0.20238,-0.49724 0.388559,-0.65494 0.187363,-0.15782 0.429617,-0.2527 0.726765,-0.28461 l 0.458166,-0.0492 0.0103,-0.0397 c 0.04896,-0.18744 0.03702,-0.32674 -0.03582,-0.4179 -0.07126,-0.0928 -0.196285,-0.12956 -0.375045,-0.11034 -0.113666,0.0125 -0.228781,0.0411 -0.345391,0.0866 -0.11659,0.0455 -0.202079,0.0225 -0.319264,0.10097 l 0.06689,-0.29121 c 0.13459,-0.0703 0.261786,-0.12553 0.38158,-0.1657 0.120166,-0.0416 0.233541,-0.0681 0.340111,-0.0795 0.287693,-0.0309 0.478275,0.039 0.571739,0.20973 0.09349,0.17071 0.09088,0.44498 -0.0078,0.8228 z"
         style="font-style:normal;font-variant:normal;font-weight:normal;font-stretch:normal;font-size:2.82222223px;font-family:sans-serif;-inkscape-font-specification:'sans-serif, Normal';font-variant-ligatures:normal;font-variant-caps:normal;font-variant-numeric:normal;font-feature-settings:normal;text-align:start;writing-mode:lr-tb;text-anchor:start;fill:#c0c0c0;fill-opacity:1;stroke-width:0.37530971"
         id="path1721"
         inkscape:connector-curvature="0"
         sodipodi:nodetypes="ccccccccccccccccccccccccccccccc" />
      <path
         d="m 29.006949,292.72761 q -0.044,-0.0524 -0.108923,-0.0757 -0.062,-0.0263 -0.148047,-0.0259 -0.304995,10e-4 -0.563564,0.30072 -0.255672,0.29662 -0.431396,0.85358 l -0.5457,1.72948 -0.361687,10e-4 1.03578,-3.28308 0.361686,-10e-4 -0.160935,0.51001 q 0.207731,-0.2994 0.434872,-0.4437 0.22812,-0.14747 0.488122,-0.1483 0.03715,-1.3e-4 0.07942,0.008 0.04272,0.007 0.09301,0.0208 z"
         style="font-style:normal;font-variant:normal;font-weight:normal;font-stretch:normal;font-size:2.82222223px;font-family:sans-serif;-inkscape-font-specification:'sans-serif, Normal';font-variant-ligatures:normal;font-variant-caps:normal;font-variant-numeric:normal;font-feature-settings:normal;text-align:start;writing-mode:lr-tb;text-anchor:start;fill:#c0c0c0;fill-opacity:1;stroke-width:0.45937654"
         id="path1723"
         inkscape:connector-curvature="0" />
      <path
         d="m 31.968893,294.55309 -0.118086,0.35388 -2.716995,0.28561 c -0.139974,0.49799 -0.212679,0.59994 -0.07627,0.86148 0.139624,0.25904 0.410527,0.3878 0.812606,0.38668 0.232904,-6.7e-4 0.469438,-0.0352 0.709752,-0.10399 0.242517,-0.0689 0.870432,-0.30054 1.131301,-0.43755 l -0.2285,0.68425 c -0.254321,0.11081 -0.881653,0.32427 -1.129403,0.38254 -0.247753,0.0586 -0.489187,0.0877 -0.724242,0.0884 -0.588792,9.5e-4 -0.987447,-0.20145 -1.195882,-0.60953 -0.206206,-0.40798 -0.192897,-0.96066 0.03993,-1.65798 0.240848,-0.72092 0.594108,-1.29289 1.060246,-1.71588 0.469177,-0.4256 0.980613,-0.63917 1.5343,-0.64072 0.496596,-0.002 0.824828,0.18903 0.984903,0.57081 0.163105,0.37933 0.135243,0.89668 -0.08358,1.55205 z m -0.535557,-0.21052 c 0.127621,-0.39582 0.139809,-0.71148 0.03619,-0.94688 -0.101362,-0.23548 -0.301491,-0.35272 -0.600299,-0.35191 -0.338369,9.5e-4 -0.647866,0.1159 -0.928294,0.34441 -0.278298,0.2286 -0.218432,0.50879 -0.387513,0.92307 z"
         style="font-style:normal;font-variant:normal;font-weight:normal;font-stretch:normal;font-size:2.82222223px;font-family:sans-serif;-inkscape-font-specification:'sans-serif, Normal';font-variant-ligatures:normal;font-variant-caps:normal;font-variant-numeric:normal;font-feature-settings:normal;text-align:start;writing-mode:lr-tb;text-anchor:start;fill:#c0c0c0;fill-opacity:1;stroke-width:0.69087815"
         id="path1725"
         inkscape:connector-curvature="0"
         sodipodi:nodetypes="ccccscccsscscscccccsccc" />
    </g>
    <g
       id="g9547"
       transform="matrix(0.30554503,-0.05394163,0,0.21249461,42.063555,289.7971)">
      <g
         style="display:inline"
         inkscape:label="Layer 1"
         id="layer4" />
      <path
         id="rect5872"
         d="m 12.605219,9.0215043 7.506419,0.793059 0.264163,4.0796587 -8.132372,-0.990214 z"
         style="opacity:1;fill:#858585;fill-opacity:1;stroke:#000000;stroke-width:0;stroke-miterlimit:4;stroke-dasharray:none;stroke-opacity:1"
         inkscape:connector-curvature="0"
         sodipodi:nodetypes="ccccc" />
      <path
         id="rect5874"
         d="m 15.211334,10.654293 4.066187,0.495107 -0.120597,1.294169 -4.066187,-0.495107 z"
         style="opacity:1;fill:#000000;fill-opacity:0.98571424;stroke:#000000;stroke-width:0;stroke-miterlimit:4;stroke-dasharray:none;stroke-opacity:1"
         inkscape:connector-curvature="0" />
      <path
         id="rect5878"
         d="m 30.247132,11.169619 -8.130364,-0.989969 -0.361791,3.882504 8.130365,0.98997 z"
         style="opacity:1;fill:#858585;fill-opacity:1;stroke:#000000;stroke-width:0;stroke-miterlimit:4;stroke-dasharray:none;stroke-opacity:1"
         inkscape:connector-curvature="0" />
      <path
         id="rect5880"
         d="m 27.399278,12.138322 -3.246053,-0.189811 -0.120596,1.294169 3.827526,0.370394 z"
         style="opacity:1;fill:#000000;fill-opacity:0.98571424;stroke:#000000;stroke-width:0;stroke-miterlimit:4;stroke-dasharray:none;stroke-opacity:1"
         inkscape:connector-curvature="0"
         sodipodi:nodetypes="ccccc" />
      <path
         id="rect5882"
         d="m 20.270265,15.206188 1.355395,0.165036 -0.36179,3.882505 -1.355396,-0.165036 z"
         style="opacity:1;fill:#b6b6b6;fill-opacity:1;stroke:#000000;stroke-width:0;stroke-miterlimit:4;stroke-dasharray:none;stroke-opacity:1"
         inkscape:connector-curvature="0" />
      <path
         id="rect5884"
         d="m 21.01064,17.12857 2.611131,0.46357 -0.182892,1.962678 -2.52542,-0.395588 z"
         style="opacity:1;fill:#b6b6b6;fill-opacity:1;stroke:#000000;stroke-width:0;stroke-miterlimit:4;stroke-dasharray:none;stroke-opacity:1"
         inkscape:connector-curvature="0"
         sodipodi:nodetypes="ccccc" />
      <path
         id="rect5886"
         d="m 11.611005,19.404058 2.818472,0.35304 -0.247754,2.586672 -2.818471,-0.353039 z"
         style="opacity:1;fill:#b6b6b6;fill-opacity:1;stroke:#000000;stroke-width:0;stroke-miterlimit:4;stroke-dasharray:none;stroke-opacity:1"
         inkscape:connector-curvature="0" />
      <path
         id="rect5888"
         d="m 27.902251,21.386848 2.299059,0.168386 0.203597,2.754048 -2.743849,-0.334097 z"
         style="opacity:1;fill:#b6b6b6;fill-opacity:1;stroke:#000000;stroke-width:0;stroke-miterlimit:4;stroke-dasharray:none;stroke-opacity:1"
         inkscape:connector-curvature="0"
         sodipodi:nodetypes="ccccc" />
      <path
         id="rect5890"
         d="m 14.348295,19.73649 13.587014,1.654383 -0.120597,1.294168 -13.587014,-1.654383 z"
         style="opacity:1;fill:#b6b6b6;fill-opacity:1;stroke:#000000;stroke-width:0;stroke-miterlimit:4;stroke-dasharray:none;stroke-opacity:1"
         inkscape:connector-curvature="0" />
    </g>
    <path
       style="fill:#fafafa;fill-opacity:1;stroke:none;stroke-width:0.27579898;stroke-linecap:round;stroke-linejoin:bevel;stroke-miterlimit:4;stroke-dasharray:none;stroke-opacity:0.60101007;paint-order:stroke fill markers"
       id="path8016"
       d="m 6.0360983,196.73558 c 0.2392203,0.3543 0.5831878,0.69307 0.8989232,1.03559 0.5063882,0.51992 0.9335153,1.05276 1.3117839,1.59205 0.2284917,0.32803 0.3995889,0.65639 0.4850129,0.99655 0.024502,0.11705 0.039781,0.23431 0.04308,0.3518 0.00879,0.20125 -0.1175559,0.11208 -0.9646619,0.28221 -0.00221,4.4e-4 -0.090701,-0.0406 -0.091944,-0.0412 -0.095219,-0.0624 -0.1705545,-0.12949 -0.2580609,-0.19399 -0.2211782,-0.16786 -0.4698213,-0.32907 -0.7043788,-0.49378 -0.3758228,-0.2517 -0.7831517,-0.49397 -1.2325212,-0.7224 -0.3473684,-0.15805 -0.7207821,-0.31364 -1.1732388,-0.4162 -0.083861,-0.019 -0.1731762,-0.0332 -0.2597644,-0.0498 -0.4063694,-0.0574 -0.8447266,-0.10254 -1.2751427,-0.0745 -0.077398,0.005 -0.1528524,0.0145 -0.2292794,0.0218 -0.074454,0.0125 -0.1513242,0.0226 -0.2233616,0.0374 -0.07324,0.0151 -0.2832273,0.0683 -0.2112423,0.0522 0.2262468,-0.0508 0.4381824,-0.11422 0.674146,-0.15614 0.077187,-0.0137 -0.1302387,0.0451 -0.1899199,0.0701 -0.1543993,0.0648 -0.1917225,0.0941 -0.316651,0.16893 -0.2790673,0.18196 -0.3750464,0.39288 -0.4284999,0.60546 -0.033521,0.16999 -0.027584,0.34066 -0.023194,0.51106 -0.01704,0.12989 0.070318,0.22085 0.2441999,0.32343 0.2027185,0.10219 0.4670786,0.17378 0.7545453,0.22365 0.3778605,0.0548 0.7807328,0.0679 1.1766188,0.0588 0.4968768,-0.0231 0.9872558,-0.0625 1.4688602,-0.11947 0.3719508,-0.0445 0.737201,-0.0964 1.0953841,-0.15799 0.2391284,-0.0467 0.4893724,-0.0714 0.7489946,-0.0835 0.2261681,-0.007 0.4532248,-0.007 0.6798785,-0.007 0.1728683,0.003 0.349362,-0.008 0.5200534,0.005 0.1041431,0.0102 0.2113702,0.0305 0.2976257,0.0581 0.04011,0.008 0.074032,0.0196 0.1049134,0.0328 0,0 -0.9225967,0.24263 -0.9225967,0.24263 v 0 c -0.026277,-0.0109 -0.057554,-0.0189 -0.089033,-0.0267 -0.0823,-0.02 -0.1662503,-0.0394 -0.2627793,-0.0423 -0.1680644,-0.004 -0.3364786,-0.002 -0.5046976,-0.003 -0.2239659,6.6e-4 -0.448631,-4.9e-4 -0.6714382,0.011 -0.251662,0.0154 -0.4924133,0.0469 -0.7259972,0.0901 -0.3552297,0.0579 -0.7184471,0.1053 -1.0851442,0.14811 -0.4875356,0.0525 -0.9818905,0.0934 -1.4833085,0.11213 -0.4100522,0.005 -0.8263137,-0.008 -1.2129295,-0.0715 -0.3029093,-0.0558 -0.5812638,-0.132 -0.7940189,-0.24183 -0.1795098,-0.10468 -0.29542192,-0.21618 -0.26977346,-0.34952 0.001004,-0.17297 0.003532,-0.34621 0.0341844,-0.51876 0.0503491,-0.21798 0.14342276,-0.43538 0.41062266,-0.6261 0.1137553,-0.0735 0.1654362,-0.11341 0.3064889,-0.1783 0.3450608,-0.15873 0.8403662,-0.24848 1.2622346,-0.35498 0.070992,-0.0179 0.1450129,-0.0339 0.2212891,-0.0472 0.075849,-0.0133 0.155886,-0.0216 0.2338292,-0.0325 0.079064,-0.006 0.1574223,-0.0136 0.2371895,-0.017 0.4401993,-0.0188 0.8841244,0.0318 1.2937588,0.0953 0.087961,0.0182 0.178319,0.0345 0.2638873,0.0547 0.4568448,0.10796 0.83336,0.26642 1.1815733,0.43032 0.4475488,0.23171 0.8550235,0.47615 1.2464253,0.72575 0.243828,0.16303 0.5036938,0.32124 0.7487167,0.48369 0.086594,0.06 0.161916,0.12245 0.2541994,0.18062 0.013582,0.005 0.025404,0.0106 0.040745,0.0143 0.00591,10e-4 0.026076,-0.001 0.020259,2.4e-4 -0.3023188,0.0766 -0.6123697,0.14758 -0.9123932,0.22583 -0.00982,0.003 0.024358,0.006 0.033609,0.003 0.023096,-0.007 -0.023347,-0.0316 0.00747,-0.0368 0.01726,-0.11901 0.022125,-0.23843 0.00806,-0.35755 -0.048629,-0.34098 -0.2035474,-0.67539 -0.4011197,-1.00613 -0.3627471,-0.53991 -0.7762192,-1.07452 -1.3025896,-1.58965 -0.331065,-0.33799 -0.689195,-0.67072 -1.0171879,-1.00923 0,0 0.9283067,-0.22044 0.9283067,-0.22044 z"
       inkscape:connector-curvature="0" />
    <path
       style="fill:#cac2c2;fill-opacity:1;stroke:none;stroke-width:0.3129251;stroke-linecap:round;stroke-linejoin:bevel;stroke-miterlimit:4;stroke-dasharray:none;stroke-opacity:0.60101007;paint-order:stroke fill markers"
       id="path8018"
       d="m 11.740605,198.57149 c -0.01928,0.22755 0.173275,0.44471 0.313616,0.65344 0.236486,0.33847 0.486995,0.67417 0.691839,1.019 0.108005,0.16172 0.156487,0.33561 0.268287,0.49642 0.09951,-0.19573 -0.01077,0.0275 -0.941347,0.2633 -0.01676,0.004 0.0029,-0.0206 -0.0016,-0.0305 -0.01041,-0.0232 -0.02646,-0.0453 -0.04255,-0.0675 -0.06423,-0.0882 -0.101821,-0.12384 -0.182477,-0.21161 -0.327767,-0.31403 -0.65066,-0.63088 -0.929619,-0.95912 -0.205331,-0.26694 -0.376872,-0.55103 -0.416442,-0.84254 -0.0074,-0.0546 -0.0016,-0.10955 -0.0025,-0.16435 0.02764,-0.24464 0.199555,-0.47478 0.502505,-0.65556 0.05603,-0.0335 0.120317,-0.0624 0.180476,-0.0936 0.50887,-0.20564 0.270443,-0.11586 1.295031,-0.42181 0.0735,-0.022 0.151689,-0.039 0.230388,-0.0546 0.240499,-0.0474 0.496769,-0.0716 0.746742,-0.0976 0.417597,-0.0387 0.841121,-0.0474 1.263642,-0.052 0.216355,-0.001 0.432724,-0.004 0.649109,-0.004 0.07208,8.7e-4 0.14638,-0.009 0.209825,0.0116 0.06419,0.022 0.09919,0.0577 0.126704,0.0958 0.01595,0.0198 0.007,0.0103 0.02698,0.0297 0,0 -0.934868,0.29634 -0.934868,0.29634 v 0 c -0.02418,-0.0243 -0.01193,-0.0116 -0.03669,-0.0376 -0.01142,-0.0205 -0.02781,-0.0465 -0.07312,-0.0485 -0.06032,0.006 -0.124147,-0.001 -0.185203,-2.2e-4 -0.208213,-0.003 -0.416446,-0.005 -0.624721,-0.004 -0.414279,0.004 -0.829688,0.0129 -1.238244,0.0539 -0.248336,0.0278 -0.496063,0.0559 -0.732754,0.10749 -0.07761,0.0169 -0.296773,0.0832 -0.227826,0.0573 0.144589,-0.0543 1.055207,-0.35603 0.454611,-0.14485 -0.06202,0.0286 -0.128151,0.0547 -0.186055,0.0859 -0.309921,0.16658 -0.499753,0.38641 -0.543337,0.62287 -0.0013,0.0525 -0.0091,0.10518 -0.0038,0.15762 0.02913,0.28704 0.19205,0.56811 0.38962,0.83153 0.274257,0.32826 0.600568,0.64361 0.951637,0.94864 0.09357,0.0922 0.191159,0.18336 0.269322,0.27988 0.01521,0.0188 0.07344,0.0453 0.0428,0.057 -0.300137,0.11509 -0.632497,0.20279 -0.958382,0.2942 -0.01217,0.004 -0.01239,-0.0134 -0.01858,-0.0202 -0.06287,-0.17124 -0.135042,-0.3412 -0.218146,-0.50987 -0.187888,-0.34703 -0.428967,-0.68422 -0.681965,-1.01825 -0.14942,-0.21263 -0.357845,-0.42363 -0.391641,-0.65411 0,0 0.958682,-0.26941 0.958682,-0.26941 z"
       inkscape:connector-curvature="0" />
    <path
       style="fill:#c9c3c3;fill-opacity:1;stroke:none;stroke-width:0.34918991;stroke-linecap:round;stroke-linejoin:bevel;stroke-miterlimit:4;stroke-dasharray:none;stroke-opacity:0.60101007;paint-order:stroke fill markers"
       id="path8020"
       d="m 19.391784,198.61692 c -0.273079,-0.0144 -0.509561,0.0302 -0.743813,0.0878 -0.566604,0.14876 0.304322,-0.0805 0.79714,-0.19992 0.06443,-0.0156 -0.122791,0.0357 -0.183103,0.0542 -0.188168,0.0581 -0.361855,0.12333 -0.539066,0.18764 -0.327678,0.12449 -0.6421,0.25547 -0.926673,0.39933 -0.239262,0.12242 -0.433277,0.25825 -0.619385,0.39698 -0.161009,0.13033 -0.193432,0.27788 -0.208862,0.42356 -0.0116,0.1405 -0.01618,0.28137 0.0015,0.4218 0.09605,0.17119 0.44555,0.24171 0.784147,0.30233 0.47555,0.0753 0.98282,0.0949 1.484445,0.0931 0.187399,-0.0129 0.293031,-0.0158 0.473809,-0.0416 0.06491,-0.009 0.247911,-0.0497 0.189325,-0.0342 -1.728869,0.45528 -0.971209,0.25962 -0.62962,0.1214 0.304251,-0.13009 0.496719,-0.29518 0.650557,-0.46717 0.162511,-0.17029 0.265339,-0.34847 0.34865,-0.52906 0.08927,-0.16106 0.153094,-0.32391 0.189323,-0.48888 0.0025,-0.10518 0.05405,-0.21608 -0.0017,-0.31961 -0.07193,-0.0799 -0.206824,-0.14297 -0.342072,-0.2029 -0.141925,-0.0335 -0.141523,-0.0754 -0.309581,-0.0857 -0.133077,-0.004 -0.269677,-0.014 -0.391136,-0.039 -0.122682,-0.006 -0.246187,-0.004 -0.369293,-0.003 -0.07934,-0.0129 -0.04257,-0.003 -0.108482,-0.03 0,0 1.132466,-0.31942 1.132466,-0.31942 v 0 c 0.03174,10e-4 0.01269,8.5e-4 0.05728,5e-4 0.134036,-7.4e-4 0.269553,0.001 0.397405,0.0212 0.12788,0.0158 0.25849,0.0214 0.3871,0.0346 0.137532,0.0255 0.224088,0.0745 0.341708,0.11329 0.142822,0.0693 0.288324,0.14017 0.367364,0.22868 0.01408,0.0184 0.03465,0.0363 0.04232,0.0555 0.006,0.0152 -9.19e-4,0.0309 -0.0017,0.0463 -0.004,0.0802 -0.01485,0.16011 -0.02634,0.24009 -0.03535,0.16772 -0.101583,0.33348 -0.195438,0.49675 -0.0803,0.18336 -0.171777,0.36556 -0.338758,0.53793 -0.149876,0.17664 -0.327338,0.34985 -0.623574,0.48881 -0.594322,0.27588 -1.41538,0.48869 -2.283659,0.51056 -0.512894,-0.004 -1.032334,-0.0277 -1.514078,-0.11058 -0.386307,-0.0711 -0.759183,-0.16068 -0.876381,-0.35245 -0.02883,-0.14231 -0.01036,-0.28554 -0.0097,-0.42826 0.02161,-0.15261 0.03796,-0.30812 0.185451,-0.4493 0.186474,-0.14196 0.378844,-0.28122 0.617362,-0.40754 0.278997,-0.14959 0.600072,-0.2805 0.924037,-0.41054 0.233406,-0.0819 0.450322,-0.17785 0.706761,-0.24622 0.42185,-0.11252 0.84864,-0.22132 1.274252,-0.33099 0.05513,-0.0142 0.111963,-0.027 0.167944,-0.0407 0.260934,-0.0519 0.517479,-0.0833 0.806096,-0.0747 0,0 -1.083911,0.34881 -1.083911,0.34881 z"
       inkscape:connector-curvature="0" />
    <path
       style="fill:#c9c3c3;fill-opacity:1;stroke:none;stroke-width:0.27579898;stroke-linecap:round;stroke-linejoin:bevel;stroke-miterlimit:4;stroke-dasharray:none;stroke-opacity:0.60101007;paint-order:stroke fill markers"
       id="path8022"
       d="m 23.763376,197.23518 c -0.03525,0.14744 -0.0039,0.29433 0.02017,0.44139 0.02011,0.12272 0.03431,0.24559 0.0516,0.36839 0.08345,0.44914 0.118212,0.89947 0.158483,1.34958 0.01974,0.25063 0.03411,0.50131 0.05153,0.75196 0.0023,0.0692 0.01083,0.13838 0.01377,0.20758 5.7e-5,0.0232 0.002,0.0465 0.0015,0.0697 -9.42e-4,0.0202 4.01e-4,0.0403 -5.8e-5,0.0605 6.3e-5,0.003 1.27e-4,0.006 1.88e-4,0.009 0,0 -0.963791,0.21039 -0.963791,0.21039 v 0 c 6.2e-5,-0.003 1.24e-4,-0.006 1.86e-4,-0.009 -4.5e-4,-0.0202 8.61e-4,-0.0404 -5.4e-5,-0.0605 -3.83e-4,-0.0236 0.0019,-0.0472 0.0023,-0.0708 0.0043,-0.0713 0.01408,-0.14255 0.01641,-0.21389 0.0164,-0.25515 0.02229,-0.51041 0.01626,-0.76565 -0.01176,-0.44981 -0.05165,-0.89965 -0.15569,-1.34747 -0.06573,-0.26415 -0.137408,-0.52849 -0.161847,-0.79398 0,0 0.948989,-0.20716 0.948989,-0.20716 z"
       inkscape:connector-curvature="0" />
    <path
       style="fill:#c9c3c3;fill-opacity:1;stroke:none;stroke-width:0.27579898;stroke-linecap:round;stroke-linejoin:bevel;stroke-miterlimit:4;stroke-dasharray:none;stroke-opacity:0.60101007;paint-order:stroke fill markers"
       id="path8024"
       d="m 26.105904,199.14281 c 0.165872,0.15528 0.36844,0.30405 0.594341,0.44478 0.195203,0.12369 0.404261,0.24385 0.67283,0.33988 0.08491,0.0223 0.255828,0.0728 0.365639,0.0644 0.01681,-0.001 0.02908,-0.008 0.04361,-0.0115 0.3764,-0.0466 0.15082,-0.0212 -0.764938,0.19088 -0.03044,0.007 0.05759,-0.0165 0.08509,-0.0255 0.09489,-0.0311 0.183248,-0.0663 0.27224,-0.10035 0.225431,-0.0935 0.395087,-0.20771 0.526126,-0.32905 0.107786,-0.13099 0.157009,-0.26815 0.189154,-0.40575 0.03357,-0.0824 0.01791,-0.16602 0.03634,-0.24881 0.0738,-0.20135 0.296832,-0.11992 1.009516,-0.25903 -0.01423,0.081 0.02091,0.1611 0.03747,0.24151 0.02866,0.15667 0.06211,0.31284 0.07558,0.47005 0.0093,0.16652 0.01556,0.33329 0.0032,0.49981 -0.01191,0.17206 -0.148453,0.31679 -0.329837,0.46705 -0.176382,0.14615 -0.392621,0.28123 -0.621127,0.41299 -0.170063,0.0949 -0.346662,0.18831 -0.542146,0.27388 -0.346141,0.12442 -0.776906,0.20618 -1.163231,0.29822 -0.02695,0.007 -0.05878,0.008 -0.08638,0.0142 -0.210981,0.0452 0.05979,-0.002 -0.153187,0.0332 -0.07535,0.0129 -0.155418,0.0188 -0.23588,0.0215 0,0 0.860174,-0.27587 0.860174,-0.27587 v 0 c 0.07277,-0.007 0.144215,-0.0152 0.211522,-0.0293 0.08568,-0.0186 0.06115,-0.0136 0.152661,-0.032 0.02653,-0.005 0.104893,-0.0223 0.07977,-0.0159 -1.469538,0.37721 -0.955449,0.24426 -0.644183,0.15785 0.215556,-0.0782 0.381178,-0.17898 0.567367,-0.26941 0.224789,-0.13121 0.453983,-0.26106 0.626281,-0.40693 0.08963,-0.0693 0.186949,-0.14102 0.247249,-0.21634 0.05969,-0.0746 0.0824,-0.15497 0.102403,-0.23279 0.02359,-0.16537 0.0053,-0.33117 0.0013,-0.49673 -0.0065,-0.0818 -0.01377,-0.16332 -0.03043,-0.24493 -0.05255,-0.25688 0.02248,0.11448 -0.04313,-0.15206 -0.0056,-0.0227 -0.0065,-0.0456 -0.0097,-0.0684 -0.01893,-0.0797 -0.06553,-0.15805 -0.06624,-0.23837 0.310055,-0.0684 1.108364,-0.32166 0.948843,-0.18881 -0.04317,0.036 -0.0082,-0.0147 -0.03535,0.0349 -0.04642,0.0821 -0.0116,0.1676 -0.05912,0.24996 -0.02803,0.14193 -0.08984,0.28178 -0.179891,0.41893 -0.111808,0.12758 -0.292308,0.24123 -0.497041,0.34525 -0.41249,0.16179 -0.855886,0.33459 -1.427314,0.38273 -0.170158,-0.008 -0.318157,-0.044 -0.448547,-0.0908 -0.26142,-0.10349 -0.466069,-0.22916 -0.664803,-0.35496 -0.227709,-0.143 -0.427046,-0.29347 -0.633804,-0.4421 0,0 0.927556,-0.22627 0.927556,-0.22627 z"
       inkscape:connector-curvature="0" />
    <path
       style="fill:#fafafa;fill-opacity:1;stroke:none;stroke-width:0.3663289;stroke-linecap:round;stroke-linejoin:bevel;stroke-miterlimit:4;stroke-dasharray:none;stroke-opacity:0.60101007;paint-order:stroke fill markers"
       id="path8026"
       d="m 33.061589,202.27693 c -0.161445,-0.27994 -0.327705,-0.55899 -0.476549,-0.84156 -0.303515,-0.57847 -0.403256,-1.17835 -0.497196,-1.77589 -0.05371,-0.42928 -0.07976,-0.85942 -0.100746,-1.28952 -0.0034,-0.13464 -0.01621,-0.26911 -0.01977,-0.40369 -0.01387,-0.0574 0.01048,-0.10224 0.05915,-0.15208 0.106919,-0.10406 0.261201,-0.17842 0.434998,-0.24641 0.628694,-0.25541 1.293608,-0.46168 2.048272,-0.54769 0.07116,-0.008 0.141822,-0.0174 0.213444,-0.0239 0.195983,-0.0179 0.393739,-0.0268 0.588489,-0.0498 0.122146,-0.0151 0.24247,-0.0333 0.363917,-0.0495 0.393202,-0.0633 0.806953,-0.0641 1.213025,-0.0662 0.536192,-0.02 0.948554,0.0202 1.441743,0.13435 0.33031,0.096 0.640751,0.23246 0.824827,0.4168 0.03625,0.0363 0.0633,0.0751 0.09498,0.11283 0.166924,0.23086 0.225322,0.47519 0.17478,0.7214 -0.11921,0.24252 -0.399793,0.44899 -0.691232,0.63655 -0.278395,0.17798 -0.557141,0.35605 -0.855876,0.52361 -0.541139,0.27758 -1.176092,0.50864 -1.868383,0.65077 -0.264788,0.0551 -0.550703,0.0653 -0.830671,0.0724 -0.216892,0.003 -0.433882,0.003 -0.650821,0.002 -0.168922,0.0106 -0.327407,-0.009 -0.4916,-0.0268 -0.151823,-0.0152 -0.296508,-0.045 -0.4496,-0.0582 -0.12521,-0.008 -0.240469,-0.0388 -0.365356,-0.0488 -0.08818,-0.008 -0.178815,-0.008 -0.268102,-0.008 -0.06606,4.1e-4 -0.132147,5.2e-4 -0.198185,0.001 -0.0484,3e-5 -0.09678,4.9e-4 -0.145176,2.2e-4 -0.04431,-3.7e-4 -0.08857,1.2e-4 -0.132885,-2.9e-4 0,0 1.018114,-0.41208 1.018114,-0.41208 v 0 c 0.04474,-3.9e-4 0.08943,8e-5 0.134147,-3.1e-4 0.04811,-3.2e-4 0.09621,3e-5 0.144327,-2e-4 0.06582,3.8e-4 0.13168,-2e-5 0.197478,10e-4 0.09341,0.003 0.187683,0.005 0.278304,0.0188 0.119606,0.0179 0.236875,0.0412 0.360657,0.0489 0.149876,0.0183 0.295302,0.0473 0.447978,0.0586 0.157533,0.0164 0.314801,0.0207 0.475154,0.018 0.21353,4.2e-4 0.427236,0.003 0.640606,-0.003 0.272357,-0.009 0.545481,-0.0268 0.798946,-0.0872 0.451879,-0.11026 0.298217,-0.0766 -0.760983,0.26376 -0.0469,0.0152 0.0908,-0.033 0.134219,-0.0509 0.0909,-0.0377 0.17977,-0.0769 0.268203,-0.11662 0.04706,-0.0211 0.0917,-0.0438 0.13757,-0.0656 0.30707,-0.16495 0.590624,-0.34236 0.869401,-0.52209 0.291095,-0.17554 0.560859,-0.37327 0.712682,-0.59848 0.07696,-0.24565 0.01816,-0.45437 -0.138074,-0.68741 -0.204661,-0.23765 -0.436243,-0.37183 -0.867352,-0.48845 -0.184363,-0.0392 -0.248061,-0.0568 -0.440143,-0.0818 -0.320999,-0.0418 -0.647966,-0.0345 -0.974938,-0.03 -0.406203,0.008 -0.815365,0.0157 -1.207712,0.0815 -0.384944,0.0497 -0.774974,0.0777 -1.161968,0.12087 -0.194286,0.027 -0.380223,0.057 -0.564882,0.10072 -0.05188,0.0121 -0.201643,0.0557 -0.153661,0.0394 1.70004,-0.58436 1.089194,-0.36444 0.783908,-0.25389 -0.165499,0.0645 -0.337215,0.11647 -0.43748,0.21878 -0.02096,0.0136 -0.03044,0.033 -0.05308,0.0465 -0.0078,0.005 -0.0253,0.002 -0.03186,0.008 -0.01712,0.0136 0.01441,0.0486 -0.0036,0.0625 -0.0083,0.13859 -0.02427,0.27699 -0.02623,0.41565 -0.01387,0.43439 -0.01243,0.86913 0.03559,1.30294 0.06982,0.59199 0.185583,1.18757 0.510609,1.75527 0.170545,0.28006 0.342994,0.55881 0.562551,0.82831 0,0 -1.103872,0.3244 -1.103872,0.3244 z"
       inkscape:connector-curvature="0" />
    <path
       style="fill:#c9c3c3;fill-opacity:1;stroke:none;stroke-width:0.27579898;stroke-linecap:round;stroke-linejoin:bevel;stroke-miterlimit:4;stroke-dasharray:none;stroke-opacity:0.60101007;paint-order:stroke fill markers"
       id="path8028"
       d="m 41.210756,198.98254 c -0.277981,-0.003 -0.557204,-0.0112 -0.833062,0.006 -0.137625,0.007 -0.152769,0.004 -0.283685,0.0216 -0.359769,0.048 -1.135253,0.25651 0.480128,-0.13526 -0.20653,0.0539 -0.253581,0.14062 -0.283204,0.23697 -0.03145,0.15796 -0.02732,0.31692 -0.02854,0.47536 -0.0032,0.11921 3.92e-4,0.24086 0.08059,0.35623 0.03019,0.0434 0.09374,0.0983 0.137965,0.13922 0.127864,0.0945 0.267412,0.19203 0.493459,0.24762 0.138089,0.0342 0.28249,0.0323 0.430635,0.0141 0.345711,-0.10575 0.0435,-0.0115 -0.727821,0.17303 -0.03275,0.008 0.06259,-0.0177 0.09342,-0.0269 0.101924,-0.0303 0.183328,-0.0623 0.268997,-0.10068 0.191094,-0.0807 0.331191,-0.17749 0.464888,-0.27608 0.104986,-0.0908 0.188494,-0.18506 0.241069,-0.28377 0.0403,-0.0953 0.05193,-0.19253 0.05068,-0.28925 -0.0053,-0.0613 0.009,-0.12366 -0.009,-0.18466 -0.0209,-0.0463 -0.04741,-0.0946 -0.100794,-0.1361 -0.05177,-0.0327 -0.06577,-0.073 -0.10395,-0.10786 -0.04953,-0.0157 -0.0332,-0.0533 -0.07147,-0.0702 -0.02159,-0.0271 -0.05716,-0.0481 -0.0943,-0.071 -0.01759,-0.006 -0.01408,-0.0191 -0.03021,-0.0258 -0.0043,-0.002 -0.02323,0.003 -0.01796,0.001 0.940276,-0.22834 0.889088,-0.37632 0.937403,-0.21534 0.11303,0.10998 0.264833,0.21216 0.401837,0.31704 0.220941,0.16591 0.407625,0.34013 0.645065,0.50189 0.109209,0.0952 0.241115,0.18408 0.382018,0.27089 0.04215,0.0269 0.07207,0.0543 0.09448,0.0851 0,0 -0.951445,0.21965 -0.951445,0.21965 v 0 c -0.0094,-0.0268 -0.03324,-0.0501 -0.06539,-0.0736 -0.129535,-0.0905 -0.25282,-0.18246 -0.357198,-0.27891 -0.224925,-0.16534 -0.41579,-0.33867 -0.643766,-0.5033 -0.147324,-0.10621 -0.305417,-0.20932 -0.450309,-0.31606 -0.170309,-0.17121 0.823929,-0.40001 0.984743,-0.21822 0.0407,0.023 0.07207,0.0464 0.0982,0.0729 0.03337,0.0242 0.03443,0.0535 0.07645,0.0763 0.037,0.0346 0.04701,0.0742 0.09772,0.10676 0.05504,0.0468 0.09176,0.0981 0.11668,0.14931 0.0276,0.0636 0.0025,0.12932 0.0088,0.19373 -0.0087,0.0996 -0.0091,0.19955 -0.04778,0.2982 -0.04565,0.10354 -0.12573,0.20134 -0.230356,0.29673 -0.12706,0.10208 -0.266584,0.20123 -0.453271,0.28566 -0.05434,0.026 -0.10115,0.0552 -0.161166,0.0788 -0.05705,0.0225 -0.120439,0.0422 -0.187015,0.0592 -0.96742,0.24708 -0.645946,0.19305 -1.10709,0.26636 -0.169933,0.01 -0.333445,2.8e-4 -0.476031,-0.0437 -0.225365,-0.0688 -0.378344,-0.17025 -0.506986,-0.27379 -0.05762,-0.0536 -0.10395,-0.0916 -0.142869,-0.1488 -0.08082,-0.11863 -0.09464,-0.24239 -0.08963,-0.36515 -0.0029,-0.15872 -0.0091,-0.31749 0.0056,-0.47615 0.02232,-0.10198 0.04101,-0.2035 0.239072,-0.27296 0.545819,-0.13513 1.003443,-0.29798 1.631459,-0.31825 0.287233,-0.01 0.575547,-0.003 0.863334,-0.009 0,0 -0.870467,0.27095 -0.870467,0.27095 z"
       inkscape:connector-curvature="0" />
    <path
       style="fill:#fafafa;fill-opacity:1;stroke:none;stroke-width:0.33678058;stroke-linecap:round;stroke-linejoin:bevel;stroke-miterlimit:4;stroke-dasharray:none;stroke-opacity:0.60101007;paint-order:stroke fill markers"
       id="path8030"
       d="m 44.933074,198.32284 c 0.168209,0.32183 0.423157,0.62361 0.65405,0.92863 0.256362,0.33617 0.512432,0.67302 0.755203,1.01336 0.126642,0.13688 0.231818,0.28534 0.420264,0.39265 0.08505,0.031 0.16253,0.072 0.259091,0.0831 0.03756,-0.0119 0.06138,0.0192 0.09164,0.0218 0.0062,5.1e-4 0.01858,-0.0104 0.01299,-0.009 -0.913464,0.31173 -1.17885,0.46708 -0.88332,0.29763 0.08372,-0.11735 0.128978,-0.24514 0.187465,-0.36846 0.09819,-0.22154 0.222842,-0.43608 0.359548,-0.64887 0.101831,-0.19081 0.235064,-0.37314 0.413587,-0.53942 0.07836,-0.0717 0.147571,-0.15231 0.254329,-0.20911 0.27963,-0.18382 0.02772,-0.0213 0.984377,-0.36031 0.08129,-0.0288 0.130865,0.11616 0.139713,0.13882 0.07799,0.24752 0.175593,0.49268 0.29055,0.73419 0.09578,0.22807 0.17044,0.45923 0.295488,0.68182 0.04322,0.0708 0.06904,0.14181 0.136712,0.2049 0.05122,0.0282 0.08641,0.0634 0.136264,0.0924 0.02627,0.0289 0.06048,0.0567 0.115366,0.0494 0.366387,0.0201 0.03054,-4.7e-4 -0.906454,0.31653 -0.01207,0.004 0.02361,-0.009 0.03422,-0.0149 0.0445,-0.0228 0.06659,-0.064 0.09181,-0.0954 0.120362,-0.14016 0.190644,-0.29574 0.254631,-0.44951 0.09427,-0.23998 0.223942,-0.47326 0.34496,-0.70805 0.113602,-0.1953 0.227704,-0.39027 0.337738,-0.58641 0.09589,-0.13554 0.174256,-0.27506 0.254919,-0.41423 0.03234,-0.0655 0.082,-0.1248 0.129875,-0.18544 0.02639,-0.0379 0.02127,-0.0802 0.04095,-0.11914 0.015,-0.0437 0.05621,-0.0835 0.06232,-0.12809 0.009,-0.0652 0.05085,-0.1254 0.07454,-0.18842 0.0474,-0.0687 0.05312,-0.14434 0.09451,-0.2139 0.02217,-0.038 0.03361,-0.0774 0.04588,-0.11705 0.02241,-0.0198 0.0088,-0.0134 0.03593,-0.0212 0,0 0.997575,-0.26685 0.997575,-0.26685 v 0 c -0.01553,0.0204 -0.0032,0.0134 -0.03627,0.0201 -0.06509,1.3e-4 -0.04238,0.0658 -0.07222,0.0932 -0.0053,0.0119 -0.01067,0.024 -0.01595,0.0359 -0.0091,0.009 -0.02266,0.0155 -0.02755,0.0255 -0.02368,0.0479 0.002,0.10706 -0.05535,0.14851 -0.02032,0.0486 -0.01299,0.0237 -0.02169,0.0752 -0.01346,0.0333 -0.04914,0.0646 -0.05491,0.0998 -0.0037,0.0558 -0.01975,0.0935 -0.05094,0.14538 -0.0068,0.0119 -0.02238,0.021 -0.0276,0.033 -0.01145,0.0264 0.0068,0.061 -0.01237,0.0874 -0.01067,0.0249 -0.03001,0.0643 -0.05224,0.0851 -0.0096,0.009 -0.03053,0.0119 -0.03898,0.021 -0.02368,0.0265 -0.01021,0.0632 -0.05006,0.0859 -0.101475,0.13465 -0.151918,0.28496 -0.270823,0.41542 -0.115505,0.19532 -0.217943,0.39385 -0.346664,0.5862 -0.116835,0.23364 -0.257678,0.46268 -0.344439,0.70207 -0.03972,0.11914 -0.09451,0.23434 -0.153681,0.34991 -0.01098,0.0216 -0.01672,0.0443 -0.03016,0.0652 -0.0096,0.0149 -0.02557,0.0279 -0.03838,0.0418 -0.19046,0.24982 -0.349494,0.60504 -1.080305,0.4681 -0.0617,-0.0177 -0.108652,-0.0468 -0.148066,-0.0819 -0.05196,-0.0347 -0.09687,-0.0728 -0.148469,-0.10766 -0.02303,-0.027 -0.05403,-0.0511 -0.06871,-0.0807 -0.02336,-0.0471 -0.02659,-0.0987 -0.05934,-0.14419 -0.119851,-0.2256 -0.168912,-0.46401 -0.275027,-0.69229 -0.112411,-0.24141 -0.216404,-0.48435 -0.324748,-0.72651 -0.0053,-0.0149 -0.0074,-0.0297 -0.01569,-0.0437 -0.03675,-0.0623 -0.01268,-0.003 -0.01618,8.1e-4 -0.0037,0.004 -0.02679,0.007 -0.0205,0.004 0.887537,-0.32919 1.222007,-0.39866 0.863298,-0.32256 -0.124446,0.0719 0.08644,-0.0476 -0.07572,0.0349 -0.08591,0.0437 -0.14771,0.10856 -0.208925,0.16505 -0.188043,0.16175 -0.342662,0.33632 -0.438134,0.52972 -0.13631,0.20947 -0.262123,0.41936 -0.353984,0.63878 -0.032,0.0771 -0.07516,0.15428 -0.102062,0.23206 -0.0073,0.021 -0.0062,0.0431 -0.01454,0.064 -0.07239,0.1807 0.01129,-0.0935 -0.03895,0.0813 -0.118336,0.26598 -0.69835,0.45504 -1.093668,0.35649 -0.09883,-0.0282 -0.191145,-0.0695 -0.273615,-0.11362 -0.189479,-0.11884 -0.28872,-0.27971 -0.410615,-0.42772 -0.225242,-0.34461 -0.472897,-0.68406 -0.726853,-1.02017 -0.241558,-0.30722 -0.494336,-0.61112 -0.725425,-0.92146 0,0 0.939685,-0.32259 0.939685,-0.32259 z"
       inkscape:connector-curvature="0" />
  </g>
</svg>
