<?xml version="1.0" encoding="UTF-8" standalone="no"?>
<svg
   width="120"
   height="380"
   viewBox="0 0 31.75 100.54167"
   version="1.1"
   id="svg5"
   sodipodi:docname="ComputerscarePolyPobsPanel.svg"
   xml:space="preserve"
   inkscape:version="1.4.4 (dcaf3e7, 2026-05-05)"
   xmlns:inkscape="http://www.inkscape.org/namespaces/inkscape"
   xmlns:sodipodi="http://sodipodi.sourceforge.net/DTD/sodipodi-0.dtd"
   xmlns="http://www.w3.org/2000/svg"
   xmlns:svg="http://www.w3.org/2000/svg"><defs
     id="defs5" /><sodipodi:namedview
     id="namedview5"
     pagecolor="#ffffff"
     bordercolor="#000000"
     borderopacity="0.25"
     inkscape:showpageshadow="2"
     inkscape:pageopacity="0.0"
     inkscape:pagecheckerboard="0"
     inkscape:deskcolor="#d1d1d1"
     inkscape:zoom="10.24"
     inkscape:cx="43.261719"
     inkscape:cy="371.33789"
     inkscape:window-width="1728"
     inkscape:window-height="1056"
     inkscape:window-x="0"
     inkscape:window-y="33"
     inkscape:window-maximized="0"
     inkscape:current-layer="svg5" /><rect
     x="0"
     y="0"
     width="31.75"
     height="100.54167"
     fill="#e0e0e0"
     id="rect1" /><rect
     x="16.3"
     y="0"
     width="15.45"
     height="100.54167"
     fill="#d7d7d7"
     id="rect2" /><path
     d="m 2.1183863,100.06818 c -0.1299935,0.0381 -0.2537638,0.0677 -0.3713109,0.0889 -0.1161642,0.0211 -0.2399344,0.0317 -0.3713107,0.0317 -0.1673319,0 -0.3208346,-0.0148 -0.46050826,-0.0444 -0.13967373,-0.0305 -0.25929525,-0.0762 -0.35886456,-0.13711 C 0.45543937,99.94633 0.3773051,99.869312 0.32198906,99.776216 0.26667302,99.683117 0.239015,99.57436 0.239015,99.449946 c 0,-0.231901 0.10371809,-0.413867 0.31115427,-0.545898 0.20881905,-0.132031 0.48401773,-0.198047 0.82559603,-0.198047 0.1327591,0 0.2627524,0.01143 0.3899799,0.03428 0.1286104,0.02285 0.2461575,0.05078 0.3526414,0.08379 v 0.265332 h -0.020742 c -0.1189301,-0.05671 -0.242009,-0.100294 -0.3692366,-0.130761 -0.1258445,-0.03047 -0.2489232,-0.0457 -0.3692363,-0.0457 -0.2212652,0 -0.39620301,0.0457 -0.52481343,0.137109 -0.12722754,0.09056 -0.19084131,0.223861 -0.19084131,0.399902 0,0.170964 0.0622308,0.302572 0.18669254,0.394825 0.12584453,0.09141 0.3021653,0.137109 0.5289622,0.137109 0.078826,0 0.1590342,-0.0063 0.2406259,-0.01904 0.081592,-0.01269 0.1548857,-0.0292 0.2198824,-0.04951 0.056699,-0.01777 0.1099414,-0.03639 0.1597261,-0.05586 0.049785,-0.02031 0.089197,-0.03766 0.1182382,-0.05205 h 0.020742 z m 2.4747132,-0.619531 c 0,0.231055 -0.096804,0.413444 -0.2904105,0.547168 -0.1936071,0.133723 -0.4529023,0.200583 -0.7778856,0.200583 -0.3277491,0 -0.5884272,-0.0669 -0.7820343,-0.200583 -0.1922241,-0.133724 -0.2883362,-0.316113 -0.2883362,-0.547168 0,-0.231055 0.096112,-0.413444 0.2883362,-0.547168 0.1936071,-0.134571 0.4542852,-0.201856 0.7820343,-0.201856 0.3249833,0 0.5842785,0.06728 0.7778856,0.201856 0.193607,0.133724 0.2904105,0.316113 0.2904105,0.547168 z m -0.4024261,0 c 0,-0.183659 -0.058774,-0.319922 -0.1763206,-0.408789 -0.1175472,-0.08971 -0.2807303,-0.134571 -0.4895494,-0.134571 -0.2115849,0 -0.3761509,0.04486 -0.4936982,0.134571 -0.1161642,0.08887 -0.1742463,0.22513 -0.1742463,0.408789 0,0.177734 0.058774,0.312727 0.1763209,0.40498 0.1175471,0.09141 0.2814216,0.13711 0.4916236,0.13711 0.2074361,0 0.3699278,-0.04528 0.4874749,-0.13584 0.1189301,-0.09141 0.1783951,-0.226823 0.1783951,-0.40625 z M 11.58721,98.99239 c 0,0.115105 -0.02697,0.220476 -0.0809,0.316114 -0.05393,0.09479 -0.129994,0.175195 -0.228181,0.241211 -0.09127,0.06263 -0.199139,0.1113 -0.323599,0.146 -0.123079,0.0339 -0.253764,0.0508 -0.392055,0.0508 -0.120313,0 -0.229562,-0.008 -0.327749,-0.0241 -0.09681,-0.0161 -0.195685,-0.041 -0.2966347,-0.0749 v 0.594135 H 9.548114 v -1.941111 h 0.3899803 v 0.148535 c 0.1037127,-0.05332 0.2198767,-0.09775 0.3484927,-0.133301 0.129993,-0.03639 0.268285,-0.05459 0.414874,-0.05459 0.279347,0 0.496463,0.06475 0.65135,0.194239 0.156268,0.128645 0.234402,0.307649 0.234402,0.537011 z m -0.545562,-0.377098 c -0.09542,-0.08464 -0.242012,-0.126954 -0.439766,-0.126954 -0.112015,0 -0.224722,0.01481 -0.33812,0.04443 -0.113399,0.02962 -0.221958,0.06855 -0.325676,0.116797 v 0.803613 c 0.110633,0.03047 0.205362,0.0512 0.284188,0.06221 0.08021,0.011 0.170787,0.0165 0.271743,0.0165 0.217116,0 0.39491,-0.03448 0.508218,-0.13457 0.21487,-0.189813 0.288656,-0.375238 0.03941,-0.782026 z M 13.89661,100.157 h -0.38998 v -0.157423 c -0.131375,0.06348 -0.25722,0.112143 -0.377533,0.145993 -0.120313,0.0339 -0.253072,0.0508 -0.398279,0.0508 -0.24339,0 -0.432848,-0.0453 -0.568373,-0.13584 -0.135525,-0.0914 -0.203287,-0.225128 -0.203287,-0.401169 v -0.92041 h 0.38998 v 0.807422 c 0,0.07194 0.0055,0.133724 0.0166,0.185351 0.01107,0.05078 0.03457,0.09437 0.07052,0.130762 0.03734,0.03724 0.08574,0.06432 0.14521,0.08125 0.05946,0.01693 0.145892,0.02539 0.259296,0.02539 0.100947,0 0.210888,-0.01608 0.329823,-0.04824 0.120312,-0.03216 0.232327,-0.07321 0.336045,-0.123144 v -1.058789 h 0.38998 z m 1.970643,-0.0127 c -0.0733,0.0119 -0.153511,0.0216 -0.240625,0.0292 -0.08574,0.008 -0.162491,0.0114 -0.230255,0.0114 -0.236477,0 -0.416255,-0.0389 -0.539334,-0.1168 -0.12308,-0.07786 -0.18462,-0.2027 -0.18462,-0.37451 v -0.754101 h -0.263442 v -0.200586 h 0.263442 v -0.40752 h 0.38998 v 0.40752 h 0.804854 v 0.200586 h -0.804854 v 0.646191 c 0,0.07448 0.0028,0.132878 0.0084,0.175195 0.0056,0.04147 0.02496,0.08041 0.05808,0.116797 0.03043,0.03385 0.07192,0.05882 0.124458,0.0749 0.05393,0.01523 0.135518,0.02285 0.244774,0.02285 0.06361,0 0.129993,-0.0055 0.199139,-0.0165 0.06915,-0.01185 0.11894,-0.02158 0.149361,-0.0292 h 0.02075 z m 2.410409,-0.671583 h -1.707199 c 0,0.08718 0.02144,0.163347 0.06431,0.228516 0.04287,0.06432 0.10164,0.117217 0.176321,0.158691 0.07192,0.04063 0.156968,0.0711 0.255146,0.09141 0.09957,0.02031 0.208823,0.03047 0.327748,0.03047 0.157652,0 0.315996,-0.01904 0.475031,-0.05713 0.160416,-0.03893 0.274505,-0.07702 0.342268,-0.114258 h 0.02075 v 0.260254 c -0.131377,0.0339 -0.265519,0.0622 -0.402426,0.0851 -0.136909,0.0229 -0.280731,0.0343 -0.431468,0.0343 -0.384448,0 -0.684539,-0.0635 -0.900273,-0.19043 -0.215733,-0.127799 -0.3236,-0.308919 -0.3236,-0.543359 0,-0.231901 0.103027,-0.415983 0.30908,-0.552246 0.207436,-0.136263 0.479869,-0.204395 0.817299,-0.204395 0.312537,0 0.553163,0.05586 0.721876,0.167579 0.170098,0.111719 0.255147,0.27041 0.255147,0.476074 z m -0.379608,-0.182813 c -0.0014,-0.12526 -0.05326,-0.222167 -0.155586,-0.290722 -0.100957,-0.06856 -0.255151,-0.102832 -0.462582,-0.102832 -0.208819,0 -0.375459,0.03766 -0.49992,0.112988 -0.123079,0.07533 -0.192916,0.168847 -0.209512,0.280566 z m 2.416631,-0.290722 h -0.02075 c -0.05808,-0.0085 -0.11478,-0.01439 -0.170099,-0.01777 -0.05393,-0.0042 -0.118232,-0.0063 -0.192915,-0.0063 -0.120312,0 -0.236476,0.0165 -0.348491,0.04951 -0.112017,0.03216 -0.219885,0.07406 -0.323602,0.125684 v 1.006734 h -0.389972 v -1.418062 h 0.38998 v 0.209473 c 0.154886,-0.07617 0.291102,-0.129916 0.408649,-0.161231 0.118931,-0.03216 0.239935,-0.04824 0.363013,-0.04824 0.06777,0 0.116865,0.0013 0.147286,0.0038 0.03043,0.0017 0.07607,0.0055 0.136908,0.01143 z m 2.022502,0.749023 c 0,0.129492 -0.08781,0.23571 -0.263443,0.318655 -0.174245,0.0829 -0.412797,0.12441 -0.715655,0.12441 -0.171479,0 -0.329131,-0.0123 -0.472955,-0.0368 -0.142438,-0.0254 -0.262059,-0.0529 -0.358864,-0.0825 v -0.267869 h 0.02075 c 0.123079,0.05671 0.259987,0.101986 0.410724,0.135839 0.150737,0.03301 0.295251,0.04951 0.433542,0.04951 0.17148,0 0.305622,-0.01693 0.402425,-0.05078 0.09681,-0.03385 0.14521,-0.08717 0.14521,-0.159961 0,-0.05586 -0.02628,-0.09818 -0.07883,-0.126953 -0.05255,-0.02877 -0.153506,-0.05332 -0.302857,-0.07363 -0.05531,-0.0076 -0.127915,-0.01651 -0.217806,-0.02666 -0.08851,-0.01015 -0.169409,-0.02116 -0.2427,-0.03301 -0.203288,-0.03301 -0.347803,-0.08125 -0.433544,-0.144727 -0.08436,-0.06432 -0.126534,-0.143031 -0.126534,-0.236132 0,-0.0584 0.01936,-0.113413 0.05808,-0.165039 0.04011,-0.05163 0.100263,-0.09775 0.180469,-0.138379 0.07744,-0.03978 0.175624,-0.0711 0.294561,-0.09395 0.120312,-0.0237 0.254454,-0.03555 0.402426,-0.03555 0.138291,0 0.277964,0.01058 0.41902,0.03174 0.14244,0.02031 0.260679,0.04528 0.354716,0.0749 v 0.255176 h -0.02076 c -0.09957,-0.04485 -0.220578,-0.08252 -0.363012,-0.112988 -0.14244,-0.03131 -0.282114,-0.04697 -0.419021,-0.04697 -0.142439,0 -0.262752,0.01693 -0.360939,0.05078 -0.09819,0.03301 -0.147285,0.08252 -0.147285,0.148535 0,0.0584 0.02973,0.102411 0.08919,0.132032 0.05808,0.02962 0.152118,0.05374 0.282114,0.07236 0.07192,0.01015 0.152128,0.02031 0.240627,0.03047 0.08989,0.01015 0.164566,0.01946 0.224029,0.02793 0.181162,0.02539 0.320836,0.06898 0.419022,0.130762 0.09819,0.06263 0.147283,0.145569 0.147283,0.248828 z m 2.271428,0.319925 c -0.129993,0.0381 -0.253764,0.0677 -0.371312,0.0889 -0.116164,0.0211 -0.239934,0.0317 -0.371311,0.0317 -0.167331,0 -0.320834,-0.0148 -0.460509,-0.0444 -0.139673,-0.0305 -0.259294,-0.0762 -0.358863,-0.13711 -0.100957,-0.06094 -0.179092,-0.137959 -0.234405,-0.231057 -0.05531,-0.0931 -0.08297,-0.201856 -0.08297,-0.32627 0,-0.231901 0.103718,-0.413867 0.311154,-0.545898 0.208819,-0.132031 0.484018,-0.198047 0.825595,-0.198047 0.13276,0 0.262754,0.01143 0.389981,0.03428 0.128611,0.02285 0.246159,0.05078 0.352643,0.08379 v 0.265332 h -0.02076 c -0.118929,-0.05671 -0.242007,-0.100294 -0.369235,-0.130761 -0.125845,-0.03047 -0.248924,-0.0457 -0.369237,-0.0457 -0.221265,0 -0.396203,0.0457 -0.524813,0.137109 -0.127227,0.09056 -0.190841,0.223861 -0.190841,0.399902 0,0.170964 0.06223,0.302572 0.186693,0.394825 0.125843,0.09141 0.302164,0.137109 0.528961,0.137109 0.07882,0 0.159029,-0.0063 0.240626,-0.01904 0.08159,-0.01269 0.154883,-0.0292 0.219882,-0.04951 0.0567,-0.01777 0.10994,-0.03639 0.15972,-0.05586 0.04979,-0.02031 0.0892,-0.03766 0.11823,-0.05205 h 0.02075 z m 2.300464,0.0889 h -0.387904 v -0.15108 c -0.03457,0.0144 -0.08159,0.0347 -0.14106,0.0609 -0.05808,0.0254 -0.114779,0.0457 -0.170098,0.0609 -0.06501,0.0195 -0.139684,0.0355 -0.224031,0.0482 -0.08436,0.0135 -0.183234,0.0203 -0.296634,0.0203 -0.208819,0 -0.385831,-0.0423 -0.531036,-0.12695 -0.145206,-0.08464 -0.217809,-0.192546 -0.217809,-0.323731 0,-0.107487 0.03733,-0.194238 0.112006,-0.260254 0.07605,-0.06686 0.183921,-0.119336 0.3236,-0.157422 0.141056,-0.03809 0.310462,-0.0639 0.508218,-0.07744 0.197756,-0.01354 0.410032,-0.0237 0.636829,-0.03047 v -0.03682 c 0,-0.05417 -0.0159,-0.09902 -0.04771,-0.134571 -0.03043,-0.03555 -0.07469,-0.06348 -0.132761,-0.08379 -0.05531,-0.01947 -0.121693,-0.03259 -0.199139,-0.03936 -0.07744,-0.0068 -0.158337,-0.01016 -0.242701,-0.01016 -0.10234,0 -0.216429,0.0085 -0.342268,0.02539 -0.125845,0.01608 -0.255839,0.03978 -0.389982,0.07109 h -0.02076 v -0.24248 c 0.07605,-0.01269 0.185995,-0.02666 0.329824,-0.04189 0.143822,-0.01523 0.28557,-0.02285 0.425243,-0.02285 0.163183,0 0.304932,0.0085 0.425245,0.02539 0.121696,0.01608 0.226797,0.04401 0.315302,0.08379 0.08712,0.03893 0.153504,0.08929 0.199139,0.151074 0.04563,0.06179 0.06845,0.138382 0.06845,0.229786 z m -0.387904,-0.349074 v -0.394824 c -0.118931,0.0042 -0.259296,0.01055 -0.421096,0.01904 -0.160418,0.0085 -0.287646,0.02073 -0.381683,0.03682 -0.112016,0.01947 -0.202596,0.04994 -0.271741,0.09141 -0.06915,0.04063 -0.103729,0.09691 -0.103729,0.168847 0,0.08125 0.0401,0.142611 0.120306,0.184082 0.0802,0.04063 0.202592,0.06094 0.367163,0.06094 0.136908,0 0.262061,-0.01608 0.375458,-0.04824 0.113399,-0.03301 0.218501,-0.07236 0.315304,-0.118067 z m 2.584655,-0.808691 h -0.02075 c -0.05808,-0.0085 -0.114779,-0.01439 -0.170098,-0.01777 -0.05393,-0.0042 -0.118232,-0.0063 -0.192916,-0.0063 -0.120313,0 -0.236477,0.0165 -0.348494,0.04951 -0.112015,0.03216 -0.219881,0.07406 -0.323598,0.125684 v 1.006741 h -0.38998 v -1.418069 h 0.38998 v 0.209473 c 0.154885,-0.07617 0.291102,-0.129916 0.408649,-0.161231 0.11893,-0.03216 0.239934,-0.04824 0.363013,-0.04824 0.06777,0 0.116864,0.0013 0.147285,0.0038 0.03043,0.0017 0.07607,0.0055 0.136909,0.01143 z m 2.306688,0.473535 h -1.707199 c 0,0.08717 0.02143,0.163347 0.0643,0.228516 0.04287,0.06432 0.101646,0.117217 0.176319,0.158691 0.07192,0.04063 0.15697,0.0711 0.255149,0.09141 0.09957,0.02031 0.208823,0.03047 0.327749,0.03047 0.157651,0 0.315994,-0.01904 0.475027,-0.05713 0.160419,-0.03893 0.274509,-0.07702 0.342271,-0.114258 h 0.02074 v 0.260251 c -0.131375,0.0339 -0.265518,0.0622 -0.402427,0.0851 -0.136907,0.0229 -0.280729,0.0343 -0.431466,0.0343 -0.384448,0 -0.684539,-0.0635 -0.900274,-0.190427 -0.215733,-0.127799 -0.3236,-0.308919 -0.3236,-0.543359 0,-0.231901 0.103026,-0.415983 0.309079,-0.552246 0.207437,-0.136263 0.479871,-0.204395 0.8173,-0.204395 0.312537,0 0.553163,0.05586 0.721878,0.167579 0.170098,0.111719 0.255147,0.27041 0.255147,0.476074 z M 31.03291,99.289987 c -0.0014,-0.12526 -0.05326,-0.222167 -0.155585,-0.290722 -0.100957,-0.06855 -0.255151,-0.102832 -0.462584,-0.102832 -0.208818,0 -0.375458,0.03766 -0.499921,0.112988 -0.123079,0.07532 -0.192915,0.168847 -0.209509,0.280566 z"
     id="text2"
     style="font-size:2.6px;fill:#101000;stroke-width:1.27826"
     aria-label="computerscare"
     sodipodi:nodetypes="ccsccsscscccccscscsscccccssscscscsscscscscsccccsccccccccscccssscccssscccsscsccsccsscccccccsssccccccccccscccscccccccccsccccsscscscscccsccccccsccccccccscccccscccccssssccccscccscccccscscccccccccsccsscscccccscscsscccccccccccsssccscsccssccccssccscccccccscscsccccsccccccccsccccccccsccccsscscscscccsccc" /><g
     id="g6"
     transform="matrix(1.0732168,0,0,1.0590977,-0.00883311,-0.0043662)"><g
       id="g5"
       transform="matrix(0.03054739,0,0,0.04124942,0.29342842,2.180817)"><path
         id="side-2"
         d="M -4.4020183,-25.703733 497.30122,-20.107584 267.54787,-49.420402 91.442812,-48.065287 Z"
         fill="#a4a4a4"
         stroke="#000000"
         stroke-width="2.93154"
         stroke-linejoin="round"
         style="fill:#dadada;fill-opacity:1" /><path
         id="top"
         d="M -3.458414,-25.85611 498.74633,-19.370045 496.90422,81.357834 -3.0200817,75.105693 Z"
         fill="#e9e9e9"
         stroke="#000000"
         stroke-width="4.55687"
         stroke-linejoin="round"
         sodipodi:nodetypes="ccccc"
         style="fill:#c4c4c4;fill-opacity:1" /></g><g
       fill="#000000"
       fill-opacity="1"
       id="g1"
       transform="matrix(0.03756028,0,0,0.04832227,-0.35933984,0.24288894)"><path
         id="char-1"
         d="m 60.9534,35.755 -25.5169,42.1243 -7.8044,-2.1949 -6.5284,-51.1367 6.2672,1.7625 5.4526,44.9075 22.1583,-37.1422 z m 0,0" /><path
         id="char-2"
         d="m 91.8662,59.5339 c 0.3406,6.994 -0.838,12.595 -3.5359,16.8032 -2.6979,4.2082 -6.4766,6.4468 -11.3361,6.7161 -4.9008,0.2715 -8.8939,-1.5367 -11.9722,-5.4248 -3.0818,-3.888 -4.7947,-9.3289 -5.1353,-16.3228 -0.3406,-6.994 0.831,-12.5989 3.5212,-16.8238 2.6869,-4.2204 6.4792,-6.4641 11.38,-6.7356 4.8595,-0.2692 8.8357,1.5484 11.8537,5.6585 3.1673,3.6861 4.8841,9.1353 5.2246,16.1292 z m -6.0174,0.3334 c -0.2708,-5.5593 -1.3509,-9.6438 -3.24,-12.2449 -1.8893,-2.6054 -4.3953,-3.8238 -7.5177,-3.6508 -3.1639,0.1753 -5.552,1.6605 -7.171,4.4645 -1.6157,2.7996 -2.2866,6.9768 -2.0159,12.5361 0.262,5.38 1.3396,9.4132 3.2325,12.0912 1.893,2.6823 4.4112,3.9385 7.5609,3.7606 3.0953,-0.1681 5.4613,-1.682 7.0988,-4.5299 1.634,-2.852 2.3168,-6.9956 2.0524,-12.4268 z m 0,0" /><path
         id="char-3"
         d="m 106.2375,83.4706 -6.9295,-0.9019 9.3105,-49.0834 7.3899,1.087 z m -0.1363,-0.147" /><path
         id="char-4"
         d="m 156.813,36.6687 -15.5607,61.8323 -6.1279,2.2519 5.0256,-18.9489 -16.568,-32.9233 6.2194,-2.2855 12.7948,25.6854 8.2108,-33.4048 z m 0,0" /><path
         id="char-6"
         d="m 232.8823,43.7458 c -0.3305,2.3708 -1.0766,4.5841 -2.2287,6.6317 -1.1569,2.0516 -2.4241,3.942 -4.4065,5.3824 -2.2096,1.9067 -4.7102,3.3659 -7.5008,4.3694 -2.7911,1.0076 -6.2156,1.5786 -10.2728,1.709 l -7.5313,0.242 -2.779,19.9363 -7.5313,0.242 7.4557,-53.4866 15.3669,-0.4939 c 3.398,-0.1092 6.2388,0.0657 8.5214,0.5327 2.2832,0.4631 4.2578,1.238 5.9234,2.3288 1.9651,1.2957 3.3933,2.9424 4.2929,4.9399 0.8954,1.9977 1.124,4.5531 0.6901,7.6663 z m -7.8607,0.4315 c 0.2571,-1.844 0.1384,-3.4375 -0.356,-4.7805 -0.4944,-1.343 -1.3788,-2.4231 -2.6533,-3.2404 -1.1137,-0.7032 -2.4302,-1.1894 -3.9399,-1.4667 -1.5144,-0.2731 -3.4659,-0.3694 -5.8495,-0.2927 l -7.4552,0.2396 -2.9793,21.373 6.3521,-0.2041 c 3.043,-0.0978 5.551,-0.4327 7.5252,-1.0127 1.9736,-0.576 3.6345,-1.4439 4.9832,-2.6078 1.352,-1.1877 2.3659,-2.4242 3.0331,-3.7092 0.6714,-1.2851 1.1193,-2.718 1.3396,-4.2985 z m 0,0" /><path
         id="char-7"
         d="m 268.375,63.4375 h -28.9336 c 0,2.4141 0.3633,4.5195 1.0898,6.3086 0.7266,1.793 1.7227,3.2656 2.9883,4.4141 1.143,1.1022 2.668,1.9687 4.3399,2.5312 1.6758,0.5625 3.5234,0.8438 5.539,0.8438 2.6719,0 5.3594,-0.5313 8.0704,-1.6016 2.707,-1.0664 4.6328,-2.1133 5.7812,-3.1445 h 0.3516 v 7.207 c -2.2266,0.9375 -4.5,1.7227 -6.8204,2.3555 -2.3203,0.6328 -4.7578,0.9492 -7.3124,0.9492 -6.5157,0 -11.6016,-1.7656 -15.2579,-5.2891 -3.6562,-3.5273 -5.4843,-8.539 -5.4843,-15.0312 -0.0827,-6.3782 1.75,-11.5196 5.2578,-15.293 3.5039,-3.7734 8.1133,-5.6602 13.832,-5.6602 5.2969,0 9.3789,1.5469 12.4605,4.5917 2.6645,3.1427 4.0981,7.5372 4.0981,13.2326 z m -6.4336,-5.0625 c -0.0234,-3.4688 -0.8945,-6.1523 -2.6211,-8.0508 -1.7226,-1.8984 -4.3398,-2.8476 -7.8555,-2.8476 -3.539,0 -6.3554,1.0429 -8.457,3.1289 -2.0976,2.0859 -3.2851,4.6757 -3.5664,7.7695 z m 0,0" /><path
         id="char-8"
         d="m 307.543,79.9258 c -2.2032,1.0547 -4.293,1.875 -6.2774,2.4609 -1.9804,0.586 -4.082,0.8789 -6.3086,0.8789 -2.8359,0 -5.4375,-0.4179 -7.8047,-1.2461 -2.3517,-0.7818 -4.3482,-1.943 -6.0203,-3.5803 -1.7264,-1.7377 -3.0814,-3.971 -4.0343,-6.5994 -1.0106,-2.7658 -1.6558,-6.2308 -1.8322,-10.1293 -0.073,-6.6096 1.7618,-11.461 5.4694,-14.664 3.7038,-3.203 8.4331,-4.8434 14.2221,-4.8434 2.25,0 4.4571,0.3164 6.6289,0.9492 2.168,0.6329 4.1524,1.4063 5.9571,2.3204 v 7.3476 h -0.3516 c -2.0156,-1.5703 -4.0976,-2.7773 -6.2383,-3.6211 -2.1445,-0.8437 -4.2383,-1.2656 -6.2773,-1.2656 -3.75,0 -6.707,1.2578 -8.8789,3.7812 -2.168,2.5196 -3.25,6.2149 -3.25,11.0899 0,4.7344 1.0625,8.3711 3.1797,10.918 2.1211,2.5429 5.1054,3.8125 8.9492,3.8125 1.3359,0 2.6953,-0.1758 4.0781,-0.5274 1.3828,-0.3516 2.625,-0.8086 3.7266,-1.3711 0.9866,-0.4138 1.8633,-1.0156 2.707,-1.5625 0.8437,-0.5508 1.5117,-1.0273 2.0039,-1.4258 h 0.3516 z m 0,0" /><path
         id="char-9"
         d="m 340.566,77.192 c -1.0263,0.5098 -2.1543,1.0817 -3.3694,1.5956 -1.1803,0.4631 -2.22,0.7511 -3.1291,0.8811 -3.4318,0.8036 -6.303,0.3918 -8.6272,-1.2172 -2.3624,-1.5574 -4.1735,-4.5236 -5.4301,-8.9029 l -5.3451,-19.452 -4.0433,1.1924 -1.5024,-5.0652 3.8509,-0.9327 -2.8998,-10.4967 5.8104,-1.5291 2.8408,10.5763 12.0345,-3.2134 1.3983,5.2058 -12.0345,3.2134 4.5046,16.7706 c 0.5192,1.9329 0.9657,3.4302 1.3414,4.499 0.3748,1.0652 0.9408,1.9913 1.7023,2.7741 0.7066,0.7172 1.5191,1.155 2.4383,1.315 0.9095,0.1831 2.1734,0.0749 3.7955,-0.3008 0.9355,-0.2454 1.872,-0.6206 2.8157,-1.1603 0.9501,-0.5619 1.6276,-1.0096 2.0294,-1.3288 l 0.3102,-0.0828 z m -0.013,-0.0904" /><path
         id="char-10"
         d="m 372.242,62.2533 c 1.1532,5.5961 0.6932,10.4016 -1.3801,14.4165 -2.0732,4.0148 -5.41,6.6736 -10.0105,7.9762 -4.6395,1.3138 -8.6601,0.7383 -12.0552,-1.7281 -3.3983,-2.4655 -5.6616,-6.4952 -6.8173,-12.5037 -1.1649,-5.1844 -0.7121,-9.9915 1.3518,-14.0181 2.0613,-4.0224 5.4105,-6.6882 10.0501,-8.002 4.6004,-1.3026 8.6061,-0.7158 12.0156,1.7538 3.1519,2.4329 5.6923,6.5093 6.8456,12.1054 z m -5.6967,1.6131 c -0.9167,-4.4482 -2.4302,-7.5198 -4.5392,-9.2078 -2.1096,-1.6914 -4.6428,-2.1203 -7.5988,-1.2833 -2.9952,0.8481 -5.0957,2.5855 -6.3068,5.2209 -1.2086,2.631 -1.3532,6.1684 -0.4366,10.6166 0.8871,4.3048 2.3922,7.3353 4.5138,9.0848 2.1223,1.7529 4.6716,2.2098 7.6472,1.3672 2.9365,-0.8314 5.0125,-2.5872 6.2362,-5.2623 1.2196,-2.6775 1.3797,-6.1904 0.4842,-10.5361 z m 0,0" /><path
         id="char-11"
         d="m 413.0078,50.3242 h -0.3516 c -0.9843,-0.2344 -1.9374,-0.4062 -2.8671,-0.5078 -0.9258,-0.1055 -2.0196,-0.1602 -3.2852,-0.1602 -2.0391,0 -4.0078,0.4493 -5.9062,1.3555 -1.8985,0.9024 -3.7266,2.0664 -5.4844,3.4961 v 27.8789 h -6.6094 V 43.1172 h 6.6094 v 5.8008 c 2.625,-2.1094 4.9414,-3.6016 6.9414,-4.4844 2.0039,-0.8789 4.0508,-1.3164 6.1367,-1.3164 1.1484,0 1.9805,0.0273 2.4961,0.0898 0.5156,0.0586 1.2891,0.168 2.3203,0.3321 z m 0,0" /></g></g><g
     id="g8072"
     transform="matrix(0.24114958,0.01171687,0,0.13869108,1.8322747,97.006742)"
     style="display:inline;enable-background:new"><g
       style="display:inline"
       inkscape:label="Layer 1"
       id="layer4" /><path
       id="rect5872"
       d="m 11.987289,9.3234482 h 7.991524 v 3.9957608 h -7.991524 z"
       style="opacity:1;fill:#000000;fill-opacity:1;stroke:#000000;stroke-width:0;stroke-miterlimit:4;stroke-dasharray:none;stroke-opacity:1"
       inkscape:connector-curvature="0" /><path
       id="rect5874"
       d="m 14.667374,10.662096 h 3.995763 v 1.331921 h -3.995763 z"
       style="opacity:1;fill:#ffffff;fill-opacity:0.985714;stroke:#000000;stroke-width:0;stroke-miterlimit:4;stroke-dasharray:none;stroke-opacity:1"
       inkscape:connector-curvature="0" /><path
       id="rect5878"
       d="m -29.323654,9.3234482 h 7.989551 v 3.9957608 h -7.989551 z"
       style="opacity:1;fill:#000000;fill-opacity:1;stroke:#000000;stroke-width:0;stroke-miterlimit:4;stroke-dasharray:none;stroke-opacity:1"
       transform="scale(-1,1)"
       inkscape:connector-curvature="0" /><path
       id="rect5880"
       d="m -26.64423,10.662096 h 3.994777 v 1.331921 h -3.994777 z"
       style="opacity:1;fill:#ffffff;fill-opacity:0.985714;stroke:#000000;stroke-width:0;stroke-miterlimit:4;stroke-dasharray:none;stroke-opacity:1"
       transform="scale(-1,1)"
       inkscape:connector-curvature="0" /><path
       id="rect5882"
       d="m 19.995058,14.667374 h 1.331921 v 3.995762 h -1.331921 z"
       style="opacity:1;fill:#000000;fill-opacity:1;stroke:#000000;stroke-width:0;stroke-miterlimit:4;stroke-dasharray:none;stroke-opacity:1"
       inkscape:connector-curvature="0" /><path
       id="rect5884"
       d="m 21.326979,17.331215 h 1.315677 v 1.33192 h -1.315677 z"
       style="opacity:1;fill:#000000;fill-opacity:1;stroke:#000000;stroke-width:0;stroke-miterlimit:4;stroke-dasharray:none;stroke-opacity:1"
       inkscape:connector-curvature="0" /><path
       id="rect5886"
       d="m 11.954803,20.011301 h 2.696328 v 2.663842 h -2.696328 z"
       style="opacity:1;fill:#001800;fill-opacity:1;stroke:#000000;stroke-width:0;stroke-miterlimit:4;stroke-dasharray:none;stroke-opacity:1"
       inkscape:connector-curvature="0" /><path
       id="rect5888"
       d="m 27.970341,20.011301 h 2.696327 v 2.663842 h -2.696327 z"
       style="opacity:1;fill:#001800;fill-opacity:1;stroke:#000000;stroke-width:0;stroke-miterlimit:4;stroke-dasharray:none;stroke-opacity:1"
       inkscape:connector-curvature="0" /><path
       id="rect5890"
       d="m 14.651131,20.011301 h 13.351695 v 1.33192 H 14.651131 Z"
       style="opacity:1;fill:#001800;fill-opacity:1;stroke:#000000;stroke-width:0;stroke-miterlimit:4;stroke-dasharray:none;stroke-opacity:1"
       inkscape:connector-curvature="0" /></g></svg>
