<?xml version="1.0" encoding="UTF-8"?>
<svg xmlns="http://www.w3.org/2000/svg" width="240" height="380" viewBox="0 0 63.5 100.54167" version="1.1">
  <rect x="0" y="0" width="63.5" height="100.54167" fill="#e6e7e8"/>
  <path d="M0 0h63.5v3.7l-11.5-.5-10.2.7-11.4-.5-10.4.8-10.5-.6L0 4.1z" fill="#000"/>
  <path d="M0 53.8l10.2-1.5 10.8 1.6 10.4-1.7 10.9 1.5 10.7-1.3 10.5 1.3v46.84167H0z" fill="#d4d5d6"/>
  <path d="M7.4 23.3c4.9-1 9.4-.8 13.6.8" fill="none" stroke="#c43421" stroke-width="1.5" stroke-linecap="round"/>
  <path d="M31.2 23.3c4.9-1 9.5-.7 13.8.9" fill="none" stroke="#e4c421" stroke-width="1.5" stroke-linecap="round"/>
  <path d="M7.4 54c4.9-1 9.4-.8 13.6.8" fill="none" stroke="#245559" stroke-width="1.5" stroke-linecap="round"/>
  <path d="M31.2 54c4.9-1 9.5-.7 13.8.9" fill="none" stroke="#c0e7de" stroke-width="1.5" stroke-linecap="round"/>
  <text x="2.2" y="3.2" font-family="Arial, sans-serif" font-size="2.7" font-weight="700" fill="#e6e7e8" transform="rotate(-3 2.2 3.2)">the</text>
  <text x="8.0" y="3.5" font-family="Arial, sans-serif" font-size="3.3" font-weight="700" fill="#e4c421" transform="rotate(1 8 3.5)">humors</text>
  <text x="27.5" y="11.6" font-family="Arial, sans-serif" font-size="2.7" fill="#000" transform="rotate(2 27.5 11.6)">pattern</text>
  <text x="39.6" y="12.1" font-family="Arial, sans-serif" font-size="2.0" fill="#000">cv</text>
  <text x="53.3" y="11.9" font-family="Arial, sans-serif" font-size="2.3" fill="#000">poly</text>
  <text x="53.2" y="14.5" font-family="Arial, sans-serif" font-size="2.3" fill="#000">channels</text>
  <text x="9.2" y="20.7" font-family="Arial, sans-serif" font-size="3.5" fill="#000">Blood</text>
  <text x="33.0" y="20.7" font-family="Arial, sans-serif" font-size="3.5" fill="#000">Yellow Bile</text>
  <text x="9.2" y="51.4" font-family="Arial, sans-serif" font-size="3.5" fill="#000">Black Bile</text>
  <text x="33.0" y="51.4" font-family="Arial, sans-serif" font-size="3.5" fill="#000">Phlegm</text>
  <text x="13.5" y="41.7" font-family="Arial, sans-serif" font-size="2.2" fill="#000">av</text>
  <text x="22.2" y="41.7" font-family="Arial, sans-serif" font-size="2.2" fill="#000">cv</text>
  <text x="37.3" y="41.7" font-family="Arial, sans-serif" font-size="2.2" fill="#000">av</text>
  <text x="46.1" y="41.7" font-family="Arial, sans-serif" font-size="2.2" fill="#000">cv</text>
  <text x="13.5" y="72.4" font-family="Arial, sans-serif" font-size="2.2" fill="#000">av</text>
  <text x="22.2" y="72.4" font-family="Arial, sans-serif" font-size="2.2" fill="#000">cv</text>
  <text x="37.3" y="72.4" font-family="Arial, sans-serif" font-size="2.2" fill="#000">av</text>
  <text x="46.1" y="72.4" font-family="Arial, sans-serif" font-size="2.2" fill="#000">cv</text>
  <text x="9.8" y="77.6" font-family="Arial, sans-serif" font-size="3.0" font-weight="700" fill="#000">in</text>
  <text x="41.2" y="77.6" font-family="Arial, sans-serif" font-size="3.0" font-weight="700" fill="#000">out</text>
  <text x="6.8" y="80.9" font-family="Arial, sans-serif" font-size="2.2" fill="#000">clock</text>
  <text x="18.4" y="80.9" font-family="Arial, sans-serif" font-size="2.2" fill="#000">rhythm</text>
  <text x="35.6" y="80.9" font-family="Arial, sans-serif" font-size="2.2" fill="#000">clock</text>
  <text x="47.2" y="80.9" font-family="Arial, sans-serif" font-size="2.2" fill="#000">rhythm</text>
  <text x="8.3" y="90.4" font-family="Arial, sans-serif" font-size="2.2" fill="#000">cv</text>
  <text x="19.1" y="90.4" font-family="Arial, sans-serif" font-size="2.2" fill="#000">audio</text>
  <text x="37.1" y="90.4" font-family="Arial, sans-serif" font-size="2.2" fill="#000">cv</text>
  <text x="47.9" y="90.4" font-family="Arial, sans-serif" font-size="2.2" fill="#000">audio</text>
  <text x="3.0" y="97.0" font-family="Arial, sans-serif" font-size="2.7" fill="#000" transform="rotate(-2 3 97)">computerscare</text>
</svg>
