<?xml version="1.0" encoding="UTF-8" standalone="no"?>
<svg
   width="60"
   height="380"
   viewBox="0 0 15.875 100.54167"
   version="1.1"
   id="svg6"
   sodipodi:docname="ComputerscareSlolyPitPanel.svg"
   inkscape:version="1.3.2 (091e20e, 2023-11-25)"
   xmlns:inkscape="http://www.inkscape.org/namespaces/inkscape"
   xmlns:sodipodi="http://sodipodi.sourceforge.net/DTD/sodipodi-0.dtd"
   xmlns="http://www.w3.org/2000/svg"
   xmlns:svg="http://www.w3.org/2000/svg">
  <defs
     id="defs6" />
  <sodipodi:namedview
     id="namedview6"
     pagecolor="#ffffff"
     bordercolor="#000000"
     borderopacity="0.25"
     inkscape:showpageshadow="2"
     inkscape:pageopacity="0.0"
     inkscape:pagecheckerboard="0"
     inkscape:deskcolor="#d1d1d1"
     inkscape:zoom="7.0264084"
     inkscape:cx="-1.0674017"
     inkscape:cy="366.26109"
     inkscape:window-width="1920"
     inkscape:window-height="1022"
     inkscape:window-x="1728"
     inkscape:window-y="30"
     inkscape:window-maximized="1"
     inkscape:current-layer="g7" />
  <rect
     x="0"
     y="0"
     width="15.875"
     height="100.54167"
     fill="#f0f0f0"
     id="rect1" />
  <g
     id="g6"
     inkscape:label="Heading"
     transform="matrix(1.7207009,0,0,1.9843719,-0.36079531,-0.53359847)">
    <path
       d="M 1.7862594,2.0372115 C 1.7502394,2.1022345 1.7024264,2.1573123 1.6428199,2.2024459 1.5775399,2.2514039 1.5028259,2.2896529 1.4186777,2.317192 1.3352947,2.344731 1.2362297,2.3585 1.1214836,2.3585 0.99832284,2.3585 0.88835844,2.347025 0.79159024,2.324076 0.69558724,2.301127 0.59859584,2.267085 0.50061724,2.221952 l 0.023726,-0.2845696 h 0.016064 c 0.080447,0.071908 0.1756518,0.1273681 0.2856152,0.1663818 0.1099633,0.039014 0.21466826,0.058521 0.31411486,0.058521 0.1407552,0 0.1958636,-0.031099 0.2782918,-0.083882 0.083194,-0.052783 0.1284576,-0.123161 0.1357922,-0.211133 0.00631,-0.075732 0.048711,-0.1268686 0.014225,-0.1628224 -0.033721,-0.035954 -0.1441015,-0.068582 -0.2181756,-0.088472 -0.056098,-0.0153 -0.1173905,-0.027921 -0.183879,-0.037866 -0.065724,-0.00994 -0.078948,-0.01786 -0.1526399,-0.033159 -0.14878616,-0.032129 -0.25667696,-0.086825 -0.32367276,-0.1640869 -0.066167,-0.078027 -0.0407994,-0.2193262 -0.0304033,-0.344017 0.0119268,-0.14305008 0.0288651,-0.22015128 0.1573207,-0.31118318 0.1285194,-0.091797 0.28572346,-0.1376953 0.47161216,-0.1376953 0.1201009,0 0.2293004,0.011475 0.3275986,0.034424 0.098298,0.022949 0.138079,0.05791 0.212535,0.091569 l 0.02421,0.2618492 H 1.8368875 C 1.7764568,0.92073212 1.6945746,0.87521612 1.5912409,0.83926232 1.4887359,0.80254362 1.3820228,0.78418422 1.2711016,0.78418422 c -0.1216309,0 -0.2216522,0.025244 -0.30006406,0.075732 -0.077647,0.050489 -0.039769,0.077856 -0.046402,0.15741318 -0.00593,0.071142 -0.072248,0.1646412 -0.038908,0.2051849 0.033339,0.040543 0.095396,0.071525 0.18617166,0.092944 0.048065,0.010709 0.1433586,0.039311 0.2323502,0.054613 0.088991,0.015299 0.137416,0.015384 0.1988045,0.031449 0.1241794,0.033659 0.2155598,0.084529 0.2741413,0.1526123 -0.00666,0.3746572 0.02552,0.2473805 0.00906,0.4830789 z M 2.2861495,2.3745885 2.0139436,2.3698816 2.3079382,0.54207002 H 2.5236608 Z M 3.9474208,1.6872359 C 3.930009,1.8960738 3.8627164,2.0609257 3.7455426,2.1817916 3.6283691,2.3026575 3.4798979,2.3630904 3.300129,2.3630904 3.1188302,2.3630904 2.9796712,2.3026574 2.882652,2.1817916 2.7863979,2.0609257 2.6583273,1.9431432 2.6757392,1.7343053 2.6931511,1.5254675 2.8487107,1.3135462 2.9651192,1.1926803 3.0823566,1.0710494 3.2316247,1.010234 3.4129235,1.010234 c 0.1797689,0 0.318131,0.060815 0.4150863,0.1824463 0.097019,0.1208659 0.1368229,0.2857177 0.119411,0.4945556 z m -0.2226075,0 C 3.7386535,1.5212366 3.7164111,1.3980758 3.6580849,1.3177535 3.5998226,1.2366665 3.5129363,1.1961227 3.3974251,1.1961227 c -0.117041,0 -0.2114532,0.040544 -0.2832367,0.1216308 -0.070955,0.080322 -0.1133524,0.2034831 -0.1271926,0.3694824 -0.013394,0.1606445 0.00894,0.2826579 0.067015,0.36604 0.058135,0.082617 0.1453398,0.1239258 0.2616159,0.1239258 0.1147461,0 0.2080427,-0.040926 0.27989,-0.1227783 0.072676,-0.082617 0.1157749,-0.205013 0.1292966,-0.3671875 z M 4.4459658,2.3275191 H 4.2302432 l -0.020588,-1.73837968 0.2063087,0.00941 z M 5.9375096,0.73514692 5.1748803,2.4613729 4.8124461,2.4896146 5.0957,1.9548978 4.6867767,0.73514692 h 0.234082 L 5.2728792,1.638175 5.7114596,0.73514692 Z"
       id="text2"
       style="font-size:2.35px;text-anchor:middle"
       aria-label="Sloly"
       sodipodi:nodetypes="cccsccccsscscccccscssccccscsscscscscccssscscscsscscscscsccccccccccccccc" />
    <path
       d="m 7.3187675,0.98404022 c 0.00735,0.060619 -8.282e-4,0.11695048 -0.024544,0.16899618 -0.022932,0.051434 -0.058693,0.096132 -0.1072824,0.1340947 -0.060344,0.047148 -0.134112,0.082661 -0.2213026,0.1065414 -0.087265,0.023267 -0.1995345,0.034901 -0.3368098,0.034901 H 6.3740112 L 6.2569783,2.2113203 6.086886,2.3807703 6.0151398,0.57073452 h 0.51993 c 0.114968,0 0.2132016,0.00704 0.2947012,0.021125 0.081425,0.013471 0.1548074,0.034902 0.2201462,0.064292 0.077161,0.034902 0.1386312,0.078375 0.1844109,0.1304209 0.046638,0.052046 0.074784,0.1178685 0.084439,0.1974678 z m -0.264556,0.00459 c -0.00572,-0.047147 -0.022277,-0.088172 -0.049676,-0.1230733 -0.027399,-0.0349 -0.06603,-0.063371 -0.1158918,-0.085414 -0.043485,-0.018982 -0.092307,-0.032452 -0.146467,-0.040412 -0.053376,-0.00857 -0.1203886,-0.012858 -0.2010378,-0.012858 H 6.2888962 L 6.3383762,1.1347947 6.5701048,1.273355 C 6.6591408,1.326593 6.7559334,1.266925 6.8187216,1.254068 6.8814356,1.240597 6.9312095,1.219473 6.968043,1.190694 7.004803,1.161303 7.029365,1.130382 7.04173,1.097929 7.054953,1.065477 7.059114,1.029045 7.054211,0.98863222 Z m 0.811589,-0.24798 -0.250567,0.105958 -0.04398,-0.2850571 h 0.272834 z m 0.129835,1.19766848 h -0.241951 l -0.09375,-0.9281096 0.211257,-0.097807 z m 1.224069,-0.00918 c -0.04443,0.00857 -0.09335,0.015614 -0.146725,0.021125 -0.05252,0.00551 -0.09981,0.00826 -0.14185,0.00826 -0.146713,0 -0.261665,-0.028166 -0.344857,-0.084498 -0.08319,-0.05633 -0.06626,-0.3274382 -0.103255,-0.4502543 l -0.110326,-0.3662481 -0.284839,0.00815 -0.03544,-0.13696558 0.302674,-0.016301 -0.03576,-0.2948309 0.209235,0.040753 0.11455,0.2459213 0.453258,0.00815 0.0176,0.14511618 h -0.499339 l 0.05671,0.4674948 c 0.0065,0.053883 0.01336,0.096132 0.02047,0.1267472 0.0071,0.030003 0.02254,0.058169 0.04629,0.084498 0.02184,0.024493 0.04977,0.042555 0.08379,0.054189 0.0348,0.011022 0.08609,0.016533 0.153867,0.016533 0.03947,0 0.08017,-0.00398 0.122099,-0.01194 0.04186,-0.00857 0.0719,-0.015614 0.0901,-0.021125 h 0.01287 z"
       id="text3"
       style="font-size:2.35px;text-anchor:middle;stroke-width:0.947487"
       aria-label="Pit"
       sodipodi:nodetypes="scscsccccscccsscccsccscccssccccccccccccsssccccccccccscccscccc" />
  </g>
  <path
     d="m 2.2624552,6.4320177 q 0,0.136133 -0.039038,0.249244 -0.039038,0.112109 -0.1101074,0.190185 -0.066064,0.07407 -0.1561524,0.115112 -0.089087,0.04004 -0.1891845,0.04004 -0.087085,0 -0.1581543,-0.01902 -0.070068,-0.01902 -0.1431397,-0.05906 v 0.468457 H 1.2784952 v -1.530493 h 0.1881836 v 0.117114 q 0.075073,-0.06306 0.1681641,-0.105102 0.094092,-0.04304 0.2001953,-0.04304 0.2021972,0 0.3143066,0.153149 0.1131104,0.152149 0.1131104,0.423414 z m -0.1941895,0.005 q 0,-0.202197 -0.069067,-0.302295 -0.069067,-0.100097 -0.212207,-0.100097 -0.081079,0 -0.1631592,0.03503 -0.08208,0.03503 -0.1571533,0.09209 v 0.633618 q 0.080078,0.03603 0.1371338,0.04905 0.058057,0.01301 0.1311279,0.01301 0.1571533,0 0.2452393,-0.106103 0.088086,-0.106104 0.088086,-0.314307 z m 1.4404053,0.009 q 0,0.273267 -0.1401367,0.431421 -0.1401367,0.158154 -0.3753662,0.158154 -0.2372314,0 -0.3773682,-0.158154 -0.1391357,-0.158154 -0.1391357,-0.431421 0,-0.273267 0.1391357,-0.431421 0.1401368,-0.159155 0.3773682,-0.159155 0.2352295,0 0.3753662,0.159155 0.1401367,0.158154 0.1401367,0.431421 z m -0.1941894,0 q 0,-0.217212 -0.085083,-0.322314 -0.085083,-0.106104 -0.2362305,-0.106104 -0.1531494,0 -0.2382324,0.106104 -0.084082,0.105102 -0.084082,0.322314 0,0.210205 0.085083,0.319312 0.085083,0.108105 0.2372314,0.108105 0.1501465,0 0.2352295,-0.107104 0.086084,-0.108106 0.086084,-0.320313 z m 0.6756592,0.558559 H 3.8019572 V 5.4470577 H 3.9901408 Z M 5.3294473,5.8864857 4.6768106,7.4169787 H 4.4756143 L 4.6838174,6.9505237 4.2383828,5.8864857 H 4.442582 l 0.343335,0.828809 0.3463379,-0.828809 z"
     id="text4"
     style="font-size:2.05px;text-anchor:middle"
     aria-label="poly" />
  <path
     d="m 3.0006259,7.2332247 h -0.212207 v -0.19519 h 0.212207 z m -0.012012,1.305274 H 2.8004306 v -1.118091 h 0.1881836 z m 1.3072754,0 H 4.107706 v -0.636621 q 0,-0.07708 -0.00901,-0.144141 -0.00901,-0.06807 -0.033032,-0.106104 -0.025024,-0.04204 -0.07207,-0.06206 -0.047046,-0.02102 -0.1221192,-0.02102 -0.077075,0 -0.1611572,0.03804 -0.084082,0.03804 -0.1611572,0.09709 v 0.834816 H 3.3609775 v -1.118091 h 0.1881836 v 0.124121 q 0.088086,-0.07307 0.1821777,-0.114111 0.094092,-0.04104 0.1931885,-0.04104 0.1811767,0 0.2762695,0.109106 0.095093,0.109106 0.095093,0.314307 z"
     id="text5"
     style="font-size:2.05px;text-anchor:middle"
     aria-label="in" />
  <g
     id="g7"
     transform="matrix(1.6041869,-0.12417215,0,2.0333648,-3.8902985,-103.29927)">
    <path
       d="m 3.0448076,98.9968 -0.016513,0.163654 q -0.03213,-0.03775 -0.066844,-0.05443 -0.034151,-0.01776 -0.071353,-0.01445 -0.083212,0.0074 -0.140171,0.119753 -0.056868,0.111534 -0.076551,0.306601 -0.019679,0.195033 0.015394,0.29948 0.03517,0.103497 0.1183773,0.09623 0.037192,-0.0033 0.075452,-0.02627 0.03883,-0.02412 0.079223,-0.06823 l -0.016321,0.161746 q -0.039255,0.03742 -0.079557,0.05782 -0.039843,0.0204 -0.083071,0.0242 -0.1175982,0.0102 -0.1716014,-0.134915 -0.053997,-0.145226 -0.028074,-0.402118 0.026307,-0.260717 0.111107,-0.416186 0.085264,-0.15551 0.2070532,-0.166149 0.039506,-0.0033 0.075387,0.0109 0.036019,0.01289 0.067983,0.0432 z"
       style="font-style:normal;font-variant:normal;font-weight:normal;font-stretch:normal;font-size:2.82222px;line-height:1.25;font-family:sans-serif;-inkscape-font-specification:'sans-serif, Normal';font-variant-ligatures:normal;font-variant-caps:normal;font-variant-numeric:normal;font-feature-settings:normal;text-align:start;letter-spacing:0px;word-spacing:0px;writing-mode:lr-tb;text-anchor:start;display:inline;fill:#000000;fill-opacity:1;stroke:none;stroke-width:0.127124;enable-background:new"
       id="path1701"
       inkscape:connector-curvature="0" />
    <path
       d="m 3.3879717,99.047912 q -0.068801,0.0058 -0.1199098,0.119877 -0.051018,0.112922 -0.070315,0.304156 -0.019296,0.19125 0.00908,0.298167 0.028935,0.105926 0.098197,0.09988 0.068331,-0.0058 0.1194461,-0.119843 Q 3.475584,99.636285 3.494785,99.445985 3.51389,99.256659 3.485055,99.149767 3.456311,99.041933 3.387979,99.047913 Z m 0.014976,-0.148414 q 0.1115579,-0.0097 0.1602686,0.1331 0.048705,0.142873 0.022207,0.405473 -0.026402,0.261666 -0.1051596,0.416598 -0.078661,0.153991 -0.1902228,0.163741 -0.1120276,0.01 -0.1607343,-0.133064 -0.048144,-0.143871 -0.021742,-0.405513 0.026499,-0.262608 0.1046946,-0.416557 0.078661,-0.153999 0.1906885,-0.163778 z"
       style="font-style:normal;font-variant:normal;font-weight:normal;font-stretch:normal;font-size:2.82222px;line-height:1.25;font-family:sans-serif;-inkscape-font-specification:'sans-serif, Normal';font-variant-ligatures:normal;font-variant-caps:normal;font-variant-numeric:normal;font-feature-settings:normal;text-align:start;letter-spacing:0px;word-spacing:0px;writing-mode:lr-tb;text-anchor:start;display:inline;fill:#000000;fill-opacity:1;stroke:none;stroke-width:0.127124;enable-background:new"
       id="path1703"
       inkscape:connector-curvature="0" />
    <path
       d="m 3.8855357,99.885463 -0.1103013,0.539857 -0.1023655,0.0253 0.2870834,-1.405062 0.1023654,-0.02523 -0.031568,0.154497 q 0.050645,-0.09894 0.1082216,-0.154797 0.058317,-0.05689 0.1263329,-0.07391 0.1127677,-0.02863 0.1529582,0.101232 0.040705,0.129446 -0.00832,0.369391 -0.049025,0.239928 -0.1498896,0.404951 -0.1003128,0.164882 -0.2131228,0.193238 -0.067996,0.0172 -0.1083327,-0.0143 -0.039565,-0.03218 -0.053071,-0.115131 z m 0.4187812,-0.442344 q 0.037698,-0.1845 0.012603,-0.277344 -0.024359,-0.09389 -0.1050967,-0.07356 -0.080737,0.02024 -0.1487282,0.13739 -0.067253,0.116041 -0.1049512,0.300539 -0.037699,0.184509 -0.013339,0.278393 0.025095,0.09284 0.1058356,0.07257 0.080738,-0.02024 0.1479905,-0.136332 0.067992,-0.117099 0.1056866,-0.301599 z"
       style="font-style:normal;font-variant:normal;font-weight:normal;font-stretch:normal;font-size:2.82222px;line-height:1.25;font-family:sans-serif;-inkscape-font-specification:'sans-serif, Normal';font-variant-ligatures:normal;font-variant-caps:normal;font-variant-numeric:normal;font-feature-settings:normal;text-align:start;letter-spacing:0px;word-spacing:0px;writing-mode:lr-tb;text-anchor:start;display:inline;fill:#000000;fill-opacity:1;stroke:none;stroke-width:0.132576;enable-background:new"
       id="path1707"
       inkscape:connector-curvature="0" />
    <path
       d="M 4.4045048,99.839665 4.6632303,99.2409 4.7670039,99.2505 4.5109493,99.843047 q -0.060675,0.140411 -0.056229,0.214153 0.00482,0.0729 0.074769,0.0791 0.08406,0.008 0.1688111,-0.0722 0.085325,-0.07953 0.1479082,-0.224417 l 0.2423158,-0.560789 0.1037724,0.0096 -0.4273909,0.989126 -0.1037736,-0.009 0.065636,-0.15192 q -0.076717,0.0868 -0.1459973,0.12645 -0.06833,0.0388 -0.1343212,0.033 -0.1088151,-0.0103 -0.1194812,-0.12062 -0.010618,-0.11102 0.07753,-0.315009 z"
       style="font-style:normal;font-variant:normal;font-weight:normal;font-stretch:normal;font-size:2.82222px;line-height:1.25;font-family:sans-serif;-inkscape-font-specification:'sans-serif, Normal';font-variant-ligatures:normal;font-variant-caps:normal;font-variant-numeric:normal;font-feature-settings:normal;text-align:start;letter-spacing:0px;word-spacing:0px;writing-mode:lr-tb;text-anchor:start;display:inline;fill:#000000;fill-opacity:1;stroke:none;stroke-width:0.138084;enable-background:new"
       id="path1709"
       inkscape:connector-curvature="0" />
    <path
       d="m 5.486139,98.903392 -0.02105,0.263339 0.216795,0.01772 -0.00947,0.118415 -0.2167952,-0.01772 -0.040254,0.503471 q -0.00908,0.113446 0.00951,0.147474 0.019166,0.034 0.084942,0.03937 l 0.108114,0.0086 -0.010216,0.127519 -0.1081152,-0.008 q -0.1218791,-0.009 -0.1629468,-0.0792 -0.041037,-0.07001 -0.027128,-0.243917 l 0.040253,-0.503471 -0.077211,-0.0067 0.00947,-0.118424 0.077211,0.0067 0.021051,-0.263331 z"
       style="font-style:normal;font-variant:normal;font-weight:normal;font-stretch:normal;font-size:2.82222px;line-height:1.25;font-family:sans-serif;-inkscape-font-specification:'sans-serif, Normal';font-variant-ligatures:normal;font-variant-caps:normal;font-variant-numeric:normal;font-feature-settings:normal;text-align:start;letter-spacing:0px;word-spacing:0px;writing-mode:lr-tb;text-anchor:start;display:inline;fill:#000000;fill-opacity:1;stroke:none;stroke-width:0.132576;enable-background:new"
       id="path1711"
       inkscape:connector-curvature="0" />
    <path
       d="m 6.3348556,99.62306 -0.00595,0.08087 -0.4839446,-0.04265 q -0.00572,0.171307 0.046005,0.266281 0.052365,0.09413 0.1570467,0.103349 0.06062,0.006 0.1189852,-0.013 0.058927,-0.01832 0.1184295,-0.06006 l -0.011528,0.156322 q -0.059415,0.0327 -0.1203623,0.0473 -0.060949,0.0145 -0.1221529,0.01 -0.1532756,-0.0139 -0.2327839,-0.16156 -0.078906,-0.148003 -0.061291,-0.386961 0.018219,-0.247054 0.1135362,-0.384232 0.095962,-0.13802 0.2401149,-0.12532 0.1292718,0.01144 0.1945481,0.149152 0.065907,0.13691 0.049348,0.361506 z M 6.2331806,99.5652 q 0.00883,-0.135758 -0.032665,-0.220784 -0.040947,-0.08498 -0.118743,-0.09185 -0.088071,-0.0076 -0.1470545,0.06575 -0.058389,0.07348 -0.076861,0.214757 z"
       style="font-style:normal;font-variant:normal;font-weight:normal;font-stretch:normal;font-size:2.82222px;line-height:1.25;font-family:sans-serif;-inkscape-font-specification:'sans-serif, Normal';font-variant-ligatures:normal;font-variant-caps:normal;font-variant-numeric:normal;font-feature-settings:normal;text-align:start;letter-spacing:0px;word-spacing:0px;writing-mode:lr-tb;text-anchor:start;display:inline;fill:#000000;fill-opacity:1;stroke:none;stroke-width:0.138084;enable-background:new"
       id="path1713"
       inkscape:connector-curvature="0" />
    <path
       d="m 6.9015113,99.427243 q -0.01654,-0.0164 -0.03718,-0.02465 -0.019998,-0.0092 -0.045166,-0.01118 -0.089205,-0.0076 -0.1440425,0.07329 -0.054168,0.07975 -0.066751,0.237102 l -0.039089,0.488555 -0.1058711,-0.008 0.074176,-0.927444 0.1058699,0.0077 -0.011528,0.144082 q 0.039933,-0.08172 0.096377,-0.117991 0.056508,-0.03703 0.1325898,-0.03089 0.010866,9.55e-4 0.023797,0.0046 0.01298,0.0037 0.028674,0.0083 z"
       style="font-style:normal;font-variant:normal;font-weight:normal;font-stretch:normal;font-size:2.82222px;line-height:1.25;font-family:sans-serif;-inkscape-font-specification:'sans-serif, Normal';font-variant-ligatures:normal;font-variant-caps:normal;font-variant-numeric:normal;font-feature-settings:normal;text-align:start;letter-spacing:0px;word-spacing:0px;writing-mode:lr-tb;text-anchor:start;display:inline;fill:#000000;fill-opacity:1;stroke:none;stroke-width:0.132576;enable-background:new"
       id="path1715"
       inkscape:connector-curvature="0" />
    <path
       d="m 7.3582774,99.520145 -0.02453,0.166509 q -0.037908,-0.05422 -0.08199,-0.0905 -0.044072,-0.03639 -0.094322,-0.05474 -0.076488,-0.02799 -0.1209409,-0.0024 -0.043891,0.02638 -0.055732,0.106698 -0.00906,0.06127 0.013112,0.106647 0.022278,0.04445 0.1002596,0.106236 l 0.033206,0.02618 q 0.1035076,0.08027 0.1384378,0.170615 0.035629,0.0897 0.016311,0.22077 -0.021996,0.14927 -0.104055,0.21104 -0.081504,0.062 -0.2021038,0.0179 -0.050251,-0.0184 -0.1024257,-0.0556 -0.051764,-0.036 -0.1071208,-0.0916 l 0.026783,-0.18182 q 0.04948,0.0715 0.1009454,0.11757 0.051611,0.0452 0.1057682,0.0649 0.072583,0.0266 0.1178648,-0.002 0.045426,-0.0288 0.056846,-0.1063 0.01057,-0.0718 -0.012262,-0.12045 -0.022283,-0.0484 -0.1125348,-0.11878 l -0.033615,-0.02745 q -0.090401,-0.06932 -0.1223983,-0.155666 -0.031862,-0.0873 -0.013532,-0.211685 0.022272,-0.151192 0.096934,-0.210633 0.074657,-0.05944 0.1896697,-0.0174 0.056948,0.02084 0.1050789,0.0536 0.048131,0.03276 0.08634,0.07691 z"
       style="font-style:normal;font-variant:normal;font-weight:normal;font-stretch:normal;font-size:2.82222px;line-height:1.25;font-family:sans-serif;-inkscape-font-specification:'sans-serif, Normal';font-variant-ligatures:normal;font-variant-caps:normal;font-variant-numeric:normal;font-feature-settings:normal;text-align:start;letter-spacing:0px;word-spacing:0px;writing-mode:lr-tb;text-anchor:start;display:inline;fill:#000000;fill-opacity:1;stroke:none;stroke-width:0.144071;enable-background:new"
       id="path1717"
       inkscape:connector-curvature="0" />
    <path
       d="m 7.9468844,99.201613 -0.010015,0.16795 q -0.042174,-0.04698 -0.086216,-0.07229 -0.043408,-0.02631 -0.089243,-0.03132 -0.1025132,-0.0117 -0.1659067,0.0939 -0.063301,0.104129 -0.075245,0.304297 -0.011938,0.200175 0.038126,0.317697 0.050134,0.116553 0.1526816,0.127763 0.045862,0.004 0.09174,-0.0104 0.046542,-0.0165 0.093733,-0.0537 l -0.00987,0.16598 q -0.046207,0.0302 -0.094808,0.0426 -0.048025,0.0124 -0.1013107,0.007 -0.1449234,-0.0161 -0.2210406,-0.18046 -0.076097,-0.164583 -0.060366,-0.428219 0.015976,-0.267553 0.1110463,-0.411452 0.095654,-0.143832 0.2457525,-0.127399 0.048741,0.0048 0.094055,0.02799 0.045415,0.0217 0.08691,0.06069 z"
       style="font-style:normal;font-variant:normal;font-weight:normal;font-stretch:normal;font-size:2.82222px;line-height:1.25;font-family:sans-serif;-inkscape-font-specification:'sans-serif, Normal';font-variant-ligatures:normal;font-variant-caps:normal;font-variant-numeric:normal;font-feature-settings:normal;text-align:start;letter-spacing:0px;word-spacing:0px;writing-mode:lr-tb;text-anchor:start;display:inline;fill:#000000;fill-opacity:1;stroke:none;stroke-width:0.144071;enable-background:new"
       id="path1719"
       inkscape:connector-curvature="0" />
    <path
       d="m 8.322492,99.810424 q -0.1279446,-2.14e-4 -0.1773201,0.05083 -0.049374,0.0512 -0.049454,0.174806 -4.47e-5,0.0985 0.036613,0.15691 0.03725,0.0574 0.1009395,0.0575 0.087788,1.6e-4 0.1406401,-0.10833 0.05343,-0.10946 0.05355,-0.290411 l 1.85e-5,-0.04126 z m 0.2106143,-0.0759 -4.372e-4,0.642386 -0.105579,4.6e-4 1.21e-4,-0.17091 q -0.036213,0.10255 -0.090178,0.1516 -0.053962,0.0481 -0.1319937,0.048 -0.098692,-2.7e-4 -0.1571402,-0.0969 -0.057884,-0.0976 -0.057775,-0.26052 1.089e-4,-0.190007 0.072482,-0.286356 0.07293,-0.09634 0.216939,-0.09602 l 0.1480278,3.22e-4 1.16e-5,-0.01805 q 9.14e-5,-0.12767 -0.048067,-0.197143 -0.047573,-0.0705 -0.1342076,-0.07069 -0.055084,-2.94e-4 -0.1073041,0.02293 -0.052227,0.023 -0.10045,0.06922 l 1.201e-4,-0.170907 q 0.057973,-0.03911 0.1124922,-0.05801 0.054521,-0.01999 0.1061561,-0.01995 0.1394148,4.83e-4 0.2081835,0.127135 0.068765,0.126828 0.068594,0.384192 z"
       style="font-style:normal;font-variant:normal;font-weight:normal;font-stretch:normal;font-size:2.82222px;line-height:1.25;font-family:sans-serif;-inkscape-font-specification:'sans-serif, Normal';font-variant-ligatures:normal;font-variant-caps:normal;font-variant-numeric:normal;font-feature-settings:normal;text-align:start;letter-spacing:0px;word-spacing:0px;writing-mode:lr-tb;text-anchor:start;display:inline;fill:#000000;fill-opacity:1;stroke:none;stroke-width:0.145818;enable-background:new"
       id="path1721"
       inkscape:connector-curvature="0" />
    <path
       d="m 9.1228735,99.365633 q -0.017793,-0.01931 -0.039025,-0.02793 -0.020657,-0.0098 -0.045905,-0.0098 -0.089529,-3.64e-4 -0.1376806,0.108329 -0.047599,0.107714 -0.047562,0.310805 l 1.408e-4,0.630673 -0.1061395,-4.6e-4 -2.443e-4,-1.197201 0.1061394,9.02e-4 5.15e-5,0.185978 q 0.033259,-0.108869 0.086607,-0.160978 0.053349,-0.05319 0.1296597,-0.05277 0.01089,1.55e-4 0.024111,0.0037 0.013225,0.0028 0.029264,0.0083 z"
       style="font-style:normal;font-variant:normal;font-weight:normal;font-stretch:normal;font-size:2.82222px;line-height:1.25;font-family:sans-serif;-inkscape-font-specification:'sans-serif, Normal';font-variant-ligatures:normal;font-variant-caps:normal;font-variant-numeric:normal;font-feature-settings:normal;text-align:start;letter-spacing:0px;word-spacing:0px;writing-mode:lr-tb;text-anchor:start;display:inline;fill:#000000;fill-opacity:1;stroke:none;stroke-width:0.150362;enable-background:new"
       id="path1723"
       inkscape:connector-curvature="0" />
    <path
       d="m 9.7608906,99.770435 -5.85e-5,0.09051 -0.4853827,-0.0012 q 0.00676,0.191035 0.065214,0.291695 0.05903,0.0997 0.1640237,0.0999 0.060821,1.3e-4 0.1176343,-0.0257 0.057391,-0.026 0.1136521,-0.0781 l -1.206e-4,0.17491 q -0.056828,0.0422 -0.1165122,0.0641 -0.059686,0.0219 -0.1210743,0.0218 -0.1537564,-0.001 -0.2437357,-0.15736 -0.0894,-0.15706 -0.089221,-0.424463 1.886e-4,-0.276455 0.085205,-0.438137 0.085595,-0.16267 0.2301778,-0.162338 0.1296651,2.1e-4 0.2047285,0.147227 0.075637,0.145949 0.07547,0.397282 z m -0.1055305,-0.0546 q -0.00106,-0.151801 -0.048609,-0.242385 -0.046989,-0.09062 -0.1250155,-0.09079 -0.088339,-7.89e-4 -0.1417723,0.08718 -0.052844,0.08738 -0.06098,0.246169 z"
       style="font-style:normal;font-variant:normal;font-weight:normal;font-stretch:normal;font-size:2.82222px;line-height:1.25;font-family:sans-serif;-inkscape-font-specification:'sans-serif, Normal';font-variant-ligatures:normal;font-variant-caps:normal;font-variant-numeric:normal;font-feature-settings:normal;text-align:start;letter-spacing:0px;word-spacing:0px;writing-mode:lr-tb;text-anchor:start;display:inline;fill:#000000;fill-opacity:1;stroke:none;stroke-width:0.145818;enable-background:new"
       id="path1725"
       inkscape:connector-curvature="0" />
  </g>
  <g
     id="g8072"
     transform="matrix(0.18476937,0,0,0.20619294,9.9491054,95.587138)"
     style="display:inline;enable-background:new">
    <g
       style="display:inline"
       inkscape:label="Layer 1"
       id="layer4" />
    <path
       id="rect5872"
       d="m 11.987289,9.3234482 h 7.991524 v 3.9957608 h -7.991524 z"
       style="opacity:1;fill:#000000;fill-opacity:1;stroke:#000000;stroke-width:0;stroke-miterlimit:4;stroke-dasharray:none;stroke-opacity:1"
       inkscape:connector-curvature="0" />
    <path
       id="rect5874"
       d="m 14.667374,10.662096 h 3.995763 v 1.331921 h -3.995763 z"
       style="opacity:1;fill:#ffffff;fill-opacity:0.985714;stroke:#000000;stroke-width:0;stroke-miterlimit:4;stroke-dasharray:none;stroke-opacity:1"
       inkscape:connector-curvature="0" />
    <path
       id="rect5878"
       d="m -29.323654,9.3234482 h 7.989551 v 3.9957608 h -7.989551 z"
       style="opacity:1;fill:#000000;fill-opacity:1;stroke:#000000;stroke-width:0;stroke-miterlimit:4;stroke-dasharray:none;stroke-opacity:1"
       transform="scale(-1,1)"
       inkscape:connector-curvature="0" />
    <path
       id="rect5880"
       d="m -26.64423,10.662096 h 3.994777 v 1.331921 h -3.994777 z"
       style="opacity:1;fill:#ffffff;fill-opacity:0.985714;stroke:#000000;stroke-width:0;stroke-miterlimit:4;stroke-dasharray:none;stroke-opacity:1"
       inkscape:connector-curvature="0"
       transform="scale(-1,1)" />
    <path
       id="rect5882"
       d="m 19.995058,14.667374 h 1.331921 v 3.995762 h -1.331921 z"
       style="opacity:1;fill:#000000;fill-opacity:1;stroke:#000000;stroke-width:0;stroke-miterlimit:4;stroke-dasharray:none;stroke-opacity:1"
       inkscape:connector-curvature="0" />
    <path
       id="rect5884"
       d="m 21.326979,17.331215 h 1.315677 v 1.33192 h -1.315677 z"
       style="opacity:1;fill:#000000;fill-opacity:1;stroke:#000000;stroke-width:0;stroke-miterlimit:4;stroke-dasharray:none;stroke-opacity:1"
       inkscape:connector-curvature="0" />
    <path
       id="rect5886"
       d="m 11.954803,20.011301 h 2.696328 v 2.663842 h -2.696328 z"
       style="opacity:1;fill:#001800;fill-opacity:1;stroke:#000000;stroke-width:0;stroke-miterlimit:4;stroke-dasharray:none;stroke-opacity:1"
       inkscape:connector-curvature="0" />
    <path
       id="rect5888"
       d="m 27.970341,20.011301 h 2.696327 v 2.663842 h -2.696327 z"
       style="opacity:1;fill:#001800;fill-opacity:1;stroke:#000000;stroke-width:0;stroke-miterlimit:4;stroke-dasharray:none;stroke-opacity:1"
       inkscape:connector-curvature="0" />
    <path
       id="rect5890"
       d="m 14.651131,20.011301 h 13.351695 v 1.33192 H 14.651131 Z"
       style="opacity:1;fill:#001800;fill-opacity:1;stroke:#000000;stroke-width:0;stroke-miterlimit:4;stroke-dasharray:none;stroke-opacity:1"
       inkscape:connector-curvature="0" />
  </g>
</svg>
