<?xml version="1.0" encoding="UTF-8" standalone="no"?>
<svg
   width="60"
   height="380"
   viewBox="0 0 15.875 100.54167"
   version="1.1"
   id="svg6"
   sodipodi:docname="ComputerscareSlolyPitPanel.svg"
   inkscape:version="1.3.2 (091e20e, 2023-11-25)"
   xmlns:inkscape="http://www.inkscape.org/namespaces/inkscape"
   xmlns:sodipodi="http://sodipodi.sourceforge.net/DTD/sodipodi-0.dtd"
   xmlns="http://www.w3.org/2000/svg"
   xmlns:svg="http://www.w3.org/2000/svg">
  <defs
     id="defs6" />
  <sodipodi:namedview
     id="namedview6"
     pagecolor="#ffffff"
     bordercolor="#000000"
     borderopacity="0.25"
     inkscape:showpageshadow="2"
     inkscape:pageopacity="0.0"
     inkscape:pagecheckerboard="0"
     inkscape:deskcolor="#d1d1d1"
     inkscape:zoom="39.747369"
     inkscape:cx="9.7616525"
     inkscape:cy="11.082495"
     inkscape:window-width="1728"
     inkscape:window-height="1056"
     inkscape:window-x="0"
     inkscape:window-y="33"
     inkscape:window-maximized="1"
     inkscape:current-layer="layer2" />
  <path
     id="rect1"
     style="fill:#f5f5f5"
     d="M 0,0 14.1805,0.07531112 14.829726,3.8845284 15.899734,15.363468 15.875,100.54167 H 0 Z"
     sodipodi:nodetypes="ccccccc" />
  <g
     id="g7"
     transform="matrix(1.6041869,-0.12417215,0,2.0333648,-3.8902985,-103.29927)">
    <path
       d="m 3.0448076,98.9968 -0.016513,0.163654 q -0.03213,-0.03775 -0.066844,-0.05443 -0.034151,-0.01776 -0.071353,-0.01445 -0.083212,0.0074 -0.140171,0.119753 -0.056868,0.111534 -0.076551,0.306601 -0.019679,0.195033 0.015394,0.29948 0.03517,0.103497 0.1183773,0.09623 0.037192,-0.0033 0.075452,-0.02627 0.03883,-0.02412 0.079223,-0.06823 l -0.016321,0.161746 q -0.039255,0.03742 -0.079557,0.05782 -0.039843,0.0204 -0.083071,0.0242 -0.1175982,0.0102 -0.1716014,-0.134915 -0.053997,-0.145226 -0.028074,-0.402118 0.026307,-0.260717 0.111107,-0.416186 0.085264,-0.15551 0.2070532,-0.166149 0.039506,-0.0033 0.075387,0.0109 0.036019,0.01289 0.067983,0.0432 z"
       style="font-style:normal;font-variant:normal;font-weight:normal;font-stretch:normal;font-size:2.82222px;line-height:1.25;font-family:sans-serif;-inkscape-font-specification:'sans-serif, Normal';font-variant-ligatures:normal;font-variant-caps:normal;font-variant-numeric:normal;font-feature-settings:normal;text-align:start;letter-spacing:0px;word-spacing:0px;writing-mode:lr-tb;text-anchor:start;display:inline;fill:#000000;fill-opacity:1;stroke:none;stroke-width:0.127124;enable-background:new"
       id="path1701"
       inkscape:connector-curvature="0" />
    <path
       d="m 3.3879717,99.047912 q -0.068801,0.0058 -0.1199098,0.119877 -0.051018,0.112922 -0.070315,0.304156 -0.019296,0.19125 0.00908,0.298167 0.028935,0.105926 0.098197,0.09988 0.068331,-0.0058 0.1194461,-0.119843 Q 3.475584,99.636285 3.494785,99.445985 3.51389,99.256659 3.485055,99.149767 3.456311,99.041933 3.387979,99.047913 Z m 0.014976,-0.148414 q 0.1115579,-0.0097 0.1602686,0.1331 0.048705,0.142873 0.022207,0.405473 -0.026402,0.261666 -0.1051596,0.416598 -0.078661,0.153991 -0.1902228,0.163741 -0.1120276,0.01 -0.1607343,-0.133064 -0.048144,-0.143871 -0.021742,-0.405513 0.026499,-0.262608 0.1046946,-0.416557 0.078661,-0.153999 0.1906885,-0.163778 z"
       style="font-style:normal;font-variant:normal;font-weight:normal;font-stretch:normal;font-size:2.82222px;line-height:1.25;font-family:sans-serif;-inkscape-font-specification:'sans-serif, Normal';font-variant-ligatures:normal;font-variant-caps:normal;font-variant-numeric:normal;font-feature-settings:normal;text-align:start;letter-spacing:0px;word-spacing:0px;writing-mode:lr-tb;text-anchor:start;display:inline;fill:#000000;fill-opacity:1;stroke:none;stroke-width:0.127124;enable-background:new"
       id="path1703"
       inkscape:connector-curvature="0" />
    <path
       d="m 3.8855357,99.885463 -0.1103013,0.539857 -0.1023655,0.0253 0.2870834,-1.405062 0.1023654,-0.02523 -0.031568,0.154497 q 0.050645,-0.09894 0.1082216,-0.154797 0.058317,-0.05689 0.1263329,-0.07391 0.1127677,-0.02863 0.1529582,0.101232 0.040705,0.129446 -0.00832,0.369391 -0.049025,0.239928 -0.1498896,0.404951 -0.1003128,0.164882 -0.2131228,0.193238 -0.067996,0.0172 -0.1083327,-0.0143 -0.039565,-0.03218 -0.053071,-0.115131 z m 0.4187812,-0.442344 q 0.037698,-0.1845 0.012603,-0.277344 -0.024359,-0.09389 -0.1050967,-0.07356 -0.080737,0.02024 -0.1487282,0.13739 -0.067253,0.116041 -0.1049512,0.300539 -0.037699,0.184509 -0.013339,0.278393 0.025095,0.09284 0.1058356,0.07257 0.080738,-0.02024 0.1479905,-0.136332 0.067992,-0.117099 0.1056866,-0.301599 z"
       style="font-style:normal;font-variant:normal;font-weight:normal;font-stretch:normal;font-size:2.82222px;line-height:1.25;font-family:sans-serif;-inkscape-font-specification:'sans-serif, Normal';font-variant-ligatures:normal;font-variant-caps:normal;font-variant-numeric:normal;font-feature-settings:normal;text-align:start;letter-spacing:0px;word-spacing:0px;writing-mode:lr-tb;text-anchor:start;display:inline;fill:#000000;fill-opacity:1;stroke:none;stroke-width:0.132576;enable-background:new"
       id="path1707"
       inkscape:connector-curvature="0" />
    <path
       d="M 4.4045048,99.839665 4.6632303,99.2409 4.7670039,99.2505 4.5109493,99.843047 q -0.060675,0.140411 -0.056229,0.214153 0.00482,0.0729 0.074769,0.0791 0.08406,0.008 0.1688111,-0.0722 0.085325,-0.07953 0.1479082,-0.224417 l 0.2423158,-0.560789 0.1037724,0.0096 -0.4273909,0.989126 -0.1037736,-0.009 0.065636,-0.15192 q -0.076717,0.0868 -0.1459973,0.12645 -0.06833,0.0388 -0.1343212,0.033 -0.1088151,-0.0103 -0.1194812,-0.12062 -0.010618,-0.11102 0.07753,-0.315009 z"
       style="font-style:normal;font-variant:normal;font-weight:normal;font-stretch:normal;font-size:2.82222px;line-height:1.25;font-family:sans-serif;-inkscape-font-specification:'sans-serif, Normal';font-variant-ligatures:normal;font-variant-caps:normal;font-variant-numeric:normal;font-feature-settings:normal;text-align:start;letter-spacing:0px;word-spacing:0px;writing-mode:lr-tb;text-anchor:start;display:inline;fill:#000000;fill-opacity:1;stroke:none;stroke-width:0.138084;enable-background:new"
       id="path1709"
       inkscape:connector-curvature="0" />
    <path
       d="m 5.486139,98.903392 -0.02105,0.263339 0.216795,0.01772 -0.00947,0.118415 -0.2167952,-0.01772 -0.040254,0.503471 q -0.00908,0.113446 0.00951,0.147474 0.019166,0.034 0.084942,0.03937 l 0.108114,0.0086 -0.010216,0.127519 -0.1081152,-0.008 q -0.1218791,-0.009 -0.1629468,-0.0792 -0.041037,-0.07001 -0.027128,-0.243917 l 0.040253,-0.503471 -0.077211,-0.0067 0.00947,-0.118424 0.077211,0.0067 0.021051,-0.263331 z"
       style="font-style:normal;font-variant:normal;font-weight:normal;font-stretch:normal;font-size:2.82222px;line-height:1.25;font-family:sans-serif;-inkscape-font-specification:'sans-serif, Normal';font-variant-ligatures:normal;font-variant-caps:normal;font-variant-numeric:normal;font-feature-settings:normal;text-align:start;letter-spacing:0px;word-spacing:0px;writing-mode:lr-tb;text-anchor:start;display:inline;fill:#000000;fill-opacity:1;stroke:none;stroke-width:0.132576;enable-background:new"
       id="path1711"
       inkscape:connector-curvature="0" />
    <path
       d="m 6.3348556,99.62306 -0.00595,0.08087 -0.4839446,-0.04265 q -0.00572,0.171307 0.046005,0.266281 0.052365,0.09413 0.1570467,0.103349 0.06062,0.006 0.1189852,-0.013 0.058927,-0.01832 0.1184295,-0.06006 l -0.011528,0.156322 q -0.059415,0.0327 -0.1203623,0.0473 -0.060949,0.0145 -0.1221529,0.01 -0.1532756,-0.0139 -0.2327839,-0.16156 -0.078906,-0.148003 -0.061291,-0.386961 0.018219,-0.247054 0.1135362,-0.384232 0.095962,-0.13802 0.2401149,-0.12532 0.1292718,0.01144 0.1945481,0.149152 0.065907,0.13691 0.049348,0.361506 z M 6.2331806,99.5652 q 0.00883,-0.135758 -0.032665,-0.220784 -0.040947,-0.08498 -0.118743,-0.09185 -0.088071,-0.0076 -0.1470545,0.06575 -0.058389,0.07348 -0.076861,0.214757 z"
       style="font-style:normal;font-variant:normal;font-weight:normal;font-stretch:normal;font-size:2.82222px;line-height:1.25;font-family:sans-serif;-inkscape-font-specification:'sans-serif, Normal';font-variant-ligatures:normal;font-variant-caps:normal;font-variant-numeric:normal;font-feature-settings:normal;text-align:start;letter-spacing:0px;word-spacing:0px;writing-mode:lr-tb;text-anchor:start;display:inline;fill:#000000;fill-opacity:1;stroke:none;stroke-width:0.138084;enable-background:new"
       id="path1713"
       inkscape:connector-curvature="0" />
    <path
       d="m 6.9015113,99.427243 q -0.01654,-0.0164 -0.03718,-0.02465 -0.019998,-0.0092 -0.045166,-0.01118 -0.089205,-0.0076 -0.1440425,0.07329 -0.054168,0.07975 -0.066751,0.237102 l -0.039089,0.488555 -0.1058711,-0.008 0.074176,-0.927444 0.1058699,0.0077 -0.011528,0.144082 q 0.039933,-0.08172 0.096377,-0.117991 0.056508,-0.03703 0.1325898,-0.03089 0.010866,9.55e-4 0.023797,0.0046 0.01298,0.0037 0.028674,0.0083 z"
       style="font-style:normal;font-variant:normal;font-weight:normal;font-stretch:normal;font-size:2.82222px;line-height:1.25;font-family:sans-serif;-inkscape-font-specification:'sans-serif, Normal';font-variant-ligatures:normal;font-variant-caps:normal;font-variant-numeric:normal;font-feature-settings:normal;text-align:start;letter-spacing:0px;word-spacing:0px;writing-mode:lr-tb;text-anchor:start;display:inline;fill:#000000;fill-opacity:1;stroke:none;stroke-width:0.132576;enable-background:new"
       id="path1715"
       inkscape:connector-curvature="0" />
    <path
       d="m 7.3582774,99.520145 -0.02453,0.166509 q -0.037908,-0.05422 -0.08199,-0.0905 -0.044072,-0.03639 -0.094322,-0.05474 -0.076488,-0.02799 -0.1209409,-0.0024 -0.043891,0.02638 -0.055732,0.106698 -0.00906,0.06127 0.013112,0.106647 0.022278,0.04445 0.1002596,0.106236 l 0.033206,0.02618 q 0.1035076,0.08027 0.1384378,0.170615 0.035629,0.0897 0.016311,0.22077 -0.021996,0.14927 -0.104055,0.21104 -0.081504,0.062 -0.2021038,0.0179 -0.050251,-0.0184 -0.1024257,-0.0556 -0.051764,-0.036 -0.1071208,-0.0916 l 0.026783,-0.18182 q 0.04948,0.0715 0.1009454,0.11757 0.051611,0.0452 0.1057682,0.0649 0.072583,0.0266 0.1178648,-0.002 0.045426,-0.0288 0.056846,-0.1063 0.01057,-0.0718 -0.012262,-0.12045 -0.022283,-0.0484 -0.1125348,-0.11878 l -0.033615,-0.02745 q -0.090401,-0.06932 -0.1223983,-0.155666 -0.031862,-0.0873 -0.013532,-0.211685 0.022272,-0.151192 0.096934,-0.210633 0.074657,-0.05944 0.1896697,-0.0174 0.056948,0.02084 0.1050789,0.0536 0.048131,0.03276 0.08634,0.07691 z"
       style="font-style:normal;font-variant:normal;font-weight:normal;font-stretch:normal;font-size:2.82222px;line-height:1.25;font-family:sans-serif;-inkscape-font-specification:'sans-serif, Normal';font-variant-ligatures:normal;font-variant-caps:normal;font-variant-numeric:normal;font-feature-settings:normal;text-align:start;letter-spacing:0px;word-spacing:0px;writing-mode:lr-tb;text-anchor:start;display:inline;fill:#000000;fill-opacity:1;stroke:none;stroke-width:0.144071;enable-background:new"
       id="path1717"
       inkscape:connector-curvature="0" />
    <path
       d="m 7.9468844,99.201613 -0.010015,0.16795 q -0.042174,-0.04698 -0.086216,-0.07229 -0.043408,-0.02631 -0.089243,-0.03132 -0.1025132,-0.0117 -0.1659067,0.0939 -0.063301,0.104129 -0.075245,0.304297 -0.011938,0.200175 0.038126,0.317697 0.050134,0.116553 0.1526816,0.127763 0.045862,0.004 0.09174,-0.0104 0.046542,-0.0165 0.093733,-0.0537 l -0.00987,0.16598 q -0.046207,0.0302 -0.094808,0.0426 -0.048025,0.0124 -0.1013107,0.007 -0.1449234,-0.0161 -0.2210406,-0.18046 -0.076097,-0.164583 -0.060366,-0.428219 0.015976,-0.267553 0.1110463,-0.411452 0.095654,-0.143832 0.2457525,-0.127399 0.048741,0.0048 0.094055,0.02799 0.045415,0.0217 0.08691,0.06069 z"
       style="font-style:normal;font-variant:normal;font-weight:normal;font-stretch:normal;font-size:2.82222px;line-height:1.25;font-family:sans-serif;-inkscape-font-specification:'sans-serif, Normal';font-variant-ligatures:normal;font-variant-caps:normal;font-variant-numeric:normal;font-feature-settings:normal;text-align:start;letter-spacing:0px;word-spacing:0px;writing-mode:lr-tb;text-anchor:start;display:inline;fill:#000000;fill-opacity:1;stroke:none;stroke-width:0.144071;enable-background:new"
       id="path1719"
       inkscape:connector-curvature="0" />
    <path
       d="m 8.322492,99.870357 q -0.1279446,-9.69e-4 -0.1773201,0.0447 -0.049374,0.04581 -0.049454,0.157143 -4.47e-5,0.0887 0.036613,0.14154 0.03725,0.0519 0.1009395,0.0524 0.087788,6.7e-4 0.1406401,-0.0967 0.05343,-0.0983 0.05355,-0.261229 l 1.85e-5,-0.03716 z m 0.2106143,-0.06708 -4.372e-4,0.578553 -0.105579,-2.3e-4 1.21e-4,-0.15392 q -0.036213,0.0921 -0.090178,0.13598 -0.053962,0.043 -0.1319937,0.0424 -0.098692,-8.4e-4 -0.1571402,-0.0882 -0.057884,-0.0883 -0.057775,-0.23498 1.089e-4,-0.171131 0.072482,-0.257467 0.07293,-0.08632 0.216939,-0.08516 l 0.1480278,0.0012 1.16e-5,-0.01626 q 9.14e-5,-0.114983 -0.048067,-0.177845 -0.047573,-0.06378 -0.1342076,-0.06448 -0.055084,-5.99e-4 -0.1073041,0.02 -0.052227,0.0204 -0.10045,0.06173 l 1.201e-4,-0.153923 q 0.057973,-0.03487 0.1124922,-0.05156 0.054521,-0.01767 0.1061561,-0.01732 0.1394148,0.0013 0.2081835,0.115765 0.068765,0.114643 0.068594,0.346432 z"
       style="font-style:normal;font-variant:normal;font-weight:normal;font-stretch:normal;font-size:2.82222px;line-height:1.25;font-family:sans-serif;-inkscape-font-specification:'sans-serif, Normal';font-variant-ligatures:normal;font-variant-caps:normal;font-variant-numeric:normal;font-feature-settings:normal;text-align:start;letter-spacing:0px;word-spacing:0px;writing-mode:lr-tb;text-anchor:start;display:inline;fill:#000000;fill-opacity:1;stroke:none;stroke-width:0.138384;enable-background:new"
       id="path1721"
       inkscape:connector-curvature="0" />
    <path
       d="m 9.1228735,99.365633 q -0.023285,-0.01964 -0.051071,-0.02867 -0.027033,-0.01019 -0.060074,-0.01067 -0.1171637,-0.0021 -0.180178,0.105734 -0.062291,0.106817 -0.062243,0.309908 l 1.842e-4,0.630675 -0.1389012,-0.002 -3.197e-4,-1.197205 0.1389011,0.0029 6.74e-5,0.185979 q 0.043525,-0.108242 0.1133397,-0.159345 0.069816,-0.05218 0.1696813,-0.05033 0.014251,3.6e-4 0.031553,0.0042 0.017307,0.0031 0.038297,0.0089 z"
       style="font-style:normal;font-variant:normal;font-weight:normal;font-stretch:normal;font-size:2.82222px;line-height:1.25;font-family:sans-serif;-inkscape-font-specification:'sans-serif, Normal';font-variant-ligatures:normal;font-variant-caps:normal;font-variant-numeric:normal;font-feature-settings:normal;text-align:start;letter-spacing:0px;word-spacing:0px;writing-mode:lr-tb;text-anchor:start;display:inline;fill:#000000;fill-opacity:1;stroke:none;stroke-width:0.17201;enable-background:new"
       id="path1723"
       inkscape:connector-curvature="0" />
    <path
       d="m 9.7608906,99.770435 -5.85e-5,0.09051 -0.4604855,-0.03896 c 0.00451,0.127357 0.00135,0.262349 0.040317,0.329459 0.039353,0.0665 0.094028,0.0998 0.1640237,0.0999 0.040547,9e-5 0.079759,-0.008 0.1176343,-0.0257 0.038261,-0.0173 0.076145,-0.0434 0.1136521,-0.0781 l -1.206e-4,0.17491 c -0.037885,0.0281 -0.076723,0.0495 -0.1165122,0.0641 -0.039791,0.0146 -0.080149,0.0219 -0.1210743,0.0218 -0.1025043,-6.7e-4 -0.1837495,-0.0531 -0.2437357,-0.15736 -0.0596,-0.10471 -0.08934,-0.24619 -0.089221,-0.424463 1.257e-4,-0.184303 0.028527,-0.330349 0.085205,-0.438137 0.057063,-0.108447 0.1337893,-0.162559 0.2301778,-0.162338 0.086443,1.4e-4 0.1546862,0.04922 0.2047285,0.147227 0.050425,0.0973 0.075581,0.229727 0.07547,0.397282 z m -0.088932,-0.06013 c -7.066e-4,-0.1012 -0.033508,-0.176462 -0.065207,-0.236851 -0.031326,-0.06041 -0.072998,-0.09068 -0.1250155,-0.09079 -0.058893,-5.26e-4 -0.1061501,0.02853 -0.1417723,0.08718 -0.035229,0.05825 -0.055556,0.14031 -0.06098,0.246169 z"
       style="font-style:normal;font-variant:normal;font-weight:normal;font-stretch:normal;font-size:2.82222px;line-height:1.25;font-family:sans-serif;-inkscape-font-specification:'sans-serif, Normal';font-variant-ligatures:normal;font-variant-caps:normal;font-variant-numeric:normal;font-feature-settings:normal;text-align:start;letter-spacing:0px;word-spacing:0px;writing-mode:lr-tb;text-anchor:start;display:inline;fill:#000000;fill-opacity:1;stroke:none;stroke-width:0.145818;enable-background:new"
       id="path1725"
       inkscape:connector-curvature="0"
       sodipodi:nodetypes="ccccscccsccsccccccccccc" />
  </g>
  <g
     id="g8072"
     transform="matrix(0.18476937,0,0,0.20619294,9.9491054,95.587138)"
     style="display:inline;enable-background:new">
    <g
       style="display:inline"
       inkscape:label="Layer 1"
       id="layer4" />
    <path
       id="rect5872"
       d="m 11.987289,7.9675421 h 7.991524 v 5.3516669 h -7.991524 z"
       style="opacity:1;fill:#000000;fill-opacity:1;stroke:#000000;stroke-width:0;stroke-miterlimit:4;stroke-dasharray:none;stroke-opacity:1"
       inkscape:connector-curvature="0" />
    <path
       id="rect5874"
       d="m 14.667374,9.7604415 h 3.995763 v 1.7838895 h -3.995763 z"
       style="opacity:1;fill:#ffffff;fill-opacity:0.985714;stroke:#000000;stroke-width:0;stroke-miterlimit:4;stroke-dasharray:none;stroke-opacity:1"
       inkscape:connector-curvature="0" />
    <path
       id="rect5878"
       d="m -29.323654,9.3234482 h 7.989551 v 3.9957608 h -7.989551 z"
       style="opacity:1;fill:#000000;fill-opacity:1;stroke:#000000;stroke-width:0;stroke-miterlimit:4;stroke-dasharray:none;stroke-opacity:1"
       transform="scale(-1,1)"
       inkscape:connector-curvature="0" />
    <path
       id="rect5880"
       d="m -26.64423,10.662096 h 3.994777 v 1.331921 h -3.994777 z"
       style="opacity:1;fill:#ffffff;fill-opacity:0.985714;stroke:#000000;stroke-width:0;stroke-miterlimit:4;stroke-dasharray:none;stroke-opacity:1"
       inkscape:connector-curvature="0"
       transform="scale(-1,1)" />
    <path
       id="rect5882"
       d="m 19.562738,14.667374 h 1.331921 l 0.86464,3.995762 h -1.331921 z"
       style="opacity:1;fill:#000000;fill-opacity:1;stroke:#000000;stroke-width:0;stroke-miterlimit:4;stroke-dasharray:none;stroke-opacity:1"
       inkscape:connector-curvature="0" />
    <path
       id="rect5884"
       d="m 21.326979,17.331215 h 2.324424 v 1.33192 h -2.324424 z"
       style="opacity:1;fill:#000000;fill-opacity:1;stroke:#000000;stroke-width:0;stroke-miterlimit:4;stroke-dasharray:none;stroke-opacity:1"
       inkscape:connector-curvature="0" />
    <path
       id="rect5886"
       d="m 12.243016,19.559332 2.408115,0.451969 v 2.663842 h -2.696328 z"
       style="opacity:1;fill:#001800;fill-opacity:1;stroke:#000000;stroke-width:0;stroke-miterlimit:4;stroke-dasharray:none;stroke-opacity:1"
       inkscape:connector-curvature="0"
       sodipodi:nodetypes="ccccc" />
    <path
       id="rect5888"
       d="m 27.970341,20.011301 h 2.696327 v 2.663842 h -2.696327 z"
       style="opacity:1;fill:#001800;fill-opacity:1;stroke:#000000;stroke-width:0;stroke-miterlimit:4;stroke-dasharray:none;stroke-opacity:1"
       inkscape:connector-curvature="0" />
    <path
       id="rect5890"
       d="m 13.930598,19.688466 14.072228,0.322835 v 1.33192 H 14.651131 Z"
       style="opacity:1;fill:#001800;fill-opacity:1;stroke:#000000;stroke-width:0;stroke-miterlimit:4;stroke-dasharray:none;stroke-opacity:1"
       inkscape:connector-curvature="0"
       sodipodi:nodetypes="ccccc" />
  </g>
  <g
     aria-label="IN"
     transform="matrix(3.2436671,-0.07035358,0.2159122,0.62386063,-66.879245,-176.20022)"
     style="font-style:normal;font-weight:normal;font-size:3.04768px;line-height:1.25;font-family:sans-serif;letter-spacing:0px;word-spacing:0px;display:inline;fill:#000000;fill-opacity:1;stroke:none;stroke-width:0.076192;enable-background:new"
     id="text1629"
     inkscape:label="IN label">
    <g
       inkscape:groupmode="layer"
       id="layer2"
       inkscape:label="In block"
       transform="matrix(0.61907084,0.06981343,-0.14113129,2.1202272,1.6859318,278.86136)">
      <path
         style="fill:#626262;fill-opacity:1;stroke:none;stroke-width:0.160238;stroke-linecap:round;stroke-linejoin:miter;stroke-dasharray:none;stroke-opacity:1"
         d="M 0.79261194,6.8557789 0.96212537,13.971201 8.2573915,13.302446 7.4828154,5.1450442 Z"
         id="path2"
         sodipodi:nodetypes="ccccc" />
      <path
         style="fill:#9d9d9d;fill-opacity:1;stroke:none;stroke-width:0.160238;stroke-linecap:round;stroke-linejoin:miter;stroke-dasharray:none;stroke-opacity:1"
         d="m 7.5246146,5.1256032 -0.8777853,0.952603 1.0818403,7.2471588 0.6085982,-0.0081 z"
         id="path3"
         sodipodi:nodetypes="ccccc" />
      <path
         style="fill:#8a8a8a;fill-opacity:1;stroke:none;stroke-width:0.189007;stroke-linecap:round;stroke-linejoin:miter;stroke-dasharray:none;stroke-opacity:1"
         d="M 6.6979346,6.3450689 0.77174138,6.8623708 0.68955278,4.6207661 8.3789371,4.3409947 Z"
         id="path4"
         sodipodi:nodetypes="ccccc" />
      <path
         style="fill:#313131;fill-opacity:1;stroke:none;stroke-width:0.140074;stroke-linecap:round"
         d="M 0.61999215,1.7820317 0.67263624,4.6191967 8.3718336,4.3594563 8.3323505,1.7620517 Z"
         id="path9"
         sodipodi:nodetypes="ccccc" />
    </g>
    <g
       id="g4"
       transform="matrix(0.97376554,-0.80565806,-0.06078018,1.8332434,17.271952,-238.34709)">
      <path
         d="m 1.5896821,292.01722 0.05323,-0.90471 0.1305849,0.0328 0,2.22178 H 1.5923423 Z"
         style="font-style:normal;font-weight:normal;font-size:3.04768px;line-height:1.25;font-family:sans-serif;letter-spacing:0px;word-spacing:0px;display:inline;fill:#000000;fill-opacity:1;stroke:none;stroke-width:0.0591478;enable-background:new"
         id="path1635"
         inkscape:connector-curvature="0"
         inkscape:label="path1635"
         sodipodi:nodetypes="cccccc" />
      <path
         d="m 2.1552815,291.09761 0.2289427,0.0235 0.5201015,1.91404 0.037104,-1.61781 0.1649734,0.0511 -0.044354,1.94641 -0.1624789,0.30478 -0.5865654,-2.24232 -0.037104,1.85677 -0.1649733,-0.017 z"
         style="stroke-width:0.0573313"
         id="path1637"
         inkscape:connector-curvature="0"
         sodipodi:nodetypes="ccccccccccc" />
    </g>
  </g>
  <g
     id="g6"
     inkscape:label="Heading"
     transform="matrix(1.7207009,0,0,1.9843719,-0.38742181,-0.82648998)"
     style="fill:#f2f2f2">
    <path
       d="m 1.7862594,1.9605772 c -0.03602,0.06169 -0.083833,0.113945 -0.1434395,0.1567653 -0.06528,0.046449 -0.139994,0.082737 -0.2241422,0.1088647 -0.083383,0.026127 -0.182448,0.039191 -0.2971941,0.039191 -0.12316076,0 -0.23312516,-0.010887 -0.32989336,-0.03266 -0.096003,-0.021773 -0.1929944,-0.05407 -0.290973,-0.096889 l 0.023726,-0.2699839 0.0934351,0.023482 c 0.080447,0.068222 0.0982807,0.097358 0.20824411,0.1343721 0.1099633,0.037014 0.21466826,0.055522 0.31411486,0.055522 0.1407552,0 0.1958636,-0.029505 0.2782918,-0.079583 C 1.5016231,1.9495811 1.5468867,1.8828098 1.5542213,1.7993469 1.5605313,1.7274969 1.6029323,1.678981 1.5684463,1.64487 1.5347253,1.6107584 1.4243448,1.5798027 1.3502707,1.5609322 1.2941727,1.5464164 1.2328802,1.5344423 1.1663917,1.525007 1.1006677,1.5155765 1.0874437,1.5080625 1.0137518,1.4935476 0.86496564,1.4630654 0.75707484,1.4111729 0.69007904,1.3378711 0.62391204,1.2638434 0.64927964,1.1297866 0.65967574,1.0114869 0.67160254,0.87576888 0.68854084,0.80261954 0.81699644,0.71625353 0.94551584,0.62916163 1.1027199,0.58561587 1.2886086,0.58561587 c 0.1201009,0 0.2293004,0.0108869 0.3275986,0.0326596 0.098298,0.0217727 0.138079,0.0549418 0.212535,0.0868756 l 0.02421,0.24842798 H 1.8368875 C 1.7764568,0.90132359 1.6945746,0.85814054 1.5912409,0.82402957 c -0.102505,-0.0348367 -0.2092181,-0.052255 -0.3201393,-0.052255 -0.1216309,0 -0.2216522,0.0239501 -0.30006406,0.0718503 -0.077647,0.0479012 -0.14421997,0.0537384 -0.15085297,0.12921773 -0.00593,0.0674957 0.032203,0.1763296 0.065543,0.2147952 0.033339,0.038465 0.095396,0.067859 0.18617166,0.08818 0.048065,0.01016 0.1433586,0.037296 0.2323502,0.051814 0.088991,0.014515 0.137416,0.014595 0.1988045,0.029837 0.1241794,0.031934 0.3060413,0.06741 0.2741413,0.1447901 -0.092707,0.2248799 0.025514,0.2346919 0.00906,0.4583184 z M 2.2861495,2.2806618 2.0139436,2.2761962 2.2126899,1.3871163 2.3079382,0.54207002 h 0.2157226 c -0.061365,0 -0.1231309,0.66745778 -0.1758721,1.17921598 -0.030286,0.2938743 -0.091304,0.5588891 -0.061639,0.5593758 z M 4.0557403,1.3993936 C 4.0383285,1.5975274 3.9710359,1.7539297 3.8538621,1.8686005 3.7366886,1.9832714 3.5882174,2.0406068 3.4084485,2.0406068 c -0.1812988,0 -0.3204578,-0.057335 -0.417477,-0.1720063 C 2.8947174,1.7539297 2.8130695,1.6039931 2.8304814,1.4058593 2.8478933,1.2077256 2.9570302,1.0448575 3.0734387,0.93018666 3.1906761,0.81479002 3.3399442,0.75709174 3.521243,0.75709174 c 0.1797689,0 0.318131,0.0576979 0.4150863,0.17309492 0.097019,0.11467084 0.1368229,0.27107304 0.119411,0.46920694 z m -0.2226075,0 C 3.846973,1.2419026 3.8247306,1.1250545 3.7664044,1.0488492 3.7081421,0.97191832 3.6212558,0.93345262 3.5057446,0.93345262 c -0.117041,0 -0.2114532,0.0384659 -0.2832367,0.11539658 -0.070955,0.076205 -0.1133524,0.1930534 -0.1271926,0.3505444 -0.013394,0.1524105 0.00894,0.2681701 0.067015,0.3472784 0.058135,0.078382 0.1453398,0.1175739 0.2616159,0.1175739 0.1147461,0 0.2080427,-0.038828 0.27989,-0.1164852 0.072676,-0.078383 0.1157749,-0.194505 0.1292966,-0.3483671 z M 4.4459658,2.236005 H 4.2302432 l -0.020588,-1.64927815 0.2063087,0.008928 z M 5.8601385,0.54702579 5.0975092,2.1847731 4.735075,2.2115673 5.0183289,1.7042577 4.6094056,0.54702579 h 0.234082 L 5.1955081,1.4037687 5.6340885,0.54702579 Z"
       id="text2"
       style="font-size:2.35px;text-anchor:middle;fill:#f2f2f2;stroke-width:0.974035"
       aria-label="Sloly"
       sodipodi:nodetypes="sccsccccsscscccccscssccccscsscscscsscccsssccscscsscccscscscccccccccccccccc" />
    <g
       id="g9"
       style="fill:#f2f2f2">
      <path
         d="m 7.3187675,0.95287849 c 0.00735,0.0561479 -8.282e-4,0.10832451 -0.024544,0.15653141 -0.022932,0.04764 -0.058693,0.089042 -0.1072824,0.1242043 -0.060344,0.04367 -0.134112,0.076564 -0.2213026,0.098683 -0.087265,0.021551 -0.1995345,0.032327 -0.3368098,0.032327 H 6.3740112 L 6.2569783,2.0896375 6.086886,2.2465893 6.0151398,0.57005718 h 0.51993 c 0.114968,0 0.2132016,0.006521 0.2947012,0.0195669 0.081425,0.0124774 0.1548074,0.0323277 0.2201462,0.05955 0.077161,0.0323277 0.1386312,0.0725943 0.1844109,0.12080139 0.046638,0.0482072 0.074784,0.10917482 0.084439,0.18290302 z m -0.264556,0.004251 C 7.0484915,0.91346039 7.0319345,0.87546129 7.0045355,0.84313422 6.9771365,0.81080836 6.9385055,0.78443731 6.8886437,0.76402014 6.8451587,0.74643821 6.7963367,0.73396172 6.7421767,0.72658883 6.6888007,0.71865093 6.6217881,0.7146792 6.5411389,0.7146792 H 6.2888962 l 0.04948,0.3778345 0.2317286,0.1283404 c 0.089036,0.049311 0.1858286,-0.00596 0.2486168,-0.017864 0.062714,-0.012477 0.1124879,-0.032043 0.1493214,-0.0587 0.03676,-0.027223 0.061322,-0.055864 0.073687,-0.085923 0.013223,-0.030058 0.017384,-0.0638033 0.012481,-0.1012353 z m 0.811589,-0.22968963 -0.250567,0.0981428 -0.04398,-0.26403201 h 0.272834 z m 0.129835,1.10933144 h -0.241951 l -0.09375,-0.85965454 0.211257,-0.090593 z m 1.224069,-0.0085 c -0.04443,0.00794 -0.09335,0.014462 -0.146725,0.019567 -0.05252,0.0051 -0.09981,0.00765 -0.14185,0.00765 -0.146713,0 -0.261665,-0.026088 -0.344857,-0.078266 -0.08319,-0.052175 -0.06626,-0.3032872 -0.103255,-0.4170447 l -0.110326,-0.3392346 -0.284839,0.00755 -0.03544,-0.12686328 0.302674,-0.0150987 -0.03576,-0.27308492 0.209235,0.0377472 0.11455,0.22778277 0.453258,0.007549 0.0176,0.13441283 h -0.499339 l 0.05671,0.4330135 c 0.0065,0.049909 0.01336,0.089042 0.02047,0.1173987 0.0071,0.02779 0.02254,0.053879 0.04629,0.078266 0.02184,0.022687 0.04977,0.039416 0.08379,0.050192 0.0348,0.010209 0.08609,0.015314 0.153867,0.015314 0.03947,0 0.08017,-0.00369 0.122099,-0.011059 0.04186,-0.00794 0.0719,-0.014462 0.0901,-0.019567 h 0.01287 z"
         id="text3"
         style="font-size:2.35px;text-anchor:middle;stroke-width:0.911876;fill:#f2f2f2"
         aria-label="Pit"
         sodipodi:nodetypes="scscsccccscccsscccsccscccssccccccccccccsssccccccccccscccscccc" />
    </g>
  </g>
  <path
     d="m 7.949445,3.9740677 0.1555052,0.037975 -0.078202,0.5419912 c 0.044939,-0.058282 0.1067359,0.090343 0.2329876,0.00291 0.1266381,-0.088506 0.2538539,-0.1371802 0.3816761,-0.146086 0.00593,-4.127e-4 0.01595,-5.992e-4 0.029865,-4.614e-4 0.01399,-2e-7 0.1805102,-0.044643 0.1506665,0.108952 l -0.144458,0.3168404 c -0.017913,-0.00198 -0.074826,-0.1290829 -0.091272,-0.1287954 -0.01514,-9e-6 -0.03226,6.311e-4 -0.051364,0.00198 C 8.372384,4.7206918 8.231371,4.7754669 8.1118233,4.8736605 7.9926321,4.9708255 7.91209,5.0790803 7.8701833,5.1984334 L 7.5305103,6.1658221 7.2079716,6.1882909 Z M 9.0776361,4.3509728 9.318066,4.4004699 9.23425,4.6391777 C 9.3595959,4.534428 9.4805731,4.4570669 9.5971849,4.4070681 c 0.1166082,-0.049993 0.2370399,-0.07933 0.3612787,-0.087987 0.2723684,-0.018965 0.4271104,0.051438 0.4642274,0.2112481 0.02059,0.087426 0.0011,0.2159394 -0.05846,0.3855477 l -0.263843,1.1117649 -0.227714,0.00813 0.157023,-1.078197 c 0.01535,-0.1054103 0.04776,-0.1841119 0.03516,-0.2445089 C 10.044277,4.6123662 9.9587239,4.5672626 9.8082045,4.5777494 9.7317499,4.5830714 9.666612,4.5943126 9.6128874,4.6112781 9.51639,4.6404866 9.4225782,4.6919429 9.3314212,4.7656985 9.2581779,4.8249356 9.2027234,4.8849679 9.1650494,4.9458093 9.1289596,5.0055218 9.0915175,5.0903483 9.0529808,5.200274 l -0.3093444,0.8810196 -0.3225349,0.02247 z m 1.8770799,0.7750188 c -0.06322,0.1800815 0.0273,0.305044 0.07187,0.4204154 0.04457,0.115383 0.06314,0.1891171 0.255474,0.1757171 0.149319,-0.010415 0.29143,-0.074936 0.426338,-0.1936299 0.136485,-0.1198129 0.241647,-0.2849408 0.315538,-0.4953802 0.07464,-0.2125351 0.04051,-0.2318298 -0.02299,-0.326475 -0.06312,-0.095687 -0.207248,-0.052431 -0.352987,-0.042277 -0.162471,0.011316 -0.313587,0.074953 -0.45336,0.1909148 -0.138579,0.1158769 -0.165612,0.059227 -0.23988,0.2707149 z m 1.099015,-0.7340169 c 0.112217,0.1497996 0.129776,0.3602697 0.175074,0.4337083 l 0.62758,-0.9375832 0.675884,0.00636 -1.505906,1.9581371 -0.290286,0.020228 0.08215,-0.2339953 c -0.111638,0.1088938 -0.226921,0.1899521 -0.34584,0.2431784 -0.118922,0.053243 -0.244661,0.084452 -0.377262,0.09369 -0.213834,0.014894 -0.371423,-0.050734 -0.472775,-0.1968701 -0.100986,-0.147185 -0.0057,-0.3744127 0.08625,-0.6361531 0.08603,-0.244991 0.05229,-0.2188618 0.257204,-0.4077907 0.206606,-0.1900762 0.442482,-0.294341 0.70768,-0.3128181 0.227559,-0.021497 0.308064,0.03162 0.38025,-0.030088 z"
     id="text1"
     style="font-size:14.0569px;font-family:Helvetica;-inkscape-font-specification:'Helvetica, Normal';fill:#090909;stroke-width:0.0255475;stroke-linecap:round"
     aria-label="rnd"
     sodipodi:nodetypes="ccccsscccscsccccccsscsccscscccccccssscscscssccccccsscscsccc"
     inkscape:transform-center-x="0.26941669"
     inkscape:transform-center-y="-0.011600985" />
</svg>
