<?xml version="1.0" encoding="UTF-8"?>
<svg xmlns="http://www.w3.org/2000/svg" width="240" height="380" viewBox="0 0 63.5 100.54167" version="1.1">
  <rect x="0" y="0" width="63.5" height="100.54167" fill="#e6e7e8"/>
  <path d="M0 0h63.5v3.7l-11.5-.5-10.2.7-11.4-.5-10.4.8-10.5-.6L0 4.1z" fill="#000"/>
  <path d="M0 16.8l9.5-1.1 10.2 1.1 10.2-1.2 10.5 1.1 10.7-1 12.4 1.1v15.7l-10.6-1.1-10.4 1.1-10.8-1.2-10.3 1.3-10.8-1.2L0 32.5z" fill="#d4d5d6"/>
  <path d="M0 47.1l9.8-1.2 10.5 1.2 10.4-1.1 10.5 1.1 10.8-1 11.5 1v15.9l-10.6-1.1-10.6 1.1-10.7-1.2-10.2 1.2-10.7-1.1L0 63z" fill="#d4d5d6"/>
  <path d="M0 75.1l9.8-1.1 10.5 1.1 10.4-1.2 10.5 1.1 10.8-1 11.5 1v25.54167H0z" fill="#d4d5d6"/>
  <path d="M7.6 23.3c4.9-1 9.4-.8 13.6.8" fill="none" stroke="#c43421" stroke-width="1.5" stroke-linecap="round"/>
  <path d="M37.3 23.3c4.9-1 9.5-.7 13.8.9" fill="none" stroke="#e4c421" stroke-width="1.5" stroke-linecap="round"/>
  <path d="M7.6 54.5c4.9-1 9.4-.8 13.6.8" fill="none" stroke="#245559" stroke-width="1.5" stroke-linecap="round"/>
  <path d="M37.3 54.5c4.9-1 9.5-.7 13.8.9" fill="none" stroke="#c0e7de" stroke-width="1.5" stroke-linecap="round"/>
  <text x="2.2" y="3.2" font-family="Arial, sans-serif" font-size="2.7" font-weight="700" fill="#e6e7e8" transform="rotate(-3 2.2 3.2)">the</text>
  <text x="8.0" y="3.5" font-family="Arial, sans-serif" font-size="3.3" font-weight="700" fill="#e4c421" transform="rotate(1 8 3.5)">humors</text>
  <text x="40.2" y="9.8" font-family="Arial, sans-serif" font-size="3.0" text-anchor="middle" fill="#000" transform="rotate(2 40.2 9.8)">program</text>
  <text x="44.4" y="17.7" font-family="Arial, sans-serif" font-size="2.0" fill="#000">cv</text>
  <text x="53.3" y="11.9" font-family="Arial, sans-serif" font-size="2.3" fill="#000">poly</text>
  <text x="53.2" y="14.5" font-family="Arial, sans-serif" font-size="2.3" fill="#000">channels</text>
  <text x="17.5" y="20.7" font-family="Arial, sans-serif" font-size="3.5" text-anchor="middle" fill="#000">Blood</text>
  <text x="46.6" y="20.7" font-family="Arial, sans-serif" font-size="3.5" text-anchor="middle" fill="#000">Yellow Bile</text>
  <text x="17.5" y="51.9" font-family="Arial, sans-serif" font-size="3.5" text-anchor="middle" fill="#000">Black Bile</text>
  <text x="46.6" y="51.9" font-family="Arial, sans-serif" font-size="3.5" text-anchor="middle" fill="#000">Phlegm</text>
  <text x="8.7" y="38.5" font-family="Arial, sans-serif" font-size="2.2" fill="#000">av</text>
  <text x="16.4" y="38.0" font-family="Arial, sans-serif" font-size="2.2" fill="#000">cv</text>
  <text x="37.8" y="38.5" font-family="Arial, sans-serif" font-size="2.2" fill="#000">av</text>
  <text x="45.6" y="38.0" font-family="Arial, sans-serif" font-size="2.2" fill="#000">cv</text>
  <text x="8.7" y="69.7" font-family="Arial, sans-serif" font-size="2.2" fill="#000">av</text>
  <text x="16.4" y="69.2" font-family="Arial, sans-serif" font-size="2.2" fill="#000">cv</text>
  <text x="37.8" y="69.7" font-family="Arial, sans-serif" font-size="2.2" fill="#000">av</text>
  <text x="45.6" y="69.2" font-family="Arial, sans-serif" font-size="2.2" fill="#000">cv</text>
  <text x="9.8" y="76.6" font-family="Arial, sans-serif" font-size="3.0" font-weight="700" fill="#000">in</text>
  <text x="41.2" y="76.6" font-family="Arial, sans-serif" font-size="3.0" font-weight="700" fill="#000">out</text>
  <text x="11.0" y="79.9" font-family="Arial, sans-serif" font-size="2.2" text-anchor="middle" fill="#000">clock</text>
  <text x="22.6" y="79.9" font-family="Arial, sans-serif" font-size="2.2" text-anchor="middle" fill="#000">rhythm</text>
  <text x="37.6" y="79.9" font-family="Arial, sans-serif" font-size="2.2" text-anchor="middle" fill="#000">clock</text>
  <text x="49.2" y="79.9" font-family="Arial, sans-serif" font-size="2.2" text-anchor="middle" fill="#000">rhythm</text>
  <text x="11.0" y="91.3" font-family="Arial, sans-serif" font-size="2.2" text-anchor="middle" fill="#000">cv</text>
  <text x="22.6" y="91.3" font-family="Arial, sans-serif" font-size="2.2" text-anchor="middle" fill="#000">audio</text>
  <text x="37.6" y="91.3" font-family="Arial, sans-serif" font-size="2.2" text-anchor="middle" fill="#000">cv</text>
  <text x="49.2" y="91.3" font-family="Arial, sans-serif" font-size="2.2" text-anchor="middle" fill="#000">audio</text>
  <text x="3.0" y="97.0" font-family="Arial, sans-serif" font-size="2.7" fill="#000" transform="rotate(-2 3 97)">computerscare</text>
</svg>
