<?xml version="1.0" encoding="UTF-8" standalone="no"?>
<!-- Created with Inkscape (http://www.inkscape.org/) -->

<svg
   xmlns:dc="http://purl.org/dc/elements/1.1/"
   xmlns:cc="http://creativecommons.org/ns#"
   xmlns:rdf="http://www.w3.org/1999/02/22-rdf-syntax-ns#"
   xmlns:svg="http://www.w3.org/2000/svg"
   xmlns="http://www.w3.org/2000/svg"
   xmlns:sodipodi="http://sodipodi.sourceforge.net/DTD/sodipodi-0.dtd"
   xmlns:inkscape="http://www.inkscape.org/namespaces/inkscape"
   width="60"
   height="380"
   viewBox="0 0 15.875 100.54167"
   version="1.1"
   id="svg8"
   inkscape:version="0.92.2 5c3e80d, 2017-08-06"
   sodipodi:docname="ComputerscareBolyPuttonsPanel.svg"
   style="enable-background:new">
  <defs
     id="defs2" />
  <sodipodi:namedview
     id="base"
     pagecolor="#ffffff"
     bordercolor="#666666"
     borderopacity="1.0"
     inkscape:pageopacity="0.0"
     inkscape:pageshadow="2"
     inkscape:zoom="11.313709"
     inkscape:cx="28.17334"
     inkscape:cy="360.04446"
     inkscape:document-units="mm"
     inkscape:current-layer="g1669"
     showgrid="false"
     units="px"
     inkscape:snap-bbox="true"
     inkscape:snap-page="true"
     inkscape:bbox-nodes="true"
     inkscape:snap-bbox-edge-midpoints="true"
     inkscape:window-width="1440"
     inkscape:window-height="856"
     inkscape:window-x="0"
     inkscape:window-y="0"
     inkscape:window-maximized="0"
     inkscape:snap-global="false"
     showguides="false"
     inkscape:lockguides="false" />
  <metadata
     id="metadata5">
    <rdf:RDF>
      <cc:Work
         rdf:about="">
        <dc:format>image/svg+xml</dc:format>
        <dc:type
           rdf:resource="http://purl.org/dc/dcmitype/StillImage" />
        <dc:title />
      </cc:Work>
    </rdf:RDF>
  </metadata>
  <g
     inkscape:label="Layer 1"
     inkscape:groupmode="layer"
     id="layer1"
     transform="translate(0,-196.45832)"
     style="display:none">
    <path
       style="opacity:1;vector-effect:none;fill:#f0f0f0;fill-opacity:1;fill-rule:evenodd;stroke:none;stroke-width:0.48607069;stroke-linecap:butt;stroke-linejoin:round;stroke-miterlimit:4;stroke-dasharray:none;stroke-dashoffset:0;stroke-opacity:1;paint-order:normal"
       d="M 0,196.45831 H 23.8125 V 296.99999 H 0 Z"
       id="rect817"
       inkscape:connector-curvature="0" />
    <text
       xml:space="preserve"
       style="font-style:normal;font-weight:normal;font-size:10.58333302px;line-height:1.25;font-family:sans-serif;letter-spacing:0px;word-spacing:0px;fill:#000000;fill-opacity:1;stroke:none;stroke-width:0.26458332"
       x="8.2147436"
       y="295.57718"
       id="text1490"
       transform="rotate(1.4468834)"><tspan
         sodipodi:role="line"
         id="tspan1488"
         x="8.2147436"
         y="295.57718"
         style="font-style:normal;font-variant:normal;font-weight:normal;font-stretch:normal;font-size:2.82222223px;font-family:sans-serif;-inkscape-font-specification:'sans-serif, Normal';font-variant-ligatures:normal;font-variant-caps:normal;font-variant-numeric:normal;font-feature-settings:normal;text-align:start;writing-mode:lr-tb;text-anchor:start;stroke-width:0.26458332">computerscare</tspan></text>
    <text
       transform="rotate(-5.9989835)"
       id="text1494"
       y="288.0314"
       x="-28.710276"
       style="font-style:normal;font-weight:normal;font-size:10.58333302px;line-height:1.25;font-family:sans-serif;letter-spacing:0px;word-spacing:0px;fill:#000000;fill-opacity:1;stroke:none;stroke-width:0.26458332"
       xml:space="preserve"><tspan
         style="font-style:normal;font-variant:normal;font-weight:normal;font-stretch:normal;font-size:2.82222223px;font-family:sans-serif;-inkscape-font-specification:'sans-serif, Normal';font-variant-ligatures:normal;font-variant-caps:normal;font-variant-numeric:normal;font-feature-settings:normal;text-align:start;writing-mode:lr-tb;text-anchor:start;stroke-width:0.26458332"
         y="288.0314"
         x="-28.710276"
         id="tspan1492"
         sodipodi:role="line">trg</tspan></text>
    <text
       xml:space="preserve"
       style="font-style:normal;font-weight:normal;font-size:10.58333302px;line-height:1.25;font-family:sans-serif;letter-spacing:0px;word-spacing:0px;fill:#000000;fill-opacity:1;stroke:none;stroke-width:0.26458332"
       x="20.711658"
       y="288.87244"
       id="text1498"
       transform="rotate(1.9714728)"><tspan
         sodipodi:role="line"
         id="tspan1496"
         x="20.711658"
         y="288.87244"
         style="font-style:normal;font-variant:normal;font-weight:normal;font-stretch:normal;font-size:2.82222223px;font-family:sans-serif;-inkscape-font-specification:'sans-serif, Normal';font-variant-ligatures:normal;font-variant-caps:normal;font-variant-numeric:normal;font-feature-settings:normal;text-align:start;writing-mode:lr-tb;text-anchor:start;stroke-width:0.26458332">in</tspan></text>
    <text
       transform="rotate(0.49746114)"
       id="text1521"
       y="289.16214"
       x="20.314623"
       style="font-style:normal;font-weight:normal;font-size:10.58333302px;line-height:1.25;font-family:sans-serif;letter-spacing:0px;word-spacing:0px;fill:#000000;fill-opacity:1;stroke:none;stroke-width:0.26458332"
       xml:space="preserve"><tspan
         style="font-style:normal;font-variant:normal;font-weight:normal;font-stretch:normal;font-size:3.17499995px;font-family:sans-serif;-inkscape-font-specification:'sans-serif, Normal';font-variant-ligatures:normal;font-variant-caps:normal;font-variant-numeric:normal;font-feature-settings:normal;text-align:start;writing-mode:lr-tb;text-anchor:start;stroke-width:0.26458332"
         y="289.16214"
         x="20.314623"
         id="tspan1519"
         sodipodi:role="line">clr</tspan></text>
    <text
       transform="matrix(1.0139335,-0.02825079,0.06854811,0.98434808,0,0)"
       id="text1645"
       y="204.61243"
       x="-10.296249"
       style="font-style:normal;font-weight:normal;font-size:10.74719143px;line-height:1.25;font-family:sans-serif;letter-spacing:0px;word-spacing:0px;fill:#000000;fill-opacity:1;stroke:none;stroke-width:0.26867977"
       xml:space="preserve"><tspan
         style="font-style:normal;font-variant:normal;font-weight:normal;font-stretch:normal;font-size:5.01535606px;font-family:sans-serif;-inkscape-font-specification:'sans-serif, Normal';font-variant-ligatures:normal;font-variant-caps:normal;font-variant-numeric:normal;font-feature-settings:normal;text-align:start;writing-mode:lr-tb;text-anchor:start;stroke-width:0.26867977"
         y="204.61243"
         x="-10.296249"
         id="tspan1643"
         sodipodi:role="line">debug</tspan></text>
  </g>
  <g
     inkscape:groupmode="layer"
     id="layer3"
     inkscape:label="bg" />
  <g
     style="display:inline"
     transform="translate(0,-196.45832)"
     id="g1669"
     inkscape:groupmode="layer"
     inkscape:label="Layer 1 copy">
    <path
       inkscape:connector-curvature="0"
       id="path1647"
       d="M 2.3647136,198.04581 H 15.887339 v 48.08803 l -1.236482,-0.33799 0.277723,0.84708 -0.505362,-0.0623 0.532289,0.61855 0.02233,1.29933 -0.33073,0.52917 1.240235,0.57878 v 47.39349 H 2.3647136 Z"
       style="opacity:1;vector-effect:none;fill:#d2d2d2;fill-opacity:1;fill-rule:evenodd;stroke:none;stroke-width:0.26300001;stroke-linecap:butt;stroke-linejoin:round;stroke-miterlimit:4;stroke-dasharray:none;stroke-dashoffset:0;stroke-opacity:1;paint-order:normal"
       sodipodi:nodetypes="ccccccccccccc" />
    <path
       style="fill:#242424;fill-opacity:1;stroke:none;stroke-width:0.37162125;stroke-linejoin:round;stroke-miterlimit:4;stroke-dasharray:none;stroke-opacity:1"
       d="M 13.773402,196.45833 H -0.01800263 v 13.86979 H 6.7831954 l 5.2596366,-1.91766 1.73057,-2.9436 z"
       id="rect888"
       inkscape:connector-curvature="0"
       sodipodi:nodetypes="ccccccc" />
    <g
       aria-label="computerscare"
       transform="matrix(0.579664,-0.0209809,0.12827949,1.4870391,-39.556662,-142.90507)"
       style="font-style:normal;font-weight:normal;font-size:10.58333302px;line-height:1.25;font-family:sans-serif;letter-spacing:0px;word-spacing:0px;fill:#000000;fill-opacity:1;stroke:none;stroke-width:0.26458332"
       id="text1651">
      <path
         d="m 9.6564066,294.11837 -0.022491,0.23707 q -0.1028223,-0.0489 -0.2099211,-0.0673 -0.1055806,-0.0199 -0.2168506,-0.009 -0.2488775,0.0238 -0.4014201,0.19401 -0.1524199,0.16888 -0.1792271,0.45145 -0.026804,0.28254 0.095932,0.42654 0.1228661,0.14262 0.371738,0.11887 0.1112317,-0.0106 0.2224055,-0.0498 0.1127112,-0.0408 0.2267849,-0.11044 l -0.022229,0.23431 q -0.111772,0.0599 -0.2295122,0.0956 -0.1163563,0.0357 -0.2456588,0.048 -0.3517468,0.0335 -0.5381239,-0.16582 -0.1863704,-0.19938 -0.1510635,-0.57153 0.035829,-0.37767 0.2649098,-0.61397 0.2304697,-0.23642 0.5947391,-0.27118 0.1181718,-0.0112 0.2283935,0.003 0.110394,0.0127 0.2114822,0.0509 z"
         style="font-style:normal;font-variant:normal;font-weight:normal;font-stretch:normal;font-size:2.82222223px;font-family:sans-serif;-inkscape-font-specification:'sans-serif, Normal';font-variant-ligatures:normal;font-variant-caps:normal;font-variant-numeric:normal;font-feature-settings:normal;text-align:start;writing-mode:lr-tb;text-anchor:start;stroke-width:0.26458332"
         id="path1701"
         inkscape:connector-curvature="0" />
      <path
         d="m 10.696255,294.13661 q -0.205776,0.0197 -0.340506,0.19093 -0.134608,0.16992 -0.160888,0.44696 -0.02628,0.27705 0.07673,0.42565 0.104532,0.1471 0.311691,0.12734 0.204372,-0.0195 0.339118,-0.1908 0.134737,-0.1713 0.160888,-0.44696 0.02602,-0.27428 -0.07838,-0.42277 -0.10427,-0.14986 -0.308651,-0.13035 z m 0.0204,-0.21501 q 0.333675,-0.0318 0.503758,0.16499 0.170076,0.19686 0.133987,0.57727 -0.03596,0.37905 -0.246966,0.61361 -0.210875,0.23319 -0.544555,0.26503 -0.335078,0.032 -0.505151,-0.16486 -0.1685548,-0.19836 -0.1325956,-0.5774 0.036091,-0.38042 0.2455756,-0.61348 0.210875,-0.23319 0.545947,-0.26516 z"
         style="font-style:normal;font-variant:normal;font-weight:normal;font-stretch:normal;font-size:2.82222223px;font-family:sans-serif;-inkscape-font-specification:'sans-serif, Normal';font-variant-ligatures:normal;font-variant-caps:normal;font-variant-numeric:normal;font-feature-settings:normal;text-align:start;writing-mode:lr-tb;text-anchor:start;stroke-width:0.26458332"
         id="path1703"
         inkscape:connector-curvature="0" />
      <path
         d="m 13.143759,294.1394 q 0.109103,-0.20599 0.261143,-0.30389 0.152033,-0.0979 0.358066,-0.0977 0.277351,3.4e-4 0.428154,0.205 0.150801,0.203 0.151243,0.57869 l 0.0013,1.12376 -0.2932,-3.3e-4 -0.0013,-1.1138 q -3.15e-4,-0.26763 -0.0908,-0.39742 -0.0905,-0.12977 -0.275921,-0.13 -0.226635,-2.7e-4 -0.357993,0.15747 -0.131357,0.15777 -0.131036,0.4304 l 0.0012,1.05229 -0.2932,-3.4e-4 -0.0013,-1.1138 q -3.17e-4,-0.2693 -0.0908,-0.39742 -0.0905,-0.12976 -0.279091,-0.13 -0.223465,-2.8e-4 -0.354821,0.15914 -0.131357,0.15777 -0.131039,0.42874 l 0.0012,1.05227 -0.293194,-3.3e-4 -0.0022,-1.86186 0.293199,3.4e-4 3.42e-4,0.28924 q 0.09965,-0.17108 0.239016,-0.25238 0.139373,-0.0812 0.331141,-0.081 0.193354,2.3e-4 0.328188,0.10342 0.136421,0.10314 0.201631,0.29946 z"
         style="font-style:normal;font-variant:normal;font-weight:normal;font-stretch:normal;font-size:2.82222223px;font-family:sans-serif;-inkscape-font-specification:'sans-serif, Normal';font-variant-ligatures:normal;font-variant-caps:normal;font-variant-numeric:normal;font-feature-settings:normal;text-align:start;writing-mode:lr-tb;text-anchor:start;stroke-width:0.31164581"
         id="path1705"
         inkscape:connector-curvature="0" />
      <path
         d="m 14.742929,294.81667 v 0.81855 h -0.254937 v -2.13044 h 0.254937 v 0.23426 q 0.07993,-0.1378 0.201194,-0.20395 0.122645,-0.0675 0.292144,-0.0675 0.28112,0 0.45613,0.22324 0.176389,0.22324 0.176389,0.58705 0,0.3638 -0.176389,0.58704 -0.17501,0.22324 -0.45613,0.22324 -0.169499,0 -0.292144,-0.0661 -0.121268,-0.0675 -0.201194,-0.20533 z m 0.862652,-0.53881 q 0,-0.27975 -0.115755,-0.43822 -0.114377,-0.15985 -0.315571,-0.15985 -0.201193,0 -0.316949,0.15985 -0.114377,0.15847 -0.114377,0.43822 0,0.27974 0.114377,0.43959 0.115756,0.15847 0.316949,0.15847 0.201194,0 0.315571,-0.15847 0.115755,-0.15985 0.115755,-0.43959 z"
         style="font-style:normal;font-variant:normal;font-weight:normal;font-stretch:normal;font-size:2.82222223px;font-family:sans-serif;-inkscape-font-specification:'sans-serif, Normal';font-variant-ligatures:normal;font-variant-caps:normal;font-variant-numeric:normal;font-feature-settings:normal;text-align:start;writing-mode:lr-tb;text-anchor:start;stroke-width:0.26458332"
         id="path1707"
         inkscape:connector-curvature="0" />
      <path
         d="m 16.276561,294.97975 -1.52e-4,-0.94031 0.251931,-0.0648 1.5e-4,0.9306 q 3.6e-5,0.22051 0.08495,0.30972 0.08491,0.0878 0.254686,0.0444 0.204008,-0.052 0.321737,-0.21413 0.119098,-0.16225 0.119061,-0.38971 l -1.43e-4,-0.88065 0.251931,-0.0648 2.51e-4,1.55331 -0.25193,0.0648 -3.9e-5,-0.23855 q -0.09172,0.16493 -0.213559,0.26548 -0.120476,0.0987 -0.280672,0.13983 -0.264253,0.0678 -0.401197,-0.0637 -0.136946,-0.13139 -0.136998,-0.45174 z"
         style="font-style:normal;font-variant:normal;font-weight:normal;font-stretch:normal;font-size:2.82222223px;font-family:sans-serif;-inkscape-font-specification:'sans-serif, Normal';font-variant-ligatures:normal;font-variant-caps:normal;font-variant-numeric:normal;font-feature-settings:normal;text-align:start;writing-mode:lr-tb;text-anchor:start;stroke-width:0.26458332"
         id="path1709"
         inkscape:connector-curvature="0" />
      <path
         d="m 18.344702,293.59556 v 0.43822 h 0.522277 v 0.19706 h -0.522277 v 0.83784 q 0,0.18879 0.05099,0.24254 0.05237,0.0537 0.21084,0.0537 h 0.260449 v 0.21222 H 18.60653 q -0.293522,0 -0.405144,-0.10887 -0.111621,-0.11024 -0.111621,-0.39963 V 294.2308 H 17.90373 v -0.19706 h 0.186035 v -0.43822 z"
         style="font-style:normal;font-variant:normal;font-weight:normal;font-stretch:normal;font-size:2.82222223px;font-family:sans-serif;-inkscape-font-specification:'sans-serif, Normal';font-variant-ligatures:normal;font-variant-caps:normal;font-variant-numeric:normal;font-feature-settings:normal;text-align:start;writing-mode:lr-tb;text-anchor:start;stroke-width:0.26458332"
         id="path1711"
         inkscape:connector-curvature="0" />
      <path
         d="m 20.508346,294.20141 2.1e-5,0.12482 -1.158332,0.29657 q 0.01648,0.25929 0.156153,0.36223 0.141049,0.1012 0.391609,0.037 0.145134,-0.0376 0.280676,-0.10793 0.136913,-0.0711 0.271081,-0.17758 l 4e-5,0.24133 q -0.135541,0.093 -0.277931,0.15998 -0.14239,0.0669 -0.288893,0.10441 -0.366941,0.094 -0.581938,-0.0673 -0.213628,-0.16169 -0.213688,-0.53061 -6.1e-5,-0.38138 0.202543,-0.65655 0.203972,-0.2769 0.549007,-0.36523 0.309435,-0.0789 0.488832,0.0774 0.180765,0.15485 0.18082,0.50156 z m -0.251942,-0.0103 q -0.0028,-0.2087 -0.116435,-0.30445 -0.112293,-0.0961 -0.298502,-0.0484 -0.210854,0.0537 -0.338169,0.20723 -0.125945,0.15291 -0.145079,0.37694 z"
         style="font-style:normal;font-variant:normal;font-weight:normal;font-stretch:normal;font-size:2.82222223px;font-family:sans-serif;-inkscape-font-specification:'sans-serif, Normal';font-variant-ligatures:normal;font-variant-caps:normal;font-variant-numeric:normal;font-feature-settings:normal;text-align:start;writing-mode:lr-tb;text-anchor:start;stroke-width:0.26458332"
         id="path1713"
         inkscape:connector-curvature="0" />
      <path
         d="m 21.832517,294.2708 q -0.04272,-0.0248 -0.09371,-0.0358 -0.04961,-0.0124 -0.110243,-0.0124 -0.214974,0 -0.330729,0.14056 -0.114377,0.13918 -0.114377,0.40101 v 0.81304 h -0.254937 v -1.5434 h 0.254937 v 0.23977 q 0.07993,-0.14056 0.208084,-0.20808 0.128157,-0.0689 0.311436,-0.0689 0.02618,0 0.05788,0.004 0.03169,0.003 0.07028,0.01 z"
         style="font-style:normal;font-variant:normal;font-weight:normal;font-stretch:normal;font-size:2.82222223px;font-family:sans-serif;-inkscape-font-specification:'sans-serif, Normal';font-variant-ligatures:normal;font-variant-caps:normal;font-variant-numeric:normal;font-feature-settings:normal;text-align:start;writing-mode:lr-tb;text-anchor:start;stroke-width:0.26458332"
         id="path1715"
         inkscape:connector-curvature="0" />
      <path
         d="m 23.185447,294.16269 -0.03488,0.23723 q -0.09833,-0.0702 -0.208837,-0.11429 -0.110508,-0.0442 -0.233212,-0.0622 -0.186783,-0.0275 -0.289279,0.016 -0.101136,0.0437 -0.117973,0.15816 -0.01283,0.0873 0.04655,0.14753 0.05959,0.0589 0.254751,0.13358 l 0.08309,0.0317 q 0.258799,0.0966 0.355164,0.21797 0.09793,0.12025 0.07046,0.30705 -0.03127,0.21268 -0.218575,0.31189 -0.185938,0.0994 -0.480428,0.0561 -0.122703,-0.018 -0.252707,-0.0622 -0.128844,-0.0426 -0.269062,-0.11204 l 0.03809,-0.25904 q 0.128445,0.0927 0.258001,0.14937 0.129765,0.0553 0.262013,0.0747 0.17724,0.0261 0.281492,-0.0199 0.104454,-0.0473 0.120693,-0.15775 0.01504,-0.10226 -0.04648,-0.16702 -0.06015,-0.0645 -0.285871,-0.14928 l -0.08424,-0.0333 q -0.225922,-0.0833 -0.314703,-0.19949 -0.08858,-0.11748 -0.06252,-0.29473 0.03167,-0.21541 0.201614,-0.31021 0.169938,-0.0948 0.450794,-0.0535 0.139065,0.0204 0.258757,0.059 0.119693,0.0385 0.217301,0.0946 z"
         style="font-style:normal;font-variant:normal;font-weight:normal;font-stretch:normal;font-size:2.82222223px;font-family:sans-serif;-inkscape-font-specification:'sans-serif, Normal';font-variant-ligatures:normal;font-variant-caps:normal;font-variant-numeric:normal;font-feature-settings:normal;text-align:start;writing-mode:lr-tb;text-anchor:start;stroke-width:0.26458332"
         id="path1717"
         inkscape:connector-curvature="0" />
      <path
         d="m 24.74878,294.2652 c -0.08645,0.15984 -0.310959,-0.0317 -0.546114,0.002 -0.163883,0.0136 -0.286821,0.0763 -0.368812,0.1882 -0.08207,0.11097 -0.115323,0.2603 -0.09977,0.44799 0.01555,0.18768 0.07297,0.32995 0.172262,0.42682 0.09921,0.096 0.230762,0.13713 0.394645,0.12355 0.07324,-0.006 0.144777,-0.0216 0.2146,-0.0468 0.07066,-0.0261 0.140065,-0.0618 0.208213,-0.10716 l 0.01935,0.23346 c -0.06777,0.0388 -0.138962,0.0696 -0.213589,0.0923 -0.07371,0.0227 -0.153138,0.0376 -0.238284,0.0446 -0.231635,0.0192 -0.421693,-0.0383 -0.570174,-0.17261 -0.14848,-0.13426 -0.232962,-0.32499 -0.253446,-0.57219 -0.02079,-0.25087 0.03153,-0.45386 0.15695,-0.60898 0.126338,-0.1552 0.309444,-0.24274 0.549319,-0.26262 0.07782,-0.007 0.154496,-0.005 0.230021,0.006 0.07545,0.009 0.411602,0.13108 0.483843,0.15738 z"
         style="font-style:normal;font-variant:normal;font-weight:normal;font-stretch:normal;font-size:2.82222223px;font-family:sans-serif;-inkscape-font-specification:'sans-serif, Normal';font-variant-ligatures:normal;font-variant-caps:normal;font-variant-numeric:normal;font-feature-settings:normal;text-align:start;writing-mode:lr-tb;text-anchor:start;stroke-width:0.26458332"
         id="path1719"
         inkscape:connector-curvature="0"
         sodipodi:nodetypes="cccccccccccccccccc" />
      <path
         d="m 24.81823,294.75924 c -0.297765,0.0229 -0.512808,0.0705 -0.64513,0.14291 -0.132332,0.0724 -0.219561,0.18524 -0.261686,0.33845 -0.03363,0.12213 -0.01763,0.21604 0.04798,0.28174 0.06728,0.0643 0.175023,0.0907 0.323232,0.0794 0.204311,-0.0157 0.386389,-0.0956 0.546234,-0.23957 0.161537,-0.14536 0.273146,-0.33019 0.334829,-0.55448 l 0.02101,-0.0766 z m 0.774145,-0.19853 -0.328455,1.19434 -0.368516,0.0282 0.08737,-0.31774 c -0.119089,0.13356 -0.249784,0.2357 -0.392086,0.30641 -0.141957,0.0694 -0.303742,0.11113 -0.485354,0.12512 -0.229693,0.0177 -0.39618,-0.0281 -0.499459,-0.13726 -0.101626,-0.1105 -0.124676,-0.26669 -0.06915,-0.46856 0.06476,-0.2355 0.197713,-0.41952 0.398859,-0.55206 0.202482,-0.13265 0.471302,-0.21186 0.806461,-0.23762 l 0.516775,-0.0398 0.0092,-0.0335 c 0.04352,-0.15825 0.02102,-0.27605 -0.0675,-0.35341 -0.08684,-0.0787 -0.231074,-0.11031 -0.4327,-0.0948 -0.128187,0.01 -0.256984,0.0338 -0.386391,0.0718 -0.129384,0.038 -0.22788,0.0181 -0.35582,0.0841 l 0.0572,-0.24589 c 0.148221,-0.0589 0.289013,-0.10504 0.422378,-0.13852 0.133697,-0.0347 0.260649,-0.0566 0.380855,-0.0659 0.324493,-0.025 0.54526,0.0349 0.662301,0.17963 0.117059,0.14469 0.131725,0.37653 0.044,0.69552 z"
         style="font-style:normal;font-variant:normal;font-weight:normal;font-stretch:normal;font-size:2.82222223px;font-family:sans-serif;-inkscape-font-specification:'sans-serif, Normal';font-variant-ligatures:normal;font-variant-caps:normal;font-variant-numeric:normal;font-feature-settings:normal;text-align:start;writing-mode:lr-tb;text-anchor:start;stroke-width:0.36754596"
         id="path1721"
         inkscape:connector-curvature="0"
         sodipodi:nodetypes="ccccccccccccccccccccccccccccccc" />
      <path
         d="m 27.811045,294.03187 q -0.04765,-0.0359 -0.114148,-0.0521 -0.06379,-0.0182 -0.149723,-0.0183 -0.304614,-6.2e-4 -0.541819,0.20246 -0.234523,0.20105 -0.370837,0.57993 l -0.423324,1.17649 -0.361236,-7.4e-4 0.803473,-2.23334 0.361237,7.5e-4 -0.124848,0.34694 q 0.186434,-0.20316 0.403183,-0.30051 0.217505,-0.0995 0.47719,-0.0989 0.0371,8e-5 0.07992,0.006 0.04318,0.005 0.09438,0.0146 z"
         style="font-style:normal;font-variant:normal;font-weight:normal;font-stretch:normal;font-size:2.82222223px;font-family:sans-serif;-inkscape-font-specification:'sans-serif, Normal';font-variant-ligatures:normal;font-variant-caps:normal;font-variant-numeric:normal;font-feature-settings:normal;text-align:start;writing-mode:lr-tb;text-anchor:start;stroke-width:0.37900135"
         id="path1723"
         inkscape:connector-curvature="0" />
      <path
         d="m 29.712571,294.7854 -0.06094,0.16877 -1.603439,0.13193 c -0.07023,0.23754 -0.110719,0.28611 -0.02315,0.41121 0.08941,0.12391 0.253311,0.18583 0.491653,0.18595 0.138059,6e-5 0.277401,-0.016 0.418108,-0.0485 0.14201,-0.0325 0.508333,-0.14208 0.659478,-0.20707 l -0.117939,0.32633 c -0.147934,0.0525 -0.514377,0.15339 -0.659762,0.18081 -0.145379,0.0275 -0.287764,0.0411 -0.427099,0.041 -0.349049,-1.8e-4 -0.590562,-0.0978 -0.724584,-0.29298 -0.132697,-0.19514 -0.138963,-0.459 -0.01879,-0.79157 0.12432,-0.34382 0.319099,-0.61634 0.584612,-0.81755 0.267249,-0.20244 0.56498,-0.30358 0.893191,-0.30341 0.29435,1.4e-4 0.493835,0.0916 0.598514,0.27415 0.106411,0.18138 0.103144,0.42835 -0.0098,0.74092 z m -0.322894,-0.1014 c 0.06552,-0.18878 0.06466,-0.33947 -0.0028,-0.45204 -0.06612,-0.1126 -0.187772,-0.16891 -0.364898,-0.16901 -0.200575,-10e-5 -0.381115,0.0543 -0.541512,0.16293 -0.159132,0.1087 -0.116464,0.24257 -0.206093,0.4401 z"
         style="font-style:normal;font-variant:normal;font-weight:normal;font-stretch:normal;font-size:2.82222223px;font-family:sans-serif;-inkscape-font-specification:'sans-serif, Normal';font-variant-ligatures:normal;font-variant-caps:normal;font-variant-numeric:normal;font-feature-settings:normal;text-align:start;writing-mode:lr-tb;text-anchor:start;stroke-width:0.36754596"
         id="path1725"
         inkscape:connector-curvature="0"
         sodipodi:nodetypes="ccccscccsscscscccccsccc" />
    </g>
    <g
       id="g9547"
       transform="matrix(0.21334155,-0.05917659,0,0.23311691,0.66317883,289.22115)">
      <g
         style="display:inline"
         inkscape:label="Layer 1"
         id="layer4" />
      <path
         id="rect5872"
         d="m 11.987289,9.3234482 h 7.991524 v 3.9957608 h -7.991524 z"
         style="opacity:1;fill:#0f0f00;fill-opacity:1;stroke:#000000;stroke-width:0;stroke-miterlimit:4;stroke-dasharray:none;stroke-opacity:1"
         inkscape:connector-curvature="0" />
      <path
         id="rect5874"
         d="m 14.667374,10.662096 h 3.995763 v 1.331921 h -3.995763 z"
         style="opacity:1;fill:#ffffff;fill-opacity:0.98571424;stroke:#000000;stroke-width:0;stroke-miterlimit:4;stroke-dasharray:none;stroke-opacity:1"
         inkscape:connector-curvature="0" />
      <path
         id="rect5878"
         d="m -29.323654,9.3234482 h 7.989551 v 3.9957608 h -7.989551 z"
         style="opacity:1;fill:#0c0c00;fill-opacity:1;stroke:#000000;stroke-width:0;stroke-miterlimit:4;stroke-dasharray:none;stroke-opacity:1"
         transform="scale(-1,1)"
         inkscape:connector-curvature="0" />
      <path
         id="rect5880"
         d="m 26.64423,10.662096 -3.171232,0.209056 v 1.331921 l 3.171232,-0.209056 z"
         style="opacity:1;fill:#ffffff;fill-opacity:0.98571424;stroke:#000000;stroke-width:0;stroke-miterlimit:4;stroke-dasharray:none;stroke-opacity:1"
         inkscape:connector-curvature="0" />
      <path
         id="rect5882"
         d="m 19.995058,14.667374 h 1.331921 v 3.995762 h -1.331921 z"
         style="opacity:1;fill:#000000;fill-opacity:1;stroke:#000000;stroke-width:0;stroke-miterlimit:4;stroke-dasharray:none;stroke-opacity:1"
         inkscape:connector-curvature="0" />
      <path
         id="rect5884"
         d="m 20.888507,17.21991 2.579094,0.32072 v 1.33192 l -2.579094,-0.32072 z"
         style="opacity:1;fill:#000000;fill-opacity:1;stroke:#000000;stroke-width:0;stroke-miterlimit:4;stroke-dasharray:none;stroke-opacity:1"
         inkscape:connector-curvature="0" />
      <path
         id="rect5886"
         d="m 11.954803,20.011301 h 2.696328 v 2.663842 h -2.696328 z"
         style="opacity:1;fill:#000200;fill-opacity:1;stroke:#000000;stroke-width:0;stroke-miterlimit:4;stroke-dasharray:none;stroke-opacity:1"
         inkscape:connector-curvature="0" />
      <path
         id="rect5888"
         d="m 27.970341,20.011301 h 2.696327 v 2.663842 h -2.696327 z"
         style="opacity:1;fill:#000200;fill-opacity:1;stroke:#000000;stroke-width:0;stroke-miterlimit:4;stroke-dasharray:none;stroke-opacity:1"
         inkscape:connector-curvature="0" />
      <path
         id="rect5890"
         d="m 14.651131,20.011301 h 13.351695 v 1.33192 H 14.651131 Z"
         style="opacity:1;fill:#000200;fill-opacity:1;stroke:#000000;stroke-width:0;stroke-miterlimit:4;stroke-dasharray:none;stroke-opacity:1"
         inkscape:connector-curvature="0" />
    </g>
    <path
       style="fill:#aaaaaa;fill-opacity:1;stroke:none;stroke-width:0.36093959;stroke-linecap:butt;stroke-linejoin:round;stroke-miterlimit:4;stroke-dasharray:none;stroke-opacity:1"
       d="m 13.770304,196.46789 2.089789,1.62471 0.0149,11.57492 -2.613391,1.21568 -1.256152,-2.52768 1.742464,-2.84178 z"
       id="path890"
       inkscape:connector-curvature="0"
       sodipodi:nodetypes="ccccccc" />
    <path
       style="fill:#4c4c4c;fill-opacity:1;stroke:none;stroke-width:0.42375344;stroke-linecap:butt;stroke-linejoin:round;stroke-miterlimit:4;stroke-dasharray:none;stroke-opacity:1"
       d="m 12.013114,208.34875 -5.3235435,1.97489 -6.69943113,0.01 2.58018153,1.10658 10.7157081,-0.59892 z"
       id="path892"
       inkscape:connector-curvature="0"
       sodipodi:nodetypes="cccccc" />
    <path
       style="fill:none;stroke:#f0f0f0;stroke-width:0.426;stroke-linecap:butt;stroke-linejoin:miter;stroke-miterlimit:4;stroke-dasharray:none;stroke-opacity:1"
       d="m 0.59041651,197.04072 c -0.0137993,0.21756 -0.0170238,0.43835 0.16120379,0.65053 0.0253224,0.10494 0.0923135,0.21181 0.17634089,0.31037 0.0749016,0.19089 0.0140771,0.38427 0.0829231,0.57513 -0.00981,0.11855 0.018664,0.23805 -0.0446123,0.35567 0.0890669,0.10917 -0.12777393,0.22082 -0.0253289,0.32909 0.26967071,0.0634 0.64686031,-0.0393 0.97455501,-0.0239 0.4720743,-0.0146 0.9981035,-0.0541 1.2636201,-0.18516 0.2804549,-0.10346 0.7054909,-0.20694 0.6513508,-0.35559 -0.2261643,-0.21247 -0.9071852,-0.34501 -1.5648106,-0.4212 -0.2546365,-0.0395 -0.5186006,-0.0779 -0.8095551,-0.0889 -0.1580327,-0.008 -0.59556912,-0.0286 -0.2278869,-0.0449 0.8019028,-0.0673 1.5668936,-0.16891 2.3278872,-0.26908 0.3181243,-0.0455 0.5494167,-0.16373 0.3753935,-0.26684 -0.2367962,-0.18967 -0.4798003,-0.38175 -0.8328955,-0.55456 -0.3572112,-0.13812 -0.9858846,-0.20827 -1.5509824,-0.16943 -0.3775604,0.02 -0.5011834,0.19319 -0.91874033,0.15696 l -0.0384626,0.002 z"
       id="path1294"
       inkscape:connector-curvature="0" />
    <path
       style="fill:none;stroke:#d6bebe;stroke-width:0.56077296;stroke-linecap:butt;stroke-linejoin:miter;stroke-miterlimit:4;stroke-dasharray:none;stroke-opacity:1"
       d="m 5.7947901,197.47534 c -0.5020097,0.006 -0.7268093,0.4193 -0.7284817,0.68763 -0.057033,0.30659 -0.015816,0.77295 0.6361495,0.82266 0.5407537,-0.0214 1.0871517,-0.01 1.6308879,-0.0128 0.3125442,-0.2749 0.4198359,-0.63344 0.2762423,-0.95157 -0.2870104,-0.26492 -0.7728517,-0.44384 -1.3050948,-0.45702 -0.1886286,-0.0183 -0.3112224,-0.0439 -0.5097032,-0.0894 z"
       id="path1302"
       inkscape:connector-curvature="0" />
    <path
       style="fill:none;stroke:#f0f0f0;stroke-width:0.38738474;stroke-linecap:butt;stroke-linejoin:miter;stroke-miterlimit:4;stroke-dasharray:none;stroke-opacity:1"
       d="m 9.0619504,196.57339 c -0.00845,0.80328 0.016944,1.60725 -0.012752,2.41013 -0.00539,0.0291 -0.018347,0.0577 -0.025002,0.0867"
       id="path1304"
       inkscape:connector-curvature="0" />
    <path
       id="path1308"
       style="fill:none;stroke:#d6bebe;stroke-width:0.38738474;stroke-linecap:butt;stroke-linejoin:miter;stroke-miterlimit:4;stroke-dasharray:none;stroke-opacity:1"
       d="m 12.459562,198.51113 c -0.315671,0.14849 -0.673573,0.29322 -1.071747,0.39259 -0.211761,0.0648 -0.458596,0.14244 -0.627054,0.16247 m -0.339766,-1.94213 c 0.286851,0.2111 0.63858,0.40755 0.973491,0.60207 0.371321,0.24876 0.753154,0.48704 1.133082,0.72919 0.0948,0.0805 0.02276,-0.13707 0.04524,-0.18954 0,-0.45675 0,-0.91348 0,-1.37022"
       inkscape:connector-curvature="0" />
    <path
       style="fill:none;stroke:#c6c6c6;stroke-width:0.27282465px;stroke-linecap:butt;stroke-linejoin:miter;stroke-opacity:1"
       d="m 0.88658006,200.82672 c 0.30965884,-0.33962 1.05311534,-0.83865 1.42864904,-0.92797 0.3794213,-0.10881 0.6878236,-0.0766 0.5807054,0.19698 -0.1226909,0.23078 -0.5406082,0.51995 -0.8743536,0.70683 -0.3633733,0.21675 -0.7311575,0.43927 -1.08864315,0.6084 m -0.0259536,-0.75084 c 0.0362448,0.95613 0.24275705,1.81244 0.17093685,2.83174"
       id="path1312"
       inkscape:connector-curvature="0"
       sodipodi:nodetypes="ccccccc" />
    <path
       style="fill:none;stroke:#e9e9e9;stroke-width:0.38511753;stroke-linecap:butt;stroke-linejoin:miter;stroke-miterlimit:4;stroke-dasharray:none;stroke-opacity:1"
       d="m 1.8962531,201.96228 0.066395,1.41528 c -0.082553,0.48757 0.4637305,-0.0946 0.6929127,-0.38938 0.1757235,-0.67154 0.108385,-1.16613 0.092532,-1.68608 0.058565,-0.34776 0.090242,0.11796 -0.1318672,-0.27837"
       id="path1314"
       inkscape:connector-curvature="0"
       sodipodi:nodetypes="ccccc" />
    <path
       id="path1318"
       style="fill:none;stroke:#e9e9e9;stroke-width:0.37448928px;stroke-linecap:butt;stroke-linejoin:miter;stroke-opacity:1"
       d="m 3.2949373,202.37653 c 0.3198142,-0.30941 0.6413779,-0.59942 0.9600282,-0.92233 l 0.3255199,-0.80004 m -1.0472377,-0.0854 c 0.2923205,0.65617 0.6139043,1.314 0.6423555,2.33637 0.1120464,0.10148 0.1290402,0.38591 0.2114262,0.52539"
       inkscape:connector-curvature="0" />
    <path
       id="path1322"
       style="fill:none;stroke:#f0f0f0;stroke-width:0.43104818px;stroke-linecap:butt;stroke-linejoin:miter;stroke-opacity:1"
       d="m 5.2197979,201.32315 c 0.5203786,-0.24253 2.2554872,-1.37834 2.4344258,-1.42635 m -1.219507,-0.16727 c 0.028747,1.04414 0.057512,2.08825 0.086224,3.13243"
       inkscape:connector-curvature="0" />
    <path
       style="fill:none;stroke:#d6bebe;stroke-width:0.56605119;stroke-linecap:butt;stroke-linejoin:miter;stroke-miterlimit:4;stroke-dasharray:none;stroke-opacity:1"
       d="m 8.203529,200.53945 c -0.5222033,0.17828 -0.8765422,0.53336 -0.7335328,0.90983 -0.015873,0.5261 0.1310481,1.36735 1.0620578,0.69023 0.662238,-0.65146 0.6896413,-1.5774 0.098432,-1.63818 -0.155901,-0.12681 -0.420387,0.0255 -0.6872953,0.17432"
       id="path1324"
       inkscape:connector-curvature="0" />
    <path
       style="fill:none;stroke:#d6bebe;stroke-width:0.28714368;stroke-linecap:butt;stroke-linejoin:miter;stroke-miterlimit:4;stroke-dasharray:none;stroke-opacity:1"
       d="m 10.141235,199.43589 c -0.02957,0.37692 -0.095,1.86224 -0.08398,1.92405 0.05151,-0.54929 0.08462,-0.64896 0.304089,-1.26179 0.244849,-0.51991 0.323898,0.019 0.32241,0.38597 0.0051,0.28818 -0.003,1.19034 0.0015,1.47328"
       id="path1326"
       inkscape:connector-curvature="0"
       sodipodi:nodetypes="ccccc" />
    <path
       style="fill:none;stroke:#e9e9e9;stroke-width:0.32719675;stroke-linecap:butt;stroke-linejoin:miter;stroke-miterlimit:4;stroke-dasharray:none;stroke-opacity:1"
       d="m 13.259879,199.19313 c -0.399392,0.0589 -0.964028,0.26258 -1.325536,0.82325 -0.407573,0.50534 0.274086,0.29829 0.400556,0.45631 0.627378,-0.38172 -0.132766,0.3957 -0.412838,0.39479 -0.214179,0.008 -0.684673,0.39772 -0.693372,0.41953"
       id="path1328"
       inkscape:connector-curvature="0" />
    <path
       style="fill:none;stroke:#000000;stroke-width:0.065;stroke-linecap:butt;stroke-linejoin:miter;stroke-miterlimit:4;stroke-dasharray:none;stroke-opacity:1"
       d="m 14.940697,247.23471 0.06331,1.30962 -0.333252,0.52619 1.214871,0.52819 v 0 0 0"
       id="path956"
       inkscape:connector-curvature="0"
       sodipodi:nodetypes="ccccccc" />
    <path
       style="fill:none;stroke:#000000;stroke-width:0.035;stroke-linecap:butt;stroke-linejoin:miter;stroke-miterlimit:4;stroke-dasharray:none;stroke-opacity:1"
       d="m 15.885626,246.12003 -1.214872,-0.30017 0.284058,0.82737 -0.512073,-0.0323 0.520341,0.61973"
       id="path958"
       inkscape:connector-curvature="0"
       sodipodi:nodetypes="ccccc" />
    <path
       style="fill:#f9f9f9;stroke:#000000;stroke-width:0.27782598px;stroke-linecap:butt;stroke-linejoin:round;stroke-opacity:1;fill-opacity:1"
       d="M 2.0669046,219.40473 1.9877055,222.26759 6.81889,222.14577 6.7396944,219.222 Z"
       id="path990"
       inkscape:connector-curvature="0" />
    <path
       style="fill:none;stroke:#000000;stroke-width:0.27826348;stroke-linecap:butt;stroke-linejoin:round;stroke-miterlimit:4;stroke-dasharray:none;stroke-opacity:1"
       d="m 6.7396902,219.222 1.7423953,1.00503 -0.079196,2.19283 -1.6631959,-0.30456 z"
       id="path992"
       inkscape:connector-curvature="0" />
    <path
       style="fill:#7c7c7c;stroke:#000000;stroke-width:0.27826348;stroke-linecap:butt;stroke-linejoin:round;stroke-miterlimit:4;stroke-dasharray:none;stroke-opacity:1;fill-opacity:1"
       d="m 2.0669046,222.29804 c 0.395999,0.0608 1.9007945,0.51775 1.9007945,0.51775 l 4.5143864,-0.30455 -1.6631958,-0.42639 z"
       id="path994"
       inkscape:connector-curvature="0" />
    <path
       inkscape:connector-curvature="0"
       id="path2706"
       d="m 10.719088,219.28375 -0.08351,3.28201 4.842857,-0.13965 0.04174,-2.44405 -0.79772,-0.85642 z"
       style="fill:#3d3d3d;fill-opacity:1;stroke:#000000;stroke-width:0.30543426px;stroke-linecap:butt;stroke-linejoin:round;stroke-opacity:1"
       sodipodi:nodetypes="cccccc" />
    <path
       inkscape:connector-curvature="0"
       id="path2708"
       d="m 11.541476,222.63492 -1.255515,-0.0292 -0.0011,-3.49115 1.070465,0.71052 z"
       style="fill:#9b9b9b;fill-opacity:1;stroke:#000000;stroke-width:0.2246304;stroke-linecap:butt;stroke-linejoin:round;stroke-miterlimit:4;stroke-dasharray:none;stroke-opacity:1"
       sodipodi:nodetypes="ccccc" />
    <path
       style="fill:none;stroke:#ececec;stroke-width:0.30268985;stroke-linecap:butt;stroke-linejoin:round;stroke-miterlimit:4;stroke-dasharray:none;stroke-opacity:1"
       d="m 12.262684,222.15653 c 0.235882,-0.0558 0.386442,-0.15998 0.353245,-0.24351 0.01513,-0.19615 -0.0057,-0.39272 0.02666,-0.58861 0.01064,-0.35471 -0.02083,-0.70956 -0.0837,-1.0631 0.08298,-0.11098 0.496742,0.17237 0.693949,0.22854 0.282664,0.0593 0.433325,-0.14999 0.660955,-0.0549 0.245942,0.13329 0.414257,0.32541 0.266024,0.49605 -0.10965,0.10264 -0.377053,0.14201 -0.60899,0.15031 -0.148433,-0.004 -0.30393,0.17208 -0.376379,0.13254 0.215212,0.0254 0.351737,-0.14395 0.5641,-0.11146 0.412142,0.0692 0.50885,0.11785 0.569738,0.33072 0.05018,0.14501 0.278053,0.41139 -0.04309,0.47299 -0.41758,0.0873 -0.886822,0.0334 -1.325138,0.0666 -0.155637,0.0134 -0.299639,0.049 -0.412522,0.0993"
       id="path3291"
       inkscape:connector-curvature="0"
       sodipodi:nodetypes="cccccccccccccc" />
    <path
       inkscape:connector-curvature="0"
       id="path2710"
       d="m 15.508758,219.89523 0.03489,-0.80738 -5.157516,0.0319 c 0.04771,0.18842 0.729417,0.46174 1.110199,0.69476 z"
       style="fill:#787878;fill-opacity:1;stroke:#000000;stroke-width:0.2729378;stroke-linecap:butt;stroke-linejoin:round;stroke-miterlimit:4;stroke-dasharray:none;stroke-opacity:1"
       sodipodi:nodetypes="ccccc" />
    <g
       id="g2726">
      <path
         inkscape:connector-curvature="0"
         id="path3289"
         d="m 3.4712564,220.75188 c 0.708461,0.003 1.4170884,-0.005 2.1254291,0.003 -0.3629586,0.01 -0.729915,-0.0275 -1.0895716,0.004 -0.180062,0.0601 0.2571473,0.0245 0.3483889,0.0319 0.1487286,-0.002 0.2976019,-0.003 0.4462964,-8e-5"
         style="fill:none;stroke:#000000;stroke-width:0.47536719;stroke-linecap:butt;stroke-linejoin:round;stroke-miterlimit:4;stroke-dasharray:none;stroke-opacity:1" />
      <path
         inkscape:connector-curvature="0"
         id="path3287"
         d="m 3.3749126,221.5992 c 0.015088,-0.51449 -0.0335,-1.02934 0.030545,-1.54354 0.02258,-0.11301 0.4637079,-0.15863 0.3835998,-0.27603 0.048015,-0.0788 0.3605583,-0.19637 0.5110793,-0.0852 0.1091186,0.084 0.1253609,0.18192 0.2532524,0.26357 0.2278022,0.17807 0.5978303,0.33628 0.6736291,0.53815 0.069793,0.28915 0.3794546,0.57044 0.2727201,0.86437 -0.025275,0.14373 -0.050512,0.29494 0.0911,0.43155"
         style="fill:none;stroke:#000000;stroke-width:0.47536719;stroke-linecap:butt;stroke-linejoin:round;stroke-miterlimit:4;stroke-dasharray:none;stroke-opacity:1" />
    </g>
  </g>
</svg>
