<?xml version="1.0" encoding="UTF-8" standalone="no"?>
<!-- Created with Inkscape (http://www.inkscape.org/) -->

<svg
   width="186.34389mm"
   height="32.02652mm"
   viewBox="0 0 186.34389 32.02652"
   version="1.1"
   id="svg1"
   inkscape:version="1.3.2 (091e20e, 2023-11-25)"
   sodipodi:docname="portaloof-header.svg"
   xmlns:inkscape="http://www.inkscape.org/namespaces/inkscape"
   xmlns:sodipodi="http://sodipodi.sourceforge.net/DTD/sodipodi-0.dtd"
   xmlns="http://www.w3.org/2000/svg"
   xmlns:svg="http://www.w3.org/2000/svg">
  <sodipodi:namedview
     id="namedview1"
     pagecolor="#ffffff"
     bordercolor="#000000"
     borderopacity="0.25"
     inkscape:showpageshadow="2"
     inkscape:pageopacity="0.0"
     inkscape:pagecheckerboard="0"
     inkscape:deskcolor="#d1d1d1"
     inkscape:document-units="mm"
     inkscape:zoom="0.2102413"
     inkscape:cx="-206.90511"
     inkscape:cy="-64.211931"
     inkscape:window-width="1920"
     inkscape:window-height="1022"
     inkscape:window-x="1728"
     inkscape:window-y="30"
     inkscape:window-maximized="1"
     inkscape:current-layer="layer1" />
  <defs
     id="defs1" />
  <g
     inkscape:label="Layer 1"
     inkscape:groupmode="layer"
     id="layer1"
     transform="translate(-159.80834,-165.10001)">
    <g
       id="Layer1"
       transform="matrix(0.29348062,0,0,0.29943269,159.33994,160.1887)"
       style="clip-rule:evenodd;display:inline;fill-rule:evenodd;stroke-width:1.9397;stroke-linejoin:round;stroke-miterlimit:2;stroke-dasharray:none">
        <path
   d="m 2.105,86.683 3.274,34.104 c 0,0 1.939,-77.831 4.34,-81.275 2.402,-3.445 -4.34,-19.797 -4.34,-19.797 z"
   style="fill:#a2a2a2;stroke-width:1.9397;stroke-dasharray:none"
   id="path53" />

        <path
   d="m 1.596,86.732 0.14,-0.067 C 2.276,65.542 2.096,65.538 3.372,39.442 4.336,19.721 4.312,19.717 4.362,19.49 c 0.214,-0.966 1.58,-1.12 1.981,-0.167 0.009,0.019 3.229,7.833 4.454,13.864 0.854,4.201 0.427,5.934 -0.199,6.88 -0.03,0.125 -0.292,0.752 -0.566,2.775 -2.047,15.125 -3.741,77.785 -3.807,78.111 -0.191,0.954 -1.604,0.881 -1.693,-0.085 -0.344,-3.731 -0.333,-3.73 -2.936,-34.136 z m 0.883,-0.085 0.135,-0.013 2.224,20.98 C 5.433,85.227 6.821,43.26 8.693,39.226 8.823,38.944 10.116,38.054 7.948,30.31 7.421,28.429 6.773,26.477 6.174,24.784 L 5.452,39.543 C 4.178,65.617 3.998,65.626 2.479,86.647 Z"
   id="path54"
   style="stroke-width:1.9397;stroke-dasharray:none" />

        <path
   d="m 5.379,19.525 c 2.507,-5 579.26457,0.274986 579.26457,0.274986 l 31.5049,21.40893 L 8.271,39.795 c 0,0 -5.4,-15.27 -2.892,-20.27 z"
   style="fill:#aeaeae;stroke:#000000;stroke-width:1.9397;stroke-dasharray:none;stroke-opacity:1"
   id="path55"
   sodipodi:nodetypes="ccccc" />

        
        <path
   d="m 5.379,122.264 c -0.057,-4.213 630.19159,-3.33833 630.19159,-3.33833 L 617.37484,41.734817 8.188,37.895 c 0,0 -2.753,88.582 -2.809,84.369 z"
   style="display:inline;fill:#8b8b8b;fill-opacity:1;stroke:#000000;stroke-width:1.9397;stroke-dasharray:none;stroke-opacity:1"
   id="path57"
   sodipodi:nodetypes="ccccc" />

        
    <g
   id="g9547"
   transform="matrix(6.594603,-0.87422537,0,6.160953,1132.1804,258.3121)"
   style="clip-rule:evenodd;display:inline;fill-rule:evenodd;stroke-linejoin:round;stroke-miterlimit:2;enable-background:new">
  <g
     style="display:inline"
     inkscape:label="Layer 1"
     id="layer4" />
  <path
     id="rect5872"
     d="m -166.34089,-56.872082 7.61885,0.383393 -0.13093,3.065267 -8.24128,-0.51405 z"
     style="opacity:1;fill:#0f0f00;fill-opacity:1;stroke:#000000;stroke-width:0;stroke-miterlimit:4;stroke-dasharray:none;stroke-opacity:1"
     inkscape:connector-curvature="0"
     sodipodi:nodetypes="ccccc" />
  <path
     id="rect5874"
     d="m -165.13326,-55.959132 4.32904,0.295801 v 1.024927 l -4.32904,-0.295802 z"
     style="opacity:1;fill:#ffffff;fill-opacity:0.985714;stroke:#000000;stroke-width:0;stroke-miterlimit:4;stroke-dasharray:none;stroke-opacity:1"
     inkscape:connector-curvature="0" />
  <path
     id="rect5878"
     d="m -149.25451,-55.904248 -8.65595,-0.591457 v 3.074778 l 8.65595,0.591458 z"
     style="opacity:1;fill:#0c0c00;fill-opacity:1;stroke:#000000;stroke-width:0;stroke-miterlimit:4;stroke-dasharray:none;stroke-opacity:1"
     inkscape:connector-curvature="0" />
  <path
     id="rect5880"
     d="m -151.93394,-55.030917 -3.17123,-0.02468 v 1.024926 l 3.75258,0.144659 z"
     style="opacity:1;fill:#ffffff;fill-opacity:0.985714;stroke:#000000;stroke-width:0;stroke-miterlimit:4;stroke-dasharray:none;stroke-opacity:1"
     inkscape:connector-curvature="0"
     sodipodi:nodetypes="ccccc" />
  <path
     id="rect5882"
     d="m -156.74298,-52.053139 1.36145,0.08342 -0.5345,2.975329 -1.36146,-0.08342 z"
     style="opacity:1;fill:#000000;fill-opacity:1;stroke:#000000;stroke-width:0;stroke-miterlimit:4;stroke-dasharray:none;stroke-opacity:1"
     inkscape:connector-curvature="0" />
  <path
     id="rect5884"
     d="m -158.42035,-50.813789 2.61646,0.271895 -0.2702,1.504084 -2.53287,-0.222688 z"
     style="opacity:1;fill:#000000;fill-opacity:1;stroke:#000000;stroke-width:0;stroke-miterlimit:4;stroke-dasharray:none;stroke-opacity:1"
     inkscape:connector-curvature="0"
     sodipodi:nodetypes="ccccc" />
  <path
     id="rect5886"
     d="m -166.62336,-48.696083 2.69633,0.157762 v 2.049853 l -2.69633,-0.157761 z"
     style="opacity:1;fill:#000200;fill-opacity:1;stroke:#000000;stroke-width:0;stroke-miterlimit:4;stroke-dasharray:none;stroke-opacity:1"
     inkscape:connector-curvature="0" />
  <path
     id="rect5888"
     d="m -150.60782,-47.182444 1.6493,-0.06737 0.32792,2.141181 -1.97722,-0.02396 z"
     style="opacity:1;fill:#000200;fill-opacity:1;stroke:#000000;stroke-width:0;stroke-miterlimit:4;stroke-dasharray:none;stroke-opacity:1"
     inkscape:connector-curvature="0"
     sodipodi:nodetypes="ccccc" />
  <path
     id="rect5890"
     d="m -163.92703,-48.300031 13.35169,1.177145 v 0.786636 l -13.35169,-1.177145 z"
     style="opacity:1;fill:#000200;fill-opacity:1;stroke:#000000;stroke-width:0;stroke-miterlimit:4;stroke-dasharray:none;stroke-opacity:1"
     inkscape:connector-curvature="0" />
</g>
<g
   id="g80"
   style="clip-rule:evenodd;fill-rule:evenodd;stroke-linejoin:round;stroke-miterlimit:2"
   transform="matrix(0.90153596,0,0,0.88361539,-2.3473873,11.545245)">
  <path
     style="font-size:88.7086px;font-family:Kailasa;-inkscape-font-specification:'Kailasa, Normal';fill:#0c0c0c;stroke-width:27.1449"
     d="m 674.88741,49.344587 h -0.42842 c -0.79732,-0.262762 -1.86596,-0.525523 -3.20595,-0.788286 -1.3302,-0.291958 -2.53794,-0.437936 -3.62325,-0.437936 -3.45584,0 -6.23336,0.788285 -8.33254,2.364857 -2.06084,1.547376 -3.77615,4.364768 -5.14592,8.452175 l -0.5577,1.664159 h 14.52313 l -2.31884,6.919397 -15.47212,2.814089 -12.86841,39.184018 -10.06417,-2.81409 16.0845,-39.184017 h -5.44082 l 2.31883,-6.919397 h 5.44083 l 0.54302,-1.620365 c 1.94704,-5.809958 4.85287,-10.262313 8.7175,-13.357065 3.87441,-3.123946 8.48204,-4.68592 13.82289,-4.68592 1.79932,0 3.38365,0.08759 4.75299,0.262762 1.39789,0.175175 2.65748,0.379545 3.77875,0.613111 z"
     id="path80" />
  <path
     style="font-size:88.7086px;font-family:Kailasa;-inkscape-font-specification:'Kailasa, Normal';fill:#0c0c0c;stroke-width:27.1449"
     d="m 627.91351,86.286247 c -2.67107,7.970444 -6.7788,14.262133 -12.32319,18.875063 -5.54439,4.61294 -14.88857,5.71336 -21.60035,5.71336 -6.76889,0 -8.56555,-1.50244 -11.01815,-6.11538 -2.42405,-4.61292 -2.30055,-10.904612 0.37052,-18.875057 2.67106,-7.970444 3.95042,-15.066158 9.46625,-19.67909 5.55417,-4.642127 11.7157,-6.96319 18.48459,-6.96319 6.71178,0 11.28907,2.321063 13.7319,6.96319 2.45261,4.612932 5.55949,12.110659 2.88843,20.081104 z m -11.52728,-1.206039 c 2.12316,-6.335483 2.48457,-11.036001 1.08423,-14.101556 -1.39054,-3.094752 -4.24215,-4.642127 -8.55482,-4.642127 -4.36978,0 -8.28706,1.547375 -11.75185,4.642127 -3.42643,3.065555 -6.20122,7.766073 -8.32438,14.101556 -2.05466,6.131112 -2.4014,10.787836 -1.0402,13.970175 1.37097,3.153147 4.22707,4.729717 8.5683,4.729717 4.28411,0 8.16344,-1.56197 11.63801,-4.685923 3.51291,-3.153144 6.30648,-7.824467 8.38071,-14.013969 z"
     id="path79" />
  <path
     style="font-size:88.7086px;font-family:Kailasa;-inkscape-font-specification:'Kailasa, Normal';fill:#0c0c0c;stroke-width:27.1449"
     d="m 571.44594,85.080208 c -2.67106,7.970445 -6.77878,14.262132 -12.32318,18.875062 -5.54439,4.61294 -11.67247,6.9194 -18.38424,6.9194 -6.76889,0 -11.37964,-2.30646 -13.83225,-6.9194 -2.42404,-4.61293 -2.30054,-10.904617 0.37052,-18.875062 2.67107,-7.970445 6.76452,-14.262133 12.28035,-18.875065 5.55417,-4.642127 11.7157,-6.96319 18.48459,-6.96319 6.71177,0 11.28907,2.321063 13.7319,6.96319 2.45261,4.612932 2.34338,10.90462 -0.32769,18.875065 z m -8.31117,0 c 2.12316,-6.335483 2.48457,-11.036001 1.08424,-14.101556 -1.39055,-3.094752 -4.24215,-4.642127 -8.55482,-4.642127 -4.36979,0 -5.47298,2.3514 -8.93776,5.446152 -3.42643,3.065555 -9.01531,6.962048 -11.13847,13.297531 -2.05466,6.131112 0.41269,11.591862 1.77388,14.7742 1.37099,3.153142 1.41299,3.925692 5.75422,3.925692 4.28411,0 8.16344,-1.56197 11.638,-4.685923 3.51291,-3.153144 6.30648,-7.824467 8.38071,-14.013969 z"
     id="path78" />
  <path
     style="font-size:88.7086px;font-family:Kailasa;-inkscape-font-specification:'Kailasa, Normal';fill:#0c0c0c;stroke-width:27.1449"
     d="m 506.53504,109.51706 h -11.27022 l 22.83613,-68.142917 h 11.27022 z"
     id="path77" />
  <path
     style="font-size:88.7086px;font-family:Kailasa;-inkscape-font-specification:'Kailasa, Normal';fill:#0c0c0c;stroke-width:27.1449"
     d="m 482.88678,109.51706 h -8.01128 l 1.74646,-5.21144 c -0.88035,0.49633 -2.08623,1.19703 -3.61765,2.1021 -1.49307,0.87587 -2.89888,1.57657 -4.21742,2.10209 -1.56739,0.6715 -3.29557,1.22622 -5.18454,1.66416 -1.89874,0.46714 -4.01911,0.7007 -6.36109,0.7007 -4.31266,0 -7.47924,-1.45978 -9.4997,-4.37936 -2.02046,-2.91958 -2.27243,-6.642043 -0.75589,-11.167387 1.24258,-3.707862 3.0166,-6.70043 5.32204,-8.9777 2.34379,-2.306465 5.17813,-4.116603 8.50305,-5.430412 3.35348,-1.31381 7.15058,-2.204281 11.39131,-2.671413 4.24073,-0.467133 8.74221,-0.817482 13.50444,-1.051048 l 0.42561,-1.270016 c 0.62618,-1.868528 0.81629,-3.415905 0.57033,-4.642127 -0.2174,-1.226222 -0.80847,-2.189682 -1.7732,-2.890381 -0.91739,-0.671502 -2.13665,-1.124037 -3.65778,-1.357603 -1.52114,-0.233566 -3.1528,-0.350349 -4.895,-0.350349 -2.1135,0 -4.5676,0.291958 -7.3623,0.875873 -2.78493,0.554719 -5.74359,1.372201 -8.87599,2.452444 h -0.42841 l 2.80315,-8.364587 c 1.7176,-0.437936 4.14961,-0.919667 7.29605,-1.445191 3.14642,-0.525524 6.16195,-0.788285 9.04659,-0.788285 3.37016,0 6.1998,0.291957 8.48889,0.875873 2.32744,0.554719 4.17519,1.51818 5.54322,2.89038 1.34925,1.343006 2.13801,3.080153 2.36628,5.211445 0.22827,2.131291 -0.18595,4.773508 -1.24263,7.926651 z m -3.97534,-12.043249 4.56429,-13.619825 c -2.50514,0.145978 -5.47743,0.364947 -8.91687,0.656904 -3.41089,0.291958 -6.18034,0.715296 -8.30838,1.270016 -2.53844,0.671503 -4.7614,1.72255 -6.66886,3.153143 -1.89768,1.401397 -3.26234,3.342915 -4.09399,5.824556 -0.93928,2.802794 -0.82036,4.919487 0.35674,6.350075 1.18688,1.4014 3.47968,2.1021 6.87842,2.1021 2.8275,0 5.59815,-0.55472 8.31193,-1.66416 2.72355,-1.13863 5.34914,-2.496237 7.87672,-4.072809 z"
     id="path76" />
  <path
     style="font-size:88.7086px;font-family:Kailasa;-inkscape-font-specification:'Kailasa, Normal';fill:#0c0c0c;stroke-width:27.1449"
     d="m 436.12256,109.07913 c -1.65069,0.40874 -3.41973,0.74449 -5.30712,1.00725 -1.85883,0.26276 -3.48797,0.39415 -4.88745,0.39415 -4.88388,0 -8.1467,-1.34301 -9.78846,-4.02902 -1.64177,-2.68601 -1.46957,-6.992388 0.5166,-12.919127 l 8.71765,-26.01343 h -5.44081 l 2.31883,-6.919397 h 5.44082 l 1.49495,-14.057763 h 11.27023 l -4.71105,14.057763 h 16.62233 l -2.31883,6.919397 h -16.62234 l -7.47017,22.290969 c -0.861,2.569228 -1.47904,4.583736 -1.85395,6.043525 -0.36518,1.430592 -0.4154,2.773597 -0.15066,4.029015 0.23697,1.167828 0.80515,2.029108 1.70457,2.583828 0.93776,0.52552 2.53478,0.78828 4.79107,0.78828 1.3138,0 2.74831,-0.18978 4.30354,-0.56932 1.56502,-0.40874 2.70572,-0.74449 3.42211,-1.00725 h 0.42841 z"
     id="path75" />
  <path
     style="font-size:88.7086px;font-family:Kailasa;-inkscape-font-specification:'Kailasa, Normal';fill:#0c0c0c;stroke-width:27.1449"
     d="m 416.92977,69.577255 h -0.42842 c -1.1017,-0.291958 -2.20421,-0.496328 -3.3075,-0.613111 -1.06494,-0.145979 -2.36856,-0.218969 -3.91084,-0.218969 -2.48478,0 -5.07467,0.569318 -7.76967,1.707953 -2.68521,1.109439 -5.39726,2.554629 -8.13615,4.335571 l -11.63821,34.728361 h -11.27022 l 16.39329,-48.917504 h 11.27022 l -2.42157,7.225952 c 4.07937,-2.627619 7.5139,-4.48155 10.30357,-5.561794 2.82802,-1.109439 5.51298,-1.664158 8.05488,-1.664158 1.39948,0 2.39871,0.04379 2.99769,0.131381 0.60877,0.05839 1.50724,0.189773 2.69543,0.394143 z"
     id="path74" />
  <path
     style="font-size:88.7086px;font-family:Kailasa;-inkscape-font-specification:'Kailasa, Normal';fill:#0c0c0c;stroke-width:27.1449"
     d="m 369.40741,85.080208 c -2.67106,7.970445 -6.77879,14.262132 -12.32318,18.875062 -5.5444,4.61294 -11.67247,6.9194 -18.38424,6.9194 -6.76889,0 -14.59575,-2.30646 -17.04836,-6.9194 -2.42404,-4.61293 -2.30054,-10.904617 0.37053,-18.875062 2.67106,-7.970445 6.76451,-14.262133 12.28034,-18.875065 5.55417,-4.642127 14.93181,-6.96319 21.7007,-6.96319 6.71177,0 11.28906,2.321063 13.73189,6.96319 2.45261,4.612932 2.34339,10.90462 -0.32768,18.875065 z m -8.31116,0 c 2.12315,-6.335483 2.48456,-11.036001 1.08423,-14.101556 -1.39055,-3.094752 -4.24216,-4.642127 -8.55482,-4.642127 -4.36979,0 -8.28707,1.547375 -11.75185,4.642127 -3.42644,3.065555 -6.20123,7.766073 -8.32439,14.101556 -2.05466,6.131112 -2.4014,10.787836 -1.0402,13.970175 1.37098,3.153147 4.22708,4.729717 8.56831,4.729717 4.2841,0 8.16344,-1.56197 11.63801,-4.685923 3.5129,-3.153144 6.30647,-7.824467 8.38071,-14.013969 z"
     id="path73" />
  <path
     d="m 311.42997,108.84304 c -2.34221,0.30091 -5.68946,0.6373 -8.03168,1.00916 -2.28058,0.36024 -4.99399,-0.14277 -7.33621,0.30003 -2.28057,0.43114 -4.66165,0.89773 -6.94223,1.39978 -2.21894,0.49039 -4.32934,0.63176 -6.7332,1.22813 l -0.40201,-2.08093 c 2.28058,-0.64395 4.06806,-1.37203 5.36245,-2.18424 1.35602,-0.82386 2.34222,-1.89703 2.95859,-3.21952 0.67801,-1.33412 1.07865,-2.9705 1.20193,-4.90914 0.18491,-2.021228 0.27736,-4.521545 0.27736,-7.500952 V 57.34531 c 0,-2.979403 -0.0924,-5.409291 -0.27736,-7.289664 -0.12328,-1.962977 0.2801,-3.483347 -0.3979,-4.561111 -0.61638,-1.089429 -2.37578,-1.795546 -3.67017,-2.118349 -1.29438,-0.322805 -3.05104,-0.380865 -5.26998,-0.174181 v -1.276882 c 2.03403,-0.242666 4.06806,-0.520796 6.10209,-0.83439 2.03403,-0.313633 4.06806,-0.662718 6.1021,-1.047253 2.95859,-0.559321 5.85553,-1.284333 8.69084,-2.175036 2.89696,-0.902371 5.82473,-1.633218 8.78332,-2.192539 2.28058,-0.431145 4.65361,-0.3832 7.1191,0.143834 2.52714,0.444452 4.83854,1.39078 6.9342,2.838985 2.09567,1.377262 3.79069,3.2559 5.08507,5.635914 1.35603,2.297419 2.03404,5.077711 2.03404,8.340875 0,3.405031 1.03054,7.109729 -0.32549,9.707049 -1.35602,2.597318 -4.79041,4.135398 -6.88607,6.021285 -2.03403,1.803297 -4.31461,3.263047 -6.84175,4.379248 -2.52713,1.116197 -4.99261,1.90152 -7.39646,2.355968 -1.84912,0.349576 -3.75988,0.604398 -5.73228,0.764465 -1.97239,0.08913 -3.88314,-0.08168 -5.73226,-0.512425 v 15.961101 c 0,2.979407 0.0616,5.450592 0.18492,7.413556 0.1849,1.88038 0.58554,3.36528 1.20192,4.45469 0.67801,1.07779 1.6642,1.77808 2.95858,2.10088 1.29438,0.32281 3.05104,0.38087 5.26999,0.17418 z M 299.10098,73.028049 c 1.4793,0.642534 3.99444,-0.512057 5.53537,-0.448678 1.60257,-0.01921 3.20514,-0.180303 4.80771,-0.483269 1.91075,-0.361227 3.72905,-1.024199 5.4549,-1.988916 1.78747,-1.047305 3.32841,-2.296285 4.6228,-3.74694 1.29438,-1.521591 2.31139,-3.274501 3.05104,-5.258728 0.80128,-1.995871 1.20192,-4.164285 1.20192,-6.505241 0,-2.766597 -0.40064,-5.20917 -1.20192,-7.327717 -0.73965,-2.130186 -1.78748,-3.847422 -3.1435,-5.151709 -1.35602,-1.304286 -2.99281,-2.188375 -4.90017,-2.691466 -1.85261,-0.488649 -4.73213,-1.918541 -6.10209,-0.1233 -1.31047,1.717292 -2.43467,0.566685 -3.97561,1.070821 -1.47929,0.421539 -2.92776,1.121 -4.34542,2.098383 z"
     id="text61"
     style="font-size:53.1286px;font-family:Cochin;-inkscape-font-specification:'Cochin, Normal';fill:#0c0c0c;stroke-width:6.85532"
     aria-label="P"
     sodipodi:nodetypes="ccsccccccssccsccsscscccsscssccsccsccccscccscsssccc" />
</g>
</g>
  </g>
</svg>
